<svg xmlns="http://www.w3.org/2000/svg" width="51.021" height="19.625" viewBox="0 0 51.021 19.625"><path d="M0,2.169H2.463V15.046H4.721V2.17h2.46V.21H0Zm20.564.091A7.4,7.4,0,0,0,18.145.619a7.4,7.4,0,0,0-5.924,0A7.386,7.386,0,0,0,9.8,2.26,7.863,7.863,0,0,0,8.164,4.674,7.439,7.439,0,0,0,7.57,7.635,7.441,7.441,0,0,0,8.164,10.6,8.193,8.193,0,0,0,9.8,13.04a7.584,7.584,0,0,0,2.417,1.617,7.492,7.492,0,0,0,2.962.592A7.578,7.578,0,0,0,22.8,7.706q0-.035,0-.069a7.5,7.5,0,0,0-2.235-5.378m-.614,7.657a5.63,5.63,0,0,1-1.142,1.757,5.183,5.183,0,0,1-1.639,1.139A4.732,4.732,0,0,1,15.3,13.2a5.121,5.121,0,0,1-1.937-.387,5.685,5.685,0,0,1-1.709-1.139,5.937,5.937,0,0,1-1.233-1.757,5.638,5.638,0,0,1-.454-2.3,5.821,5.821,0,0,1,.409-2.233,5.328,5.328,0,0,1,1.117-1.756,4.888,4.888,0,0,1,1.641-1.161,5.146,5.146,0,0,1,5.723,1.161A5.34,5.34,0,0,1,19.97,5.381a5.822,5.822,0,0,1,.413,2.233,5.858,5.858,0,0,1-.435,2.3m6.863-7.723h4.148V.23H24.507V15.092h2.328V10.235H31.6v-2H26.811ZM36.066.23,32.328,15.046h2.485l.523-2.417h3.6l.548,2.417H41.97L38.232.23Zm-.409,10.463,1.46-6.976,1.458,6.976ZM50.747,8.8a4.2,4.2,0,0,0-.707-1.321,4.09,4.09,0,0,0-1.115-1,8.568,8.568,0,0,0-1.436-.753,5.7,5.7,0,0,1-.706-.294,3.265,3.265,0,0,1-.661-.435,3.675,3.675,0,0,1-.48-.592,1.644,1.644,0,0,1-.091-1.276,1.388,1.388,0,0,1,.3-.526,1.612,1.612,0,0,1,.524-.409,1.713,1.713,0,0,1,.775-.161,2.719,2.719,0,0,1,1.55.387,3.5,3.5,0,0,1,.843.709V.389l-.8-.2A4.171,4.171,0,0,0,47.9.069c-.3-.03-.63-.052-.981-.066A3.865,3.865,0,0,0,45.665.23a3.611,3.611,0,0,0-1.209.685,3.718,3.718,0,0,0-.91,1.162,3.435,3.435,0,0,0-.365,1.641,3.788,3.788,0,0,0,.389,1.8,4.375,4.375,0,0,0,1.024,1.209,9.5,9.5,0,0,0,1.3.89c.471.243.91.493,1.323.751a4.079,4.079,0,0,1,1,.866,1.8,1.8,0,0,1,.409,1.208,2.772,2.772,0,0,1-.2,1.049,2.5,2.5,0,0,1-.526.844,2.633,2.633,0,0,1-1.868.751,3.716,3.716,0,0,1-.981-.135,6.977,6.977,0,0,1-.956-.389,8.344,8.344,0,0,1-.776-.5,2.306,2.306,0,0,1-.5-.524v2.827a3.686,3.686,0,0,0,.57.3q.387.158.843.3a6.165,6.165,0,0,0,.981.2,6.017,6.017,0,0,0,1.047.091,4.419,4.419,0,0,0,1.824-.386,4.992,4.992,0,0,0,2.554-2.553,4.371,4.371,0,0,0,.386-1.8,4.852,4.852,0,0,0-.274-1.71m-7.4,10.825h2.3l2.688-3.737H45.441Z" transform="translate(0 0)" fill="#cacee6"/></svg>