<svg xmlns="http://www.w3.org/2000/svg" width="50.425" height="48.884" viewBox="0 0 50.425 48.884"><g transform="translate(0 0)"><path d="M50.321,22.516C47.5,19.6,32,3.681,29.175,1.37a6.346,6.346,0,0,0-7.876,0C18.388,3.681,2.978,19.6.067,22.516A.448.448,0,0,0,.41,23.2H7.087a1.406,1.406,0,0,0,1.37-.6c.428-.514,2.654-2.825,2.654-2.825,2.825-3,9.588-9.674,12.071-11.729a3.408,3.408,0,0,1,1.969-.77,3.239,3.239,0,0,1,1.969.77c2.568,2.14,9.417,8.732,12.157,11.729,0,0,2.226,2.4,2.654,2.825a1.406,1.406,0,0,0,1.37.6h6.678c.342,0,.6-.428.342-.685M.067,26.368C2.892,29.279,18.388,45.2,21.213,47.514a6.346,6.346,0,0,0,7.876,0C32,45.2,47.41,29.279,50.235,26.368c.257-.257,0-.685-.342-.685H43.215a1.407,1.407,0,0,0-1.37.6c-.428.514-2.654,2.825-2.654,2.825-2.825,3-9.588,9.674-12.071,11.729a3.407,3.407,0,0,1-1.969.77,3.239,3.239,0,0,1-1.969-.77C20.7,38.782,13.85,32.1,11.111,29.108c0,0-2.226-2.4-2.654-2.825a1.406,1.406,0,0,0-1.37-.6H.41c-.342-.086-.514.342-.342.685m23.286,3.339c-1.284-1.2-3.51-3.339-4.366-4.281a1.466,1.466,0,0,1,0-1.883c.856-.942,3.082-3.168,4.366-4.281a1.656,1.656,0,0,0,.685-1.37V11.3a.282.282,0,0,0-.514-.171c-2.825,2.654-9.16,8.9-11.3,11.3a3.061,3.061,0,0,0-.942,2.14,2.951,2.951,0,0,0,.942,2.14c2.14,2.4,8.475,8.732,11.3,11.3.257.257.514.086.514-.257V31.162a1.96,1.96,0,0,0-.685-1.455m3.681,0c1.284-1.2,3.51-3.339,4.366-4.281a1.466,1.466,0,0,0,0-1.883c-.856-.942-3.082-3.168-4.366-4.281a1.656,1.656,0,0,1-.685-1.37V11.3c0-.342.257-.428.514-.257,2.825,2.654,9.16,8.9,11.3,11.3a3.061,3.061,0,0,1,.942,2.14,2.951,2.951,0,0,1-.942,2.14c-2.14,2.4-8.475,8.732-11.3,11.3-.257.257-.514.086-.514-.257V31.077a1.93,1.93,0,0,1,.685-1.37" transform="translate(0 0)" fill="#cacee6"/></g></svg>