<svg xmlns="http://www.w3.org/2000/svg" width="54.229" height="54.259" viewBox="0 0 54.229 54.259"><path d="M27.115,0A27.129,27.129,0,1,0,54.229,27.129,27.154,27.154,0,0,0,27.115,0ZM24.979,51.67V44.592a17.084,17.084,0,0,0,2.135.132,19.831,19.831,0,0,0,2.091-.117v7.078c-.687.059-1.389.088-2.091.088S25.681,51.729,24.979,51.67Zm7.342-25.213V13.045l-3.1-.892V26.442H24.994V12.168l-3.1.892V26.471H10.047a17.074,17.074,0,0,1,34.135-.015Zm11.861.717A17.128,17.128,0,0,1,32.307,43.217V27.173Zm-22.3,0V43.2A17.122,17.122,0,0,1,10.047,27.173Zm3.1,0h4.227V43.889a16.556,16.556,0,0,1-2.091.132,17.257,17.257,0,0,1-2.135-.132ZM32.321,51.2V43.933a17.762,17.762,0,1,0-10.457,0v7.254a24.631,24.631,0,1,1,10.457.015ZM5.806,16.146l1.214.439L5.6,20.49l1.009.366L7.956,17.17l1.214.453L7.839,21.309l1.784.643-.57,1.609L3.8,21.645Zm9.066-2.81L13.65,14.513,9.774,10.49,11,9.313Zm5.208-5.22c.1.278.234.439.395.468a.768.768,0,0,0,.249-.015,3.054,3.054,0,0,0,.38-.1l.57-.19.424-.146c.322-.117.439-.307.336-.585a.394.394,0,0,0-.468-.292l-.336.088-.322.088-.936.263-.643.161a4.14,4.14,0,0,1-.424.088.959.959,0,0,1-1.068-.395,2.3,2.3,0,0,1-.322-.658A3.13,3.13,0,0,1,17.7,5.879a1.143,1.143,0,0,1,.453-.892,7.747,7.747,0,0,1,1.9-.834c.176-.059.322-.1.483-.146a5.6,5.6,0,0,1,.878-.2,2.2,2.2,0,0,1,.687-.015,1.041,1.041,0,0,1,.585.278,1.615,1.615,0,0,1,.395.658l.117.351-1.609.556L21.5,5.44a.431.431,0,0,0-.395-.249.547.547,0,0,0-.117.015c-.117.029-.234.058-.366.088a3.322,3.322,0,0,0-.322.1c-.1.029-.409.161-.409.161a1.094,1.094,0,0,0-.292.161.378.378,0,0,0-.146.468.394.394,0,0,0,.468.278,1.076,1.076,0,0,0,.176-.029c.073-.015.132-.029.19-.044l.424-.117.424-.132.878-.249a1.539,1.539,0,0,1,.351-.088,3.072,3.072,0,0,1,.366-.029c.585,0,1.024.41,1.3,1.243A1.444,1.444,0,0,1,23.3,9.009a1.65,1.65,0,0,1-.219.1,1.205,1.205,0,0,1-.234.088q-.241.088-.614.219c-.249.088-.395.146-.439.161s-.292.1-.731.234.278-.117.044-.029a2.434,2.434,0,0,1-.307.088,2.347,2.347,0,0,1-.307.073,2.058,2.058,0,0,1-.629.117,1.706,1.706,0,0,1-.556-.1,1.022,1.022,0,0,1-.409-.322,2.117,2.117,0,0,1-.322-.6l-.146-.366Zm11.773-4.4-.512,2.018.439.1,2.384-1.55,1.93.483L32.789,6.815l2.34,3.466-1.96-.5L31.4,7.225l-.409-.088-.5,1.989-1.638-.41L30.2,3.305Zm15.956,14.61-1.229.468.483,1.243c.015.044.044.132.088.234s.073.2.1.263a.97.97,0,0,0,.088.176.8.8,0,0,0,.1.132c.132.132.351.132.658.015a.667.667,0,0,0,.41-.351.73.73,0,0,0-.073-.527l-.176-.468Zm2.135,1.506a2.336,2.336,0,0,1,.132.366,2.715,2.715,0,0,0,.088.292,1.309,1.309,0,0,1-.146,1.2,1.459,1.459,0,0,1-.307.292c-.117.073-.234.146-.351.2s-.249.117-.395.176a2.147,2.147,0,0,1-1.038.19,1.4,1.4,0,0,1-.834-.629,1.472,1.472,0,0,1-.132.98,2.056,2.056,0,0,1-.877.527l-.643.249L44.826,22.1l.483-.19a1.354,1.354,0,0,0,.6-.366c.073-.132.058-.351-.073-.687L45.25,19.32l-1.3.5-.614-1.579,5.221-2ZM41.286,7.649l4.241,4.022-.907.951-3-2.852-.527.556,2.852,2.706-.848.877L40.262,11.2l-.7.731L42.6,14.815l-.892.951L37.44,11.7Z" transform="translate(0 0)" fill="#cacee6"/></svg>