<svg xmlns="http://www.w3.org/2000/svg" width="35.168" height="35.168" viewBox="0 0 35.168 35.168"><g transform="translate(0)"><g transform="translate(0 0)"><circle cx="17.584" cy="17.584" r="17.584" fill="#003893"/><g transform="translate(1.957 1.953)"><path d="M17.349,32.98A15.631,15.631,0,1,1,32.98,17.349,15.648,15.648,0,0,1,17.349,32.98Z" transform="translate(-1.722 -1.718)" fill="#dc143c"/></g><g transform="translate(11.027 6.221)"><path d="M20.187,21.879l2.632-1.053-2.632-1.053,1.752-2.225-2.8.4.4-2.805L17.311,16.9l-1.053-2.632L15.2,16.9,12.98,15.145l.4,2.805-2.805-.4,1.756,2.225L9.7,20.826l2.632,1.053L10.577,24.1l2.805-.4-.4,2.805L15.2,24.755l1.053,2.628,1.053-2.628,2.225,1.752-.4-2.805,2.8.4Z" transform="translate(-9.701 -4.271)" fill="#fff"/><path d="M16.131,12.678a6.018,6.018,0,0,0,6.02-6.02c0-.044,0-.088,0-.131a5.437,5.437,0,0,1-3.208,3.492L18.5,9.494l1.2-.54-1.2-.541.848-1.006-1.317.035.327-1.278-1.171.6-.261-1.295-.792,1.054-.793-1.054-.26,1.295-1.172-.6.327,1.278-1.317-.035.848,1.006-1.2.541,1.2.54-.441.525a5.426,5.426,0,0,1-3.208-3.492,1.245,1.245,0,0,0,0,.131A6.019,6.019,0,0,0,16.131,12.678Z" transform="translate(-9.645 -5.473)" fill="#fff"/></g></g></g></svg>