<svg xmlns="http://www.w3.org/2000/svg" width="35.153" height="35.153" viewBox="0 0 35.153 35.153"><g transform="translate(0.001)"><g transform="translate(-0.001 0)"><path d="M35.153,17.576a17.414,17.414,0,0,1-.107,1.926,17.013,17.013,0,0,1-.351,2.06A17.609,17.609,0,0,1,17.576,35.153h-.883v-.024a17.56,17.56,0,0,1-2.06-.225,17.259,17.259,0,0,1-5.91-2.151A17.65,17.65,0,0,1,.454,21.561,17.942,17.942,0,0,1,.107,19.5a17.394,17.394,0,0,1,0-3.85A17.468,17.468,0,0,1,8.723,2.4a17.3,17.3,0,0,1,5.91-2.15,16.214,16.214,0,0,1,2.06-.225V0h.883a17.537,17.537,0,0,1,17.47,15.652A17.347,17.347,0,0,1,35.153,17.576Z" fill="#ee2b2c"/><g transform="translate(0 0.024)"><path d="M35.153,17.573a17.414,17.414,0,0,1-.107,1.926,17.013,17.013,0,0,1-.351,2.06h-18V35.126a17.56,17.56,0,0,1-2.06-.225,17.259,17.259,0,0,1-5.91-2.151V21.558H.454A17.942,17.942,0,0,1,.107,19.5a17.394,17.394,0,0,1,0-3.85,17.736,17.736,0,0,1,.347-2.06h8.27V2.4a17.3,17.3,0,0,1,5.91-2.15,16.214,16.214,0,0,1,2.06-.225V13.589H34.7a17.967,17.967,0,0,1,.455,3.984Z" transform="translate(0 -0.021)" fill="#fff"/><path d="M35.153,17.546a17.414,17.414,0,0,1-.107,1.926H14.633v15.4a17.384,17.384,0,0,1-3.85-1.116V19.472H.107a17.394,17.394,0,0,1,0-3.85H10.783V1.335A17.323,17.323,0,0,1,14.633.219v15.4H35.046A17.347,17.347,0,0,1,35.153,17.546Z" transform="translate(0 0.006)" fill="#032767"/></g></g></g></svg>