<svg xmlns="http://www.w3.org/2000/svg" width="35.153" height="35.156" viewBox="0 0 35.153 35.156"><g transform="translate(0)"><g transform="translate(0 0)"><path d="M34.026,11.722H.885a17.573,17.573,0,0,1,33.141,0Z" transform="translate(0.121)"/><path d="M35.153,16.171a17.38,17.38,0,0,1-1.006,5.859H1.011a17.525,17.525,0,0,1,0-11.717H34.147A17.38,17.38,0,0,1,35.153,16.171Z" transform="translate(0 1.41)" fill="#cd1225"/><path d="M34.026,20.62a17.572,17.572,0,0,1-33.137,0Z" transform="translate(0.122 2.819)" fill="#309d37"/><g transform="translate(5.993 1.42)"><path d="M16.324,5.106a7.6,7.6,0,0,0-7.168,5.073H23.5A7.606,7.606,0,0,0,16.324,5.106Z" transform="translate(-4.741 -0.722)" fill="#cd1225"/><path d="M15.5,4.76a16.159,16.159,0,0,0,.332-3.1c0-.182-.15-.415-.332-.415s-.327.233-.327.415A16.264,16.264,0,0,0,15.5,4.76Z" transform="translate(-3.919 -1.249)" fill="#cd1225"/><path d="M14.885,4.791a16.227,16.227,0,0,0,.06-3.117c-.017-.182-.182-.4-.364-.383s-.311.257-.3.438A16.263,16.263,0,0,0,14.885,4.791Z" transform="translate(-4.04 -1.243)" fill="#cd1225"/><path d="M14.272,4.87a16.032,16.032,0,0,0-.214-3.109c-.031-.182-.216-.383-.394-.351s-.284.284-.252.466A16.383,16.383,0,0,0,14.272,4.87Z" transform="translate(-4.16 -1.228)" fill="#cd1225"/><path d="M13.669,5a16.043,16.043,0,0,0-.482-3.081c-.048-.178-.249-.359-.426-.313a.414.414,0,0,0-.213.482A16.343,16.343,0,0,0,13.669,5Z" transform="translate(-4.279 -1.201)" fill="#cd1225"/><path d="M13.083,5.189a16.515,16.515,0,0,0-.75-3.026.417.417,0,0,0-.454-.276.412.412,0,0,0-.166.5A15.8,15.8,0,0,0,13.083,5.189Z" transform="translate(-4.395 -1.164)" fill="#cd1225"/><path d="M12.512,5.426A15.922,15.922,0,0,0,11.5,2.474c-.075-.165-.307-.311-.469-.232a.408.408,0,0,0-.126.513A16.121,16.121,0,0,0,12.512,5.426Z" transform="translate(-4.508 -1.116)" fill="#cd1225"/><path d="M11.963,5.708A16.163,16.163,0,0,0,10.7,2.859a.413.413,0,0,0-.493-.193.408.408,0,0,0-.078.521A16.384,16.384,0,0,0,11.963,5.708Z" transform="translate(-4.616 -1.059)" fill="#cd1225"/><path d="M11.443,6.04A15.993,15.993,0,0,0,9.934,3.31a.4.4,0,0,0-.5-.147.408.408,0,0,0-.036.525A16.576,16.576,0,0,0,11.443,6.04Z" transform="translate(-4.719 -0.993)" fill="#cd1225"/><path d="M10.956,6.414a16.549,16.549,0,0,0-1.74-2.588.41.41,0,0,0-.516-.1.406.406,0,0,0,.011.529A16.023,16.023,0,0,0,10.956,6.414Z" transform="translate(-4.817 -0.918)" fill="#cd1225"/><path d="M10.5,6.829A16.227,16.227,0,0,0,8.541,4.407a.408.408,0,0,0-.525-.06.413.413,0,0,0,.059.525A16.006,16.006,0,0,0,10.5,6.829Z" transform="translate(-4.907 -0.835)" fill="#cd1225"/><path d="M10.083,7.287A15.955,15.955,0,0,0,7.921,5.042a.413.413,0,0,0-.529-.016.409.409,0,0,0,.107.517A16.038,16.038,0,0,0,10.083,7.287Z" transform="translate(-4.99 -0.745)" fill="#cd1225"/><path d="M6.982,6.266A16.189,16.189,0,0,0,9.708,7.774,16.108,16.108,0,0,0,7.357,5.725a.41.41,0,0,0-.525.036C6.725,5.907,6.832,6.159,6.982,6.266Z" transform="translate(-5.065 -0.647)" fill="#cd1225"/><path d="M6.528,7.031A16.164,16.164,0,0,0,9.376,8.293,16.178,16.178,0,0,0,6.859,6.459a.408.408,0,0,0-.521.08A.406.406,0,0,0,6.528,7.031Z" transform="translate(-5.131 -0.544)" fill="#cd1225"/><path d="M6.142,7.831A15.993,15.993,0,0,0,9.093,8.84,16.349,16.349,0,0,0,6.422,7.235a.406.406,0,0,0-.513.122A.417.417,0,0,0,6.142,7.831Z" transform="translate(-5.188 -0.436)" fill="#cd1225"/><path d="M5.83,8.66a16.285,16.285,0,0,0,3.026.754,15.945,15.945,0,0,0-2.8-1.373.412.412,0,0,0-.5.171C5.5,8.381,5.661,8.6,5.83,8.66Z" transform="translate(-5.235 -0.323)" fill="#cd1225"/><path d="M5.28,9.093c-.048.173.139.379.311.426.052.011.316.07.675.146H8.03c-.821-.327-2.146-.754-2.264-.785A.411.411,0,0,0,5.28,9.093Z" transform="translate(-5.272 -0.208)" fill="#cd1225"/><path d="M25.664,9.52c.178-.048.364-.253.316-.426a.411.411,0,0,0-.485-.214c-.118.032-1.444.458-2.264.785h1.763C25.349,9.59,25.617,9.531,25.664,9.52Z" transform="translate(-2.817 -0.208)" fill="#cd1225"/><path d="M22.467,9.414a16.187,16.187,0,0,0,3.025-.754c.174-.063.34-.28.276-.449a.415.415,0,0,0-.5-.171A16.185,16.185,0,0,0,22.467,9.414Z" transform="translate(-2.922 -0.323)" fill="#cd1225"/><path d="M22.22,8.84a16.05,16.05,0,0,0,2.948-1.009.414.414,0,0,0,.236-.474.407.407,0,0,0-.513-.122A16.2,16.2,0,0,0,22.22,8.84Z" transform="translate(-2.955 -0.436)" fill="#cd1225"/><path d="M21.918,8.293a16.054,16.054,0,0,0,2.849-1.263.411.411,0,0,0,.193-.492.408.408,0,0,0-.521-.08A16.161,16.161,0,0,0,21.918,8.293Z" transform="translate(-2.997 -0.544)" fill="#cd1225"/><path d="M21.571,7.774A16.367,16.367,0,0,0,24.3,6.266a.412.412,0,0,0,.15-.5.415.415,0,0,0-.529-.036A16.314,16.314,0,0,0,21.571,7.774Z" transform="translate(-3.044 -0.647)" fill="#cd1225"/><path d="M21.176,7.287A16.247,16.247,0,0,0,23.76,5.543a.409.409,0,0,0,.1-.517.408.408,0,0,0-.525.016A15.765,15.765,0,0,0,21.176,7.287Z" transform="translate(-3.099 -0.745)" fill="#cd1225"/><path d="M20.735,6.829a16.006,16.006,0,0,0,2.427-1.957.413.413,0,0,0,.056-.525.409.409,0,0,0-.525.06A16.265,16.265,0,0,0,20.735,6.829Z" transform="translate(-3.159 -0.835)" fill="#cd1225"/><path d="M20.256,6.414A16.468,16.468,0,0,0,22.5,4.252a.411.411,0,0,0,.013-.529.411.411,0,0,0-.517.1A16.085,16.085,0,0,0,20.256,6.414Z" transform="translate(-3.225 -0.918)" fill="#cd1225"/><path d="M19.739,6.04a16.155,16.155,0,0,0,2.048-2.352.4.4,0,0,0-.032-.525.411.411,0,0,0-.509.147A16.222,16.222,0,0,0,19.739,6.04Z" transform="translate(-3.296 -0.993)" fill="#cd1225"/><path d="M19.192,5.708a16.161,16.161,0,0,0,1.835-2.521.408.408,0,0,0-.08-.521.408.408,0,0,0-.489.193A16.191,16.191,0,0,0,19.192,5.708Z" transform="translate(-3.371 -1.059)" fill="#cd1225"/><path d="M18.616,5.426a16.357,16.357,0,0,0,1.61-2.671.411.411,0,0,0-.126-.513c-.166-.08-.394.067-.474.232A16.23,16.23,0,0,0,18.616,5.426Z" transform="translate(-3.45 -1.116)" fill="#cd1225"/><path d="M18.016,5.189a16.361,16.361,0,0,0,1.37-2.8.407.407,0,0,0-.171-.5c-.169-.059-.386.106-.449.276A16.153,16.153,0,0,0,18.016,5.189Z" transform="translate(-3.533 -1.164)" fill="#cd1225"/><path d="M17.4,5a16.087,16.087,0,0,0,1.121-2.911.411.411,0,0,0-.209-.482c-.177-.047-.379.134-.426.313A16.334,16.334,0,0,0,17.4,5Z" transform="translate(-3.619 -1.201)" fill="#cd1225"/><path d="M16.763,4.87a16.028,16.028,0,0,0,.864-2.994c.032-.182-.075-.434-.252-.466s-.367.169-.4.351A16.393,16.393,0,0,0,16.763,4.87Z" transform="translate(-3.708 -1.228)" fill="#cd1225"/><path d="M16.128,4.791a16.546,16.546,0,0,0,.6-3.062c.016-.181-.11-.422-.292-.438s-.347.2-.363.383A16.14,16.14,0,0,0,16.128,4.791Z" transform="translate(-3.803 -1.243)" fill="#cd1225"/></g></g></g></svg>