<svg xmlns="http://www.w3.org/2000/svg" width="35.169" height="35.169" viewBox="0 0 35.169 35.169"><g transform="translate(0 0)"><path d="M34.041,11.722H.885a17.584,17.584,0,0,1,33.156,0Z" transform="translate(0.121)" fill="#06b8e3"/><path d="M34.041,20.627a17.584,17.584,0,0,1-33.156,0Z" transform="translate(0.121 2.82)" fill="#3d9b37"/><path d="M35.169,16.174a17.487,17.487,0,0,1-1.007,5.863H1.006a17.586,17.586,0,0,1,0-11.725H34.162A17.485,17.485,0,0,1,35.169,16.174Z" transform="translate(0 1.41)" fill="#ec2938"/><g transform="translate(10.534 12.31)"><path d="M15.686,20.491a4.387,4.387,0,1,1,3.179-7.409,5.275,5.275,0,1,0,0,6.044A4.38,4.38,0,0,1,15.686,20.491Z" transform="translate(-9.267 -10.829)" fill="#fff"/><path d="M19.421,12.863l.568,1.594,1.527-.726-.726,1.527,1.594.568-1.594.568.726,1.527-1.527-.726-.568,1.594-.568-1.594-1.527.726.726-1.527-1.594-.568,1.594-.568-.726-1.527,1.527.726Z" transform="translate(-8.284 -10.551)" fill="#fff"/></g></g></svg>