<svg xmlns="http://www.w3.org/2000/svg" width="35.153" height="35.153" viewBox="0 0 35.153 35.153"><g transform="translate(0)"><g transform="translate(0 0)"><path d="M31.2,7.026H3.1a17.564,17.564,0,0,1,28.1,0Z" transform="translate(0.424)" fill="#357d40"/><path d="M31.2,24.743a17.562,17.562,0,0,1-28.1,0Z" transform="translate(0.424 3.383)" fill="#357d40"/><path d="M33.5,9.686H1.3a17.561,17.561,0,0,1,2.047-3.5h28.1A17.58,17.58,0,0,1,33.5,9.686Z" transform="translate(0.177 0.845)" fill="#fff"/><path d="M35.153,16.309a17.474,17.474,0,0,1-1.475,7.051H1.475a17.572,17.572,0,0,1,0-14.1h32.2A17.447,17.447,0,0,1,35.153,16.309Z" transform="translate(0 1.267)" fill="#b30b2c"/><path d="M33.5,21.665a17.57,17.57,0,0,1-2.052,3.5H3.345a17.551,17.551,0,0,1-2.047-3.5Z" transform="translate(0.177 2.962)" fill="#fff"/><path d="M16.266,9.874l1.574,4.853h5.105l-4.131,3,1.578,4.857-4.126-3-4.131,3,1.578-4.857-4.127-3h5.1Z" transform="translate(1.311 1.35)" fill="#ebc726"/></g></g></svg>