<svg xmlns="http://www.w3.org/2000/svg" width="56.569" height="56.568" viewBox="0 0 56.569 56.568"><path d="M0,0V56.568H56.569V0ZM9.869,16.163c0-3.855,2.4-6.927,6.861-6.858,4.261.064,7.244,1.858,7.244,6.986l0,2.285-4.379-.016L19.528,15.6c0-1.262-1.46-2.3-2.8-2.3A2.516,2.516,0,0,0,14.2,15.63l-.032,15.249a2.28,2.28,0,0,0,2.165,2.534c2.2-.066,3.327-.956,3.327-2.665l-.131-5.123H17.262l.016-3.382,6.7-.009.055,14.952-4.236-.009v-2.3c-.508,1.872-2.53,2.665-4.862,2.665-1.4,0-5.063-.943-5.063-7.335ZM47.1,47.262H9.472V41.07H47.1ZM47.01,36.741H42.928V17.516L39.309,36.809H36.176l-3.64-19.692c.088,1.475.227,19.624.227,19.624H28.549V9.83l6.029.007s3.006,17.4,3.241,19.4l3.019-19.49,6.26.084Z" fill="#cacee6" fill-rule="evenodd"/></svg>