<svg xmlns="http://www.w3.org/2000/svg" width="35.153" height="35.148" viewBox="0 0 35.153 35.148"><g transform="translate(0)"><g transform="translate(0 0)"><path d="M30.132,5.863H3.943a17.554,17.554,0,0,1,26.189,0Z" transform="translate(0.539)" fill="#ec1c24"/><path d="M34.03,11.025H.882a17.476,17.476,0,0,1,3.48-5.867H30.55A17.533,17.533,0,0,1,34.03,11.025Z" transform="translate(0.121 0.705)" fill="#fff"/><path d="M34.03,20.6a17.544,17.544,0,0,1-3.48,5.867H4.362A17.488,17.488,0,0,1,.882,20.6Z" transform="translate(0.121 2.817)" fill="#fff"/><path d="M35.153,16.162a17.51,17.51,0,0,1-1,5.847H1a17.539,17.539,0,0,1,0-11.69H34.151A17.5,17.5,0,0,1,35.153,16.162Z" transform="translate(0 1.411)" fill="#241d4e"/><path d="M30.132,25.764a17.556,17.556,0,0,1-26.189,0Z" transform="translate(0.539 3.522)" fill="#ec1c24"/></g></g></svg>