<svg xmlns="http://www.w3.org/2000/svg" width="35.153" height="35.153" viewBox="0 0 35.153 35.153"><g transform="translate(0)"><g transform="translate(0 0)"><path d="M35.153,17.576A17.573,17.573,0,0,1,2.36,26.363,17.572,17.572,0,1,1,32.793,8.786,17.486,17.486,0,0,1,35.153,17.576Z" fill="#e7122c"/><g transform="translate(7.023 7.023)"><g transform="translate(5.263 4.928)"><path d="M15.181,13.672c.107.075.214.153.319.236.107-.083.214-.161.319-.236-.106-.083-.213-.158-.319-.233C15.395,13.514,15.283,13.589,15.181,13.672Z" transform="translate(-10.21 -10.113)" fill="#feee1c"/><path d="M14.687,12.956a4.045,4.045,0,0,0-.332.241c.147.072.3.15.442.233.11-.083.217-.161.327-.236C14.979,13.106,14.832,13.028,14.687,12.956Z" transform="translate(-10.323 -10.179)" fill="#feee1c"/><path d="M15.957,12.715c-.146-.088-.3-.166-.442-.241-.15.075-.3.153-.441.241.145.07.3.15.441.236C15.662,12.865,15.812,12.785,15.957,12.715Z" transform="translate(-10.225 -10.245)" fill="#feee1c"/><path d="M16.216,13.43c.15-.083.3-.161.446-.233-.11-.086-.221-.166-.331-.241-.146.072-.3.15-.441.238C16,13.269,16.111,13.347,16.216,13.43Z" transform="translate(-10.113 -10.179)" fill="#feee1c"/><path d="M15.732,14.463a8.344,8.344,0,0,0-2.245,5.594,5.3,5.3,0,0,0,4.487,0A8.322,8.322,0,0,0,15.732,14.463Z" transform="translate(-10.442 -9.973)" fill="#feee1c"/><path d="M14.806,13.676c-.142-.086-.289-.166-.434-.241a9.773,9.773,0,0,0-2.849,4.782,4.911,4.911,0,0,0,.371.521A9.979,9.979,0,0,1,14.806,13.676Z" transform="translate(-10.71 -10.114)" fill="#feee1c"/><path d="M16.121,13.932c-.1.078-.206.158-.308.24a8.351,8.351,0,0,1,2.533,5.568,5.372,5.372,0,0,0,.533-.407A9.5,9.5,0,0,0,16.121,13.932Z" transform="translate(-10.124 -10.046)" fill="#feee1c"/><path d="M15.481,14.172c-.1-.082-.206-.161-.308-.24a9.474,9.474,0,0,0-2.758,5.4,5.119,5.119,0,0,0,.533.407A8.351,8.351,0,0,1,15.481,14.172Z" transform="translate(-10.588 -10.046)" fill="#feee1c"/><path d="M17.1,13.053a9.671,9.671,0,0,1,2.462-.6c-.059-.08-.118-.161-.182-.236a9.008,9.008,0,0,0-2.624.591C16.872,12.887,16.985,12.97,17.1,13.053Z" transform="translate(-9.995 -10.279)" fill="#feee1c"/><path d="M20.167,17.324a5.27,5.27,0,0,0-.489-4.631,9.16,9.16,0,0,0-2.293.588A9.494,9.494,0,0,1,20.167,17.324Z" transform="translate(-9.909 -10.215)" fill="#feee1c"/><path d="M16.949,13.435c-.147.075-.292.155-.439.241a9.915,9.915,0,0,1,2.912,5.062,4.951,4.951,0,0,0,.375-.521A9.782,9.782,0,0,0,16.949,13.435Z" transform="translate(-10.028 -10.114)" fill="#feee1c"/><path d="M18.914,11.5a5.289,5.289,0,0,0-6.162,0,10.641,10.641,0,0,1,3.081.754A10.64,10.64,0,0,1,18.914,11.5Z" transform="translate(-10.542 -10.513)" fill="#feee1c"/><path d="M16.377,12.581a9.078,9.078,0,0,1,2.821-.615c-.091-.1-.19-.19-.289-.276a9.276,9.276,0,0,0-2.978.65C16.081,12.415,16.231,12.495,16.377,12.581Z" transform="translate(-10.108 -10.352)" fill="#feee1c"/><path d="M13.914,13.281a9.159,9.159,0,0,0-2.3-.588,5.257,5.257,0,0,0-.809,2.812,5.348,5.348,0,0,0,.319,1.819A9.54,9.54,0,0,1,13.914,13.281Z" transform="translate(-10.808 -10.215)" fill="#feee1c"/><path d="M14.505,12.812a9.016,9.016,0,0,0-2.624-.591c-.064.075-.123.157-.182.236a9.751,9.751,0,0,1,2.462.6C14.276,12.97,14.391,12.887,14.505,12.812Z" transform="translate(-10.686 -10.279)" fill="#feee1c"/><path d="M15.387,12.34a9.282,9.282,0,0,0-2.979-.65c-.1.086-.2.181-.292.276a9.058,9.058,0,0,1,2.821.615C15.087,12.495,15.237,12.415,15.387,12.34Z" transform="translate(-10.629 -10.352)" fill="#feee1c"/></g><path d="M15.083,10.424c.147-.013.3-.02.446-.02s.3.008.458.02v-.013A3.212,3.212,0,0,1,15.864,9.2c.04-.623.158-.891.158-1.633a1.848,1.848,0,0,0-.493-1.385,3.726,3.726,0,0,1,0,1.3c-.055.414-.406,1.456-.516,2.044a1.39,1.39,0,0,0,.063.891Z" transform="translate(-4.975 -6.178)" fill="#feee1c"/><path d="M14.233,10.553c.142-.032.288-.064.438-.086s.3-.04.454-.056l0-.011a3.327,3.327,0,0,1-.308-1.177c-.059-.627.016-.907-.1-1.641a1.843,1.843,0,0,0-.7-1.289,3.881,3.881,0,0,1,.2,1.282c.011.417-.174,1.5-.19,2.1a1.388,1.388,0,0,0,.2.868Z" transform="translate(-5.107 -6.162)" fill="#feee1c"/><path d="M13.48,10.807c.139-.056.276-.11.418-.155s.3-.09.442-.126l0-.011A3.178,3.178,0,0,1,13.847,9.4c-.158-.6-.126-.9-.359-1.6a1.834,1.834,0,0,0-.9-1.164,3.744,3.744,0,0,1,.4,1.234c.078.41.064,1.511.138,2.1a1.416,1.416,0,0,0,.335.829Z" transform="translate(-5.301 -6.116)" fill="#feee1c"/><path d="M12.776,11.172c.126-.074.257-.149.391-.216s.276-.134.414-.193l-.008-.008a3.313,3.313,0,0,1-.655-1.026c-.249-.576-.265-.867-.6-1.527a1.852,1.852,0,0,0-1.065-1.014,3.934,3.934,0,0,1,.588,1.159c.138.394.3,1.48.466,2.052a1.428,1.428,0,0,0,.462.77Z" transform="translate(-5.485 -6.04)" fill="#feee1c"/><path d="M12.136,11.649c.115-.1.23-.19.351-.281s.252-.173.383-.252l-.008-.008a3.384,3.384,0,0,1-.813-.912c-.335-.529-.394-.813-.832-1.416a1.841,1.841,0,0,0-1.212-.828A3.861,3.861,0,0,1,10.768,9c.2.367.525,1.416.781,1.956a1.409,1.409,0,0,0,.576.683Z" transform="translate(-5.655 -5.935)" fill="#feee1c"/><path d="M11.582,12.214c.1-.111.2-.222.3-.329s.222-.213.335-.311l-.007-.008a3.161,3.161,0,0,1-.943-.773c-.414-.469-.521-.738-1.046-1.266A1.845,1.845,0,0,0,8.9,8.9a3.754,3.754,0,0,1,.918.918c.257.332.742,1.319,1.078,1.811a1.412,1.412,0,0,0,.674.584Z" transform="translate(-5.806 -5.806)" fill="#feee1c"/><path d="M11.12,12.862c.078-.123.161-.249.248-.372s.185-.24.284-.358l-.008,0a3.348,3.348,0,0,1-1.053-.615c-.485-.4-.632-.651-1.231-1.089a1.818,1.818,0,0,0-1.408-.415A3.726,3.726,0,0,1,9,10.77c.3.288.939,1.183,1.349,1.618a1.4,1.4,0,0,0,.757.474Z" transform="translate(-5.935 -5.657)" fill="#feee1c"/><path d="M10.766,13.582c.059-.138.118-.272.19-.406s.145-.268.224-.4l-.011-.008a3.2,3.2,0,0,1-1.137-.442c-.54-.319-.722-.544-1.385-.88a1.847,1.847,0,0,0-1.46-.193,3.843,3.843,0,0,1,1.159.592c.343.236,1.109,1.022,1.582,1.389a1.4,1.4,0,0,0,.825.347Z" transform="translate(-6.04 -5.494)" fill="#feee1c"/><path d="M10.531,14.348c.035-.142.075-.284.118-.43s.1-.289.161-.426l-.011,0a3.326,3.326,0,0,1-1.191-.26c-.584-.232-.8-.425-1.507-.655a1.846,1.846,0,0,0-1.468.04,3.785,3.785,0,0,1,1.234.4c.379.177,1.258.837,1.779,1.121a1.392,1.392,0,0,0,.868.217Z" transform="translate(-6.116 -5.321)" fill="#feee1c"/><path d="M10.411,15.153c.016-.15.032-.3.056-.446s.055-.3.086-.45h-.011a3.264,3.264,0,0,1-1.215-.07c-.612-.138-.857-.292-1.59-.41a1.853,1.853,0,0,0-1.444.268,3.761,3.761,0,0,1,1.282.206c.4.118,1.372.631,1.934.828a1.4,1.4,0,0,0,.891.08Z" transform="translate(-6.162 -5.144)" fill="#feee1c"/><path d="M10.419,15.968c-.008-.147-.016-.3-.016-.447s.008-.307.02-.457h-.013a3.293,3.293,0,0,1-1.215.122c-.623-.039-.891-.158-1.633-.158a1.827,1.827,0,0,0-1.385.493,3.782,3.782,0,0,1,1.3,0c.414.056,1.456.407,2.039.517a1.4,1.4,0,0,0,.9-.064Z" transform="translate(-6.178 -4.968)" fill="#feee1c"/><path d="M10.553,16.826c-.035-.147-.064-.289-.086-.439s-.044-.3-.056-.454H10.4a3.233,3.233,0,0,1-1.18.313c-.624.059-.9-.016-1.638.1a1.843,1.843,0,0,0-1.289.7,3.862,3.862,0,0,1,1.282-.2c.417-.011,1.5.174,2.095.19a1.4,1.4,0,0,0,.872-.2Z" transform="translate(-6.162 -4.844)" fill="#feee1c"/><path d="M10.807,17.655c-.056-.139-.11-.276-.158-.418s-.086-.3-.122-.442l-.013,0a3.359,3.359,0,0,1-1.116.489c-.607.158-.9.126-1.6.355a1.859,1.859,0,0,0-1.164.9,3.772,3.772,0,0,1,1.234-.4c.41-.08,1.507-.064,2.1-.139a1.434,1.434,0,0,0,.833-.335Z" transform="translate(-6.116 -4.726)" fill="#feee1c"/><path d="M11.172,18.43c-.074-.126-.149-.257-.216-.391s-.134-.276-.193-.414l-.008,0a3.262,3.262,0,0,1-1.026.659c-.576.248-.867.264-1.531.6a1.843,1.843,0,0,0-1.009,1.065,3.775,3.775,0,0,1,1.159-.588c.391-.142,1.48-.3,2.052-.466a1.407,1.407,0,0,0,.766-.462Z" transform="translate(-6.04 -4.613)" fill="#feee1c"/><path d="M11.644,19.132c-.094-.114-.185-.228-.276-.351s-.173-.252-.252-.382l-.008.008a3.384,3.384,0,0,1-.912.813c-.529.335-.813.394-1.416.832a1.84,1.84,0,0,0-.828,1.211A3.721,3.721,0,0,1,9,20.5c.367-.2,1.416-.525,1.956-.782a1.4,1.4,0,0,0,.683-.575Z" transform="translate(-5.935 -4.507)" fill="#feee1c"/><path d="M12.214,19.742c-.111-.1-.221-.2-.329-.3s-.213-.221-.311-.335l-.008.008a3.253,3.253,0,0,1-.773.943c-.469.414-.741.521-1.266,1.045A1.841,1.841,0,0,0,8.9,22.426a3.747,3.747,0,0,1,.918-.916c.332-.256,1.319-.741,1.807-1.081a1.393,1.393,0,0,0,.588-.674Z" transform="translate(-5.806 -4.411)" fill="#feee1c"/><path d="M12.862,20.25c-.126-.078-.249-.161-.372-.249s-.244-.189-.358-.284l-.008.008a3.237,3.237,0,0,1-.616,1.054c-.4.482-.65.627-1.084,1.231a1.838,1.838,0,0,0-.418,1.408,3.813,3.813,0,0,1,.765-1.049c.288-.3,1.183-.939,1.618-1.349a1.4,1.4,0,0,0,.474-.758Z" transform="translate(-5.657 -4.327)" fill="#feee1c"/><path d="M13.578,20.639c-.134-.059-.268-.123-.4-.19s-.273-.146-.4-.225l0,.013a3.2,3.2,0,0,1-.442,1.136c-.319.541-.544.722-.883,1.385a1.85,1.85,0,0,0-.19,1.456,3.841,3.841,0,0,1,.592-1.156c.236-.343,1.022-1.113,1.385-1.582a1.389,1.389,0,0,0,.351-.824Z" transform="translate(-5.494 -4.258)" fill="#feee1c"/><path d="M14.348,20.9c-.142-.035-.288-.075-.43-.123s-.289-.1-.431-.158v.013a3.33,3.33,0,0,1-.26,1.191c-.232.584-.425.8-.654,1.507a1.843,1.843,0,0,0,.039,1.468,3.7,3.7,0,0,1,.4-1.234c.177-.38.837-1.259,1.121-1.784a1.377,1.377,0,0,0,.217-.864Z" transform="translate(-5.321 -4.204)" fill="#feee1c"/><path d="M15.15,21.027c-.147-.016-.292-.032-.442-.056s-.3-.056-.45-.091V20.9a3.342,3.342,0,0,1-.07,1.215c-.138.612-.3.856-.41,1.59a1.84,1.84,0,0,0,.268,1.444,3.785,3.785,0,0,1,.206-1.282c.118-.4.626-1.373.829-1.937a1.4,1.4,0,0,0,.078-.888Z" transform="translate(-5.144 -4.168)" fill="#feee1c"/><path d="M15.968,21.017c-.147.007-.3.015-.447.015s-.307-.008-.457-.019v.011a3.378,3.378,0,0,1,.122,1.215c-.039.624-.158.892-.158,1.633a1.83,1.83,0,0,0,.493,1.386,3.783,3.783,0,0,1,0-1.3c.052-.415.407-1.456.517-2.044a1.426,1.426,0,0,0-.064-.892Z" transform="translate(-4.968 -4.15)" fill="#feee1c"/><path d="M16.827,20.884c-.147.035-.292.063-.439.086s-.3.04-.457.056l0,.011a3.225,3.225,0,0,1,.308,1.18c.059.623-.011.9.1,1.637a1.831,1.831,0,0,0,.7,1.29,3.867,3.867,0,0,1-.2-1.282c-.011-.418.174-1.5.19-2.1a1.4,1.4,0,0,0-.2-.868Z" transform="translate(-4.845 -4.167)" fill="#feee1c"/><path d="M17.655,20.62c-.139.055-.276.11-.423.153s-.291.091-.438.126l0,.013a3.347,3.347,0,0,1,.489,1.116c.153.607.126.9.355,1.6a1.841,1.841,0,0,0,.9,1.164,3.772,3.772,0,0,1-.4-1.234c-.08-.41-.064-1.507-.142-2.1a1.406,1.406,0,0,0-.335-.832Z" transform="translate(-4.726 -4.203)" fill="#feee1c"/><path d="M18.43,20.231c-.126.075-.257.15-.391.217s-.276.134-.414.193l0,.008a3.292,3.292,0,0,1,.659,1.025c.248.576.264.868.6,1.531a1.846,1.846,0,0,0,1.065,1.011,3.835,3.835,0,0,1-.588-1.161c-.142-.39-.3-1.479-.466-2.052a1.421,1.421,0,0,0-.462-.768Z" transform="translate(-4.613 -4.257)" fill="#feee1c"/><path d="M19.129,19.724c-.11.1-.228.186-.347.276s-.253.174-.383.253l.008.007a3.332,3.332,0,0,1,.808.912c.34.529.4.813.837,1.416a1.838,1.838,0,0,0,1.211.829,3.7,3.7,0,0,1-.76-1.049c-.2-.367-.53-1.416-.785-1.957a1.409,1.409,0,0,0-.572-.682Z" transform="translate(-4.507 -4.326)" fill="#feee1c"/><path d="M19.742,19.11c-.1.11-.2.221-.3.327s-.221.214-.335.311l.008.008a3.283,3.283,0,0,1,.943.774c.414.469.521.741,1.045,1.266a1.846,1.846,0,0,0,1.327.631,3.814,3.814,0,0,1-.916-.92c-.256-.331-.741-1.317-1.081-1.811a1.4,1.4,0,0,0-.674-.583Z" transform="translate(-4.411 -4.41)" fill="#feee1c"/><path d="M20.247,18.409c-.08.123-.158.249-.249.371s-.185.241-.284.359l.011,0a3.3,3.3,0,0,1,1.054.618c.482.4.627.648,1.231,1.086a1.843,1.843,0,0,0,1.408.418,3.814,3.814,0,0,1-1.049-.765c-.3-.289-.939-1.184-1.349-1.619a1.4,1.4,0,0,0-.758-.473Z" transform="translate(-4.327 -4.506)" fill="#feee1c"/><path d="M20.634,17.632c-.055.138-.118.272-.185.406s-.146.273-.225.4l.013.008a3.2,3.2,0,0,1,1.137.441c.54.319.721.544,1.383.88a1.832,1.832,0,0,0,1.457.193,3.777,3.777,0,0,1-1.157-.591c-.342-.238-1.113-1.022-1.586-1.386a1.389,1.389,0,0,0-.821-.35Z" transform="translate(-4.258 -4.612)" fill="#feee1c"/><path d="M20.9,16.807c-.035.141-.075.283-.123.43s-.1.288-.158.43h.013a3.382,3.382,0,0,1,1.191.26c.584.233.8.426,1.507.655a1.843,1.843,0,0,0,1.468-.039,3.84,3.84,0,0,1-1.234-.4c-.38-.178-1.259-.837-1.784-1.121a1.392,1.392,0,0,0-.868-.217Z" transform="translate(-4.204 -4.726)" fill="#feee1c"/><path d="M21.022,15.95c-.011.145-.027.292-.051.441s-.056.3-.091.45h.013a3.289,3.289,0,0,1,1.219.072c.612.138.856.3,1.59.41a1.859,1.859,0,0,0,1.444-.268,3.8,3.8,0,0,1-1.282-.206c-.4-.118-1.373-.631-1.937-.829a1.4,1.4,0,0,0-.891-.078Z" transform="translate(-4.168 -4.848)" fill="#feee1c"/><path d="M21.012,15.083c.011.147.019.3.019.446s-.008.308-.019.458h.011a3.319,3.319,0,0,1,1.215-.123c.624.04.892.158,1.633.158a1.832,1.832,0,0,0,1.386-.493,3.727,3.727,0,0,1-1.3,0c-.415-.051-1.456-.406-2.044-.516a1.392,1.392,0,0,0-.892.063Z" transform="translate(-4.15 -4.975)" fill="#feee1c"/><path d="M20.884,14.233c.031.146.063.292.086.438s.04.3.056.454h.011a3.251,3.251,0,0,1,1.175-.307c.627-.064.908.011,1.641-.1a1.843,1.843,0,0,0,1.29-.7,3.881,3.881,0,0,1-1.282.2c-.418.011-1.5-.174-2.1-.19a1.413,1.413,0,0,0-.872.2Z" transform="translate(-4.167 -5.107)" fill="#feee1c"/><path d="M20.62,13.479c.055.138.107.276.153.418s.088.3.126.442l.013,0a3.322,3.322,0,0,1,1.112-.489c.608-.158.9-.126,1.606-.356a1.859,1.859,0,0,0,1.164-.9,3.745,3.745,0,0,1-1.234.4c-.41.078-1.512.064-2.1.142a1.4,1.4,0,0,0-.829.331Z" transform="translate(-4.203 -5.301)" fill="#feee1c"/><path d="M20.231,12.776c.075.126.15.257.217.391s.131.276.19.414l.011,0a3.271,3.271,0,0,1,1.025-.659c.576-.249.868-.265,1.528-.6a1.838,1.838,0,0,0,1.011-1.065,3.8,3.8,0,0,1-1.157.588c-.394.142-1.479.3-2.052.465a1.406,1.406,0,0,0-.768.463Z" transform="translate(-4.257 -5.485)" fill="#feee1c"/><path d="M19.721,12.136c.094.115.19.233.276.351s.177.253.257.383l.007-.008a3.332,3.332,0,0,1,.912-.808c.529-.34.813-.4,1.416-.837a1.84,1.84,0,0,0,.829-1.212,3.7,3.7,0,0,1-1.049.762c-.367.2-1.416.525-1.957.781a1.432,1.432,0,0,0-.687.576Z" transform="translate(-4.326 -5.655)" fill="#feee1c"/><path d="M19.11,11.582c.11.1.221.2.327.3s.214.222.313.335l.007-.007a3.214,3.214,0,0,1,.77-.943c.474-.414.742-.521,1.271-1.046A1.842,1.842,0,0,0,22.428,8.9a3.791,3.791,0,0,1-.92.915c-.331.257-1.317.742-1.811,1.081a1.392,1.392,0,0,0-.588.675Z" transform="translate(-4.41 -5.806)" fill="#feee1c"/><path d="M18.406,11.123c.126.075.252.158.375.244s.24.19.358.284l0-.008a3.338,3.338,0,0,1,.615-1.053c.4-.482.651-.627,1.089-1.231a1.835,1.835,0,0,0,.414-1.408A3.766,3.766,0,0,1,20.5,9c-.289.3-1.184.939-1.619,1.349a1.4,1.4,0,0,0-.473.757Z" transform="translate(-4.506 -5.935)" fill="#feee1c"/><path d="M17.632,10.769c.138.056.272.119.406.186s.268.145.4.224l0-.011a3.331,3.331,0,0,1,.447-1.137c.318-.54.543-.722.879-1.385a1.83,1.83,0,0,0,.19-1.456,3.731,3.731,0,0,1-.588,1.156c-.238.343-1.022,1.113-1.389,1.582a1.4,1.4,0,0,0-.347.825Z" transform="translate(-4.612 -6.04)" fill="#feee1c"/><path d="M16.808,10.531c.142.035.283.075.425.122s.292.1.431.158l0-.011a3.378,3.378,0,0,1,.26-1.191c.233-.584.426-.8.655-1.507a1.843,1.843,0,0,0-.039-1.468,3.925,3.925,0,0,1-.4,1.234c-.182.379-.837,1.258-1.125,1.784a1.422,1.422,0,0,0-.216.867Z" transform="translate(-4.727 -6.116)" fill="#feee1c"/><path d="M15.946,10.415c.15.013.3.028.446.052s.3.055.45.09v-.011a3.19,3.19,0,0,1,.072-1.219c.134-.612.291-.857.41-1.59a1.858,1.858,0,0,0-.268-1.444,3.906,3.906,0,0,1-.206,1.282c-.118.4-.631,1.372-.829,1.937a1.386,1.386,0,0,0-.078.888Z" transform="translate(-4.848 -6.162)" fill="#feee1c"/></g></g></g></svg>