<svg xmlns="http://www.w3.org/2000/svg" width="35.153" height="35.153" viewBox="0 0 35.153 35.153"><g transform="translate(0)"><g transform="translate(0 0)"><path d="M34.026,11.717H.885a17.576,17.576,0,0,1,33.141,0Z" transform="translate(0.121)" fill="#d11133"/><path d="M35.153,16.167a17.483,17.483,0,0,1-1.006,5.859H1.006a17.563,17.563,0,0,1,0-11.717H34.147A17.493,17.493,0,0,1,35.153,16.167Z" transform="translate(0 1.409)" fill="#fff"/><path d="M34.026,20.616a17.584,17.584,0,0,1-33.141,0Z" transform="translate(0.121 2.819)"/><path d="M21.194,16.931,13.4,22.789,4.947,29.141a17.557,17.557,0,0,1-3.941-6.352A17.54,17.54,0,0,1,4.947,4.72L13.4,11.072Z" transform="translate(0 0.645)" fill="#00712a"/></g></g></svg>