<svg xmlns="http://www.w3.org/2000/svg" width="35.153" height="35.153" viewBox="0 0 35.153 35.153"><g transform="translate(0)"><g transform="translate(0 0)"><path d="M34.193,13.316,18.242,10,17.39,9.82l-.1-.02-.313-.067-.094-.019-.481-.1L3.207,6.869a17.584,17.584,0,0,1,30.986,6.446Z" transform="translate(0.438)" fill="#f6df25"/><path d="M31.453,25.64a17.583,17.583,0,0,1-31-6.447l6.817,1.416,1.586.332,2.21.462,2.288.474.58.122.4.083h0l.411.086,3.732.778.88.182,1.321.276.222.043h0l.612.126.2.043,2.059.426Z" transform="translate(0.062 2.624)" fill="#f6df25"/><path d="M35.12,16.75a17.581,17.581,0,0,1-.469,4.044L27.4,19.287l-1.76-.367-1.317-.272-1.073-.225-4.991-1.038L16.885,17.1l-5.327-1.108-.5-.1L7.51,15.148,7.258,15.1l-.123-.024L6.8,15l-.131-.028-.3-.063-.123-.024-.375-.078L.243,13.637A17.536,17.536,0,0,1,3.612,6.043l13.2,2.745.481.1.094.019.313.067.1.02.853.177L34.6,12.489A17.62,17.62,0,0,1,35.12,16.75Z" transform="translate(0.033 0.826)" fill="#fff"/><path d="M34.684,19.881a17.469,17.469,0,0,1-3.168,6.644l-7.679-1.6L21.778,24.5l-.2-.043-.612-.126h0l-.222-.043-1.321-.276-.88-.182-3.732-.778-.411-.086h0l-.4-.083-.58-.122-2.288-.474-2.21-.462-1.586-.332L.517,20.077A17.474,17.474,0,0,1,0,15.836a17.667,17.667,0,0,1,.276-3.112L5.91,13.9l.375.078L6.408,14l.3.063.131.028.331.07.123.024.252.051,3.551.742.5.1,5.327,1.108,1.377.284,4.991,1.038,1.073.225,1.317.272,1.76.367Z" transform="translate(0 1.74)"/><g transform="translate(5.837 7.267)"><g transform="translate(3.549)"><path d="M11.237,12.643a2.637,2.637,0,0,0,.9-.257,3.436,3.436,0,0,1,.762-.292c.225-.043.359,0,.249.048a7.059,7.059,0,0,0-.726.221,7.252,7.252,0,0,1-1.073.434c-.249.059-.123.166-.067.222a.95.95,0,0,0,.394.228,1.038,1.038,0,0,0,.575-.088,2.254,2.254,0,0,0,.458-.3,3.207,3.207,0,0,1,.426-.249,1,1,0,0,1,.41-.13c.268,0,.323.011.276.059-.067.067-.5.166-.746.288a4.8,4.8,0,0,0-.837.549c-.118.122.228.264.3.292a.882.882,0,0,0,.726-.115,5.019,5.019,0,0,0,.564-.43,1.511,1.511,0,0,1,.623-.327c.016,0,.036,0,.043.011s-.007.027-.019.035c-.193.147-.382.289-.572.431-.163.122-.311.26-.481.371-.3.193.05.442.276.473a1.1,1.1,0,0,0,.7-.24,10.17,10.17,0,0,0,1.1-.971s-.019.043-.2.359.048.454.139.454.248-.064.307-.008a.7.7,0,0,0,.185.966.665.665,0,0,1,.163-.252c.007,0,.1-.059.1-.063a1.072,1.072,0,0,0,.1.063.668.668,0,0,1,.158.252.7.7,0,0,0,.19-.966c.055-.056.213.008.3.008s.323-.134.142-.454-.2-.359-.2-.359a10.052,10.052,0,0,0,1.1.971,1.1,1.1,0,0,0,.7.24c.225-.031.573-.28.273-.473-.169-.11-.316-.249-.477-.371-.193-.142-.383-.284-.572-.431-.013-.008-.024-.019-.019-.035s.027-.016.042-.011a1.508,1.508,0,0,1,.624.327,4.881,4.881,0,0,0,.56.43.879.879,0,0,0,.725.115c.075-.028.423-.171.3-.292a5.13,5.13,0,0,0-.837-.549c-.252-.122-.679-.221-.746-.288-.048-.048,0-.059.276-.059a1.044,1.044,0,0,1,.41.13,3.157,3.157,0,0,1,.422.249,2.309,2.309,0,0,0,.462.3,1.024,1.024,0,0,0,.572.088.9.9,0,0,0,.394-.228c.06-.056.186-.163-.067-.222a7.675,7.675,0,0,1-1.073-.434,6.807,6.807,0,0,0-.725-.221c-.11-.048.024-.091.248-.048a3.413,3.413,0,0,1,.766.292,2.6,2.6,0,0,0,.9.257.988.988,0,0,0,.923-.458c.315-.449.15-.371-.206-.347a2.266,2.266,0,0,1-1.175-.067,4.19,4.19,0,0,1-1.14-.588c-.161-.1-.3-.23-.466-.335a2.272,2.272,0,0,0-2.426.023,1.51,1.51,0,0,0-.19.163l-.047.047V9.94l-.222.241-.225-.241v1.14l-.047-.047a1.245,1.245,0,0,0-.19-.163,2.264,2.264,0,0,0-2.421-.023c-.163.106-.309.232-.466.335a4.177,4.177,0,0,1-1.145.588,2.264,2.264,0,0,1-1.175.067c-.351-.024-.521-.1-.2.347A.978.978,0,0,0,11.237,12.643Z" transform="translate(-7.998 -5.908)" fill="#ce1225"/><path d="M16.406,14.127c-.059-.059-.23,0-.3.02a.524.524,0,0,0-.2.146c-.02.019-.126.177-.163.142S15.7,14,15.565,14s-.146.394-.181.43-.142-.123-.163-.142a.524.524,0,0,0-.2-.146c-.064-.024-.236-.08-.3-.02s.106.2.26.356a.821.821,0,0,1,.185.647,1.807,1.807,0,0,1-.217.765,1.443,1.443,0,0,0-.056,1.006c.126.244.2.249.276.273s.131-.048.2-.209a.4.4,0,0,1,.15-.182.084.084,0,0,1,.094,0,.38.38,0,0,1,.147.182c.066.161.122.236.2.209s.147-.028.273-.273a1.441,1.441,0,0,0-.051-1.006,1.807,1.807,0,0,1-.217-.765.829.829,0,0,1,.182-.647C16.3,14.324,16.457,14.178,16.406,14.127Z" transform="translate(-7.374 -5.352)" fill="#ce1225"/><path d="M14.6,19.635a1.044,1.044,0,0,0,.327.521c.123.051.131-.126.158-.2a2.165,2.165,0,0,1,.206-.4,1.752,1.752,0,0,1,.146-.193,1.182,1.182,0,0,1,.078-.091.5.5,0,0,0,.059-.055.02.02,0,0,1,.028,0c.019.019.051.043.059.055.027.028.055.06.083.091a1.88,1.88,0,0,1,.142.193,1.916,1.916,0,0,1,.2.4c.027.075.04.252.161.2a1.066,1.066,0,0,0,.324-.521,1.877,1.877,0,0,0-.122-1.108,2.663,2.663,0,0,1-.269-.947.885.885,0,0,1,.111-.5c.043-.043.185-.122.173-.2a.066.066,0,0,0-.043-.048.257.257,0,0,0-.094-.011.4.4,0,0,0-.284.134c-.043.043-.134.165-.2.082a.233.233,0,0,1-.023-.07c0-.019-.013-.04-.016-.059a.734.734,0,0,0-.056-.126c-.032-.067-.083-.155-.166-.155s-.138.088-.169.155c-.019.04-.035.083-.051.126a.38.38,0,0,0-.016.059.207.207,0,0,1-.024.07c-.063.083-.153-.039-.2-.082a.385.385,0,0,0-.28-.134.282.282,0,0,0-.1.011.066.066,0,0,0-.043.048c-.013.075.131.153.174.2a.9.9,0,0,1,.11.5,2.579,2.579,0,0,1-.268.947A1.91,1.91,0,0,0,14.6,19.635Z" transform="translate(-7.395 -4.994)" fill="#ce1225"/><path d="M14.405,19.6a.607.607,0,0,1-.3-.177c-.008-.008-.019-.024-.031-.027-.048-.019-.048.04-.048.067a1.738,1.738,0,0,0,3.27,0c0-.027,0-.086-.043-.067-.016,0-.024.019-.035.027a.593.593,0,0,1-.3.177,1.471,1.471,0,0,0-.217.072.652.652,0,0,0-.158.134.9.9,0,0,1-.374.249c-.268.07-.142-.075-.126-.142a.41.41,0,0,0-.064-.415c-.107-.138-.228-.3-.288-.363a.037.037,0,0,0-.059,0c-.056.067-.178.225-.288.363a.4.4,0,0,0-.064.415c.019.067.142.213-.126.142a.914.914,0,0,1-.372-.249.647.647,0,0,0-.161-.134A1.416,1.416,0,0,0,14.405,19.6Z" transform="translate(-7.469 -4.652)" fill="#ce1225"/><path d="M16.282,23.885A6.811,6.811,0,0,0,21.6,12.811a5.926,5.926,0,0,1,.695,2.8,6.01,6.01,0,1,1-11.326-2.8,6.814,6.814,0,0,0,5.318,11.074Z" transform="translate(-8.091 -5.516)" fill="#ce1225"/><path d="M24.634,23.666a.681.681,0,0,0-.118-.281.707.707,0,0,0-.331-.232c-.064-.024-.194-.04-.233-.107s.083-.249.1-.34a.52.52,0,0,0-.26-.552,1.132,1.132,0,0,0-.612-.141,1.686,1.686,0,0,0-.371.086c-.04.011-.182.075-.222.04s.051-.15.252-.469a.722.722,0,0,0-.5-1.014.738.738,0,0,0-.581.138c-.106.083-.213.161-.319.241A14.9,14.9,0,0,1,19.2,22.593a6.9,6.9,0,0,1-5.5,0,15.224,15.224,0,0,1-2.248-1.558c-.107-.08-.213-.158-.319-.241a.732.732,0,0,0-.58-.138.722.722,0,0,0-.5,1.014c.2.319.294.422.248.469s-.182-.028-.217-.04a1.741,1.741,0,0,0-.375-.086,1.142,1.142,0,0,0-.612.141.517.517,0,0,0-.256.552c.016.091.146.265.1.34s-.169.083-.232.107a.692.692,0,0,0-.327.232.641.641,0,0,0-.119.281c0,.019-.011.26.017.248a5.546,5.546,0,0,1,.543-.228,1.8,1.8,0,0,1,.627-.04,2.868,2.868,0,0,1,1.507.679,1.444,1.444,0,0,0,1.266.391.382.382,0,0,0,.3-.244c.032-.088,0-.363.063-.423.024-.023.024-.067.335.163a4.876,4.876,0,0,0,1.5.6,9.337,9.337,0,0,0,2.031.244,9.418,9.418,0,0,0,2.032-.244,4.9,4.9,0,0,0,1.495-.6c.311-.23.311-.185.336-.163.055.06.031.335.063.423a.371.371,0,0,0,.3.244,1.452,1.452,0,0,0,1.266-.391,2.853,2.853,0,0,1,1.506-.679,1.776,1.776,0,0,1,.624.04,5.191,5.191,0,0,1,.548.228C24.642,23.926,24.638,23.686,24.634,23.666Z" transform="translate(-8.257 -4.444)" fill="#ce1225"/><path d="M14.9,10.245l.426-.423.335.367.335-.367.423.423.339-.407.537.434a4.844,4.844,0,0,1-.434-1.436,2.086,2.086,0,0,1-1.2.268,2.1,2.1,0,0,1-1.2-.268,4.7,4.7,0,0,1-.434,1.436l.537-.434Z" transform="translate(-7.469 -6.059)" fill="#ce1225"/><path d="M15.6,9.066c.651,0,1.184-.15,1.184-.335,0-.161-.4-.3-.932-.332v.458h-.5V8.4c-.532.036-.931.171-.931.332C14.421,8.916,14.95,9.066,15.6,9.066Z" transform="translate(-7.414 -6.119)" fill="#ce1225"/><path d="M15.339,6.674V9.032h.313V7.889l1.041.513-.556-.758.773-.307-1.258-.663c.078-.028.13-.075.13-.126,0-.083-.126-.155-.284-.155s-.288.072-.288.155C15.209,6.6,15.26,6.645,15.339,6.674Z" transform="translate(-7.306 -6.393)" fill="#ce1225"/><g transform="translate(1.973 12.492)"><path d="M10.667,18.307a.9.9,0,0,0-.265.131.4.4,0,0,0-.122.193.618.618,0,0,0,0,.371.891.891,0,0,0,.166.335c.064.07.169.2.292.185a.1.1,0,0,0,.067-.027c.059-.067-.059-.2-.027-.367A.216.216,0,0,1,10.825,19c.122-.123.406,0,.469.024.213.091.382.256.394.386a.232.232,0,0,1-.013.094c-.007.019-.023.043-.134.115-.07.043-.106.067-.122.055s0-.051.016-.185a.729.729,0,0,0,.016-.134c-.024-.134-.209-.2-.233-.2s-.2-.064-.244,0c-.036.051.043.115.043.284a.2.2,0,0,1-.206.241.4.4,0,0,1-.248-.067,1.216,1.216,0,0,1-.3-.249A.916.916,0,0,1,10,18.875a.657.657,0,0,1,.138-.49.7.7,0,0,1,.284-.173.342.342,0,0,1,.265-.013c.008,0,.063.032.059.059S10.694,18.3,10.667,18.307Z" transform="translate(-9.992 -17.274)" fill="#f6df25"/><path d="M12.836,19.948c-.013,0-.056-.011-.131.056s-.083.134-.15.236a.86.86,0,0,1-.221.2.508.508,0,0,1-.221.115c-.013,0-.139.024-.163-.019s.024-.08.04-.1a.62.62,0,0,1,.118-.094c.055-.048.094-.08.091-.119s-.056-.075-.1-.09-.078-.02-.248.039c-.1.036-.134.056-.252.1-.134.048-.161.043-.174.032-.035-.04.024-.15.027-.158.043-.075.091-.094.193-.174.214-.161.244-.26.252-.288s.028-.1-.008-.134-.1-.019-.149.008c-.088.051-.064.134-.178.28a.45.45,0,0,1-.125.115A.343.343,0,0,1,11.3,20c-.118.007-.26-.048-.288-.142-.008-.028,0-.052-.016-.126a.173.173,0,0,0-.032-.075.136.136,0,0,0-.15.043.169.169,0,0,0-.019.15.238.238,0,0,0,.1.138c.063.043.09.019.181.075a.165.165,0,0,1,.091.08c.024.047,0,.07.027.13a.14.14,0,0,0,.056.072c.04.027.067.015.1.043a.15.15,0,0,1,.059.07c.032.094-.059.161-.07.332,0,.031,0,.083.015.091s.064-.083.163-.15a.464.464,0,0,1,.181-.067,1.267,1.267,0,0,1,.3.016.81.81,0,0,0,.256-.036c.067-.024.07-.043.319-.252.016-.011.1-.107.276-.292a.119.119,0,0,0,.043-.094A.084.084,0,0,0,12.836,19.948Zm-1.109.615c-.019.016-.047,0-.063,0s-.059-.019-.056-.039.048-.043.086-.032c.016,0,.048.019.048.043A.039.039,0,0,1,11.726,20.563Zm.169-.169a.1.1,0,0,1-.1.008c-.008,0-.051-.016-.056-.035s.04-.035.08-.048.078-.032.094-.016A.076.076,0,0,1,11.9,20.393Z" transform="translate(-9.884 -17.088)" fill="#f6df25"/><path d="M12.844,20.031c.059-.024.146.008.153.048s-.051.078-.142.153c-.284.244-.221.351-.454.537-.027.019-.075.055-.078.1a.157.157,0,0,0,.149.147c.051,0,.091-.048.139-.1s.055-.094.1-.114a.146.146,0,0,1,.161.039c.032.04.016.088.035.091s.035-.043.088-.083.122-.07.138-.051-.091.1-.123.249a.323.323,0,0,0,.016.185.312.312,0,0,0,.364.126.381.381,0,0,0,.213-.276c.024-.094,0-.177.059-.217a.089.089,0,0,1,.083-.016c.08.036.04.265.035.284a.426.426,0,0,1-.091.217.45.45,0,0,1-.236.147.543.543,0,0,1-.457-.013.3.3,0,0,1-.155-.166c-.04-.118.019-.228-.032-.264-.019-.013-.043-.008-.078,0-.209.055-.26.126-.355.126a.264.264,0,0,1-.23-.155c-.035-.09.016-.185.091-.315a3.368,3.368,0,0,1,.462-.544.783.783,0,0,1,.094-.1A.175.175,0,0,1,12.844,20.031Z" transform="translate(-9.699 -17.022)" fill="#f6df25"/><path d="M12.172,21.069a.062.062,0,1,0,.094.063.064.064,0,0,0-.013-.055A.062.062,0,0,0,12.172,21.069Z" transform="translate(-9.698 -16.88)" fill="#f6df25"/><path d="M13.47,20.559c-.035.019-.107,0-.114-.044s.024-.059.051-.075.086-.008.1.02a.084.084,0,0,1-.007.059C13.49,20.535,13.486,20.551,13.47,20.559Z" transform="translate(-9.532 -16.966)" fill="#f6df25"/><path d="M14.34,20.845a.066.066,0,0,0-.013.075.083.083,0,0,0,.123.019.061.061,0,0,0,.02-.047.07.07,0,0,0-.025-.051A.077.077,0,0,0,14.34,20.845Z" transform="translate(-9.4 -16.912)" fill="#f6df25"/><path d="M17.328,21.315c-.225-.048-.174-.048-.327-.075a.6.6,0,0,0-.359,0,.123.123,0,0,0-.067.067.1.1,0,0,0,.016.094c.056.043.153-.064.257-.02.043.016.035.036.106.08s.1.043.107.063c.008.044-.131.107-.213.134a.65.65,0,0,1-.367.052c-.115-.024-.158-.08-.244-.052-.056.016-.072.052-.126.048-.036,0-.048-.019-.131-.067a.552.552,0,0,0-.123-.056c-.07-.007-.083.04-.192.067-.028.008-.143.036-.2-.019a.239.239,0,0,1-.02-.032c-.067-.1-.414.091-.556-.035a.2.2,0,0,1-.07-.118c0-.048.019-.075,0-.1s-.032-.019-.134-.011-.123.011-.169.011a.225.225,0,0,1-.11-.027c-.02-.008-.052-.032-.1-.142-.067-.131-.055-.169-.1-.209a.231.231,0,0,0-.138-.027.323.323,0,0,0-.193.086.367.367,0,0,0-.126.182.25.25,0,0,0,0,.181c.04.075.123.08.126.131,0,.035-.04.07-.083.1a.987.987,0,0,1-.406.134.785.785,0,0,1-.426-.056.756.756,0,0,0-.273-.107c-.039,0-.126-.011-.149.028s.035.126.07.165a.37.37,0,0,0,.086.064h0a.817.817,0,0,0,.289.07c.043,0,.083.008.123.016a1.058,1.058,0,0,0,.489-.035.736.736,0,0,0,.351-.189c.059-.072.1-.155.2-.2a.4.4,0,0,1,.146-.035c.1-.013.269-.035.309.035.023.043-.028.083,0,.134s.109.067.176.078a.7.7,0,0,0,.163,0c.284-.011.343,0,.371.044.019.023,0,.039.024.063.047.059.166.027.28.008a1.8,1.8,0,0,1,.584,0,1.438,1.438,0,0,0,.236.031.7.7,0,0,0,.214-.011.772.772,0,0,0,.339-.153c.153-.111.131-.166.236-.2a1.575,1.575,0,0,0,.233-.075c.064-.024.075-.04.075-.048C17.525,21.358,17.45,21.342,17.328,21.315Zm-3.2-.051c-.013.04-.059.047-.091.047a.087.087,0,0,1-.075-.063c0-.016.008-.035.032-.075s.024-.04.027-.04c.032-.011.07.036.075.04A.1.1,0,0,1,14.124,21.263Z" transform="translate(-9.646 -16.897)" fill="#f6df25"/><path d="M17.974,21.066c-.052-.165-.072-.138-.123-.311s-.056-.292-.153-.351a.13.13,0,0,0-.1-.019c-.051.016-.063.086-.063.094a.2.2,0,0,0,.035.142,2.08,2.08,0,0,1,.138.324,3.247,3.247,0,0,1,.083.355c.04.147.064.193.04.265a.272.272,0,0,1-.134.165c-.107.048-.153-.027-.363-.015a.788.788,0,0,0-.273.055c-.063.027-.106.059-.161.043a1.068,1.068,0,0,0-.123-.055.133.133,0,0,0-.07,0c-.056.027-.051.118-.051.13a.108.108,0,0,0,.027.088c.032.031.072,0,.153.011a.211.211,0,0,1,.147.07c.04.052,0,.1.04.15s.146.075.193.08a.206.206,0,0,0,.166-.035c.035-.036.019-.06.063-.142a.3.3,0,0,1,.1-.107.3.3,0,0,1,.114-.04.607.607,0,0,0,.355-.26C18.12,21.533,18.052,21.319,17.974,21.066ZM17.3,22.088c-.032.016-.064-.008-.083-.019a.091.091,0,0,1-.044-.059A.08.08,0,0,1,17.326,22C17.334,22.034,17.326,22.077,17.3,22.088Z" transform="translate(-9.081 -16.973)" fill="#f6df25"/><path d="M18.142,20.036a.1.1,0,0,0,.075.107.093.093,0,0,0,.091-.059A.072.072,0,0,0,18.292,20c-.008-.008-.016-.008-.043,0C18.185,20.008,18.15,20.012,18.142,20.036Z" transform="translate(-8.878 -17.026)" fill="#f6df25"/><path d="M20.54,19.157s-.048-.078-.083-.07-.035.146-.035.161c0,.11.04.147.016.2-.008.019-.028.048-.123.091a2.693,2.693,0,0,1-.308.086.6.6,0,0,0-.256.185c-.091.111-.083.19-.209.313-.072.07-.107.07-.126.07-.072,0-.08-.094-.177-.138a.265.265,0,0,0-.221.015.428.428,0,0,0-.147.194c-.011.031-.016.067-.032.067s-.019-.1-.075-.126a.122.122,0,0,0-.115.031.186.186,0,0,0-.043.174c.016.07.051.083.08.142a.329.329,0,0,1-.088.375.311.311,0,0,1-.2.035c-.055,0-.155-.013-.2-.08s0-.145-.027-.149-.04.059-.1.075a.106.106,0,0,1-.1-.02c-.019-.024-.019-.047-.027-.11-.011-.1-.016-.146-.039-.158-.04-.024-.111.016-.151.059a.177.177,0,0,0-.047.091c-.02.091.067.142.138.268a2.575,2.575,0,0,1,.088.415c.027.161.039.244.055.244s.02-.064.059-.209a1.176,1.176,0,0,1,.044-.139c.078-.086.224.02.425-.043a.565.565,0,0,0,.284-.217.414.414,0,0,0,.1-.3c-.007-.07-.05-.134-.015-.177a.1.1,0,0,1,.07-.027.438.438,0,0,1,.273.043c.078.027.086.043.094.051.032.051,0,.123-.035.185-.171.372-.15.343-.171.372-.1.145-.161.177-.213.319-.008.027-.035.114-.008.134s.153-.1.206-.155a1.028,1.028,0,0,0,.307-.418c.08-.26-.078-.449.056-.6a.329.329,0,0,1,.094-.072c.147-.07.241.024.375-.039a.352.352,0,0,0,.158-.169c.047-.115-.024-.158.016-.246.059-.138.248-.091.371-.264a.515.515,0,0,0,.067-.174A.405.405,0,0,0,20.54,19.157Zm-1.279,1.184c-.027.027-.082,0-.094,0-.04-.02-.083-.067-.075-.1.008-.016.024-.028.059-.048s.043-.019.059-.016c.036,0,.056.048.059.056C19.282,20.261,19.294,20.313,19.261,20.341Zm.683-.273c-.013.019-.048.067-.088.064a.067.067,0,0,1-.039-.04.081.081,0,0,1,.016-.075c.008-.016.031-.064.078-.067,0,0,.043,0,.056.027S19.96,20.049,19.944,20.068Z" transform="translate(-8.937 -17.15)" fill="#f6df25"/><path d="M19.767,18.735c.024-.047.067-.043.078-.078a.091.091,0,0,0-.051-.094c-.032-.013-.059,0-.107.027a.252.252,0,0,0-.1.086.176.176,0,0,0-.028.123.227.227,0,0,0,.067.118c.059.072.084.067.1.107.019.063-.032.118-.008.142a.06.06,0,0,0,.067,0c.051-.024.035-.075.09-.166a.686.686,0,0,0,.1-.146c.024-.052.016-.064.011-.067s-.051.027-.126.039c-.023.008-.078.016-.1-.011S19.762,18.74,19.767,18.735Z" transform="translate(-8.684 -17.222)" fill="#f6df25"/><path d="M19.888,18.636c.051.123.26.213.4.351.158.161.147.308.273.327a.213.213,0,0,0,.161-.04c.094-.059.075-.142.15-.26.094-.146.189-.114.268-.24a.467.467,0,0,0,.051-.34c-.032-.174-.123-.146-.45-.532a.733.733,0,0,0-.3-.217c-.059-.02-.09-.02-.11,0-.047.035-.027.169.04.249s.123.051.257.1a.857.857,0,0,1,.319.257.413.413,0,0,1,.1.343c0,.015-.023.07-.063.082s-.067-.023-.177-.13c-.485-.469-.126-.115-.193-.182-.083-.078-.1-.1-.123-.094-.04.011-.059.115-.04.2a.8.8,0,0,0,.178.244c.063.07.086.091.09.134a.178.178,0,0,1-.078.158.142.142,0,0,1-.07.027c-.064,0-.1-.075-.163-.161a1.511,1.511,0,0,0-.292-.343c-.039-.032-.039-.028-.13-.1-.067-.051-.088-.072-.1-.064-.036.016-.032.115-.016.174A.156.156,0,0,0,19.888,18.636Z" transform="translate(-8.644 -17.343)" fill="#f6df25"/><path d="M20.422,17.385c-.032.016-.04.107,0,.169a.213.213,0,0,0,.08.08,1.759,1.759,0,0,0,.228.134c.225.11.3.367.339.347s.013-.086.008-.1c-.039-.2-.2-.236-.5-.529C20.505,17.425,20.453,17.369,20.422,17.385Z" transform="translate(-8.57 -17.383)" fill="#f6df25"/></g><g transform="translate(2.117 17.134)"><path d="M11.589,21.987a.2.2,0,0,0-.142-.114.342.342,0,0,0-.276.035c-.078.043-.064.07-.138.11a.414.414,0,0,1-.308.011.4.4,0,0,1-.169-.126c-.134-.142-.107-.232-.222-.307-.067-.04-.166-.064-.2-.028a.105.105,0,0,0-.011.072c.011.059.075.078.15.146.059.051.04.059.106.131a.647.647,0,0,0,.225.166.859.859,0,0,0,.222.059c.134.019.173.011.216.051a.346.346,0,0,1,.08.138c.032.08.024.107.048.118.051.028.149-.063.2-.106C11.482,22.24,11.632,22.106,11.589,21.987Zm-.26.171c-.016,0-.051.011-.067,0a.078.078,0,0,1,.035-.107.077.077,0,0,1,.08.072C11.372,22.142,11.336,22.153,11.328,22.158Z" transform="translate(-10.12 -21.454)" fill="#f6df25"/><path d="M11.942,22a.23.23,0,0,0-.059.142,1.175,1.175,0,0,1-.091.311c-.067.119-.153.166-.13.225a.063.063,0,0,0,.043.048c.067.011.153-.139.217-.244.1-.182.063-.193.142-.289a.188.188,0,0,0,.063-.13.11.11,0,0,0-.063-.091A.135.135,0,0,0,11.942,22Z" transform="translate(-9.909 -21.398)" fill="#f6df25"/><path d="M11.261,22.583c.193.126.268.264.426.335a.383.383,0,0,0,.272.035.363.363,0,0,0,.233-.217c.043-.115-.019-.161.028-.3a.4.4,0,0,1,.118-.173c.015-.008.13-.1.192-.056a.121.121,0,0,1,.036.1c0,.078-.075.1-.139.189-.086.123-.016.171-.1.321-.059.1-.118.118-.123.2a.231.231,0,0,0,.056.146.84.84,0,0,0,.6.246c.228.008.379-.059.458.031a.331.331,0,0,0,.1.123.265.265,0,0,0,.142.043c.213.032.248.008.284.048s0,.134.051.177a.14.14,0,0,0,.11.016c.126-.011.153-.1.241-.091.043,0,.075.032.138.083.091.083.1.138.15.142s.115-.051.142-.083a.52.52,0,0,0,.111-.308c.011-.185-.06-.236,0-.319.024-.04.039-.024.169-.146.019-.02.035-.032.051-.028.04.008.032.155.032.2-.011.241-.032.742-.359.892a.447.447,0,0,1-.371.011c-.115-.063-.1-.165-.209-.2-.138-.048-.241.091-.34.027a.442.442,0,0,1-.114-.142c-.016-.035-.016-.051-.036-.063-.047-.032-.1.023-.189.023a.255.255,0,0,1-.185-.07c-.048-.064-.013-.134-.056-.169s-.115-.013-.142,0a1.077,1.077,0,0,1-.8-.158c-.147-.11-.139-.221-.313-.291-.086-.036-.094-.008-.221-.048a.963.963,0,0,1-.383-.225.577.577,0,0,1-.142-.228c-.008-.028-.023-.08,0-.1S11.237,22.567,11.261,22.583Z" transform="translate(-9.977 -21.366)" fill="#f6df25"/><path d="M14.291,24.179c.2,0,.359.011.4.015a1.513,1.513,0,0,0,.414-.019.408.408,0,0,0,.174-.078.311.311,0,0,0,.1-.123c.032-.07,0-.1.027-.209a.235.235,0,0,1,.091-.177c.028-.016.08-.032.107-.011s.024.074,0,.185a.955.955,0,0,1-.127.374.52.52,0,0,1-.244.178c-.13.055-.161.015-.468.031-.234.013-.316.04-.434-.019-.068-.032-.15-.091-.139-.123S14.251,24.179,14.291,24.179Z" transform="translate(-9.563 -21.179)" fill="#f6df25"/><path d="M14.872,23.175c-.051.131.008.217.019.442a1.209,1.209,0,0,1-.019.386c-.013.051-.032.11-.024.115s.067-.083.107-.163a1.312,1.312,0,0,0,.094-.351c.032-.165.02-.185.048-.323.008-.048.011-.1.019-.15s.011-.08,0-.091c-.032-.032-.123-.008-.177.04A.245.245,0,0,0,14.872,23.175Z" transform="translate(-9.473 -21.252)" fill="#f6df25"/><path d="M15.578,23.159c-.032.115.04.15.067.324s-.027.209-.016.5c0,.086.013.209.035.213s.08-.15.1-.265a1.728,1.728,0,0,0,.024-.283c0-.072.013-.257,0-.509,0-.123-.008-.161-.035-.174C15.712,22.95,15.61,23.046,15.578,23.159Z" transform="translate(-9.374 -21.261)" fill="#f6df25"/><path d="M16.139,23.517c.04.1.134.075.213.177s.088.252.032.3c-.032.027-.063,0-.158.011a.466.466,0,0,0-.189.08c-.08.051-.161.1-.158.161a.1.1,0,0,0,.063.067c.075.027.134-.067.284-.134s.193-.016.268-.08a.442.442,0,0,0,.1-.358.581.581,0,0,0-.078-.268c-.043-.088-.107-.2-.2-.206a.171.171,0,0,0-.15.075A.186.186,0,0,0,16.139,23.517Z" transform="translate(-9.332 -21.219)" fill="#f6df25"/><path d="M17.46,23.415c-.043-.016-.131.091-.171.185a.322.322,0,0,0-.023.276c.059.1.2.11.351.118a1.2,1.2,0,0,0,.457-.067,1.042,1.042,0,0,0,.667-.568c.083-.158.07-.2.059-.221s-.04-.032-.166-.123a.388.388,0,0,1-.07-.051c-.056-.075.011-.153-.008-.316,0-.035-.016-.153-.067-.165s-.078.035-.1.078c-.039.075.008.123,0,.276a.315.315,0,0,1-.035.2c-.048.059-.1.055-.147.13-.027.043-.043.107-.019.118.032.028.13-.13.26-.114a.16.16,0,0,1,.134.1.168.168,0,0,1-.035.139.335.335,0,0,1-.155.134c-.382.193-.394.26-.572.276-.1,0-.217.016-.284-.059C17.432,23.648,17.519,23.439,17.46,23.415Z" transform="translate(-9.146 -21.327)" fill="#f6df25"/><path d="M17.988,22.553a.079.079,0,0,0-.072.083c.008.048.107.075.134.048a.07.07,0,0,0,0-.08S18.026,22.553,17.988,22.553Z" transform="translate(-9.054 -21.317)" fill="#f6df25"/><path d="M18.156,23.816c-.043.008-.094.04-.091.064s.048.035.083.035c.051,0,.1-.051.1-.075S18.191,23.813,18.156,23.816Z" transform="translate(-9.033 -21.145)" fill="#f6df25"/><path d="M17.792,23.912a.086.086,0,0,0,.064.11.083.083,0,0,0,.075-.064.071.071,0,0,0-.027-.075A.077.077,0,0,0,17.792,23.912Z" transform="translate(-9.071 -21.137)" fill="#f6df25"/><path d="M19.728,21.9a.291.291,0,0,0-.155-.182.25.25,0,0,0-.268.067c-.019.02-.031.043-.05.316-.009.166-.009.228.027.252s.055.011.106,0c.08-.011.1-.035.134-.023.051.019.059.106.064.122a.385.385,0,0,1-.1.265,1.965,1.965,0,0,1-.265.3c-.056.048-.122.115-.221.209-.013.016-.028.035-.043.051-.072.075-.1.115-.088.131s.123-.016.2-.052a.714.714,0,0,0,.134-.086c.043-.04.094-.086.158-.153a1.735,1.735,0,0,0,.228-.281,1.4,1.4,0,0,0,.153-.532A.709.709,0,0,0,19.728,21.9Zm-.139.2c-.019.051-.083.107-.122.1s-.04-.107-.04-.123c0-.091.051-.2.1-.193S19.629,22.01,19.589,22.1Z" transform="translate(-8.924 -21.434)" fill="#f6df25"/><path d="M20.146,21.759a.713.713,0,0,0-.193.13.431.431,0,0,0-.086.221,2.95,2.95,0,0,0-.027.321.994.994,0,0,1-.059.28,2.349,2.349,0,0,1-.142.228c-.04.056-.064.083-.051.1s.126,0,.2-.059a.546.546,0,0,0,.174-.292,1.207,1.207,0,0,0,.078-.391c0-.118-.019-.2.04-.288a.385.385,0,0,1,.086-.088c.15-.118.222-.1.324-.2a.215.215,0,0,0,.086-.177c0-.016,0-.056-.032-.067-.047-.016-.1.11-.268.217C20.237,21.712,20.245,21.7,20.146,21.759Z" transform="translate(-8.826 -21.466)" fill="#f6df25"/><path d="M20.313,21.986a.088.088,0,0,0-.032.115c.024.031.106.019.142-.024.011-.02.027-.056.011-.08A.089.089,0,0,0,20.313,21.986Z" transform="translate(-8.732 -21.397)" fill="#f6df25"/></g></g><g transform="translate(0 7.53)"><path d="M5.149,13.374a6.651,6.651,0,0,0,.659,2.478c.457.462,1.073.955,1.148,1.294.063.3.07,2.3.07,2.794a.212.212,0,0,0,.1.181,1.666,1.666,0,0,0,.806.217,1.6,1.6,0,0,0,.749-.181.2.2,0,0,0,.11-.186l-.043-3.756s.035-.315-.639-.765a8.234,8.234,0,0,1-.864-.9c-.107-.1-.206-.252-.38-.209-.216.051.013.4.072.5a3.025,3.025,0,0,1,.284.532,2.936,2.936,0,0,1,.142.466.4.4,0,0,1-.008.134.29.29,0,0,1-.032.091.03.03,0,0,1-.048,0,.6.6,0,0,0-.07-.072c-.056-.055-.115-.106-.174-.157l-.011-.008a5.405,5.405,0,0,1-.856-.568.47.47,0,0,1-.1-.225,1.755,1.755,0,0,0-.477-.955c-.027-.019,0-.193,0-.228a1.211,1.211,0,0,0-.233-.746.209.209,0,0,0-.059-.059C5.094,12.917,5.133,13.291,5.149,13.374Z" transform="translate(-5.135 -13.017)" fill="#ce1225"/><path d="M5.547,13.281c.008.035.024.075.032.11a2.24,2.24,0,0,1,.056.316c0,.059.011.122.011.181a.235.235,0,0,0,.044.163,1.992,1.992,0,0,1,.35.627,3.085,3.085,0,0,0,.118.469,1.354,1.354,0,0,0,.372.28c.094.048.6.394.634.43.02.016.008-.039.008-.043a.47.47,0,0,0-.023-.107.844.844,0,0,0-.23-.355.736.736,0,0,0-.355-.2.089.089,0,0,1-.028-.008c-.027-.016-.035-.083-.043-.111a.765.765,0,0,0-.024-.094c-.027-.086-.059-.169-.094-.252a1.462,1.462,0,0,0-.327-.5c-.024-.019-.043-.039-.067-.059a.123.123,0,0,1-.032-.027c-.016-.024,0-.064,0-.091V13.9a1.839,1.839,0,0,0,0-.209,1.122,1.122,0,0,0-.138-.473c-.044-.075-.218-.244-.261-.08A.375.375,0,0,0,5.547,13.281Z" transform="translate(-5.08 -13.011)" fill="#ce1225"/><path d="M5.939,13.272a.968.968,0,0,0,.027.217c.016.106.035.213.043.319,0,.063-.016.193.032.244a1.945,1.945,0,0,1,.256.359,2.734,2.734,0,0,1,.178.331c.023.056.047.111.067.171s.023.11.09.146a1.186,1.186,0,0,1,.3.2.708.708,0,0,1-.088-.182c-.039-.083-.083-.166-.122-.249-.064-.122-.126-.248-.193-.371-.028-.056-.056-.11-.088-.166-.019-.027-.083-.106-.083-.138a1.266,1.266,0,0,0-.2-.88.245.245,0,0,0-.126-.083C5.97,13.181,5.946,13.221,5.939,13.272Z" transform="translate(-5.025 -12.994)" fill="#ce1225"/><path d="M6.31,13.364a.18.18,0,0,0,.016.051,1.675,1.675,0,0,1,.1.371,1.609,1.609,0,0,1,.011.2c0,.031,0,.063,0,.094a.131.131,0,0,0,0,.086.644.644,0,0,0,.064.1c.028.035.04-.016.063-.035a.172.172,0,0,1,.052-.04.265.265,0,0,0,.063-.016l0-.016a2.163,2.163,0,0,0-.02-.319,1.5,1.5,0,0,0-.106-.477.17.17,0,0,0-.182-.122C6.314,13.25,6.3,13.312,6.31,13.364Z" transform="translate(-4.975 -12.987)" fill="#ce1225"/><g transform="translate(1.416 7.17)"><path d="M7.535,19.63a1.144,1.144,0,0,1-.26-.08,2.113,2.113,0,0,1-.289-.166c-.078-.047-.189-.094-.267-.023s-.048.224.031.288a1.562,1.562,0,0,0,.643.292,1.382,1.382,0,0,0,.647,0,1.562,1.562,0,0,0,.643-.292c.078-.064.118-.217.032-.288s-.19-.024-.268.023a2.046,2.046,0,0,1-.289.166,1.144,1.144,0,0,1-.26.08A1.265,1.265,0,0,1,7.535,19.63Z" transform="translate(-6.341 -19.325)" fill="#ce1225"/><path d="M7.524,20.031a1.256,1.256,0,0,1-.3-.075,3.537,3.537,0,0,1-.335-.169c-.09-.043-.221-.091-.311-.024a.188.188,0,0,0,.035.292,2.107,2.107,0,0,0,.746.292,2.073,2.073,0,0,0,.758,0,2.1,2.1,0,0,0,.746-.292.188.188,0,0,0,.035-.292c-.091-.067-.221-.019-.311.024a3.537,3.537,0,0,1-.335.169,1.243,1.243,0,0,1-.3.075A1.384,1.384,0,0,1,7.524,20.031Z" transform="translate(-6.361 -19.269)" fill="#ce1225"/><path d="M7.516,20.472a1.509,1.509,0,0,1-.34-.075,3.862,3.862,0,0,1-.377-.169.406.406,0,0,0-.356-.024c-.11.075-.059.228.043.292a2.471,2.471,0,0,0,.845.292,2.381,2.381,0,0,0,.851,0,2.455,2.455,0,0,0,.845-.292c.1-.064.155-.217.04-.292a.4.4,0,0,0-.351.024,4.016,4.016,0,0,1-.379.169,1.509,1.509,0,0,1-.34.075A1.757,1.757,0,0,1,7.516,20.472Z" transform="translate(-6.381 -19.209)" fill="#ce1225"/></g><g transform="translate(19.311)"><g transform="translate(0.504)"><path d="M26.216,13.374a6.645,6.645,0,0,1-.658,2.478c-.457.462-1.078.955-1.148,1.294-.064.3-.072,2.3-.075,2.794a.212.212,0,0,1-.1.181,1.649,1.649,0,0,1-.8.217,1.6,1.6,0,0,1-.75-.181.211.211,0,0,1-.11-.186l.043-3.756s-.032-.315.643-.765a8.7,8.7,0,0,0,.864-.9c.107-.1.2-.252.375-.209.221.051-.013.4-.067.5a2.691,2.691,0,0,0-.284.532,2.446,2.446,0,0,0-.142.466.582.582,0,0,0,0,.134.277.277,0,0,0,.036.091c.008.016.031.016.047,0s.048-.048.068-.072c.055-.055.114-.106.173-.157l.011-.008a5.468,5.468,0,0,0,.857-.568.473.473,0,0,0,.1-.225,1.736,1.736,0,0,1,.474-.955c.027-.019.008-.193.008-.228A1.207,1.207,0,0,1,26,13.1a.283.283,0,0,1,.064-.059C26.268,12.917,26.228,13.291,26.216,13.374Z" transform="translate(-22.567 -13.017)" fill="#ce1225"/><path d="M25.571,13.281a.671.671,0,0,1-.032.11,2.081,2.081,0,0,0-.051.316c-.008.059-.011.122-.016.181a.218.218,0,0,1-.043.163,1.921,1.921,0,0,0-.348.627,2.821,2.821,0,0,1-.122.469,1.3,1.3,0,0,1-.371.28c-.1.048-.6.394-.632.43-.019.016-.011-.039-.011-.043.008-.035.016-.075.024-.107a.876.876,0,0,1,.228-.355.736.736,0,0,1,.355-.2.1.1,0,0,0,.032-.008c.027-.016.032-.083.04-.111l.024-.094c.027-.086.059-.169.094-.252a1.474,1.474,0,0,1,.332-.5c.019-.019.043-.039.067-.059a.1.1,0,0,0,.027-.027c.016-.024,0-.064,0-.091V13.9c0-.07,0-.138,0-.209a1.066,1.066,0,0,1,.142-.473c.04-.075.217-.244.26-.08A.292.292,0,0,1,25.571,13.281Z" transform="translate(-22.379 -13.011)" fill="#ce1225"/><path d="M25.1,13.272a.8.8,0,0,1-.028.217,2.752,2.752,0,0,0-.039.319c0,.063.016.193-.036.244a1.945,1.945,0,0,0-.256.359,3.3,3.3,0,0,0-.177.331,1.279,1.279,0,0,0-.064.171c-.024.063-.027.11-.094.146a1.377,1.377,0,0,0-.3.2.708.708,0,0,0,.088-.182c.04-.083.083-.166.122-.249.064-.122.131-.248.194-.371.027-.056.059-.11.09-.166.016-.027.083-.106.083-.138a1.29,1.29,0,0,1,.193-.88.243.243,0,0,1,.127-.083C25.074,13.181,25.1,13.221,25.1,13.272Z" transform="translate(-22.356 -12.994)" fill="#ce1225"/><path d="M24.656,13.364c0,.019-.008.035-.011.051a1.372,1.372,0,0,0-.1.371,1.606,1.606,0,0,0-.013.2.664.664,0,0,0,0,.094c0,.032.011.059,0,.086a.4.4,0,0,1-.067.1c-.027.035-.039-.016-.059-.035a.247.247,0,0,0-.051-.04c-.016,0-.059-.008-.064-.016l0-.016a2.156,2.156,0,0,1,.016-.319,1.635,1.635,0,0,1,.107-.477.176.176,0,0,1,.185-.122C24.652,13.25,24.664,13.312,24.656,13.364Z" transform="translate(-22.332 -12.987)" fill="#ce1225"/></g><g transform="translate(0 7.17)"><path d="M23.642,19.63a1.22,1.22,0,0,0,.257-.08,2.143,2.143,0,0,0,.291-.166c.08-.047.185-.094.268-.023s.043.224-.032.288a1.558,1.558,0,0,1-.642.292,1.4,1.4,0,0,1-.651,0,1.562,1.562,0,0,1-.643-.292c-.075-.064-.114-.217-.032-.288s.19-.024.268.023a2.23,2.23,0,0,0,.292.166,1.2,1.2,0,0,0,.257.08A1.3,1.3,0,0,0,23.642,19.63Z" transform="translate(-22.084 -19.325)" fill="#ce1225"/><path d="M23.69,20.031a1.162,1.162,0,0,0,.3-.075,3.481,3.481,0,0,0,.339-.169.316.316,0,0,1,.311-.024c.1.075.052.228-.039.292a2.107,2.107,0,0,1-.746.292,2.049,2.049,0,0,1-.754,0,2.1,2.1,0,0,1-.746-.292c-.091-.064-.139-.217-.04-.292a.316.316,0,0,1,.311.024,3.641,3.641,0,0,0,.34.169,1.162,1.162,0,0,0,.3.075A1.351,1.351,0,0,0,23.69,20.031Z" transform="translate(-22.104 -19.269)" fill="#ce1225"/><path d="M23.736,20.472a1.509,1.509,0,0,0,.34-.075,3.97,3.97,0,0,0,.382-.169.4.4,0,0,1,.351-.024c.111.075.059.228-.039.292a2.53,2.53,0,0,1-.845.292,2.406,2.406,0,0,1-.856,0,2.521,2.521,0,0,1-.845-.292c-.1-.064-.15-.217-.04-.292a.4.4,0,0,1,.351.024,4.127,4.127,0,0,0,.383.169,1.5,1.5,0,0,0,.339.075A1.729,1.729,0,0,0,23.736,20.472Z" transform="translate(-22.123 -19.209)" fill="#ce1225"/></g></g></g></g></g></g></svg>