<svg xmlns="http://www.w3.org/2000/svg" width="35.153" height="35.153" viewBox="0 0 35.153 35.153"><g transform="translate(0 0)"><path d="M31.2,24.74a17.589,17.589,0,0,1-28.1,0Z" transform="translate(0.424 3.382)" fill="#ec0302"/><path d="M34.76,18.555a17.552,17.552,0,0,1-2.009,5.271,16.22,16.22,0,0,1-1.167,1.76H3.482a16.707,16.707,0,0,1-1.164-1.76A17.552,17.552,0,0,1,.309,18.555Z" transform="translate(0.042 2.537)" fill="#fff"/><path d="M35.153,15.885A17.826,17.826,0,0,1,34.8,19.4H.351a17.766,17.766,0,0,1,0-7.031H34.8A17.814,17.814,0,0,1,35.153,15.885Z" transform="translate(0 1.691)" fill="#ec0302"/><path d="M34.76,13.216H.309A17.529,17.529,0,0,1,2.318,7.945a16.707,16.707,0,0,1,1.164-1.76h28.1a16.22,16.22,0,0,1,1.167,1.76A17.529,17.529,0,0,1,34.76,13.216Z" transform="translate(0.042 0.846)" fill="#fff"/><path d="M31.2,7.031H3.1A17.707,17.707,0,0,1,5.2,4.707a17.544,17.544,0,0,1,26,2.323Z" transform="translate(0.424)" fill="#ec0302"/><path d="M27.9,17.01l-6.084,3.516L9.646,27.556,5.622,29.88a17.492,17.492,0,0,1-2.1-2.323A16.707,16.707,0,0,1,2.36,25.8,17.552,17.552,0,0,1,.351,20.526a17.766,17.766,0,0,1,0-7.031A17.529,17.529,0,0,1,2.36,8.224a16.707,16.707,0,0,1,1.164-1.76,17.707,17.707,0,0,1,2.1-2.323L9.646,6.464,21.814,13.5Z" transform="translate(0 0.566)" fill="#0f51ee"/><path d="M9.609,10.294l1.322,4.06H15.2l-3.456,2.509,1.322,4.06L9.609,18.414,6.157,20.923l1.318-4.06L4.023,14.354H8.291Z" transform="translate(0.55 1.407)" fill="#fff"/></g></svg>