<svg xmlns="http://www.w3.org/2000/svg" width="35.169" height="35.169" viewBox="0 0 35.169 35.169"><g transform="translate(-0.001)"><g transform="translate(0.001 0)"><path d="M35.169,16.761A17.488,17.488,0,0,1,31.5,27.5H3.673a17.549,17.549,0,0,1,0-21.486H31.5A17.473,17.473,0,0,1,35.169,16.761Z" transform="translate(0 0.823)" fill="#ec1c26"/><path d="M30.139,5.863H3.95a17.554,17.554,0,0,1,26.189,0Z" transform="translate(0.54)" fill="#084fa0"/><path d="M30.144,25.777a17.554,17.554,0,0,1-26.2,0Z" transform="translate(0.54 3.524)" fill="#084fa0"/><path d="M31.053,24.92c-.26.335-.529.659-.812.974H4.045c-.285-.315-.552-.639-.814-.974Z" transform="translate(0.442 3.407)" fill="#fff"/><path d="M31.053,6.136H3.231c.261-.335.529-.663.817-.978H30.237C30.525,5.473,30.8,5.8,31.053,6.136Z" transform="translate(0.442 0.705)" fill="#fff"/><g transform="translate(5.689 9.697)"><path d="M20.775,16.418a7.885,7.885,0,1,1-7.883-7.887A7.88,7.88,0,0,1,20.775,16.418Z" transform="translate(-5.005 -8.531)" fill="#fff"/><path d="M12.817,8.75l1.716,5.279H20.08l-4.49,3.259,1.716,5.279L12.817,19.3l-4.49,3.263,1.716-5.279-4.49-3.259H11.1Z" transform="translate(-4.93 -8.501)" fill="#ec1c26"/></g></g></g></svg>