<svg xmlns="http://www.w3.org/2000/svg" width="55.413" height="55.413" viewBox="0 0 55.413 55.413"><g transform="translate(0 0)"><path d="M27.707,0A27.706,27.706,0,1,0,55.413,27.707,27.707,27.707,0,0,0,27.707,0ZM5.029,14.683A26.231,26.231,0,0,1,27.4,1.571L23.818,25.316,4.885,40.616A26.116,26.116,0,0,1,5.029,14.683ZM27.81,53.978A26.127,26.127,0,0,1,5.22,41.2l22.493-9.31L50.3,41.058A26.18,26.18,0,0,1,27.81,53.978Zm3.679-28.347L28.074,1.573A26.23,26.23,0,0,1,50.64,40.452Z" transform="translate(0 0)" fill="#cacee6" fill-rule="evenodd"/></g></svg>