<svg xmlns="http://www.w3.org/2000/svg" width="35.153" height="35.153" viewBox="0 0 35.153 35.153"><g transform="translate(0)"><g transform="translate(0 0)"><path d="M35.153,17.576A17.573,17.573,0,0,1,2.359,26.363,17.573,17.573,0,1,1,32.793,8.786,17.486,17.486,0,0,1,35.153,17.576Z" fill="#0f1f4a"/><path d="M23.287,4.592l.387,1.191h1.251l-1.01.734L24.3,7.7l-1.014-.734-1.01.734.387-1.188-1.01-.734H22.9Z" transform="translate(2.961 0.628)" fill="#feb51d"/><g transform="translate(2.623 13.442)"><path d="M20.453,21.616l.229.71h.75l-.608.438.233.714-.6-.442-.608.442.233-.714-.607-.438h.75Z" transform="translate(0.039 -10.486)" fill="#feb51d"/><path d="M18.3,24.663l.233.71h.746l-.6.442.229.71-.6-.442-.6.442.229-.71-.6-.442h.745Z" transform="translate(-0.255 -10.07)" fill="#feb51d"/><path d="M12.782,22.841l.229.714h.75l-.6.438.229.71-.6-.438-.608.438.233-.71-.6-.438h.746Z" transform="translate(-1.009 -10.319)" fill="#feb51d"/><path d="M13.1,19.013l.233.71h.745l-.6.438.233.714-.608-.442-.6.442.233-.714-.608-.438h.75Z" transform="translate(-0.966 -10.842)" fill="#feb51d"/><path d="M10.635,16.264l.228.714h.75l-.608.438.233.71-.6-.438-.608.438.233-.71-.608-.438h.75Z" transform="translate(-1.304 -11.218)" fill="#feb51d"/><path d="M8.2,13.644l.232.714h.746l-.6.438.233.71L8.2,15.068l-.6.438.229-.71-.6-.438h.75Z" transform="translate(-1.635 -11.576)" fill="#feb51d"/><path d="M3.286,11.825l.229.71h.75l-.6.442.229.71-.6-.438-.608.438.233-.71-.6-.442h.746Z" transform="translate(-2.308 -11.825)" fill="#feb51d"/></g></g></g></svg>