<svg xmlns="http://www.w3.org/2000/svg" width="50.425" height="33.217" viewBox="0 0 50.425 33.217"><g transform="translate(0 0)"><g transform="translate(0 0)"><path d="M24.078,0H26.41c.154.021.308.054.463.061A34.656,34.656,0,0,1,37.437,2.1,23.172,23.172,0,0,1,46.9,8.152a13.012,13.012,0,0,1,3.357,6.555c.062.35.114.7.17,1.051v1.7a1.149,1.149,0,0,0-.06.209,12.215,12.215,0,0,1-2.537,6.279,19.891,19.891,0,0,1-6.857,5.621,32.8,32.8,0,0,1-12.744,3.521l-1.565.128h-2.9a3.6,3.6,0,0,0-.371-.055,35.01,35.01,0,0,1-9.872-1.849,24.234,24.234,0,0,1-9.112-5.341,13.687,13.687,0,0,1-4.18-7.217c-.095-.47-.152-.948-.227-1.422v-1.45c.032-.194.071-.387.095-.582a12.519,12.519,0,0,1,2.79-6.378,21.139,21.139,0,0,1,8.007-5.963A33.543,33.543,0,0,1,22.512.121C23.034.084,23.556.041,24.078,0Zm1.575,31.535c.507-.026,1.42-.056,2.33-.124a30.672,30.672,0,0,0,9.41-2.164,20.492,20.492,0,0,0,7.582-5.069,11.349,11.349,0,0,0,3.124-6.6,10.37,10.37,0,0,0-2.175-7.344,18.427,18.427,0,0,0-7.041-5.577A30.881,30.881,0,0,0,25.938,1.719a33.518,33.518,0,0,0-6.863.539A27.477,27.477,0,0,0,9.148,5.991,16.093,16.093,0,0,0,3.93,11.065a10.067,10.067,0,0,0-1.477,7.382,11.708,11.708,0,0,0,3.039,5.776,19.959,19.959,0,0,0,6.653,4.623A32.539,32.539,0,0,0,25.653,31.535Z" fill="#cacee6"/><path d="M335.535,73.987c0,.386,0,.72,0,1.055q0,9.752,0,19.5c0,.869.349,1.215,1.222,1.215h.769v2.1h-9.013v-2.1c.306,0,.608,0,.909,0a.922.922,0,0,0,1.034-1.027q-.015-8.161-.033-16.322a.86.86,0,0,0-.929-.919c-.272,0-.544,0-.884,0a9.072,9.072,0,0,1,.086-1.39.935.935,0,0,1,.49-.557c1.168-.523,2.355-1,3.536-1.5a.506.506,0,0,1,.178-.058C333.776,73.985,334.656,73.987,335.535,73.987Z" transform="translate(-307.803 -69.323)" fill="#cacee6"/><path d="M466.4,159.48v-4.051h3.286l.034.589h12.43c-.058.154-.092.258-.135.358-.263.618-.531,1.234-.792,1.853a1.855,1.855,0,0,1-1.864,1.23q-3.419-.008-6.837,0-2.9,0-5.8.018Z" transform="translate(-437.005 -145.632)" fill="#cacee6"/><path d="M99.859,165.133c0,1.039-.013,2.046.008,3.053.006.308-.1.36-.379.36q-5.685-.012-11.369-.007c-.483,0-.966.01-1.448-.008a1.663,1.663,0,0,1-1.529-.991c-.349-.739-.649-1.5-.969-2.254a.985.985,0,0,1-.032-.153Z" transform="translate(-78.837 -154.724)" fill="#cacee6"/><path d="M128.4,252.63h-.368q-5.324,0-10.648,0a1.844,1.844,0,0,1-1.878-1.247c-.25-.623-.524-1.236-.786-1.855-.036-.084-.061-.173-.1-.282H128.4Z" transform="translate(-107.397 -233.538)" fill="#cacee6"/><path d="M466.269,249.059h13.785c-.038.115-.06.2-.095.281q-.418.985-.841,1.969a1.755,1.755,0,0,1-1.723,1.143q-5.42.014-10.841.017c-.163,0-.309.018-.307-.232.009-1.019,0-2.038,0-3.057A.726.726,0,0,1,466.269,249.059Z" transform="translate(-436.859 -233.361)" fill="#cacee6"/><path d="M160.911,317.695c0,1.1-.027,2.15.013,3.2a.764.764,0,0,1-.527.851c-.7.311-1.367.691-2.054,1.03a1.129,1.129,0,0,1-.475.121q-2.961.013-5.922.006a1.533,1.533,0,0,1-1.452-.783c-.434-.833-.784-1.711-1.2-2.642h.456c2.425,0,4.851-.006,7.276-.021a1.507,1.507,0,0,0,.628-.149c.991-.481,1.972-.983,2.957-1.477C160.691,317.786,160.777,317.753,160.911,317.695Z" transform="translate(-139.882 -297.67)" fill="#cacee6"/><path d="M466.293,324.379h.368c.819,0,1.639-.012,2.457.012a1.728,1.728,0,0,1,.709.19c.654.333,1.289.706,1.94,1.046a1.081,1.081,0,0,0,.48.1c1.743.008,3.487.006,5.23.006h.4c-.04.122-.06.2-.092.276q-.444,1.026-.893,2.05a1.717,1.717,0,0,1-1.68,1.1q-1.906.009-3.812,0a.956.956,0,0,1-.416-.109c-.662-.342-1.337-.666-1.97-1.057a2.57,2.57,0,0,0-1.651-.354,5.916,5.916,0,0,1-.85,0c-.077,0-.212-.1-.213-.149C466.29,326.471,466.293,325.445,466.293,324.379Z" transform="translate(-436.902 -303.931)" fill="#cacee6"/></g></g></svg>