<svg xmlns="http://www.w3.org/2000/svg" width="35.153" height="35.153" viewBox="0 0 35.153 35.153"><g transform="translate(0 0)"><path d="M4.667,26.616a17.549,17.549,0,0,0,27.838-3.424H2.079A17.547,17.547,0,0,0,4.667,26.616Z" transform="translate(0.284 3.171)" fill="#3b75c2"/><path d="M0,15.462a17.455,17.455,0,0,0,1.006,5.859,17.1,17.1,0,0,0,1.357,2.928H32.79a17.436,17.436,0,0,0,2.363-8.787H0Z" transform="translate(0 2.114)" fill="#cd1225"/><path d="M17.292,0A17.643,17.643,0,0,0,2.079,8.786H32.506A17.58,17.58,0,0,0,17.292,0Z" transform="translate(0.284)" fill="#fec527"/><path d="M32.79,7.729H2.363A17.471,17.471,0,0,0,0,16.519H35.153a17.471,17.471,0,0,0-2.363-8.79Z" transform="translate(0 1.057)" fill="#fff"/><path d="M21.194,16.931,13.4,22.789l-8.45,6.352a17.526,17.526,0,0,1,0-24.421l8.45,6.352Z" transform="translate(0 0.645)" fill="#3b8d35"/><g transform="translate(2.774 11.666)"><path d="M5.075,16.173a5.911,5.911,0,0,1,4.592-5.76,5.772,5.772,0,0,0-1.317-.15,5.91,5.91,0,0,0,0,11.821,5.836,5.836,0,0,0,1.317-.15A5.912,5.912,0,0,1,5.075,16.173Z" transform="translate(-2.44 -10.263)" fill="#fff"/><path d="M8.924,10.787l.249.761h.8l-.647.469.249.761-.647-.473-.647.473.249-.761-.647-.469h.8Z" transform="translate(-1.696 -10.191)" fill="#fff"/><path d="M8.924,18.2l.249.761h.8l-.647.469.249.761-.647-.469-.647.469.249-.761-.647-.469h.8Z" transform="translate(-1.696 -9.177)" fill="#fff"/><path d="M8.924,15.733l.249.761h.8l-.647.469.249.761-.647-.469-.647.469.249-.761-.647-.469h.8Z" transform="translate(-1.696 -9.515)" fill="#fff"/><path d="M8.924,13.258l.249.761h.8l-.647.469.249.761-.647-.469-.647.469.249-.761-.647-.469h.8Z" transform="translate(-1.696 -9.853)" fill="#fff"/></g></g></svg>