<svg xmlns="http://www.w3.org/2000/svg" width="35.153" height="35.153" viewBox="0 0 35.153 35.153"><g transform="translate(0)"><g transform="translate(0 0)"><g transform="translate(3.664 3.851)"><path d="M26.336,8.017c5.709,5.709,6.205,14.5,1.108,19.593S13.56,32.208,7.852,26.5,1.646,12,6.743,6.907,20.631,2.308,26.336,8.017Z" transform="translate(-3.223 -3.388)"/></g><path d="M35.153,16.167a17.513,17.513,0,0,0-1.006-5.859H1.006a17.563,17.563,0,0,0,0,11.717H34.147A17.468,17.468,0,0,0,35.153,16.167Z" transform="translate(0 1.409)" fill="#fff"/><path d="M17.456,0A17.61,17.61,0,0,0,.885,11.717H34.026A17.609,17.609,0,0,0,17.456,0Z" transform="translate(0.121)" fill="#ec2938"/><path d="M.885,20.616a17.575,17.575,0,0,0,33.141,0Z" transform="translate(0.121 2.819)" fill="#ec2938"/></g></g></svg>