<svg xmlns="http://www.w3.org/2000/svg" width="35.153" height="35.153" viewBox="0 0 35.153 35.153"><g transform="translate(0)"><g transform="translate(0 0)"><path d="M26.706,2.561.2,20.247a17.572,17.572,0,0,1,26.5-17.686Z" fill="#19b43d"/><path d="M34.138,15.783A17.571,17.571,0,0,1,7.427,30.8l26.5-17.683A17.546,17.546,0,0,1,34.138,15.783Z" transform="translate(1.015 1.793)" fill="#07a3dc"/><path d="M34.37,12.2,6.485,30.8A17.619,17.619,0,0,1,.614,22.021L28.5,3.415A17.632,17.632,0,0,1,34.37,12.2Z" transform="translate(0.084 0.467)"/><path d="M28.559,3.574.673,22.18a17.044,17.044,0,0,1-.493-2.24l26.5-17.686A17.568,17.568,0,0,1,28.559,3.574Z" transform="translate(0.025 0.308)" fill="#fbd023"/><path d="M34.157,13.383,7.652,31.065a17.046,17.046,0,0,1-1.873-1.322l27.885-18.6A16.839,16.839,0,0,1,34.157,13.383Z" transform="translate(0.79 1.523)" fill="#fbd023"/></g></g></svg>