<svg xmlns="http://www.w3.org/2000/svg" xmlns:xlink="http://www.w3.org/1999/xlink" width="65.004" height="56.478" viewBox="0 0 65.004 56.478"><defs><clipPath id="a"><rect width="65.004" height="56.478" fill="#cacee6"/></clipPath></defs><g clip-path="url(#a)"><path d="M30.568.006C23.244.143,14.427,1.417,9.3,4.488A18.849,18.849,0,0,0,.7,16.844c-1.249,6.275-.672,12.386.558,18.67s3.69,13.314,10.508,16.938S23.157,56.5,32.5,56.477c9.345.027,13.918-.4,20.738-4.025S62.52,41.8,63.749,35.512s1.806-12.394.558-18.669A18.842,18.842,0,0,0,55.7,4.49C49.044.828,41.724.127,34.435.006c-1.327.008-2.64-.016-3.869,0ZM40.1,1.694c2.7.258,9.47.784,14.535,3.8A16.346,16.346,0,0,1,62.91,17.011c.947,4.657.864,10.546-.447,18s-4.977,13.656-9.95,16.267S41.226,55.271,32.5,55.137c-8.724.134-15.037-1.248-20.011-3.859s-8.639-8.814-9.95-16.267-1.393-13.343-.447-18A16.342,16.342,0,0,1,10.367,5.5C15.431,2.477,22.2,1.952,24.9,1.694A88.694,88.694,0,0,1,40.1,1.694Zm-9.278,1.3A63.642,63.642,0,0,0,19.19,4.2c-3.476.745-4.664,1.01-7.661,2.8A16.89,16.89,0,0,0,3.715,18.071c-1.131,5.621-.607,11.1.508,16.723S7.572,46.72,13.761,49.964c10.285,5.356,27.457,5.144,37.484,0,6.188-3.244,8.422-9.544,9.537-15.171s1.639-11.1.508-16.723A16.9,16.9,0,0,0,53.476,7.007c-3-1.793-4.185-2.057-7.661-2.8A63.9,63.9,0,0,0,34.18,2.989c-1.151.01-2.29-.011-3.355,0Zm8.165,2.7a52.036,52.036,0,0,1,5.283.691c.327.068.51.172.438.483-3.545,8.6-7.334,17.207-11.285,25.809-.532,1.139-1.206,1.183-1.752.209C27.688,24.215,23.867,15.54,20.293,6.869c-.072-.312.112-.417.438-.483a52.209,52.209,0,0,1,5.283-.694,76.77,76.77,0,0,1,12.974,0ZM17.166,7.322c.2-.007.269.127.262.38l0-.009V22.167A18.307,18.307,0,0,0,20.2,32.6l9.683,17.83c.33.629-.207.588-.789.595A32.541,32.541,0,0,1,15.3,47.8C11,45.579,7.834,40.313,6.7,33.984S5.5,22.654,6.316,18.7a13.9,13.9,0,0,1,7.145-9.78A18.841,18.841,0,0,1,16.93,7.369a.862.862,0,0,1,.234-.048Zm30.672,0a.86.86,0,0,1,.234.047A18.853,18.853,0,0,1,51.544,8.92a13.9,13.9,0,0,1,7.145,9.78c.818,3.953.745,8.954-.386,15.284S54,45.579,49.709,47.8a32.56,32.56,0,0,1-13.8,3.229c-.582-.007-1.119.034-.787-.595L44.807,32.6a18.318,18.318,0,0,0,2.767-10.435V7.693l0,.009c-.007-.253.061-.386.262-.381Z" transform="translate(0 0)" fill="#cacee6"/></g></svg>