<svg xmlns="http://www.w3.org/2000/svg" width="35.153" height="35.153" viewBox="0 0 35.153 35.153"><g transform="translate(0 0)"><path d="M30.237,5.4A17.573,17.573,0,0,0,2.911,7.9c-.2.292-.382.588-.556.9s-.363.647-.525.979c-.161.315-.307.639-.446.962a17.57,17.57,0,0,0,.013,13.7c.138.329.288.648.446.963s.331.64.513.955.359.6.556.892A17.569,17.569,0,1,0,30.237,5.4Z" transform="translate(0)" fill="#009d4a"/><g transform="translate(0 7.902)"><path d="M35.153,16.625,2.911,26.3c-.2-.292-.382-.588-.556-.892s-.355-.631-.513-.955-.308-.634-.446-.963a17.57,17.57,0,0,1-.013-13.7c.139-.323.284-.647.446-.962.163-.332.34-.659.525-.979s.359-.6.556-.9Z" transform="translate(0 -6.952)" fill="#fff"/><path d="M31.621,16.518,2.355,25.3c-.182-.315-.355-.631-.513-.955s-.308-.634-.446-.963a17.57,17.57,0,0,1-.013-13.7c.139-.323.284-.647.446-.962.163-.332.34-.659.525-.979Z" transform="translate(0 -6.844)" fill="#fbd023"/><path d="M14.854,16.448,1.843,24.228c-.158-.315-.308-.634-.446-.963a17.57,17.57,0,0,1-.013-13.7c.139-.323.284-.647.446-.962Z" transform="translate(0 -6.727)"/><path d="M12.881,16.328,1.4,23.149a17.57,17.57,0,0,1-.013-13.7Z" transform="translate(0 -6.611)" fill="#cd1225"/></g></g></svg>