<svg xmlns="http://www.w3.org/2000/svg" width="35.153" height="35.153" viewBox="0 0 35.153 35.153"><g transform="translate(0 0)"><path d="M26.706,2.564.2,20.247a17.57,17.57,0,0,1,26.5-17.683Z" fill="#009d4a"/><path d="M34.137,15.783A17.571,17.571,0,0,1,7.431,30.8l26.5-17.686A17.546,17.546,0,0,1,34.137,15.783Z" transform="translate(1.016 1.793)" fill="#cd1225"/><path d="M34.371,12.2,6.485,30.8A17.629,17.629,0,0,1,.614,22.02L28.5,3.419A17.636,17.636,0,0,1,34.371,12.2Z" transform="translate(0.084 0.467)"/><path d="M28.56,3.578.674,22.179a17.619,17.619,0,0,1-.5-2.24l26.5-17.683A17.275,17.275,0,0,1,28.56,3.578Z" transform="translate(0.024 0.308)" fill="#fbd023"/><path d="M34.157,13.383,7.657,31.069a18.451,18.451,0,0,1-1.878-1.322L33.665,11.141A17.017,17.017,0,0,1,34.157,13.383Z" transform="translate(0.79 1.523)" fill="#fbd023"/><path d="M11.262,19.775l1.124-3.042-2.7,1.8L7.143,16.524l.876,3.121-2.7,1.8,3.243.13L9.44,24.7l1.124-3.042,3.243.13Z" transform="translate(0.727 2.259)" fill="#fff"/><path d="M23.945,11.331,25.069,8.29l-2.7,1.8L19.826,8.076,20.7,11.2,18,13l3.243.13.876,3.121,1.124-3.042,3.243.134Z" transform="translate(2.461 1.104)" fill="#fff"/></g></svg>