<svg xmlns="http://www.w3.org/2000/svg" width="35.153" height="35.153" viewBox="0 0 35.153 35.153"><g transform="translate(0)"><g transform="translate(0 0)"><path d="M17.292,0A17.585,17.585,0,0,0,2.076,8.786H32.509A17.59,17.59,0,0,0,17.292,0Z" transform="translate(0.284)" fill="#e92838"/><path d="M17.292,31.982a17.587,17.587,0,0,0,15.217-8.79H2.076A17.582,17.582,0,0,0,17.292,31.982Z" transform="translate(0.284 3.171)" fill="#00a452"/><path d="M32.793,7.729H2.36A17.486,17.486,0,0,0,0,16.519H35.153A17.486,17.486,0,0,0,32.793,7.729Z" transform="translate(0 1.057)" fill="#1b206c"/><path d="M0,15.462a17.48,17.48,0,0,0,2.36,8.787H32.793a17.48,17.48,0,0,0,2.36-8.787Z" transform="translate(0 2.114)" fill="#fed417"/></g></g></svg>