<svg xmlns="http://www.w3.org/2000/svg" width="35.153" height="35.153" viewBox="0 0 35.153 35.153"><g transform="translate(0)"><g transform="translate(0 0)"><path d="M0,17.455A17.6,17.6,0,0,0,11.717,34.026V.885A17.6,17.6,0,0,0,0,17.455Z" transform="translate(0 0.121)"/><path d="M32.334,17.455A17.609,17.609,0,0,0,20.616.885V34.026A17.609,17.609,0,0,0,32.334,17.455Z" transform="translate(2.819 0.121)" fill="#ec2938"/><path d="M16.167,0a17.464,17.464,0,0,0-5.859,1.006V34.147a17.563,17.563,0,0,0,11.717,0V1.006A17.479,17.479,0,0,0,16.167,0Z" transform="translate(1.409 0)" fill="#f9df47"/></g></g></svg>