<svg xmlns="http://www.w3.org/2000/svg" width="35.156" height="35.157" viewBox="0 0 35.156 35.157"><g transform="translate(0)"><g transform="translate(0 0)"><path d="M35.157,17.58A17.627,17.627,0,0,1,24.69,33.649a17.031,17.031,0,0,1-2.714.947A17.566,17.566,0,0,1,.138,15.4c.02-.161.04-.319.067-.477A16.378,16.378,0,0,1,.6,13.05c.115-.441.249-.872.4-1.3a17.467,17.467,0,0,1,.955-2.209l.031-.094.008.023A18.1,18.1,0,0,1,2.978,7.8,17.583,17.583,0,0,1,17.426,0h.3A17.6,17.6,0,0,1,35.157,17.58Z" transform="translate(0 0)" fill="#062493"/><path d="M29.95,5.472V29.681a17.59,17.59,0,0,1-2.968,2.505L2.62,7.8A17.583,17.583,0,0,1,17.068,0c.052,0,.1,0,.15,0s.1,0,.155,0A17.512,17.512,0,0,1,29.95,5.472Z" transform="translate(0.358)" fill="#fdca16"/><g transform="translate(0.138 9.45)"><path d="M22.188,29.868a17.031,17.031,0,0,1-2.714.947L18.3,29.963H20.72l.749-2.3Z" transform="translate(2.364 -5.668)" fill="#fff"/><path d="M17.6,23.789l.746,2.3h2.426l-1.961,1.424.75,2.308L17.6,28.4l-1.961,1.424.746-2.308-1.961-1.424h2.426Z" transform="translate(1.835 -6.197)" fill="#fff"/><path d="M13.734,19.919l.75,2.3h2.422l-1.961,1.428.75,2.3-1.961-1.424-1.961,1.424.75-2.3-1.96-1.428h2.422Z" transform="translate(1.306 -6.726)" fill="#fff"/><path d="M9.864,16.049l.75,2.308h2.422l-1.961,1.424.75,2.3L9.864,20.661,7.9,22.085l.75-2.3L6.692,18.357H9.114Z" transform="translate(0.777 -7.255)" fill="#fff"/><path d="M5.994,12.182l.75,2.3H9.166L7.2,15.911l.75,2.3L5.994,16.791,4.033,18.215l.75-2.3-1.96-1.424H5.244Z" transform="translate(0.248 -7.784)" fill="#fff"/><path d="M3.175,12.04l.749,2.3L1.964,12.92.121,14.261c.02-.161.04-.319.067-.477L.753,12.04l-.174-.126c.115-.441.249-.872.4-1.3h.236l.718-2.209.031-.094.008.023.742,2.28H5.136Z" transform="translate(-0.121 -8.313)" fill="#fff"/></g></g></g></svg>