<svg xmlns="http://www.w3.org/2000/svg" width="35.153" height="35.149" viewBox="0 0 35.153 35.149"><g transform="translate(0.001)"><g transform="translate(-0.001 0)"><path d="M8.79,2.076v30.43a17.563,17.563,0,0,1,0-30.43Z" transform="translate(0 0.284)" fill="#00795e"/><path d="M31.982,17.292a17.579,17.579,0,0,1-8.79,15.214V2.076A17.577,17.577,0,0,1,31.982,17.292Z" transform="translate(3.171 0.284)" fill="#fbd023"/><path d="M25.306,2.36V32.79a17.544,17.544,0,0,1-17.573,0V2.36a17.537,17.537,0,0,1,17.573,0Z" transform="translate(1.057)" fill="#cd1225"/><path d="M16,11.742l1.049,3.231h3.393l-2.746,2L18.743,20.2,16,18.2l-2.746,2L14.3,16.969l-2.746-2h3.393Z" transform="translate(1.58 1.605)" fill="#fbd023"/></g></g></svg>