<svg xmlns="http://www.w3.org/2000/svg" width="35.156" height="35.149" viewBox="0 0 35.156 35.149"><g transform="translate(0)"><g transform="translate(0 0)"><path d="M35.157,16.167a17.474,17.474,0,0,1-1.006,5.859H1.006a17.563,17.563,0,0,1,0-11.717H34.151A17.45,17.45,0,0,1,35.157,16.167Z" transform="translate(0 1.409)" fill="#00247d"/><path d="M34.03,20.616a17.58,17.58,0,0,1-33.145,0Z" transform="translate(0.121 2.819)" fill="#cf142b"/><path d="M34.03,11.717H.885a17.578,17.578,0,0,1,33.145,0Z" transform="translate(0.121)" fill="#fc0"/><g transform="translate(6.277 12.826)"><g transform="translate(7.985)"><path d="M14.137,13.335l-.75.761.114-1.061-.955-.477,1.046-.217.158-1.057.533.927,1.053-.178-.718.793.493.947Z" transform="translate(-12.547 -11.283)" fill="#fff"/></g><g transform="translate(4.58 1.424)"><path d="M11.307,14.347l-.454.967-.245-1.042-1.057-.13.911-.556-.2-1.049.809.7.939-.513-.418.982.781.734Z" transform="translate(-9.552 -12.536)" fill="#fff"/></g><g transform="translate(1.949 3.681)"><path d="M8.957,16.289l-.1,1.065-.58-.9-1.042.233.671-.832-.544-.919,1,.387.706-.8-.055,1.069.978.422Z" transform="translate(-7.237 -14.522)" fill="#fff"/></g><g transform="translate(0 6.766)"><path d="M7.483,18.936l.272,1.034L6.9,19.327,6,19.9l.352-1.01-.829-.679,1.069.02.391-1,.311,1.022,1.065.063Z" transform="translate(-5.522 -17.236)" fill="#fff"/></g><g transform="translate(11.828)"><path d="M17.127,13.335l.75.761-.114-1.061.955-.477-1.045-.217-.158-1.057-.533.927-1.053-.178.718.793-.494.947Z" transform="translate(-15.927 -11.283)" fill="#fff"/></g><g transform="translate(15.201 1.424)"><path d="M19.96,14.347l.454.967.245-1.042,1.057-.13-.911-.556.2-1.049-.809.7-.939-.513.418.982-.781.734Z" transform="translate(-18.895 -12.536)" fill="#fff"/></g><g transform="translate(17.899 3.681)"><path d="M22.3,16.289l.1,1.065.58-.9,1.042.233-.671-.832.544-.919-1,.387-.707-.8.055,1.069-.978.422Z" transform="translate(-21.269 -14.522)" fill="#fff"/></g><g transform="translate(19.766 6.766)"><path d="M23.786,18.936l-.272,1.034.857-.643.9.576-.351-1.01.829-.679-1.069.02-.391-1-.311,1.022-1.065.063Z" transform="translate(-22.911 -17.236)" fill="#fff"/></g></g></g></g></svg>