<svg xmlns="http://www.w3.org/2000/svg" width="35.153" height="35.148" viewBox="0 0 35.153 35.148"><g transform="translate(0)"><g transform="translate(0 0)"><path d="M34.026,20.613a17.246,17.246,0,0,1-1.354,2.932c-.193.331-.394.658-.607.974H2.846c-.213-.316-.418-.643-.607-.974A17.159,17.159,0,0,1,.885,20.613Z" transform="translate(0.121 2.818)" fill="#fff"/><path d="M35.029,17.18a17.129,17.129,0,0,1-.895,3.9H.993a17.136,17.136,0,0,1-.9-3.9Z" transform="translate(0.013 2.349)" fill="#0738a6"/><path d="M31.829,24.049a17.793,17.793,0,0,1-3.583,3.91H6.188a17.662,17.662,0,0,1-3.578-3.91Z" transform="translate(0.357 3.288)" fill="#0738a6"/><path d="M27.816,27.489a17.541,17.541,0,0,1-22.058,0Z" transform="translate(0.787 3.758)" fill="#fff"/><path d="M34.026,10.774H.885A17.247,17.247,0,0,1,2.239,7.846c.189-.331.394-.658.607-.974H32.065c.213.316.414.643.607.974A17.335,17.335,0,0,1,34.026,10.774Z" transform="translate(0.121 0.94)" fill="#fff"/><path d="M35.153,15.694a16.839,16.839,0,0,1-.111,1.956H.107a17.931,17.931,0,0,1,0-3.909H35.042A16.838,16.838,0,0,1,35.153,15.694Z" transform="translate(0 1.879)" fill="#fff"/><path d="M31.829,7.342H2.61c.1-.15.206-.3.308-.446a2.416,2.416,0,0,1,.153-.206A16.683,16.683,0,0,1,4.686,4.8c.07-.078.15-.158.228-.233A16.238,16.238,0,0,1,6.188,3.433H28.246A17.685,17.685,0,0,1,31.829,7.342Z" transform="translate(0.357 0.469)" fill="#0738a6"/><path d="M27.816,3.9H5.758c.091-.075.178-.147.268-.214.1-.083.206-.161.311-.236a17.529,17.529,0,0,1,21.478.45Z" transform="translate(0.787)" fill="#fff"/><path d="M35.029,14.211H.094a17.22,17.22,0,0,1,.9-3.906H34.134A17.214,17.214,0,0,1,35.029,14.211Z" transform="translate(0.013 1.409)" fill="#0738a6"/><path d="M19.529.107V19.529H.107a17.931,17.931,0,0,1,0-3.909A17.522,17.522,0,0,1,2.36,8.786c.189-.331.394-.658.607-.974.1-.15.206-.3.308-.446a2.416,2.416,0,0,1,.153-.206A16.683,16.683,0,0,1,5.042,5.271c.07-.078.15-.158.228-.233A16.238,16.238,0,0,1,6.545,3.9c.091-.075.178-.147.268-.214.1-.083.206-.161.311-.236A17.6,17.6,0,0,1,19.529.107Z" fill="#fff"/><g transform="translate(2.352 2.352)"><g transform="translate(1.037 1.033)"><path d="M6.3,4.355c.072.122.163.288.284.521A2.8,2.8,0,0,1,6.9,6.138a1.385,1.385,0,0,1-.008.15l1.061.738h0a8.451,8.451,0,0,0-.454-1.2A6.656,6.656,0,0,0,6.518,4.28L6.49,4.24a1.942,1.942,0,0,1-.4-.915c0,.011,0,.027,0,.04a1.307,1.307,0,0,0-.013.438A1.434,1.434,0,0,0,6.3,4.355Z" transform="translate(-2.56 -2.931)" fill="#fbd023"/><path d="M6.593,4.185a6.862,6.862,0,0,1,1,1.563,8.992,8.992,0,0,1,.418,1.092l.158-.864A4.764,4.764,0,0,0,7.386,4.6a3.628,3.628,0,0,0-.86-.722.792.792,0,0,1-.284-.355L6.23,3.492a1.94,1.94,0,0,0,.335.65C6.573,4.158,6.585,4.171,6.593,4.185Z" transform="translate(-2.537 -2.908)" fill="#fbd023"/><path d="M8.079,7.014a2.308,2.308,0,0,1,.544-.08V2.978l-.738,4.1A1.359,1.359,0,0,1,8.079,7.014Z" transform="translate(-2.31 -2.978)" fill="#fbd023"/><path d="M9.384,7.074l-.742-4.1V6.935c.059,0,.118,0,.174.013A2.121,2.121,0,0,1,9.384,7.074Z" transform="translate(-2.207 -2.978)" fill="#fbd023"/><path d="M9.958,5.862a5.793,5.793,0,0,0,.356-1.511c.011-.1.027-.206.047-.324a1.892,1.892,0,0,1,.364-.931,1.476,1.476,0,0,0-.351.324.958.958,0,0,0-.11.189,3.084,3.084,0,0,0-.118.363c-.04.134-.091.321-.171.568A2.669,2.669,0,0,1,9.2,5.763l.228,1.271A8.945,8.945,0,0,0,9.958,5.862Z" transform="translate(-2.131 -2.962)" fill="#fbd023"/><path d="M10.6,3.488a.829.829,0,0,1,.055-.173,2.114,2.114,0,0,0-.224.7c-.016.118-.032.225-.048.324a5.891,5.891,0,0,1-.355,1.538,8.609,8.609,0,0,1-.477,1.07l.722-.5h0A4.8,4.8,0,0,0,10.7,4.912,3.657,3.657,0,0,0,10.6,3.8.8.8,0,0,1,10.6,3.488Z" transform="translate(-2.083 -2.932)" fill="#fbd023"/><path d="M9.51,6.952a2.45,2.45,0,0,1,.62.431l2.8-2.8L10.35,6.372Z" transform="translate(-2.088 -2.758)" fill="#fbd023"/><path d="M11.606,8.167a4.809,4.809,0,0,0,1.3-.722c.023-.019.051-.04.074-.059a3.537,3.537,0,0,0,.723-.86.85.85,0,0,1,.382-.3,2.052,2.052,0,0,0-.65.335,6.9,6.9,0,0,1-1.6,1.029c-.232.107-.425.186-.6.253l-.209.075c-.1.031-.19.063-.288.094l.867.153Z" transform="translate(-1.92 -2.534)" fill="#fbd023"/><path d="M11.333,6.9h0L10.6,7.958c.138-.043.268-.086.406-.134A8.133,8.133,0,0,0,11.8,7.5a6.921,6.921,0,0,0,1.582-1.017,1.886,1.886,0,0,1,.915-.4c-.013,0-.024,0-.04-.008a1.4,1.4,0,0,0-.438-.011,1.481,1.481,0,0,0-.552.228c-.123.067-.288.163-.521.281A2.711,2.711,0,0,1,11.333,6.9Z" transform="translate(-1.939 -2.557)" fill="#fbd023"/><path d="M10.561,8.078h0l2.37-3.417-2.8,2.8A2.5,2.5,0,0,1,10.561,8.078Z" transform="translate(-2.003 -2.748)" fill="#fbd023"/><path d="M10.734,8.624h3.957L10.6,7.882A2.463,2.463,0,0,1,10.734,8.624Z" transform="translate(-1.939 -2.308)" fill="#fbd023"/><path d="M10.6,9.384l4.091-.742H10.734A2.469,2.469,0,0,1,10.6,9.384Z" transform="translate(-1.939 -2.204)" fill="#fbd023"/><path d="M14.231,10.373a1.375,1.375,0,0,0-.552-.228l-.564-.171A2.676,2.676,0,0,1,11.888,9.2l-1.271.232a9.158,9.158,0,0,0,1.172.529,6.17,6.17,0,0,0,1.645.372c.059.008.126.019.193.027a1.9,1.9,0,0,1,.928.367c-.024-.035-.048-.072-.075-.107A1.171,1.171,0,0,0,14.231,10.373Z" transform="translate(-1.937 -2.128)" fill="#fbd023"/><path d="M13.407,10.4a6.254,6.254,0,0,1-1.669-.379,8.188,8.188,0,0,1-1.069-.477v0l.5.722a4.753,4.753,0,0,0,1.531.418,3.536,3.536,0,0,0,1.116-.1.817.817,0,0,1,.311,0,.9.9,0,0,1,.171.055,1.981,1.981,0,0,0-.7-.224C13.533,10.424,13.471,10.412,13.407,10.4Z" transform="translate(-1.93 -2.08)" fill="#fbd023"/><path d="M10.561,9.51c-.008.019-.02.035-.028.056a2.53,2.53,0,0,1-.4.564l2.8,2.8-1.79-2.58Z" transform="translate(-2.003 -2.085)" fill="#fbd023"/><path d="M9.51,10.562l3.42,2.367-2.8-2.8A2.45,2.45,0,0,1,9.51,10.562Z" transform="translate(-2.088 -2)" fill="#fbd023"/><path d="M11.108,13.267c-.067-.123-.158-.288-.281-.521a2.64,2.64,0,0,1-.315-1.413L9.451,10.6a8.639,8.639,0,0,0,.43,1.156L9.9,11.8a6.951,6.951,0,0,0,1.014,1.582,1.873,1.873,0,0,1,.4.915.165.165,0,0,0,.008-.04,1.248,1.248,0,0,0-.217-.99Z" transform="translate(-2.096 -1.936)" fill="#fbd023"/><path d="M9.818,11.831c-.008-.016-.011-.027-.019-.043-.094-.209-.169-.391-.228-.557s-.118-.331-.169-.492l-.158.864h0a4.766,4.766,0,0,0,.784,1.38,3.6,3.6,0,0,0,.857.723.777.777,0,0,1,.288.355l.011.027a1.879,1.879,0,0,0-.335-.65A6.98,6.98,0,0,1,9.818,11.831Z" transform="translate(-2.125 -1.917)" fill="#fbd023"/><path d="M8.642,10.735v3.957l.742-4.1A2.34,2.34,0,0,1,8.642,10.735Z" transform="translate(-2.207 -1.936)" fill="#fbd023"/><path d="M8.624,14.692V10.735a2.33,2.33,0,0,1-.738-.139Z" transform="translate(-2.31 -1.936)" fill="#fbd023"/><path d="M7.405,11.789a4.741,4.741,0,0,0-.292,1.1c-.032.189-.063.422-.11.73a1.908,1.908,0,0,1-.363.931c.035-.024.07-.051.1-.075a1.421,1.421,0,0,0,.248-.249,1.441,1.441,0,0,0,.23-.552c.035-.134.091-.319.169-.567a2.84,2.84,0,0,1,.426-.845,2.254,2.254,0,0,1,.347-.379l-.228-1.271A8.653,8.653,0,0,0,7.405,11.789Z" transform="translate(-2.481 -1.934)" fill="#fbd023"/><path d="M6.715,14.129a.6.6,0,0,1-.056.169,1.964,1.964,0,0,0,.226-.7c.047-.308.078-.544.109-.734a4.953,4.953,0,0,1,.3-1.128,8.284,8.284,0,0,1,.477-1.07l-.722.5A4.836,4.836,0,0,0,6.624,12.7a3.471,3.471,0,0,0,.1,1.121A.752.752,0,0,1,6.715,14.129Z" transform="translate(-2.485 -1.926)" fill="#fbd023"/><path d="M7.458,10.131l-2.8,2.8,3.417-2.367A2.512,2.512,0,0,1,7.458,10.131Z" transform="translate(-2.751 -2)" fill="#fbd023"/><path d="M6.956,9.51l-.821,1.18-1.55,2.237,2.8-2.8A2.465,2.465,0,0,1,6.956,9.51Z" transform="translate(-2.762 -2.085)" fill="#fbd023"/><path d="M6.142,10.505c.067,0,.115,0,.147,0l.738-1.062c-.139.044-.268.088-.407.134-.228.08-.473.174-.8.321A7,7,0,0,0,4.24,10.919a1.873,1.873,0,0,1-.915.4,1.576,1.576,0,0,0,.477.019,1.443,1.443,0,0,0,.552-.228c.122-.067.292-.163.521-.281A2.765,2.765,0,0,1,6.142,10.505Z" transform="translate(-2.934 -2.094)" fill="#fbd023"/><path d="M4.6,10.024a3.314,3.314,0,0,0-.647.749c-.024.036-.047.072-.075.111a.823.823,0,0,1-.382.3,2.093,2.093,0,0,0,.655-.335,6.976,6.976,0,0,1,1.6-1.03c.327-.149.576-.248.808-.327L6.841,9.4l-.864-.153h0A4.893,4.893,0,0,0,4.6,10.024Z" transform="translate(-2.911 -2.121)" fill="#fbd023"/><path d="M6.942,8.513a2.455,2.455,0,0,1,.131-.631l-4.092.742H6.939C6.939,8.588,6.939,8.549,6.942,8.513Z" transform="translate(-2.981 -2.308)" fill="#fbd023"/><path d="M7.073,9.384a2.336,2.336,0,0,1-.134-.742H2.981l2.849.517Z" transform="translate(-2.981 -2.204)" fill="#fbd023"/><path d="M5.874,7.291h0a9.643,9.643,0,0,1,1.069.473h0l-.5-.722a4.77,4.77,0,0,0-1.53-.418,3.527,3.527,0,0,0-1.117.1.839.839,0,0,1-.311,0,.759.759,0,0,1-.169-.056,1.927,1.927,0,0,0,.7.225A6.806,6.806,0,0,1,5.874,7.291Z" transform="translate(-2.935 -2.482)" fill="#fbd023"/><path d="M3.423,6.987a1.334,1.334,0,0,0,.549.228l.567.171a2.664,2.664,0,0,1,1.223.776l1.271-.232A8.915,8.915,0,0,0,5.866,7.4,7.073,7.073,0,0,0,4.027,7,1.91,1.91,0,0,1,3.1,6.636c.011.019.027.035.04.056A1.21,1.21,0,0,0,3.423,6.987Z" transform="translate(-2.965 -2.478)" fill="#fbd023"/><path d="M6.956,8.078a.5.5,0,0,1,.027-.056,2.572,2.572,0,0,1,.4-.564l-2.8-2.8,2.288,3.3Z" transform="translate(-2.762 -2.748)" fill="#fbd023"/><path d="M8.078,6.952,4.661,4.585l2.8,2.8A2.577,2.577,0,0,1,8.078,6.952Z" transform="translate(-2.751 -2.758)" fill="#fbd023"/><path d="M9.623,7.932a.123.123,0,0,1-.019,0c.019.072.07.3-.072.386l-.013,0a.89.89,0,0,0,.257-.107.552.552,0,0,0-.016-.217C9.705,7.967,9.654,7.943,9.623,7.932Z" transform="translate(-2.087 -2.301)" fill="#fbd023"/><path d="M7.68,8.313c-.147-.086-.091-.315-.072-.386-.007,0-.011,0-.019,0a1.169,1.169,0,0,0-.142.063.613.613,0,0,0-.013.217.89.89,0,0,0,.257.107Z" transform="translate(-2.373 -2.301)" fill="#fbd023"/><path d="M11.162,8.8a2.262,2.262,0,0,0-.142-.73.26.26,0,0,0-.008-.032l0,0L11,8a.089.089,0,0,1-.015-.035.119.119,0,0,1-.016-.032A.161.161,0,0,0,10.95,7.9a2.279,2.279,0,0,0-.418-.616.515.515,0,0,0-.043-.043.228.228,0,0,0-.044-.043,2.111,2.111,0,0,0-.366-.284,1.9,1.9,0,0,0-.3-.158l-.011-.008-.04-.011a2.222,2.222,0,0,0-.639-.158,2.064,2.064,0,0,0-.222-.008,2.32,2.32,0,0,0-.576.072,1.8,1.8,0,0,0-.252.078l-.008,0-.011,0-.011,0a.239.239,0,0,1-.04.016l-.02.013-.011,0a2.761,2.761,0,0,0-.28.15,2.2,2.2,0,0,0-.415.327,2.323,2.323,0,0,0-.418.576,1.2,1.2,0,0,0-.07.15l-.013.027,0,.008-.011.035a2.251,2.251,0,0,0-.15.667c0,.032,0,.067,0,.1v.122a2.387,2.387,0,0,0,.139.73.183.183,0,0,0,.011.028l.016.043c.008.011.008.024.016.035l.011.032a.1.1,0,0,1,.016.035,2.325,2.325,0,0,0,.423.615.337.337,0,0,0,.039.044c.016.016.032.027.048.043a2.02,2.02,0,0,0,.371.284,1.958,1.958,0,0,0,.244.134.277.277,0,0,1,.032.016l.032.011a.171.171,0,0,0,.04.016.271.271,0,0,0,.031.016l.036.011a2.262,2.262,0,0,0,.73.142H8.93a2.286,2.286,0,0,0,.73-.142.221.221,0,0,0,.027-.011h0l.035-.016a.223.223,0,0,0,.04-.016l.027-.011c.011,0,.024-.013.035-.016a1.84,1.84,0,0,0,.241-.134,2,2,0,0,0,.374-.284.537.537,0,0,0,.044-.043l.043-.044a2.117,2.117,0,0,0,.379-.532.919.919,0,0,0,.04-.083.161.161,0,0,0,.016-.035.093.093,0,0,1,.016-.032A.117.117,0,0,1,11,9.727l.013-.035.011-.036a2.262,2.262,0,0,0,.142-.73V8.8Zm-1.956.221a.344.344,0,0,1,.2.292.592.592,0,0,1,.163.07A.6.6,0,0,1,9.7,9.51c0-.008-.028-.016-.04-.019a.427.427,0,0,1-.04-.02c-.032-.011-.059-.024-.086-.035a.793.793,0,0,0-.209-.051.737.737,0,0,0-.193.016.377.377,0,0,1-.265.11A.373.373,0,0,1,8.6,9.4a.775.775,0,0,0-.2-.016.761.761,0,0,0-.2.051c-.032.011-.059.024-.086.035s-.028.013-.04.02-.008,0-.016,0l-.02.008a.908.908,0,0,1,.126-.115.614.614,0,0,1,.166-.07c.043-.244.193-.292.193-.292-.233.351.1.28.131.241-.008.122.131.134.189.13H8.89c.059,0,.2-.008.185-.13C9.115,9.3,9.442,9.375,9.206,9.024ZM8.9,10.3H8.834a1.023,1.023,0,0,1-.41-.067,2.042,2.042,0,0,0-.492-.241,1.037,1.037,0,0,1,.11.008,1.671,1.671,0,0,1,.442.114,1.194,1.194,0,0,0,.382.044,1.2,1.2,0,0,0,.383-.044A1.667,1.667,0,0,1,9.687,10c.072-.008.11-.008.11-.008a2.082,2.082,0,0,0-.489.241A1.032,1.032,0,0,1,8.9,10.3Zm.2.268H9.083a.165.165,0,0,0-.056-.008c-.043,0-.1-.008-.161-.008-.027,0-.059,0-.086,0a.462.462,0,0,1-.075,0c-.048,0-.078.008-.078.008a.447.447,0,0,1,.074-.032.6.6,0,0,1,.075-.016.134.134,0,0,1,.044-.008h.047a.771.771,0,0,1,.091,0,.118.118,0,0,0,.04.008.172.172,0,0,1,.035.013.27.27,0,0,1,.056.024Zm.581-.627a1.748,1.748,0,0,1-.5,0,1.391,1.391,0,0,0-.3.02.113.113,0,0,1-.048,0,1.411,1.411,0,0,0-.3-.02,1.75,1.75,0,0,1-.5,0c-.056,0-.118-.013-.193-.02a2.878,2.878,0,0,0,.5-.11.848.848,0,0,1,.41-.027l.059.016a.221.221,0,0,0,.067,0l.059-.013a.822.822,0,0,1,.414.024,2.881,2.881,0,0,0,.506.11C9.8,9.931,9.738,9.939,9.683,9.944ZM7.178,7.978c-.028,0-.064-.019-.04-.051l0-.008c.008-.011.025-.016.036-.024.07-.039.146-.083.217-.122a.869.869,0,0,1,.671-.142,1.227,1.227,0,0,1,.489.319c.019.019.078.086.024.094s-.131-.086-.166-.11a.99.99,0,0,0-.623-.142,1.29,1.29,0,0,0-.319.067c-.048.019-.1.035-.147.059A.355.355,0,0,1,7.178,7.978Zm.3.367a.513.513,0,0,1,.052.035.385.385,0,0,1,0-.1.2.2,0,0,1,.015-.048c0-.008.008-.043.017-.047-.04.016-.076.039-.111.055a.769.769,0,0,1-.094.051c-.016.008-.043.028-.059.024s-.011-.008,0-.016A1.166,1.166,0,0,1,7.865,8a.616.616,0,0,1,.5.131c.107.09.07.165.07.165a1.256,1.256,0,0,0-.228-.165h0a.426.426,0,0,1-.048.2.41.41,0,0,1-.24.193.4.4,0,0,0,.244-.055.664.664,0,0,0,.126-.091.188.188,0,0,1,.035-.02.067.067,0,0,1,.032,0,.031.031,0,0,1,.016.016.05.05,0,0,1,0,.04.232.232,0,0,1-.07.067.5.5,0,0,1-.182.082A.6.6,0,0,1,7.656,8.5C7.423,8.373,7.45,8.326,7.477,8.346Zm.171,1.7,0-.015a.192.192,0,0,1,0-.044c0-.019.013-.039.02-.063,0-.008.011-.02.016-.032s.011-.019.019-.027a.543.543,0,0,1,.051-.051c.019-.016.035-.028.051-.04a.437.437,0,0,0,.04-.019.037.037,0,0,0,.016,0l-.013.013a.258.258,0,0,0-.027.031.089.089,0,0,0-.019.024c-.008,0-.013.016-.02.019s-.016.02-.024.028-.015.016-.019.024a.337.337,0,0,0-.04.055c-.011.016-.019.035-.027.048A.2.2,0,0,0,7.648,10.05Zm2.442-.015,0,.015a.242.242,0,0,0-.02-.055c-.008-.013-.019-.032-.027-.048A.24.24,0,0,0,10,9.893c-.008-.008-.011-.02-.019-.024s-.016-.02-.024-.028-.011-.015-.019-.019a.127.127,0,0,1-.02-.024c-.011-.011-.019-.024-.027-.031l-.011-.013a.037.037,0,0,0,.016,0,.3.3,0,0,0,.039.019c.016.011.032.024.051.04a.526.526,0,0,1,.048.051.1.1,0,0,1,.019.027.258.258,0,0,0,.02.032.474.474,0,0,1,.019.063Zm.348-1.721c-.02,0-.048-.016-.064-.024s-.059-.031-.094-.051-.067-.039-.107-.055c.008,0,.016.039.016.047a.2.2,0,0,1,.016.048.512.512,0,0,1,0,.1.618.618,0,0,1,.051-.035c.024-.019.055.027-.177.158a.607.607,0,0,1-.469.063.528.528,0,0,1-.178-.082.2.2,0,0,1-.07-.067.045.045,0,0,1,0-.04.026.026,0,0,1,.015-.016.07.07,0,0,1,.032,0,.09.09,0,0,1,.032.02.793.793,0,0,0,.126.091.421.421,0,0,0,.249.055.407.407,0,0,1-.244-.193.487.487,0,0,1-.044-.2h0a1.4,1.4,0,0,0-.228.165s-.032-.075.074-.165A.613.613,0,0,1,9.864,8a1.148,1.148,0,0,1,.573.3C10.444,8.306,10.448,8.314,10.437,8.314Zm.118-.335a.336.336,0,0,1-.147-.059,1.471,1.471,0,0,0-.15-.059,1.266,1.266,0,0,0-.315-.067.994.994,0,0,0-.624.142c-.035.024-.118.123-.165.11s0-.075.024-.094a1.211,1.211,0,0,1,.489-.319.861.861,0,0,1,.666.142c.075.039.15.083.222.122.011.008.027.013.035.024l0,.008C10.614,7.959,10.583,7.978,10.555,7.978Z" transform="translate(-2.49 -2.487)" fill="#fbd023"/></g><path d="M15.743,11.517c-.024-.032-.047-.059-.07-.086a1.271,1.271,0,0,0-.2-.185A1.588,1.588,0,0,0,14.883,11c-.134-.035-.316-.091-.565-.166a2.6,2.6,0,0,1-1.116-.682l3.689-.671-3.861-.7a5.206,5.206,0,0,0,1.136-.666l.083-.064a2.477,2.477,0,0,0,.489-.521c.08-.107.163-.228.257-.363.26-.375.754-.335,1.076-.308l.26.016L16.11,6.74a2.079,2.079,0,0,0-.666-.233,1.525,1.525,0,0,0-.477-.016,1.489,1.489,0,0,0-.589.246c-.122.067-.291.157-.519.275a2.648,2.648,0,0,1-1.275.313l2.138-3.085L11.5,6.475A5.387,5.387,0,0,0,11.841,5.1a3.663,3.663,0,0,0-.1-1.156.667.667,0,0,1,0-.265.42.42,0,0,1,.016-.063,1.544,1.544,0,0,1,.521-.656l.2-.169-.252.064a1.916,1.916,0,0,0-.982.631.97.97,0,0,0-.083.131c-.016.027-.031.055-.043.082A3.375,3.375,0,0,0,11,4.076c-.039.134-.09.319-.169.565a2.644,2.644,0,0,1-.682,1.12L9.762,3.619l-.1-.537L9.482,2.069,9.3,3.083,9.2,3.619,8.784,5.93a5.4,5.4,0,0,0-.73-1.215,3.7,3.7,0,0,0-.888-.749.68.68,0,0,1-.244-.3c0-.016-.013-.032-.016-.047a1.26,1.26,0,0,1-.064-.45c-.106.075-.209.153-.311.236-.008.035-.016.075-.024.11s-.011.072-.011.1a1.144,1.144,0,0,0,0,.374,1.554,1.554,0,0,0,.241.592c.067.123.157.288.28.521a2.6,2.6,0,0,1,.308,1.271L4.988,4.755c-.078.075-.158.155-.228.233L6.475,7.466A5.306,5.306,0,0,0,5.1,7.118a3.922,3.922,0,0,0-1.156.1.592.592,0,0,1-.265,0,1.067,1.067,0,0,1-.537-.335,2.416,2.416,0,0,0-.153.206,2.1,2.1,0,0,0,.181.3,1.421,1.421,0,0,0,.119.146,1.144,1.144,0,0,0,.2.185,1.545,1.545,0,0,0,.592.244c.13.04.315.091.564.171a2.649,2.649,0,0,1,1.116.682L3.083,9.3l-1.014.182,3.866.7a5.077,5.077,0,0,0-1.22.73,2.58,2.58,0,0,0-.492.521l-.178.252a1.318,1.318,0,0,1-.078.11c-.257.375-.749.335-1.073.311l-.26-.024.221.139a1.891,1.891,0,0,0,.624.225,1.649,1.649,0,0,0,.335.035,1.516,1.516,0,0,0,.182-.011,1.6,1.6,0,0,0,.591-.246c.123-.067.292-.157.521-.276a2.632,2.632,0,0,1,1.274-.307L4.239,14.721l3.227-2.24a5.207,5.207,0,0,0-.343,1.381,3.631,3.631,0,0,0,.1,1.151.685.685,0,0,1,0,.268.549.549,0,0,1-.016.056,1.509,1.509,0,0,1-.524.658l-.2.171.252-.064a2.014,2.014,0,0,0,.714-.359,1.341,1.341,0,0,0,.268-.272,1.07,1.07,0,0,0,.088-.134,2.225,2.225,0,0,0,.161-.454c.04-.134.091-.316.169-.565a2.6,2.6,0,0,1,.683-1.12L9.2,15.337l.28,1.554.281-1.554.418-2.309a4.6,4.6,0,0,0,.3.592,6.043,6.043,0,0,0,.431.623,3.654,3.654,0,0,0,.888.75.68.68,0,0,1,.244.3.166.166,0,0,0,.016.043,1.817,1.817,0,0,1,.047.733l-.019.26.134-.224a1.936,1.936,0,0,0,.236-.663.88.88,0,0,0,.013-.107,1.188,1.188,0,0,0,0-.371,1.573,1.573,0,0,0-.241-.592c-.072-.123-.161-.288-.281-.517a2.639,2.639,0,0,1-.307-1.274l3.081,2.138-2.237-3.227a5.214,5.214,0,0,0,1.378.343,3.651,3.651,0,0,0,1.156-.094.664.664,0,0,1,.264,0,1.422,1.422,0,0,1,.714.54l.171.2-.059-.252A2.1,2.1,0,0,0,15.743,11.517Zm-3.976-1.234a2.409,2.409,0,0,0,.134-.742h3.957Zm-.131-.013-.011.036-.013.035a.117.117,0,0,0-.015.035.093.093,0,0,0-.016.032.161.161,0,0,1-.016.035.919.919,0,0,1-.04.083,2.117,2.117,0,0,1-.379.532L11.1,11.1a.537.537,0,0,1-.044.043,2,2,0,0,1-.374.284,1.84,1.84,0,0,1-.241.134c-.011,0-.024.011-.035.016l-.027.011a.223.223,0,0,1-.04.016l-.035.016h0a.221.221,0,0,1-.027.011,2.286,2.286,0,0,1-.73.142H9.419a2.262,2.262,0,0,1-.73-.142l-.036-.011a.271.271,0,0,1-.031-.016.171.171,0,0,1-.04-.016l-.032-.011a.277.277,0,0,0-.032-.016,1.958,1.958,0,0,1-.244-.134,2.02,2.02,0,0,1-.371-.284c-.016-.016-.032-.027-.048-.043a.337.337,0,0,1-.039-.044,2.325,2.325,0,0,1-.423-.615.1.1,0,0,0-.016-.035l-.011-.032c-.008-.011-.008-.024-.016-.035L7.335,10.3a.183.183,0,0,1-.011-.028,2.387,2.387,0,0,1-.139-.73V9.419c0-.032,0-.067,0-.1a2.251,2.251,0,0,1,.15-.667l.011-.035,0-.008.013-.027a1.2,1.2,0,0,1,.07-.15,2.323,2.323,0,0,1,.418-.576,2.2,2.2,0,0,1,.415-.327,2.761,2.761,0,0,1,.28-.15l.011,0,.02-.013a.239.239,0,0,0,.04-.016l.011,0,.011,0,.008,0a1.8,1.8,0,0,1,.252-.078,2.32,2.32,0,0,1,.576-.072,2.064,2.064,0,0,1,.222.008,2.222,2.222,0,0,1,.639.158l.04.011.011.008a1.9,1.9,0,0,1,.3.158,2.111,2.111,0,0,1,.366.284.228.228,0,0,1,.044.043.515.515,0,0,1,.043.043,2.279,2.279,0,0,1,.418.616.161.161,0,0,1,.016.035.119.119,0,0,0,.016.032.089.089,0,0,0,.015.035l.013.035,0,0a.26.26,0,0,1,.008.032,2.262,2.262,0,0,1,.142.73v.122A2.262,2.262,0,0,1,11.636,10.27Zm4.222-.851H11.9a2.362,2.362,0,0,0-.134-.742Zm-.966-2.325c-.115.166-.214.308-.308.434a2.365,2.365,0,0,1-.415.423c-.023.023-.051.043-.074.063a4.718,4.718,0,0,1-1.3.722l-.867-.153c.1-.032.189-.064.288-.094l.2-.075c.178-.067.372-.147.6-.253a.567.567,0,0,0,.1-.047l.1-.043a1.015,1.015,0,0,1,.094-.044l.158-.086c.027-.016.055-.032.078-.043.064-.04.131-.083.2-.126.027-.019.051-.04.083-.059a.193.193,0,0,1,.032-.02.55.55,0,0,0,.07-.051c.028-.019.064-.043.1-.067s.039-.027.059-.043c.146-.107.319-.233.537-.4a2.052,2.052,0,0,1,.65-.335A.833.833,0,0,0,14.891,7.094Zm-.979.028c.233-.123.4-.214.521-.281a1.481,1.481,0,0,1,.552-.228,1.4,1.4,0,0,1,.438.011c.013,0,.027,0,.04.008a1.886,1.886,0,0,0-.915.4c-.289.217-.5.375-.667.5a4.905,4.905,0,0,1-.442.284c-.019.011-.035.019-.055.032-.051.027-.1.055-.163.083l-.122.059c-.04.019-.083.043-.131.063-.323.147-.572.241-.8.324-.134.043-.265.086-.4.126l.674-.971.059-.086h0A2.7,2.7,0,0,0,13.912,7.123Zm-1.622.406-.626.9a2.4,2.4,0,0,0-.431-.62l.289-.284,2.509-2.513Zm1.654-2.6-2.8,2.8c-.032-.032-.059-.056-.091-.083l-.011-.008-.016-.013,0-.008c-.035-.027-.067-.051-.1-.074a.057.057,0,0,1-.015-.013l-.008,0c-.028-.024-.056-.044-.083-.064l-.075-.048-.013,0v0a.286.286,0,0,1-.055-.032l-.013,0a1.416,1.416,0,0,0-.138-.07l.84-.584ZM11.62,3.966a3.675,3.675,0,0,1,.1,1.121,4.891,4.891,0,0,1-.422,1.53l-.722.5a9.148,9.148,0,0,0,.477-1.07,6.021,6.021,0,0,0,.359-1.538c.011-.1.027-.206.043-.324.008-.056.019-.11.031-.161a.864.864,0,0,1,.036-.147v0a1.158,1.158,0,0,1,.043-.134.779.779,0,0,1,.039-.1c0-.008,0-.011.008-.019.02-.048.044-.091.067-.134a.969.969,0,0,0-.043.134c0,.011-.008.023-.011.039A.8.8,0,0,0,11.62,3.966Zm-.671.71c.08-.249.131-.431.171-.565a3.084,3.084,0,0,1,.118-.363.554.554,0,0,1,.07-.13c.013-.02.024-.036.04-.059a1.549,1.549,0,0,1,.351-.324,1.635,1.635,0,0,0-.222.383c-.015.035-.027.075-.039.11s-.032.091-.043.134a2.24,2.24,0,0,0-.06.3c-.019.118-.035.225-.047.324A5.793,5.793,0,0,1,10.933,6,8.379,8.379,0,0,1,10.4,7.174L10.176,5.9A2.666,2.666,0,0,0,10.949,4.677Zm-1.4-1.571.091.514L10.283,7.2a2.347,2.347,0,0,0-.568-.126l-.169-.013Zm-.217.514.091-.514V7.059a2.5,2.5,0,0,0-.544.08,1.359,1.359,0,0,0-.193.059ZM7.1,4.068a3.579,3.579,0,0,1,.856.722A4.764,4.764,0,0,1,8.74,6.171l-.158.864a8.992,8.992,0,0,0-.418-1.092,6.7,6.7,0,0,0-1-1.563.441.441,0,0,0-.031-.043,1.988,1.988,0,0,1-.332-.65c0,.011,0,.015.011.027A.8.8,0,0,0,7.1,4.068Zm.027.979c-.122-.233-.217-.4-.28-.521a1.362,1.362,0,0,1-.23-.552A.889.889,0,0,1,6.6,3.8c0-.032,0-.067.007-.1a.626.626,0,0,1,.008-.075.565.565,0,0,1,.013-.083.118.118,0,0,1,.008-.04.654.654,0,0,0,.016.094c0,.008,0,.02,0,.028a.641.641,0,0,0,.02.086.821.821,0,0,0,.027.1c.013.035.027.075.043.11s.032.078.051.118.043.078.067.123l0,.011c.019.027.035.059.055.091l.028.04.078.114a.443.443,0,0,1,.032.04,6.656,6.656,0,0,1,.986,1.543A8.451,8.451,0,0,1,8.5,7.2L7.442,6.46a1.385,1.385,0,0,0,.008-.15A2.8,2.8,0,0,0,7.126,5.047ZM8.432,7.3c-.056.028-.11.059-.166.091s-.083.051-.122.075l0,0a.462.462,0,0,0-.082.059l0,0a.048.048,0,0,0-.016.013.9.9,0,0,0-.1.074l-.008.008-.011.013-.013.008c-.031.027-.063.051-.094.083l-.2-.2-2.6-2.6Zm-3.5-2.28L7.442,7.529l.284.284a2.469,2.469,0,0,0-.4.564c-.008.016-.019.036-.027.056l-.083-.118-.548-.785ZM3.658,7.335a.82.82,0,0,0,.308,0,3.561,3.561,0,0,1,1.121-.1c.075.008.15.02.225.032.055.008.106.019.161.027l.016,0a.524.524,0,0,0,.07.016l.072.011c.016,0,.027,0,.043.008a.285.285,0,0,1,.059.016,1.33,1.33,0,0,1,.155.04c.007,0,.015,0,.023,0a.107.107,0,0,0,.032.008c.059.019.118.035.174.051s.118.04.177.064l0,0a2.216,2.216,0,0,1,.319.139l.5.717c-.15-.075-.3-.15-.469-.228S6.286,8,6.05,7.912a4.772,4.772,0,0,0-.746-.23c-.115-.023-.241-.043-.4-.07-.032,0-.067-.011-.107-.016s-.055-.011-.086-.016a1.5,1.5,0,0,0-.158-.019c-.063-.013-.134-.019-.209-.032L4.187,7.5a1.927,1.927,0,0,1-.7-.225A.759.759,0,0,0,3.658,7.335Zm1.022.679c-.248-.083-.434-.134-.567-.174a1.382,1.382,0,0,1-.549-.228.422.422,0,0,1-.07-.056c-.013-.008-.02-.019-.032-.027a1.911,1.911,0,0,1-.185-.213.455.455,0,0,0-.04-.056c.027.019.051.04.078.059s.051.032.08.051a1.108,1.108,0,0,0,.126.067.843.843,0,0,0,.094.04c.035.016.075.032.118.048l0,0,.1.027.086.024c.075.016.158.032.244.048a7.073,7.073,0,0,1,1.839.4,9.562,9.562,0,0,1,1.167.53L5.9,8.787A2.64,2.64,0,0,0,4.68,8.014ZM7.2,8.677a2.449,2.449,0,0,0-.131.635c0,.032,0,.07,0,.107H3.106Zm-4.092.864H7.064a2.376,2.376,0,0,0,.134.742l-1.244-.225Zm.967,2.325a1.245,1.245,0,0,1,.07-.107c.083-.123.163-.228.236-.327a1.874,1.874,0,0,1,.167-.193.6.6,0,0,1,.078-.083A1.475,1.475,0,0,1,4.79,11a4.766,4.766,0,0,1,1.381-.781l.864.153-.284.094c-.232.08-.481.178-.808.327l-.221.1c-.044.023-.083.043-.119.059l0,0-.131.072a1.029,1.029,0,0,0-.114.067c-.035.023-.072.043-.107.07a.309.309,0,0,0-.056.035l-.019.013c-.032.019-.059.039-.091.059-.063.047-.134.094-.209.15s-.15.11-.232.173c-.024.016-.048.036-.072.052-.07.051-.146.11-.228.173a2,2,0,0,1-.655.335A.827.827,0,0,0,4.073,11.865Zm2.24-.351a2.765,2.765,0,0,0-1.266.323c-.228.118-.4.214-.517.281a1.475,1.475,0,0,1-.556.228,1.576,1.576,0,0,1-.477-.019,1.9,1.9,0,0,0,.92-.4c.122-.094.232-.174.327-.244.024-.019.047-.035.07-.051s.056-.043.083-.064a.591.591,0,0,1,.056-.039L5,11.49c.016-.013.035-.024.051-.035l.027-.024c.123-.083.222-.15.316-.209.027-.02.056-.032.078-.048a2.944,2.944,0,0,1,.265-.142l.118-.059.134-.063c.319-.147.568-.241.8-.321.139-.047.268-.09.407-.134l-.675.975-.063.086C6.428,11.517,6.381,11.514,6.314,11.514Zm.166.193.193-.276.627-.9a2.379,2.379,0,0,0,.426.62l-.284.284L4.929,13.944ZM5.02,14.031l2.6-2.6.2-.2c.043.043.09.083.138.123a.946.946,0,0,0,.1.075l.008,0a.667.667,0,0,0,.083.064.656.656,0,0,0,.075.047l.011,0v0a.3.3,0,0,1,.056.032c.048.027.1.051.146.075Zm2.323.963a3.453,3.453,0,0,1-.1-1.116,4.831,4.831,0,0,1,.423-1.531l.722-.5a8.284,8.284,0,0,0-.477,1.07,4.953,4.953,0,0,0-.3,1.128c-.031.19-.063.426-.109.734,0,.043-.013.086-.02.13a1.288,1.288,0,0,1-.032.131v.011l-.024.072a.455.455,0,0,1-.016.051c-.019.059-.043.115-.063.166s-.048.094-.072.138a.633.633,0,0,0,.048-.138L7.34,15.3A.9.9,0,0,0,7.343,14.994Zm1.1-1.563a3.048,3.048,0,0,0-.426.849c-.078.248-.134.433-.174.567-.008.032-.016.064-.023.088,0,.008,0,.011,0,.019-.011.032-.019.064-.027.091l0,.011-.025.064c-.007.024-.015.043-.019.063a.846.846,0,0,1-.083.155.515.515,0,0,1-.043.063,1.2,1.2,0,0,1-.244.249,1.242,1.242,0,0,1-.107.075.887.887,0,0,0,.115-.169.919.919,0,0,0,.055-.1.759.759,0,0,0,.056-.118c.011-.035.027-.072.04-.11s.031-.083.043-.131a2.864,2.864,0,0,0,.059-.3c.048-.311.078-.544.11-.733a4.741,4.741,0,0,1,.292-1.1,8.852,8.852,0,0,1,.529-1.172l.228,1.271A2.16,2.16,0,0,0,8.44,13.431Zm.979,2.427-.091-.521-.651-3.57a2.371,2.371,0,0,0,.742.13Zm.217-.521-.091.521V11.9a2.326,2.326,0,0,0,.738-.13Zm2.229-.446a3.6,3.6,0,0,1-.857-.723,4.766,4.766,0,0,1-.784-1.38l.158-.864c.051.161.1.319.165.492s.139.348.233.557c.008.016.011.027.019.043a6.98,6.98,0,0,0,1.03,1.606,1.879,1.879,0,0,1,.335.65l-.011-.027A.777.777,0,0,0,11.865,14.891Zm-.028-.979c.123.233.214.4.281.521a1.472,1.472,0,0,1,.228.552.733.733,0,0,1,.016.169.95.95,0,0,1-.008.11v.013a.368.368,0,0,1-.008.059.749.749,0,0,1-.011.086.165.165,0,0,1-.008.04c0-.032-.008-.064-.016-.1,0-.008,0-.016,0-.027-.008-.027-.011-.056-.019-.088a.687.687,0,0,1-.027-.094c-.016-.04-.028-.075-.044-.11s-.035-.078-.055-.118A.9.9,0,0,0,12.1,14.8c-.011-.019-.027-.043-.043-.067l-.008-.011,0-.008a.021.021,0,0,0-.008-.016L12,14.658l0-.013c-.024-.031-.048-.063-.072-.1a7.121,7.121,0,0,1-1.017-1.582.216.216,0,0,0-.02-.048,8.847,8.847,0,0,1-.43-1.151l1.062.733A2.64,2.64,0,0,0,11.837,13.912Zm-1.31-2.253c.051-.024.1-.048.15-.075a.286.286,0,0,1,.055-.032v0l.013,0c.024-.015.051-.031.075-.047s.055-.04.083-.064l.008,0a1.913,1.913,0,0,0,.236-.2l.2.2,2.6,2.6Zm3.5,2.285-2.509-2.513-.289-.284a2.409,2.409,0,0,0,.4-.564c.008-.02.02-.036.028-.056l.58.837.047.067Zm1.274-2.32a.817.817,0,0,0-.311,0,3.536,3.536,0,0,1-1.116.1c-.08-.008-.155-.02-.225-.032s-.11-.019-.163-.027a.9.9,0,0,1-.1-.02l-.161-.035c-.064-.016-.131-.032-.193-.051s-.1-.027-.15-.043l-.07-.024c-.052-.016-.1-.032-.142-.048l0,0a3.214,3.214,0,0,1-.319-.134l-.5-.722c.149.075.3.149.468.228s.364.158.6.244a6.254,6.254,0,0,0,1.669.379l.04,0,.153.024a1.957,1.957,0,0,1,.7.224A.83.83,0,0,0,15.3,11.624Zm.34.016a.873.873,0,0,0-.08-.051.774.774,0,0,0-.118-.064.434.434,0,0,0-.083-.04c-.011,0-.024-.011-.035-.016l-.094-.035-.008,0h0c-.04-.013-.083-.024-.126-.035s-.078-.02-.118-.032c-.059-.013-.118-.024-.182-.032s-.134-.019-.193-.027a6.17,6.17,0,0,1-1.645-.372A8.326,8.326,0,0,1,11.79,10.4l1.27-.228a2.664,2.664,0,0,0,1.223.776l.564.171a1.345,1.345,0,0,1,.552.228.945.945,0,0,1,.1.083.7.7,0,0,1,.055.059,1.1,1.1,0,0,1,.091.1,1.052,1.052,0,0,1,.075.107C15.7,11.679,15.672,11.66,15.645,11.64Z" transform="translate(-2.069 -2.069)"/><path d="M9.672,9.545a.076.076,0,0,1-.016-.032c-.008-.008-.016-.019-.024-.027a.263.263,0,0,0-.048-.051A.29.29,0,0,0,9.534,9.4a.238.238,0,0,0-.039-.019.025.025,0,0,0-.016-.008l.011.013a.265.265,0,0,0,.027.031c.008.008.013.016.02.024s.011.013.019.019.016.02.024.028.011.016.019.024a.24.24,0,0,1,.04.055.341.341,0,0,1,.027.048.242.242,0,0,1,.02.055l0-.015V9.607A.474.474,0,0,0,9.672,9.545Z" transform="translate(-1.056 -1.071)"/><path d="M8.671,9.891h.064a1.032,1.032,0,0,0,.41-.067,1.9,1.9,0,0,1,.493-.238s-.043,0-.115,0a1.667,1.667,0,0,0-.438.114,1.218,1.218,0,0,1-.383.044A1.184,1.184,0,0,1,8.32,9.7a1.684,1.684,0,0,0-.439-.114c-.07,0-.114,0-.114,0a1.915,1.915,0,0,1,.492.238A1.031,1.031,0,0,0,8.671,9.891Z" transform="translate(-1.29 -1.041)"/><path d="M10.111,8.126a1.148,1.148,0,0,0-.573-.3.613.613,0,0,0-.5.131c-.106.09-.074.165-.074.165a1.4,1.4,0,0,1,.228-.165h0a.487.487,0,0,0,.044.2.407.407,0,0,0,.244.193A.421.421,0,0,1,9.234,8.3a.793.793,0,0,1-.126-.091.09.09,0,0,0-.032-.02.07.07,0,0,0-.032,0,.026.026,0,0,0-.015.016.045.045,0,0,0,0,.04.2.2,0,0,0,.07.067.528.528,0,0,0,.178.082.607.607,0,0,0,.469-.063c.232-.131.2-.177.177-.158a.618.618,0,0,0-.051.035.512.512,0,0,0,0-.1.2.2,0,0,0-.016-.048c0-.008-.008-.043-.016-.047.04.016.072.039.107.055s.067.036.094.051.043.028.064.024S10.117,8.134,10.111,8.126Zm-.257.1a.886.886,0,0,1-.257.11l.013,0c.142-.086.091-.315.072-.386a.023.023,0,0,0,.015,0,1.252,1.252,0,0,1,.142.063A.611.611,0,0,1,9.854,8.221Z" transform="translate(-1.127 -1.282)"/><path d="M8.847,7.921c.047.013.126-.086.165-.11a.994.994,0,0,1,.624-.142,1.266,1.266,0,0,1,.315.067l.15.059a.384.384,0,0,0,.147.059c.027,0,.059-.019.039-.051l0-.008a.276.276,0,0,0-.035-.024c-.072-.039-.147-.083-.222-.122A.905.905,0,0,0,9.355,7.5a1.289,1.289,0,0,0-.484.324C8.85,7.846,8.791,7.913,8.847,7.921Z" transform="translate(-1.146 -1.329)"/><path d="M8.392,9.554a1.411,1.411,0,0,1,.3.02.113.113,0,0,0,.048,0,1.391,1.391,0,0,1,.3-.02,1.748,1.748,0,0,0,.5,0c.055,0,.118-.013.193-.02a2.881,2.881,0,0,1-.506-.11A.822.822,0,0,0,8.8,9.4l-.059.013a.221.221,0,0,1-.067,0L8.617,9.4a.828.828,0,0,0-.415.024,2.781,2.781,0,0,1-.5.11c.075.008.138.016.193.02A1.741,1.741,0,0,0,8.392,9.554Z" transform="translate(-1.299 -1.068)"/><path d="M8.836,10.092a.058.058,0,0,0,.019,0l-.015-.013-.056-.019a.172.172,0,0,0-.035-.013.145.145,0,0,1-.04-.008.771.771,0,0,0-.091,0H8.572a.152.152,0,0,0-.044.008c-.027,0-.055.011-.078.016a.489.489,0,0,0-.07.032s.031,0,.078-.008c.019,0,.048,0,.075,0s.059,0,.086,0c.059,0,.118,0,.161.008C8.8,10.089,8.825,10.092,8.836,10.092Z" transform="translate(-1.206 -0.979)"/><path d="M8.347,8.729s-.15.048-.193.292a.614.614,0,0,0-.166.07.851.851,0,0,0-.134.123C7.862,9.2,7.886,9.2,7.9,9.2s.027-.013.04-.02.055-.024.086-.035a.761.761,0,0,1,.2-.051.639.639,0,0,1,.2.016.364.364,0,0,0,.264.11.377.377,0,0,0,.265-.11.616.616,0,0,1,.193-.016.793.793,0,0,1,.209.051c.027.011.055.024.086.035a.427.427,0,0,0,.04.02c.008,0,.035.007.043.019a.8.8,0,0,0-.134-.123.742.742,0,0,0-.166-.07c-.043-.244-.193-.292-.193-.292.233.351-.094.28-.134.241.013.122-.126.13-.185.13H8.667c-.058,0-.2-.008-.189-.13C8.443,9.009,8.114,9.08,8.347,8.729Z" transform="translate(-1.278 -1.158)"/><path d="M7.672,9.4a.2.2,0,0,0-.051.036.3.3,0,0,0-.048.051c-.008.008-.016.019-.023.027a.165.165,0,0,0-.016.032.234.234,0,0,0-.02.063.192.192,0,0,0,0,.044c0,.011,0,.015,0,.015a.2.2,0,0,1,.019-.055.341.341,0,0,1,.027-.048.337.337,0,0,1,.04-.055.119.119,0,0,1,.019-.024c.008-.008.016-.02.024-.028a.16.16,0,0,1,.02-.019c.008-.008.011-.016.019-.024s.02-.024.027-.031l.013-.013a.025.025,0,0,0-.016.008A.14.14,0,0,0,7.672,9.4Z" transform="translate(-1.325 -1.071)"/><path d="M8.077,8.158a.426.426,0,0,0,.048-.2h0a1.256,1.256,0,0,1,.228.165s.036-.075-.07-.165a.616.616,0,0,0-.5-.131,1.166,1.166,0,0,0-.573.3c-.007.008-.007.016,0,.016s.043-.016.059-.024a.769.769,0,0,0,.094-.051c.035-.016.072-.039.111-.055-.009,0-.017.039-.017.047a.2.2,0,0,0-.015.048.385.385,0,0,0,0,.1.513.513,0,0,0-.052-.035c-.027-.019-.055.027.178.158a.6.6,0,0,0,.465.063.5.5,0,0,0,.182-.082.232.232,0,0,0,.07-.067.05.05,0,0,0,0-.04.031.031,0,0,0-.016-.016.067.067,0,0,0-.032,0,.188.188,0,0,0-.035.02.664.664,0,0,1-.126.091.4.4,0,0,1-.244.055A.41.41,0,0,0,8.077,8.158Zm-.612.064a.6.6,0,0,1,.013-.214,1.46,1.46,0,0,1,.142-.063.029.029,0,0,0,.019,0c-.019.072-.075.3.072.386l.008,0A.9.9,0,0,1,7.466,8.221Z" transform="translate(-1.367 -1.282)"/><path d="M7.4,7.736a1.258,1.258,0,0,1,.319-.067.99.99,0,0,1,.623.142c.035.024.118.123.166.11s0-.075-.024-.094A1.288,1.288,0,0,0,8,7.5a.91.91,0,0,0-.671.147c-.072.039-.147.083-.217.122a.088.088,0,0,0-.036.024l0,.008c-.019.032.011.051.04.051a.371.371,0,0,0,.142-.059C7.3,7.775,7.35,7.755,7.4,7.736Z" transform="translate(-1.386 -1.329)"/></g></g></g></svg>