<svg xmlns="http://www.w3.org/2000/svg" xmlns:xlink="http://www.w3.org/1999/xlink" width="35.001" height="35.001" viewBox="0 0 35.001 35.001">
  <defs>
    <clipPath id="clip-path">
      <path id="Path_10297" data-name="Path 10297" d="M141.781,193.726a17.5,17.5,0,1,0,17.5-17.5,17.5,17.5,0,0,0-17.5,17.5" fill="none"/>
    </clipPath>
  </defs>
  <g id="Eswatini" transform="translate(-431.844 -944.225)">
    <g id="Group_10795" data-name="Group 10795" transform="translate(290.063 768)" clip-path="url(#clip-path)">
      <rect id="Rectangle_353" data-name="Rectangle 353" width="59.994" height="35" transform="translate(130.048 176.225)" fill="#4a5ca4"/>
      <rect id="Rectangle_354" data-name="Rectangle 354" width="59.994" height="22.514" transform="translate(130.048 182.468)" fill="#f4d729"/>
      <rect id="Rectangle_355" data-name="Rectangle 355" width="59.994" height="17.493" transform="translate(130.048 184.975)" fill="#a01a23"/>
      <path id="Path_10261" data-name="Path 10261" d="M139.4,193.348H181.16a.374.374,0,0,1,0,.747H139.4a.374.374,0,0,1,0-.747" fill="#f4d729" fill-rule="evenodd"/>
      <path id="Path_10262" data-name="Path 10262" d="M181.16,194.144H139.4a.423.423,0,0,1,0-.845H181.16a.423.423,0,0,1,0,.845M139.4,193.4a.321.321,0,0,0-.319.321.328.328,0,0,0,.319.335H181.16a.331.331,0,0,0,.322-.335.324.324,0,0,0-.322-.321Z"/>
      <path id="Path_10263" data-name="Path 10263" d="M176.919,189.731l-2.123.747,2.123.74,2.128-.74Z" fill="#fff" fill-rule="evenodd"/>
      <path id="Path_10264" data-name="Path 10264" d="M176.919,191.274l-2.247-.8,2.233-.8,2.266.8Zm-2-.8,2,.705,2-.705-2.017-.712Z"/>
      <path id="Path_10265" data-name="Path 10265" d="M144.816,190.22h30.71a.266.266,0,0,1,.269.258.259.259,0,0,1-.269.245h-30.71a.262.262,0,0,1-.271-.245.268.268,0,0,1,.271-.258" fill="#f4d729" fill-rule="evenodd"/>
      <path id="Path_10266" data-name="Path 10266" d="M175.526,190.765h-30.71a.294.294,0,1,1,0-.587h30.71a.294.294,0,1,1,0,.587m-30.71-.5a.2.2,0,1,0,0,.4h30.71a.2.2,0,1,0,0-.4Z"/>
      <path id="Path_10267" data-name="Path 10267" d="M174.546,190.764v-.091a.2.2,0,1,0,0-.4v-.091a.294.294,0,1,1,0,.587m.5,0v-.091a.2.2,0,1,0,0-.4v-.091a.294.294,0,1,1,0,.587m-.25,0v-.091a.222.222,0,0,0,.2-.2.224.224,0,0,0-.2-.21v-.091a.294.294,0,1,1,0,.587"/>
      <path id="Path_10268" data-name="Path 10268" d="M174.922,191.218l-2.128.761,2.128.747,2.126-.747Z" fill="#fff" fill-rule="evenodd"/>
      <path id="Path_10269" data-name="Path 10269" d="M174.922,192.768l-2.252-.789,2.24-.789,2.258.789Zm-2-.8,2,.705,2-.7-2.01-.712Z"/>
      <path id="Path_10270" data-name="Path 10270" d="M142.817,191.728h30.709a.246.246,0,1,1,0,.489H142.817a.246.246,0,1,1,0-.489" fill="#f4d729" fill-rule="evenodd"/>
      <path id="Path_10271" data-name="Path 10271" d="M173.526,192.266H142.817a.294.294,0,1,1,0-.587h30.709a.294.294,0,1,1,0,.587m-30.709-.5a.215.215,0,0,0-.225.216.21.21,0,0,0,.225.2h30.709a.211.211,0,0,0,.226-.2.223.223,0,0,0-.226-.216Z"/>
      <path id="Path_10272" data-name="Path 10272" d="M173.044,192.266v-.091a.219.219,0,0,0,.209-.2.233.233,0,0,0-.209-.217v-.084a.294.294,0,1,1,0,.587m-.25,0v-.091a.218.218,0,0,0,.208-.2.232.232,0,0,0-.208-.217v-.084a.294.294,0,1,1,0,.587m-.246,0v-.091a.222.222,0,0,0,.206-.2.237.237,0,0,0-.206-.217v-.084a.294.294,0,0,1,0,.587"/>
      <path id="Path_10273" data-name="Path 10273" d="M178.54,193.425c-.381.656.293-.216,1.924.88a1.565,1.565,0,0,1,.564,1.124c-.072-.063-.133-.174-.213-.244-.121.112.11.663.148.915-.258-.133-.234-.21-.318-.391a4.051,4.051,0,0,0,.06,1.033c-.2-.063-.192-.23-.294-.258.07.258-.064.537-.028.824a3.843,3.843,0,0,0-.3-.259c-.006.14-.224.5-.231.629a.353.353,0,0,1-.141-.224,4.214,4.214,0,0,0-.59.908c-.341-.3-1.212-1.033-1.325-1.417-.1.223-.247.286-.529.454-.117-.615-.538-1.306-.315-1.83a3.5,3.5,0,0,0-.45.314,3.622,3.622,0,0,1,2.039-2.458" fill="#485da4" fill-rule="evenodd"/>
      <path id="Path_10274" data-name="Path 10274" d="M179.141,198.425l-.136-.111a5.157,5.157,0,0,1-1.245-1.355c-.038.223-.188.3-.457.454l-.038.021-.035-.021a5.241,5.241,0,0,0-.173-.615,1.824,1.824,0,0,1-.138-1.243,1.814,1.814,0,0,1-.393.342,3.435,3.435,0,0,1,2-2.5c.011.1-.068.238-.054.266,0,0,.009.014.084.014l.185-.007a2.987,2.987,0,0,1,1.742.607,1.607,1.607,0,0,1,.582,1.153.228.228,0,0,1-.173-.112c-.032-.042-.065-.07-.1-.112a2.181,2.181,0,0,0,.119.559c.037.125.068.251.082.328-.222-.063-.276-.126-.314-.21,0,.028,0,.077,0,.119a2.079,2.079,0,0,0,.054.726.253.253,0,0,1-.259-.132c-.026-.042-.041-.077-.071-.084a.566.566,0,0,1,.035.405,1.435,1.435,0,0,0-.023.384,1.408,1.408,0,0,1-.288-.168l-.065-.062c.049.062-.007.174-.064.307a1.424,1.424,0,0,0-.114.3.27.27,0,0,1-.207-.209,8.67,8.67,0,0,0-.528.908Zm-1.377-1.494a6.4,6.4,0,0,0,1.287,1.327l.048.049a5.136,5.136,0,0,1,.584-.873c.075.07.1.16.185.209-.044-.042.008-.16.068-.293a1.21,1.21,0,0,0,.113-.3l.119.028c.068.055.152.125.237.2a.516.516,0,0,1-.036-.37.944.944,0,0,0,.01-.412.111.111,0,0,1,.152.063.315.315,0,0,0,.178.147c-.11-.112-.1-.447-.1-.706,0-.119,0-.216,0-.286l.1.084a.45.45,0,0,0,.26.272.728.728,0,0,1-.131-.286c-.075-.273-.148-.531-.057-.629a.383.383,0,0,1,.155.119.721.721,0,0,0,.107.119,1.817,1.817,0,0,0-.606-1.062,2.885,2.885,0,0,0-1.7-.607l-.185.007c-.061,0-.117-.007-.14-.042s0-.112.094-.28a3.847,3.847,0,0,0-1.979,2.472,1.368,1.368,0,0,1,.4-.342,2.33,2.33,0,0,0,.181,1.243,4.782,4.782,0,0,1,.182.615c.239-.189.375-.259.466-.468"/>
      <path id="Path_10275" data-name="Path 10275" d="M177.126,196.679c.159-.321.306-.419.4-.621.181-.357.207-.636.364-.6s.158.189-.043.545a1.553,1.553,0,0,1-.722.677" fill="#96191c" fill-rule="evenodd"/>
      <path id="Path_10276" data-name="Path 10276" d="M178.189,197.419c-.019-.23.052-.335.04-.489-.024-.272-.134-.461.012-.475s.212.077.212.357-.044.342-.264.607" fill="#96191c" fill-rule="evenodd"/>
      <path id="Path_10277" data-name="Path 10277" d="M179,197.894c-.065-.328-.016-.482-.058-.691-.071-.384-.207-.636-.075-.678s.215.091.266.475a1.374,1.374,0,0,1-.133.894" fill="#96191c" fill-rule="evenodd"/>
      <path id="Path_10278" data-name="Path 10278" d="M179.838,195.548c-.2-.147-.314-.161-.44-.258-.223-.161-.339-.349-.408-.252s-.023.189.213.336a.845.845,0,0,0,.635.174" fill="#96191c" fill-rule="evenodd"/>
      <path id="Path_10279" data-name="Path 10279" d="M179.7,196.665c-.1-.223-.213-.272-.279-.419-.119-.237-.119-.454-.248-.391s-.14.161,0,.391.21.279.531.419" fill="#96191c" fill-rule="evenodd"/>
      <path id="Path_10280" data-name="Path 10280" d="M140.862,194.061c-.018-.189.024-.216-.094-.363.169.077.176.265.387.126.072-.035.107-.035.014-.252.217.014.929.252,1.041.259.3.014.843-.308,1.222.09.363.363.244.754.244,1.257-.148-.07-.078-.1-.23-.286a8.584,8.584,0,0,1-.007,1.718c-.06-.112-.053-.07-.108-.182-.156.433-.344.517-.344,1.027-.054-.2,0-.154-.065-.259-.148.322-1.157.6-.772.936-.349-.209-.5-.181-.661-.37a.662.662,0,0,0-.189.237c-.616-.286-.394-.893-.88-1.3a2.8,2.8,0,0,0-.138.433,7.352,7.352,0,0,0-.23-.922c-.1.153-.091.1-.26.328-.073-.468-.191-.573-.143-.887-.18.126-.063.07-.246.238.174-1.216.925-2.109,1.459-1.823" fill="#485da4" fill-rule="evenodd"/>
      <path id="Path_10281" data-name="Path 10281" d="M142.129,198.167a1.8,1.8,0,0,0-.344-.168.716.716,0,0,1-.333-.216.689.689,0,0,1-.11.237.887.887,0,0,1-.6-.691,1.285,1.285,0,0,0-.356-.6.244.244,0,0,1,0,.168,2.1,2.1,0,0,1-.067.244l-.052.14-.033-.14c-.035-.146-.061-.265-.082-.363a4.612,4.612,0,0,0-.122-.475.518.518,0,0,1-.056.07,1.224,1.224,0,0,0-.154.2l-.065.09-.015-.118a3.608,3.608,0,0,0-.1-.419,1.22,1.22,0,0,1-.058-.384.216.216,0,0,0-.035.042.7.7,0,0,1-.127.132l-.089.084.015-.119c.163-1.145.887-2.088,1.458-1.885a.352.352,0,0,1,0-.056.264.264,0,0,0-.081-.209l-.115-.133.166.07a.379.379,0,0,1,.148.1c.072.07.1.077.2.021.059-.035.07-.042,0-.195l-.03-.063h.07a4.743,4.743,0,0,1,.675.161c.161.042.327.1.369.1.07-.007.194-.028.3-.048a1,1,0,0,1,.954.153,1.123,1.123,0,0,1,.263.985c-.007.1-.009.195-.009.3v.07l-.066-.028a.249.249,0,0,1-.129-.119,6.589,6.589,0,0,1-.016.978c-.014.2-.024.377-.024.531v.181l-.086-.16a.68.68,0,0,0-.052-.084c0-.007,0-.014-.009-.021a2.635,2.635,0,0,1-.133.279,1.233,1.233,0,0,0-.171.65v.321l-.089-.308a.651.651,0,0,1-.031-.174v-.007a1.5,1.5,0,0,1-.395.307c-.2.126-.4.259-.408.37,0,.042.019.077.07.126Zm-.667-.447a1.131,1.131,0,0,0,.358.195c.058.028.124.056.2.091a.109.109,0,0,1,0-.049c.008-.16.222-.293.448-.44a1.26,1.26,0,0,0,.416-.342l.035-.077.043.07c0,.007,0,.007,0,.007a1.223,1.223,0,0,1,.162-.412,3.352,3.352,0,0,0,.157-.349l.034-.1.048.1c.011.014.02.028.03.042,0-.112.009-.244.018-.384a4.271,4.271,0,0,0-.016-1.173l-.047-.189.124.154a.633.633,0,0,1,.117.181.189.189,0,0,0,.036.049c0-.077.006-.153.009-.223a1.041,1.041,0,0,0-.239-.915.889.889,0,0,0-.869-.133,1.322,1.322,0,0,1-.3.056,2.337,2.337,0,0,1-.4-.1c-.2-.062-.441-.125-.583-.153.053.139.037.181-.055.23-.149.1-.224.056-.29,0a.263.263,0,0,1,.007.077c0,.035,0,.07.005.126l.01.077-.073-.049c-.447-.231-1.164.5-1.374,1.662a.1.1,0,0,1,.016-.028.448.448,0,0,1,.136-.112l.087-.07-.017.1a.968.968,0,0,0,.049.454c.022.084.05.195.076.328.049-.063.074-.091.1-.119a.779.779,0,0,0,.1-.132l.049-.077.032.084a3.727,3.727,0,0,1,.153.565c.016.063.028.126.044.2a.616.616,0,0,1,.019-.077.756.756,0,0,1,.073-.2.974.974,0,0,1,.447.629.9.9,0,0,0,.494.649.339.339,0,0,1,.14-.237"/>
      <path id="Path_10282" data-name="Path 10282" d="M140.1,196.037c.159-.391.3-.517.4-.775.182-.433.211-.789.363-.733s.15.237-.052.677a1.721,1.721,0,0,1-.716.831" fill="#96191c" fill-rule="evenodd"/>
      <path id="Path_10283" data-name="Path 10283" d="M140.706,197.007c.065-.342.166-.482.208-.7.073-.4.029-.692.173-.678s.174.161.078.559a1.417,1.417,0,0,1-.459.817" fill="#96191c" fill-rule="evenodd"/>
      <path id="Path_10284" data-name="Path 10284" d="M141.427,197.685c.019-.335.1-.468.11-.684.021-.391-.052-.664.082-.664s.185.14.143.524a1.375,1.375,0,0,1-.335.824" fill="#96191c" fill-rule="evenodd"/>
      <path id="Path_10285" data-name="Path 10285" d="M142.977,195.471c-.3-.293-.475-.349-.667-.545-.339-.328-.5-.642-.618-.524s-.049.273.306.587a1.677,1.677,0,0,0,.979.482" fill="#96191c" fill-rule="evenodd"/>
      <path id="Path_10286" data-name="Path 10286" d="M142.8,196.609c-.192-.293-.335-.37-.461-.566-.218-.335-.293-.614-.415-.544s-.1.216.137.544a1.4,1.4,0,0,0,.739.566" fill="#96191c" fill-rule="evenodd"/>
      <path id="Path_10287" data-name="Path 10287" d="M172.548,193.718c-2.5,2.507-5.835,7.5-12.5,7.5-5.834,0-10-4.993-12.5-7.5,2.5-2.5,6.669-7.493,12.5-7.493,6.665,0,10,4.993,12.5,7.493" fill="#fff" fill-rule="evenodd"/>
      <path id="Path_10288" data-name="Path 10288" d="M160.048,201.267c-5.244,0-9.127-4.015-11.7-6.662-.3-.307-.573-.594-.836-.859.263-.307.536-.594.829-.9,2.573-2.653,6.456-6.662,11.7-6.662,5.655,0,8.919,3.583,11.3,6.2.435.482.836.922,1.224,1.306-.388.447-.793.894-1.231,1.376-2.381,2.618-5.646,6.2-11.3,6.2m0-15.007c-5.213,0-9.083,4-11.641,6.648-.295.3-.573.587-.831.838.258.21.538.5.835.8,2.557,2.654,6.428,6.641,11.637,6.641,5.611,0,8.863-3.575,11.236-6.18.436-.475.845-.922,1.231-1.313a17.124,17.124,0,0,1-1.228-1.243c-2.372-2.612-5.625-6.187-11.239-6.187"/>
      <path id="Path_10289" data-name="Path 10289" d="M159.175,188.837c.662.74.107,1.04.814,1.1.74.049.319.789.942.81.439.021-.043,1.767.379,2.347.43.6.788.174.8.6.007.454-1.166.4-1.189,1.788-.035.8-.988.852-1.033,1.355s1.88.761,1.856,1.187-2.094.37-2.184.852c-.047.44,2.84.8,3.069,2.074a10.758,10.758,0,0,1-2.577.272c-5.834.007-10-4.993-12.5-7.5,2.5-2.5,6.669-7.493,12.5-7.493,0,0-1.735,1.585-.873,2.612" fill-rule="evenodd"/>
      <rect id="Rectangle_356" data-name="Rectangle 356" width="0.602" height="1.997" transform="translate(152.215 191.058)" fill="#fff"/>
      <rect id="Rectangle_357" data-name="Rectangle 357" width="0.602" height="1.997" transform="translate(152.215 194.396)" fill="#fff"/>
      <rect id="Rectangle_358" data-name="Rectangle 358" width="0.609" height="1.997" transform="translate(153.423 191.058)" fill="#fff"/>
      <rect id="Rectangle_359" data-name="Rectangle 359" width="0.609" height="1.997" transform="translate(153.423 194.396)" fill="#fff"/>
      <rect id="Rectangle_360" data-name="Rectangle 360" width="0.606" height="1.997" transform="translate(154.638 191.058)" fill="#fff"/>
      <rect id="Rectangle_361" data-name="Rectangle 361" width="0.606" height="1.997" transform="translate(154.638 194.396)" fill="#fff"/>
      <rect id="Rectangle_362" data-name="Rectangle 362" width="0.604" height="1.997" transform="translate(155.849 191.058)" fill="#fff"/>
      <rect id="Rectangle_363" data-name="Rectangle 363" width="0.604" height="1.997" transform="translate(155.849 194.396)" fill="#fff"/>
      <rect id="Rectangle_364" data-name="Rectangle 364" width="0.606" height="1.997" transform="translate(157.059 191.058)" fill="#fff"/>
      <rect id="Rectangle_365" data-name="Rectangle 365" width="0.606" height="1.997" transform="translate(157.059 194.396)" fill="#fff"/>
      <rect id="Rectangle_366" data-name="Rectangle 366" width="0.604" height="1.997" transform="translate(158.274 191.058)" fill="#fff"/>
      <rect id="Rectangle_367" data-name="Rectangle 367" width="0.604" height="1.997" transform="translate(158.274 194.396)" fill="#fff"/>
      <rect id="Rectangle_368" data-name="Rectangle 368" width="0.607" height="1.997" transform="translate(161.378 191.058)"/>
      <rect id="Rectangle_369" data-name="Rectangle 369" width="0.607" height="1.997" transform="translate(161.378 194.396)"/>
      <rect id="Rectangle_370" data-name="Rectangle 370" width="0.604" height="1.997" transform="translate(162.592 191.058)"/>
      <rect id="Rectangle_371" data-name="Rectangle 371" width="0.604" height="1.997" transform="translate(162.592 194.396)"/>
      <rect id="Rectangle_372" data-name="Rectangle 372" width="0.606" height="1.997" transform="translate(163.805 191.058)"/>
      <rect id="Rectangle_373" data-name="Rectangle 373" width="0.606" height="1.997" transform="translate(163.805 194.396)"/>
      <rect id="Rectangle_374" data-name="Rectangle 374" width="0.609" height="1.997" transform="translate(165.013 191.058)"/>
      <rect id="Rectangle_375" data-name="Rectangle 375" width="0.609" height="1.997" transform="translate(165.013 194.396)"/>
      <rect id="Rectangle_376" data-name="Rectangle 376" width="0.604" height="1.997" transform="translate(166.228 191.058)"/>
      <rect id="Rectangle_377" data-name="Rectangle 377" width="0.604" height="1.997" transform="translate(166.228 194.396)"/>
      <rect id="Rectangle_378" data-name="Rectangle 378" width="0.607" height="1.997" transform="translate(167.44 191.058)"/>
      <rect id="Rectangle_379" data-name="Rectangle 379" width="0.607" height="1.997" transform="translate(167.44 194.396)"/>
      <path id="Path_10290" data-name="Path 10290" d="M156.005,187.552c-.349.67.6-.223,2.1.9a2.575,2.575,0,0,1,.677,1.41,4.673,4.673,0,0,1-.883-.377,2.369,2.369,0,0,1,.66,1.432c-.234-.154-.35-.133-.428-.314,0,.251.208.4.208.782a3.666,3.666,0,0,0-.452-.294c.218.378-.4,1.111-.09,1.362a1.934,1.934,0,0,1-1.325-.8.378.378,0,0,0-.132.335c.019.014-.826-.628-.749-.88a.809.809,0,0,0-.156.433,2.26,2.26,0,0,1-.7-1.012c-.138.181-.148.181-.284.363a1.435,1.435,0,0,1,.1-1.145,4.02,4.02,0,0,0-.416.314,3.654,3.654,0,0,1,1.868-2.507" fill="#485da4" fill-rule="evenodd"/>
      <path id="Path_10291" data-name="Path 10291" d="M157.911,192.51l-.124-.021a1.964,1.964,0,0,1-1.346-.824.564.564,0,0,0-.069.321c-.06.042-.475-.321-.6-.461-.166-.188-.239-.321-.218-.419a3.711,3.711,0,0,0-.089.433,1.927,1.927,0,0,1-.761-1,.406.406,0,0,1-.086.195l-.188.231-.016-.1a1.42,1.42,0,0,1,.1-1.1,3.419,3.419,0,0,1-.347.322,3.472,3.472,0,0,1,1.829-2.57c-.012.168-.037.237-.019.258s.089.028.157.028h.229a2.807,2.807,0,0,1,1.768.622,2.615,2.615,0,0,1,.686,1.438,2.637,2.637,0,0,1-.857-.307,1.994,1.994,0,0,1,.637,1.362,1.3,1.3,0,0,1-.249-.084.539.539,0,0,1-.175-.112,1.416,1.416,0,0,1,.08.182,1.049,1.049,0,0,1,.124.482,4.058,4.058,0,0,1-.5-.273c.161.161.066.433-.025.7s-.169.5-.026.621Zm-1.461-.887a2.165,2.165,0,0,0,1.257.789c-.089-.153-.009-.384.073-.621s.173-.51.074-.685a1.084,1.084,0,0,1,.5.259,3.9,3.9,0,0,0-.173-.44.77.77,0,0,1-.09-.322.886.886,0,0,0,.272.168c.058.028.124.063.208.112a2.623,2.623,0,0,0-.7-1.376c.047-.056.6.258.913.328a2.946,2.946,0,0,0-.7-1.354,2.727,2.727,0,0,0-1.728-.615h-.229c-.092,0-.18,0-.215-.056s-.012-.125.061-.272a3.867,3.867,0,0,0-1.8,2.521,1.129,1.129,0,0,1,.359-.342l.091-.056-.052.125a1.359,1.359,0,0,0-.091,1.069l.082-.168c.039-.042.073-.091.143-.181a2.923,2.923,0,0,0,.751,1.005.465.465,0,0,1,.1-.419c0,.217.632.741.8.866a.264.264,0,0,1,.094-.335"/>
      <path id="Path_10292" data-name="Path 10292" d="M155.148,190.827c.058-.461.178-.636.213-.936.065-.517-.013-.908.175-.894s.234.21.148.734a1.889,1.889,0,0,1-.536,1.1" fill="#96191c" fill-rule="evenodd"/>
      <path id="Path_10293" data-name="Path 10293" d="M156.116,191.672c-.038-.384.035-.559.014-.8-.042-.44-.18-.74-.017-.768s.242.111.258.558a1.563,1.563,0,0,1-.255,1.013" fill="#96191c" fill-rule="evenodd"/>
      <path id="Path_10294" data-name="Path 10294" d="M157.626,192.364c-.166-.342-.306-.44-.414-.649-.183-.385-.225-.7-.366-.643s-.14.217.071.594a1.514,1.514,0,0,0,.709.7" fill="#96191c" fill-rule="evenodd"/>
      <path id="Path_10295" data-name="Path 10295" d="M158.147,189.347c-.417-.223-.632-.223-.9-.363-.475-.252-.749-.531-.847-.384s.031.314.522.537a1.9,1.9,0,0,0,1.227.21" fill="#96191c" fill-rule="evenodd"/>
      <path id="Path_10296" data-name="Path 10296" d="M158.3,190.6c-.3-.251-.484-.293-.681-.447-.344-.293-.517-.573-.63-.454s-.04.258.323.524a1.539,1.539,0,0,0,.988.377" fill="#96191c" fill-rule="evenodd"/>
    </g>
  </g>
</svg>
