<svg xmlns="http://www.w3.org/2000/svg" width="35.153" height="35.153" viewBox="0 0 35.153 35.153"><g transform="translate(0 0)"><path d="M35.153,16.516H0A17.47,17.47,0,0,1,2.359,7.729H32.793A17.471,17.471,0,0,1,35.153,16.516Z" transform="translate(0 1.057)" fill="#fff"/><path d="M32.51,8.786H2.08a17.708,17.708,0,0,1,3.8-4.568c.281-.24.565-.469.86-.69.418-.316.853-.612,1.3-.888.319-.2.647-.391.979-.568A17.589,17.589,0,0,1,21.687.556,17.63,17.63,0,0,1,32.51,8.786Z" transform="translate(0.284)" fill="#043080"/><path d="M35.153,15.459v0a17.48,17.48,0,0,1-2.36,8.787H2.359A17.479,17.479,0,0,1,0,15.462v0Z" transform="translate(0 2.114)" fill="#25962b"/><path d="M32.51,23.192a17.647,17.647,0,0,1-10.823,8.233A17.569,17.569,0,0,1,2.075,23.192Z" transform="translate(0.284 3.171)" fill="#fecd17"/><g transform="translate(13.185)"><path d="M20.385.556V34.6a17.6,17.6,0,0,1-8.786,0V.556a17.636,17.636,0,0,1,8.786,0Z" transform="translate(-11.599)" fill="#d11133"/></g><path d="M9.575,4.935l.872,2.678L8.162,5.957,5.887,7.614l.867-2.678-1.33-.967c.281-.24.565-.469.86-.69H7.3l.288-.888c.319-.2.647-.391.979-.568l.473,1.456h2.821Z" transform="translate(0.742 0.249)" fill="#fecd17"/></g></svg>