<svg xmlns="http://www.w3.org/2000/svg" width="35.169" height="35.172" viewBox="0 0 35.169 35.172"><g transform="translate(0)"><g transform="translate(0 0)"><path d="M11.282.885v9.721L3.3,6.614A17.637,17.637,0,0,1,11.282.885Z" transform="translate(0.452 0.121)" fill="#04247b"/><path d="M28.594,6.614l-7.978,3.992V.885A17.613,17.613,0,0,1,28.594,6.614Z" transform="translate(2.819 0.121)" fill="#04247b"/><path d="M11.282,21.508v9.718A17.613,17.613,0,0,1,3.3,25.5Z" transform="translate(0.452 2.941)" fill="#04247b"/><path d="M28.594,25.5a17.613,17.613,0,0,1-7.978,5.729V21.508Z" transform="translate(2.819 2.941)" fill="#04247b"/><path d="M35.169,17.588a17.309,17.309,0,0,1-1,5.851h-4.92L33.3,25.471a17.478,17.478,0,0,1-1.89,2.967l-7.978-3.989v9.718a16.756,16.756,0,0,1-2.331.651,17.616,17.616,0,0,1-7.034,0,16.817,16.817,0,0,1-2.336-.651V24.449L3.756,28.437c-.244-.311-.481-.634-.706-.966l8.064-4.032H5.859l-4,2A17.569,17.569,0,0,1,1,11.733H5.894L1.862,9.718A17.854,17.854,0,0,1,3.756,6.735l7.978,3.992V1.006A16.817,16.817,0,0,1,14.069.355a17.616,17.616,0,0,1,7.034,0,16.756,16.756,0,0,1,2.331.651v9.721l7.978-3.992c.246.307.477.626.7.95l-8.088,4.048h5.255l4.027-2.015a17.271,17.271,0,0,1,1.512,4.351A17.826,17.826,0,0,1,35.169,17.588Z" fill="#fff"/><path d="M5.773,10.564H.882a17.091,17.091,0,0,1,.859-2.015Z" transform="translate(0.121 1.169)" fill="#ce152a"/><path d="M30.649,20.62a17.433,17.433,0,0,1-.864,2.031L25.729,20.62Z" transform="translate(3.518 2.819)" fill="#ce152a"/><path d="M30.416,8.793l-4.027,2.015H21.134l8.088-4.048A17.183,17.183,0,0,1,30.416,8.793Z" transform="translate(2.889 0.924)" fill="#ce152a"/><path d="M10.891,20.62,2.827,24.652a17.42,17.42,0,0,1-1.2-2.028l4-2Z" transform="translate(0.223 2.819)" fill="#ce152a"/><path d="M35.169,17.588a17.814,17.814,0,0,1-.351,3.515H21.1V34.818a17.616,17.616,0,0,1-7.034,0V21.1H.355a17.616,17.616,0,0,1,0-7.034H14.069V.355a17.616,17.616,0,0,1,7.034,0V14.069H34.818A17.826,17.826,0,0,1,35.169,17.588Z" fill="#ce152a"/></g></g></svg>