<svg xmlns="http://www.w3.org/2000/svg" width="35.153" height="35.153" viewBox="0 0 35.153 35.153"><g transform="translate(0 0)"><g transform="translate(0.998)"><path d="M34.035,11.717H.878c.083-.236.174-.477.268-.71A17.373,17.373,0,0,1,3.723,6.6a.091.091,0,0,1,.027-.032.088.088,0,0,1,.024-.035A.206.206,0,0,1,3.8,6.5a.109.109,0,0,1,.036-.043c0-.008.007-.013.015-.02h0a.314.314,0,0,1,.035-.047.158.158,0,0,1,.024-.024.2.2,0,0,1,.027-.035l.008-.013a.446.446,0,0,1,.032-.035c.107-.126.214-.252.327-.379.091-.1.185-.209.284-.311a.037.037,0,0,1,.019-.02v0a.351.351,0,0,1,.04-.043L4.674,5.5a.263.263,0,0,1,.04-.04.089.089,0,0,1,.019-.024c.024-.024.048-.051.075-.075a.085.085,0,0,1,.032-.032A.083.083,0,0,1,4.871,5.3.1.1,0,0,1,4.9,5.266c.035-.043.078-.082.122-.126.126-.126.256-.256.391-.379.2-.193.409-.379.623-.556l.024-.024c.008-.008.016-.011.024-.019s.015-.013.023-.02c.206-.173.407-.335.616-.5a.189.189,0,0,1,.027-.019c.008-.008.016-.013.024-.02A.122.122,0,0,1,6.8,3.586c.131-.1.265-.2.4-.3q.627-.45,1.286-.841L8.52,2.43c.086-.051.171-.1.26-.146a.222.222,0,0,1,.056-.032c.055-.035.106-.064.165-.094a.11.11,0,0,1,.028-.016c.019-.013.039-.02.056-.032A17.611,17.611,0,0,1,15.578.1C16.154.04,16.734,0,17.314,0H17.6A17.551,17.551,0,0,1,33.767,11.007C33.861,11.24,33.952,11.481,34.035,11.717Z" transform="translate(-0.878)" fill="#3c990d"/></g><g transform="translate(0.998 23.435)"><path d="M34.035,20.616c-.083.241-.174.477-.268.71a17.5,17.5,0,0,1-3.875,5.867,17.17,17.17,0,0,1-4.067,3.034,17.65,17.65,0,0,1-16.739,0A17.348,17.348,0,0,1,7.2,29.044a16.9,16.9,0,0,1-1.787-1.475c-.135-.123-.261-.244-.391-.375-.249-.248-.489-.5-.718-.765a17.287,17.287,0,0,1-3.156-5.1q-.148-.35-.273-.71Z" transform="translate(-0.878 -20.616)" fill="#e22118"/></g><g transform="translate(0 11.717)"><path d="M35.153,16.167a17.73,17.73,0,0,1-.868,5.477c-.043.13-.086.256-.13.382H1c-.043-.126-.086-.252-.126-.382a17.634,17.634,0,0,1,0-10.952c.04-.131.083-.257.126-.383H34.155c.043.126.086.252.13.383A17.649,17.649,0,0,1,35.153,16.167Z" transform="translate(0 -10.308)" fill="#fff"/></g><g transform="translate(0 5.906)"><path d="M13.177,16.866,8.786,22.724,4.426,28.536a17.287,17.287,0,0,1-3.156-5.1q-.148-.35-.273-.71c-.043-.126-.086-.252-.126-.382a17.634,17.634,0,0,1,0-10.952c.04-.131.083-.257.126-.383.083-.236.174-.477.268-.71a17.373,17.373,0,0,1,2.577-4.41.091.091,0,0,1,.027-.032.088.088,0,0,1,.024-.035.206.206,0,0,1,.027-.027.109.109,0,0,1,.036-.043c0-.008.007-.013.015-.02h0a.314.314,0,0,1,.035-.047.158.158,0,0,1,.024-.024.2.2,0,0,1,.027-.035l.008-.013A.446.446,0,0,1,4.1,5.575c.107-.126.214-.252.327-.379l4.359,5.811Z" transform="translate(0 -5.196)" fill="#0a73cc"/></g><g transform="translate(17.884 12.356)"><g transform="translate(2 2.144)"><g transform="translate(0.021 0.02)"><path d="M22.15,14.536a.222.222,0,0,0,.078-.169c.008-.142-.094-.241-.307-.3,0,0-.009,0-.009-.011a.289.289,0,0,0-.09-.265c-.193-.141-.612,0-.616,0s-.011,0-.016-.008l.008-.011a1.4,1.4,0,0,1,.3-.067.2.2,0,0,0-.027-.171.283.283,0,0,0-.217-.083l-.008,0a.268.268,0,0,0-.209-.139.242.242,0,0,0-.193.107s-.008,0-.016,0a.232.232,0,0,0-.284.051.768.768,0,0,1-.024.311l-.011.008h0s-.008-.008,0-.016.118-.394-.123-.485-.366.094-.462.273l-.007.008-.013-.008a.164.164,0,0,0-.115-.075.169.169,0,0,0-.126.055l-.016.008s-.011,0-.011,0,0-.008,0-.013l.007-.008a.206.206,0,0,1,.147-.063.172.172,0,0,1,.118.075c.059-.107.15-.265.311-.292a.4.4,0,0,0-.083-.292c-.221-.26-.426-.209-.714-.032h-.008a.2.2,0,0,0-.2.032.268.268,0,0,0-.051.249v.008l-.011,0h0a.174.174,0,0,0-.165.118.338.338,0,0,1,.181.115.221.221,0,0,1,.19.016.219.219,0,0,1,.07.142c0,.008,0,.011-.008.016a.013.013,0,0,1-.011-.013.2.2,0,0,0-.063-.13.228.228,0,0,0-.178-.008l-.011,0c-.094-.1-.185-.138-.268-.106a.406.406,0,0,0-.214.327l0,.008-.008,0c-.11-.011-.174.051-.225.233l-.008.008a.283.283,0,0,0-.165.158.286.286,0,0,0,.035.217.758.758,0,0,1,.28-.028.011.011,0,0,1,.013.013l-.013.008c-.335-.013-.41.1-.481.209a.422.422,0,0,1-.072.094l-.011,0a.315.315,0,0,0-.324.142.41.41,0,0,1-.043.048l-.008,0a.151.151,0,0,0-.115.036.089.089,0,0,0,0,.086.223.223,0,0,0,.088.094l.035.013a.24.24,0,0,1,.04.016.165.165,0,0,1,.051.039c.008,0,.011.013.019.016a.254.254,0,0,0,.407-.118l.013-.008.011.008c.043.107.209.131.3.123a.214.214,0,0,0,.067-.024.147.147,0,0,1,.02-.118.312.312,0,0,1,.035-.04c-.008-.078-.039-.169-.142-.166a.629.629,0,0,0-.15.027l-.011-.007c0-.008,0-.013.008-.016a.818.818,0,0,1,.153-.028c.091,0,.146.059.161.171a.187.187,0,0,1,.163-.04c.008,0,.008.008.008.016s-.008.008-.016.008a.1.1,0,0,0-.036-.008.2.2,0,0,0-.118.051.189.189,0,0,0-.035.043.128.128,0,0,0,.008.158.3.3,0,0,0,.288.086.2.2,0,0,0,.126-.165.707.707,0,0,0,.008-.178c-.008,0-.008-.008-.008-.011a.017.017,0,0,1,.016-.008.227.227,0,0,0,.225-.019.269.269,0,0,0,.064-.193v-.013l-.008-.078c0-.008,0-.013.008-.016a.012.012,0,0,1,.011.011.328.328,0,0,1,.008.072.172.172,0,0,0,.091-.024.279.279,0,0,0,.13-.166l.008-.008h.008a.668.668,0,0,0,.155.08.448.448,0,0,0,.193.019.767.767,0,0,0,.252-.075.53.53,0,0,1,.024-.213.012.012,0,0,1,.016,0l0,.013a.526.526,0,0,0-.024.208.327.327,0,0,0,.059.155.414.414,0,0,0,.233.142l.059.016a.82.82,0,0,0,.241.008.166.166,0,0,1,0-.067.121.121,0,0,1,.063-.1.271.271,0,0,1,.174-.013c.008,0,.011.008.011.016a.016.016,0,0,1-.015.008.2.2,0,0,0-.158.008.112.112,0,0,0-.056.08.185.185,0,0,0,.043.146c.072.083.23.086.313.091a.383.383,0,0,0,.28-.094.2.2,0,0,0,.011-.246l0-.011c.008,0,.011,0,.016,0a.268.268,0,0,1,.024.213c.142.024.449.048.521-.189-.02,0-.04,0-.059,0s-.032,0-.048,0a.012.012,0,0,1-.011-.013.012.012,0,0,1,.011-.011A.313.313,0,0,0,22.15,14.536Zm-3.227-.474-.013,0-.008-.008a.189.189,0,0,0-.216-.091c-.009,0-.013,0-.013-.008s0-.011,0-.016a.213.213,0,0,1,.233.091.364.364,0,0,1,.2-.158.119.119,0,0,1,.1.02c.007,0,.007.008,0,.011a.01.01,0,0,1-.016,0,.107.107,0,0,0-.078-.016A.341.341,0,0,0,18.923,14.062Zm.382.265c-.083.016-.091.032-.118.118l-.008.024-.008.008h-.008c-.078-.059-.161.019-.165.019l-.008,0-.008,0V14.48a.165.165,0,0,1,.181-.031l0-.013c.027-.086.04-.115.134-.134.008,0,.011,0,.016.013A.013.013,0,0,1,19.3,14.327Zm.856-.26a.243.243,0,0,0-.209.11l-.007.008h0s-.008,0-.008-.011c-.059-.246-.4-.281-.43-.281-.008,0-.013,0-.013-.008l.008-.011c.032,0,.372.027.45.272a.276.276,0,0,1,.213-.1.013.013,0,0,1,.013.011A.011.011,0,0,1,20.161,14.067Zm1.208.189c-.091-.039-.147,0-.273.1h-.008l-.008-.008a.269.269,0,0,0-.359-.161l-.008,0c-.008,0-.011,0-.011-.011s0-.013.008-.013l0,0a.292.292,0,0,1,.38.165c.126-.09.185-.13.283-.086l.008.013Zm.339.3v0l-.008,0,0-.013c.008-.09-.1-.153-.1-.153s0-.008,0-.016.008-.008.016,0a.214.214,0,0,1,.107.161c.123-.035.142-.04.2-.024.008,0,.008.008.008.013s-.008.011-.013.007C21.853,14.509,21.839,14.517,21.708,14.552Z" transform="translate(-17.51 -12.774)" fill="#00993d"/></g><path d="M21.939,14.05a.3.3,0,0,0-.1-.276.461.461,0,0,0-.311-.067.211.211,0,0,0-.035-.186.29.29,0,0,0-.225-.09.3.3,0,0,0-.225-.139.252.252,0,0,0-.206.107.258.258,0,0,0-.3.051.234.234,0,0,0-.15-.177.329.329,0,0,0-.15-.024.419.419,0,0,0-.086-.3c-.225-.273-.45-.217-.738-.04a.2.2,0,0,0-.213.035.272.272,0,0,0-.056.257.2.2,0,0,0-.185.134.177.177,0,0,0-.083.008.425.425,0,0,0-.225.339c-.115-.008-.185.064-.236.244a.308.308,0,0,0-.174.171.319.319,0,0,0,.032.236.391.391,0,0,0-.193.177c-.024.032-.043.064-.067.091a.335.335,0,0,0-.34.146.336.336,0,0,1-.039.044.14.14,0,0,0-.126.047.1.1,0,0,0,0,.107.229.229,0,0,0,.094.107.411.411,0,0,0,.04.016.121.121,0,0,1,.035.007.234.234,0,0,1,.048.04.186.186,0,0,1,.02.016.285.285,0,0,0,.181.067A.245.245,0,0,0,18,15.182a.3.3,0,0,0,.182-.158.328.328,0,0,0,.307.11.167.167,0,0,0,.075-.019.212.212,0,0,0,.02.039.336.336,0,0,0,.244.111.219.219,0,0,0,.07-.013.234.234,0,0,0,.142-.185.931.931,0,0,0,.008-.174.219.219,0,0,0,.222-.031.137.137,0,0,0,.031-.036,1.061,1.061,0,0,1,.273.691,9.512,9.512,0,0,1-.273,2.347c-.035.086-.075.173-.114.26a1.178,1.178,0,0,0-.163.529.158.158,0,0,0,.08.11.137.137,0,0,0,.07.016.342.342,0,0,0,.118-.024.159.159,0,0,0,.1.091.208.208,0,0,0,.067.011.3.3,0,0,0,.264-.169s0,.008,0,.016a.224.224,0,0,0,.1.107.317.317,0,0,0,.153.043.192.192,0,0,0,.15-.064.119.119,0,0,0,.019-.035.353.353,0,0,0,.119.024.127.127,0,0,0,.07-.016.173.173,0,0,0,.083-.11,1.245,1.245,0,0,0-.166-.529c-.04-.083-.074-.174-.114-.26a8.481,8.481,0,0,1-.222-2.221,1.218,1.218,0,0,1,.557-.864l.059.011a.7.7,0,0,0,.153.016.791.791,0,0,0,.094-.008.23.23,0,0,0,.043.07.471.471,0,0,0,.329.1h.015a.4.4,0,0,0,.284-.1.21.21,0,0,0,.028-.039,1,1,0,0,0,.177.016.343.343,0,0,0,.375-.233.3.3,0,0,0,.126-.059.254.254,0,0,0,.086-.185C22.263,14.219,22.156,14.112,21.939,14.05Zm-2.225,4.6c0,.008,0,.072-.11.147a.265.265,0,0,1-.2.032.149.149,0,0,1-.1-.091.262.262,0,0,1-.016-.088.671.671,0,0,1,.04-.193c.056-.169.1-.3.142-.394a2.146,2.146,0,0,0,.126-.414,3.029,3.029,0,0,0,.032-.438V17.2a.011.011,0,0,0-.013-.013s-.007,0-.007.013a2.8,2.8,0,0,1-.036.446,1.965,1.965,0,0,1-.122.406c-.04.1-.088.225-.147.4a.5.5,0,0,0-.024.284.242.242,0,0,1-.173.008.142.142,0,0,1-.067-.1,1.235,1.235,0,0,1,.161-.513c.04-.083.075-.174.115-.26a9.376,9.376,0,0,0,.272-2.355,1.069,1.069,0,0,0-.28-.71.36.36,0,0,0,.027-.158.259.259,0,0,0,.094-.019,1.233,1.233,0,0,1,.281.367Zm0-3.708a1.712,1.712,0,0,0-.26-.324.312.312,0,0,0,.122-.158.517.517,0,0,0,.139.067Zm.189.7a.282.282,0,0,1,0,.051,8.518,8.518,0,0,0,.228,2.178c.04.086.075.177.115.26a1.235,1.235,0,0,1,.161.513.153.153,0,0,1-.067.1.245.245,0,0,1-.174-.008.323.323,0,0,0-.008-.2c-.023-.094-.055-.185-.082-.272-.02-.056-.036-.11-.056-.163a4.894,4.894,0,0,1-.169-1.31c0-.094,0-.189-.008-.288-.008-.268-.016-.544,0-.813,0-.064,0-.123.008-.182,0-.008,0-.011-.008-.011s-.011,0-.011.011c-.011.15-.016.308-.016.466,0,.177,0,.355.008.529,0,.1.008.193.008.288A4.876,4.876,0,0,0,20,18.109c.016.056.035.11.055.161.028.091.059.182.083.273a.329.329,0,0,1,0,.193h0v0a.205.205,0,0,1-.024.04.224.224,0,0,1-.273.016.241.241,0,0,1-.094-.1.225.225,0,0,1-.016-.1V14.534a.553.553,0,0,0,.178.02l0,.13c0,.083-.008.185-.008.313l.008.011h0A.01.01,0,0,0,19.919,15a.854.854,0,0,1,.327-.359.444.444,0,0,0,.214.134A1.218,1.218,0,0,0,19.9,15.643Zm.02-.71c0-.1,0-.177.008-.249v-.13a.805.805,0,0,0,.244-.08.391.391,0,0,0,.055.142A1.027,1.027,0,0,0,19.923,14.933Zm2.229-.394a.313.313,0,0,1-.241.059.012.012,0,0,0-.011.011.012.012,0,0,0,.011.013c.016,0,.032,0,.048,0s.039,0,.059,0c-.072.236-.379.213-.521.189a.268.268,0,0,0-.024-.213s-.008,0-.016,0l0,.011a.2.2,0,0,1-.011.246.383.383,0,0,1-.28.094c-.083,0-.241-.008-.313-.091a.185.185,0,0,1-.043-.146.112.112,0,0,1,.056-.08.2.2,0,0,1,.158-.008.016.016,0,0,0,.015-.008c0-.008,0-.016-.011-.016a.271.271,0,0,0-.174.013.121.121,0,0,0-.063.1.166.166,0,0,0,0,.067.82.82,0,0,1-.241-.008l-.059-.016a.414.414,0,0,1-.233-.142.327.327,0,0,1-.059-.155.526.526,0,0,1,.024-.208l0-.013a.012.012,0,0,0-.016,0,.53.53,0,0,0-.024.213.767.767,0,0,1-.252.075.448.448,0,0,1-.193-.019.668.668,0,0,1-.155-.08h-.008l-.008.008a.279.279,0,0,1-.13.166.172.172,0,0,1-.091.024.328.328,0,0,0-.008-.072.012.012,0,0,0-.011-.011c-.008,0-.013.008-.008.016l.008.078v.013a.269.269,0,0,1-.064.193.227.227,0,0,1-.225.019.017.017,0,0,0-.016.008s0,.011.008.011a.707.707,0,0,1-.008.178.2.2,0,0,1-.126.165.3.3,0,0,1-.288-.086.128.128,0,0,1-.008-.158.189.189,0,0,1,.035-.043.2.2,0,0,1,.118-.051.1.1,0,0,1,.036.008c.008,0,.011,0,.016-.008s0-.013-.008-.016a.187.187,0,0,0-.163.04c-.016-.111-.07-.171-.161-.171a.818.818,0,0,0-.153.028c-.008,0-.013.008-.008.016l.011.007a.629.629,0,0,1,.15-.027c.1,0,.134.088.142.166a.312.312,0,0,0-.035.04.147.147,0,0,0-.02.118.214.214,0,0,1-.067.024c-.09.008-.256-.016-.3-.123l-.011-.008-.013.008a.254.254,0,0,1-.407.118c-.008,0-.011-.011-.019-.016a.164.164,0,0,0-.051-.039.24.24,0,0,0-.04-.016l-.035-.013a.223.223,0,0,1-.088-.094.089.089,0,0,1,0-.086.151.151,0,0,1,.115-.036l.008,0a.41.41,0,0,0,.043-.048.315.315,0,0,1,.324-.142l.011,0a.422.422,0,0,0,.072-.094c.07-.107.146-.222.481-.209l.013-.008a.011.011,0,0,0-.013-.013.758.758,0,0,0-.28.028.286.286,0,0,1-.035-.217.283.283,0,0,1,.165-.158l.008-.008c.051-.182.115-.244.225-.233l.008,0,0-.008a.406.406,0,0,1,.214-.327c.083-.032.174,0,.268.106l.011,0a.228.228,0,0,1,.178.008.2.2,0,0,1,.063.13.013.013,0,0,0,.011.013c.008,0,.013-.008.008-.016a.219.219,0,0,0-.07-.142.221.221,0,0,0-.19-.016.338.338,0,0,0-.181-.115.174.174,0,0,1,.165-.118h0l.011,0v-.008a.268.268,0,0,1,.051-.249.2.2,0,0,1,.2-.032h.008c.288-.177.493-.228.714.032a.4.4,0,0,1,.083.292c-.161.027-.252.185-.311.292a.172.172,0,0,0-.118-.075.206.206,0,0,0-.147.063l-.007.008c-.009,0-.009.008,0,.013s.008.008.011,0l.016-.008a.169.169,0,0,1,.126-.055.164.164,0,0,1,.115.075l.013.008.007-.008c.1-.178.217-.364.462-.273s.123.485.123.485,0,.011,0,.016h0l.011-.008a.768.768,0,0,0,.024-.311.232.232,0,0,1,.284-.051c.008,0,.011,0,.016,0a.242.242,0,0,1,.193-.107.268.268,0,0,1,.209.139l.008,0a.283.283,0,0,1,.217.083.2.2,0,0,1,.027.171,1.405,1.405,0,0,0-.3.067l-.008.011c0,.008.013.011.016.008s.423-.146.616,0a.289.289,0,0,1,.09.265c0,.008,0,.011.009.011.213.064.315.163.307.3A.222.222,0,0,1,22.153,14.538Z" transform="translate(-17.492 -12.756)"/><g transform="translate(4.102 1.613)"><path d="M21.426,14.313l.008.013c0,.007-.008.011-.016.007-.051-.015-.07-.007-.2.028h-.008l0-.013c.008-.09-.1-.153-.1-.153s-.008-.008,0-.016l.016,0a.214.214,0,0,1,.107.161C21.348,14.3,21.367,14.3,21.426,14.313Z" transform="translate(-21.101 -14.175)"/></g><g transform="translate(3.212 1.387)"><path d="M20.992,14.071c.008,0,.008.008.008.013a.015.015,0,0,1-.015.007c-.091-.039-.147,0-.273.091l-.008,0h0l-.008-.008a.271.271,0,0,0-.359-.161l-.008,0c-.008,0-.011,0-.011-.011L20.326,14h0a.288.288,0,0,1,.38.161C20.835,14.068,20.894,14.028,20.992,14.071Z" transform="translate(-20.318 -13.976)"/></g><g transform="translate(2.241 1.778)"><path d="M19.858,17.654a8.433,8.433,0,0,1-.228-2.173.258.258,0,0,0,0-.051,1.218,1.218,0,0,1,.557-.872.444.444,0,0,1-.214-.134.854.854,0,0,0-.327.359.01.01,0,0,1-.011.011h0l-.008-.011c0-.127,0-.23.008-.313l0-.13a.553.553,0,0,1-.178-.02v4.056a.343.343,0,0,0,.016.107.256.256,0,0,0,.094.1.224.224,0,0,0,.273-.016.205.205,0,0,0,.024-.04v0h0a.328.328,0,0,0,0-.193c-.024-.091-.055-.182-.083-.273-.019-.051-.039-.106-.055-.161a4.744,4.744,0,0,1-.174-1.314c0-.094,0-.189-.008-.288,0-.174-.008-.351-.008-.529,0-.158,0-.316.016-.469,0,0,0-.008.011-.008s.008,0,.008.011c0,.059-.008.118-.008.182-.011.268,0,.544,0,.813,0,.1,0,.193.008.288a4.871,4.871,0,0,0,.169,1.31c.019.052.035.107.056.163.027.086.059.177.082.268a.375.375,0,0,1,.008.2.245.245,0,0,0,.174.008.153.153,0,0,0,.067-.1,1.211,1.211,0,0,0-.161-.509C19.933,17.836,19.894,17.745,19.858,17.654Z" transform="translate(-19.464 -14.32)" fill="#72442b"/></g><g transform="translate(2 1.119)"><path d="M19.923,13.91a.013.013,0,0,1,.013.011.011.011,0,0,1-.013.013.242.242,0,0,0-.209.11l-.011.008h0s-.008,0-.008-.011c-.059-.246-.4-.284-.43-.281-.008,0-.013,0-.013-.008l.008-.011c.032,0,.372.027.447.272A.285.285,0,0,1,19.923,13.91Z" transform="translate(-19.252 -13.741)"/></g><g transform="translate(1.547 1.873)"><path d="M19.247,14.4a.37.37,0,0,1-.094.024.352.352,0,0,1-.027.153,1.058,1.058,0,0,1,.28.71,9.159,9.159,0,0,1-.272,2.351c-.036.091-.075.182-.115.265a1.235,1.235,0,0,0-.161.513.135.135,0,0,0,.067.1.242.242,0,0,0,.173-.008.537.537,0,0,1,.024-.284c.059-.174.107-.3.147-.4a1.9,1.9,0,0,0,.122-.406,3.378,3.378,0,0,0,.036-.446c0-.008,0-.013.011-.013s.008,0,.008.013v.008a2.8,2.8,0,0,1-.035.441,1.947,1.947,0,0,1-.123.41c-.04.1-.086.225-.142.4a.615.615,0,0,0-.035.189.273.273,0,0,0,.011.088.139.139,0,0,0,.1.091.251.251,0,0,0,.2-.032c.106-.072.11-.142.11-.147V14.771A1.233,1.233,0,0,0,19.247,14.4Z" transform="translate(-18.853 -14.404)" fill="#a2652a"/></g><g transform="translate(1.489 1.549)"><path d="M19.141,14.132s0,.007-.013.011c-.083.016-.091.032-.118.118L19,14.285l-.008.008-.008,0c-.078-.055-.161.024-.165.028h-.016c0-.008,0-.013,0-.016a.155.155,0,0,1,.181-.035l0-.013c.027-.086.04-.115.134-.134C19.133,14.119,19.136,14.124,19.141,14.132Z" transform="translate(-18.802 -14.119)"/></g><g transform="translate(1.18 1.118)"><path d="M19.068,13.765c.007,0,.007.008,0,.016h-.016a.114.114,0,0,0-.083-.016.349.349,0,0,0-.189.165l-.013,0h0l-.008-.008a.189.189,0,0,0-.216-.091.021.021,0,0,1-.017-.008c0-.008,0-.011.008-.016a.219.219,0,0,1,.238.091.367.367,0,0,1,.193-.161A.138.138,0,0,1,19.068,13.765Z" transform="translate(-18.53 -13.74)"/></g></g><g transform="translate(0.267)"><g transform="translate(7.029 0.702)"><path d="M23.2,11.919l-.236.165a.023.023,0,0,0-.011.02l.023.292-.26-.127a.024.024,0,0,0-.023,0l-.238.166-.024-.292a.016.016,0,0,0-.011-.016l-.264-.123.241-.165a.037.037,0,0,0,.007-.02l-.024-.288.26.123a.027.027,0,0,0,.024,0l.236-.166.024.292c0,.008.008.013.013.016Z" transform="translate(-22.151 -11.488)" fill="#fed618"/></g><g transform="translate(5.714 0.284)"><path d="M21.977,11.455l-.185.222a.027.027,0,0,0,0,.024l.1.272-.283-.051a.03.03,0,0,0-.025.008l-.185.221-.1-.272a.031.031,0,0,0-.016-.016L21,11.811l.185-.222a.016.016,0,0,0,0-.019l-.1-.272.283.051a.037.037,0,0,0,.02-.008l.189-.222.1.273c0,.008.008.011.016.011Z" transform="translate(-20.995 -11.12)" fill="#fed618"/></g><g transform="translate(4.314 0.064)"><path d="M20.681,11.2l-.15.249a.029.029,0,0,0,0,.024l.139.252-.288,0c-.008,0-.016,0-.02.008l-.15.248-.142-.252c0-.008-.008-.011-.016-.011l-.291-.008.149-.249,0-.019-.142-.257.292.008c.008,0,.011,0,.016-.011l.153-.249.139.257a.02.02,0,0,0,.019.011Z" transform="translate(-19.763 -10.926)" fill="#fed618"/></g><g transform="translate(2.906 0.064)"><path d="M19.292,11.455l.15.249-.288.008a.02.02,0,0,0-.019.011L19,11.975l-.153-.248a.02.02,0,0,0-.016-.008h0l-.292,0,.142-.252a.045.045,0,0,0,0-.024l-.149-.249.291,0c.009,0,.016,0,.016-.011l.142-.257.15.249a.022.022,0,0,0,.019.011l.289-.008-.139.257Z" transform="translate(-18.524 -10.926)" fill="#fed618"/></g><g transform="translate(1.442 0.284)"><path d="M18.036,11.589l.186.222-.284.051a.04.04,0,0,0-.02.016l-.1.272-.186-.221-.015-.008h0l-.288.051.1-.272a.023.023,0,0,0,0-.024l-.189-.222.284-.051a.02.02,0,0,0,.019-.011l.1-.273.185.222a.03.03,0,0,0,.019.008l.289-.051-.1.272C18.029,11.578,18.029,11.586,18.036,11.589Z" transform="translate(-17.236 -11.12)" fill="#fed618"/></g><g transform="translate(0.065 0.702)"><path d="M17.07,12.009l-.26.123a.016.016,0,0,0-.011.016l-.027.292-.238-.166-.011,0h-.013l-.26.127.024-.292a.03.03,0,0,0-.008-.02l-.24-.165.264-.123c.008,0,.013-.008.013-.016l.024-.292.24.166a.017.017,0,0,0,.019,0l.265-.123-.027.288a.023.023,0,0,0,.011.02Z" transform="translate(-16.025 -11.488)" fill="#fed618"/></g><g transform="translate(6.965 0.643)"><path d="M23.27,11.921a.034.034,0,0,0-.016-.019l-.284-.134-.023-.311a.048.048,0,0,0-.016-.02l-.019,0-.261.177-.284-.134a.055.055,0,0,0-.023,0,.03.03,0,0,0-.008.02l.027.315L22.1,12c-.008,0-.008.011-.008.019a.02.02,0,0,0,.011.019l.284.134.028.311a.023.023,0,0,0,.011.02h.008l.016,0,.256-.181.284.138a.058.058,0,0,0,.024,0,.015.015,0,0,0,.008-.02L23,12.123l.26-.182A.02.02,0,0,0,23.27,11.921Zm-.307.169a.03.03,0,0,0-.008.02l.023.292-.26-.127a.016.016,0,0,0-.019,0l-.241.161-.024-.284c0-.011,0-.016-.011-.019l-.264-.123.236-.165a.023.023,0,0,0,.011-.02l-.024-.292.26.127a.027.027,0,0,0,.024,0L22.9,11.5l.024.288a.031.031,0,0,0,.016.016l.26.126Z" transform="translate(-22.095 -11.436)"/></g><g transform="translate(5.649 0.217)"><path d="M22.048,11.441s-.007-.013-.015-.013l-.313-.055-.106-.3c0-.008-.013-.011-.016-.016a.037.037,0,0,0-.02.008l-.2.241-.311-.056c-.008,0-.016,0-.02.008s-.008.016,0,.024l.107.292-.2.244c-.008,0-.008.013,0,.02s.007.011.015.015l.308.056.11.3c0,.008.008.013.016.016h0a.018.018,0,0,0,.016-.008l.206-.24.311.051a.014.014,0,0,0,.019-.008.019.019,0,0,0,0-.02l-.11-.3.2-.241C22.048,11.455,22.052,11.449,22.048,11.441Zm-.248.244a.027.027,0,0,0,0,.024l.1.272-.288-.051a.015.015,0,0,0-.016.008l-.19.221-.1-.272c0-.008-.008-.013-.016-.013L21,11.819l.185-.222a.016.016,0,0,0,0-.019l-.1-.272.283.051a.037.037,0,0,0,.02-.008l.189-.222.1.273c0,.008.008.011.016.011l.284.051Z" transform="translate(-20.937 -11.061)"/></g><g transform="translate(4.256)"><path d="M20.748,11.175a.029.029,0,0,0-.019-.013l-.316,0-.15-.281a.027.027,0,0,0-.039,0l-.163.273-.315-.008a.02.02,0,0,0-.019.011v.02l.149.276-.161.268a.029.029,0,0,0,0,.024.017.017,0,0,0,.016.011l.316.008.153.276c0,.008.008.008.019.008s.013,0,.016-.008l.166-.268.316.008a.021.021,0,0,0,.015-.013.021.021,0,0,0,0-.023l-.149-.276.161-.268C20.748,11.191,20.752,11.183,20.748,11.175Zm-.209.28a.029.029,0,0,0,0,.024l.139.252-.288-.008a.024.024,0,0,0-.02.013l-.15.248-.142-.256s-.008-.008-.016-.013l-.291,0,.149-.249s0-.011,0-.019l-.138-.257.292.008c.008,0,.011,0,.019-.011l.15-.249.139.257a.02.02,0,0,0,.019.011l.288,0Z" transform="translate(-19.712 -10.87)"/></g><g transform="translate(2.847)"><path d="M19.344,11.451l.149-.276v-.02a.019.019,0,0,0-.015-.011l-.316.008L19,10.878a.034.034,0,0,0-.02-.008.03.03,0,0,0-.019.008l-.155.281-.311,0a.023.023,0,0,0-.019.013.023.023,0,0,0,0,.024l.161.268-.15.276a.027.027,0,0,0,0,.023.024.024,0,0,0,.02.013l.315-.008.163.268c0,.008.011.008.019.008s.016,0,.016-.008l.153-.276.316-.008a.022.022,0,0,0,.019-.011.023.023,0,0,0,0-.024Zm-.182.264-.019.013L19,11.983l-.15-.248a.021.021,0,0,0-.019-.013l-.292.008.138-.252a.023.023,0,0,0,0-.024l-.149-.249.291,0c.009,0,.016,0,.016-.011l.142-.257.15.249a.022.022,0,0,0,.019.011l.289-.008-.139.257a.019.019,0,0,0,0,.019l.15.249Z" transform="translate(-18.472 -10.87)"/></g><g transform="translate(1.379 0.217)"><path d="M18.285,11.823l-.2-.244.107-.292a.02.02,0,0,0,0-.024c0-.008-.011-.008-.019-.008l-.308.056-.2-.241a.037.037,0,0,0-.02-.008c-.007,0-.015.008-.015.016l-.11.3-.308.055a.017.017,0,0,0-.016.013.017.017,0,0,0,0,.023l.2.241-.107.3a.019.019,0,0,0,0,.02.015.015,0,0,0,.019.008l.313-.051.2.24.015.008h0a.034.034,0,0,0,.019-.016l.107-.3.308-.056a.032.032,0,0,0,.019-.015C18.293,11.835,18.293,11.827,18.285,11.823Zm-.339.051a.024.024,0,0,0-.02.013l-.1.272-.186-.221a.018.018,0,0,0-.015-.008h0l-.288.051.1-.272a.045.045,0,0,0,0-.024l-.189-.222.288-.051a.016.016,0,0,0,.016-.011l.1-.273.185.222a.03.03,0,0,0,.019.008l.289-.051-.1.272c0,.008,0,.016,0,.019l.19.222Z" transform="translate(-17.181 -11.061)"/></g><g transform="translate(0 0.642)"><path d="M17.133,12l-.257-.178.024-.315c0-.008,0-.016-.008-.02l-.019,0-.289.134-.256-.177a.027.027,0,0,0-.024,0s-.011.013-.011.02l-.028.311-.284.134a.022.022,0,0,0-.011.019.014.014,0,0,0,.008.019l.26.182-.027.311a.037.037,0,0,0,.008.02.058.058,0,0,0,.024,0l.288-.138.256.181.013,0h.008a.048.048,0,0,0,.016-.02l.024-.311.288-.134.011-.019A.02.02,0,0,0,17.133,12Zm-.316.138c-.008,0-.016.008-.016.019l-.019.284-.241-.161-.011,0h-.008l-.265.127.024-.292c0-.008,0-.016-.008-.02l-.236-.161.26-.126c.008,0,.013-.008.013-.016l.024-.288.236.161a.024.024,0,0,0,.023,0l.265-.127-.027.292a.023.023,0,0,0,.011.02l.236.165Z" transform="translate(-15.968 -11.435)"/></g></g><g transform="translate(0 1.649)"><g transform="translate(1.503)"><path d="M22.7,12.321H17.079a.023.023,0,0,0-.024.024v5.969a1.023,1.023,0,0,0,1.026,1.022h.99a.833.833,0,0,1,.533.2l.272.225.011,0c.008,0,.013,0,.016,0l.268-.225a.833.833,0,0,1,.533-.2H21.7a1.021,1.021,0,0,0,1.021-1.022V12.345C22.72,12.334,22.712,12.321,22.7,12.321Zm-.019,5.993a.986.986,0,0,1-.982.983h-.995a.875.875,0,0,0-.56.2l-.257.213-.256-.213a.878.878,0,0,0-.56-.2h-.99a.985.985,0,0,1-.982-.983v-5.95h5.582Z" transform="translate(-17.055 -12.321)"/></g><g transform="translate(0 4.399)"><path d="M24.113,18.089c.4-.23.3-.612.228-.892-.007-.027-.016-.059-.019-.083-.072-.3-.177-.9-.182-.9a.021.021,0,0,0-.019-.02c-.013,0-.019.008-.024.02a1.655,1.655,0,0,1-.537.875.878.878,0,0,0-.19.284c-.023.063-.047.15-.019.193a.06.06,0,0,0,.036.027l.326.544-.082.1a1.328,1.328,0,0,1-.493.406c-.036.016-.072.035-.1.048a2.475,2.475,0,0,1-1.495.252c-.335-.02-.454-.013-.5.039-.032.036-.024.08-.019.139l0,.011v.477a3.52,3.52,0,0,1-.95.075h0a3.521,3.521,0,0,1-.95-.075v-.489a.164.164,0,0,0-.019-.139c-.048-.051-.166-.059-.5-.039a2.457,2.457,0,0,1-1.491-.252c-.035-.013-.07-.032-.107-.048a1.393,1.393,0,0,1-.493-.406c-.023-.028-.051-.064-.078-.1l.323-.544a.072.072,0,0,0,.04-.027.262.262,0,0,0-.024-.193.851.851,0,0,0-.189-.288,1.64,1.64,0,0,1-.537-.872.022.022,0,0,0-.02-.02.022.022,0,0,0-.023.02c0,.007-.111.6-.182.9a.662.662,0,0,1-.019.083c-.072.281-.166.663.232.892-.039.11-.09.228-.15.358a.294.294,0,0,0,0,.268,1.8,1.8,0,0,0,.656.731A3.178,3.178,0,0,0,18,19.9c.2.016.379.028.548.04v.324h0l0,.007v0h0v0l0,0a2.536,2.536,0,0,0,1.321.308c.1,0,.174,0,.185,0s.084,0,.186,0a2.561,2.561,0,0,0,1.325-.308v0l0,0h0v-.011h0v-.324c.169-.011.351-.024.548-.04a3.144,3.144,0,0,0,1.468-.449,1.828,1.828,0,0,0,.659-.731.316.316,0,0,0,0-.268A3.447,3.447,0,0,1,24.113,18.089Zm-.71-.541a.016.016,0,0,1-.015-.008.225.225,0,0,1,.027-.153.761.761,0,0,1,.177-.268,1.8,1.8,0,0,0,.524-.8c.036.182.111.576.163.8l.024.083c.063.268.153.627-.206.84a2.191,2.191,0,0,1-.107-.433v0c0-.008,0-.016,0-.024s-.008-.039-.013-.055a.228.228,0,0,0-.149-.147.277.277,0,0,0-.225.064l-.013,0-.047.036a.61.61,0,0,1-.107.059A.042.042,0,0,1,23.4,17.548Zm.035.043.013-.008a.558.558,0,0,0,.115-.063c.015-.013.031-.02.047-.032l.013-.008c.059-.035.122-.078.189-.055a.2.2,0,0,1,.123.118.122.122,0,0,1,.008.043l0,.008v.019a.337.337,0,0,1-.011.123,1.277,1.277,0,0,1-.2.363ZM16.4,18.1a1.148,1.148,0,0,1-.193-.363.34.34,0,0,1-.013-.123v-.027c0-.016.008-.032.013-.043a.188.188,0,0,1,.122-.118c.064-.024.131.019.19.055l.011.008c.016.011.032.019.048.032a.4.4,0,0,0,.114.063l.008.008Zm-.56-.9a.517.517,0,0,0,.019-.083c.056-.228.131-.623.161-.8a1.773,1.773,0,0,0,.529.8.843.843,0,0,1,.178.273.242.242,0,0,1,.023.153.016.016,0,0,1-.015.008c-.008,0-.02,0-.032,0a.57.57,0,0,1-.1-.059.435.435,0,0,1-.048-.036l-.011,0a.282.282,0,0,0-.225-.064.241.241,0,0,0-.155.147c0,.016-.008.032-.011.051v0a.045.045,0,0,1,0,.024v0a1.9,1.9,0,0,1-.106.433C15.682,17.832,15.773,17.473,15.84,17.2Zm2.71,2.167v.516c-.166-.008-.343-.019-.544-.035a3.176,3.176,0,0,1-1.448-.442,1.786,1.786,0,0,1-.639-.714.256.256,0,0,1,0-.228,3.638,3.638,0,0,0,.161-.383h0a2.677,2.677,0,0,0,.091-.327,1.33,1.33,0,0,0,.217.394v0c.031.039.063.078.091.11a1.49,1.49,0,0,0,.508.422c.036.013.067.027.1.043a2.5,2.5,0,0,0,1.514.26c.308-.019.431-.015.466.024.016.016.016.043.008.1C18.845,19.146,18.574,19.214,18.55,19.372Zm.525-.214V19.6a1.649,1.649,0,0,1-.482-.2v-.024C18.617,19.237,18.92,19.178,19.075,19.158Zm2.469,1.089a2.873,2.873,0,0,1-1.471.292h0a2.893,2.893,0,0,1-1.475-.292v-.8a1.615,1.615,0,0,0,.5.2,3.5,3.5,0,0,0,.8.09c.1,0,.165,0,.173,0s.075,0,.174,0a3.477,3.477,0,0,0,.8-.09,1.608,1.608,0,0,0,.5-.2Zm0-.848a1.664,1.664,0,0,1-.476.2v-.442c.153.02.457.08.476.217Zm2.679-.7a1.812,1.812,0,0,1-.639.714,3.2,3.2,0,0,1-1.452.442c-.2.016-.375.027-.544.035v-.516c-.013-.08-.088-.134-.185-.178a1.534,1.534,0,0,0-.34-.078c0-.056-.008-.083.008-.1.035-.039.161-.043.466-.027a2.478,2.478,0,0,0,1.514-.257l.1-.043a1.47,1.47,0,0,0,.513-.422c.027-.032.055-.072.091-.115a1.3,1.3,0,0,0,.213-.394,2.087,2.087,0,0,0,.094.327h0a3.825,3.825,0,0,0,.158.383A.26.26,0,0,1,24.223,18.7Z" transform="translate(-15.733 -16.191)"/><g transform="translate(0.521 2.328)"><path d="M16.629,18.4l-.216.221a.153.153,0,0,1-.048.035.058.058,0,0,1-.059-.016.065.065,0,0,1-.024-.063.153.153,0,0,1,.035-.048l.217-.225-.063-.063-.225.225a.154.154,0,0,0-.056.11.2.2,0,0,0,.067.107.182.182,0,0,0,.115.067.159.159,0,0,0,.1-.059l.222-.23Z" transform="translate(-16.191 -18.239)"/><g transform="translate(0.3 0.26)"><path d="M16.9,18.594l-.051.075a.418.418,0,0,1-.04.067.223.223,0,0,0-.019.024l-.008.016-.064.114a.085.085,0,0,1,.008-.039.051.051,0,0,0,0-.02.2.2,0,0,0,.008-.024c0-.007,0-.015,0-.019a.154.154,0,0,0,.008-.043c0-.011.008-.027.011-.043l.032-.177-.078-.056-.257.379.075.051.051-.067.067-.11.067-.115a1.317,1.317,0,0,0-.048.19l-.031.174.078.055.257-.379Z" transform="translate(-16.455 -18.468)"/></g><g transform="translate(0.679 0.469)"><path d="M16.994,18.652l-.206.406.083.044.206-.407Z" transform="translate(-16.788 -18.652)"/></g><g transform="translate(0.888 0.544)"><path d="M17.347,18.809a.141.141,0,0,0-.047-.032l-.19-.059-.139.434.166.055.035.008h.035a.142.142,0,0,0,.092-.075.253.253,0,0,0,.023-.051.283.283,0,0,0,.027-.075.2.2,0,0,0,.008-.024c0-.011,0-.019.008-.027A.16.16,0,0,0,17.347,18.809Zm-.086.185a.442.442,0,0,1-.056.126.08.08,0,0,1-.086.011l-.036-.016.1-.3.059.016c.032.011.043.035.043.075C17.28,18.919,17.272,18.946,17.261,18.994Z" transform="translate(-16.972 -18.718)"/></g><g transform="translate(1.279 0.666)"><path d="M17.639,18.849l-.126-.024-.2.431.1.016.044-.11.106.019,0,.118.1.019Zm-.078.1v.035l0,.131-.078-.013.048-.122a.09.09,0,0,0,.011-.032l0-.016a.026.026,0,0,0,0-.016l.008-.011a.089.089,0,0,1,0-.016Z" transform="translate(-17.316 -18.825)"/></g><g transform="translate(1.705 0.714)"><path d="M17.982,18.907a.079.079,0,0,0-.055-.02l-.193-.019-.043.454.173.016.04,0c.011,0,.024,0,.032-.008a.158.158,0,0,0,.075-.1.4.4,0,0,0,.011-.055.374.374,0,0,0,.008-.08.049.049,0,0,0,0-.027c0-.008,0-.016,0-.024A.158.158,0,0,0,17.982,18.907Zm-.043.2a.422.422,0,0,1-.027.134.078.078,0,0,1-.078.028l-.044,0,.032-.319.064,0a.06.06,0,0,1,.055.063A.309.309,0,0,1,17.939,19.1Z" transform="translate(-17.691 -18.867)"/></g></g><g transform="translate(5.961 2.288)"><g transform="translate(0 0.766)"><path d="M21.226,18.878l-.094,0,0,.347a.092.092,0,0,1,0,.036.03.03,0,0,1-.028.016.033.033,0,0,1-.023-.008l-.008-.02v-.059h-.1c0,.032,0,.056,0,.067a.2.2,0,0,0,.011.043.113.113,0,0,0,.1.044.35.35,0,0,0,.067-.008c.04-.008.064-.028.067-.064a.116.116,0,0,0,0-.051Z" transform="translate(-20.977 -18.878)"/></g><g transform="translate(0.316 0.73)"><path d="M21.571,18.846l-.091.013.032.307a.111.111,0,0,1,0,.064c0,.019-.024.027-.051.032s-.051,0-.059-.02a.16.16,0,0,1-.016-.063l-.032-.308-.094.013.036.315a.136.136,0,0,0,.047.11.191.191,0,0,0,.123.02.169.169,0,0,0,.122-.051.156.156,0,0,0,.024-.115Z" transform="translate(-21.255 -18.846)"/></g><g transform="translate(0.712 0.678)"><path d="M21.95,19.117a.134.134,0,0,0-.06-.086A.262.262,0,0,0,21.827,19l-.064-.024-.043-.019a.061.061,0,0,1-.024-.035c0-.016,0-.028.008-.035a.072.072,0,0,1,.036-.016c.035-.008.059.016.07.07l.086-.019a.231.231,0,0,0-.035-.088.133.133,0,0,0-.134-.031c-.1.019-.138.067-.122.146a.114.114,0,0,0,.035.067c.016.008.032.013.043.019s.027.013.04.016.043.02.059.028a.125.125,0,0,1,.07.063c.008.035-.008.056-.047.064a.047.047,0,0,1-.048-.013.094.094,0,0,1-.024-.051l0-.027-.094.019.007.032a.134.134,0,0,0,.051.091.177.177,0,0,0,.123.016.149.149,0,0,0,.1-.051A.115.115,0,0,0,21.95,19.117Z" transform="translate(-21.603 -18.801)"/></g><g transform="translate(1.019 0.568)"><path d="M22.086,18.8l.107-.032-.019-.067-.3.094.019.064L22,18.827l.11.374.091-.027Z" transform="translate(-21.873 -18.704)"/></g><g transform="translate(1.341 0.509)"><path d="M22.245,18.652l-.088.043.206.41.083-.043Z" transform="translate(-22.157 -18.652)"/></g><g transform="translate(1.528 0.348)"><path d="M22.707,18.731l-.013-.019-.078.055a.276.276,0,0,1,.035.056.045.045,0,0,1-.011.055.06.06,0,0,1-.072,0,.116.116,0,0,1-.043-.043l-.083-.115a.174.174,0,0,1-.027-.059.052.052,0,0,1,.024-.064c.016-.011.031-.007.051,0l.011.008,0,0,.019.024.075-.051,0-.008-.008-.008-.008-.011a.117.117,0,0,0-.182-.016.157.157,0,0,0-.078.126.335.335,0,0,0,.067.134l.035.051c.043.059.078.1.11.107s.086.008.146-.032a.134.134,0,0,0,.064-.094A.233.233,0,0,0,22.707,18.731Z" transform="translate(-22.321 -18.51)"/></g><g transform="translate(1.768 0.206)"><path d="M22.6,18.385l-.067.063.308.335.067-.063Z" transform="translate(-22.532 -18.385)"/></g><g transform="translate(1.945)"><path d="M22.776,18.2l-.088.1.253.4.067-.07-.067-.1.075-.08.1.059.067-.07Zm.126.268-.075-.11a.119.119,0,0,0-.019-.024l-.013-.016-.008-.008-.011-.015-.008-.013.048.035.016.013.015.008.11.07Z" transform="translate(-22.688 -18.204)"/></g></g><g transform="translate(3.815 3.713)"><path d="M19.405,19.524a.1.1,0,0,0-.086-.051l-.19-.016-.04.454.091.008.019-.189.064,0a.115.115,0,0,0,.056,0,.1.1,0,0,0,.086-.059.142.142,0,0,0,.016-.059A.129.129,0,0,0,19.405,19.524Zm-.15.142-.051,0,.011-.131.044,0a.135.135,0,0,1,.055.011c.013.011.016.027.016.056A.061.061,0,0,1,19.255,19.666Z" transform="translate(-19.089 -19.457)"/><g transform="translate(0.351 0.032)"><path d="M19.647,19.485h-.126l-.123.454h.1l.027-.115h.11l.024.115.1,0Zm-.107.272.027-.13a.058.058,0,0,0,0-.027.051.051,0,0,0,0-.02v-.016l0-.016,0-.015,0,.059a.05.05,0,0,0,0,.023v.013l.028.13Z" transform="translate(-19.398 -19.485)"/></g><g transform="translate(0.73)"><path d="M20.055,19.843l-.166.02-.027,0,.15-.343,0-.067-.276.027.008.067.155-.015.023,0-.149.343.008.067.288-.032Z" transform="translate(-19.731 -19.457)"/></g></g></g></g></g></g></svg>