<svg xmlns="http://www.w3.org/2000/svg" xmlns:xlink="http://www.w3.org/1999/xlink" width="35" height="35" viewBox="0 0 35 35">
  <defs>
    <clipPath id="clip-path">
      <path id="Path_10311" data-name="Path 10311" d="M10.453,249.586a17.5,17.5,0,1,0,17.5-17.5,17.5,17.5,0,0,0-17.5,17.5" fill="none"/>
    </clipPath>
  </defs>
  <g id="Niger" transform="translate(-634.516 -843.087)">
    <g id="Group_10796" data-name="Group 10796" transform="translate(624.063 611)" clip-path="url(#clip-path)">
      <rect id="Rectangle_380" data-name="Rectangle 380" width="55.656" height="35.125" transform="translate(0.125 232.024)" fill="#fff"/>
      <rect id="Rectangle_381" data-name="Rectangle 381" width="55.656" height="35.125" transform="translate(0.125 232.024)" fill="none" stroke="#020202" stroke-width="0.25"/>
      <rect id="Rectangle_382" data-name="Rectangle 382" width="55.656" height="11.709" transform="translate(0.125 232.024)" fill="#de5212"/>
      <rect id="Rectangle_383" data-name="Rectangle 383" width="55.656" height="11.707" transform="translate(0.125 255.442)" fill="#2fa736"/>
      <rect id="Rectangle_384" data-name="Rectangle 384" width="55.656" height="35.125" transform="translate(0.125 232.024)" fill="none" stroke="#020202" stroke-width="0.25"/>
      <rect id="Rectangle_385" data-name="Rectangle 385" width="55.656" height="35.125" transform="translate(0.125 232.024)" fill="none" stroke="#020202" stroke-width="0.25"/>
      <path id="Path_10310" data-name="Path 10310" d="M32.135,249.586a4.364,4.364,0,0,1-4.183,4.525,4.539,4.539,0,0,1,0-9.05,4.364,4.364,0,0,1,4.183,4.525" fill="#de5212"/>
    </g>
  </g>
</svg>
