<svg xmlns="http://www.w3.org/2000/svg" width="35.153" height="35.153" viewBox="0 0 35.153 35.153"><g transform="translate(0.001)"><g transform="translate(-0.001 0)"><path d="M17.456,0A17.6,17.6,0,0,0,.885,11.717H34.026A17.6,17.6,0,0,0,17.456,0Z" transform="translate(0.121)"/><path d="M35.153,16.167a17.478,17.478,0,0,0-1.006-5.859H1.006a17.563,17.563,0,0,0,0,11.717H34.147A17.5,17.5,0,0,0,35.153,16.167Z" transform="translate(0 1.409)" fill="#dc0201"/><path d="M.885,20.616a17.575,17.575,0,0,0,33.141,0Z" transform="translate(0.121 2.819)" fill="#fecd17"/></g></g></svg>