<svg xmlns="http://www.w3.org/2000/svg" width="35.157" height="35.153" viewBox="0 0 35.157 35.153"><g transform="translate(0)"><g transform="translate(0 0)"><path d="M8.79,2.076V32.509a17.566,17.566,0,0,1,0-30.433Z" transform="translate(0 0.284)" fill="#04267d"/><path d="M25.309,2.36V32.793a17.543,17.543,0,0,1-17.576,0V2.36a17.543,17.543,0,0,1,17.576,0Z" transform="translate(1.057)" fill="#fec62d"/><path d="M31.985,17.292a17.581,17.581,0,0,1-8.79,15.217V2.076A17.588,17.588,0,0,1,31.985,17.292Z" transform="translate(3.171 0.284)" fill="#04267d"/><path d="M23.849,10.391a7.4,7.4,0,0,0-3.89,1.98.026.026,0,0,0,.027.043c.2-.051.517-.13.718-.177a.1.1,0,0,1,.118.131c-.182.509-.379,1.014-.572,1.515a12.472,12.472,0,0,0-.589,2.015c-.1.43-.192.868-.276,1.3-.043.221-.082.438-.122.658-.024.155-.1.671-.139.966a.143.143,0,0,1-.165.127L17.256,18.7V12.167a8.4,8.4,0,0,1,1.488.2c-1.054-.776-2.371-4.391-2.371-4.395S15.055,11.587,14,12.364a8.456,8.456,0,0,1,1.488-.2V18.7l-1.705.249a.145.145,0,0,1-.165-.127c-.04-.3-.115-.812-.139-.966-.039-.221-.078-.438-.122-.658-.083-.434-.174-.873-.276-1.3a12.468,12.468,0,0,0-.588-2.015c-.194-.5-.391-1.006-.573-1.515a.1.1,0,0,1,.118-.131c.2.048.522.126.718.177a.026.026,0,0,0,.027-.043,7.4,7.4,0,0,0-3.89-1.98.049.049,0,0,0-.047.075,31.571,31.571,0,0,1,2.264,4.58,20,20,0,0,1,1.009,3.989,14.156,14.156,0,0,1,.185,1.791h0l3.181-.477v4.656h1.771V20.349l3.181.477h0a14.368,14.368,0,0,1,.185-1.791,20,20,0,0,1,1.009-3.989,31.138,31.138,0,0,1,2.269-4.58A.052.052,0,0,0,23.849,10.391Z" transform="translate(1.208 1.09)"/></g></g></svg>