<svg xmlns="http://www.w3.org/2000/svg" width="35.153" height="35.153" viewBox="0 0 35.153 35.153"><g transform="translate(0)"><g transform="translate(0 0)"><path d="M17.5,19.679H.587a17.32,17.32,0,0,0,1.258,3.2H33.151a17.323,17.323,0,0,0,1.259-3.2Z" transform="translate(0.08 2.691)" fill="#fff"/><path d="M17.344,22.491H1.694a17.616,17.616,0,0,0,2.1,3.2h27.1A17.693,17.693,0,0,0,33,22.491Z" transform="translate(0.232 3.075)" fill="#bf0a30"/><path d="M16.676,28.113H6.581a17.5,17.5,0,0,0,10.1,3.2h0a17.488,17.488,0,0,0,10.1-3.2Z" transform="translate(0.9 3.844)" fill="#bf0a30"/><path d="M17.091,25.3H3.544A17.786,17.786,0,0,0,7,28.5H27.188a17.72,17.72,0,0,0,3.452-3.2Z" transform="translate(0.485 3.459)" fill="#fff"/><path d="M17.567,16.868H.066a17.444,17.444,0,0,0,.592,3.2H34.481a17.539,17.539,0,0,0,.591-3.2Z" transform="translate(0.009 2.306)" fill="#bf0a30"/><path d="M25.558,3.2A17.487,17.487,0,0,0,15.462,0h0V3.2Z" transform="translate(2.114)" fill="#bf0a30"/><path d="M15.462,11.629H32.376a17.344,17.344,0,0,0-1.259-3.2H15.462Z" transform="translate(2.114 1.153)" fill="#fff"/><path d="M15.462,8.818H31.117a17.818,17.818,0,0,0-2.1-3.2H15.462Z" transform="translate(2.114 0.769)" fill="#bf0a30"/><path d="M15.462,6.007H29.014a17.713,17.713,0,0,0-3.456-3.2h-10.1Z" transform="translate(2.114 0.384)" fill="#fff"/><path d="M15.462,14.441H32.968a17.552,17.552,0,0,0-.591-3.2H15.462Z" transform="translate(2.114 1.537)" fill="#bf0a30"/><path d="M7.472,3.2a17.791,17.791,0,0,0-3.452,3.2A17.489,17.489,0,0,0,.066,15.979h17.5V0A17.494,17.494,0,0,0,7.472,3.2Z" transform="translate(0.009)" fill="#002868"/><path d="M35.081,14.057H.075C.027,14.581,0,15.114,0,15.654s.027,1.073.075,1.6H35.081q.072-.788.072-1.6T35.081,14.057Z" transform="translate(0 1.922)" fill="#fff"/><path d="M9.361,3.943l1.061,3.271h3.44L11.081,9.237l1.061,3.271-2.781-2.02-2.785,2.02L7.641,9.237,4.856,7.213H8.3Z" transform="translate(0.664 0.539)" fill="#fff"/></g></g></svg>