<svg xmlns="http://www.w3.org/2000/svg" width="35.169" height="35.169" viewBox="0 0 35.169 35.169"><g transform="translate(-0.001)"><g transform="translate(0.001 0)"><path d="M35.169,17.581A17.576,17.576,0,0,1,21.111,34.81a17.475,17.475,0,0,1-7.05,0,17.626,17.626,0,0,1-13.7-13.7,17.481,17.481,0,0,1,0-7.051,17.583,17.583,0,0,1,34.81,3.524Z" fill="#fff"/><path d="M35.169,17.581a17.552,17.552,0,0,1-.356,3.527h-13.7v13.7a17.475,17.475,0,0,1-7.05,0v-13.7H.359a17.481,17.481,0,0,1,0-7.051h13.7V.355a17.695,17.695,0,0,1,7.05,0v13.7h13.7A17.594,17.594,0,0,1,35.169,17.581Z" fill="#ff0302"/><g transform="translate(5.073 5.48)"><path d="M11.2,8.21c0-.3.043-1.183.043-1.183s-1.408.182-2.481.273c.094-1.07.276-2.478.276-2.478s-.888.043-1.188.043-1.188-.043-1.188-.043.186,1.408.276,2.478c-1.07-.091-2.478-.273-2.478-.273s.044.888.044,1.183S4.463,9.4,4.463,9.4s1.408-.182,2.478-.276c-.09,1.073-.276,2.481-.276,2.481s.892-.043,1.188-.043,1.188.043,1.188.043-.182-1.408-.276-2.481c1.073.094,2.481.276,2.481.276S11.2,8.51,11.2,8.21Z" transform="translate(-4.463 -4.821)" fill="#ff0302"/><g transform="translate(0 17.328)"><path d="M11.2,23.454c0-.3.043-1.188.043-1.188s-1.408.185-2.481.276c.094-1.069.276-2.477.276-2.477s-.888.043-1.188.043-1.188-.043-1.188-.043.186,1.408.276,2.477c-1.07-.091-2.478-.276-2.478-.276s.044.892.044,1.188-.044,1.188-.044,1.188,1.408-.182,2.478-.276c-.09,1.073-.276,2.481-.276,2.481s.892-.048,1.188-.048,1.188.048,1.188.048-.182-1.408-.276-2.481c1.073.094,2.481.276,2.481.276S11.2,23.754,11.2,23.454Z" transform="translate(-4.463 -20.065)" fill="#ff0302"/></g><g transform="translate(18.243 17.328)"><path d="M27.247,23.454c0-.3.048-1.188.048-1.188s-1.41.185-2.483.276c.1-1.069.276-2.477.276-2.477s-.888.043-1.187.043-1.188-.043-1.188-.043.185,1.408.276,2.477c-1.07-.091-2.478-.276-2.478-.276s.044.892.044,1.188-.044,1.188-.044,1.188,1.408-.182,2.478-.276c-.091,1.073-.276,2.481-.276,2.481s.891-.048,1.188-.048,1.187.048,1.187.048-.181-1.408-.276-2.481c1.073.094,2.483.276,2.483.276S27.247,23.754,27.247,23.454Z" transform="translate(-20.512 -20.065)" fill="#ff0302"/></g><g transform="translate(18.243)"><path d="M27.247,8.21c0-.3.048-1.183.048-1.183s-1.41.182-2.483.273c.1-1.07.276-2.478.276-2.478s-.888.043-1.187.043-1.188-.043-1.188-.043S22.9,6.229,22.99,7.3c-1.07-.091-2.478-.273-2.478-.273s.044.888.044,1.183S20.512,9.4,20.512,9.4s1.408-.182,2.478-.276c-.091,1.073-.276,2.481-.276,2.481s.891-.043,1.188-.043,1.187.043,1.187.043-.181-1.408-.276-2.481c1.073.094,2.483.276,2.483.276S27.247,8.51,27.247,8.21Z" transform="translate(-20.512 -4.821)" fill="#ff0302"/></g></g></g></g></svg>