<svg xmlns="http://www.w3.org/2000/svg" width="35.169" height="35.169" viewBox="0 0 35.169 35.169"><g transform="translate(0 0)"><path d="M35.169,17.584A17.585,17.585,0,0,1,1.006,23.447,17.584,17.584,0,1,1,34.162,11.722,17.5,17.5,0,0,1,35.169,17.584Z" fill="#fff"/><path d="M34.041,11.722H.885a17.584,17.584,0,0,1,33.156,0Z" transform="translate(0.121)" fill="#f93"/><path d="M34.041,20.627a17.584,17.584,0,0,1-33.156,0Z" transform="translate(0.121 2.82)" fill="#128807"/><g transform="translate(12.878 12.878)"><path d="M16.585,16.49l.011-.008,0-.008.011-.011.008-.016.008-.008,0-.008a.048.048,0,0,0,.013-.016l0-.008.64.485L19.5,18.009l-2.076-1.365-.738-.311,0-.008.008-.013,0-.011,0-.013.008-.011c0-.008,0-.011,0-.016l0-.011,0-.013.008-.011v-.013l.742.3,2.434.5-2.36-.781-.792-.111,0-.007v-.016l0-.013v-.011s0-.008,0-.016v-.016l0-.008V16l.8.1,2.477-.142-2.477-.142-.8.1v-.035l0-.013v-.015l0-.016v-.008l0-.016V15.8l0-.011.792-.11,2.36-.778-2.434.5-.742.3V15.7l-.008-.016,0-.011,0-.008c0-.008,0-.011,0-.016l-.008-.016,0-.008,0-.011L16.7,15.6l0-.008.738-.311L19.5,13.917l-2.217,1.117-.64.481,0-.008-.013-.011,0-.013-.008-.008-.008-.011-.011-.011,0-.008-.011-.013-.008-.011-.008-.008.631-.49,1.653-1.854L17,14.722l-.493.632-.008-.008-.013-.008-.008-.008-.008-.008-.015-.008-.013-.011-.008,0-.011-.008-.013-.008-.008-.008.482-.639,1.121-2.218-1.365,2.076-.311.738-.008,0-.016-.008-.008,0-.013,0-.016-.008-.011,0-.011,0-.013,0-.011,0-.013,0,.3-.742.5-2.43-.776,2.355-.111.793h-.007a.028.028,0,0,0-.016,0l-.013,0h-.011l-.016,0h-.024a.022.022,0,0,1-.016,0H16l.1-.793-.143-2.481-.142,2.481.1.793h-.024l-.011,0h-.027l-.016,0h-.011l-.013,0a.026.026,0,0,0-.016,0h-.008l-.11-.793L14.9,12.012l.5,2.43.3.742-.011,0-.013,0-.011,0-.013,0-.011,0-.016.008-.011,0-.008,0-.016.008-.008,0-.311-.738-1.362-2.076,1.117,2.218.481.639-.008.008-.011.008-.013.008-.008,0-.011.011-.016.008-.008.008-.007.008-.013.008-.008.008-.493-.632-1.851-1.653,1.654,1.854.631.49-.008.008-.008.011-.013.013,0,.008-.011.011-.008.011-.008.008,0,.013-.011.011,0,.008-.64-.481-2.218-1.117,2.076,1.362.738.311,0,.008-.008.016,0,.011,0,.008-.008.016s0,.008,0,.016l0,.008,0,.011-.007.016v.008l-.742-.3-2.434-.5,2.359.778.793.11,0,.011v.013l0,.016v.008l0,.016v.015l0,.013v.035l-.8-.1-2.478.142,2.478.142.8-.1v.04l0,.008v.016c0,.008,0,.011,0,.016V16.1l0,.013v.016l0,.007-.793.111-2.359.781,2.434-.5.742-.3v.013l.007.011,0,.013,0,.011s0,.008,0,.016l.008.011,0,.013,0,.011.008.013,0,.008-.738.311-2.076,1.365,2.218-1.117.64-.485,0,.008a.048.048,0,0,0,.011.016l0,.008.008.008.008.016.011.011,0,.008.013.008.008.013.008.008L14.723,17l-1.654,1.849L14.92,17.2l.493-.632.008,0,.013.011.007.008.008,0,.016.011.011.008.008.008.013.008.011.008.008,0-.481.639L13.917,19.5l1.362-2.076.311-.738.008,0,.016.008.008,0,.011,0,.016.008.011,0,.013,0,.011,0,.013.008.011,0-.3.742-.5,2.43.778-2.36.11-.792.008,0h.016l.013,0h.011l.016,0h.015l.013,0h.035l-.1.8.142,2.477.143-2.477-.1-.8h.04l.008,0h.016l.016,0H16.1l.013,0h.016l.007,0,.111.792.776,2.36-.5-2.43-.3-.742.013,0,.011-.008.013,0,.011,0,.011,0,.016-.008.013,0,.008,0,.016-.008.008,0,.311.738L18.009,19.5l-1.121-2.218-.482-.639.008,0,.013-.008.011-.008.008-.008.013-.008.015-.011.008,0,.008-.008.013-.011.008,0L17,17.2l1.849,1.648L17.2,17l-.631-.493.008-.008Z" transform="translate(-11.255 -11.255)" fill="#008"/><path d="M16.035,11.329a4.707,4.707,0,1,0,4.707,4.706A4.705,4.705,0,0,0,16.035,11.329Zm4.021,5.46c.008,0,.019,0,.028,0a3.857,3.857,0,0,1-.171.639.206.206,0,0,0-.264.083.21.21,0,0,0,.074.288l.028.013a4.026,4.026,0,0,1-.332.572.206.206,0,0,0-.28.016.209.209,0,0,0,0,.292.119.119,0,0,0,.024.019,3.7,3.7,0,0,1-.469.465.21.21,0,0,0-.273-.055.207.207,0,0,0-.075.284c0,.011.013.016.016.024a3.914,3.914,0,0,1-.572.331.206.206,0,0,0-.249-.126.209.209,0,0,0-.146.257.062.062,0,0,0,.008.027,4.2,4.2,0,0,1-.64.169.205.205,0,0,0-.2-.185.208.208,0,0,0-.209.209.075.075,0,0,0,0,.027c-.106.008-.213.013-.319.013s-.228,0-.339-.013a.212.212,0,0,0-.155-.232.2.2,0,0,0-.256.146c0,.011,0,.019-.008.027a3.921,3.921,0,0,1-.639-.169.21.21,0,0,0-.083-.265.206.206,0,0,0-.284.075.09.09,0,0,0-.016.028,3.928,3.928,0,0,1-.568-.332.215.215,0,0,0-.016-.28.218.218,0,0,0-.3,0c0,.008-.011.016-.015.024a4.041,4.041,0,0,1-.466-.469.2.2,0,0,0,.056-.268.209.209,0,0,0-.284-.08c-.013,0-.016.013-.024.016a4.1,4.1,0,0,1-.332-.572.205.205,0,0,0,.126-.249.2.2,0,0,0-.252-.146.077.077,0,0,0-.031.008,4.289,4.289,0,0,1-.171-.635.21.21,0,0,0-.023-.418.1.1,0,0,0-.028,0c-.008-.106-.011-.213-.011-.319a3.033,3.033,0,0,1,.016-.339.21.21,0,0,0,.083-.41.162.162,0,0,0-.032-.008,4.44,4.44,0,0,1,.173-.635.209.209,0,0,0,.19-.371.085.085,0,0,0-.027-.016,5.218,5.218,0,0,1,.331-.568.21.21,0,0,0,.281-.311c-.008-.008-.016-.011-.024-.019a3.711,3.711,0,0,1,.469-.466.208.208,0,0,0,.347-.228c0-.008-.011-.016-.016-.024a3.906,3.906,0,0,1,.573-.327.208.208,0,0,0,.394-.131.1.1,0,0,0-.008-.031,3.711,3.711,0,0,1,.639-.166.208.208,0,0,0,.415-.024.08.08,0,0,0,0-.032c.107-.008.214-.011.319-.011a3.141,3.141,0,0,1,.343.016.208.208,0,0,0,.407.083.124.124,0,0,1,.008-.028,4.6,4.6,0,0,1,.639.169.213.213,0,0,0,.083.268.207.207,0,0,0,.284-.078.072.072,0,0,0,.016-.027,3.941,3.941,0,0,1,.572.335.207.207,0,0,0,.308.276.119.119,0,0,0,.019-.024,4.216,4.216,0,0,1,.465.469.208.208,0,0,0,.23.347.058.058,0,0,0,.024-.016,3.926,3.926,0,0,1,.331.573.209.209,0,0,0-.126.248.214.214,0,0,0,.257.15.221.221,0,0,1,.027-.011,4.185,4.185,0,0,1,.169.639.208.208,0,0,0-.185.209.205.205,0,0,0,.209.206h.027c.008.1.013.209.013.315s0,.23-.013.343a.2.2,0,0,0-.232.155A.208.208,0,0,0,20.056,16.789Z" transform="translate(-11.329 -11.329)" fill="#008"/></g></g></svg>