<svg xmlns="http://www.w3.org/2000/svg" width="50.425" height="2.85" viewBox="0 0 50.425 2.85"><path d="M8.993,2.308h-7c-.627,0-.906-.283-.906-.888V.068H0V1.42A1.4,1.4,0,0,0,1.481,2.777H8.993Zm11.3-2.24v2.24h-6.4c-.627,0-.906-.283-.906-.888V.068H11.9V1.42a1.4,1.4,0,0,0,1.482,1.356h8V.069Zm13.38,2.24h-7.38c-.628,0-.906-.283-.906-.888s.279-.883.906-.883h7.381V.068H25.784A1.4,1.4,0,0,0,24.3,1.42a1.4,1.4,0,0,0,1.482,1.356h7.891ZM48.943.068A1.4,1.4,0,0,1,50.425,1.42a1.4,1.4,0,0,1-1.482,1.356h-8.1V.069Zm.4,1.352c0-.611-.279-.883-.906-.883H41.924v1.77h6.508c.627,0,.906-.282.906-.887ZM36.726,2.85h1.058V0H36.726Z" transform="translate(0 0)" fill="#cacee6" fill-rule="evenodd"/></svg>