<svg xmlns="http://www.w3.org/2000/svg" xmlns:xlink="http://www.w3.org/1999/xlink" width="55.528" height="21.686" viewBox="0 0 55.528 21.686"><defs><clipPath id="a"><rect width="55.528" height="21.686" fill="#cacee6"/></clipPath></defs><g transform="translate(0 0)"><path d="M162.289,57.216l5.542,10.067h17.028l-5.515-10.067Z" transform="translate(-129.331 -45.596)" fill="#cacee6"/><g transform="translate(0 0)"><g clip-path="url(#a)"><path d="M15.85.395c.187.348,3.936,7.175,4.123,7.5a8.71,8.71,0,0,0,2.2,2.838c1.285,1.044,3.32,1.232,5.274,1.232H28.77c.6,0,.241-.007,2.073-.026l2.758,5.02,2.758,5.02H22.3a22.307,22.307,0,0,1-5.328-.455,12.21,12.21,0,0,1-4.739-2.2c-2.945-2.169-4.605-5.06-6.318-8.166L2.959,5.777,0,.395Z" transform="translate(0 -0.315)" fill="#cacee6"/><path d="M147.968,0l5.489,10.04H136.4L130.913,0Z" transform="translate(-104.327 0)" fill="#cacee6"/></g></g></g></svg>