<svg xmlns="http://www.w3.org/2000/svg" width="35.153" height="35.153" viewBox="0 0 35.153 35.153"><g transform="translate(0 0)"><path d="M34.8,17.576a17.481,17.481,0,0,1-2.959,9.745L19.647,19.2,14.4,15.7,2.6,7.831A17.57,17.57,0,0,1,34.8,17.576Z" transform="translate(0.356)" fill="#028832"/><path d="M32.194,26.379A17.568,17.568,0,1,1,2.959,6.889l11.8,7.867L20,18.256Z" transform="translate(0 0.942)" fill="#fbdc1d"/><path d="M16.121,10.312l1.294,3.977h4.178l-3.381,2.458,1.294,3.977-3.385-2.458-3.382,2.458,1.291-3.977-3.382-2.458H14.83Z" transform="translate(1.456 1.41)" fill="#d91219"/></g></svg>