<svg xmlns="http://www.w3.org/2000/svg" width="42.576" height="61.093" viewBox="0 0 42.576 61.093"><g transform="translate(0 0)"><path d="M26.951,22.085c.031.13.156.206.272.289.317.1.6.353.976.305.253-.526-.367-.837-.544-1.251-.129-.095-.081-.354-.289-.3a.247.247,0,0,0-.112.159C27.351,21.634,26.875,21.746,26.951,22.085Z" transform="translate(-8.563 -21.118)" fill="#cacee6" fill-rule="evenodd"/><path d="M8.535,51.183c.088.3.057.649.271.913.346.062.586-.215.834-.432.275-.495.848-.811.914-1.378a4.173,4.173,0,0,0-.114-.674,10.378,10.378,0,0,0-.3-1.456,3.229,3.229,0,0,1,1.169-3.447c.713-.141,1.077-.925,1.266-1.522.151-.36.064-.817.32-1.121.308-.233.623.109.9.287a13.6,13.6,0,0,0,1.97,2.26,1.163,1.163,0,0,1,.369.3c.042.109.242.24.1.368a8.028,8.028,0,0,0-1.748-.3c-.915-.226-2.152-.659-3,0-.556.3-.728.867-1.008,1.346a4.054,4.054,0,0,0,.1,2.1c.151,1.116.5,2.16.688,3.283a9.826,9.826,0,0,0,.225,1.233c.3.58.089,1.376.626,1.876.7.48.776,1.294,1.218,1.939.46.636.884,1.582,1.746,1.794a1.383,1.383,0,0,0,.24-.1,2.922,2.922,0,0,0,.384-2.692,1.767,1.767,0,0,0-1.457-1.282c-.261-.174-.109-.531-.193-.768-.033-.4-.486-.623-.545-.993A6.655,6.655,0,0,1,13,50.88a10.661,10.661,0,0,0-.528-1.81c-.028-.464-.088-.983.369-1.235.668-.145,1.072.46,1.619.7.843.573,1.828.833,2.674,1.443.752,1.2,2.155,1.276,3.463,1.171l.1.063c-.033.195-.311.246-.241.5a15.405,15.405,0,0,0,4.645,5,19.26,19.26,0,0,0,1.968,1.322,10.185,10.185,0,0,1,1.749,1.323A3.81,3.81,0,0,1,30.4,61.774,1.581,1.581,0,0,0,31.623,62.9c.553-.065.808-.694,1.057-1.089a9.539,9.539,0,0,0,.417-1.154,9.826,9.826,0,0,0,.192-1.266c.1-.256.312-.612.643-.593.037.028.142.073.112.176a2.878,2.878,0,0,0-.5.929,4.915,4.915,0,0,1-.562,2.276,7.88,7.88,0,0,0-.829,1.223,5.015,5.015,0,0,0-.484,1.276,6.3,6.3,0,0,0,.384,3.731,18.717,18.717,0,0,0,2.306,4.311c.026.6-.427,1.055-.751,1.553-.839.873-1.616,1.753-2.486,2.582a2.258,2.258,0,0,0-1.282.817,10.387,10.387,0,0,1-1.216,1.345,5.127,5.127,0,0,0-1.234,2.291.837.837,0,0,0,.194.8,2.552,2.552,0,0,0,1.811-.226c.619-.344,1.581-.617,1.586-1.507.047-.232-.066-.51.095-.671a3.806,3.806,0,0,0,1.3-1.233c.168-.289.151-.645.384-.883A4.211,4.211,0,0,0,34.218,76.2a9.556,9.556,0,0,1,2.8-2.036c.267-.5.067-1.072.114-1.619-.091-.607-.687-.983-.819-1.537a2.515,2.515,0,0,1,.643-2.723c2.246-1.521,4.712-3.655,5.174-6.362.066-.313-.046-.693.161-.931a.3.3,0,0,1,.287-.015,1.564,1.564,0,0,1,.369,1.251,19.468,19.468,0,0,0-.112,2.61.965.965,0,0,0,.209.513c.017-.017.053,0,.081-.015a2.756,2.756,0,0,0,.015-.626,2.081,2.081,0,0,1,.241-.96c.218-.414.049-.984.351-1.348a.153.153,0,0,1,.21.05,4.53,4.53,0,0,1-.625,3.477,2.589,2.589,0,0,0-.561,1.873.816.816,0,0,0,.208.562c.05-.026.124.014.177-.031-.053-1.169.89-1.917,1.507-2.788a5.867,5.867,0,0,0,.657-3.782c-.022-.429-.489-.658-.465-1.074a.119.119,0,0,1,.191-.079,3.094,3.094,0,0,1,.736,1.041,9.545,9.545,0,0,0,.707,3.06.157.157,0,0,0,.145.128l.016-.192a4.718,4.718,0,0,1,.015-2,2.794,2.794,0,0,0-.015-1.6c-.113-.314-.228-.6-.353-.882,0-.1-.111-.212.032-.256a5.55,5.55,0,0,0,3.462-3.188,10.519,10.519,0,0,0,.335-3.156c-.113-1.536-.688-2.982-.367-4.55a5.587,5.587,0,0,1,1.3-2.82,1.167,1.167,0,0,0-.1-.946c-.17.033-.17.244-.226.384-.237.646-.937.957-1.311,1.524-.3.282-.274.728-.644.961a.242.242,0,0,1-.254-.065,3.172,3.172,0,0,1,.145-2.482,17.231,17.231,0,0,1,1.5-2.341,2.89,2.89,0,0,0,.32-1.41c-.031-.023-.048-.053-.064-.031-.316.425-.54.917-.9,1.345A14.158,14.158,0,0,0,47.213,45.4c-.064-.007-.128,0-.145-.046a4.513,4.513,0,0,1,.066-1.8A7.51,7.51,0,0,1,49.6,39.838v-.144h-.065a6.469,6.469,0,0,0-3.778,6.281,12.559,12.559,0,0,0,.815,3.316,17.39,17.39,0,0,1,.5,4.023,5.325,5.325,0,0,1-4.357,5.414c-.192.006-.423.047-.546-.095a11.023,11.023,0,0,0-1.955-3.492A22.389,22.389,0,0,0,37.3,52.386a24.26,24.26,0,0,0-2.051-1.379,15.674,15.674,0,0,1-2.117-2.435c-.888-1.33-1.842-2.626-1.777-4.326.024-.1-.017-.222.095-.272.325,0,.556.259.851.4.439.233,1.012.172,1.474.416.8.248,1.36,1.08,2.179,1.33.03-.042.124-.078.1-.145a2.448,2.448,0,0,1-.69-.642,2.42,2.42,0,0,0-.849-1.041c-.226-.188-.531-.16-.736-.336-.014-.04-.006-.068.031-.079a1.984,1.984,0,0,1,1.426.464,2.753,2.753,0,0,0,.674.5c.111-.045.059-.2.08-.3-.089-.214-.314-.345-.464-.482a4.993,4.993,0,0,0-2.181-1.314c-.115-.051-.248-.035-.32-.143-.024-.053.015-.076.048-.1.328.089.673.18,1.009.3a5.3,5.3,0,0,1,2.132.706,2.511,2.511,0,0,0,2.436-.367c.042-.092.127-.186.081-.289-.114-.08-.158.076-.227.129a1.993,1.993,0,0,1-2.016.031,3.22,3.22,0,0,0-2.1-1.409,2.657,2.657,0,0,1-.69-.352c-.025-.048.023-.061.048-.081A8.453,8.453,0,0,0,35.71,41.1c.595-.148,1.048.281,1.586.433.035-.049.078-.088.08-.145a9.548,9.548,0,0,1-1.185-1.009,4.034,4.034,0,0,0-1.475-.336l-.064-.065c.59-.416,1.3-.031,1.827.289a2.285,2.285,0,0,0,1.667.192.243.243,0,0,0-.081-.3,3.147,3.147,0,0,1-1.555-.883c-.562-.362-1.351-.171-1.779-.768a.109.109,0,0,1,.064-.176,3.182,3.182,0,0,1,.562.16c.286.085.518.4.865.353.035-.035.106-.1.064-.16l-.513-.531c-.043-.047-.091-.118,0-.143.535-.039.88.409,1.394.48.426.117.672.7,1.139.784.061-.034.145-.067.142-.16-.284-.131-.373-.444-.543-.657a3.094,3.094,0,0,0-1.443-1.426c-.671-.095-.734-.9-1.33-1.122a.355.355,0,0,1-.192-.433c.016-.079.091-.087.161-.1.495.245,1.128.19,1.6.546a2.755,2.755,0,0,0,1.281.879,1.855,1.855,0,0,0,1.218-.062c.046-.192-.171-.26-.271-.353-.556-.192-1.3-.28-1.476-.946-.2-1.035-1.338-1.331-2.017-1.938-.162-.215-.4-.382-.4-.641.011-.022.026-.05.064-.033a7.762,7.762,0,0,0,2.148,1.522c.429.459.87,1.116,1.555,1.122a.228.228,0,0,0,.11-.145c-.273-.261-.621-.441-.784-.784.068-.611-.5-.875-.847-1.233a2.6,2.6,0,0,0-.659-1.232c-.373-.459-.882-.767-1.185-1.234a.127.127,0,0,1,.144-.1l.752.384c.444.318,1.071.231,1.587.432.476.066,1.038.519,1.506.08a.175.175,0,0,0-.031-.161c-.18-.061-.383-.02-.531-.095a4.693,4.693,0,0,0-1.536-.736c-.454-.1-.676-.588-.9-.914v-.064l.145.048c.579.526,1.535.27,2.241.161a1.817,1.817,0,0,1,.579.207,4.054,4.054,0,0,1,.607.595.108.108,0,0,0,.145-.049.449.449,0,0,0-.1-.4,3.539,3.539,0,0,0-2.242-1.121c-.289-.065-.643.035-.848-.178-.449-.384-.759-1.042-1.345-1.169-.127-.1-.343-.1-.353-.289.1-.128.314-.085.463-.048a4.206,4.206,0,0,0,2.453.753c.663.053.829,1.092,1.6.979.006-.027.036-.043.048-.066-.713-.562-.833-1.6-1.778-1.81a2.933,2.933,0,0,1-.768-.24,4.85,4.85,0,0,0-1.7-1.283,1.6,1.6,0,0,1-.561-.208,3.825,3.825,0,0,1,1.667-.689c.1-.064.269-.008.352-.113a.3.3,0,0,0-.08-.3,2.055,2.055,0,0,0-.865-.209,8.1,8.1,0,0,1-1.266.048c-.378-.04-.789.041-1.041-.255a3.037,3.037,0,0,0-2.915-1.106c-.226-.152-.258-.431-.451-.609-.44-.212-.545-.709-.96-.929-.141-.084-.13-.323-.321-.272-.14.288-.356.545-.5.832-.115.325.258.514.227.817a.882.882,0,0,1-.8.209c-.834-.252-1.608-.86-2.565-.528-.181.052-.435-.06-.546.1-.027.056-.047.159.033.207a.973.973,0,0,1,.546.177.173.173,0,0,1-.048.128c-.313.088-.555-.111-.85-.016a1.8,1.8,0,0,0-.722.322c0,.039-.019.09.017.128a1.323,1.323,0,0,0,.368-.066,3.319,3.319,0,0,1,1.827.337c.143.016.28-.056.4.064-.169.28.192.2.287.353.019.18-.224.156-.3.288-1.526.4-2.68,1.675-4.244,1.937-.509.056-1.121-.12-1.413.4-.244.594-.879,1.033-.927,1.714.073.411-.151,1,.319,1.217a6.982,6.982,0,0,0,1.907-.433c.074-.025.186-.073.255.016a.227.227,0,0,1,.033.193,4.52,4.52,0,0,1-1.394.514.187.187,0,0,0-.145.207c.663.784,1.689.095,2.435-.111a1.871,1.871,0,0,0,.8,0,12.06,12.06,0,0,0,1.2.4c.621.182,1.338.151,2,.272a.641.641,0,0,1,.272.673,13.422,13.422,0,0,1-2.594,4.791c-.643.966-1.939,1.466-2.2,2.629-.673.9-1.71,1.041-2.486,1.744-.314.178-.51.634-.88.658-.242.077-.441.3-.706.255l-.784-.495c-.855-.618-1.889-.858-2.6-1.731a2.6,2.6,0,0,0-2.836-.817,1.743,1.743,0,0,0-1.041,1.3,10.442,10.442,0,0,0-.865,2.4,4.388,4.388,0,0,1-.4,1.408c-.582,1.208-.7,2.609-1.394,3.781a5.349,5.349,0,0,0-.128,1.908A6.48,6.48,0,0,0,8.535,51.183ZM11.387,46.2h-.064a.7.7,0,0,1,.3-.706.116.116,0,0,1,.1.081A.9.9,0,0,1,11.387,46.2Zm.624,5.415a4.97,4.97,0,0,1-.529-1.986c.008-.17.017-.342.145-.432.284.045.122.429.193.657a6.2,6.2,0,0,1,.335,1.746C12.141,51.682,12.047,51.618,12.011,51.615Zm2.484,5.4a.213.213,0,0,1,.162-.112.218.218,0,0,1,.194.384.266.266,0,0,1-.227-.015C14.551,57.185,14.451,57.126,14.495,57.015ZM28.819,80.953a.946.946,0,0,1-.481.112c-.128-.2.061-.339.159-.464.163-.129.338-.445.547-.241A.9.9,0,0,1,28.819,80.953Zm1.683-2.69c-.069.012-.158.068-.209.015a.328.328,0,0,1,.112-.32c.089-.128.292-.267.4-.08C30.824,78.058,30.624,78.157,30.5,78.262ZM46.315,57.721a7.934,7.934,0,0,0,1.7-3.044,14.261,14.261,0,0,0,.064-3.206c.02-.053.092-.109.145-.031a5.768,5.768,0,0,1,.271.721,6.407,6.407,0,0,1-.145,3.622,5.312,5.312,0,0,1-1.986,2.611.456.456,0,0,1-.225.017C45.972,58.158,46.2,57.918,46.315,57.721Zm-5.751,2.755c.154-.026.281.12.368.257a1.115,1.115,0,0,1-.193,1.12.114.114,0,0,1-.143-.095,2.135,2.135,0,0,0-.274-.816A.435.435,0,0,1,40.564,60.476ZM36.191,73.31c.053-.05.214-.091.255.032-.022.13-.159.234-.255.336a.105.105,0,0,1-.114-.064A.211.211,0,0,1,36.191,73.31ZM32.056,39.919a.294.294,0,0,1-.272-.049.173.173,0,0,1,.143-.207c.085-.028.23-.053.274.08C32.2,39.832,32.12,39.875,32.056,39.919Zm.16-.8c-.081,0-.16-.011-.177-.08a.172.172,0,0,1,.113-.178c.088-.046.271-.078.338.049C32.461,39.043,32.3,39.058,32.216,39.118Zm.095-.833a.12.12,0,0,1-.046-.176c.062-.168.286-.112.4-.048.019.022,0,.07.016.112A.344.344,0,0,1,32.311,38.285Zm.45-.88c-.121-.011-.242.014-.3-.081-.055-.144.078-.228.175-.272.132-.027.331-.187.449.017C33.088,37.254,32.877,37.322,32.761,37.4Zm.192-.962a.235.235,0,0,1-.225-.129c-.062-.086.013-.155.064-.208a.431.431,0,0,1,.514.113C33.245,36.381,33.069,36.376,32.953,36.442Zm.481-.768c-.178,0-.409.068-.528-.066.014-.223.255-.262.416-.336a.309.309,0,0,1,.273.161C33.628,35.563,33.523,35.635,33.434,35.674Zm-.384-.85A.12.12,0,0,1,33,34.648c.136-.134.481-.331.611-.064C33.512,34.8,33.248,34.79,33.049,34.824Zm0-.849c.028-.2.235-.25.4-.288.058-.026.111.022.145.082-.059.182-.286.216-.45.254A.121.121,0,0,1,33.049,33.974Zm.5-.865c-.15.011-.342.079-.45-.033a.21.21,0,0,1,.161-.16c.107-.074.332-.15.432,0C33.709,33.018,33.609,33.064,33.547,33.109Zm.11-1.889c-.037.2-.264.19-.4.255-.082-.041-.033-.086-.016-.128A.317.317,0,0,1,33.657,31.22Zm-.3-.578c.083-.057.286-.187.336-.017a.384.384,0,0,1-.32.162A.1.1,0,0,1,33.354,30.642ZM33.242,32.1c.1-.11.294-.226.415-.081.039.106-.079.2-.159.257-.114,0-.206.078-.3.031C33.131,32.225,33.209,32.163,33.242,32.1Zm.464-2.307a.318.318,0,0,1-.192.193.105.105,0,0,1-.145-.064.129.129,0,0,1,.1-.145C33.536,29.776,33.648,29.687,33.706,29.793Zm-1.042-2.629.769-.111c.048.014.051.106.033.159a6.7,6.7,0,0,0-1.2.611c-.106.023-.234.078-.321.015-.226-.281.043-.554.128-.8A.583.583,0,0,1,32.6,26.7l.065.1C32.672,26.925,32.432,27.092,32.664,27.165Zm-.017-2.258a.411.411,0,0,1-.382.1.19.19,0,0,1-.13-.114c.024-.087.114-.107.192-.128C32.439,24.774,32.6,24.774,32.647,24.906Zm-.721-1.074a.437.437,0,0,1,.483.209c-.022.036.022.052.014.1a.293.293,0,0,1-.3-.033c-.138-.023-.292-.015-.352-.145C31.764,23.864,31.868,23.871,31.927,23.832Zm-.351,16.536a.226.226,0,0,1,.368.047c0,.074-.084.1-.129.13a1.491,1.491,0,0,1-.192.015A.132.132,0,0,1,31.575,40.368Zm-10-12.082a1.514,1.514,0,0,1-.831.466c-.145-.081-.129-.269-.1-.4.085-.258.186-.567.478-.674a.474.474,0,0,1,.45.193A.618.618,0,0,1,21.577,28.286Zm.722-.127c-.1.026-.143-.05-.193-.1-.055-.086.009-.162.048-.225.069-.129.214-.04.271.047A.253.253,0,0,1,22.3,28.159Zm5.223,15.093c-.108-.092-.2-.2-.13-.32a.582.582,0,0,1,.483-.369.513.513,0,0,1,.3.095.741.741,0,0,1,.033.723C27.982,43.544,27.722,43.336,27.522,43.252ZM32.744,54.4a.286.286,0,0,1,.4.064c.24.424-.232.727-.336,1.106-.116.117-.04.341-.223.431a.249.249,0,0,1-.226-.095,2.749,2.749,0,0,1,.159-1.057C32.513,54.661,32.548,54.469,32.744,54.4ZM32.6,65.54a.263.263,0,0,1-.128.062,1.971,1.971,0,0,1,0-1.216,1.873,1.873,0,0,1,.61-.978.15.15,0,0,1,.192.1c.008.415-.325.736-.4,1.153A3.816,3.816,0,0,0,32.6,65.54Zm1.235,4.871a7.152,7.152,0,0,1-.609-1.379c-.017-.218-.025-.45.177-.529.25.008.273.293.351.5a3.881,3.881,0,0,0,.192,1.361C33.949,70.412,33.862,70.428,33.835,70.411Zm.352,4.55a8.248,8.248,0,0,1-1.2,1.217c-.234.27-.554.388-.8.643L32.12,76.8a.731.731,0,0,1,.241-.5c.523-.591,1.1-1.091,1.585-1.649a1.937,1.937,0,0,1,.676-.4C34.611,74.513,34.327,74.713,34.187,74.961Zm-3.4-29.194a10.159,10.159,0,0,0,1.621,3.542c.311.459.727.882,1.057,1.362a1.358,1.358,0,0,1-.595-.288,7.043,7.043,0,0,1-2.482-3.7,1.971,1.971,0,0,1-.144-1.12.217.217,0,0,1,.159-.145C30.609,45.391,30.71,45.6,30.789,45.767Zm-.4-15.751.048.066a.788.788,0,0,1-.32.591,3.325,3.325,0,0,1-1.234.369c-.067-.022-.148-.03-.16-.1.063-.245.359-.223.56-.3C29.687,30.529,29.948,30.069,30.39,30.017Zm-.993-.768a.224.224,0,0,1,.368.064c-.006.492-.566.643-.9.818a.244.244,0,0,1-.209-.034C28.755,29.735,29.16,29.532,29.4,29.248Zm-.946-4.214c.082,0,.221-.036.24.1-.049.181-.247.252-.4.289a.163.163,0,0,1-.162-.129C28.143,25.131,28.315,25.065,28.451,25.034Zm-5.112,4.214c-.1.027-.137-.053-.159-.112.023-.077-.014-.19.1-.209a.2.2,0,0,1,.176.112C23.477,29.13,23.4,29.2,23.338,29.248ZM25.2,26.3a5.212,5.212,0,0,1-1.473.514.6.6,0,0,1-.434.017c.022-.091.135-.114.21-.162a7.38,7.38,0,0,1,1.988-.85l.095.016C25.567,26.035,25.335,26.175,25.2,26.3Zm1.267-.111a1.1,1.1,0,0,1,.64-.258.693.693,0,0,1,.626.322.833.833,0,0,1,.112.769.932.932,0,0,1-.865-.1c-.217-.1-.384-.277-.576-.384A.289.289,0,0,1,26.465,26.189Zm.238,3.6c-.057-.025-.031-.077-.031-.112.434-.289.862-.611,1.315-.883.044,0,.108-.015.142.049.014.184-.231.221-.27.384a.6.6,0,0,1-.192.369C27.328,29.635,27.038,29.771,26.7,29.793Zm-.543,7.626c.629-.688.742-1.584,1.265-2.306a13.41,13.41,0,0,1,1.169-1.923c.084-.062.106-.19.226-.193a.293.293,0,0,1,.32.112,3.712,3.712,0,0,1-.384,1.315,11.953,11.953,0,0,1-2.4,3.186c-.049.022-.1.006-.145.016C26.109,37.582,26.134,37.477,26.16,37.419Zm-2.58,2.692a3.636,3.636,0,0,1,2.691,0l.3.336c0,.089.109.184.034.288-.226.1-.44-.083-.643-.128a3.986,3.986,0,0,0-2.4-.049c-.192-.015-.431.249-.545,0C23.057,40.292,23.36,40.189,23.58,40.112Zm-.737,12.465c.166-.111.359.025.513.129l.561.528a34.874,34.874,0,0,0,2.549,2.692,9.656,9.656,0,0,1,1.057,1.233v.032h-.049a39.479,39.479,0,0,1-3.333-2.548c-.507-.475-.87-.992-1.3-1.474C22.8,52.98,22.676,52.731,22.842,52.577Zm-5.5-7.017a8.55,8.55,0,0,0,.881-2.038,1.992,1.992,0,0,1,.5-.688c.078-.015.116.061.145.13a9.826,9.826,0,0,1-.5,1.682,1.736,1.736,0,0,1-.93,1.073c-.057,0-.093-.025-.1-.064Zm-.7,3.235c-.05.064-.154.043-.211.032-.664-.182-1.141-.805-1.761-1.058a.264.264,0,0,1,.257.016,5.124,5.124,0,0,1,1.649.8C16.615,48.638,16.689,48.707,16.642,48.8Zm-1.841-6.6a1.441,1.441,0,0,1,.736.641c-.014.033.015.084-.033.112a1.674,1.674,0,0,1-.723-.674Zm-1.973-2.82c.2-.042.5-.1.626.112-.017.237-.325.178-.5.24-.112,0-.261-.01-.32-.11C12.593,39.471,12.751,39.429,12.828,39.374Zm-1.634,3.269a5.576,5.576,0,0,1,.287-1.187.948.948,0,0,1,.419-.513c.062,0,.09.074.127.128.052.35-.156.634-.193.978-.2.3-.2.76-.578.93C11.138,42.9,11.209,42.766,11.194,42.644Zm-1.858,7.8a.2.2,0,0,1,.193.1.227.227,0,0,1-.145.159.2.2,0,0,1-.178-.128C9.209,50.5,9.284,50.468,9.336,50.447Z" transform="translate(-8.525 -21.118)" fill="#cacee6" fill-rule="evenodd"/><path d="M28.661,68.726A12.869,12.869,0,0,1,25.043,68a3.844,3.844,0,0,0-1.4-.512c-.479-.128-.851.195-1.3.095a4.935,4.935,0,0,0-2.531-.4,2.231,2.231,0,0,0-1.921.194.227.227,0,0,0-.049.256,3.967,3.967,0,0,0,1.891,1.842,3.235,3.235,0,0,0,2.323.064c.345.05.871-.245,1.122.194.834.4,1.972-.047,2.82.384a10.8,10.8,0,0,1,3.173.817,6.578,6.578,0,0,0,2.37.88.631.631,0,0,0,.529-.385c.079-.361.42-.622.415-.976a13.838,13.838,0,0,1-1.169-3.046,8.647,8.647,0,0,1-.016-3.4l.064-.145a.535.535,0,0,0-.023-.3.342.342,0,0,0-.073-.115,6.152,6.152,0,0,1-1.138-1.04,4.345,4.345,0,0,0-2.164-3.125,2.283,2.283,0,0,0-.949-.492.788.788,0,0,0-.189-.006.376.376,0,0,0-.3.241,4.407,4.407,0,0,0,.081,1.443,19.153,19.153,0,0,0,2.835,6.632c.2.479.849.843.609,1.474C29.707,68.98,29.114,68.7,28.661,68.726Zm-8.876-.514a.412.412,0,0,1-.288.05.376.376,0,0,1-.176-.178c-.053-.124.078-.129.128-.176a.465.465,0,0,1,.5.064C19.992,68.064,19.861,68.159,19.785,68.212Zm3.91.081a.425.425,0,0,1-.256-.064.066.066,0,0,1,.064-.1.244.244,0,0,1,.272.079C23.781,68.25,23.72,68.263,23.695,68.292Zm4.821,1.121c-.095.148-.261.019-.381.05-.513-.322-1.166.014-1.636-.353-.384-.209-.877-.125-1.2-.417-.051-.066-.069-.126,0-.161a2.142,2.142,0,0,1,.834.321c.244.031.517.031.784.065a6.373,6.373,0,0,1,1.522.352C28.462,69.3,28.543,69.327,28.516,69.413Zm2.292-.159c-.1,0-.188.1-.272.031-.048-.17.136-.261.241-.319.057-.051.128-.017.193.032C31.01,69.113,30.885,69.2,30.808,69.254Z" transform="translate(-8.544 -21.195)" fill="#cacee6" fill-rule="evenodd"/></g></svg>