<svg xmlns="http://www.w3.org/2000/svg" width="35.153" height="35.153" viewBox="0 0 35.153 35.153"><g transform="translate(0)"><g transform="translate(0 0)"><path d="M31.519,6.885a17.556,17.556,0,0,0-27.881,0q-.467.6-.875,1.242c-.194.3-.375.612-.549.923-.118.209-.228.418-.335.631-.051.1-.107.209-.153.316-.075.153-.147.3-.213.454-.107.236-.206.474-.3.71A17.271,17.271,0,0,0,.529,13.3q-.089.355-.166.71c-.083.406-.153.821-.2,1.239s-.1.828-.123,1.25c-.019.268-.027.54-.032.816,0,.088,0,.174,0,.26A17.571,17.571,0,0,0,31.519,28.268a17.544,17.544,0,0,0,0-21.383Z" fill="#5b96b0"/><g transform="translate(0 6.885)"><path d="M2.609,12.325.139,13.564c.051-.418.122-.833.2-1.239Z" transform="translate(0.019 -5.199)" fill="#032774"/><path d="M6.457,6.057V9.315L2.43,7.3q.408-.639.875-1.242Z" transform="translate(0.332 -6.056)" fill="#032774"/><path d="M2.446,9.249H1.33c.066-.15.138-.3.213-.454Z" transform="translate(0.182 -5.682)" fill="#032774"/><path d="M17.52,9.48V7.1L12.769,9.48Z" transform="translate(1.746 -5.913)" fill="#032774"/><path d="M15.617,6.057,9.107,9.315V6.057Z" transform="translate(1.245 -6.057)" fill="#032774"/><path d="M17.52,14.7V12.325H12.769Z" transform="translate(1.746 -5.2)" fill="#032774"/><path d="M.246,15.854H6.76V12.6Z" transform="translate(0.034 -5.162)" fill="#032774"/><path d="M9.107,15.854h6.514L9.107,12.6Z" transform="translate(1.245 -5.162)" fill="#032774"/><path d="M19.265,7.248l-4.75,2.375h4.75v3.559h-4.75l4.75,2.379v.4l-5.552-2.777h-1.6l7.128,3.566H16.862l-6.51-3.259v3.259H6.79V13.489L.28,16.748H0c0-.086,0-.173,0-.26l6.6-3.306h-1.6L.035,15.671c.024-.423.064-.84.123-1.25l2.47-1.239H.363q.077-.356.166-.71a17.271,17.271,0,0,1,.683-2.138c.094-.236.193-.474.3-.71H2.628l-.9-.454c.047-.107.1-.213.153-.316l1.543.77H5.014l-2.8-1.4c.174-.311.355-.62.549-.923L6.79,9.315V6.057h3.562V9.315l6.51-3.258h.793L10.531,9.623h1.6l7.125-3.566h.013Z" transform="translate(0 -6.056)" fill="#fff"/><path d="M4.788,9.362H3.195l-1.543-.77c.107-.213.217-.422.335-.631Z" transform="translate(0.226 -5.796)" fill="#cb142a"/><path d="M10.659,12.325l7.125,3.567h.024V15.1l-5.551-2.777Z" transform="translate(1.457 -5.2)" fill="#cb142a"/><path d="M17.987,6.057,10.861,9.623h-1.6l7.125-3.567Z" transform="translate(1.267 -6.057)" fill="#cb142a"/><path d="M6.6,12.325,0,15.631c0-.276.013-.548.032-.816l4.971-2.489Z" transform="translate(0 -5.199)" fill="#cb142a"/><path d="M19.2,10.333v2.138H9.579v4.276H7.437V12.472H.465a17.271,17.271,0,0,1,.683-2.138H7.437V6.057H9.579v4.276Z" transform="translate(0.064 -6.056)" fill="#cb142a"/></g><g transform="translate(12.116 8.23)"><path d="M12.343,21.453l.4,1.223h1.286l-1.042.757.4,1.223L12.343,23.9l-1.042.757.4-1.223-1.042-.757h1.286Z" transform="translate(-10.659 -5.297)" fill="#fecd17"/><path d="M23.342,16.719l.4,1.223h1.286l-1.042.757.4,1.227-1.042-.757-1.041.757.4-1.227-1.042-.757h1.286Z" transform="translate(-9.155 -5.944)" fill="#fecd17"/><path d="M26.674,14.574l.4,1.223h1.286l-1.042.757.4,1.223-1.042-.754-1.041.754.4-1.223L24.99,15.8h1.286Z" transform="translate(-8.699 -6.237)" fill="#fecd17"/><path d="M26.674,7.24l.4,1.223h1.286l-1.042.757.4,1.223L26.674,9.69l-1.041.754.4-1.223L24.99,8.463h1.286Z" transform="translate(-8.699 -7.24)" fill="#fecd17"/><path d="M24.092,13.387l-.4-1.223H22.407l1.042-.757-.4-1.223,1.042.757,1.041-.757-.4,1.223,1.042.757H24.49Z" transform="translate(-9.052 -6.838)" fill="#fecd17"/><path d="M20.757,14.536l-.4-1.227h-1.29l1.042-.757-.395-1.223,1.042.757,1.042-.757-.4,1.223,1.042.757h-1.29Z" transform="translate(-9.509 -6.681)" fill="#fecd17"/><path d="M20.757,22.862l-.4-1.223h-1.29l1.042-.757-.395-1.223,1.042.757,1.042-.757-.4,1.223,1.042.757h-1.29Z" transform="translate(-9.509 -5.542)" fill="#fecd17"/><path d="M16.818,19.964l-.4-1.223h-1.29l1.042-.757-.395-1.227,1.041.757,1.042-.757-.4,1.227,1.042.757H17.216Z" transform="translate(-10.048 -5.939)" fill="#fecd17"/><path d="M16.818,23.806l-.4-1.223h-1.29l1.042-.757L15.777,20.6l1.041.757,1.042-.757-.4,1.223,1.042.757H17.216Z" transform="translate(-10.048 -5.413)" fill="#fecd17"/></g></g></g></svg>