<svg xmlns="http://www.w3.org/2000/svg" width="35.156" height="35.156" viewBox="0 0 35.156 35.156"><g transform="translate(0 0)"><path d="M35.157,17.576A17.081,17.081,0,0,1,35.05,19.5a16.881,16.881,0,0,1-.351,2.063A17.567,17.567,0,0,1,15.725,35.058a18.544,18.544,0,0,1-2.063-.339,17.579,17.579,0,0,1-3.847-1.373,17.139,17.139,0,0,1-2.06-1.2,17.637,17.637,0,0,1-7.3-10.582A16.88,16.88,0,0,1,.106,19.5a17.549,17.549,0,0,1,0-3.847,17.03,17.03,0,0,1,.351-2.063A17.637,17.637,0,0,1,7.756,3.01a17.139,17.139,0,0,1,2.06-1.2A17.477,17.477,0,0,1,15.725.1,17.567,17.567,0,0,1,34.7,13.592a17.773,17.773,0,0,1,.458,3.984Z" fill="#063895"/><g transform="translate(0 0.099)"><path d="M35.157,17.564a17.081,17.081,0,0,1-.107,1.926,16.881,16.881,0,0,1-.351,2.063H15.725V35.046a18.544,18.544,0,0,1-2.063-.339,17.579,17.579,0,0,1-3.847-1.373,17.139,17.139,0,0,1-2.06-1.2V21.553H.457A16.88,16.88,0,0,1,.106,19.49a17.549,17.549,0,0,1,0-3.847A17.03,17.03,0,0,1,.457,13.58h7.3V3a17.139,17.139,0,0,1,2.06-1.2A17.477,17.477,0,0,1,15.725.087V13.58H34.7a17.773,17.773,0,0,1,.458,3.984Z" transform="translate(0 -0.087)" fill="#fff"/><path d="M35.157,17.523a17.081,17.081,0,0,1-.107,1.926H13.662V34.666a17.579,17.579,0,0,1-3.847-1.373V19.448H.106a17.549,17.549,0,0,1,0-3.847h9.71V1.758A17.393,17.393,0,0,1,13.662.389V15.6H35.05A17.06,17.06,0,0,1,35.157,17.523Z" transform="translate(0 -0.046)" fill="#d62827"/></g></g></svg>