<svg xmlns="http://www.w3.org/2000/svg" xmlns:xlink="http://www.w3.org/1999/xlink" width="35.149" height="35.153" viewBox="0 0 35.149 35.153"><defs><clipPath id="a"><path d="M12.245,18.092h7.31L15.9,11.759Z" transform="translate(-12.245 -11.759)" fill="#c5a310"/></clipPath><clipPath id="b"><path d="M12.245,18.092h7.31L15.9,11.759Z" transform="translate(-12.245 -11.759)" fill="none"/></clipPath></defs><g transform="translate(0.001)"><g transform="translate(-0.001 0)"><path d="M34.027,20.616a17.653,17.653,0,0,1-6,8.171,17.545,17.545,0,0,1-21.151,0,17.661,17.661,0,0,1-6-8.175Z" transform="translate(0.121 2.819)" fill="#0967c4"/><path d="M34.027,11.717H.882a17.584,17.584,0,0,1,33.145,0Z" transform="translate(0.121)" fill="#0967c4"/><path d="M35.149,16.167a17.5,17.5,0,0,1-1,5.859H1A17.619,17.619,0,0,1,1,10.308H34.147A17.51,17.51,0,0,1,35.149,16.167Z" transform="translate(0 1.409)" fill="#fff"/><g transform="translate(12.286 12.297)"><path d="M11.073,14.8a.122.122,0,0,1,.118.091.108.108,0,0,1,.123-.063l.149.011-.008.115-.158-.013c-.027,0-.047.013-.059.048a.69.69,0,0,0-.011.083l-.027.339.217.016-.008.115-.6-.048.04-.473a.356.356,0,0,1,.039-.174.156.156,0,0,1,.151-.051Zm0,.115-.035,0c-.04,0-.064.008-.072.035a.33.33,0,0,0-.016.107l-.026.335.181.015.027-.339a.307.307,0,0,0,0-.094A.063.063,0,0,0,11.068,14.914Z" transform="translate(-10.808 -10.274)" fill="#c5a310"/><path d="M11.607,14.274l-.139.6-.588-.139.142-.6.1.019-.115.485.134.032.11-.462.1.019-.11.466.153.035.115-.485Z" transform="translate(-10.798 -10.364)" fill="#c5a310"/><path d="M11.488,13.547a.155.155,0,0,1,.114.107.332.332,0,0,1-.035.173l-.126.321.2.078-.044.107-.559-.222.165-.422a.5.5,0,0,1,.091-.153.156.156,0,0,1,.163,0Zm-.035.11-.044-.019a.063.063,0,0,0-.075.011.894.894,0,0,0-.047.1l-.115.292.174.07.118-.3a.58.58,0,0,0,.027-.086A.06.06,0,0,0,11.452,13.658Z" transform="translate(-10.777 -10.45)" fill="#c5a310"/><path d="M12.006,13.018c.083.051.126.1.126.153a.409.409,0,0,1-.078.2l-.091.15a.438.438,0,0,1-.139.169c-.043.024-.11.008-.193-.043l-.327-.193.06-.1.311.182c.055.035.094.047.114.039a.335.335,0,0,0,.1-.126l.067-.11a.4.4,0,0,0,.064-.146c0-.024-.032-.051-.088-.088l-.311-.181.059-.1Z" transform="translate(-10.74 -10.544)" fill="#c5a310"/><path d="M12.5,12.5c.047.043.075.083.07.123a.344.344,0,0,1-.1.189l-.3.351-.457-.386L12,12.43a.405.405,0,0,1,.135-.115.129.129,0,0,1,.141.028.142.142,0,0,1,.059.126A.135.135,0,0,1,12.5,12.5Zm-.284-.051c-.036-.032-.072-.024-.111.019l-.24.284.11.094.244-.291C12.255,12.508,12.255,12.473,12.215,12.446Zm.209.146a.086.086,0,0,0-.064-.027.121.121,0,0,0-.063.051l-.249.292.118.1.228-.268a.335.335,0,0,0,.051-.072A.064.064,0,0,0,12.424,12.591Z" transform="translate(-10.684 -10.615)" fill="#c5a310"/><path d="M13.039,12.227l-.434.386-.4-.449.086-.08.332.375.347-.308Z" transform="translate(-10.617 -10.645)" fill="#c5a310"/><path d="M13.1,12.2l-.1.07-.358-.481.09-.072Z" transform="translate(-10.556 -10.695)" fill="#c5a310"/><path d="M13.635,11.677a.147.147,0,0,1,.027.15.444.444,0,0,1-.173.146l-.139.083a.383.383,0,0,1-.2.075c-.056,0-.111-.051-.163-.142l-.043-.07a.293.293,0,0,1-.063-.214c.011-.051.07-.11.177-.173l.107-.064a.476.476,0,0,1,.213-.086.143.143,0,0,1,.126.075l.016.027-.094.059-.013-.019c-.016-.032-.048-.04-.09-.028a1.334,1.334,0,0,0-.127.072l-.067.04c-.082.051-.126.086-.134.114a.283.283,0,0,0,.056.15l.027.043c.035.059.064.091.088.1s.086-.008.169-.06l.075-.047a.572.572,0,0,0,.134-.094.065.065,0,0,0,0-.075l-.013-.02.1-.055Z" transform="translate(-10.526 -10.741)" fill="#c5a310"/><path d="M14.4,11.558l-.123.047-.106-.086-.423.166-.019.138-.119.048.1-.687.138-.056Zm-.321-.115-.252-.2-.008,0-.055.319Z" transform="translate(-10.426 -10.776)" fill="#c5a310"/><path d="M15.393,11.166a.245.245,0,0,1-.043.209.373.373,0,0,1-.209.067l-.482.059-.07-.6.469-.056a.358.358,0,0,1,.244.032.291.291,0,0,1,.078.2Zm-.118,0-.008-.051a.248.248,0,0,0-.044-.15c-.023-.02-.082-.024-.177-.013l-.327.04.043.4.332-.04a.284.284,0,0,0,.169-.056A.192.192,0,0,0,15.275,11.163Z" transform="translate(-10.291 -10.815)" fill="#c5a310"/><path d="M15.981,11.442l-.616-.024.02-.6.615.024,0,.1-.5-.016,0,.139.477.015,0,.1-.477-.02,0,.163.5.016Z" transform="translate(-10.185 -10.818)" fill="#c5a310"/><path d="M17.041,11.705l-.153-.043-.348-.608-.138.469-.11-.035.166-.576.153.043.351.612L17.1,11.1l.11.032Z" transform="translate(-10.058 -10.805)" fill="#c5a310"/><path d="M17.11,11.758,17,11.715l.23-.556.106.043Z" transform="translate(-9.961 -10.771)" fill="#c5a310"/><path d="M17.859,11.933c-.032.064-.072.1-.115.1a.464.464,0,0,1-.217-.075l-.138-.074a.378.378,0,0,1-.169-.142.24.24,0,0,1,.035-.209l.039-.075c.052-.1.1-.15.15-.163a.344.344,0,0,1,.241.064l.11.059a.49.49,0,0,1,.182.138.13.13,0,0,1,0,.147l-.015.032-.1-.051.011-.02c.016-.032.008-.063-.027-.094a1.192,1.192,0,0,0-.123-.072l-.07-.039c-.083-.043-.139-.064-.166-.056s-.059.051-.1.126l-.024.043c-.035.059-.047.1-.039.123s.055.07.138.115l.08.043a.722.722,0,0,0,.153.067.071.071,0,0,0,.063-.04l.008-.019.1.051Z" transform="translate(-9.933 -10.753)" fill="#c5a310"/><path d="M18.365,12.533l-.1-.078.019-.139-.359-.276-.13.052-.1-.08.647-.26.118.091ZM18.3,12.2l.04-.319,0-.008-.3.118Z" transform="translate(-9.867 -10.69)" fill="#c5a310"/><path d="M19.051,12.741a.122.122,0,0,1-.147.028c.024.043.011.086-.035.13l-.11.107-.08-.086.115-.107a.059.059,0,0,0,.008-.075.29.29,0,0,0-.056-.067l-.228-.249-.161.15-.08-.083.438-.41.327.348a.357.357,0,0,1,.1.146c.013.048-.008.094-.063.147Zm-.08-.082L19,12.635a.061.061,0,0,0,.024-.075.473.473,0,0,0-.067-.083l-.23-.244-.134.122.233.249a.379.379,0,0,0,.067.063A.062.062,0,0,0,18.972,12.659Z" transform="translate(-9.787 -10.646)" fill="#c5a310"/><path d="M19.17,13.6l-.072-.11.064-.123-.253-.379-.138.008-.07-.106.693-.04.083.122Zm.043-.335.142-.292,0-.008-.327.016Z" transform="translate(-9.729 -10.54)" fill="#c5a310"/><path d="M19.628,14.116a.25.25,0,0,1-.206.024.348.348,0,0,1-.126-.174l-.083-.19a.365.365,0,0,1-.047-.216c.011-.056.063-.1.153-.142l.078-.036a.3.3,0,0,1,.217-.035.343.343,0,0,1,.15.2l.075.165a.378.378,0,0,1,.048.217.188.188,0,0,1-.118.118l-.048-.106a.088.088,0,0,0,.056-.064.3.3,0,0,0-.04-.146l-.056-.126a.3.3,0,0,0-.094-.142c-.027-.013-.078,0-.158.035l-.043.019c-.063.028-.1.059-.107.088s0,.083.04.161l.056.131a.445.445,0,0,0,.082.134.119.119,0,0,0,.1-.016l-.126-.281.09-.039.174.386Z" transform="translate(-9.666 -10.474)" fill="#c5a310"/><path d="M19.778,14.81a.218.218,0,0,1-.2-.016.455.455,0,0,1-.086-.2l-.043-.171a.467.467,0,0,1-.024-.216c.02-.048.075-.083.169-.107L19.963,14l.027.114-.347.088c-.064.019-.1.035-.11.055a.393.393,0,0,0,.019.158l.032.126a.377.377,0,0,0,.063.15c.016.011.056.011.118,0l.352-.091.027.114Z" transform="translate(-9.63 -10.382)" fill="#c5a310"/><path d="M19.622,15.6l-.011-.131.115-.074-.04-.455-.126-.059-.011-.13.631.3.011.145Zm.2-.272.264-.19V15.13l-.291-.142Z" transform="translate(-9.613 -10.28)" fill="#c5a310"/><g transform="translate(0.422 6.657)"><path d="M11.274,17l-.1-.3.084-.027.1.3Z" transform="translate(-11.179 -16.674)" fill="#c5a310"/><path d="M11.706,18.2l-.067-.115.07-.118-.228-.394h-.138l-.064-.11.695,0,.075.126Zm.063-.335.158-.28,0-.008-.324,0Z" transform="translate(-11.165 -16.566)" fill="#c5a310"/><path d="M12.361,18.99l-.078-.086.374-.327,0,0-.588.08-.059-.064.153-.575,0,0-.372.327-.075-.086.45-.4.123.142-.142.537.549-.078.122.142Z" transform="translate(-11.106 -16.513)" fill="#c5a310"/><path d="M12.886,19.383,12.4,19l.371-.471.481.383-.063.08L12.8,18.68l-.086.111.374.3-.063.078-.371-.3-.1.123.394.311Z" transform="translate(-11.011 -16.42)" fill="#c5a310"/><path d="M13.731,19.417a.123.123,0,0,1-.13.072.1.1,0,0,1,0,.134l-.075.134-.1-.06.078-.138a.053.053,0,0,0-.02-.07.347.347,0,0,0-.067-.048l-.3-.169-.11.193-.1-.059.3-.522.414.233a.479.479,0,0,1,.142.11.167.167,0,0,1-.019.163Zm-.1-.051.016-.032c.02-.032.02-.059,0-.078a.3.3,0,0,0-.091-.059l-.291-.166-.091.158.3.166c.043.023.072.039.083.043A.068.068,0,0,0,13.632,19.366Z" transform="translate(-10.941 -16.372)" fill="#c5a310"/><path d="M13.674,19.8l-.107-.047.241-.549.107.048Z" transform="translate(-10.853 -16.328)" fill="#c5a310"/><path d="M14.494,19.9c-.024.067-.056.106-.1.118a.455.455,0,0,1-.225-.036l-.149-.047a.368.368,0,0,1-.194-.107.241.241,0,0,1,0-.213l.027-.083a.315.315,0,0,1,.115-.185.352.352,0,0,1,.249.019l.118.04a.47.47,0,0,1,.2.1.126.126,0,0,1,.028.142l-.008.035-.107-.035.008-.019c.011-.036,0-.064-.043-.088a.813.813,0,0,0-.134-.051l-.075-.024a.326.326,0,0,0-.174-.024.246.246,0,0,0-.075.139l-.016.051c-.024.064-.027.107-.016.126s.067.059.155.086l.086.028a.629.629,0,0,0,.161.039.061.061,0,0,0,.056-.051l.008-.019.107.032Z" transform="translate(-10.82 -16.311)" fill="#c5a310"/><path d="M15.276,20.186l-.131-.019-.048-.126-.45-.067-.086.11-.126-.019.434-.544.145.023Zm-.222-.256-.123-.3h-.008l-.2.252Z" transform="translate(-10.734 -16.285)" fill="#c5a310"/><path d="M16.37,19.928a.16.16,0,0,1-.039.15.483.483,0,0,1-.222.059l-.157.015a.385.385,0,0,1-.217-.015.252.252,0,0,1-.091-.2l-.008-.083a.3.3,0,0,1,.032-.217.373.373,0,0,1,.233-.086l.125-.013a.519.519,0,0,1,.23.013.13.13,0,0,1,.083.118l0,.035-.11.013V19.7c0-.035-.027-.056-.075-.059a.659.659,0,0,0-.142.008l-.078.008a.352.352,0,0,0-.171.047.306.306,0,0,0-.011.163l0,.047a.253.253,0,0,0,.04.126.266.266,0,0,0,.177.016l.091-.011a.525.525,0,0,0,.161-.032.06.06,0,0,0,.032-.067l0-.024.11-.011Z" transform="translate(-10.57 -16.283)" fill="#c5a310"/><path d="M17.031,19.94l-.6.163-.155-.584.6-.158.023.1-.481.13.035.131.463-.123.027.1-.462.123.039.153L17,19.845Z" transform="translate(-10.481 -16.307)" fill="#c5a310"/><path d="M17.792,19.619l-.147.067-.658-.236.2.442-.1.047-.249-.543.147-.067.658.236-.2-.442.106-.048Z" transform="translate(-10.406 -16.346)" fill="#c5a310"/><path d="M18.122,18.8l-.246.161.276.418-.1.064-.276-.415-.246.161-.055-.082.584-.391Z" transform="translate(-10.318 -16.395)" fill="#c5a310"/><path d="M18.676,18.428a.114.114,0,0,1,.024.146.1.1,0,0,1,.131.036l.106.114-.086.08-.107-.118a.057.057,0,0,0-.075-.008.376.376,0,0,0-.067.055l-.248.228.146.163-.082.075-.407-.442.347-.319a.433.433,0,0,1,.15-.1.163.163,0,0,1,.147.067Zm-.082.078-.024-.023c-.028-.028-.051-.036-.075-.024a.32.32,0,0,0-.088.067l-.244.225.123.134.249-.23a.256.256,0,0,0,.063-.067A.063.063,0,0,0,18.594,18.506Z" transform="translate(-10.245 -16.447)" fill="#c5a310"/><path d="M19.444,18.035l-.083.1-.134-.019-.281.358.052.131-.08.1-.257-.647.091-.115Zm-.335.067-.321-.043,0,.008.118.3Z" transform="translate(-10.156 -16.5)" fill="#c5a310"/><path d="M19.731,17.513l-.284.5-.521-.3.056-.1.434.244.228-.407Z" transform="translate(-10.12 -16.566)" fill="#c5a310"/><path d="M19.774,16.739l-.1.3-.086-.027.1-.3Z" transform="translate(-10.029 -16.669)" fill="#c5a310"/></g><g transform="translate(1.633 1.07)"><path d="M12.245,18.092h7.31L15.9,11.759Z" transform="translate(-12.245 -11.759)" fill="#c5a310"/><g clip-path="url(#a)"><g transform="translate(-1.704 -1.519)"><path d="M15.914,21.142c-.13,0-.26-.013-.39-.027l.575-5.291h0Zm.386,0-.193-5.319h0l.58,5.291C16.56,21.13,16.431,21.138,16.3,21.142Zm-1.163-.083c-.127-.024-.257-.051-.383-.083L16.1,15.82h0Zm1.94,0-.963-5.239h0l1.346,5.153C17.334,21,17.208,21.035,17.078,21.059Zm-2.7-.2c-.126-.043-.249-.09-.371-.142l2.082-4.9h0Zm3.46,0-1.72-5.038h0l2.087,4.9C18.084,20.772,17.962,20.818,17.839,20.858Zm-4.187-.3c-.114-.059-.228-.123-.339-.193l2.774-4.541h0Zm4.908,0L16.119,15.82h0L18.9,20.361C18.789,20.428,18.676,20.491,18.561,20.555Zm-5.574-.407c-.107-.075-.209-.158-.308-.241l3.4-4.091h0Zm6.242,0-3.106-4.329h0l3.408,4.091C19.437,19.99,19.331,20.069,19.228,20.144Zm-6.841-.5c-.1-.09-.186-.185-.273-.28l3.961-3.559,0,0Zm7.44,0-3.7-3.831,0,0,3.96,3.556C20.009,19.461,19.918,19.557,19.827,19.643Zm-7.962-.576c-.078-.1-.158-.209-.228-.319L16.072,15.8l0,0Zm8.482,0-4.213-3.256,0,0,4.439,2.943C20.5,18.854,20.427,18.961,20.348,19.063Zm-8.916-.647c-.063-.115-.122-.233-.177-.348L16.072,15.8h0Zm9.347,0L16.139,15.8h0l4.821,2.261C20.9,18.179,20.846,18.3,20.779,18.412ZM11.1,17.706c-.048-.123-.091-.244-.131-.371l5.1-1.539v0Zm10.013,0-4.975-1.9,0,0,5.1,1.531C21.2,17.454,21.161,17.58,21.114,17.7Zm-10.242-.746c-.028-.13-.052-.26-.072-.386l5.268-.773h0Zm10.467-.008-5.2-1.151v0l5.266.77C21.39,16.692,21.366,16.822,21.339,16.948Zm-10.582-.768c-.008-.126-.011-.257-.011-.388l5.322-.007v.007Zm10.7,0-5.31-.383v-.007h0l5.322-.013v.013C21.465,15.914,21.462,16.045,21.453,16.175Zm-5.385-.394L10.757,15.4c.008-.126.024-.26.043-.386l5.268.762Zm.075,0v0l5.266-.782c.016.131.032.26.043.391Zm0,0v0l5.093-1.543c.04.126.072.252.1.379Zm-.075,0-5.2-1.148c.027-.126.064-.257.1-.38l5.1,1.523Zm0,0-4.975-1.9c.048-.123.1-.241.153-.359l4.825,2.256Zm.07,0h0L20.956,13.5c.055.119.107.241.153.364Zm-.067,0-4.644-2.6c.064-.115.131-.225.2-.335l4.442,2.94Zm.067,0h0l4.431-2.951c.07.106.142.216.2.331Zm-.063,0-4.218-3.251c.08-.1.163-.2.249-.3l3.969,3.548Zm.059,0v0L20.092,12.2c.086.1.169.2.248.3Zm-.056-.008-3.7-3.826c.1-.091.19-.178.292-.26l3.412,4.087Zm.051,0h0l3.4-4.1c.1.083.2.169.291.26Zm-.048,0-3.1-4.324c.107-.075.213-.147.324-.214l2.785,4.538Zm.04,0h0l2.77-4.549c.11.067.221.142.327.217Zm-.032,0-2.445-4.731c.114-.059.232-.118.355-.169l2.09,4.9Zm.028,0v0l2.075-4.9c.118.051.241.11.356.169Zm0,0h0L17.448,10.6c.126.032.253.067.38.111Zm-.028,0-1.728-5.033c.126-.044.252-.083.379-.115L16.1,15.749Zm0,0-.971-5.235c.126-.024.257-.044.386-.056l.588,5.29Zm.019,0h0l.568-5.294c.13.015.26.031.386.055Zm-.011,0-.2-5.322c.067,0,.134,0,.2,0s.126,0,.185,0l-.182,5.322Z" transform="translate(-10.746 -10.423)" fill="#6fd7f2"/></g></g><g clip-path="url(#b)"><g transform="translate(1.025 2.205)"><path d="M18.407,16.331h-.051a2.579,2.579,0,0,0-5.157,0h-.051a2.63,2.63,0,0,1,5.26,0Z" transform="translate(-13.147 -13.699)" fill="#ff0303"/><path d="M18.349,16.324H18.3a2.527,2.527,0,0,0-5.054,0h-.052a2.579,2.579,0,0,1,5.157,0Z" transform="translate(-13.141 -13.693)" fill="#ff6407"/><path d="M18.292,16.318h-.051a2.476,2.476,0,1,0-4.952,0h-.051a2.527,2.527,0,0,1,5.054,0Z" transform="translate(-13.135 -13.687)" fill="#fdfe1f"/><path d="M18.235,16.312h-.052a2.424,2.424,0,1,0-4.848,0h-.051a2.476,2.476,0,0,1,4.952,0Z" transform="translate(-13.128 -13.68)" fill="#00fe1e"/><path d="M18.176,16.306h-.051a2.373,2.373,0,1,0-4.746,0h-.051a2.424,2.424,0,1,1,4.848,0Z" transform="translate(-13.122 -13.674)" fill="#08ccfe"/><path d="M18.119,16.3h-.051a2.322,2.322,0,1,0-4.644,0h-.051a2.373,2.373,0,1,1,4.746,0Z" transform="translate(-13.116 -13.668)" fill="#120ffd"/><path d="M18.062,16.293H18.01a2.271,2.271,0,1,0-4.541,0h-.051a2.322,2.322,0,1,1,4.644,0Z" transform="translate(-13.11 -13.662)" fill="#810480"/></g></g><g transform="translate(0 4.659)"><path d="M18.683,17.305l.016.028h-.192C18.565,17.325,18.613,17.313,18.683,17.305Z" transform="translate(-11.389 -15.66)" fill="#fff"/><path d="M15.841,16.49c.311,0,.311.059.624.059s.307-.059.618-.059.311.059.62.059.311-.059.623-.059.309.059.62.059h.036l.035.063c-.048,0-.107.008-.182.008-.311,0-.311-.059-.62-.059s-.311.059-.623.059-.308-.059-.62-.059-.311.059-.62.059-.311-.059-.62-.059-.311.059-.623.059-.308-.059-.62-.059-.311.059-.62.059-.311-.059-.623-.059c-.3,0-.308.056-.584.059l.04-.07h.035c.311,0,.311-.059.62-.059s.311.059.623.059.308-.059.62-.059.311.059.62.059S15.533,16.49,15.841,16.49Z" transform="translate(-12.188 -15.772)" fill="#0642a1"/><path d="M15.851,16.615c.311,0,.311.059.624.059s.307-.059.618-.059.311.059.62.059.311-.059.623-.059.309.059.62.059c.044,0,.084,0,.115,0l.032.056a1.782,1.782,0,0,1-.257.019c-.311,0-.311-.059-.62-.059s-.311.059-.623.059-.308-.059-.62-.059-.311.059-.62.059-.311-.059-.62-.059-.311.059-.623.059-.308-.059-.62-.059-.311.059-.62.059-.311-.059-.623-.059-.308.059-.62.059a.225.225,0,0,1-.048,0l.043-.072c.032,0,.072,0,.115,0,.311,0,.311-.059.62-.059s.311.059.623.059.308-.059.62-.059.311.059.62.059S15.543,16.615,15.851,16.615Z" transform="translate(-12.198 -15.754)" fill="#02275f"/><path d="M12.759,16.795c.311,0,.311-.055.62-.055s.311.055.623.055.308-.055.62-.055.311.055.62.055.311-.055.62-.055.311.055.624.055.307-.055.618-.055.311.055.62.055.311-.055.623-.055.309.055.62.055c.084,0,.142,0,.193-.008l.028.048a1.521,1.521,0,0,1-.332.032c-.311,0-.311-.059-.62-.059s-.311.059-.623.059-.308-.059-.62-.059-.311.059-.62.059-.311-.059-.62-.059-.311.059-.623.059-.308-.059-.62-.059-.311.059-.62.059-.311-.059-.623-.059-.308.059-.62.059a1.059,1.059,0,0,1-.126,0l.043-.075C12.617,16.791,12.676,16.795,12.759,16.795Z" transform="translate(-12.207 -15.737)" fill="#02275f"/><path d="M12.768,16.92c.311,0,.311-.059.62-.059s.311.059.623.059.308-.059.62-.059.311.059.62.059.311-.059.62-.059.311.059.624.059.307-.059.618-.059.311.059.62.059.311-.059.623-.059.309.059.62.059a1.5,1.5,0,0,0,.268-.019l.024.043a1.778,1.778,0,0,1-.4.048c-.311,0-.311-.059-.62-.059s-.311.059-.623.059-.308-.059-.62-.059-.311.059-.62.059-.311-.059-.62-.059-.311.059-.623.059-.308-.059-.62-.059-.311.059-.62.059-.311-.059-.623-.059-.308.059-.62.059a1.307,1.307,0,0,1-.2-.013L12.5,16.9A1.51,1.51,0,0,0,12.768,16.92Z" transform="translate(-12.216 -15.721)" fill="#02275f"/><path d="M12.777,17.045c.311,0,.311-.059.62-.059s.311.059.623.059.308-.059.62-.059.311.059.62.059.311-.059.62-.059.311.059.624.059.307-.059.618-.059.311.059.62.059.311-.059.623-.059.309.059.62.059a1.524,1.524,0,0,0,.34-.035l.032.051a3.177,3.177,0,0,1-.482.056c-.311,0-.311-.06-.62-.06s-.311.06-.623.06-.308-.06-.62-.06-.311.06-.62.06-.311-.06-.62-.06-.311.06-.623.06-.308-.06-.62-.06-.311.06-.62.06-.311-.06-.623-.06-.308.06-.62.06a1.454,1.454,0,0,1-.276-.024l.048-.083A1.5,1.5,0,0,0,12.777,17.045Z" transform="translate(-12.225 -15.704)" fill="#02275f"/><path d="M15.887,17.111c.311,0,.311.059.624.059s.307-.059.618-.059.311.059.62.059.311-.059.623-.059.309.059.62.059a2.168,2.168,0,0,0,.415-.048l.035.059c-.252.008-.272.056-.56.056-.311,0-.311-.056-.62-.056s-.311.056-.623.056-.308-.056-.62-.056-.311.056-.62.056-.311-.056-.62-.056-.311.056-.623.056-.308-.056-.62-.056-.311.056-.62.056-.311-.056-.623-.056-.308.056-.62.056a1.64,1.64,0,0,1-.351-.035l.047-.08a2.18,2.18,0,0,0,.415.048c.311,0,.311-.059.62-.059s.311.059.623.059.308-.059.62-.059.311.059.62.059S15.579,17.111,15.887,17.111Z" transform="translate(-12.234 -15.687)" fill="#02275f"/><path d="M12.795,17.291c.311,0,.311-.059.62-.059s.311.059.623.059.308-.059.62-.059.311.059.62.059.311-.059.62-.059.311.059.624.059.307-.059.618-.059.311.059.62.059.311-.059.623-.059.309.059.62.059a3.512,3.512,0,0,0,.493-.055l.043.078c-.07.008-.118.02-.176.028h-.5a1.767,1.767,0,0,0-.746,0h-.5a1.784,1.784,0,0,0-.372-.04,1.732,1.732,0,0,0-.371.04h-.5a1.813,1.813,0,0,0-.375-.04,1.761,1.761,0,0,0-.371.04h-.5a1.784,1.784,0,0,0-.372-.04,1.823,1.823,0,0,0-.375.04h-.5a1.732,1.732,0,0,0-.371-.04,1.761,1.761,0,0,0-.371.04h-.5a2.021,2.021,0,0,0-.39-.04l.035-.067A3.452,3.452,0,0,0,12.795,17.291Z" transform="translate(-12.242 -15.67)" fill="#02275f"/><path d="M13.235,16.306c.311,0,.311.055.623.055s.308-.055.62-.055.311.055.62.055.311-.055.623-.055.308.055.62.055.308-.055.62-.055.311.055.62.055.311-.055.623-.055.308.055.62.055h.024l.04.072c-.264,0-.281-.059-.573-.059-.311,0-.311.059-.623.059s-.308-.059-.62-.059-.311.059-.618.059-.313-.059-.624-.059-.308.059-.62.059-.308-.059-.62-.059-.311.059-.62.059-.311-.059-.623-.059c-.292,0-.308.055-.573.059l.048-.08A1.936,1.936,0,0,1,13.235,16.306Z" transform="translate(-12.173 -15.797)" fill="#80a0d1"/><path d="M15.739,16.552c.308,0,.308.059.62.059s.308-.059.62-.059.311.059.62.059.311-.059.623-.059.308.059.62.059c.075,0,.134,0,.182-.008l.043.075c-.031,0-.07,0-.115,0-.31,0-.31-.059-.62-.059s-.311.059-.623.059-.308-.059-.62-.059-.311.059-.618.059-.313-.059-.624-.059-.308.059-.62.059-.308-.059-.62-.059-.311.059-.62.059-.311-.059-.623-.059-.308.059-.62.059c-.043,0-.083,0-.115,0l.04-.067c.276,0,.289-.059.584-.059.311,0,.311.059.623.059s.308-.059.62-.059.311.059.62.059S15.427,16.552,15.739,16.552Z" transform="translate(-12.192 -15.763)" fill="#fff"/><path d="M15.748,16.677c.308,0,.308.059.62.059s.308-.059.62-.059.311.059.62.059.311-.059.623-.059.308.059.62.059a1.782,1.782,0,0,0,.257-.019l.047.078c-.051,0-.109.008-.193.008-.31,0-.31-.055-.62-.055s-.311.055-.623.055-.308-.055-.62-.055-.311.055-.618.055-.313-.055-.624-.055-.308.055-.62.055-.308-.055-.62-.055S14.3,16.8,14,16.8s-.311-.055-.623-.055-.308.055-.62.055c-.083,0-.142,0-.193-.008l.035-.063a.225.225,0,0,0,.048,0c.311,0,.311-.059.62-.059s.311.059.623.059.308-.059.62-.059.311.059.62.059S15.437,16.677,15.748,16.677Z" transform="translate(-12.202 -15.746)" fill="#fff"/><path d="M15.757,16.8c.308,0,.308.059.62.059s.308-.059.62-.059.311.059.62.059.311-.059.623-.059.308.059.62.059a1.521,1.521,0,0,0,.332-.032l.047.083a1.5,1.5,0,0,1-.268.019c-.31,0-.31-.059-.62-.059s-.311.059-.623.059-.308-.059-.62-.059-.311.059-.618.059-.313-.059-.624-.059-.308.059-.62.059-.308-.059-.62-.059-.311.059-.62.059-.311-.059-.623-.059-.308.059-.62.059a1.51,1.51,0,0,1-.268-.019l.032-.056a1.059,1.059,0,0,0,.126,0c.311,0,.311-.059.62-.059s.311.059.623.059.308-.059.62-.059.311.059.62.059S15.446,16.8,15.757,16.8Z" transform="translate(-12.211 -15.729)" fill="#fff"/><path d="M15.766,16.924c.308,0,.308.059.62.059s.308-.059.62-.059.311.059.62.059.311-.059.623-.059.308.059.62.059a1.778,1.778,0,0,0,.4-.048l.048.083a1.524,1.524,0,0,1-.34.035c-.31,0-.31-.059-.62-.059s-.311.059-.623.059-.308-.059-.62-.059-.311.059-.618.059-.313-.059-.624-.059-.308.059-.62.059-.308-.059-.62-.059-.311.059-.62.059-.311-.059-.623-.059-.308.059-.62.059a1.5,1.5,0,0,1-.339-.035l.027-.048a1.307,1.307,0,0,0,.2.013c.311,0,.311-.059.62-.059s.311.059.623.059.308-.059.62-.059.311.059.62.059S15.454,16.924,15.766,16.924Z" transform="translate(-12.219 -15.712)" fill="#fff"/><path d="M12.394,17.084a1.454,1.454,0,0,0,.276.024c.311,0,.311-.06.62-.06s.311.06.623.06.308-.06.62-.06.311.06.62.06.311-.06.623-.06.308.06.62.06.308-.06.62-.06.311.06.62.06.311-.06.623-.06.308.06.62.06a3.177,3.177,0,0,0,.482-.056l.043.078a2.168,2.168,0,0,1-.415.048c-.31,0-.31-.059-.62-.059s-.311.059-.623.059-.308-.059-.62-.059-.311.059-.618.059-.313-.059-.624-.059-.308.059-.62.059-.308-.059-.62-.059-.311.059-.62.059-.311-.059-.623-.059-.308.059-.62.059a2.18,2.18,0,0,1-.415-.048Z" transform="translate(-12.228 -15.695)" fill="#fff"/><path d="M15.784,17.173c.308,0,.308.056.62.056s.308-.056.62-.056.311.056.62.056.311-.056.623-.056.308.056.62.056c.289,0,.308-.048.56-.056l.043.072A3.512,3.512,0,0,1,19,17.3c-.31,0-.31-.059-.62-.059s-.311.059-.623.059-.308-.059-.62-.059-.311.059-.618.059-.313-.059-.624-.059-.308.059-.62.059-.308-.059-.62-.059-.311.059-.62.059-.311-.059-.623-.059-.308.059-.62.059a3.452,3.452,0,0,1-.493-.055l.032-.051a1.64,1.64,0,0,0,.351.035c.311,0,.311-.056.62-.056s.311.056.623.056.308-.056.62-.056.311.056.62.056S15.473,17.173,15.784,17.173Z" transform="translate(-12.238 -15.678)" fill="#fff"/><path d="M18.647,16.087l.047.083a1.778,1.778,0,0,0-.4-.048c-.311,0-.311.059-.623.059s-.308-.059-.62-.059-.311.059-.618.059-.313-.059-.624-.059-.308.059-.62.059-.308-.059-.62-.059-.311.059-.62.059-.311-.059-.623-.059a1.778,1.778,0,0,0-.4.048l.043-.083Z" transform="translate(-12.152 -15.827)" fill="#80a0d1"/><path d="M18.6,16.021l.043.075H12.96l.047-.075Z" transform="translate(-12.147 -15.836)" fill="#0642a1"/><path d="M17.784,17.295a1.813,1.813,0,0,1,.375.04h-.746A1.8,1.8,0,0,1,17.784,17.295Z" transform="translate(-11.538 -15.662)" fill="#fff"/><path d="M18.557,15.966l.036.063H13l.036-.063Z" transform="translate(-12.142 -15.843)" fill="#80a0d1"/><path d="M15.831,16.365c.311,0,.311.059.624.059s.307-.059.618-.059.311.059.62.059.311-.059.623-.059c.292,0,.309.055.573.059l.039.07h-.1c-.311,0-.311-.059-.62-.059s-.311.059-.623.059-.308-.059-.62-.059-.311.059-.62.059-.311-.059-.62-.059-.311.059-.623.059-.308-.059-.62-.059-.311.059-.62.059-.311-.059-.623-.059a4.211,4.211,0,0,0-.5.056l.039-.067c.265,0,.281-.059.573-.059.311,0,.311.059.623.059s.308-.059.62-.059.311.059.62.059S15.523,16.365,15.831,16.365Z" transform="translate(-12.178 -15.789)" fill="#0642a1"/><path d="M15.821,16.243c.311,0,.311.059.624.059s.307-.059.618-.059.311.059.62.059.311-.059.623-.059a3.436,3.436,0,0,1,.49.056l.043.07h-.024c-.311,0-.311-.055-.62-.055s-.311.055-.623.055-.308-.055-.62-.055-.311.055-.62.055-.311-.055-.62-.055-.311.055-.623.055-.308-.055-.62-.055-.311.055-.62.055-.311-.055-.623-.055a1.936,1.936,0,0,0-.415.047l.035-.063a3.377,3.377,0,0,1,.49-.056c.311,0,.311.059.623.059s.308-.059.62-.059.311.059.62.059S15.513,16.243,15.821,16.243Z" transform="translate(-12.167 -15.805)" fill="#0642a1"/><path d="M18.525,15.924l.028.047H13.033l.028-.047Z" transform="translate(-12.137 -15.849)" fill="#0642a1"/><path d="M18.5,15.9l.019.032H13.057l.019-.032Z" transform="translate(-12.134 -15.853)" fill="#80a0d1"/><path d="M18.487,15.872l.012.028H13.074l.012-.028Z" transform="translate(-12.132 -15.856)" fill="#0642a1"/><path d="M18.486,15.874h-5.4l.012-.016h5.377Z" transform="translate(-12.13 -15.858)" fill="#80a0d1"/><path d="M13.244,16.427c.311,0,.311.059.623.059s.308-.059.62-.059.311.059.62.059.311-.059.623-.059.308.059.62.059.308-.059.62-.059.311.059.62.059.311-.059.623-.059.308.059.62.059h.1l.044.072h-.036c-.31,0-.31-.059-.62-.059s-.311.059-.623.059-.308-.059-.62-.059-.311.059-.618.059-.313-.059-.624-.059-.308.059-.62.059-.308-.059-.62-.059-.311.059-.62.059-.311-.059-.623-.059-.308.059-.62.059H12.7l.043-.075A4.211,4.211,0,0,1,13.244,16.427Z" transform="translate(-12.183 -15.78)" fill="#80a0d1"/><path d="M13.225,16.181c.311,0,.311.059.623.059s.308-.059.62-.059.311.059.62.059.311-.059.623-.059.308.059.62.059.308-.059.62-.059.311.059.62.059.311-.059.623-.059c.289,0,.308.051.56.059l.04.067a3.436,3.436,0,0,0-.49-.056c-.311,0-.311.059-.623.059s-.308-.059-.62-.059-.311.059-.618.059-.313-.059-.624-.059-.308.059-.62.059-.308-.059-.62-.059-.311.059-.62.059-.311-.059-.623-.059a3.377,3.377,0,0,0-.49.056l.051-.094A1.509,1.509,0,0,1,13.225,16.181Z" transform="translate(-12.163 -15.814)" fill="#80a0d1"/><path d="M15.81,16.118c.311,0,.311.059.624.059s.307-.059.618-.059.311.059.62.059.311-.059.623-.059a1.778,1.778,0,0,1,.4.048l.048.083c-.252-.008-.272-.059-.56-.059-.311,0-.311.059-.623.059s-.308-.059-.62-.059-.311.059-.62.059-.311-.059-.62-.059-.311.059-.623.059-.308-.059-.62-.059-.311.059-.62.059-.311-.059-.623-.059a1.509,1.509,0,0,0-.329.032l.036-.056a1.778,1.778,0,0,1,.4-.048c.311,0,.311.059.623.059s.308-.059.62-.059.311.059.62.059S15.5,16.118,15.81,16.118Z" transform="translate(-12.157 -15.822)" fill="#0642a1"/><path d="M16.694,17.295a1.784,1.784,0,0,1,.372.04h-.742A1.732,1.732,0,0,1,16.694,17.295Z" transform="translate(-11.687 -15.662)" fill="#fff"/><path d="M15.6,17.295a1.813,1.813,0,0,1,.375.04H15.23A1.761,1.761,0,0,1,15.6,17.295Z" transform="translate(-11.837 -15.662)" fill="#fff"/><path d="M14.511,17.295a1.784,1.784,0,0,1,.372.04h-.747A1.823,1.823,0,0,1,14.511,17.295Z" transform="translate(-11.986 -15.662)" fill="#fff"/><path d="M13.418,17.295a1.732,1.732,0,0,1,.371.04h-.741A1.761,1.761,0,0,1,13.418,17.295Z" transform="translate(-12.135 -15.662)" fill="#fff"/><path d="M12.659,17.335h-.414l.024-.04A2.021,2.021,0,0,1,12.659,17.335Z" transform="translate(-12.245 -15.662)" fill="#fff"/></g><g transform="translate(3.363 3.022)"><path d="M15.643,14.6a.124.124,0,0,1-.016.059c-.013.02-.032.04-.04.036s0-.013,0-.024c0-.028-.024-.04-.043-.064a.225.225,0,0,1-.043-.126.208.208,0,0,1,0-.051A.387.387,0,0,1,15.643,14.6Z" transform="translate(-15.163 -14.416)" fill="#fb3b3a"/><path d="M15.75,14.951v0c-.04.019-.091,0-.134.024a.132.132,0,0,0-.051.063.276.276,0,0,0-.016.056h0a.247.247,0,0,0-.008.027.133.133,0,0,1-.048.067l-.016,0,0-.013c-.008-.011,0-.027.008-.039s.019-.024.027-.036a.337.337,0,0,0,.024-.09.21.21,0,0,1,.019-.048.129.129,0,0,1,.086-.035c.02,0,.044,0,.064,0a.13.13,0,0,0,.04-.008A.037.037,0,0,1,15.75,14.951Z" transform="translate(-15.167 -14.347)" fill="#fb3b3a"/><path d="M15.692,14.979a.118.118,0,0,0-.055.008.108.108,0,0,0-.052.024.086.086,0,0,0-.019.048h0a.069.069,0,0,0-.016.04l-.011,0a.276.276,0,0,1,.016-.056.132.132,0,0,1,.051-.063c.043-.019.094,0,.134-.024a.031.031,0,0,1-.02.035A.247.247,0,0,1,15.692,14.979Z" transform="translate(-15.157 -14.344)" fill="#ff0302"/><path d="M15.716,14.984a.312.312,0,0,1-.082.016.109.109,0,0,0-.072.056.086.086,0,0,1,.019-.048.108.108,0,0,1,.052-.024.118.118,0,0,1,.055-.008A.247.247,0,0,0,15.716,14.984Z" transform="translate(-15.154 -14.341)" fill="#520200"/><path d="M15.465,15.084a.5.5,0,0,0,0,.083c0,.008,0,.013,0,.019a.067.067,0,0,0,.008.028.065.065,0,0,1-.027-.035v-.013a.808.808,0,0,0,0-.091.2.2,0,0,0-.059-.1.585.585,0,0,0-.107-.06.184.184,0,0,1-.072-.067.211.211,0,0,1,.08.016.264.264,0,0,1,.134.075.192.192,0,0,1,.035.1A.314.314,0,0,1,15.465,15.084Z" transform="translate(-15.202 -14.358)" fill="#520200"/><path d="M15.43,14.757a.32.32,0,0,1-.011.11c-.008.027-.016.059-.027.088a.272.272,0,0,0-.1-.044.211.211,0,0,0-.08-.016.076.076,0,0,1-.008-.027.1.1,0,0,1,.02-.078c.047-.075.086-.134.091-.139h0s-.056.048-.091.028c.011-.032.04-.083.083-.091a.214.214,0,0,0,.122-.051.152.152,0,0,0-.011.059.684.684,0,0,0,0,.083C15.422,14.705,15.43,14.733,15.43,14.757Z" transform="translate(-15.203 -14.401)" fill="#940101"/><path d="M15.593,15.175a.157.157,0,0,1-.044.091.074.074,0,0,1-.07.008h0a.067.067,0,0,1-.008-.028c0-.007,0-.011,0-.019a.5.5,0,0,1,0-.083.314.314,0,0,0,0-.047.192.192,0,0,0-.035-.1.271.271,0,0,0-.035-.031c.011-.028.019-.06.027-.088a.32.32,0,0,0,.011-.11c0-.024-.008-.051-.008-.078a.684.684,0,0,1,0-.083.152.152,0,0,1,.011-.059.214.214,0,0,1-.122.051c-.043.008-.072.059-.083.091a.076.076,0,0,1-.02-.028c-.023-.07.139-.26.289-.248a.1.1,0,0,1,.047.011.208.208,0,0,0,0,.051.225.225,0,0,0,.043.126c.019.024.043.035.043.064,0,.011-.008.024,0,.024s.027-.016.04-.036a.124.124,0,0,0,.016-.059.828.828,0,0,1,.09.281.367.367,0,0,1,0,.07c0,.013,0,.032,0,.043l0,.008a.13.13,0,0,1-.04.008c-.019,0-.043,0-.064,0a.129.129,0,0,0-.086.035.21.21,0,0,0-.019.048.337.337,0,0,1-.024.09c-.008.013-.019.024-.027.036s-.016.027-.008.039l0,.013.016,0a.133.133,0,0,0,.048-.067.247.247,0,0,1,.008-.027h0l.011,0Z" transform="translate(-15.203 -14.417)" fill="#ff0302"/></g><g clip-path="url(#b)"><g transform="translate(0.075 4.062)"><path d="M13.925,15.462a2.271,2.271,0,0,1-.371,1.03c-.193.319-.41.276-.643.3A2.252,2.252,0,0,0,13.925,15.462Z" transform="translate(-12.229 -15.315)" fill="#91bb35"/><path d="M17.109,15.334a1.649,1.649,0,0,1-.118,1.057,1.606,1.606,0,0,1-.131-.107,2.273,2.273,0,0,0,.182-.848,1.536,1.536,0,0,1-.324.71l-.024-.024a.336.336,0,0,0,.036-.094.263.263,0,0,1-.056.07l-.043-.051a1.269,1.269,0,0,0,.252-.391,1.777,1.777,0,0,0,.072-.193.175.175,0,0,1,.07-.118A.147.147,0,0,1,17.109,15.334Z" transform="translate(-11.72 -15.332)" fill="#ece62b"/><path d="M17.032,15.424a2.273,2.273,0,0,1-.182.848.973.973,0,0,1-.142-.138A1.536,1.536,0,0,0,17.032,15.424Z" transform="translate(-11.71 -15.32)" fill="#c5ca2c"/><path d="M14.374,15.933a2,2,0,0,0,.758.731c.1-.008.185-.02.185-.02a1.717,1.717,0,0,1-.493-.288,1.349,1.349,0,0,1-.11-.1,3.141,3.141,0,0,0,.2-.817,2.852,2.852,0,0,1-.3.71l-.075-.1a2.814,2.814,0,0,0,.177-.292c.035-.07.07-.146.107-.217s.059-.177.15-.189c-.008.181-.013.363,0,.544a1.1,1.1,0,0,0,.059.386.674.674,0,0,0,.276.316,1.349,1.349,0,0,0,.5.169c.094.011.189.019.288.024-.161-.1-.726-.506-.821-.868.193.257.493.714.942.722a1.3,1.3,0,0,1-.288-.142,1.276,1.276,0,0,1-.2-.146.7.7,0,0,1-.1-.088,1.412,1.412,0,0,0,.209-.674h0c.009-.094.009-.182.013-.241a.13.13,0,0,1,.078,0c.011,0,.019,0,.027,0,0,.256.048,1.373,1.156,1.286a1.645,1.645,0,0,1-.414-.225,2.208,2.208,0,0,0,.118-1.069l.008,0c.107.02.115.134.15.225a2.533,2.533,0,0,0,.107.233,1.736,1.736,0,0,0,.146.236l.043.051c.008.008.013.016.019.024l.024.024a.973.973,0,0,0,.142.138,1.606,1.606,0,0,0,.131.107,1.649,1.649,0,0,0,.118-1.057.134.134,0,0,1,.1.059c.013.032.02.063.032.094.051.134.115.265.177.391a1.461,1.461,0,0,0,1.113.757l.158.335a2.735,2.735,0,0,0-.789-.019,3.478,3.478,0,0,1-.533.086c-.319,0-.367-.1-.679-.086-.2.011-.209.056-.473.075-.1,0-.115,0-.466-.013-.335-.011-.5-.015-.588-.007-.233.027-.236.074-.458.086a3.241,3.241,0,0,1-.418-.016c-.244-.011-.371-.019-.433-.016-.246.016-.249.067-.485.086-.044,0-.051,0-.493-.023-.273-.016-.332-.02-.426-.02a1.7,1.7,0,0,0-.383.04,1.259,1.259,0,0,0-.347.138l.107-.492a1.329,1.329,0,0,0,.8-.26,3,3,0,0,0,.41-.447,3.044,3.044,0,0,0,.2-.327c.04-.07.075-.146.107-.217s.063-.177.15-.189a2.347,2.347,0,0,0,.008.666c.063.225.067.715,1.112.774A2.547,2.547,0,0,1,14.374,15.933Zm-.738.576a2.271,2.271,0,0,0,.371-1.03,2.252,2.252,0,0,1-1.014,1.333C13.226,16.786,13.443,16.829,13.636,16.509Z" transform="translate(-12.311 -15.332)" fill="#95c82b"/><path d="M16.67,16.015a.263.263,0,0,0,.056-.07.336.336,0,0,1-.036.094C16.683,16.031,16.678,16.023,16.67,16.015Z" transform="translate(-11.715 -15.249)" fill="#91bb35"/><path d="M16.329,15.348a2.208,2.208,0,0,1-.118,1.069c-.027-.019-.051-.039-.08-.063s-.074-.067-.106-.1a1.923,1.923,0,0,0,.244-.821,3.194,3.194,0,0,1-.324.738c-.016-.019-.027-.035-.039-.051h0l.043-.1-.064.075c-.011-.016-.027-.032-.039-.051a3.176,3.176,0,0,0,.173-.292c.04-.07.075-.146.107-.217C16.175,15.439,16.2,15.328,16.329,15.348Z" transform="translate(-11.827 -15.331)" fill="#ece62b"/><path d="M15.934,16.162a3.194,3.194,0,0,0,.324-.738,1.923,1.923,0,0,1-.244.821C15.985,16.217,15.958,16.189,15.934,16.162Z" transform="translate(-11.816 -15.32)" fill="#c5ca2c"/><path d="M15.542,15.433s.1,1.078.7,1.1A1.9,1.9,0,0,1,15.542,15.433Zm.41.687h0c.011.016.023.032.039.051s.051.056.08.083.067.067.106.1.052.043.08.063a1.645,1.645,0,0,0,.414.225c-1.108.088-1.159-1.03-1.156-1.286.088.035.1.138.127.221a2.254,2.254,0,0,0,.106.233,1.744,1.744,0,0,0,.147.236c.011.019.027.035.039.051S15.945,16.112,15.953,16.12Z" transform="translate(-11.873 -15.329)" fill="#ece62b"/><path d="M15.946,15.941l-.043.1c-.008-.008-.013-.016-.02-.024Z" transform="translate(-11.823 -15.249)" fill="#91bb35"/><path d="M15.539,15.424a1.9,1.9,0,0,0,.7,1.1C15.641,16.5,15.539,15.424,15.539,15.424Z" transform="translate(-11.87 -15.32)" fill="#c5ca2c"/><path d="M14.7,15.435s.1,1.014.695,1.18A2.272,2.272,0,0,1,14.7,15.435Zm1.07,1.354c-.1,0-.193-.013-.288-.024a1.349,1.349,0,0,1-.5-.169.674.674,0,0,1-.276-.316,1.1,1.1,0,0,1-.059-.386c-.008-.182,0-.364,0-.544a.13.13,0,0,1,.055,0c.11.02.118.134.15.225a2.3,2.3,0,0,0,.111.233,1.676,1.676,0,0,0,.146.241c.011.015.024.027.035.043l.035.047.024.024a.724.724,0,0,0,.094.1.7.7,0,0,0,.1.088,1.276,1.276,0,0,0,.2.146,1.3,1.3,0,0,0,.288.142c-.449-.008-.749-.465-.942-.722C15.045,16.283,15.61,16.693,15.771,16.788Z" transform="translate(-11.992 -15.331)" fill="#ece62b"/><path d="M15.47,15.351c0,.059,0,.147-.013.241h0a2.722,2.722,0,0,1-.3.572l-.024-.024c.008-.027.024-.07.043-.134a.188.188,0,0,1-.078.088c-.011-.016-.024-.028-.035-.043a2.248,2.248,0,0,0,.177-.3c.04-.07.072-.146.107-.217S15.4,15.379,15.47,15.351Z" transform="translate(-11.935 -15.33)" fill="#ece62b"/><path d="M15.447,15.563a1.412,1.412,0,0,1-.209.674.724.724,0,0,1-.094-.1A2.722,2.722,0,0,0,15.447,15.563Z" transform="translate(-11.924 -15.301)" fill="#c5ca2c"/><path d="M15.091,16.015a.188.188,0,0,0,.078-.088c-.019.064-.035.107-.043.134Z" transform="translate(-11.931 -15.251)" fill="#91bb35"/><path d="M14.695,15.424a2.272,2.272,0,0,0,.695,1.18C14.79,16.438,14.695,15.424,14.695,15.424Z" transform="translate(-11.985 -15.32)" fill="#c5ca2c"/><path d="M15.107,16.642s-.083.013-.185.02a2,2,0,0,1-.758-.731,2.547,2.547,0,0,0,.824.857c-1.045-.059-1.049-.549-1.112-.774a2.347,2.347,0,0,1-.008-.666.156.156,0,0,1,.059,0c.107.02.114.134.15.225a2.523,2.523,0,0,0,.106.233,2.585,2.585,0,0,0,.147.236l.075.1c.032.035.063.07.1.107a1.349,1.349,0,0,0,.11.1A1.717,1.717,0,0,0,15.107,16.642Zm-.951-.359a.593.593,0,0,0,.485.332,2.1,2.1,0,0,1-.718-1.18A2.821,2.821,0,0,0,14.156,16.283Z" transform="translate(-12.101 -15.331)" fill="#ece62b"/><path d="M14.638,15.424a3.141,3.141,0,0,1-.2.817c-.036-.036-.067-.072-.1-.107A2.852,2.852,0,0,0,14.638,15.424Z" transform="translate(-12.034 -15.32)" fill="#91bb35"/><path d="M14.632,16.6a.593.593,0,0,1-.485-.332,2.821,2.821,0,0,1-.233-.848A2.1,2.1,0,0,0,14.632,16.6Z" transform="translate(-12.092 -15.32)" fill="#c5ca2c"/></g></g></g></g></g></g></svg>