<svg xmlns="http://www.w3.org/2000/svg" width="35.169" height="35.169" viewBox="0 0 35.169 35.169"><g transform="translate(0)"><g transform="translate(0 0)"><path d="M34.045,20.627a17.587,17.587,0,0,1-33.16,0Z" transform="translate(0.121 2.82)"/><path d="M35.169,16.174a17.484,17.484,0,0,1-1,5.863H1.006a17.586,17.586,0,0,1,0-11.725H34.162A17.372,17.372,0,0,1,35.169,16.174Z" transform="translate(0 1.41)" fill="#fff"/><path d="M34.041,11.722H.885a17.584,17.584,0,0,1,33.156,0Z" transform="translate(0.121)" fill="#cd1225"/><g transform="translate(6.111 14.116)"><path d="M9.026,12.418l.86,2.651h2.785l-2.253,1.637.86,2.647L9.026,17.717,6.769,19.354l.864-2.647L5.376,15.07H8.162Z" transform="translate(-5.376 -12.418)" fill="#00793d"/><path d="M22.964,12.418l.86,2.651H26.61l-2.253,1.637.86,2.647-2.253-1.637-2.257,1.637.86-2.647L19.315,15.07H22.1Z" transform="translate(-3.471 -12.418)" fill="#00793d"/></g></g></g></svg>