<svg xmlns="http://www.w3.org/2000/svg" width="35.153" height="35.153" viewBox="0 0 35.153 35.153"><g transform="translate(0 0)"><path d="M0,17.455A17.6,17.6,0,0,0,11.717,34.026V.885A17.6,17.6,0,0,0,0,17.455Z" transform="translate(0 0.121)" fill="#062493"/><path d="M32.334,17.455A17.6,17.6,0,0,0,20.616.885V34.026A17.609,17.609,0,0,0,32.334,17.455Z" transform="translate(2.819 0.121)" fill="#ec2938"/><path d="M16.168,0a17.451,17.451,0,0,0-5.86,1.006V34.147a17.563,17.563,0,0,0,11.717,0V1.006A17.473,17.473,0,0,0,16.168,0Z" transform="translate(1.409 0)" fill="#fff"/></g></svg>