<svg xmlns="http://www.w3.org/2000/svg" width="35.153" height="35.153" viewBox="0 0 35.153 35.153"><g transform="translate(0 0)"><g transform="translate(3.664 3.85)"><path d="M26.337,8.016c5.709,5.71,6.206,14.5,1.108,19.594S13.561,32.21,7.853,26.5,1.646,12,6.745,6.907,20.632,2.307,26.337,8.016Z" transform="translate(-3.223 -3.387)"/></g><path d="M35.153,17.576c0,.26,0,.517-.016.77a8.156,8.156,0,0,1-3.5.7c-2.88,0-3.4-.942-5.424-1.286-.142-.024-.292-.048-.45-.064h0a10.3,10.3,0,0,0-1.156-.059,9.864,9.864,0,0,0-1.487.1c-.115.019-.217.035-.319.055s-.2.043-.292.064l-.177.047c-1.515.41-2.221,1.14-4.755,1.14s-3.239-.73-4.75-1.14c-.059-.015-.118-.031-.177-.043-.094-.024-.189-.047-.292-.063h0c-.1-.024-.208-.04-.319-.056a9.448,9.448,0,0,0-1.491-.107,9.606,9.606,0,0,0-1.64.126c-.088.016-.174.032-.253.052-1.794.379-2.4,1.23-5.137,1.23a8.149,8.149,0,0,1-3.5-.7C.008,18.093,0,17.836,0,17.576A17.457,17.457,0,0,1,2.36,8.79,17.7,17.7,0,0,1,8.932,2.28c.051-.032.1-.063.158-.091a17.544,17.544,0,0,1,16.562-.221c.1.051.2.107.3.158A17.689,17.689,0,0,1,32.793,8.79,17.423,17.423,0,0,1,35.153,17.576Z" fill="#cd1225"/><g transform="translate(8.386 8.52)"><path d="M13.414,11.825l.013.1L11.92,10.772A4.091,4.091,0,0,1,11.525,8.7a3.7,3.7,0,0,0,1.649,1.25Z" transform="translate(-6.813 -7.329)" fill="#fbd023"/><path d="M13.664,11.946c-.035.016-.07.036-.1.051l-.072.036c-.023.011-.047.023-.067.035l-.008-.056-.438-3.385L13.724,9.8l1.123,1.755c-.027,0-.051.013-.075.016l-.078.016a1.063,1.063,0,0,1-.115.027c-.023.008-.047.013-.07.02-.043.011-.083.023-.123.035-.024.008-.043.011-.063.019-.059.02-.123.04-.182.059a.05.05,0,0,1-.023.008l-.025.008c-.063.024-.122.048-.181.075l-.059.024c-.04.016-.08.035-.118.051Z" transform="translate(-6.612 -7.34)" fill="#fbd023"/><path d="M15.233,9.5,14.8,11.441l-.123-.2-.9-1.4a4.08,4.08,0,0,1,.335-2.076A3.745,3.745,0,0,0,15.233,9.5Z" transform="translate(-6.504 -7.458)" fill="#fbd023"/><path d="M15.072,11.541c-.04.008-.08.008-.118.016a.706.706,0,0,1-.083.008l-.075.011.024-.1.457-2.04v0l.276-1.242.335,1.5.423,1.89c-.024,0-.048,0-.072-.008l-.078-.011-.118-.013c-.024,0-.048,0-.072-.008-.047,0-.09-.008-.134-.008a.337.337,0,0,0-.059,0c-.067,0-.13-.008-.2-.008h-.052c-.063,0-.126,0-.189.008h-.064l-.13.011C15.12,11.537,15.1,11.541,15.072,11.541Z" transform="translate(-6.363 -7.4)" fill="#fbd023"/><path d="M16.911,7.754a3.73,3.73,0,0,0,.458,2.015L16.3,11.443l-.217-.966-.2-.888A4.1,4.1,0,0,1,16.911,7.754Z" transform="translate(-6.214 -7.459)" fill="#fbd023"/><path d="M16.574,11.611a1.063,1.063,0,0,1-.115-.027l-.078-.016c-.028,0-.051-.011-.075-.016L17.489,9.7h0l.687-1.073L18,10v0l-.252,1.948-.016.115a.331.331,0,0,0-.067-.032.751.751,0,0,0-.072-.04c-.035-.015-.067-.035-.107-.051a.3.3,0,0,0-.067-.031c-.039-.02-.078-.036-.118-.056l-.055-.024c-.059-.024-.118-.048-.182-.07a.206.206,0,0,0-.047-.016c-.06-.024-.123-.043-.186-.064-.019-.008-.039-.011-.059-.019l-.126-.035A.607.607,0,0,1,16.574,11.611Z" transform="translate(-6.157 -7.34)" fill="#fbd023"/><path d="M19.307,10.725l-1.578,1.2.244-1.886A4.106,4.106,0,0,1,19.567,8.67,3.735,3.735,0,0,0,19.307,10.725Z" transform="translate(-5.962 -7.334)" fill="#fbd023"/><path d="M17.943,12.148a.88.88,0,0,0-.1-.067.6.6,0,0,0-.059-.04L17.715,12l.059-.048,1.685-1.286h0l1.014-.773L18.91,12.9l-.034.07-.052-.051a.414.414,0,0,0-.055-.063,1.084,1.084,0,0,0-.08-.083.62.62,0,0,1-.051-.056c-.032-.027-.064-.059-.094-.091a.41.41,0,0,1-.048-.043c-.048-.043-.094-.086-.146-.126a.3.3,0,0,0-.036-.032c-.051-.043-.1-.082-.153-.122a.321.321,0,0,0-.048-.035L18,12.188C17.983,12.176,17.964,12.164,17.943,12.148Z" transform="translate(-5.964 -7.167)" fill="#fbd023"/><path d="M21.773,10.409a3.742,3.742,0,0,0-.942,1.838l-1.894.6.875-1.688A4.049,4.049,0,0,1,21.773,10.409Z" transform="translate(-5.797 -7.096)" fill="#fbd023"/><path d="M18.945,12.989c-.016-.02-.035-.043-.051-.067l-.048-.059.036-.008,2.063-.647h0l1.215-.383-1.019.939,0,0-1.531,1.41c-.008-.024-.019-.044-.027-.067s-.019-.052-.032-.075-.027-.072-.043-.107l-.035-.072c-.016-.035-.036-.075-.056-.114-.008-.016-.019-.036-.027-.056-.032-.059-.059-.115-.094-.169a.139.139,0,0,0-.016-.032l-.008-.016c-.035-.055-.067-.11-.1-.166-.011-.015-.023-.035-.039-.055a.934.934,0,0,0-.067-.1c-.016-.024-.032-.048-.048-.067Z" transform="translate(-5.809 -6.903)" fill="#fbd023"/><path d="M21.121,12.8a4.105,4.105,0,0,1,2.1-.027,3.716,3.716,0,0,0-1.519,1.4l-1.981-.088Z" transform="translate(-5.689 -6.79)" fill="#fbd023"/><path d="M19.823,15.283a.4.4,0,0,0,0-.075l-.011-.13a.45.45,0,0,1-.008-.059c-.008-.067-.019-.131-.027-.194l-.013-.051c-.008-.063-.024-.126-.035-.189,0-.024-.011-.043-.016-.064-.011-.043-.019-.086-.032-.126-.008-.024-.011-.048-.019-.07-.011-.04-.024-.08-.035-.118l-.024-.072c-.008-.024-.011-.051-.019-.075h.011l3.452.158-1.279.533,0,0-1.921.8a.385.385,0,0,0,0-.075.587.587,0,0,0,0-.08C19.831,15.362,19.827,15.323,19.823,15.283Z" transform="translate(-5.709 -6.597)" fill="#fbd023"/><path d="M21.751,14.82a4.034,4.034,0,0,1,1.984.691,3.737,3.737,0,0,0-1.905.8l-1.835-.766Z" transform="translate(-5.652 -6.493)" fill="#fbd023"/><path d="M19.657,16.783a.6.6,0,0,1,.019-.07c.013-.043.02-.083.032-.126,0-.024.013-.043.016-.064.011-.063.027-.126.035-.189l.008-.048c.013-.063.024-.126.032-.189,0-.024,0-.044,0-.067.007-.044.011-.088.015-.127a.429.429,0,0,0,0-.074c0-.04.008-.08.008-.119a.666.666,0,0,0,0-.083.4.4,0,0,0,0-.074l.138.055,3.066,1.279-3.444.158h-.019c.008-.024.011-.044.019-.067s.019-.052.027-.08S19.646,16.823,19.657,16.783Z" transform="translate(-5.709 -6.393)" fill="#fbd023"/><path d="M21.618,16.937a4.045,4.045,0,0,1,1.633,1.33,3.725,3.725,0,0,0-2.067.1l-1.461-1.341Z" transform="translate(-5.689 -6.204)" fill="#fbd023"/><path d="M20.835,18.968l-1.989-.623.048-.059c.016-.024.035-.043.051-.067a.67.67,0,0,0,.067-.091c.016-.024.032-.043.048-.064l.07-.106c.013-.016.024-.035.035-.051.032-.056.068-.111.1-.163l.028-.047c.031-.056.063-.111.09-.171.013-.019.02-.043.032-.063.019-.035.035-.075.056-.11s.024-.051.035-.075.027-.067.043-.1.019-.052.032-.075.019-.048.027-.072l1.614,1.488h0l.939.864-1.322-.415Z" transform="translate(-5.809 -6.191)" fill="#fbd023"/><path d="M20.748,18.946a4.09,4.09,0,0,1,1.081,1.8,3.754,3.754,0,0,0-1.981-.612l-.911-1.76Z" transform="translate(-5.797 -6.007)" fill="#fbd023"/><path d="M17.943,19.151c.02-.016.04-.027.059-.043.035-.024.072-.051.107-.078.016-.013.032-.024.051-.036.048-.039.1-.078.146-.118a.25.25,0,0,0,.04-.035c.051-.04.1-.083.147-.126.015-.013.031-.027.047-.043.032-.032.064-.059.091-.091a.665.665,0,0,0,.059-.056c.024-.027.051-.055.075-.083s.04-.043.059-.063.035-.035.052-.056l1.6,3.085-2.7-2.063-.059-.047c.019-.013.04-.024.063-.04s.044-.027.067-.043S17.908,19.17,17.943,19.151Z" transform="translate(-5.964 -6.015)" fill="#fbd023"/><path d="M19.24,20.544a4.073,4.073,0,0,1,.394,2.063,3.707,3.707,0,0,0-1.649-1.25l-.24-1.87-.016-.1Z" transform="translate(-5.962 -5.869)" fill="#fbd023"/><path d="M16.57,19.727a.344.344,0,0,0,.075-.019c.04-.008.083-.024.123-.035.024,0,.043-.013.063-.016.059-.019.123-.04.182-.064l.048-.016.181-.07a.4.4,0,0,0,.059-.027c.04-.016.08-.032.118-.051l.072-.036.1-.047a.429.429,0,0,1,.075-.04l.064-.035.027.2.418,3.24-.746-1.169,0,0-1.12-1.752a.364.364,0,0,1,.075-.016c.023-.008.051-.011.078-.019A.982.982,0,0,0,16.57,19.727Z" transform="translate(-6.157 -5.885)" fill="#fbd023"/><path d="M17.329,21.528a4.085,4.085,0,0,1-.335,2.075,3.686,3.686,0,0,0-1.125-1.736l.434-1.94Z" transform="translate(-6.217 -5.795)" fill="#fbd023"/><path d="M15.064,19.791a.5.5,0,0,1,.078.008c.04,0,.083,0,.126.008.02,0,.044,0,.067,0,.064,0,.126,0,.193,0h.048c.064,0,.131,0,.193,0,.024,0,.043,0,.067,0,.04,0,.083,0,.126-.008s.051,0,.08-.008l.115-.013.082-.011.072-.011-.013.063-.746,3.326-.3-1.353h0l-.447-1.977-.011-.059.07.011.083.011Z" transform="translate(-6.363 -5.818)" fill="#fbd023"/><path d="M14.8,19.929l.417,1.854A4.085,4.085,0,0,1,14.2,23.618a3.714,3.714,0,0,0-.462-2.02l.714-1.112Z" transform="translate(-6.508 -5.795)" fill="#fbd023"/><path d="M13.154,21.333l.268-2.063.064.035.07.035c.036.02.072.035.107.051s.043.024.067.036c.04.015.08.035.118.051a.4.4,0,0,1,.059.027c.059.024.118.048.178.067.015.008.035.011.051.019.059.02.122.04.181.064.02,0,.04.011.059.016.044.011.088.027.131.035a.436.436,0,0,0,.07.019c.04.013.08.02.115.028s.056.011.078.019a.419.419,0,0,1,.075.016l-1.87,2.924.177-1.381Z" transform="translate(-6.612 -5.885)" fill="#fbd023"/><path d="M13.417,19.388l-.008.083-.236,1.8a4.112,4.112,0,0,1-1.59,1.377,3.773,3.773,0,0,0,.26-2.055Z" transform="translate(-6.803 -5.869)" fill="#fbd023"/><path d="M12.566,18.52c.02.019.036.039.056.055.032.032.064.059.094.091.016.013.028.027.048.043l.142.131a.287.287,0,0,1,.04.032c.051.039.1.083.153.122.016.013.032.024.051.036a.786.786,0,0,0,.107.078c.019.016.04.027.059.043s.067.043.1.067.043.027.067.04a.636.636,0,0,0,.063.04l-.059.047L11.8,20.631l0,0-1.009.773.638-1.234h0l.734-1.413.225-.438c.016.02.032.035.047.056a.664.664,0,0,1,.056.059A1.064,1.064,0,0,1,12.566,18.52Z" transform="translate(-6.911 -6.015)" fill="#fbd023"/><path d="M12.334,18.378l-.013.024-.864,1.661a4.084,4.084,0,0,1-1.964.749,3.748,3.748,0,0,0,.947-1.843Z" transform="translate(-7.088 -6.007)" fill="#fbd023"/><path d="M10.188,18.444l1.531-1.413a.615.615,0,0,0,.027.072c.008.023.02.047.032.075s.027.067.043.1.02.047.032.07c.019.04.04.075.059.115a.457.457,0,0,0,.027.059c.028.056.059.11.091.169.008.008.013.02.019.027l.008.02c.032.055.067.107.1.161.011.02.023.035.035.056l.07.106c.016.02.032.044.044.064l.07.094c.016.02.032.04.048.064l.047.059-.024.008L10.381,19h0l-1.215.38,1.019-.939Z" transform="translate(-7.133 -6.191)" fill="#fbd023"/><path d="M11.625,17.025l-1.4,1.286a4.084,4.084,0,0,1-2.106.032,3.756,3.756,0,0,0,1.522-1.408Z" transform="translate(-7.276 -6.204)" fill="#fbd023"/><path d="M11.759,17.044,8.3,16.886l1.282-.533h0l1.924-.8v.074a.474.474,0,0,1,0,.08c0,.04.008.078.008.118,0,.024,0,.051.008.075l.011.131c0,.019,0,.039.008.059.008.067.016.13.027.193l.008.051c.013.063.024.126.04.189a.267.267,0,0,0,.016.059,1.288,1.288,0,0,0,.032.131.289.289,0,0,0,.019.067.948.948,0,0,0,.032.118c.008.024.016.051.024.075s.016.048.023.072Z" transform="translate(-7.251 -6.393)" fill="#fbd023"/><path d="M11.379,15.554l-1.755.734a4.117,4.117,0,0,1-1.985-.695,3.71,3.71,0,0,0,1.91-.8Z" transform="translate(-7.342 -6.497)" fill="#fbd023"/><path d="M11.743,14.065l.023,0c-.007.024-.015.048-.023.072s-.016.051-.024.078-.02.075-.032.11a.382.382,0,0,0-.019.075,1.078,1.078,0,0,0-.032.126.306.306,0,0,0-.016.059c-.016.064-.027.126-.04.193l-.008.048c-.008.064-.019.126-.027.19,0,.019,0,.043-.008.063l-.011.131c0,.023,0,.047-.008.075s0,.078-.008.118a.454.454,0,0,1,0,.078v.08l-.291-.123L8.3,14.218Z" transform="translate(-7.251 -6.597)" fill="#fbd023"/><path d="M11.628,14.076l-1.9.083A4.058,4.058,0,0,1,8.1,12.833a3.728,3.728,0,0,0,2.068-.1Z" transform="translate(-7.278 -6.779)" fill="#fbd023"/><path d="M11.719,14.177,10.1,12.689h0l-.939-.864,3.314,1.038c-.016.019-.031.043-.047.063s-.032.04-.048.064l-.07.094a.771.771,0,0,0-.044.064c-.023.031-.047.067-.07.1-.013.019-.024.035-.035.055-.036.052-.067.107-.1.163a.139.139,0,0,0-.019.032l-.008.011c-.032.056-.064.115-.091.169-.013.02-.02.04-.032.059-.019.04-.04.075-.056.115-.011.024-.023.051-.035.075a.982.982,0,0,1-.043.1c-.011.024-.019.051-.032.075A.615.615,0,0,0,11.719,14.177Z" transform="translate(-7.133 -6.903)" fill="#fbd023"/><path d="M11.424,11.073l.916,1.763-1.815-.567a4.106,4.106,0,0,1-1.078-1.807A3.713,3.713,0,0,0,11.424,11.073Z" transform="translate(-7.094 -7.089)" fill="#fbd023"/><path d="M12.57,12.776l-.078.078c-.02.024-.04.043-.06.067s-.031.036-.047.051l-1.6-3.081,2.737,2.095.019.011-.063.04c-.024.016-.048.027-.067.043s-.067.043-.1.067-.04.027-.064.043-.067.048-.1.075c-.016.013-.035.024-.051.035-.051.04-.1.08-.15.123a.442.442,0,0,1-.04.032c-.047.043-.094.083-.141.126a.41.41,0,0,1-.048.043c-.032.032-.064.059-.094.091S12.59,12.757,12.57,12.776Z" transform="translate(-6.911 -7.167)" fill="#fbd023"/><path d="M20.525,14.438a4.873,4.873,0,0,1,.2.746l.008.051c.008.063.019.13.027.193.02.169.032.343.036.513,0,.024,0,.043,0,.067v.059a5.1,5.1,0,0,1-.07.778l0,.047a4.873,4.873,0,0,1-.2.746l-.008.02-.011.032,0,0a4.446,4.446,0,0,1-.327.706l-.023.043a5.067,5.067,0,0,1-.447.635.28.28,0,0,1-.04.043,5.163,5.163,0,0,1-.551.552.144.144,0,0,1-.036.028,4.785,4.785,0,0,1-.631.446l-.056.032a4.987,4.987,0,0,1-.7.327l-.032.011-.016,0c-.059.023-.123.043-.182.063a5.455,5.455,0,0,1-.568.139.253.253,0,0,1-.051.008h-.008a4.6,4.6,0,0,1-.773.07h-.048c-.07,0-.138,0-.2-.008a4.435,4.435,0,0,1-.568-.059l-.058-.011a5.288,5.288,0,0,1-.755-.2.267.267,0,0,0-.043-.016,4.355,4.355,0,0,1-.7-.332l-.052-.027a4.585,4.585,0,0,1-.639-.45c-.013-.008-.024-.019-.035-.027a5.008,5.008,0,0,1-.549-.549.414.414,0,0,1-.035-.047,4.7,4.7,0,0,1-.446-.635l-.013-.016a.1.1,0,0,0-.016-.027,4.681,4.681,0,0,1-.327-.706.331.331,0,0,1-.011-.032l-.008-.02a4.811,4.811,0,0,1-.2-.749l-.008-.051a4.589,4.589,0,0,1-.067-.77v-.059a4.694,4.694,0,0,1,.067-.778l.008-.047a4.965,4.965,0,0,1,.2-.75l.008-.019a.33.33,0,0,0,.011-.032v0a4.322,4.322,0,0,1,.332-.7l.008-.016a.085.085,0,0,1,.016-.027A4.538,4.538,0,0,1,12.37,13a.369.369,0,0,1,.04-.048,4.619,4.619,0,0,1,.548-.548c.013-.008.024-.02.04-.032.055-.048.11-.091.169-.134a4.681,4.681,0,0,1,.462-.311c.016-.008.035-.02.052-.028a4.414,4.414,0,0,1,.7-.327.221.221,0,0,0,.027-.011l.024-.008a5.4,5.4,0,0,1,.557-.161c.063-.013.126-.028.19-.035l.058-.013a4.714,4.714,0,0,1,.773-.067h.052a4.6,4.6,0,0,1,.773.067.263.263,0,0,0,.055.008,4.708,4.708,0,0,1,.758.206.244.244,0,0,1,.043.015,4.8,4.8,0,0,1,.7.327l.051.028a4.631,4.631,0,0,1,.635.449c.011.013.024.02.035.032a4.166,4.166,0,0,1,.548.549A.18.18,0,0,1,19.7,13a4.962,4.962,0,0,1,.447.635l.011.019.011.024a4.585,4.585,0,0,1,.26.524c.024.059.048.119.067.178h0l0,0a.33.33,0,0,0,.011.032Z" transform="translate(-6.845 -6.978)" fill="#fbd023"/><path d="M25.741,16.521a3.442,3.442,0,0,0-1.945-.829l1.346-.565a.085.085,0,0,0,.055-.094.084.084,0,0,0-.083-.07l-1.519-.072a3.529,3.529,0,0,1,1.574-1.345.093.093,0,0,0,.051-.08.08.08,0,0,0-.048-.078,3.358,3.358,0,0,0-2.111-.118l1.078-.987a.09.09,0,0,0,.016-.11.091.091,0,0,0-.1-.04l-1.447.454a3.542,3.542,0,0,1,1.017-1.8.087.087,0,0,0,.02-.091.088.088,0,0,0-.072-.059,3.434,3.434,0,0,0-2.02.616l.671-1.3a.091.091,0,0,0-.024-.11.094.094,0,0,0-.11,0l-1.2.923a3.505,3.505,0,0,1,.34-2.044.088.088,0,0,0-.008-.094.094.094,0,0,0-.086-.032,3.425,3.425,0,0,0-1.7,1.27l.19-1.447a.088.088,0,0,0-.161-.059l-.817,1.278A3.531,3.531,0,0,1,18.264,7.6a.085.085,0,0,0-.043-.083.079.079,0,0,0-.091,0,3.424,3.424,0,0,0-1.156,1.772L16.655,7.86a.086.086,0,0,0-.088-.067.092.092,0,0,0-.086.067l-.332,1.483A3.527,3.527,0,0,1,15.1,7.56a.084.084,0,0,0-.067-.063.079.079,0,0,0-.086.032,3.383,3.383,0,0,0-.482,2.059l-.789-1.23a.081.081,0,0,0-.1-.036.082.082,0,0,0-.056.1l.193,1.506a3.571,3.571,0,0,1-1.6-1.317.1.1,0,0,0-.088-.04.1.1,0,0,0-.07.064,3.436,3.436,0,0,0,.257,2.1l-1.164-.887a.089.089,0,0,0-.107,0,.087.087,0,0,0-.024.11l.7,1.345a3.529,3.529,0,0,1-1.953-.687.091.091,0,0,0-.094-.008.092.092,0,0,0-.043.08,3.38,3.38,0,0,0,.955,1.889l-1.392-.438a.1.1,0,0,0-.1.04.087.087,0,0,0,.016.11l1.117,1.025a3.547,3.547,0,0,1-2.072.024.08.08,0,0,0-.086.024.084.084,0,0,0-.019.091,3.423,3.423,0,0,0,1.546,1.444l-1.46.072a.084.084,0,0,0-.083.07.087.087,0,0,0,.051.094l1.4.584a3.515,3.515,0,0,1-1.942.726.1.1,0,0,0-.075.059.1.1,0,0,0,.016.091,1.9,1.9,0,0,0,.244.2,4.149,4.149,0,0,0,1.7.626L8,17.976a.088.088,0,0,0-.056.1.093.093,0,0,0,.083.072l1.519.07a3.469,3.469,0,0,1-.88.939,3.781,3.781,0,0,1-.7.407.088.088,0,0,0-.051.078.086.086,0,0,0,.048.078,2.591,2.591,0,0,0,1.155.209,5.432,5.432,0,0,0,.959-.094L9,20.824a.082.082,0,0,0-.016.107.086.086,0,0,0,.075.043.081.081,0,0,0,.028,0l1.447-.455a3.411,3.411,0,0,1-.465,1.129,4.074,4.074,0,0,1-.552.679.082.082,0,0,0-.024.086.09.09,0,0,0,.072.059,1.219,1.219,0,0,0,.138.008,3.816,3.816,0,0,0,1.886-.623l-.671,1.3a.083.083,0,0,0,.024.107.075.075,0,0,0,.056.019.091.091,0,0,0,.051-.015l1.207-.924a3.569,3.569,0,0,1-.34,2.044.073.073,0,0,0-.008.056.064.064,0,0,0,.017.035.1.1,0,0,0,.07.035c.008,0,.011,0,.016,0a.494.494,0,0,0,.067-.016A3.708,3.708,0,0,0,13.7,23.239l-.186,1.448a.088.088,0,0,0,.056.1.1.1,0,0,0,.032,0,.088.088,0,0,0,.07-.039l.821-1.279a3.481,3.481,0,0,1,.383,1.945c0,.032,0,.059,0,.091a.092.092,0,0,0,.04.083.105.105,0,0,0,.048.011.1.1,0,0,0,.047-.011,1.652,1.652,0,0,0,.158-.126,3.941,3.941,0,0,0,1-1.646l.316,1.424a.092.092,0,0,0,.086.067.086.086,0,0,0,.088-.067l.331-1.483a3.507,3.507,0,0,1,1.026,1.7c.011.032.019.059.027.086a.09.09,0,0,0,.067.067h.016a.09.09,0,0,0,.07-.032.956.956,0,0,0,.1-.169,3.874,3.874,0,0,0,.375-1.894l.789,1.236a.1.1,0,0,0,.074.039.113.113,0,0,0,.032,0,.094.094,0,0,0,.056-.1l-.193-1.5a3.542,3.542,0,0,1,1.6,1.317h0a.09.09,0,0,0,.072.035h.016a.08.08,0,0,0,.067-.059l.008-.024a3.512,3.512,0,0,0-.26-2.079l1.159.892a.093.093,0,0,0,.056.015.088.088,0,0,0,.078-.126l-.679-1.309-.019-.04a1.078,1.078,0,0,1,.157.013,3.514,3.514,0,0,1,1.8.679.073.073,0,0,0,.051.016.074.074,0,0,0,.039-.013.082.082,0,0,0,.048-.078,2.264,2.264,0,0,0-.228-.785,4.853,4.853,0,0,0-.73-1.1l1.4.434a.061.061,0,0,0,.025,0,.092.092,0,0,0,.078-.043.085.085,0,0,0-.016-.107l-1.121-1.03a3.538,3.538,0,0,1,2.076-.019.091.091,0,0,0,.086-.024.093.093,0,0,0,.016-.094,2.018,2.018,0,0,0-.3-.458h0a4.439,4.439,0,0,0-1.244-.986l1.464-.067a.093.093,0,0,0,.083-.072.089.089,0,0,0-.055-.1l-1.4-.583a3.408,3.408,0,0,1,1.464-.659c.146-.027.3-.051.477-.067a.089.089,0,0,0,.075-.056A.094.094,0,0,0,25.741,16.521Zm-1.03-1.4-1.279.537-1.924.8c0-.028,0-.052,0-.075a.587.587,0,0,0,0-.08c0-.04,0-.078-.008-.122,0-.024,0-.048,0-.072l-.011-.13c0-.024,0-.044-.008-.064-.008-.063-.019-.126-.027-.19l-.013-.051c-.008-.063-.024-.126-.035-.189a.577.577,0,0,1-.016-.064c-.011-.043-.019-.086-.032-.126-.008-.024-.011-.048-.019-.07L21.29,15.1l-.024-.072c-.008-.024-.016-.051-.024-.07h.016ZM20.2,19.636q-.1.119-.2.225l-.075.08c-.027.024-.051.051-.078.075s-.04.039-.064.059c-.043.039-.083.075-.13.114a.338.338,0,0,1-.036.028,4.785,4.785,0,0,1-.631.446l-.056.032a4.791,4.791,0,0,1-.7.327.183.183,0,0,0-.028.011l-.019.008-.185.059a4.506,4.506,0,0,1-.565.139.253.253,0,0,1-.051.008h0a4.381,4.381,0,0,1-.778.067h-.048c-.07,0-.138,0-.2,0a4.435,4.435,0,0,1-.568-.059l-.058-.011a5.288,5.288,0,0,1-.755-.2c-.016,0-.027-.013-.043-.016a4.928,4.928,0,0,1-.7-.327c-.017-.013-.036-.02-.052-.032a4.963,4.963,0,0,1-.639-.446.287.287,0,0,0-.035-.032c-.048-.043-.1-.086-.147-.131-.032-.031-.063-.059-.091-.09s-.07-.067-.1-.1c-.075-.075-.142-.15-.209-.23a.414.414,0,0,1-.035-.047,4.171,4.171,0,0,1-.446-.635l-.013-.016a.1.1,0,0,0-.016-.027,4.681,4.681,0,0,1-.327-.706.331.331,0,0,1-.011-.032l-.008-.02a4.951,4.951,0,0,1-.2-.749l-.008-.051c-.008-.051-.016-.1-.024-.158a.555.555,0,0,1-.008-.078c-.011-.075-.019-.155-.024-.238s-.011-.2-.011-.3v-.059a4.256,4.256,0,0,1,.072-.778l0-.047a4.77,4.77,0,0,1,.2-.746l.008-.024A.33.33,0,0,0,12.1,14.9v0a4.322,4.322,0,0,1,.332-.7l.008-.016a.085.085,0,0,1,.016-.027,4.538,4.538,0,0,1,.446-.635l.035-.048a5.027,5.027,0,0,1,.552-.548c.013-.013.024-.02.035-.032.059-.043.115-.091.174-.134a4,4,0,0,1,.462-.311c.016-.008.035-.02.052-.028a4.939,4.939,0,0,1,.706-.331.068.068,0,0,0,.023-.008l.024-.008a5.4,5.4,0,0,1,.557-.161c.063-.013.126-.028.19-.035l.058-.013a4.725,4.725,0,0,1,.778-.067H16.6a5.212,5.212,0,0,1,.776.067.207.207,0,0,0,.051.008,4.708,4.708,0,0,1,.758.206.222.222,0,0,1,.04.015,4.681,4.681,0,0,1,.706.327l.051.028a4.631,4.631,0,0,1,.635.449.3.3,0,0,1,.035.032,4.43,4.43,0,0,1,.548.544.369.369,0,0,1,.04.048,4.962,4.962,0,0,1,.447.635l.011.019.011.024a4.646,4.646,0,0,1,.26.529c.024.055.048.115.067.174l0,0a.33.33,0,0,0,.011.032l.008.024a4.864,4.864,0,0,1,.2.746l.008.051c.011.063.023.13.031.193a4.572,4.572,0,0,1,.036.513.442.442,0,0,1,0,.067v.059c0,.1,0,.2-.011.3v.008c0,.067-.013.139-.02.206,0,.016,0,.027,0,.043-.013.075-.02.15-.035.225l-.008.047a4.5,4.5,0,0,1-.2.746l-.008.02-.011.032,0,0a4.446,4.446,0,0,1-.327.706l-.023.043a4.766,4.766,0,0,1-.45.635A.157.157,0,0,1,20.2,19.636Zm4.715-6.162a3.716,3.716,0,0,0-1.519,1.4l-1.981-.088,1.4-1.29A4.1,4.1,0,0,1,24.912,13.474Zm-1.183-1.057-1.019.939h0l-1.531,1.413c-.008-.024-.019-.044-.027-.067s-.019-.052-.032-.075a.955.955,0,0,0-.043-.107c-.011-.024-.024-.043-.035-.072s-.036-.075-.056-.11c-.008-.019-.019-.04-.027-.059-.032-.059-.059-.115-.094-.169a.139.139,0,0,0-.016-.032l-.008-.016c-.035-.055-.067-.11-.1-.166-.011-.015-.023-.035-.039-.055-.024-.035-.043-.067-.067-.1s-.032-.048-.048-.067l-.067-.091c-.016-.02-.035-.043-.051-.067a.6.6,0,0,1-.043-.059l.032-.008,2.063-.647ZM23.354,10.8a3.757,3.757,0,0,0-.942,1.843l-1.894.6.875-1.688A4.125,4.125,0,0,1,23.354,10.8Zm-2.481.19h0l1.014-.773-1.563,3.01-.034.07a.481.481,0,0,1-.052-.055c-.019-.02-.035-.04-.051-.059s-.055-.056-.083-.083a.342.342,0,0,1-.051-.056c-.032-.032-.064-.059-.094-.086l-.048-.048c-.048-.043-.094-.086-.146-.13a.325.325,0,0,1-.04-.032c-.048-.04-.1-.078-.15-.118a.448.448,0,0,0-.051-.035c-.035-.028-.072-.056-.107-.08-.019-.016-.039-.027-.055-.043l-.107-.07-.059-.036-.067-.043.059-.043Zm.11-2.162a3.77,3.77,0,0,0-.26,2.055l-1.578,1.2.244-1.886A4.106,4.106,0,0,1,20.982,8.831ZM18.71,9.856h0L19.4,8.783l-.177,1.373v0l-.252,1.948-.016.115c-.024-.013-.048-.024-.067-.035l-.072-.036c-.032-.015-.067-.035-.107-.051l-.063-.035a.879.879,0,0,1-.118-.051l-.059-.024c-.059-.024-.123-.048-.177-.07-.02,0-.036-.013-.051-.016-.06-.024-.123-.043-.182-.064-.024-.008-.043-.011-.067-.019-.04-.013-.08-.024-.123-.035a.607.607,0,0,1-.07-.02c-.04-.008-.08-.019-.115-.027l-.078-.016c-.024,0-.051-.011-.075-.016Zm-.635-2.067A3.73,3.73,0,0,0,18.533,9.8l-1.07,1.673-.217-.966-.2-.888A4.1,4.1,0,0,1,18.075,7.789ZM16.291,9.529v0l.276-1.239L16.9,9.781l.423,1.89c-.024,0-.048,0-.072-.008l-.078-.011-.118-.013c-.024,0-.048,0-.072-.008-.047,0-.09-.008-.134-.008a.337.337,0,0,0-.059,0c-.067,0-.13-.008-.2-.008h-.048c-.067,0-.131,0-.2,0a.254.254,0,0,1-.059,0l-.13.011c-.027,0-.051,0-.075,0-.04.008-.08.008-.118.016l-.083.011a.456.456,0,0,0-.075.008l.024-.1ZM14.986,7.8a3.72,3.72,0,0,0,1.121,1.74l-.434,1.937-.123-.2-.9-1.4A4.042,4.042,0,0,1,14.986,7.8Zm-.5,2.151,1.123,1.755c-.027,0-.051.013-.075.016l-.078.016c-.04.008-.075.019-.115.027-.023.008-.047.013-.07.02-.043.011-.083.023-.123.035a.252.252,0,0,0-.063.019c-.059.02-.123.04-.182.059l-.023.013-.028.008a1.643,1.643,0,0,0-.177.07l-.059.024-.118.051-.072.035c-.035.016-.07.036-.1.051l-.072.036-.067.035-.008-.056-.438-3.385ZM12.09,8.87a3.716,3.716,0,0,0,1.649,1.25l.24,1.87.013.1-1.511-1.153A4.114,4.114,0,0,1,12.09,8.87Zm-.835,1.349,2.737,2.09.019.016c-.019.013-.039.027-.063.04s-.048.032-.067.043-.067.043-.1.067-.04.027-.064.043-.067.048-.1.075a.52.52,0,0,0-.051.04c-.048.035-.1.075-.15.118a.223.223,0,0,0-.035.032c-.051.043-.1.086-.146.126a.41.41,0,0,1-.048.043c-.032.032-.064.059-.094.091s-.036.04-.056.059l-.078.078c-.02.024-.036.043-.056.064a.6.6,0,0,1-.051.055Zm-1.524.647a3.713,3.713,0,0,0,1.977.612l.916,1.763-1.815-.567A4.106,4.106,0,0,1,9.73,10.867Zm-.323,1.55,3.314,1.038c-.016.019-.031.043-.047.063l-.048.064-.07.094a.771.771,0,0,0-.044.064l-.07.1c-.013.019-.024.035-.035.055-.036.052-.067.107-.1.158-.008.013-.013.024-.019.036l-.008.011c-.032.056-.064.115-.091.169-.013.02-.02.04-.032.059-.019.04-.04.075-.056.115-.011.024-.023.051-.035.075s-.027.067-.043.1-.019.051-.032.08-.019.043-.027.067l-1.614-1.488h0ZM8.2,13.549a3.763,3.763,0,0,0,2.068-.1l1.46,1.345-1.9.083A4.058,4.058,0,0,1,8.2,13.549Zm.225,1.566,3.444-.153h.023a.472.472,0,0,0-.019.067c-.011.027-.019.051-.027.075s-.02.078-.032.114-.016.048-.024.075-.019.083-.027.126c0,.02-.013.04-.016.059-.011.064-.027.126-.04.193l-.008.048c-.011.064-.019.126-.027.19,0,.019,0,.043-.008.063,0,.043-.011.086-.015.131l0,.075c0,.039,0,.078-.008.118a.454.454,0,0,1,0,.078v.08l-.291-.123ZM9.2,17.211c-.048-.011-.1-.019-.139-.027-.094-.024-.177-.044-.26-.067l-.118-.036c-.04-.011-.075-.023-.11-.035-.075-.024-.142-.051-.206-.078a.188.188,0,0,1-.063-.024,1.092,1.092,0,0,1-.142-.064.762.762,0,0,1-.111-.051c-.008,0-.019-.011-.031-.016a.7.7,0,0,1-.088-.051L7.9,16.737a.143.143,0,0,1-.04-.019c-.024-.016-.048-.032-.067-.048s-.04-.027-.059-.039a.59.59,0,0,1-.056-.04,3.71,3.71,0,0,0,1.91-.8l1.83.762-.386.166-1.369.568L9.5,17.262l-.15-.024C9.3,17.23,9.249,17.219,9.2,17.211Zm-.778.778,1.282-.533h0l1.64-.682h0l.284-.118v.074a.474.474,0,0,1,0,.08.075.075,0,0,0,0,.027c0,.028,0,.059,0,.091l0,.075c0,.043.011.083.015.131,0,.019,0,.039.008.063.008.064.016.123.027.19l.008.047c.013.067.028.131.04.193,0,.02.011.04.016.059a1.288,1.288,0,0,0,.032.131.381.381,0,0,0,.019.07c.008.036.019.075.032.119a.72.72,0,0,1,.024.07c.008.024.016.048.023.072h-.007Zm-.2,1.645.134-.075c.043-.024.086-.051.126-.075s.083-.051.123-.078.075-.051.114-.08l.084-.059c.055-.043.109-.086.157-.13.016-.013.027-.024.04-.032a1.181,1.181,0,0,0,.1-.091c.043-.04.078-.075.115-.115a1.512,1.512,0,0,0,.11-.118c.035-.039.07-.078.1-.118s.051-.063.075-.094l0,0,.094-.13c.051-.072.094-.142.138-.209l1.981.091-.951.875-.446.41A4.067,4.067,0,0,1,8.227,19.633Zm1.183,1.054,1.019-.936,0,0L11,19.223h0l.963-.883c.008.019.019.043.027.063s.02.051.028.08l.047.1.035.07c.016.04.036.075.056.115a.457.457,0,0,0,.027.059c.028.056.059.115.091.169.008.008.013.02.019.027l.008.02c.032.051.067.107.1.161.011.02.023.035.035.056s.043.07.07.106.032.044.048.064.043.064.064.094.035.04.055.064.027.04.043.059l-.024.008-.039.011h0l-2.028.639h0Zm1.764,1.195,0,0c-.039.019-.078.035-.118.055-.094.048-.181.083-.264.119s-.178.063-.257.09c-.043.013-.083.028-.123.036s-.075.023-.114.031a.9.9,0,0,1-.107.024c-.035.008-.067.016-.1.02a.86.86,0,0,1-.086.015c-.043.008-.086.013-.118.016a.25.25,0,0,1-.056,0,.22.22,0,0,1-.047,0c.051-.055.1-.11.142-.166l.059-.07c.019-.024.035-.048.051-.067.031-.035.055-.075.083-.11a1.222,1.222,0,0,1,.075-.107c.023-.04.051-.078.07-.118l0,0c.023-.039.047-.078.07-.122a1.131,1.131,0,0,0,.063-.123,3.468,3.468,0,0,0,.2-.481c.02-.067.04-.126.056-.185a.851.851,0,0,0,.027-.1c.017-.064.028-.127.04-.186l1.9-.591-.013.024-.864,1.661c-.059.039-.118.078-.174.11s-.091.056-.134.078-.066.036-.1.056C11.285,21.827,11.229,21.854,11.175,21.881Zm1.092.233h0l-1.009.773.516-1,.122-.236h0l.734-1.413.225-.438c.016.02.032.035.051.056l.051.059c.027.027.056.055.083.086.016.016.032.035.051.051.032.032.064.059.091.088s.032.031.051.047l.142.131a.287.287,0,0,1,.04.032c.051.039.1.083.153.122.016.013.032.024.051.036a.786.786,0,0,0,.107.078.487.487,0,0,1,.059.043c.032.019.067.043.1.067s.043.027.067.04l.063.04-.059.047-1.621,1.239Zm-.11,2.159a3.759,3.759,0,0,0,.26-2.052l.11-.088,1.464-1.12-.008.083-.2,1.522-.035.281A4.085,4.085,0,0,1,12.157,24.273Zm1.586.051.177-1.381.036-.268.232-1.795.064.035.07.035c.036.02.072.035.107.051l.067.036c.04.019.08.031.118.051l.059.024a1.571,1.571,0,0,0,.178.07c.015.008.035.011.051.019.059.02.122.044.181.064.02,0,.043.011.064.016l.126.035c.024.008.048.011.07.019a1.057,1.057,0,0,0,.115.028c.027.008.051.011.078.019s.052.011.075.016l-.939,1.464Zm1.322.993A3.746,3.746,0,0,0,14.6,23.3l.256-.394.458-.714.356-.56.315,1.4.1.454A4.118,4.118,0,0,1,15.065,25.318Zm1.5-.5-.3-1.349v0l-.1-.434-.348-1.543-.011-.059.07.011.083.011.115.013a.5.5,0,0,1,.078.008c.04,0,.083,0,.126.008.02,0,.044,0,.064,0,.067,0,.13,0,.2,0h.048c.067,0,.131,0,.193,0,.02,0,.043,0,.067,0,.044,0,.083,0,.126-.008s.056,0,.08-.008l.11-.013.086-.011.072-.011-.013.063-.347,1.539Zm1.587.481a3.777,3.777,0,0,0-1.121-1.739l.118-.533.311-1.4L18.28,22.9l.209.324A4.1,4.1,0,0,1,18.154,25.3Zm.5-2.146v0l-.185-.288L17.527,21.4c.024,0,.047-.013.075-.016s.051-.011.078-.019a.982.982,0,0,0,.11-.028c.028-.008.052-.011.075-.019l.123-.035a.42.42,0,0,0,.063-.016c.059-.019.123-.04.182-.064l.048-.016.181-.07c.02-.008.04-.019.059-.027.04-.016.08-.032.118-.051A.531.531,0,0,0,18.71,21l.1-.047c.024-.013.048-.028.075-.04s.04-.024.064-.035l.027.2.206,1.59.213,1.649Zm2.4,1.078a3.733,3.733,0,0,0-1.649-1.25l-.047-.367-.2-1.5-.011-.1,1.468,1.12.043.036A4.073,4.073,0,0,1,21.049,24.233Zm.837-1.346-1.081-.824-1.618-1.239-.059-.047a.657.657,0,0,1,.063-.04l.064-.04c.035-.024.067-.048.1-.067a.6.6,0,0,1,.059-.043c.035-.024.072-.051.107-.078.016-.013.032-.024.051-.036.048-.039.1-.078.146-.118a.25.25,0,0,0,.04-.035c.051-.04.1-.083.147-.126.015-.013.031-.032.047-.043.032-.028.064-.059.1-.091A.637.637,0,0,1,20.1,20c.024-.027.051-.055.08-.083s.035-.039.055-.063.035-.035.052-.056l1.08,2.087Zm.821-2.007c.04.047.075.094.107.138a.868.868,0,0,1,.09.139.788.788,0,0,1,.088.13,3.954,3.954,0,0,1,.2.359c.016.035.032.072.047.1l.036.083c.011.028.019.051.031.08a.543.543,0,0,1,.028.078,2.4,2.4,0,0,1,.075.249,3.794,3.794,0,0,0-.375-.209,1.072,1.072,0,0,0-.1-.051,3.553,3.553,0,0,0-.45-.178c-.023-.007-.048-.015-.067-.019s-.051-.016-.07-.019c-.04-.013-.075-.02-.111-.028-.008,0-.019,0-.027-.007H22.2l-.043-.013c-.032-.008-.064-.011-.091-.016a.129.129,0,0,0-.039-.008,1.176,1.176,0,0,0-.143-.024.4.4,0,0,0-.093-.011.927.927,0,0,0-.1-.008,2.186,2.186,0,0,0-.265-.016l-.911-1.763,1.811.568c.083.086.157.169.228.256a.48.48,0,0,1,.035.043A1.383,1.383,0,0,1,22.707,20.88Zm1.022-.193-1.322-.415h0l-1.922-.6-.063-.019a.487.487,0,0,1,.043-.059c.016-.024.035-.043.051-.064a1.024,1.024,0,0,0,.067-.094c.016-.019.032-.043.048-.064l.07-.106a.427.427,0,0,0,.035-.056c.036-.051.068-.107.1-.158L20.861,19c.031-.056.063-.111.09-.171.013-.019.02-.043.032-.063.019-.04.035-.075.056-.11l.035-.075c.016-.035.032-.067.043-.1s.019-.056.032-.078.019-.048.027-.067l.963.883.651.6Zm.209-2.087a1.537,1.537,0,0,1,.13.09c.043.032.083.06.123.091.091.067.174.139.244.2a.872.872,0,0,1,.086.083l.008.008a1.16,1.16,0,0,1,.1.1c.035.035.072.075.1.11.017.019.028.035.044.051.023.032.047.059.067.088.039.051.07.094.1.134a3.751,3.751,0,0,0-2.067.1l-.509-.466-.951-.875,1.9-.088c.04.024.078.04.118.064l.11.059C23.685,18.434,23.815,18.517,23.938,18.6Zm.773-.612-3.444.158h-.024c.008-.024.016-.044.024-.067s.019-.056.027-.08.02-.075.032-.11.011-.051.019-.075c.013-.043.02-.083.032-.126a.648.648,0,0,1,.016-.064c.011-.063.027-.126.035-.189l.013-.048c.008-.063.019-.126.027-.189a.432.432,0,0,1,.008-.067c0-.044.008-.083.011-.131,0-.024,0-.048,0-.07s0-.067.008-.1v-.02a.666.666,0,0,0,0-.083c0-.023,0-.051,0-.074l.138.055.147.059Zm.257-1.378a1.135,1.135,0,0,0-.119.028c-.031.011-.063.019-.094.031h0a.033.033,0,0,0-.019.008c-.056.016-.1.032-.155.051s-.106.04-.161.064c-.04.019-.078.035-.118.056a1.186,1.186,0,0,0-.115.055,3.8,3.8,0,0,0-.481.3c-.024.019-.051.039-.078.059l-.072.059-1.444-.6-.391-.163,1.756-.73a4.034,4.034,0,0,1,1.984.691A3.279,3.279,0,0,0,24.968,16.61Z" transform="translate(-7.377 -7.495)" fill="#ba9c14"/></g><g transform="translate(0.019 17.635)"><path d="M27.971,27.508a17.541,17.541,0,0,1-22.331,0,9.432,9.432,0,0,1,4.134-.943c3.516,0,3.516,1.4,7.031,1.4s3.516-1.4,7.031-1.4A9.421,9.421,0,0,1,27.971,27.508Z" transform="translate(0.752 -14.003)" fill="#043f85"/><path d="M32.4,23.5a17.163,17.163,0,0,1-1.827,2.533c-2.766-.189-3.021-1.381-6.261-1.381-3.515,0-3.515,1.41-7.031,1.41s-3.515-1.41-7.031-1.41c-3.239,0-3.5,1.192-6.261,1.381A17.588,17.588,0,0,1,2.162,23.5c.316.027.663.048,1.057.048,3.516,0,3.516-1.408,7.031-1.408a8.351,8.351,0,0,1,2.371.3c.059.016.115.032.171.051a19.453,19.453,0,0,0,2.8.923l.288.048a10.282,10.282,0,0,0,1.4.091,10.007,10.007,0,0,0,1.445-.1c.1-.013.193-.027.284-.048a18.811,18.811,0,0,0,2.729-.907h0c.056-.016.107-.035.163-.048a8.273,8.273,0,0,1,2.41-.307c3.516,0,3.516,1.408,7.031,1.408C31.736,23.552,32.087,23.532,32.4,23.5Z" transform="translate(0.276 -14.608)" fill="#043f85"/><path d="M30.352,25.735a17.8,17.8,0,0,1-2.126,2.076,9.421,9.421,0,0,0-4.135-.943c-3.515,0-3.515,1.4-7.031,1.4s-3.515-1.4-7.031-1.4a9.432,9.432,0,0,0-4.134.943,17.893,17.893,0,0,1-2.127-2.076c2.766-.189,3.023-1.381,6.261-1.381,3.516,0,3.516,1.41,7.031,1.41s3.516-1.41,7.031-1.41C27.331,24.354,27.587,25.546,30.352,25.735Z" transform="translate(0.496 -14.305)" fill="#fff"/><path d="M34.781,18.558a16.889,16.889,0,0,1-.793,2.785,8.3,8.3,0,0,1-2.391.3c-3.515,0-3.515-1.4-7.031-1.4h-.213c-.067,0-.131,0-.193.008a8.632,8.632,0,0,0-.987.08h0c-.186.027-.359.055-.522.094-.047.008-.09.019-.138.027s-.118.032-.174.043c-.2.056-.386.11-.564.174l-.193.07c-.426.158-.817.332-1.258.482-.056.019-.11.04-.169.059a6.7,6.7,0,0,1-.718.19c-.059.011-.123.027-.185.039a9.121,9.121,0,0,1-1.129.126c-.059,0-.123,0-.185,0-.126.008-.26.008-.4.008s-.268,0-.4-.008c-.063,0-.123,0-.182,0a9.046,9.046,0,0,1-1.129-.126c-.063-.011-.126-.024-.185-.039a6.406,6.406,0,0,1-.717-.19c-.059-.019-.115-.035-.171-.056-.441-.153-.832-.327-1.258-.485l-.2-.07c-.177-.064-.359-.118-.56-.174-.134-.031-.276-.067-.43-.094a8.3,8.3,0,0,0-1.073-.139l-.2-.011c-.169,0-.347-.008-.533-.008-3.515,0-3.515,1.4-7.031,1.4a8.268,8.268,0,0,1-2.386-.3,17.138,17.138,0,0,1-.8-2.785,7.936,7.936,0,0,0,3.183.572c3.2,0,3.489-1.164,6.159-1.373.1-.008.2-.016.3-.019.182-.008.371-.013.572-.013a10.462,10.462,0,0,1,1.239.067c.075.008.15.02.225.032h0a7.587,7.587,0,0,1,1.653.446h0c.166.067.327.131.489.2a8.079,8.079,0,0,0,3.42.663,8.074,8.074,0,0,0,3.425-.667c.161-.063.319-.13.489-.193a7.478,7.478,0,0,1,1.657-.446c.072-.011.15-.024.225-.032a10.4,10.4,0,0,1,1.234-.067,10.023,10.023,0,0,1,1.03.048c.091.008.177.016.265.027h0c2.292.292,2.714,1.33,5.736,1.33A7.938,7.938,0,0,0,34.781,18.558Z" transform="translate(0.021 -15.212)" fill="#043f85"/><path d="M33.892,21.041a17.119,17.119,0,0,1-1.234,2.6c-.027.051-.063.11-.1.166-.311.027-.663.048-1.057.048-3.515,0-3.515-1.408-7.031-1.408a8.273,8.273,0,0,0-2.41.307c-.056.013-.107.032-.163.048h0a18.811,18.811,0,0,1-2.729.907c-.091.02-.186.035-.284.048a10.007,10.007,0,0,1-1.445.1,10.282,10.282,0,0,1-1.4-.091l-.288-.048a19.453,19.453,0,0,1-2.8-.923c-.056-.019-.111-.035-.171-.051a8.351,8.351,0,0,0-2.371-.3c-3.515,0-3.515,1.408-7.031,1.408-.394,0-.741-.02-1.057-.048-.035-.056-.067-.115-.1-.166a17.546,17.546,0,0,1-1.231-2.6,8.268,8.268,0,0,0,2.386.3c3.516,0,3.516-1.4,7.031-1.4.186,0,.364,0,.533.008l.2.011a8.3,8.3,0,0,1,1.073.139c.153.027.3.064.43.094.2.056.383.11.56.174l.2.07c.426.158.817.332,1.258.485.056.02.111.036.171.056a6.406,6.406,0,0,0,.717.19c.059.015.123.027.185.039a9.046,9.046,0,0,0,1.129.126c.059,0,.119,0,.182,0,.13.008.26.008.4.008s.273,0,.4-.008c.063,0,.126,0,.185,0a9.122,9.122,0,0,0,1.129-.126c.063-.011.126-.027.185-.039a6.7,6.7,0,0,0,.718-.19c.059-.019.114-.04.169-.059.441-.15.832-.324,1.258-.482l.193-.07c.177-.064.363-.118.564-.174.056-.011.115-.027.174-.043s.091-.019.138-.027c.163-.04.335-.067.522-.094h0a8.632,8.632,0,0,1,.987-.08c.063,0,.126-.008.193-.008h.213c3.516,0,3.516,1.4,7.031,1.4A8.3,8.3,0,0,0,33.892,21.041Z" transform="translate(0.116 -14.909)" fill="#fff"/><path d="M35.135,16.224a17.6,17.6,0,0,1-.316,2.636,7.938,7.938,0,0,1-3.184.572c-3.021,0-3.444-1.038-5.736-1.33h0c-.088-.011-.174-.019-.265-.027a10.024,10.024,0,0,0-1.03-.048,10.394,10.394,0,0,0-1.234.067c-.075.008-.153.02-.225.032a7.478,7.478,0,0,0-1.657.446c-.169.064-.327.131-.489.193a8.074,8.074,0,0,1-3.425.667,8.079,8.079,0,0,1-3.42-.663c-.161-.067-.323-.131-.489-.2h0a7.587,7.587,0,0,0-1.653-.446h0c-.075-.011-.15-.024-.225-.032a10.461,10.461,0,0,0-1.239-.067c-.2,0-.39,0-.572.013-.1,0-.2.011-.3.019-2.67.209-2.962,1.373-6.159,1.373A7.936,7.936,0,0,1,.33,18.861a17.027,17.027,0,0,1-.313-2.636,8.149,8.149,0,0,0,3.5.7c2.735,0,3.343-.851,5.137-1.23.08-.02.166-.036.253-.052a9.606,9.606,0,0,1,1.64-.126,9.448,9.448,0,0,1,1.491.107c.111.016.217.032.319.056h0c.1.016.2.039.292.063.059.013.118.028.177.043,1.512.41,2.218,1.14,4.75,1.14s3.24-.73,4.755-1.14l.177-.047c.094-.02.189-.043.292-.064s.2-.035.319-.055a9.864,9.864,0,0,1,1.487-.1,10.3,10.3,0,0,1,1.156.059h0c.158.016.308.04.45.064,2.023.343,2.544,1.286,5.424,1.286A8.156,8.156,0,0,0,35.135,16.224Z" transform="translate(-0.017 -15.514)" fill="#fff"/></g><g transform="translate(8.932 1.969)"><path d="M12.231,3.062l.351.035a4.246,4.246,0,0,1,1.223.246,2.06,2.06,0,0,1,1.076,1.088,5.778,5.778,0,0,0-3.239-1.215A8.793,8.793,0,0,1,8.365,2.187a22.42,22.42,0,0,0,2.173.6C11.134,2.92,11.726,3,12.231,3.062Z" transform="translate(-7.789 -1.67)" fill="#fbd023"/><path d="M12.547,2.969,12.2,2.934a16.916,16.916,0,0,1-1.68-.273q-.907-.2-1.812-.485c.04.008.08.016.118.02,1.117.2,2.312.406,3.524.524.146.016.3.027.446.04A3.137,3.137,0,0,1,15.62,4.05a4.225,4.225,0,0,0-.359.454l-.256,0a2.215,2.215,0,0,0-1.2-1.278A4.307,4.307,0,0,0,12.547,2.969Z" transform="translate(-7.742 -1.671)" fill="#fbd023"/><path d="M19.023,4.876a.46.46,0,0,1,.209.225h-2c.078-.031.153-.063.228-.091.123-.047.244-.086.372-.134Z" transform="translate(-6.576 -1.302)" fill="#fbd023"/><path d="M19.807,2.59c-.091.008-.185.013-.276.016a4.535,4.535,0,0,0-1.865.367,7.8,7.8,0,0,0-1.258.837l-.044.035a5.023,5.023,0,0,0-1.017.987.07.07,0,0,1-.056.027.062.062,0,0,1-.035-.011.065.065,0,0,1-.019-.091,5.168,5.168,0,0,1,1.045-1.014l.044-.035a7.658,7.658,0,0,1,1.282-.853,4.573,4.573,0,0,1,1.921-.379c.091-.008.182-.013.272-.016.671-.04,1.365-.083,2.048-.158a11.055,11.055,0,0,0,2.272-.446l-.308.048c-.588.09-1.195.185-1.8.264a26.106,26.106,0,0,1-2.646.142c-.075,0-.147,0-.221,0a5.011,5.011,0,0,0-1.812.415,5.9,5.9,0,0,0-2.277,1.918l0,.008-.008.008-.011.008-.008,0-.016,0H15l-.837-.007a.062.062,0,0,1-.043-.02,1.361,1.361,0,0,0-2-.122.07.07,0,0,1-.048.019H10.839a.574.574,0,0,0,.064.1h1.436a.064.064,0,0,1,.064.067.063.063,0,0,1-.064.063H11a.571.571,0,0,0,.138.126.345.345,0,0,0,.241.043H12.6a.062.062,0,0,1,.043.016,3.736,3.736,0,0,0,3.01,1.223,3.344,3.344,0,0,0,1.823-.5l.153-.08.161-.083h0a4.109,4.109,0,0,1,.5-.221c.123-.048.252-.094.383-.139.508-.173,1.037-.323,1.408-.422l-2.9-.035a2.235,2.235,0,0,1-1.416.958l-.086.013c-.032,0-.059,0-.086,0a1.115,1.115,0,0,1-.766-.3c-.016-.013-.023-.027-.04-.04a.074.074,0,0,1,0-.094.073.073,0,0,1,.1,0,.416.416,0,0,0,.035.04.977.977,0,0,0,.829.252,2.107,2.107,0,0,0,1.361-.955,3.146,3.146,0,0,1,.659-.841,1.741,1.741,0,0,1,.9-.3c.624-.059,1.2-.166,1.689-.26A14.312,14.312,0,0,0,22.233,2.7c.465-.161.936-.347,1.42-.564a13.472,13.472,0,0,1-1.795.3C21.176,2.508,20.477,2.552,19.807,2.59ZM12.835,4.677a.169.169,0,0,1-.173-.173.173.173,0,0,1,.173-.177.177.177,0,0,1,.178.177A.173.173,0,0,1,12.835,4.677ZM14.943,5.9a.067.067,0,0,1,.083-.043,1.853,1.853,0,0,0,.663.059,4.988,4.988,0,0,0,2.32-.8.068.068,0,0,1,.09.024.067.067,0,0,1-.019.09c-.177.1-.343.2-.5.276a4.516,4.516,0,0,1-2.02.552,1.766,1.766,0,0,1-.572-.075A.061.061,0,0,1,14.943,5.9Z" transform="translate(-7.45 -1.715)" fill="#fbd023"/><path d="M15.2,5.525a4.988,4.988,0,0,0,2.32-.8.064.064,0,0,1,.09.024.067.067,0,0,1-.019.09c-.177.1-.343.2-.5.276a4.516,4.516,0,0,1-2.02.552,1.766,1.766,0,0,1-.572-.075.063.063,0,0,1-.04-.083.065.065,0,0,1,.083-.043A1.853,1.853,0,0,0,15.2,5.525Z" transform="translate(-6.957 -1.324)" fill="#ba9c14"/><path d="M12.616,4.03a.177.177,0,0,1,.178.177.173.173,0,0,1-.178.173.171.171,0,0,1-.173-.173A.175.175,0,0,1,12.616,4.03Z" transform="translate(-7.231 -1.418)" fill="#ba9c14"/><path d="M24.578,1.732l-.379.059c-.588.091-1.2.185-1.795.26a22.75,22.75,0,0,1-2.636.142c-.075,0-.146,0-.221.008a4.926,4.926,0,0,0-1.862.426,5.662,5.662,0,0,0-1.859,1.381A3.28,3.28,0,0,0,12.92,2.687l-.438-.035c-1.212-.119-2.4-.324-3.516-.522-.363-.067-.666-.122-.95-.177-.056.028-.107.059-.158.091h0l0,.008,0,0A8.571,8.571,0,0,0,11.7,3.412a5.846,5.846,0,0,1,3.12,1.145l-.225,0a1.5,1.5,0,0,0-2.138-.119H11.211a.1.1,0,0,0-.1.056c-.032.064.013.15.1.265l.011.011a.935.935,0,0,0,.253.264.474.474,0,0,0,.319.064h1.183a3.873,3.873,0,0,0,3.077,1.239,3.442,3.442,0,0,0,1.882-.513c.1-.051.2-.1.3-.155h2.367a.075.075,0,0,0,.056-.027.068.068,0,0,0,.011-.056.621.621,0,0,0-.334-.4.053.053,0,0,0-.024,0h-.8C20.286,4.935,21,4.761,21,4.761a.068.068,0,0,0,.052-.07.066.066,0,0,0-.067-.059l-3.315-.04a2.766,2.766,0,0,1,.584-.733,1.615,1.615,0,0,1,.829-.268c.631-.059,1.215-.166,1.7-.26a15.045,15.045,0,0,0,1.894-.493,17.8,17.8,0,0,0,2-.833c.042-.023.094-.051.141-.082.02-.013.035-.02.051-.032C24.779,1.839,24.681,1.783,24.578,1.732ZM8.942,2.257c1.121.2,2.309.406,3.524.524.15.016.3.027.446.04a3.137,3.137,0,0,1,2.825,1.29,5.689,5.689,0,0,0-.359.454l-.256,0a2.215,2.215,0,0,0-1.2-1.278,4.421,4.421,0,0,0-1.263-.252c-.114-.013-.233-.02-.347-.035-.5-.064-1.089-.142-1.68-.273s-1.208-.3-1.812-.485C8.864,2.245,8.9,2.253,8.942,2.257Zm2.77,1.021A8.793,8.793,0,0,1,8.434,2.249a22.066,22.066,0,0,0,2.173.6c.6.13,1.191.213,1.693.272l.351.035a4.246,4.246,0,0,1,1.223.246,2.06,2.06,0,0,1,1.076,1.088A5.778,5.778,0,0,0,11.713,3.278Zm8.592,2.028a.442.442,0,0,1,.209.225h-2c.078-.031.153-.063.228-.091.123-.047.244-.09.372-.134Zm-4.644-.441a.062.062,0,0,0,.035.011.07.07,0,0,0,.056-.027,5.023,5.023,0,0,1,1.017-.987l.044-.035a7.8,7.8,0,0,1,1.258-.837,4.535,4.535,0,0,1,1.865-.367c.091,0,.185-.008.276-.016.671-.039,1.37-.082,2.052-.157a13.472,13.472,0,0,0,1.795-.3c-.484.217-.955.4-1.42.564a14.312,14.312,0,0,1-1.878.485c-.485.094-1.065.2-1.689.26a1.741,1.741,0,0,0-.9.3,3.146,3.146,0,0,0-.659.841,2.107,2.107,0,0,1-1.361.955.977.977,0,0,1-.829-.252.416.416,0,0,1-.035-.04.073.073,0,0,0-.1,0,.074.074,0,0,0,0,.094c.017.013.024.027.04.04A1.115,1.115,0,0,0,16,5.7c.027,0,.055,0,.086,0l.086-.013a2.235,2.235,0,0,0,1.416-.958l2.9.035c-.372.1-.9.249-1.408.422-.131.044-.26.091-.383.139a4.109,4.109,0,0,0-.5.221h0l-.161.083-.153.08a3.344,3.344,0,0,1-1.823.5,3.736,3.736,0,0,1-3.01-1.223A.062.062,0,0,0,13,4.963H11.791a.345.345,0,0,1-.241-.043.571.571,0,0,1-.138-.126h1.333a.063.063,0,0,0,.064-.063.064.064,0,0,0-.064-.067H11.31a.574.574,0,0,1-.064-.1h1.239a.07.07,0,0,0,.048-.019,1.361,1.361,0,0,1,2,.122.062.062,0,0,0,.043.02l.837.007h.008l.016,0,.008,0,.011-.008.008-.008,0-.008a5.9,5.9,0,0,1,2.277-1.918,5.011,5.011,0,0,1,1.812-.415c.074,0,.146,0,.221,0a26.106,26.106,0,0,0,2.646-.142c.6-.078,1.212-.174,1.8-.264l.308-.048a11.055,11.055,0,0,1-2.272.446c-.683.075-1.378.118-2.048.158-.09,0-.181.008-.272.016a4.573,4.573,0,0,0-1.921.379,7.658,7.658,0,0,0-1.282.853l-.044.035a5.168,5.168,0,0,0-1.045,1.014A.065.065,0,0,0,15.662,4.865Z" transform="translate(-7.858 -1.732)" fill="#ba9c14"/></g></g></svg>