<svg xmlns="http://www.w3.org/2000/svg" width="35.153" height="35.153" viewBox="0 0 35.153 35.153"><g transform="translate(0)"><g transform="translate(0 0)"><path d="M35.153,15.462a17.584,17.584,0,0,1-1,5.859H1a17.558,17.558,0,0,1-1-5.859Z" transform="translate(0 2.114)"/><path d="M34.034,20.616a17.615,17.615,0,0,1-3.481,5.86H4.357a17.525,17.525,0,0,1-3.475-5.86Z" transform="translate(0.121 2.819)" fill="#fbdb1b"/><path d="M35.153,16.167H0a17.533,17.533,0,0,1,1-5.859H34.155A17.56,17.56,0,0,1,35.153,16.167Z" transform="translate(0 1.409)" fill="#d80201"/><path d="M30.136,25.771a17.572,17.572,0,0,1-26.2,0Z" transform="translate(0.539 3.523)" fill="#d80201"/><path d="M30.136,5.859H3.939a17.572,17.572,0,0,1,26.2,0Z" transform="translate(0.539 0)"/><path d="M34.034,11.013H.882A17.453,17.453,0,0,1,4.357,5.154h26.2A17.542,17.542,0,0,1,34.034,11.013Z" transform="translate(0.121 0.705)" fill="#fbdb1b"/><path d="M21.69,16.131a5.557,5.557,0,1,1-5.56-5.559A5.556,5.556,0,0,1,21.69,16.131Z" transform="translate(1.446 1.445)" fill="#fff"/><g transform="translate(15.298 12.438)"><g transform="translate(0.945 1.812)"><path d="M14.606,12.557a.429.429,0,0,0-.284.482c.056.134.34.24.458.126a.264.264,0,0,0,.044-.23C14.812,12.862,14.724,12.538,14.606,12.557Z" transform="translate(-14.287 -12.533)" fill="#d80201"/><path d="M14.846,12.938a.759.759,0,0,0-.171-.382.1.1,0,0,0-.055-.02H14.6a.352.352,0,0,0-.182.111.685.685,0,0,0-.075.106.365.365,0,0,0-.043.3.338.338,0,0,0,.182.153.3.3,0,0,0,.078.024.282.282,0,0,0,.08.008.214.214,0,0,0,.153-.051A.267.267,0,0,0,14.846,12.938Zm-.273.249a.285.285,0,0,1-.059-.016.282.282,0,0,1-.169-.138.307.307,0,0,1,.039-.26.577.577,0,0,1,.1-.131.274.274,0,0,1,.126-.063c.011,0,.024,0,.04.011a.717.717,0,0,1,.153.351.249.249,0,0,1-.035.213A.217.217,0,0,1,14.573,13.187Z" transform="translate(-14.289 -12.536)"/></g><g transform="translate(0.842)"><path d="M16,11.4l-.54.741-.58-.157v-1A1.7,1.7,0,0,1,15.19,11,1.33,1.33,0,0,1,16,11.4Z" transform="translate(-14.105 -10.937)" fill="#fbdb1b"/><path d="M16.295,12.048c-.347.056-.572.11-.612.118l-.252-.07.529-.722a1.111,1.111,0,0,1,.094.118.127.127,0,0,1,.02.024A2.006,2.006,0,0,1,16.295,12.048Z" transform="translate(-14.031 -10.883)" fill="#d80201"/><path d="M14.93,10.982v.986l-.276-.078-.406-.695A1.469,1.469,0,0,1,14.93,10.982Z" transform="translate(-14.192 -10.937)" fill="#d80201"/><path d="M16.507,12.123a1.93,1.93,0,0,0-.232-.572c0-.008-.013-.016-.016-.024a1.4,1.4,0,0,0-.971-.568,1.583,1.583,0,0,0-1.078.217l-.011.013.379.647.056.094.792.221.206.059.221.06,0,0s.031-.008.086-.016c.1-.024.292-.067.544-.107l.024,0Zm-1.57-.15-.276-.075-.051-.091-.355-.607a1.469,1.469,0,0,1,.682-.213Zm.62.169-.131-.035-.449-.122v-1a1.724,1.724,0,0,1,.307.019,1.33,1.33,0,0,1,.813.4l-.339.466-.177.248Zm.655.008-.13.024-.147.032-.043.011a.234.234,0,0,1-.04.008l-.244-.067-.008,0,0,0,.182-.252.342-.465a1.111,1.111,0,0,1,.094.118.127.127,0,0,1,.02.024,1.9,1.9,0,0,1,.217.532C16.369,12.123,16.286,12.136,16.211,12.15Z" transform="translate(-14.199 -10.942)"/></g><g transform="translate(0 0.664)"><path d="M18.329,17.378c-.064-.246-.5-.477-.738-.64q-.244-.159-.485-.311l-.182-.118-.008,0c-.075-.048-.15-.1-.225-.15L16.462,16a4.186,4.186,0,0,1-.367-.276c-.142-.122-.292-.232-.426-.363l-.031-.027v0c-.016-.016-.032-.035-.048-.055a1.116,1.116,0,0,1-.244-.514.167.167,0,0,1-.008-.051.8.8,0,0,1-.016-.11,5.7,5.7,0,0,1-.016-.738,1.155,1.155,0,0,1,.185-.643,1.868,1.868,0,0,1,.273-.311.718.718,0,0,0,.264-.426,1.019,1.019,0,0,0,.016-.311.145.145,0,0,0-.008-.043.449.449,0,0,0-.043-.138.777.777,0,0,0-.106-.171c-.009-.008-.017-.019-.028-.031a.779.779,0,0,0-.517-.257.818.818,0,0,0-.264.016l-.04.011a.778.778,0,0,0-.327.169.1.1,0,0,0-.032.028.6.6,0,0,0-.185.462,1.354,1.354,0,0,0,.024.177,1.662,1.662,0,0,0-.758.371c.549-.122.675-.15.821-.173a.575.575,0,0,1,.028.063c-.139.027-.7.142-.8.177,0,0,.3,0,.733-.047a.075.075,0,0,0,.032,0H14.6a.5.5,0,0,1,.07-.008c.016.024.032.051.051.075.064.091.115.169.048.273a1.576,1.576,0,0,1-.142.189.043.043,0,0,1-.016.016l-.011.016-.024.024c-.2.244-.407.485-.608.733a1.636,1.636,0,0,0-.11,1.9,1.684,1.684,0,0,0,.142.19l0,0c.027.032.051.059.078.088l.273.292a.082.082,0,0,0,.067.031.127.127,0,0,1,.055.016c.241.193.493.371.75.541.13.083.26.161.39.24.008.206.02.584.027.979l-1.1-.059a3.564,3.564,0,0,0-.514.027c-.639.139-.588.612-.567,1.089.008-.11.047-.094.217-.438a.561.561,0,0,0,.208.386,1.179,1.179,0,0,1,.08-.537c-.019.067.118.343.193.332-.011-.241.327-.58.327-.58s.588,0,1.159.015c.008.217.013.426.016.608.024.746.056,1,.056,1s-1.113-.1-1.346.273c.3.027.715.027.715.027s-.356.454-.206.612a2.5,2.5,0,0,1,1.18-.6,3.6,3.6,0,0,1,.837.008s.063-.351-.849-.359c-.019-.161-.055-.884-.082-1.563.032,0,.063,0,.094,0a4.72,4.72,0,0,0,.706,0A.243.243,0,0,0,17,18.3a.308.308,0,0,0-.056-.115c-.075-.11-.54-.695-.291-.789a.275.275,0,0,1,.1-.011,2.581,2.581,0,0,1,.726.114c.043.013.091.028.134.043a.233.233,0,0,0,.056.013.261.261,0,0,0,.055.019l.048.013a1.18,1.18,0,0,0,.193.043c.016,0,.032,0,.043,0h.086C18.217,17.626,18.38,17.579,18.329,17.378Zm-1.882.986a.085.085,0,0,1-.056.056.074.074,0,0,1-.039,0l-.386-.024c-.016-.316-.024-.6-.028-.8.008.008.016.011.024.019a1.912,1.912,0,0,1,.458.549A.22.22,0,0,1,16.446,18.363Z" transform="translate(-13.458 -11.527)"/><path d="M14.913,12.248a.114.114,0,1,1-.228,0,.114.114,0,0,1,.228,0Z" transform="translate(-13.29 -11.443)" fill="#fff"/><path d="M15.317,11.849c0,.134.028.391-.07.5-.075.082-.177.13-.252.209a.155.155,0,0,0-.048.165.191.191,0,0,0,.225.115.408.408,0,0,0,.131-.067.672.672,0,0,0,.264-.482A.469.469,0,0,0,15.317,11.849Z" transform="translate(-13.256 -11.482)" fill="#9ba59b"/><path d="M15,12.917a5.281,5.281,0,0,0-.525.754,2.449,2.449,0,0,0-.35,1.136,2.206,2.206,0,0,0,.165.77s.013-.316.024-.331a.816.816,0,0,0,.147.138l-.028-.268.166.051-.063-.185h.2l-.051-.213.221.007a1.22,1.22,0,0,1-.106-.256,1.2,1.2,0,0,1-.051-.292,2.262,2.262,0,0,1,.059-.635,2.46,2.46,0,0,1,.118-.374c.024-.056.051-.111.078-.171,0-.008.048-.158.024-.15A.069.069,0,0,0,15,12.917Z" transform="translate(-13.367 -11.339)" fill="#9ba59b"/><path d="M15.178,15.664a1.207,1.207,0,0,0,.044.687c.074-.028.358-.147.535-.048C15.821,16.287,15.28,15.9,15.178,15.664Z" transform="translate(-13.227 -10.961)" fill="#9ba59b"/><g transform="translate(1.71 3.135)"><path d="M17.129,15.842c-.177-.064-.627-.166-.647-.174l-.088-.019.356.288h-.308a.664.664,0,0,1-.059-.056c-.024-.023-.048-.047-.075-.07a1.984,1.984,0,0,0-.521-.418c-.016-.008-.035-.016-.056-.027-.165-.08-.335-.163-.339-.364a.176.176,0,0,1,.067-.161.371.371,0,0,1,.316-.016,2.151,2.151,0,0,1,.35.166c.04.024.075.043.115.064a2.788,2.788,0,0,0,.521.2c.044.011.088.032.134.048a.869.869,0,0,0,.308.083,2.726,2.726,0,0,1,.351.358,6.217,6.217,0,0,0-.726-.3l-.019-.008-.013.04.016.008A1.117,1.117,0,0,1,17.129,15.842Z" transform="translate(-14.903 -14.215)" fill="#fff"/><path d="M17.139,18.4l.146-.169-.149-.051c.216-.107.69-.4.529-1.335l-.024-.126-.016.126c-.075.474-.177.64-.26.707a.909.909,0,0,0,.016-.426,1.2,1.2,0,0,0-.15-.348,1.756,1.756,0,0,0-.3-.331c-.075-.072-.153-.142-.236-.214-.11-.1-.23-.2-.34-.3h.379l-.3-.249a5.165,5.165,0,0,1,.608.171l.059.032-.032-.06a1.92,1.92,0,0,0-.26-.355,2.86,2.86,0,0,1,.687.316l.107.1-.075-.123a2.538,2.538,0,0,0-.426-.466c-.059-.059-.1-.1-.134-.13l.3.047.075.036a3.358,3.358,0,0,1,1.041.631,1.269,1.269,0,0,1,.356.88,2.5,2.5,0,0,1-.051.706,1.342,1.342,0,0,1-.257.541,1.729,1.729,0,0,1-.856.71.966.966,0,0,1,.114-.166,1.227,1.227,0,0,0,.174-.273l.02-.055-.332.209.083-.238-.048.02A2.4,2.4,0,0,1,17.139,18.4Z" transform="translate(-14.772 -14.165)" fill="#d80201"/><path d="M17.215,15.4a1.1,1.1,0,0,1-.249-.075c-.048-.019-.094-.035-.138-.051a2.674,2.674,0,0,1-.514-.193c-.039-.019-.074-.039-.114-.063a2.174,2.174,0,0,0-.356-.169.412.412,0,0,0-.355.023.231.231,0,0,0-.086.2c.008.225.2.316.367.4l.055.024a2.062,2.062,0,0,1,.509.41c.024.024.047.048.075.072.142.142.3.276.446.406.078.072.158.139.233.209a1.348,1.348,0,0,1,.438.651l-.043.055a1.247,1.247,0,0,0-.521-.738,2.533,2.533,0,0,0-.821-.5l-.028-.008a1.935,1.935,0,0,1-.749-.355,1.213,1.213,0,0,1-.311-1.18.306.306,0,0,1,.153-.182.091.091,0,0,1,.027-.008.382.382,0,0,1,.167.044l.05.023a2.934,2.934,0,0,1,.324.134c.5.257,1.022.5,1.5.731l.024.011-.3-.051.063.051A1.557,1.557,0,0,1,17.215,15.4Z" transform="translate(-14.957 -14.28)" fill="#9ba59b"/><path d="M17.365,15.733c-.047-.019-.1-.039-.161-.063Zm1.594,1.141a1.286,1.286,0,0,0-.366-.9,2.009,2.009,0,0,0-.462-.348,6.533,6.533,0,0,0-.592-.3c-.078-.035-.158-.07-.236-.11-.485-.225-1-.474-1.5-.726-.107-.051-.214-.094-.329-.138a.531.531,0,0,1-.051-.02.33.33,0,0,0-.182-.047.159.159,0,0,0-.106.047.418.418,0,0,0-.11.166,1.222,1.222,0,0,0,.225,1.124.67.67,0,0,0,.094.1,1.935,1.935,0,0,0,.765.363l.027.008a2.379,2.379,0,0,1,.8.5,1.492,1.492,0,0,1,.466.572.423.423,0,0,1,.043.19l-.011.083.1-.139a1.052,1.052,0,0,1-.035.41l-.013.048.044-.024c.074-.04.181-.138.264-.477.013-.047.024-.1.035-.158,0,.056.008.107.013.158a.957.957,0,0,1-.584,1.026l-.048.019.19.064-.169.208h.043a1.566,1.566,0,0,0,.465-.181l-.086.256.319-.2c-.035.059-.091.134-.138.2-.088.115-.134.182-.134.222v.027l.024-.008a1.7,1.7,0,0,0,.918-.733,1.388,1.388,0,0,0,.26-.557A2.41,2.41,0,0,0,18.959,16.874Zm-1.471.422a.53.53,0,0,0-.027-.118h0a.235.235,0,0,0-.019-.051.332.332,0,0,0-.032-.059,1.213,1.213,0,0,0-.158-.23c-.011-.011-.024-.027-.035-.039a2.029,2.029,0,0,0-.244-.233,2.468,2.468,0,0,0-.821-.509l-.028-.008a1.888,1.888,0,0,1-.749-.355.842.842,0,0,1-.07-.072l0-.008c-.019-.019-.035-.047-.056-.07l-.011-.019a.315.315,0,0,1-.043-.072,1.332,1.332,0,0,1-.123-.284.283.283,0,0,1-.016-.047c-.008-.032-.011-.06-.019-.091a.783.783,0,0,1-.015-.1v-.031a.678.678,0,0,1-.009-.1.814.814,0,0,1,.056-.3.578.578,0,0,1,.083-.131.261.261,0,0,1,.031-.031.079.079,0,0,1,.04-.02.087.087,0,0,1,.032-.008.38.38,0,0,1,.163.044l.05.023a2.683,2.683,0,0,1,.324.134c.5.257,1.022.5,1.5.731l.024.011-.3-.051.063.051a1.557,1.557,0,0,1,.147.138,1.1,1.1,0,0,1-.249-.075c-.048-.019-.094-.035-.138-.051a2.674,2.674,0,0,1-.514-.193c-.039-.019-.074-.039-.114-.063a2.368,2.368,0,0,0-.356-.169.412.412,0,0,0-.355.023.108.108,0,0,0-.035.036.1.1,0,0,0-.027.039v0a.254.254,0,0,0-.024.114c.008.23.2.321.367.4a.313.313,0,0,1,.055.028c.032.016.064.035.094.051s.067.047.1.07a.161.161,0,0,1,.035.028.725.725,0,0,1,.1.078c.063.056.126.118.185.177l.075.075c.142.142.3.273.446.4.075.072.158.139.233.209.027.027.055.051.078.08a.41.41,0,0,1,.051.047,1.3,1.3,0,0,1,.171.222.173.173,0,0,1,.035.055c.011.019.019.035.027.051s.019.04.032.064.019.059.027.086a.2.2,0,0,1,.016.048Zm-.616-1.752a.365.365,0,0,1,.1.078,1.71,1.71,0,0,1,.217.289c-.177-.064-.627-.166-.647-.174l-.088-.019.257.209.008,0,.086.075h-.3a.665.665,0,0,1-.059-.056l-.075-.07a2.383,2.383,0,0,0-.276-.257v0c-.032-.024-.063-.048-.1-.072a.214.214,0,0,0-.031-.019c-.036-.024-.075-.048-.111-.067a.539.539,0,0,1-.059-.027c-.165-.08-.335-.163-.339-.364a.22.22,0,0,1,0-.047.1.1,0,0,1,.008-.032v-.008a.179.179,0,0,1,.056-.075.371.371,0,0,1,.316-.016,1.813,1.813,0,0,1,.35.169l.115.06a2.788,2.788,0,0,0,.521.2c.044.011.088.032.134.048a.976.976,0,0,0,.308.083c.019.015.1.086.185.173.056.056.115.123.166.185a2.908,2.908,0,0,0-.292-.138c-.04-.011-.083-.032-.126-.048-.091-.035-.19-.075-.308-.118a.039.039,0,0,0-.019,0l-.013.039Zm2,2.039a1.342,1.342,0,0,1-.257.541,1.729,1.729,0,0,1-.856.71,1.181,1.181,0,0,1,.114-.166,1.1,1.1,0,0,0,.174-.276l.02-.051-.332.213.083-.241-.048.024a3.28,3.28,0,0,1-.434.182l.142-.169-.149-.051a1,1,0,0,0,.559-1.042.8.8,0,0,0-.011-.138v0c0-.051-.011-.1-.019-.15l-.02-.126-.019.126c-.019.111-.04.209-.059.289-.008.032-.016.059-.024.091a.778.778,0,0,1-.043.126l-.008.016a.366.366,0,0,1-.024.051.452.452,0,0,1-.1.134.938.938,0,0,0,.013-.426.122.122,0,0,0-.008-.035.656.656,0,0,0-.027-.08.705.705,0,0,0-.032-.075.739.739,0,0,0-.083-.153,1.757,1.757,0,0,0-.3-.335c-.083-.075-.158-.142-.238-.209l-.343-.308h.379l-.3-.249a5.432,5.432,0,0,1,.608.171l.059.032-.032-.06c-.016-.027-.032-.055-.051-.082a.557.557,0,0,0-.04-.064,1.319,1.319,0,0,0-.141-.174c-.009-.011-.02-.024-.028-.035l.083.035c.048.016.086.032.126.048l.161.063c.02.013.04.02.056.028a.394.394,0,0,1,.067.027c.027.011.051.027.075.04a.368.368,0,0,1,.043.024.51.51,0,0,1,.075.051l.107.1-.072-.123a1.633,1.633,0,0,0-.213-.257.741.741,0,0,0-.08-.078c-.007-.013-.019-.019-.031-.032-.06-.055-.1-.091-.111-.1a1.24,1.24,0,0,0-.13-.13l.3.047.075.036c.177.078.355.161.525.256a1.492,1.492,0,0,1,.138.08l.134.086a1.785,1.785,0,0,1,.244.209,1.269,1.269,0,0,1,.356.88A2.5,2.5,0,0,1,18.869,17.584Z" transform="translate(-14.962 -14.285)"/></g></g></g></g></g></svg>