<svg xmlns="http://www.w3.org/2000/svg" width="49.272" height="18.638" viewBox="0 0 49.272 18.638"><g transform="translate(0 0)"><g transform="translate(0 0)"><path d="M24.645,0C11.027,0,0,4.177,0,9.326s11.027,9.312,24.645,9.312c13.6,0,24.627-4.163,24.627-9.312S38.245,0,24.645,0Zm0,17.684C11.584,17.684.968,13.967.968,9.326.968,4.7,11.584.937,24.645.937c13.092,0,23.69,3.766,23.69,8.389C48.335,13.967,37.736,17.684,24.645,17.684Z" fill="#cacee6" fill-rule="evenodd"/><path d="M71.814,23.4c-.066,0-.176.145-.238.225-.3.318-1.56,1.618-2.241,1.653.142,0-.239.08-.27-.225a.059.059,0,0,1,0-.024,1.419,1.419,0,0,1,.207-.532l3.4-6.02H71.416l-2.051,3.465a1.459,1.459,0,0,0-1.335-1.082c-1.556-.014-2.161,1.051-3.24,2.068a2.074,2.074,0,0,1-1.574.667.793.793,0,0,1-.812-.937c.066-.415.207-.622.512-.733a.84.84,0,0,0,.871.637.917.917,0,0,0,.844-.906.822.822,0,0,0-.858-.826c-.591-.031-1.034.238-1.67.971a.9.9,0,0,0-1.034-1.051.787.787,0,0,0-.38.066c-.65.2-1.494,1.252-2.161,2.064a2.448,2.448,0,0,0,.031-.477,2.134,2.134,0,0,0-.491-1.383.236.236,0,0,0-.19-.062.4.4,0,0,0-.38.443,1.532,1.532,0,0,1,.363.941,3.574,3.574,0,0,1-.27,1.348c-.6,1.034-1.366,1.7-2.286,1.556a1.057,1.057,0,0,1-.733-1.3,3.477,3.477,0,0,1,.54-1.335,3.021,3.021,0,0,1,2-1.238.294.294,0,0,0-.08-.287A.325.325,0,0,0,56.7,20.9a3.154,3.154,0,0,0-2.656,1.971c-.173.332-.429.809-.571,1.114a2.067,2.067,0,0,1-.716.792c-.3.239-.4.318-.443.3a.682.682,0,0,0,.239.394c.045.035.2-.062.27-.093.744-.429.827-.636.827-.636A1.675,1.675,0,0,0,55.416,26.1a3.949,3.949,0,0,0,2.843-1.971A18.036,18.036,0,0,1,59.8,22.205a1.743,1.743,0,0,1,.937-.557.312.312,0,0,1,.3.38,3.886,3.886,0,0,1-.412,1.051L58.895,26.02h1.352c.778-1.463.809-1.511,1.573-2.908a1.244,1.244,0,0,0,1.286,1.1,2.625,2.625,0,0,0,1.4-.239,1.843,1.843,0,0,0,.093,1.19A1.292,1.292,0,0,0,65.856,26a3.837,3.837,0,0,0,2.127-.65c.079.46.3.7.892.7,1.19-.031,2.237-1.255,2.873-2.05A1.514,1.514,0,0,0,72,23.558C72,23.461,71.876,23.4,71.814,23.4Zm-3.133-.38a8.984,8.984,0,0,1-1.1,1.463c-.985,1-1.618.667-1.764.557a1.119,1.119,0,0,1-.19-.906,3.418,3.418,0,0,1,.636-1.414A2.456,2.456,0,0,1,68.1,21.6a.629.629,0,0,1,.605.674,1.523,1.523,0,0,1-.194.692Z" transform="translate(-34.14 -12.053)" fill="#cacee6" fill-rule="evenodd"/><path d="M57.234,9.927c0,.508-1.778,1.477-3.289,1.477-2.22,0-4.533-1.006-5.73-1.331a.168.168,0,0,0-.1-.048.151.151,0,0,0-.066.007.083.083,0,0,0-.031-.007A15.425,15.425,0,0,0,44.81,9.5c-3.067,0-4.433,1.321-4.371,2.528a.777.777,0,0,0,1.017.7,2.758,2.758,0,0,0,1.75-1.241.17.17,0,0,1,.221-.093.191.191,0,0,1,.066.19,3.036,3.036,0,0,1-2.687,2.334,1.613,1.613,0,0,1-1.525-1.7c.017-1.574,1.622-3.161,5.578-3.161a14.815,14.815,0,0,1,2.51.221,40.647,40.647,0,0,0,5.879.667,18.317,18.317,0,0,0,2.638-.1,5.8,5.8,0,0,1,1.031-.173C57.234,9.675,57.234,9.8,57.234,9.927Z" transform="translate(-25.632 -5.909)" fill="#cacee6" fill-rule="evenodd"/><path d="M43.477,14.239A.559.559,0,0,0,43,13.7c-.5-.08-.906.332-.951,1.016a1.585,1.585,0,0,0,.062.38,19.642,19.642,0,0,1-2.064.239,9.835,9.835,0,0,1,2.573-2.97,1.558,1.558,0,0,0,.239-.256.17.17,0,0,0-.042-.2c-.055-.017-.114-.031-.166-.041a9.808,9.808,0,0,0-3.59,3.537c-.367.045-1.891.173-2.4.747a.546.546,0,0,0-.1.2c.034.128.128.19.273.08a3.973,3.973,0,0,1,1.905-.522c-1.874,2.635-3.607,4.367-5.149,4.367a1.711,1.711,0,0,1-.491-.031,1.4,1.4,0,0,1-.985-1.383,2.29,2.29,0,0,1,1.175-1.781c.142-.062.207-.142.207-.2,0-.1-.066-.159-.238-.159A2.8,2.8,0,0,0,31,19.277,2.507,2.507,0,0,0,33.639,21.8c1.937,0,2.922-.84,6.086-5.958,1.255-.124,1.874-.207,2.51-.318a.767.767,0,0,0,.667.46c.08.017.062-.062.111-.239-.208-.014-.446-.156-.446-.332a3.048,3.048,0,0,0,.494-.318A1.408,1.408,0,0,0,43.477,14.239Zm-.985.827a.992.992,0,0,1,0-.619.5.5,0,0,1,.443-.4c.114-.017.159.093.176.19a.837.837,0,0,1-.225.571C42.647,15.082,42.491,15.065,42.491,15.065Z" transform="translate(-20.229 -7.741)" fill="#cacee6" fill-rule="evenodd"/><path d="M64.686,11.889c-.055-.017-.114-.031-.166-.041a.151.151,0,0,1,.066-.007A.168.168,0,0,1,64.686,11.889Z" transform="translate(-42.102 -7.726)" fill="#cacee6" fill-rule="evenodd"/><path d="M64.6,18.34a.837.837,0,0,1-.225.571c-.238.273-.394.256-.394.256a.992.992,0,0,1,0-.619.5.5,0,0,1,.443-.4C64.535,18.132,64.58,18.243,64.6,18.34Z" transform="translate(-41.716 -11.842)" fill="#cacee6" fill-rule="evenodd"/></g></g></svg>