<svg xmlns="http://www.w3.org/2000/svg" width="35.153" height="35.149" viewBox="0 0 35.153 35.149"><g transform="translate(0 0)"><path d="M35.153,17.576a17.352,17.352,0,0,1-.107,1.922,16.955,16.955,0,0,1-.351,2.063A17.6,17.6,0,0,1,17.576,35.149h-.883v-.019a17.56,17.56,0,0,1-2.06-.225,17.073,17.073,0,0,1-3.847-1.121,16.863,16.863,0,0,1-2.063-1.03A17.628,17.628,0,0,1,.458,21.561a17.506,17.506,0,0,1-.351-5.91A17.6,17.6,0,0,1,10.786,1.365,17.242,17.242,0,0,1,14.633.249a16.214,16.214,0,0,1,2.06-.225V0h.883A17.6,17.6,0,0,1,34.7,13.592a17.967,17.967,0,0,1,.455,3.984Z" fill="#fff"/><g transform="translate(0 0.024)"><path d="M35.153,17.573a17.352,17.352,0,0,1-.107,1.922,16.955,16.955,0,0,1-.351,2.063h-18V35.126a17.56,17.56,0,0,1-2.06-.225,17.073,17.073,0,0,1-3.847-1.121,16.863,16.863,0,0,1-2.063-1.03V21.558H.458a17.506,17.506,0,0,1-.351-5.91,17.614,17.614,0,0,1,.347-2.06h8.27V2.392a17.718,17.718,0,0,1,2.063-1.03A17.242,17.242,0,0,1,14.633.246a16.214,16.214,0,0,1,2.06-.225V13.589H34.7a17.967,17.967,0,0,1,.455,3.984Z" transform="translate(0 -0.021)" fill="#0865bb"/><path d="M35.153,17.546a17.352,17.352,0,0,1-.107,1.922H14.633V34.874a17.073,17.073,0,0,1-3.847-1.121V19.468H.107a17.363,17.363,0,0,1,0-3.847H10.786V1.335A17.242,17.242,0,0,1,14.633.219v15.4H35.046A17.347,17.347,0,0,1,35.153,17.546Z" transform="translate(0 0.006)" fill="#ec2938"/></g></g></svg>