<svg xmlns="http://www.w3.org/2000/svg" width="35.153" height="35.153" viewBox="0 0 35.153 35.153"><g transform="translate(0 0)"><path d="M34.026,11.717H.885a17.576,17.576,0,0,1,33.141,0Z" transform="translate(0.121 0)"/><path d="M35.153,16.167a17.5,17.5,0,0,1-1.006,5.859H1a17.591,17.591,0,0,1,0-11.717H34.147A17.478,17.478,0,0,1,35.153,16.167Z" transform="translate(0 1.409)" fill="#fff"/><path d="M34.027,20.616a17.587,17.587,0,0,1-33.145,0Z" transform="translate(0.121 2.819)" fill="#00793d"/><path d="M21.825,16.964l-7.791,5.859L5.215,29.447A17.5,17.5,0,0,1,0,16.964a17.365,17.365,0,0,1,1.006-5.859A17.553,17.553,0,0,1,5.22,4.477l8.814,6.628Z" transform="translate(0 0.612)" fill="#cd1225"/></g></svg>