<svg xmlns="http://www.w3.org/2000/svg" width="35.169" height="35.169" viewBox="0 0 35.169 35.169"><g transform="translate(-0.001)"><g transform="translate(0.001 0)"><path d="M0,17.318A17.6,17.6,0,0,0,9.062,32.7V1.944A17.591,17.591,0,0,0,0,17.318Z" transform="translate(0 0.266)" fill="#fff"/><path d="M16.494,0A17.44,17.44,0,0,0,7.972,2.21V32.963A17.583,17.583,0,1,0,16.494,0Z" transform="translate(1.09)" fill="#00401c"/><g transform="translate(13.545 8.841)"><path d="M23.143,22.467A8.2,8.2,0,0,1,18.133,7.778a8.957,8.957,0,1,0,10.92,12.171A8.175,8.175,0,0,1,23.143,22.467Z" transform="translate(-11.916 -7.778)" fill="#fff"/><path d="M26.688,13.62l-2.142-.462-1.1,1.9-.225-2.182-2.142-.462,2-.888-.225-2.182,1.464,1.633,2-.888-1.1,1.9Z" transform="translate(-10.663 -7.564)" fill="#fff"/></g></g></g></svg>