<svg xmlns="http://www.w3.org/2000/svg" width="35.168" height="35.168" viewBox="0 0 35.168 35.168"><g transform="translate(0 0)"><circle cx="17.584" cy="17.584" r="17.584" fill="#fff"/><g transform="translate(11.521 11.521)"><path d="M16.129,10.135a6.063,6.063,0,0,0-5.488,3.487h0c-.015.639.044,2.584,1.259,3.353,1.089.69,2.512.99,4.229-.778s3.176-1.428,3.946-1.061,1.795,1.25,1.543,3.638h0a6.069,6.069,0,0,0-5.493-8.64Z" transform="translate(-10.066 -10.135)" fill="#c60c30"/><path d="M21.686,18.356c.252-2.387-.773-3.275-1.543-3.638s-2.229-.707-3.946,1.061-3.14,1.468-4.229.778c-1.215-.77-1.274-2.714-1.259-3.353h0a6.063,6.063,0,1,0,10.976,5.153Z" transform="translate(-10.135 -9.716)" fill="#003478"/></g><g transform="translate(4.976 20.125)"><g transform="translate(0 0.001)"><rect width="0.996" height="6.063" transform="translate(2.516 0.552) rotate(-33.69)"/><rect width="0.996" height="6.065" transform="translate(0 2.228) rotate(-33.69)"/><g transform="translate(1.258 0.84)"><rect width="0.996" height="2.774" transform="translate(0 0.552) rotate(-33.69)"/><path d="M7.087,21.405l1.539,2.308.832-.552L7.916,20.849Z" transform="translate(-5.265 -18.115)"/></g></g><g transform="translate(18.515)"><rect width="2.774" height="0.995" transform="matrix(0.55, -0.835, 0.835, 0.55, 4.342, 3.988)"/><rect width="2.777" height="0.995" transform="translate(2.521 6.727) rotate(-56.499)"/><rect width="2.774" height="0.997" transform="translate(3.079 3.149) rotate(-56.435)"/><rect width="2.774" height="0.995" transform="translate(1.262 5.891) rotate(-56.499)"/><rect width="2.774" height="0.997" transform="translate(0 5.052) rotate(-56.31)"/><rect width="2.775" height="0.999" transform="translate(1.819 2.312) rotate(-56.435)"/></g></g><g transform="translate(4.975 7.753)"><g transform="translate(18.519)"><path d="M25.957,12.61l-.832.552L21.779,8.1l.832-.552Z" transform="translate(-20.517 -6.72)"/><g transform="translate(0)"><rect width="0.998" height="2.774" transform="matrix(0.835, -0.55, 0.55, 0.835, 4.337, 3.291)"/><path d="M23.719,6.82l-.832.548,1.531,2.316.832-.548Z" transform="translate(-20.366 -6.82)"/><rect width="0.994" height="2.776" transform="translate(1.818 4.96) rotate(-33.501)"/><rect width="0.995" height="2.774" transform="translate(0 2.22) rotate(-33.69)"/></g></g><rect width="0.995" height="6.064" transform="translate(5.89 1.682) rotate(33.879)"/><path d="M6.309,13.154,5.48,12.6,8.854,7.559l.829.552Z" transform="translate(-4.226 -6.719)"/><path d="M5.206,12.415l-.829-.556L7.75,6.82l.829.552Z" transform="translate(-4.377 -6.82)"/></g></g></svg>