<svg xmlns="http://www.w3.org/2000/svg" width="35.153" height="35.153" viewBox="0 0 35.153 35.153"><g transform="translate(0 0)"><path d="M30.788,5.486,1.1,23.311c-.185-.465-.342-.942-.485-1.424L29.755,4.394C30.113,4.745,30.456,5.108,30.788,5.486Z" transform="translate(0.084 0.601)" fill="#f6d524"/><path d="M29.839,4.995.7,22.488A17.572,17.572,0,0,1,29.839,4.995Z" fill="#0f7ffd"/><path d="M34.514,16.052A17.569,17.569,0,0,1,4.675,28.635l29.141-17.49A17.4,17.4,0,0,1,34.514,16.052Z" transform="translate(0.639 1.524)" fill="#0f7ffd"/><path d="M33.831,10.512,4.142,28.333a17.592,17.592,0,0,1-3.1-5.153L30.73,5.355A17.571,17.571,0,0,1,33.831,10.512Z" transform="translate(0.142 0.732)" fill="#cd1120"/><path d="M33.94,11.316,4.8,28.806c-.355-.351-.7-.715-1.03-1.094L33.458,9.892Q33.731,10.589,33.94,11.316Z" transform="translate(0.515 1.352)" fill="#f6d524"/><path d="M9.312,2.888l1.31,4.028h4.233L11.431,9.405l1.31,4.028L9.312,10.944,5.888,13.433,7.194,9.405,3.769,6.916H8Z" transform="translate(0.515 0.395)" fill="#f6d524"/></g></svg>