<svg xmlns="http://www.w3.org/2000/svg" width="35.153" height="35.153" viewBox="0 0 35.153 35.153"><g transform="translate(0 0)"><path d="M17.455,0A17.6,17.6,0,0,0,.885,11.717H34.026A17.6,17.6,0,0,0,17.455,0Z" transform="translate(0.121)" fill="#fff"/><path d="M35.153,16.167a17.493,17.493,0,0,0-1.006-5.859H1.006a17.563,17.563,0,0,0,0,11.717H34.147A17.5,17.5,0,0,0,35.153,16.167Z" transform="translate(0 1.409)" fill="#05539d"/><path d="M.885,20.616a17.575,17.575,0,0,0,33.141,0Z" transform="translate(0.121 2.819)" fill="#df3a3d"/></g></svg>