<svg xmlns="http://www.w3.org/2000/svg" width="35.153" height="35.153" viewBox="0 0 35.153 35.153"><g transform="translate(0.001)"><g transform="translate(-0.001 0)"><path d="M31.891,16.292a17.44,17.44,0,0,1-1.413,6.9l-6.616-3.973a10.049,10.049,0,0,0,0-5.867l6.616-3.969A17.528,17.528,0,0,1,31.891,16.292Z" transform="translate(3.262 1.284)" fill="#19b43d"/><path d="M30.8,25.626a17.557,17.557,0,0,1-27.385,0l6.612-3.965h0a9.988,9.988,0,0,0,14.164,0Z" transform="translate(0.467 2.961)" fill="#cd1225"/><path d="M7.591,16.292a9.848,9.848,0,0,0,.438,2.932L1.413,23.193a17.568,17.568,0,0,1,0-13.805l6.616,3.969A9.892,9.892,0,0,0,7.591,16.292Z" transform="translate(0 1.284)" fill="#19b43d"/><path d="M30.8,6.569,24.19,10.534h0a9.988,9.988,0,0,0-14.16,0L3.419,6.569a17.55,17.55,0,0,1,27.38,0Z" transform="translate(0.467)" fill="#cd1225"/><path d="M33.57,23.69A17.58,17.58,0,0,1,31.1,27.8l-6.609-3.965a9.988,9.988,0,0,1-14.164,0h0L3.712,27.794a17.664,17.664,0,0,1-2.469-4.107l6.616-3.969a10.049,10.049,0,0,1,0-5.867L1.243,9.881a17.4,17.4,0,0,1,2.474-4.1l6.608,3.965a9.988,9.988,0,0,1,14.16,0h0L31.1,5.779a17.481,17.481,0,0,1,2.474,4.1l-6.616,3.969a10.049,10.049,0,0,1,0,5.867Z" transform="translate(0.17 0.79)" fill="#fff"/><g transform="translate(1.413 6.569)"><path d="M33.57,23.69A17.58,17.58,0,0,1,31.1,27.8l-6.609-3.965L17.406,19.58,15,18.14l-.032-.02-2.226-1.333L7.859,13.851,1.243,9.881a17.4,17.4,0,0,1,2.474-4.1l6.608,3.965,5.023,3.01.019.013,0,0,2.036,1.22,4.656,2.8,4.892,2.932Z" transform="translate(-1.243 -5.779)" fill="#fff"/><path d="M33.57,9.881l-6.616,3.969-4.892,2.935-2.226,1.333-.027.02h0l-2.4,1.44-7.082,4.249h0L3.712,27.794a17.664,17.664,0,0,1-2.469-4.107l6.616-3.969,4.888-2.932,4.659-2.8,2.032-1.22.024-.016h0l5.019-3.01h0L31.1,5.779A17.481,17.481,0,0,1,33.57,9.881Z" transform="translate(-1.243 -5.779)" fill="#fff"/><path d="M26.649,16.663A9.988,9.988,0,0,1,9.581,23.706h0A9.987,9.987,0,0,1,23.741,9.621h0a9.949,9.949,0,0,1,2.9,7.042Z" transform="translate(-0.5 -5.656)" fill="#fff"/></g><g transform="translate(11.047 9.978)"><g transform="translate(0 7.741)"><path d="M11.1,19.17H9.718l.69-1.2-.69-1.2H11.1l.69-1.191.69,1.191h1.377l-.69,1.2.69,1.2H12.476l-.69,1.191Z" transform="translate(-9.718 -15.587)" fill="#19b43d"/><path d="M11.73,16.056l.537.927h1.069l-.537.927.537.927H12.267l-.537.927-.537-.927H10.124l.537-.927-.537-.927h1.069Z" transform="translate(-9.663 -15.523)" fill="#cd1225"/><g transform="translate(8.92)"><path d="M18.946,19.17H17.566l.69-1.2-.69-1.2h1.381l.686-1.191.69,1.191H21.7l-.686,1.2.686,1.2H20.323l-.69,1.191Z" transform="translate(-17.566 -15.587)" fill="#19b43d"/><path d="M19.577,16.056l.537.927h1.069l-.533.927.533.927H20.114l-.537.927-.533-.927H17.972l.537-.927-.537-.927h1.073Z" transform="translate(-17.51 -15.523)" fill="#cd1225"/></g></g><g transform="translate(4.462)"><path d="M15.021,12.36H13.644l.686-1.2-.686-1.191h1.377l.69-1.2.686,1.2h1.381l-.69,1.191.69,1.2H16.4l-.686,1.191Z" transform="translate(-13.644 -8.778)" fill="#19b43d"/><path d="M15.655,9.246l.533.927h1.073l-.537.927.537.927H16.188l-.533.927-.537-.927H14.05l.533-.927-.533-.927h1.069Z" transform="translate(-13.588 -8.714)" fill="#cd1225"/></g></g></g></g></svg>