<svg xmlns="http://www.w3.org/2000/svg" width="35.153" height="35.153" viewBox="0 0 35.153 35.153"><g transform="translate(0 0)"><path d="M32.334,17.455A17.607,17.607,0,0,0,20.616.882V34.027A17.6,17.6,0,0,0,32.334,17.455Z" transform="translate(2.819 0.121)" fill="#d81123"/><path d="M16.167,35.153a17.483,17.483,0,0,0,5.859-1.006V1A17.619,17.619,0,0,0,10.308,1V34.147A17.513,17.513,0,0,0,16.167,35.153Z" transform="translate(1.409)" fill="#fff"/><path d="M11.717.882a17.578,17.578,0,0,0,0,33.145Z" transform="translate(0 0.121)" fill="#d81123"/></g></svg>