<svg xmlns="http://www.w3.org/2000/svg" width="35.156" height="35.153" viewBox="0 0 35.156 35.153"><g transform="translate(0 0)"><g transform="translate(3.665 3.85)"><path d="M26.337,8.016c5.709,5.71,6.206,14.5,1.108,19.594S13.562,32.21,7.853,26.5,1.647,12.006,6.744,6.907,20.632,2.307,26.337,8.016Z" transform="translate(-3.224 -3.387)"/></g><path d="M35.157,17.576A17.578,17.578,0,1,1,17.581,0,17.6,17.6,0,0,1,35.157,17.576Z" fill="#006b35"/><g transform="translate(4.42 8.398)"><path d="M26.068,22.128a.53.53,0,0,0-.146-.047,2.206,2.206,0,0,0-.482-.013c-.174,0-.351,0-.525-.008L23.85,22.05a3.554,3.554,0,0,0-.363,0,.406.406,0,0,0,0-.064c0-.075.088-.048.131-.15a.226.226,0,0,0-.19-.284.092.092,0,0,1-.047,0,.071.071,0,0,1-.024-.064.184.184,0,0,0-.3-.118.324.324,0,0,0-.094.324.973.973,0,0,0,.056.177.933.933,0,0,1,.047.174l-15.954-.19a2.2,2.2,0,0,0,1.976.995H23.01a3.58,3.58,0,0,0,.063.5,1.054,1.054,0,0,0,.091.281.241.241,0,0,0,.284.138.2.2,0,0,0,.147-.153h1.956c.035,0,.075.056.1.078a.444.444,0,0,0,.094.091.561.561,0,0,0,.358.059c.186,0,.4-.165.4-.907A.863.863,0,0,0,26.068,22.128ZM25.5,23.182c-.09.091-.615.059-.615.059s-.094-.181-.241-.181a.424.424,0,0,0-.292.161,6.068,6.068,0,0,1-.8.008.321.321,0,0,1-.016-.351h1.91S25.586,23.091,25.5,23.182Z" transform="translate(-3.447 -5.482)" fill="#fff"/><path d="M4.377,13.567c-.08-.024-.335.454-.442.971a1.383,1.383,0,0,0-.011.679c.027.091.153.533.433.556.238.02.426-.268.493-.465.08-.228.04-.493-.04-.513-.063-.016-.11.118-.268.134a.225.225,0,0,1-.153-.032c-.094-.078-.048-.281-.019-.41C4.447,14.084,4.452,13.591,4.377,13.567Z" transform="translate(-3.889 -6.543)" fill="#fff"/><path d="M6.309,11.784c.016-.1-.221-.241-.43-.276a.942.942,0,0,0-.549.094A2.254,2.254,0,0,0,4.313,12.64c-.072.114-.083.146-.067.166.1.161,1.353-.691,1.949-.928C6.226,11.865,6.3,11.835,6.309,11.784Z" transform="translate(-3.841 -6.826)" fill="#fff"/><path d="M4.81,8.188c-.1-.114-.281-.319-.241-.469a.244.244,0,0,1,.173-.161c.177-.04.34.15.364.182a.871.871,0,0,1,.055.828c-.047.119-.134.26-.185.249s-.063-.217-.067-.268a.643.643,0,0,0-.024-.257A.349.349,0,0,0,4.81,8.188Z" transform="translate(-3.797 -7.365)" fill="#fff"/><path d="M4.072,8.963A2.856,2.856,0,0,0,4.08,9.8c.094.513,0,.493.1.872.078.281.158.557.383.632a.464.464,0,0,0,.339-.024c.26-.134.3-.509.327-.695.04-.308-.04-.4.044-.659.05-.169.153-.363.213-.351a13.205,13.205,0,0,1,.086,1.373c.043.356.091.513.221.6.163.107.359.035.514.193a.485.485,0,0,1,.118.233,6.2,6.2,0,0,1,.067,1.421c.011.631.1.674.126.682.11.035.28-.182.363-.316a1.76,1.76,0,0,0,.158-.982,6.183,6.183,0,0,0-.067-.982c-.048-.288-.11-.525.019-.647a.348.348,0,0,1,.233-.075c.177,0,.233.122.41.185a.826.826,0,0,0,.592-.059.907.907,0,0,0,.418-.367.968.968,0,0,0,.09-.741,2.992,2.992,0,0,0-.2-.723c-.011-.027-.04-.153-.008-.2.016-.027.067-.008.107-.04s.043-.059.035-.15a.782.782,0,0,0-.185-.454c-.1-.1-.332-.284-.513-.2s-.193.351-.2.462a1.671,1.671,0,0,0,.26.907c.134.233.268.367.228.552a.27.27,0,0,1-.118.182c-.11.051-.257-.048-.363-.126a.846.846,0,0,1-.324-.347c-.1-.233.043-.316.019-.739A.874.874,0,0,0,7.366,8.6a.316.316,0,0,0-.244-.123c-.324.024-.289.434-.265.659a2.315,2.315,0,0,0,.072.394c.015.056.035.11.055.166.072.193.161.375.083.481a.11.11,0,0,1-.083.048c-.07-.008-.107-.153-.138-.3a3.962,3.962,0,0,1-.088-.651,6.334,6.334,0,0,0-.09-.726c-.064-.335-.166-.872-.388-.9-.114-.016-.24.115-.291.233-.091.193.015.371.1.706.078.308.013.244.1.742.115.647.249.895.094,1.12-.011.016-.09.131-.165.115-.111-.019-.142-.324-.158-.458a4.982,4.982,0,0,1,.024-.768C6,9,5.993,8.9,5.918,8.793a.382.382,0,0,0-.3-.174c-.147.013-.236.178-.347.391a2.033,2.033,0,0,0-.269.8c-.035.327.032.517-.1.612a.234.234,0,0,1-.217.027c-.155-.059-.19-.3-.241-.647a2.133,2.133,0,0,0-.11-.615s-.051-.222-.158-.26a.1.1,0,0,0-.072,0A.058.058,0,0,0,4.072,8.963Z" transform="translate(-3.868 -7.351)" fill="#fff"/><path d="M6.724,7.74a.358.358,0,0,0-.008.316.516.516,0,0,0,.241.284.557.557,0,0,0,.434.011.484.484,0,0,0,.3-.2.454.454,0,0,0,.067-.268c0-.059,0-.221-.07-.248a.173.173,0,0,0-.166.091c-.04.059-.024.114-.059.13s-.075-.016-.1-.043c-.059-.067-.019-.142-.067-.177a.137.137,0,0,0-.166.031c-.059.067-.015.174-.05.186s-.056-.04-.08-.072c-.059-.075-.051-.11-.083-.126C6.871,7.63,6.772,7.677,6.724,7.74Z" transform="translate(-3.507 -7.356)" fill="#fff"/><path d="M12.033,11.48c-.033-.07-.171-.086-.273-.063a.282.282,0,0,0-.174.1c-.051.075-.016.134-.075.233-.016.031-.056.094-.1.091s-.039-.111-.114-.194a.351.351,0,0,0-.371-.075c-.064.032-.056.067-.225.324-.08.115-.1.142-.147.166a.27.27,0,0,1-.288-.008c-.083-.078.011-.19-.067-.335a.34.34,0,0,0-.284-.177c-.1,0-.126.07-.177.059-.123-.028-.083-.434-.153-1a5.992,5.992,0,0,0-.155-.936c-.051-.174-.122-.347-.04-.438.1-.1.3.032.383-.059S9.7,8.92,9.551,8.5a1.734,1.734,0,0,0-.335-.738.285.285,0,0,0-.19-.083.274.274,0,0,0-.193.075.394.394,0,0,0-.213.19.44.44,0,0,0,.035.323,4.166,4.166,0,0,1,.139.829c.051.292.016.174.169,1.121.043.26.072.454.126.845.091.65.107.9-.024.974a.306.306,0,0,1-.252,0c-.225-.078-.2-.316-.4-.41a.683.683,0,0,0-.567.094,1.039,1.039,0,0,0-.482.509.865.865,0,0,0,.056.872.692.692,0,0,0,.658.214c.19-.052.343-.225.4-.178.019.016.016.056.011.075a1.408,1.408,0,0,1-.177.565,1.694,1.694,0,0,1-.6.521c-.382.225-.612.359-.891.3a.873.873,0,0,1-.6-.537c-.1-.28.032-.509-.155-.853-.067-.126-.106-.134-.13-.134-.126,0-.209.415-.241.624a1.583,1.583,0,0,0,.08.926,1.374,1.374,0,0,0,.521.616,1.411,1.411,0,0,0,.907.2,1.656,1.656,0,0,0,.912-.4,1.847,1.847,0,0,0,.706-.982c.1-.4-.008-.749.233-.939.024-.019.107-.083.158-.056.11.052.023.431-.011.6a3,3,0,0,1-.415,1.053A2.37,2.37,0,0,1,8,15.5a2.125,2.125,0,0,1-1.034.292,1.4,1.4,0,0,1-1.116-.379,1.173,1.173,0,0,1-.209-.454A2.37,2.37,0,0,0,5.46,14.2c-.067-.123-.107-.127-.118-.123-.134.008-.2.62-.206.679a1.983,1.983,0,0,0,.064.915,1.435,1.435,0,0,0,.537.754,1.641,1.641,0,0,0,1.061.182A3.225,3.225,0,0,0,8.1,16.3a3.072,3.072,0,0,0,.825-.564A2.146,2.146,0,0,0,9.7,14.044c.011-.481-.086-1.1.011-1.159a.127.127,0,0,1,.064-.013c.043,0,.067.04.094.064a.335.335,0,0,0,.177.051.7.7,0,0,0,.292-.011.771.771,0,0,0,.225-.1c.153-.09.161-.13.252-.157a.592.592,0,0,1,.276.011,2.582,2.582,0,0,0,.438.063.567.567,0,0,0,.391-.3c.166-.308-.051-.62.091-.9A.138.138,0,0,0,12.033,11.48ZM8.2,12.636a.218.218,0,0,1-.3-.019.185.185,0,0,1,.217-.3.246.246,0,0,1,.1.174A.2.2,0,0,1,8.2,12.636Z" transform="translate(-3.721 -7.347)" fill="#fff"/><path d="M9.963,12.966c.142.193.2.174.248.268.088.2-.11.4-.023.49a.167.167,0,0,0,.165,0c.166-.07.163-.375.158-.473a.79.79,0,0,0-.169-.514c-.059-.07-.166-.2-.3-.173a.226.226,0,0,0-.178.185C9.864,12.785,9.864,12.837,9.963,12.966Z" transform="translate(-3.071 -6.68)" fill="#fff"/><path d="M16.926,14.645c.013-.11.024-.26-.047-.311s-.182.011-.281.063-.351.178-.324.324a.24.24,0,0,0,.194.158c.075.008.11-.032.141-.008.056.04-.019.146.028.276a.3.3,0,0,0,.158.169c.106.048.209-.011.351-.067.441-.177.647-.1.7-.249a.25.25,0,0,0-.082-.26c-.111-.075-.3-.011-.573.083-.161.056-.248.1-.288.064S16.914,14.795,16.926,14.645Z" transform="translate(-2.196 -6.44)" fill="#fff"/><path d="M10.777,9.852A.442.442,0,0,0,10.8,9.7c0-.016-.015-.1-.063-.118-.072-.032-.193.075-.256.177a.483.483,0,0,0-.013.5.427.427,0,0,0,.655.1c.078-.075.147-.194.115-.233s-.067,0-.193,0-.193,0-.238-.04C10.748,10.026,10.769,9.9,10.777,9.852Z" transform="translate(-2.998 -7.088)" fill="#fff"/><path d="M14.411,10.888c-.048-.031-.134-.067-.185-.035-.083.056-.024.265-.02.276a.551.551,0,0,0,.324.356.489.489,0,0,0,.41-.013.44.44,0,0,0,.185-.228c.067-.15.091-.386,0-.438a.215.215,0,0,0-.241.09c-.04.056-.04.123-.056.123s-.011-.131-.09-.177a.109.109,0,0,0-.111-.008c-.067.035-.047.158-.086.166S14.489,10.941,14.411,10.888Z" transform="translate(-2.482 -6.922)" fill="#fff"/><path d="M11.536,8a.419.419,0,0,0-.238-.38.464.464,0,0,0-.556.131.47.47,0,0,0-.032.513c.068.1.2.158.233.284a.206.206,0,0,1,0,.115.177.177,0,0,1-.067.083,4.022,4.022,0,0,1-.722.607c-.319.193-.351.265-.62.414-.067.036-.185.163-.15.23.059.126.5.118.8,0,.366-.153.283-.347.82-.773.217-.174.49-.343.45-.509a.846.846,0,0,1-.07-.236.632.632,0,0,1,.035-.177C11.489,8.093,11.528,8.077,11.536,8Zm-.329.3c-.051.04-.157,0-.213-.067a.181.181,0,0,1-.016-.225.174.174,0,0,1,.206.04C11.26,8.121,11.272,8.259,11.208,8.3Z" transform="translate(-3.138 -7.361)" fill="#fff"/><path d="M11.559,8.3c-.134.024-.139.62-.1,1.03.051.544.107,1.207.537,1.385a.62.62,0,0,0,.6-.047c.185-.163.078-.407.276-.892.075-.185.2-.414.252-.4.083.023-.126.5.063,1,.016.04.233.6.659.667a1.31,1.31,0,0,0,.853-.34c.173-.142.3-.311.457-.288a.333.333,0,0,1,.182.118c.051.048.462.438.8.383a.762.762,0,0,0,.446-.348c.107-.174.1-.335.2-.351a.218.218,0,0,1,.189.123c.048.086.008.158.056.2s.174.008.2,0a.7.7,0,0,0,.351-.446c.031-.1.086-.26.027-.311s-.126.011-.311.055a.848.848,0,0,1-.3.048c-.11-.024-.177-.118-.276-.3-.257-.474-.406-.749-.3-.943.011-.019.091-.153.193-.149.051,0,.072.035.091.027a.824.824,0,0,0-.289-.754c-.075-.067-.256-.233-.441-.185-.249.059-.329.457-.335.663a1.424,1.424,0,0,0,.26.71c.138.252.181.26.224.418.059.193.1.556-.094.671A.4.4,0,0,1,15.627,10c-.2-.131-.242-.379-.3-.754a7.236,7.236,0,0,1-.056-.8A2.341,2.341,0,0,0,15.2,7.8c-.047-.158-.11-.379-.232-.394-.139-.016-.268.233-.3.289a.89.89,0,0,0-.1.454c.013.24.108.288.174.575a1.8,1.8,0,0,1,.035.509,1.012,1.012,0,0,1-.268.734.527.527,0,0,1-.425.138.552.552,0,0,1-.364-.315c-.1-.194-.059-.321-.043-.8.024-.714-.063-.813-.123-.853a.429.429,0,0,0-.371.013c-.516.213-.643,1.1-.666,1.25-.011.07-.02.107-.036.177-.055.257-.094.434-.185.454s-.2-.126-.24-.185a1.273,1.273,0,0,1-.206-.639c-.048-.386,0-.549-.138-.762C11.681,8.382,11.618,8.287,11.559,8.3Z" transform="translate(-2.857 -7.385)" fill="#fff"/><path d="M12.334,7.394c-.182.043-.291.331-.308.371a.738.738,0,0,0-.055.379c.011.088.027.2.118.244s.228-.035.288-.09.118-.155.088-.209-.123-.008-.174-.072-.02-.2-.011-.221c.039-.123.118-.134.153-.276.019-.08.008-.1,0-.115S12.354,7.389,12.334,7.394Z" transform="translate(-2.784 -7.387)" fill="#fff"/><path d="M13.765,7.454a.556.556,0,0,0-.185.43c-.019.193,0,.174-.016.466-.008.165.063.248.1.264s.146-.094.165-.118a1.154,1.154,0,0,0,.178-.8c0-.115,0-.206-.06-.233A.209.209,0,0,0,13.765,7.454Z" transform="translate(-2.566 -7.381)" fill="#fff"/><path d="M20.258,13.412a7.965,7.965,0,0,0-.837-1.523c-.292-.484-.583-.954-.88-1.416-.043-.5-.083-.931-.118-1.187a.167.167,0,0,1,.075-.118c.051-.02.086.019.118,0,.067-.032.008-.265.008-.265a3.435,3.435,0,0,0-.679-1.073c-.055-.07-.134-.209-.221-.2-.118.013-.19.276-.209.447a1.28,1.28,0,0,0,.035.438,3.154,3.154,0,0,0-.292-.418,3.918,3.918,0,0,0-.489-.473c-.3-.241-.379-.23-.415-.214-.078.032-.1.131-.141.3a.889.889,0,0,0,.011.592.916.916,0,0,0,.118.19,22.384,22.384,0,0,1,1.595,2.13c.153,1.68.216,3.815.189,4.371-.008.206-.04.7.11.742.126.04.319-.276.414-.426a1.716,1.716,0,0,0,.163-1.234s-.075-1.109-.166-2.285c.161.284.3.552.43.8a14.1,14.1,0,0,0,1.164,2.075C20.4,14.714,20.459,13.932,20.258,13.412ZM17.347,8.717c-.008-.011-.032-.048-.02-.067.028-.048.206.048.252,0a.04.04,0,0,0,.008-.024c.044.134.1.225.1.257.031.126.063.276.091.446C17.638,9.123,17.5,8.918,17.347,8.717Z" transform="translate(-2.21 -7.385)" fill="#fff"/><path d="M18.524,7.927c-.013.146.126.185.268.466a1.354,1.354,0,0,1,.134.4c.039.244-.013.386.032.4s.184-.153.256-.351a1.081,1.081,0,0,0-.091-.9c-.063-.09-.2-.3-.363-.276A.3.3,0,0,0,18.524,7.927Z" transform="translate(-1.888 -7.349)" fill="#fff"/><path d="M18.763,9.654c-.063-.055-.039-.138-.078-.153s-.139.059-.185.153a.4.4,0,0,0,.067.407.521.521,0,0,0,.473.145.539.539,0,0,0,.386-.221.378.378,0,0,0,.032-.414c-.032-.036-.091-.072-.126-.056-.063.024-.032.166-.083.177s-.094-.051-.118-.091c-.051-.075-.035-.126-.067-.138s-.118.047-.15.118c-.027.051-.019.086-.047.1S18.792,9.678,18.763,9.654Z" transform="translate(-1.895 -7.104)" fill="#fff"/><path d="M22.475,10.235c-.083-.04-.072-.126-.139-.174a.273.273,0,0,0-.315.064.356.356,0,0,0-.075.3c.008.078.043.213.489.608.311.28.386.3.438.275s.08-.114.1-.224c.055-.324-.08-.485.023-.6.064-.075.15-.04.234-.15a.33.33,0,0,0,.058-.158.448.448,0,0,0-.185-.481.317.317,0,0,0-.355.048c-.1.138.078.394-.02.473a.29.29,0,0,1-.153.035A.269.269,0,0,1,22.475,10.235Z" transform="translate(-1.42 -7.077)" fill="#fff"/><path d="M24.883,14.972c0-.1.094-.126.094-.193,0-.094-.181-.221-.363-.2-.126.011-.264.091-.26.166s.225.094.272.252a.268.268,0,0,1-.019.185c-.078.193-.272.2-.28.323a.2.2,0,0,0,.13.186c.123.047.2-.091.537-.23.169-.067.268-.078.289-.158a.193.193,0,0,0-.091-.185c-.1-.059-.217.032-.28-.031A.131.131,0,0,1,24.883,14.972Z" transform="translate(-1.094 -6.405)" fill="#fff"/><path d="M21.811,13.292s-.091-.758-.34-2.556c-.07-.533-.181-1.062-.228-1.594.048-.008.1,0,.145-.008s.185.011.23-.032c.059-.064-.059-.2-.088-.257-.063-.118-.125-.232-.189-.351-.1-.181-.2-.366-.3-.552-.04-.074-.131-.363-.241-.355-.134,0-.221.552-.249.912a4.212,4.212,0,0,0,.111,1.317,25.658,25.658,0,0,1,.647,4.545c.016.4-.072.967.067,1,.107.027.288-.28.383-.493A2.619,2.619,0,0,0,21.811,13.292Z" transform="translate(-1.612 -7.36)" fill="#fff"/><path d="M19.935,7.688a1.687,1.687,0,0,0-.26.8c0,.386.1.462.158,1.069.016.147.016.241.023.332.088,1.945.253,2.746.3,3.515a4.714,4.714,0,0,1,.083,1.2.97.97,0,0,1-.288.493,9.016,9.016,0,0,1-1.531,1.121c-.055.027-.174.035-.2.1s.115.209.221.272a1.08,1.08,0,0,0,.908-.039,2.258,2.258,0,0,0,1.1-1.169,3.35,3.35,0,0,0,.3-1.167,12.159,12.159,0,0,0-.288-3.871s-.313-1.167-.111-1.234c.028-.013.072.016.123-.013.078-.039.094-.161.1-.193a.691.691,0,0,0-.118-.414c-.292-.517-.332-.872-.45-.86A.14.14,0,0,0,19.935,7.688Z" transform="translate(-1.93 -7.354)" fill="#fff"/><g transform="translate(19.131 0.143)"><path d="M23.593,11.777c.142-.138.155-.658,0-.615-.027.008-1.084.7-1.2.816s-.193.194-.193.324-.035.288,0,.319A8.927,8.927,0,0,0,23.593,11.777Z" transform="translate(-20.518 -7.015)" fill="#fff"/><path d="M23.1,12.06c-.07.075-.016.462.035.572a4.056,4.056,0,0,1,.1.77c0,.059.063.288.161.19a1.267,1.267,0,0,0,.272-.6,4.273,4.273,0,0,0-.272-.936C23.367,12,23.177,11.989,23.1,12.06Z" transform="translate(-20.397 -6.898)" fill="#fff"/><path d="M25.635,9.088c.011.1.032.257.04.446.011.281-.016.415.019.423.051.016.2-.222.249-.49a1.284,1.284,0,0,0-.1-.693c-.067-.2-.122-.356-.256-.388a.245.245,0,0,0-.236.083c-.083.115.007.289.047.367A.708.708,0,0,0,25.635,9.088Z" transform="translate(-20.089 -7.395)" fill="#fff"/><path d="M26.4,14.195Z" transform="translate(-19.942 -6.6)" fill="#fff"/><path d="M25.775,15.164c.177-.244.291-.3.355-.572a9.431,9.431,0,0,0,.04-1.062c.264.41.5.8.7,1.156.261.359.3.415.3.422a1.844,1.844,0,0,0-.059-1.258,12.732,12.732,0,0,0-.966-1.471,11.855,11.855,0,0,0-.2-1.9c-.256-1.12-.288-1.262-.114-1.262s-.241-1.121-.4-1.4-.359-.19-.418-.131a.365.365,0,0,0-.15.4c.111.615.214,1.247.3,1.894.064.434.115.86.161,1.282-.221-.3-.465-.639-.7-.966-.051-.671-.083-1.164-.083-1.188,0-.056.186-.083.186-.158a2.227,2.227,0,0,0-.352-.7c-.339-.34-.276-.655-.394-.651s-.221.225-.217.292c.028.347.06.837.1,1.325a4.043,4.043,0,0,1-.327-.513c0-.126-.008-.126.07-.126A.21.21,0,0,0,23.77,8.5c.036-.035-1.14-1.322-1.057-.9,0,0-.272.832.072,1.258.126.155.6.758,1.191,1.558a3.284,3.284,0,0,0,.067.4,18.219,18.219,0,0,1,.146,3.562c-.016.138-.15.465-.351.493-.149.024-.3-.134-.4-.244-.283-.308-.307-.517-.5-.576a.379.379,0,0,0-.347.091c-.131.1-.252.228-.442.754-.182.5-.2.746-.371.895a.441.441,0,0,1-.372.072c-.331-.059-.441-.7-.484-.888a2.044,2.044,0,0,1-.02-.73,2.173,2.173,0,0,0,.032,1.791c.236.4.706.722.959.607s.385-.509.524-1.2a.484.484,0,0,1,.442-.391c.335-.024.446.556.883.667a1.126,1.126,0,0,0,.959-.391c.193-.206.323-.655.118-2.778-.036-.358-.072-.741-.1-1.116.241.332.485.675.726,1.022.083.979.131,1.921.15,2.829C25.593,15.279,25.6,15.405,25.775,15.164Z" transform="translate(-20.719 -7.514)" fill="#fff"/><path d="M26.922,9.011c.091-.094.431.142.379-.094s-.666-1.378-.955-1.33c-.106.016-.208.351-.208.5s.082.928.157,1.491.584,4.975.462,5.378a2.033,2.033,0,0,1-.618.853c-.194.2-1.089.556-1.089.792s.462.214.915.056a1.644,1.644,0,0,0,1.215-1.207,20.552,20.552,0,0,0,.063-3.8A24.038,24.038,0,0,1,26.922,9.011Z" transform="translate(-20.127 -7.504)" fill="#fff"/></g><path d="M19.022,12.92c-.027-.075-.244-.048-.307-.043a13.317,13.317,0,0,1-2.36-.064c0-.016.166-.019.426-.091a2.213,2.213,0,0,0,.934-.473,1.177,1.177,0,0,0,.493-.8.93.93,0,0,0-.473-.864.868.868,0,0,0-.845.019,1.187,1.187,0,0,0-.41.8c-.088.363,0,.414-.094.544-.217.311-.715.024-1.319.308a1.664,1.664,0,0,0-.706.666c-.019-.15-.043-.319-.075-.532-.177-1.129-.367-1.448-.556-1.657-.075-.078-.26-.284-.4-.236-.171.059-.174.449-.174.544a2.951,2.951,0,0,0,.316,1.092,3.037,3.037,0,0,1,.248,1,2.158,2.158,0,0,1-.382,1.247,2.626,2.626,0,0,1-1.038.9.807.807,0,0,1-.742.075.492.492,0,0,1-.209-.34.644.644,0,0,0,.075-.051,4.325,4.325,0,0,0,.825-.663A2.251,2.251,0,0,0,13,13a1.739,1.739,0,0,0-.214-1.124c-.008-.011-.1-.115-.075-.146s.155.047.209.007c.064-.059-.032-.307-.161-.489a.725.725,0,0,0-.493-.379.482.482,0,0,0-.434.182c-.161.24.051.588.1.655.114.177.189.146.319.339a1.062,1.062,0,0,1,.173.576,1.113,1.113,0,0,1-.11.5,2.828,2.828,0,0,1-1.046,1.07c-.015-.517.056-.809-.007-.825s-.3.418-.426.9l-.059.241c-.469.3-.466.264-.908.54-.331.209-1.463.924-1.392,1.065.08.158,1.566-.454,1.649-.484.225-.1.418-.182.584-.265a1,1,0,0,0,.145.363,1.308,1.308,0,0,0,1.086.533,1.721,1.721,0,0,0,1.009-.474,3.417,3.417,0,0,0,1.1-1.242,1.209,1.209,0,0,0,.052-.11,1.088,1.088,0,0,0,.126.363,1.377,1.377,0,0,0,.358.4,3.309,3.309,0,0,0,.991.6c.24.091.682.252.926.1a.476.476,0,0,0,.166-.174.374.374,0,0,0,.027-.268c-.059-.185-.276-.138-.462-.351a.515.515,0,0,1-.134-.4c.04-.138.2-.213.454-.288a11.347,11.347,0,0,1,1.523-.288c.324-.056.522-.1.6-.26s-.032-.217.056-.423a2.255,2.255,0,0,1,.256-.43C19.006,12.991,19.034,12.951,19.022,12.92ZM17,11.378c.035-.064.161-.075.248-.036s.118.134.158.265c.019.063.016.083,0,.094-.031.048-.146.024-.224-.016C17.058,11.622,16.947,11.461,17,11.378Zm-1.528,2.868c-.094.193.02.383-.091.454a.289.289,0,0,1-.24-.019.918.918,0,0,1-.584-.742c-.008-.055-.032-.39.142-.485.115-.063.2.051.474.1.4.067.6-.119.773.031a.29.29,0,0,1,.114.238C16.024,14.021,15.61,13.973,15.471,14.246Z" transform="translate(-3.262 -6.965)" fill="#fff"/></g></g></svg>