<svg xmlns="http://www.w3.org/2000/svg" width="35.149" height="35.153" viewBox="0 0 35.149 35.153"><g transform="translate(0)"><g transform="translate(0 0)"><path d="M35.149,17.576A17.555,17.555,0,0,1,17.573,35.153c-.529,0-1.057-.024-1.574-.072A17.368,17.368,0,0,1,8.968,32.9a17.636,17.636,0,0,1-8.616-11.8,17.766,17.766,0,0,1,0-7.031,17.641,17.641,0,0,1,8.616-11.8A17.438,17.438,0,0,1,16,.07C16.515.024,17.044,0,17.573,0A17.555,17.555,0,0,1,35.149,17.576Z" transform="translate(0 0)" fill="#006aa7"/><path d="M35.149,17.568a17.74,17.74,0,0,1-.351,3.516H16v13.99a17.368,17.368,0,0,1-7.031-2.186v-11.8H.351a17.766,17.766,0,0,1,0-7.031H8.968V2.248A17.438,17.438,0,0,1,16,.062V14.053H34.8A17.729,17.729,0,0,1,35.149,17.568Z" transform="translate(0 0.008)" fill="#fecc00"/></g></g></svg>