<svg xmlns="http://www.w3.org/2000/svg" width="49.271" height="39.988" viewBox="0 0 49.271 39.988"><path d="M49.184,11.694a26.586,26.586,0,0,0-.293-2.8h0l0-.006h0c-.192-1.516-1.021-5.276-4.548-6.755l-.218-.088-.021-.01-.015-.006-.007,0h0A17.9,17.9,0,0,0,39.2.83a100.9,100.9,0,0,0-11.65-.8l-.242,0-.234,0c-.043,0-.086,0-.131,0-.076,0-.154,0-.231,0l-.384,0-.115,0H26C25.388,0,24.918,0,24.635,0c-.233,0-.593,0-1.056,0L22.564.014c-.079,0-.157,0-.234,0l-.4.007-.211,0a100.922,100.922,0,0,0-11.65.8,17.882,17.882,0,0,0-4.887,1.2l-.014.006-.014.006c-.078.03-.153.061-.227.091C1.393,3.615.569,7.39.379,8.9a26.493,26.493,0,0,0-.293,2.8A65.371,65.371,0,0,0,.092,18.5c0,.018,0,.035,0,.054s0,.028,0,.042v.01l0,.031c0,.032,0,.064,0,.1.037,1.029.1,2.1.183,3.185l0,.028v0c0,.007,0,.014,0,.021a52.758,52.758,0,0,0,1.336,9.274,16.165,16.165,0,0,0,.961,2.844.034.034,0,0,1,.006.011l0,0A7.015,7.015,0,0,0,3.6,35.9a7.79,7.79,0,0,0,2.594,1.98l.07.038h0c.125.065.251.125.379.184,2.8,1.28,6.03,1.39,9.052,1.576,2.965.184,5.95.294,8.936.308,2.986-.014,5.971-.125,8.936-.308,3.022-.187,6.253-.3,9.051-1.576.125-.057.248-.116.369-.178l.008,0,0,0h0l.054-.029A7.8,7.8,0,0,0,45.67,35.9a7.046,7.046,0,0,0,1.012-1.807l0-.005a15.822,15.822,0,0,0,.962-2.841A52.352,52.352,0,0,0,48.973,22.1c0-.009,0-.017,0-.026v-.007c.091-1.134.156-2.255.194-3.33l0-.1v-.041h0c0-.021,0-.042,0-.064v-.006c0-.01,0-.018,0-.029A64.211,64.211,0,0,0,49.184,11.694ZM43.6,33.7a.664.664,0,0,1-.037.061,8.181,8.181,0,0,1-.805,1l-.006.006a13.6,13.6,0,0,1-3.4,1.861l-.008,0a8.338,8.338,0,0,1-1.421.25.621.621,0,0,1-.6-.664c.02-.174.049-.44.089-.83,0-.018,0-.039.008-.059.526-4.126.917-8.258,1.238-12.4v0l.061-.622q.131-1.344.24-2.6v-.01q.02-.23.039-.458L39,19.148q.058-.693.111-1.357l.005-.063c.011-.141.022-.282.033-.421l.006-.08c.137-1.772.24-3.384.318-4.825.024-.434.044-.85.064-1.253l0-.036q.023-.488.042-.946l0-.107L39.6,9.8l0-.094q.008-.216.016-.425l.006-.184.006-.173c0-.106.007-.21.01-.313l0-.089c0-.107.006-.212.01-.315l0-.084c.078-2.7.049-4.248.042-4.546V3.567a.481.481,0,0,1,.426-.24l.033.009.016,0c.525.154,1.066.305,1.591.5a8.475,8.475,0,0,1,1.514.735,4.407,4.407,0,0,1,.631.5c.009.009.018.016.025.024l.091.089a.064.064,0,0,1,.014.014l0,0v0l.017.018c.01.01.019.022.027.032l.3.366,0,0c.046.063.092.129.135.194.023.033.044.065.064.1s.036.055.054.082.051.084.076.127.051.086.075.129.05.086.071.131c.048.088.094.175.137.265.02.039.039.078.056.118s.04.089.061.134.041.095.061.144.036.086.052.129c.029.072.058.145.084.218.037.1.073.207.106.313s.066.21.1.317c.015.048.028.1.041.145s.026.1.037.145c.026.1.049.2.071.294.03.132.056.264.082.4.005.027.01.056.015.083l0,0c.014.087.03.177.044.264.021.127.041.253.056.381l0,.031c.016.118.03.235.043.352s.023.2.032.308c.017.181.031.363.043.544,0,.024,0,.049.006.073.012.2.023.393.031.589.01.248.017.495.023.74,0,.064,0,.128,0,.191,0,.2.006.4.007.6,0,.154,0,.306,0,.458s0,.3,0,.451c0,.1,0,.2,0,.3,0,.194,0,.386,0,.574a77.88,77.88,0,0,1-.66,11.567c-.007.047-.014.1-.02.147s-.013.1-.02.148l-.039.3c0,.02-.006.04-.007.06s-.007.052-.01.078c0,.006,0,.011,0,.016a.029.029,0,0,1,0,.01c-.064.351-.124.664-.181.931-.064.373-.432,2.372-.479,2.575a23.034,23.034,0,0,1-.674,2.234l0,0v0l-.005.011,0,0a.119.119,0,0,1-.011.023l-.026.052-.019.039v0C43.811,33.339,43.709,33.523,43.6,33.7ZM6.517,34.761a8.211,8.211,0,0,1-.788-.975c-.048-.075-.1-.148-.141-.225l-.009-.015c-.069-.119-.135-.242-.2-.365l-.017-.033h0c-.014-.029-.029-.058-.042-.085s-.022-.049-.034-.074c-.115-.29-.471-1.414-.663-2.209-.048-.2-.414-2.2-.48-2.574-.06-.279-.124-.609-.188-.981q-.021-.16-.041-.317c-.017-.132-.036-.264-.053-.393A78.518,78.518,0,0,1,3.2,14.949c0-.141,0-.284,0-.429s0-.29,0-.438,0-.293,0-.441,0-.3,0-.444c0-.088,0-.177,0-.264q0-.265.009-.534c0-.052,0-.1,0-.154l.009-.293c0-.1.007-.21.011-.314,0-.054,0-.109.007-.163,0-.012,0-.022,0-.034.007-.13.014-.261.023-.393,0-.054.007-.109.011-.165,0-.03,0-.062.006-.092.01-.121.02-.241.032-.362.008-.1.02-.2.031-.307.007-.071.016-.139.025-.208.01-.085.021-.168.033-.251.014-.1.029-.2.046-.3s.033-.2.052-.3c.008-.049.018-.1.028-.149s.021-.1.031-.149.02-.1.031-.148.022-.1.035-.148l.013-.055c.013-.056.027-.111.041-.167.029-.109.059-.218.091-.324h0c.033-.108.066-.214.1-.32.048-.141.1-.281.154-.419.016-.043.033-.088.052-.129s.04-.1.062-.144.039-.091.06-.134l.063-.134c.021-.044.044-.089.067-.132s.044-.088.069-.131.046-.086.07-.128.049-.086.075-.128S4.6,6.037,4.63,6s.052-.084.081-.124.049-.076.076-.112.06-.088.092-.131l0,0c.1-.117.2-.238.3-.366l.008-.009.021-.024,0,0s0,0,.006-.006c.017-.018.034-.037.052-.053s.041-.043.064-.065l.025-.024A4.321,4.321,0,0,1,6,4.568a8.475,8.475,0,0,1,1.483-.722c.531-.195,1.081-.35,1.613-.5l.016,0,.033-.009a.481.481,0,0,1,.426.24c-.007.285-.037,1.834.042,4.548,0,.127.007.255.012.386s.007.24.012.362.009.262.013.4c0,.021,0,.044,0,.067.01.27.02.55.033.838,0,.121.01.241.016.363.007.177.016.357.025.541s.017.37.027.561c0,.095.01.191.014.287q.013.237.026.483c.013.235.026.473.041.717q.017.295.035.6c0,.01,0,.02,0,.028.013.212.027.429.04.647.01.147.02.293.029.441.013.187.026.374.037.564a.044.044,0,0,1,0,.014c.014.2.027.393.042.593.023.3.044.606.067.917q.024.3.048.613t.051.65c.023.284.048.573.072.866.013.149.026.3.039.453.029.337.059.677.091,1.025q.078.865.167,1.772v0c.008.082.015.164.024.245s.014.154.022.224c0,.032.005.062.008.092s.007.076.012.114c.006.056.011.111.016.162,0,.033.005.067.01.1s.005.062.008.092c.006.059.012.115.016.168,0,.025.006.051.007.076s0,.027,0,.041l0,.042a.111.111,0,0,0,0,.023c0,.012,0,.023,0,.035s0,.011,0,.017l0,0v.009a.048.048,0,0,0,0,.013c0,.011,0,.023,0,.033,0,.036.007.07.01.1s.006.062.009.091l0,.043c0,.026,0,.052.007.076a.228.228,0,0,1,0,.033.081.081,0,0,1,0,.016c.006.059.012.111.016.159,0,.011,0,.021,0,.033a.014.014,0,0,0,0,.008.089.089,0,0,0,0,.018c0,.024,0,.049.007.073a.117.117,0,0,0,0,.02v0l0,.049c0,.009,0,.017,0,.026,0,.027.006.053.007.079s.006.065.01.1l0,.036c0,.04.007.083.013.131,0,.024,0,.052.007.08s.006.054.009.082c0,.008,0,.015,0,.023l0,.033c0,.025,0,.051.008.077,0,.01,0,.02,0,.031.013.128.028.281.046.464,0,.037.008.075.012.112s.01.1.016.155c0,.026,0,.051.007.075.679,6.9.946,9.411,1.031,10.185v0h0a.625.625,0,0,1-.606.674,8.491,8.491,0,0,1-1.422-.253A13.533,13.533,0,0,1,6.517,34.761Zm18.119,2.562H17.488a.2.2,0,0,1-.065-.1.277.277,0,0,1,0-.032.74.74,0,0,1,.031-.175l.122-.444c.37-1.216,1.308-4.243,1.308-4.243l.042-.139c.126-.357.265-.73.433-1.148a3.871,3.871,0,0,1,1.395-1.763,3.524,3.524,0,0,1,.864-.4c.158-.035.328-.069.513-.106.285-.056.586-.1.9-.144.47-.038,1-.051,1.611-.051s1.141.013,1.611.051c.311.039.611.087.9.143.185.036.354.071.512.105a3.538,3.538,0,0,1,.866.4,3.87,3.87,0,0,1,1.394,1.763c.164.409.3.776.425,1.126l.049.161s.956,3.08,1.318,4.275c.038.137.075.273.113.412a.766.766,0,0,1,.031.175.2.2,0,0,1,0,.027.19.19,0,0,1-.067.105ZM18.064,2.408c3.795-.125,6.429-.149,6.571-.151s2.777.025,6.571.151c.287.009.552.02.8.032a29.98,29.98,0,0,1,3.21.321h0a.216.216,0,0,1,.141.217c-.09.358-.244.966-.433,1.713-.894,3.365-1.874,7.373-2.774,10.638a25.21,25.21,0,0,1-2.323,5.995l0,0a4.74,4.74,0,0,1-2.842,1.935,16.431,16.431,0,0,1-2.349.114,16.41,16.41,0,0,1-2.347-.114,4.728,4.728,0,0,1-2.819-1.9l-.026-.039a25.917,25.917,0,0,1-2.379-6.19c-.878-3.2-1.826-7.073-2.7-10.353-.2-.789-.363-1.432-.457-1.8a.215.215,0,0,1,.148-.217h0a30.689,30.689,0,0,1,3.187-.317C17.5,2.429,17.771,2.418,18.064,2.408Z" transform="translate(0 0)" fill="#cacee6" fill-rule="evenodd"/></svg>