<svg xmlns="http://www.w3.org/2000/svg" width="50.425" height="55.413" viewBox="0 0 50.425 55.413"><g transform="translate(0 0)"><path d="M1125.351,855.26h1.832a23.931,23.931,0,0,1,10.835,3.248,27.339,27.339,0,0,1,12.186,16.13,28.976,28.976,0,0,1,1.024,5.63c.149,1.495.061,3.007.07,4.508a29.319,29.319,0,0,1-3.314,12.058,27.042,27.042,0,0,1-7.585,9.009,24.01,24.01,0,0,1-13.234,4.829h-2.083a28.021,28.021,0,0,1-3.166-.379,24.472,24.472,0,0,1-13.875-8,28.836,28.836,0,0,1-7.094-18.2,13.019,13.019,0,0,1,.01-2.477c-.016-.76.118-1.507.142-2.264l.051-.068a28.158,28.158,0,0,1,10.246-18.831,23.9,23.9,0,0,1,13.955-5.194m-1.493,2.68a5.48,5.48,0,0,1-.814.115c-.406.09-.819.137-1.224.233-.167.045-.337.08-.5.116-.138.041-.277.073-.416.107a12.427,12.427,0,0,0-1.209.379l-.228.06c-.1.043-.2.085-.307.126l-.31.1c-.054.039-.107.078-.159.117.09.195.175.393.253.595.117.294.239.587.359.879.15.384.311.764.455,1.15.14.334.28.671.408,1.012.266.627.509,1.266.771,1.894,1.276,3.165,2.573,6.32,3.852,9.483.135.338.278.672.409,1.013s.276.673.412,1.011a2.581,2.581,0,0,0,.529,1,2.174,2.174,0,0,0,.483-.91c.155-.366.3-.736.449-1.105,1.389-3.425,2.791-6.845,4.176-10.273.135-.338.275-.673.409-1.011s.274-.675.409-1.013.274-.674.409-1.013q.222-.552.444-1.1c.135-.339.276-.675.407-1.015.086-.206.172-.413.268-.615-.159-.066-.313-.143-.47-.208-.106-.036-.209-.074-.313-.114l-.228-.063c-.394-.154-.8-.253-1.206-.378-.308-.065-.614-.143-.917-.229-.41-.073-.822-.135-1.229-.227a5.289,5.289,0,0,1-.82-.115c-.511-.052-1.028-.021-1.535-.117a29.836,29.836,0,0,0-3.011.118m-9.046,3.221a25.308,25.308,0,0,0-7.836,8.2,3.256,3.256,0,0,0,.289.765c.155.33.3.667.446,1,.169.375.338.75.512,1.123,1.787,3.989,3.614,7.958,5.393,11.952.05.1.1.209.149.315.2.451.408.906.608,1.361q2.1,4.656,4.211,9.307a.369.369,0,0,0,.384.27c.158-.32.3-.651.429-.986.113-.311.24-.615.361-.922s.229-.588.346-.881c.12-.309.248-.613.363-.924.12-.29.235-.584.351-.878q1.341-3.384,2.7-6.761a.561.561,0,0,1,.571-.393q2.051,0,4.1,0a.581.581,0,0,1,.582.439c.893,2.238,1.791,4.472,2.675,6.715.117.294.233.588.354.88.115.31.241.615.361.921s.229.589.345.883c.265.625.471,1.281.784,1.88l.25.009c1.135-2.4,2.2-4.832,3.307-7.246q3.682-8.207,7.4-16.394c.191-.4.352-.813.547-1.21a7.522,7.522,0,0,1,.553-1.143c-.207-.278-.381-.58-.566-.874a24.955,24.955,0,0,0-7.321-7.4,1,1,0,0,0-.347-.155q-1.906,4.615-3.793,9.243c-.162.413-.34.818-.5,1.231-.119.295-.24.589-.365.881-.149.385-.309.766-.456,1.152q-.232.549-.454,1.1-1.3,3.192-2.611,6.375a3.7,3.7,0,0,1-.309.669.831.831,0,0,1-.649.2c-1.268,0-2.536,0-3.8,0a.621.621,0,0,1-.659-.4q-1.408-3.416-2.8-6.837-.223-.553-.451-1.1c-.15-.385-.311-.763-.466-1.146s-.3-.738-.447-1.108c-1.383-3.433-2.817-6.843-4.2-10.279-.116.056-.233.11-.344.178m32.673,13.037c-.457,1.1-.976,2.169-1.452,3.259-.14.3-.277.6-.409.9s-.27.6-.4.9l-.157.322c-.048.116-.1.232-.147.347l-.106.233c-.051.106-.1.214-.152.321-.079.2-.166.392-.251.587-1.671,3.717-3.376,7.415-5.043,11.134l-.1.224c-.072.149-.137.3-.205.453s-.136.3-.2.453-.137.3-.2.45c-.025.056-.074.17-.1.226-.049.1-.1.21-.149.314-.165.378-.339.751-.506,1.129-1.251,2.811-2.534,5.605-3.809,8.4a.773.773,0,0,1-1.146.437c-.421-.326-.523-.924-.738-1.4-.154-.366-.3-.735-.45-1.105-1.518-3.766-3.057-7.522-4.58-11.286-.134-.339-.278-.673-.408-1.015s-.283-.675-.4-1.025c-.088-.138-.249-.238-.393-.124-.216.407-.357.857-.535,1.286-1.538,3.794-3.092,7.581-4.619,11.381l-.361.874c-.145.385-.307.762-.456,1.147a9.051,9.051,0,0,1-.438,1.006.76.76,0,0,1-.927.335,1.055,1.055,0,0,1-.512-.583c-1.268-2.81-2.557-5.609-3.817-8.422-.065-.151-.132-.3-.2-.449-.131-.3-.268-.6-.407-.9l-.1-.227c-.065-.151-.135-.3-.2-.447s-.134-.3-.2-.45c-.05-.123-.1-.243-.153-.363-.085-.181-.167-.36-.25-.541-.1-.227-.2-.453-.307-.676-1.664-3.726-3.383-7.422-5.042-11.15-.024-.058-.075-.172-.1-.228-.116-.268-.238-.533-.357-.8s-.236-.517-.359-.772q-.072-.18-.145-.357c-.052-.1-.1-.21-.153-.315-.514-1.145-1.026-2.291-1.549-3.43a5.793,5.793,0,0,0-.4,1.132,27.135,27.135,0,0,0,1.5,19.063c.01.03.031.092.042.123.264.5.509,1.014.79,1.506a24.015,24.015,0,0,0,10.618,10.07c.171.076.341.153.514.227.126.058.253.11.38.167.146.054.292.113.439.168l.307.123c.1.036.2.072.308.107.264.091.531.168.793.259.408.12.819.229,1.23.337.171.033.342.068.511.11s.344.072.515.118a19.493,19.493,0,0,0,2.478.282,10.956,10.956,0,0,0,2.553.007,17.585,17.585,0,0,0,2.575-.3c.172-.045.345-.077.518-.109s.34-.078.512-.111c.41-.109.821-.216,1.229-.337.262-.091.528-.17.79-.261.1-.042.208-.081.313-.12l.214-.064c.3-.127.61-.247.912-.377l.513-.231a22.958,22.958,0,0,0,6.8-4.919,25.8,25.8,0,0,0,6.074-10.5,26.982,26.982,0,0,0-.33-16.534Z" transform="translate(-1100.89 -855.26)" fill="#cacee6"/></g></svg>