<svg xmlns="http://www.w3.org/2000/svg" width="35.156" height="35.153" viewBox="0 0 35.156 35.153"><g transform="translate(0)"><g transform="translate(0 0)"><path d="M33.043,17.576A17.6,17.6,0,0,1,15.462,35.153V0A17.6,17.6,0,0,1,33.043,17.576Z" transform="translate(2.114)" fill="#fff"/><path d="M17.576,0V35.153A17.577,17.577,0,0,1,17.576,0Z" fill="#006133"/><g transform="translate(9.209 8.774)"><path d="M19.018,23.559A7.039,7.039,0,1,1,24.577,12.2a8.8,8.8,0,1,0,0,8.632A7.026,7.026,0,0,1,19.018,23.559Z" transform="translate(-8.101 -7.719)" fill="#d11133"/><path d="M20.764,11.808l0,3.172,3.014.986-3.018.974,0,3.176L18.89,17.544l-3.018.978,1.87-2.564L15.88,13.386l3.014.986Z" transform="translate(-7.039 -7.16)" fill="#d11133"/></g></g></g></svg>