<svg xmlns="http://www.w3.org/2000/svg" width="35.153" height="35.149" viewBox="0 0 35.153 35.149"><g transform="translate(0 0)"><path d="M35.153,17.576a17.59,17.59,0,1,1-2.8-9.5c.118.182.236.371.347.557A17.467,17.467,0,0,1,35.153,17.576Z" fill="#fff"/><g transform="translate(5.756 8.048)"><path d="M32.01,7.661c-.118.031-.244.075-.244.075a1.43,1.43,0,0,0-.268.138c-.048.051-.209.1-.209.185s-.182.15-.182.19a.6.6,0,0,1-.043.248c-.035.04-.679.276-.7.3a2.917,2.917,0,0,0-.249.158c-.047.043-.114.11-.189.189a.724.724,0,0,1-.288.225,5.144,5.144,0,0,0-.648.2c0,.04-.15.1-.213.166s-.316.059-.423.1-.2.059-.232.161-.34.1-.407.174-.2.149-.26.2-.228.059-.228.185-.206.252-.241.289-.123.07-.083.11a.2.2,0,0,1-.04.217c-.055.059-.078.24-.169.24s-.339.036-.4.036-.351.059-.41,0a.345.345,0,0,0-.331-.032c-.052.055-.359.166-.415.3s-.146.34-.2.34-.088.019-.166.1a.632.632,0,0,0-.177.343c0,.106.07.2.035.351s-.166.173-.166.236a.558.558,0,0,0,.056.268c.043.043.035.134.035.2s.016.078.08.15a1.416,1.416,0,0,1,.141.126c.064.059.178.363.222.41s.11.083.11.126a.426.426,0,0,0,.08.244c.058.059.224.182.224.225s-.091.11-.016.185.1.177.147.217.138.075.2.134l.146.15c.064.063-.019.161.059.244s.273.26.273.335.11.206.11.288-.11.123-.083.15-.011.142.107.185a.073.073,0,0,1,.035.127l-.241-.036a.289.289,0,0,1-.161-.063c-.056-.051-.438-.23-.469-.26a.631.631,0,0,0-.273-.142.97.97,0,0,0-.327.027c-.161.04-.343.115-.386.115s-.244-.044-.284,0l-.2.2c-.04.039-.024.027-.107.106s-.107.107-.26.024-.363-.228-.363-.276-.118-.122-.233-.166a2.348,2.348,0,0,1-.434-.2c-.047-.047-.335.013-.335.013a2.609,2.609,0,0,0-.476-.024,3.184,3.184,0,0,1-.423.024l-.166.335s-.142.138-.11.174.1.11.07.146-.185.19-.185.233a1.975,1.975,0,0,1-.078.355c-.024.02.04.217-.008.265s-.225.252-.244.272-.123,0-.123.059-.048.19-.048.238.075.106-.066.106A1.111,1.111,0,0,1,20.1,18.3c-.165-.039-.055-.1-.248-.035a2.431,2.431,0,0,0-.612.332c-.059.055-.15.146-.182.181s-.217,0-.264.051a.537.537,0,0,1-.182.083H18.34c-.067,0-.134-.043-.177.056s-.2.078-.236.122-.186.225-.23.225h-.169a1.591,1.591,0,0,0-.276.043.549.549,0,0,1-.221.1,2.157,2.157,0,0,1-.34-.067.532.532,0,0,0-.422.142c-.059.056-.319,0-.4,0s-.246-.059-.38-.059a.783.783,0,0,1-.355-.011.6.6,0,0,0-.34-.083,2.963,2.963,0,0,0-.521.047,2.414,2.414,0,0,0-.446.131c-.233.083-.268,0-.3.118s-.26.273-.281.3-.185-.043-.185.111a.474.474,0,0,1-.086.311.233.233,0,0,0,0,.28c.086.088.07.158.166.252a.721.721,0,0,1,.166.308c0,.032-.088.043-.166.043s-.3-.091-.372-.091-.2-.078-.232-.047-.147.024-.2.024-.169.011-.169-.064a.7.7,0,0,0-.008-.324c-.048-.122-.281-.438-.281-.559a.533.533,0,0,0-.15-.343,1.2,1.2,0,0,0-.417-.217c-.059,0-.059-.083-.19-.043a.451.451,0,0,1-.288.011.4.4,0,0,0-.147-.04s-.15-.067-.221,0-.15.056-.26.056-.185.13-.236.13-.111-.173-.2-.086-.032.146-.131.177-.355-.114-.425-.185-.209-.063-.281-.13L8.694,19.3c-.078-.083-.3-.1-.332-.13s-.082-.083-.142-.142a.712.712,0,0,0-.213-.107L7.9,18.778s-.02-.043-.107-.043-.209.035-.3-.059-.134-.15-.2-.15-.126.056-.182,0S7.02,18.4,6.969,18.4s-.106-.107-.161-.158-.146-.123-.185-.166-.166-.032-.257-.123a.308.308,0,0,1-.11-.181c0-.032-.213.008-.213-.056a.658.658,0,0,1,.043-.169,1.15,1.15,0,0,0-.013-.418A.721.721,0,0,1,6,16.849c0-.067.04-.056.04-.161S6,16.549,6,16.49s-.04-.083-.072-.11a.976.976,0,0,1-.09-.166l-.075-.027-.08.027s-.288-.469-.327-.508a.5.5,0,0,1-.107-.233,1.476,1.476,0,0,0,.19-.147c.059-.059-.07-.366-.07-.4s0-.055-.056-.11a.255.255,0,0,1-.064-.142v-.035s.067,0,.067-.035a1.516,1.516,0,0,1,.119-.324,1.884,1.884,0,0,0-.186-.521,1.319,1.319,0,0,1-.189-.58,1.175,1.175,0,0,1,.055-.426c.032-.032.178-.233.178-.233s.043-.094.09.013a1.222,1.222,0,0,0,.178.268c.035.035.067.094.11.141s.083.052.142.111.035.138.122.225.186.031.26.1.119.13.23.13a.935.935,0,0,0,.347,0,2.978,2.978,0,0,0,.49-.15c.051-.047.094-.094.177-.177s.268-.07.327-.292a1.2,1.2,0,0,1,.217-.457,1.739,1.739,0,0,1,.339-.292.4.4,0,0,0,.166-.2s0-.147.153-.064a.283.283,0,0,0,.147.013c.244-.059.62-.169.62-.169s.173-.147.3-.1.268.024.324.083.193.11.236.157.3.064.331.1.185.059.249.122.166.174.244.174.11.019.185.1.178.07.257.15.138.091.185.138a.162.162,0,0,0,.217,0c.07-.075.233-.039.343-.15s.169-.023.316-.224a2.94,2.94,0,0,1,.3-.356c.067-.067.035-.308.115-.386a.983.983,0,0,0,.153-.236s-.016-.265.067-.348a.281.281,0,0,0,.1-.232v-.281c0-.055-.075-.221-.032-.264s.016-.075.032-.115a1.149,1.149,0,0,0,0-.2c0-.035-.075-.1-.075-.145s0-.169,0-.209V9.152c0-.142.02-.276.083-.217s.169.217.265.217a.54.54,0,0,1,.272.1c.032.032.177.236.222.28s.236.028.236.028a.885.885,0,0,1,.233.023.9.9,0,0,0,.244.163c.1.039.441.11.489.063a.208.208,0,0,1,.233-.075c.134.04.256.123.4.163a2.849,2.849,0,0,0,.434.07c.067,0,.11-.056.209-.024a2.734,2.734,0,0,0,.422.166,1.423,1.423,0,0,0,.371.063c.067,0,.048.028.166.028s.134-.048.206.024.118.153.24.153.257.008.348.008.209-.008.264.048.091.055.214.055.24-.024.28.019.056.013.213.013.313.091.442.091.327-.088.439-.088.1-.035.236-.035.264.043.382.043.249-.067.351-.067.19.036.244.036a1.666,1.666,0,0,0,.324-.052c.107-.019.119-.134.241-.094s.055.075.213.016.265-.185.359-.185a.185.185,0,0,0,.177-.075.709.709,0,0,1,.367-.213c.131,0,.414-.072.454-.032s.147-.032.206-.032a.6.6,0,0,1,.2.094s.256-.016.315-.075.281.044.462-.011.222-.107.335-.107.139-.047.276-.083.075-.063.225-.063.423-.15.568-.15.107.1.233-.027.193-.064.256-.126a.535.535,0,0,1,.276-.1c.048,0,.171-.155.171-.155s.008,0,.153-.027.375-.019.442-.083.094-.169.13-.2.147-.075.177-.11,0-.2.067-.2a.33.33,0,0,0,.209-.064c.04-.035-.031-.126.059-.15s.209.035.321.035.249-.039.288,0,.146.02.225.02.153-.15.244-.15.123-.1.252-.1a1.3,1.3,0,0,0,.359-.1c.122-.039.158-.189.222-.189s.058.083.1.039a.191.191,0,0,0,.072-.13c0-.043-.027-.146.051-.146a.363.363,0,0,0,.257-.088.383.383,0,0,1,.288-.078,1.162,1.162,0,0,0,.415-.088c.13-.055.24-.157.267-.13a.048.048,0,0,0,.02.019C31.781,7.286,31.9,7.474,32.01,7.661Z" transform="translate(-5.064 -7.08)" fill="#d4770a"/><g transform="translate(1.185 13.888)"><path d="M16.03,25.254a2.313,2.313,0,0,1,.364-.214l-.265-.193-.517.257-.513-.257-.268.193a2.3,2.3,0,0,1,.363.214c-.039.035-.824.532-.824.532l.493.5.749-.943.75.943.493-.5S16.07,25.289,16.03,25.254Z" transform="translate(-4.977 -18.539)" fill="#4d5a31"/><g transform="translate(11.699)"><path d="M16.4,24.76s.592-1.325,1.678-1.325C18.04,23.817,17.973,24.6,16.4,24.76Z" transform="translate(-16.399 -18.732)" fill="#4d5a31"/><path d="M16.584,25.085a1.972,1.972,0,0,1,2.153-.032A2.017,2.017,0,0,1,16.584,25.085Z" transform="translate(-16.374 -18.555)" fill="#4d5a31"/><path d="M17.625,24.495a1.736,1.736,0,0,1,1.768-.521C19.27,24.262,19.069,24.684,17.625,24.495Z" transform="translate(-16.232 -18.668)" fill="#4d5a31"/><path d="M18.933,23.622a1.511,1.511,0,0,1,1.6-1.136C20.46,22.738,20.3,23.409,18.933,23.622Z" transform="translate(-16.053 -18.864)" fill="#4d5a31"/><path d="M19.874,23.691a1.985,1.985,0,0,1,1.806-.915C21.546,23.028,21.3,23.782,19.874,23.691Z" transform="translate(-15.924 -18.824)" fill="#4d5a31"/><path d="M19.513,24.207a2.1,2.1,0,0,1,2-.26C21.327,24.218,20.05,25.031,19.513,24.207Z" transform="translate(-15.973 -18.68)" fill="#4d5a31"/><path d="M22.6,20.923s-.872-.193-1.44,1.728C21.773,22.275,22.657,21.526,22.6,20.923Z" transform="translate(-15.748 -19.077)" fill="#4d5a31"/><path d="M21.7,23.2s.268-.8,1.956-.544C23.6,22.881,23.084,23.575,21.7,23.2Z" transform="translate(-15.674 -18.845)" fill="#4d5a31"/><path d="M21.939,22.584s.323-1.228,1.361-1.319A1.538,1.538,0,0,1,21.939,22.584Z" transform="translate(-15.642 -19.029)" fill="#4d5a31"/><path d="M23.427,21.773c-.11-.019.182-.923,1.4-.773C24.752,21.316,24.768,22.014,23.427,21.773Z" transform="translate(-15.441 -19.068)" fill="#4d5a31"/><path d="M22.894,21.157c-.083.067-.166-.813.027-1.089a.963.963,0,0,1,.41-.351A1.746,1.746,0,0,1,22.894,21.157Z" transform="translate(-15.523 -19.241)" fill="#4d5a31"/><path d="M23.407,21.136a2.349,2.349,0,0,1,1.55-1.838C25.048,19.728,25.238,20.726,23.407,21.136Z" transform="translate(-15.441 -19.298)" fill="#4d5a31"/><path d="M18.229,23.693s-.016-.521.358-.466A.313.313,0,0,1,18.229,23.693Z" transform="translate(-16.149 -18.761)" fill="#4d5a31"/><path d="M19.268,24.5s-.407-.024-.384.5C19.125,25,19.46,25.057,19.268,24.5Z" transform="translate(-16.059 -18.587)" fill="#4d5a31"/><path d="M22.876,22.392a.452.452,0,0,1,.623-.356C23.469,22.277,23.429,22.633,22.876,22.392Z" transform="translate(-15.514 -18.928)" fill="#4d5a31"/><path d="M20.993,22.21a.379.379,0,0,0-.321.54C20.874,22.723,21.111,22.6,20.993,22.21Z" transform="translate(-15.82 -18.9)" fill="#4d5a31"/><path d="M21.493,23.334s-.43.094-.165.489C21.514,23.689,21.664,23.653,21.493,23.334Z" transform="translate(-15.737 -18.746)" fill="#4d5a31"/></g><path d="M14.727,24.76s-.591-1.325-1.677-1.325C13.085,23.817,13.152,24.6,14.727,24.76Z" transform="translate(-5.158 -18.732)" fill="#4d5a31"/><path d="M14.6,25.085a1.975,1.975,0,0,0-2.154-.032A2.019,2.019,0,0,0,14.6,25.085Z" transform="translate(-5.24 -18.555)" fill="#4d5a31"/><path d="M13.513,24.495a1.736,1.736,0,0,0-1.768-.521C11.871,24.262,12.069,24.684,13.513,24.495Z" transform="translate(-5.336 -18.668)" fill="#4d5a31"/><path d="M12.184,23.622a1.512,1.512,0,0,0-1.6-1.136C10.658,22.738,10.819,23.409,12.184,23.622Z" transform="translate(-5.494 -18.864)" fill="#4d5a31"/><path d="M11.272,23.691a1.994,1.994,0,0,0-1.811-.915C9.6,23.028,9.841,23.782,11.272,23.691Z" transform="translate(-5.648 -18.824)" fill="#4d5a31"/><path d="M11.653,24.207a2.1,2.1,0,0,0-2-.26C9.838,24.218,11.116,25.031,11.653,24.207Z" transform="translate(-5.622 -18.68)" fill="#4d5a31"/><path d="M8.5,20.923s.872-.193,1.439,1.728C9.329,22.275,8.442,21.526,8.5,20.923Z" transform="translate(-5.78 -19.077)" fill="#4d5a31"/><path d="M9.457,23.2s-.268-.8-1.957-.544C7.564,22.881,8.076,23.575,9.457,23.2Z" transform="translate(-5.916 -18.845)" fill="#4d5a31"/><path d="M9.15,22.584s-.324-1.228-1.362-1.319A1.538,1.538,0,0,0,9.15,22.584Z" transform="translate(-5.877 -19.029)" fill="#4d5a31"/><path d="M7.668,21.773c.111-.019-.177-.923-1.4-.773C6.343,21.316,6.332,22.014,7.668,21.773Z" transform="translate(-6.085 -19.068)" fill="#4d5a31"/><path d="M8.1,21.157c.083.067.166-.813-.024-1.089a.981.981,0,0,0-.414-.351A1.746,1.746,0,0,0,8.1,21.157Z" transform="translate(-5.897 -19.241)" fill="#4d5a31"/><path d="M7.714,21.136A2.356,2.356,0,0,0,6.16,19.3C6.07,19.728,5.88,20.726,7.714,21.136Z" transform="translate(-6.107 -19.298)" fill="#4d5a31"/><path d="M12.744,23.693s.016-.521-.359-.466A.314.314,0,0,0,12.744,23.693Z" transform="translate(-5.254 -18.761)" fill="#4d5a31"/><path d="M11.71,24.5s.41-.024.383.5C11.853,25,11.517,25.057,11.71,24.5Z" transform="translate(-5.349 -18.587)" fill="#4d5a31"/><path d="M8.124,22.392a.452.452,0,0,0-.624-.356C7.532,22.277,7.575,22.633,8.124,22.392Z" transform="translate(-5.916 -18.928)" fill="#4d5a31"/><path d="M9.979,22.21a.378.378,0,0,1,.319.54C10.1,22.723,9.861,22.6,9.979,22.21Z" transform="translate(-5.582 -18.9)" fill="#4d5a31"/><path d="M9.47,23.334a.286.286,0,0,1,.166.489C9.45,23.689,9.3,23.653,9.47,23.334Z" transform="translate(-5.657 -18.746)" fill="#4d5a31"/></g></g></g></svg>