<svg xmlns="http://www.w3.org/2000/svg" width="52.323" height="11.384" viewBox="0 0 52.323 11.384"><g transform="translate(0 0)"><path d="M52.221.158A.511.511,0,0,0,51.7.013H30.631A1.985,1.985,0,0,0,29.01.647a.159.159,0,0,0-.015.022,1.936,1.936,0,0,0-.325,1.092H23.653A1.934,1.934,0,0,0,23.328.669.217.217,0,0,0,23.3.63,2.21,2.21,0,0,0,21.692.013H.619A.512.512,0,0,0,.1.158.577.577,0,0,0,.067.774.2.2,0,0,0,.083.805l.7,1.119a.2.2,0,0,0,.028.035.605.605,0,0,0,.489.2h.265l.032.13a.2.2,0,0,0,.027.062l.692,1.039a.5.5,0,0,0,.62.237h.2l.492.984c.038.135.191.2.27.233.113.047.277.1.485.171l.01,0L13.458,7.51l.58,1.031a1,1,0,0,0,.69.6l8.66,2.237a.2.2,0,0,0,.177-.04l2.5-2.12h.186l2.5,2.12a.2.2,0,0,0,.128.047.192.192,0,0,0,.05-.006l8.659-2.236a1,1,0,0,0,.691-.6l.58-1.031,9.07-2.495.01,0c.217-.072.373-.125.485-.171.079-.033.233-.1.27-.232l.492-.984h.2a.5.5,0,0,0,.619-.237L50.7,2.349a.2.2,0,0,0,.027-.062l.032-.129h.264a.6.6,0,0,0,.489-.2.188.188,0,0,0,.028-.035l.7-1.119a.191.191,0,0,0,.016-.031A.576.576,0,0,0,52.221.158ZM29.327.884a1.625,1.625,0,0,1,1.3-.475h8.5a14.47,14.47,0,0,1-.682,1.352H29.066A1.541,1.541,0,0,1,29.327.884Zm7.089,3.538V3.854l.479.045h0Q36.651,4.174,36.415,4.422Zm-1.145,1.1h0l-.381-.5h.928Q35.542,5.286,35.271,5.518ZM32.384,7.38l-1.06-2.358h.756L33.1,7Q32.745,7.2,32.384,7.38Zm-1.325.572L30.023,5.023h.868L32.027,7.55Q31.547,7.77,31.06,7.952ZM30.3,8.21q-.39.12-.789.216l-.68-3.4h.8l-.023.008,1.08,3.054C30.559,8.128,30.43,8.17,30.3,8.21ZM28.009,8.7h0L27.7,5.023h.732l.7,3.491Q28.574,8.631,28.009,8.7ZM26.4,8.82l-.038-.033V5.023H27.3l.316,3.726Q27.012,8.809,26.4,8.82Zm-1.691-.07.315-3.727h.941V8.788l-.038.032Q25.309,8.81,24.706,8.749ZM23.2,8.515l.7-3.492h.732l-.312,3.682Q23.748,8.633,23.2,8.515Zm-1.56-.429,1.081-3.055-.023-.008h.8l-.68,3.4Q22.214,8.283,21.635,8.086Zm-1.344-.537,1.073-2.526H22.3L21.262,7.954Q20.77,7.77,20.291,7.549ZM19.225,7l1.017-1.976h.692l-1,2.354Q19.576,7.2,19.225,7ZM37.214,3.532l-.8-.075V3.005l1.174.056q-.183.241-.376.47Zm-22.141,0q-.188-.23-.366-.469l1.13-.054v.451Zm1.463.83L17.342,2.5h.07l.806,1.859h-.281l-.28-.7h-.666l-.28.7Zm2.593-.737-.28-.14a.667.667,0,0,1-.28-.14.428.428,0,0,1-.14-.315.5.5,0,0,1,.175-.386.6.6,0,0,1,.771,0l-.07.211a.337.337,0,0,0-.35-.246.211.211,0,0,0-.21.105.212.212,0,0,0-.1.21.4.4,0,0,0,.1.281l.315.1a3.273,3.273,0,0,0,.28.175.429.429,0,0,1,.1.316.581.581,0,0,1-.175.422.667.667,0,0,1-.456.175l-.245-.035-.175-.141.035-.21h.035a.494.494,0,0,0,.42.281.264.264,0,0,0,.245-.14.4.4,0,0,0,.1-.281A.319.319,0,0,0,19.129,3.622Zm.491-1.087h1.4l-.035.07.035.105-.561-.035V4.358h-.245V2.675l-.6.035.035-.105Zm1.436.912a.978.978,0,0,1,.28-.7.952.952,0,0,1,.7-.246,1.11,1.11,0,0,1,.7.21.837.837,0,0,1,.315.7.922.922,0,0,1-.28.7,1,1,0,0,1-.736.281.955.955,0,0,1-.7-.245A.981.981,0,0,1,21.056,3.447Zm2.383.912V2.534h.1L24.806,3.9V2.534h.175V4.358h-.1L23.614,2.92h-.035V4.358Zm2.628,0,.281-1.824h.035c.315.6.561,1.052.771,1.4l.771-1.4h.035l.21,1.824h-.245l-.14-1.368c-.316.6-.561,1.052-.666,1.333h-.035l-.176-.28L26.383,2.99l-.1,1.368Zm2.278,0L29.187,2.5h.07l.771,1.859h-.245l-.28-.7h-.7l-.246.7Zm3.294,0h-.28l-.7-.877h-.105v.877h-.21V2.535H30.9c.385,0,.561.14.561.421a.487.487,0,0,1-.175.351,1.058,1.058,0,0,1-.35.14Zm.035-1.649V2.534h1.331V2.71l-.525-.035V4.358h-.245V2.675Zm1.647,1.648V2.534h.245V4.358Zm.771,0V2.534h.07l1.3,1.368V2.534h.176V4.358h-.105L34.268,2.92h-.035V4.358ZM15.837,2.609l-1.4.067q-.177-.255-.343-.52h1.748ZM15.384,3.9l.452-.043v.533Q15.6,4.147,15.384,3.9Zm1.109,1.126h.94l-.374.487Q16.768,5.272,16.493,5.023Zm.875.734.564-.734h.736l-.757,1.136Q17.634,5.963,17.368,5.757Zm.869.627.907-1.361H19.8L18.883,6.8Q18.557,6.6,18.237,6.384Zm15.207.423-.919-1.784H33.2L34.1,6.4l-.014.009Q33.767,6.616,33.444,6.807Zm.982-.63-.751-1.154h.716l.575.748h0Q34.7,5.986,34.426,6.177Zm3.442-3.5-1.452-.069V2.157h1.8Q38.045,2.424,37.868,2.679ZM23,.893a1.529,1.529,0,0,1,.255.868H13.85a14.546,14.546,0,0,1-.7-1.352h8.537A1.806,1.806,0,0,1,23,.893ZM1.3,1.761A.22.22,0,0,1,1.1,1.7L.429.612C.384.493.393.426.4.411S.463.386.561.405A.185.185,0,0,0,.6.409H12.722a15.05,15.05,0,0,0,.672,1.352ZM2.9,3.229a.206.206,0,0,0-.054.01c-.136.045-.163-.008-.179-.041L2.65,3.177l-.679-1.02H13.624q.167.276.345.542h0ZM4.257,4.554a2.429,2.429,0,0,1-.271-.1l-.428-.856,10.675-.512h0q.179.25.368.491h0Zm1.034.3,9.61-.911h0q.12.142.243.282h0L8.506,5.737ZM9.313,5.96l6.141-1.4h0q.114.12.23.238h0L11.465,6.551Zm2.773.762L15.992,5.1h0q.181.172.369.338h0L13.637,7.149Zm1.8.738,2.791-1.754q.281.235.576.459h0L14.384,8.349Zm.941,1.3a.631.631,0,0,1-.2-.092l2.96-2.254h0q.181.13.366.256l.225.152L16.1,9.086Zm1.708.441,1.977-2.164h0q.357.223.722.423h0l-1.422,2.07Zm1.684.435,1.366-1.989h0q.4.208.817.388h0l-.85,1.945Zm3.176.82-1.456-.376.827-1.892h0q.483.2.977.353h0Zm.384.1.345-1.9h0q.551.159,1.116.273v2ZM25.474,9.2l-1.839,1.557V9a14.623,14.623,0,0,0,1.839.2Zm1.375,0h0A14.661,14.661,0,0,0,28.687,9v1.757Zm2.234,1.729v-2q.565-.115,1.115-.274h0l.346,1.9Zm1.845-.477-.349-1.917h0q.491-.158.976-.353h0l.827,1.894Zm1.844-.476-.85-1.947q.386-.168.768-.36h0L34.1,9.635Zm1.738-.449L33.044,7.487h0q.39-.209.773-.442L35.788,9.2ZM37.5,8.757l-1.273.329L34.157,6.832h0l.144-.093q.232-.15.459-.314L37.7,8.665A.637.637,0,0,1,37.5,8.757Zm.443-.409-2.85-2.171q.283-.22.565-.468l2.785,1.75Zm.747-1.2L35.958,5.434q.191-.178.385-.371h0l3.9,1.657Zm2.173-.6L36.64,4.76h0l.184-.2,6.21,1.388Zm2.989-.822-6.716-1.5q.123-.138.249-.283h0l9.649.909Zm4.489-1.28a2.436,2.436,0,0,1-.271.1L37.69,3.576q.193-.24.376-.492h0l10.7.51Zm1.335-1.272a.2.2,0,0,0-.012.021c-.016.032-.043.086-.179.041a.2.2,0,0,0-.056-.01L38.332,2.7h0q.177-.265.343-.544H50.352ZM51.894.612,51.217,1.7a.221.221,0,0,1-.194.066H38.9q.353-.639.659-1.352h12.16a.185.185,0,0,0,.039,0c.1-.02.148,0,.156.006S51.938.493,51.894.612Z" transform="translate(0 0)" fill="#cacee6"/><path d="M279.071,46.666l-.28.666h.6Z" transform="translate(-261.764 -43.816)" fill="#cacee6"/><path d="M350.666,43.474a.755.755,0,0,0,.14-.526,1,1,0,0,0-.14-.6.7.7,0,0,0-1.122,0,1.214,1.214,0,0,0-.175.631.827.827,0,0,0,.21.6.7.7,0,0,0,1.086-.105Z" transform="translate(-328.033 -39.502)" fill="#cacee6"/><path d="M473.02,46.666l-.28.666h.561Z" transform="translate(-443.868 -43.816)" fill="#cacee6"/><path d="M500.665,43.217h-.386v.737l.351-.035a1.692,1.692,0,0,0,.245-.1l.105-.246A.323.323,0,0,0,500.665,43.217Z" transform="translate(-469.726 -40.578)" fill="#cacee6"/></g></svg>