<svg xmlns="http://www.w3.org/2000/svg" width="35.153" height="35.153" viewBox="0 0 35.153 35.153"><g transform="translate(0)"><g transform="translate(0 0)"><path d="M32.509,8.79H2.076a17.566,17.566,0,0,1,30.433,0Z" transform="translate(0.284)" fill="#e70013"/><path d="M32.506,23.195a17.566,17.566,0,0,1-30.43,0Z" transform="translate(0.284 3.171)" fill="#239e46"/><path d="M35.153,16.519a17.439,17.439,0,0,1-2.363,8.79H2.36a17.543,17.543,0,0,1,0-17.576H32.793A17.457,17.457,0,0,1,35.153,16.519Z" transform="translate(0 1.057)"/><g transform="translate(11.327 13.154)"><path d="M15.275,19.81a3.813,3.813,0,1,1,2.4-6.778,4.427,4.427,0,1,0,0,5.926A3.8,3.8,0,0,1,15.275,19.81Z" transform="translate(-9.965 -11.572)" fill="#fff"/><path d="M18.021,12.734l1.392,1.917,2.257-.73-1.4,1.917,1.393,1.917-2.253-.734-1.4,1.917,0-2.371-2.257-.734,2.257-.73Z" transform="translate(-9.172 -11.413)" fill="#fff"/></g></g></g></svg>