<svg xmlns="http://www.w3.org/2000/svg" width="35.153" height="35.153" viewBox="0 0 35.153 35.153"><g transform="translate(0)"><g transform="translate(0 0)"><path d="M35.153,17.576H0c0-.118,0-.236,0-.355a.14.14,0,0,1,0-.043.117.117,0,0,1,0-.04c0-.355.024-.71.056-1.057,0-.016,0-.032,0-.048s0-.032,0-.047c.013-.119.024-.238.036-.351,0-.016,0-.032.008-.048v0a.21.21,0,0,1,0-.044A17.463,17.463,0,0,1,2.352,8.79a16.842,16.842,0,0,1,1.506-2.2,17.568,17.568,0,0,1,27.436,0A17.076,17.076,0,0,1,32.8,8.79a17.436,17.436,0,0,1,1.894,4.789l.011.048.013.048c.091.4.166.808.233,1.219a.185.185,0,0,0,0,.043.392.392,0,0,1,.008.044,17.677,17.677,0,0,1,.182,2.157.155.155,0,0,1,0,.04.185.185,0,0,1,0,.043C35.149,17.34,35.153,17.458,35.153,17.576Z" fill="#042b7d"/><path d="M35.153,15.462c0,.088,0,.174,0,.26v.115a.058.058,0,0,1,0,.024.182.182,0,0,1,0,.043,16.7,16.7,0,0,1-.171,2.047c-.007.075-.019.147-.031.222-.036.221-.072.446-.118.663,0,.035-.013.067-.02.1v0a1,1,0,0,1-.019.1,17.577,17.577,0,0,1-30.928,7.4A17.5,17.5,0,0,1,.414,19.258a.473.473,0,0,1-.023-.1c-.008-.032-.016-.067-.024-.1a17.408,17.408,0,0,1-.289-1.948c-.008-.059-.011-.115-.015-.174h0c-.032-.34-.051-.687-.056-1.03a.137.137,0,0,1,0-.043.14.14,0,0,1,0-.043c0-.083,0-.166,0-.252a.144.144,0,0,1,0-.04v-.064Z" transform="translate(0 2.114)" fill="#cd1225"/><g transform="translate(7.455 4.418)"><path d="M11.339,6.483H12.4a.554.554,0,0,1-.532.394A.56.56,0,0,1,11.339,6.483Z" transform="translate(-5.905 -3.532)" fill="#fed742"/><path d="M12.3,6.192h-.332V5.879A.553.553,0,0,1,12.3,6.192Z" transform="translate(-5.819 -3.615)" fill="#fed742"/><path d="M11.688,5.879v.313h-.332A.553.553,0,0,1,11.688,5.879Z" transform="translate(-5.902 -3.615)" fill="#fed742"/><path d="M12.431,6.408a.732.732,0,0,1-.008.091h-1.1a.56.56,0,0,1-.009-.091.579.579,0,0,1,.02-.142h.39a.035.035,0,0,0,.035-.035V5.863a.507.507,0,0,1,.111-.011.5.5,0,0,1,.11.011v.367a.035.035,0,0,0,.035.035h.391A.579.579,0,0,1,12.431,6.408Z" transform="translate(-5.908 -3.618)" fill="#fed742"/><path d="M11.842,5.314l.28.508-.051.08a.629.629,0,0,0-.458,0l-.051-.083Z" transform="translate(-5.874 -3.692)" fill="#fed742"/><path d="M12.792,5.086l-.4.241-.339-.241.339-.241Z" transform="translate(-5.807 -3.756)" fill="#fed742"/><path d="M11.841,3.984l.281.5-.281.43-.28-.43Z" transform="translate(-5.874 -3.874)" fill="#fed742"/><circle cx="0.185" cy="0.185" r="0.185" transform="translate(5.781 1.144)" fill="#fed742"/><path d="M18.479,10.724a1.424,1.424,0,0,0-1.073-.343.118.118,0,0,0,.011-.024,2.737,2.737,0,0,0,.131-.307.341.341,0,0,0,.682-.02.332.332,0,0,0-.161-.288.345.345,0,0,0,.3-.34.34.34,0,0,0-.248-.327.341.341,0,0,0-.1-.666.336.336,0,0,0,.134-.268.342.342,0,0,0-.339-.343.312.312,0,0,0-.126.024.347.347,0,0,0,.086-.225.343.343,0,0,0-.343-.343.364.364,0,0,0-.228.086.249.249,0,0,0,.019-.1.343.343,0,0,0-.343-.34.352.352,0,0,0-.272.134.341.341,0,0,0-.339-.323.347.347,0,0,0-.308.185.337.337,0,0,0-.329-.252.347.347,0,0,0-.315.213.336.336,0,0,0-.3-.173.344.344,0,0,0-.34.3.335.335,0,0,0-.3-.177.341.341,0,0,0-.339.323.342.342,0,0,0-.639.166c0,.008,0,.019,0,.027a.341.341,0,0,0-.324-.232.484.484,0,0,0-.106.015.613.613,0,0,0,.165-.422.625.625,0,0,0-.031-.189v0a.638.638,0,0,0-.3-.359l.059-.086a.034.034,0,0,0,0-.035l-.3-.537a.26.26,0,0,0,.193-.186l.351.249a.027.027,0,0,0,.019,0l.017,0,.468-.284.013-.008V5.228l0,0V5.212l0-.007V5.2l-.008,0,0,0-.468-.284a.027.027,0,0,0-.036,0l-.351.244a.247.247,0,0,0-.189-.181l.291-.45a.033.033,0,0,0,0-.035l-.324-.58v0l-.008,0,0,0h0v0h-.007l-.008,0-.008,0h0l0,0h0l0,0,0,0,0,0-.319.58a.029.029,0,0,0,0,.035l.292.45a.244.244,0,0,0-.186.181l-.355-.244a.025.025,0,0,0-.035,0l-.469.284-.008,0,0,0v0l0,0v.023l0,0v0l.013.008.469.284.016,0c.008,0,.016,0,.019,0l.355-.249a.255.255,0,0,0,.19.186l-.3.537a.029.029,0,0,0,0,.035l.055.086a.653.653,0,0,0-.3.359v0a.612.612,0,0,0,.135.61.538.538,0,0,0-.107-.015.341.341,0,0,0-.324.232V7.288A.34.34,0,0,0,11,7.122a.34.34,0,0,0-.339-.323.345.345,0,0,0-.3.177.339.339,0,0,0-.632-.123.342.342,0,0,0-.647.04.336.336,0,0,0-.3-.185.341.341,0,0,0-.34.323A.352.352,0,0,0,8.162,6.9a.346.346,0,0,0-.343.34.269.269,0,0,0,.019.1.364.364,0,0,0-.228-.086.339.339,0,0,0-.339.343.344.344,0,0,0,.082.225A.314.314,0,0,0,7.231,7.8a.343.343,0,0,0-.343.343.336.336,0,0,0,.134.268.341.341,0,0,0-.094.666.341.341,0,0,0-.249.327.345.345,0,0,0,.3.34.332.332,0,0,0-.161.288.341.341,0,0,0,.682.02,2.737,2.737,0,0,0,.131.307.247.247,0,0,0,.011.024,1.42,1.42,0,0,0-1.072.343.033.033,0,0,0-.013.027c0,.008,0,.016.008.024a4.325,4.325,0,0,1,.754,1.381c.023.067.051.142.083.228a4.14,4.14,0,0,0,.61,1.279.964.964,0,0,0,.442.316,14.185,14.185,0,0,0,4.068.425,14.165,14.165,0,0,0,4.067-.425.942.942,0,0,0,.442-.316,4.144,4.144,0,0,0,.612-1.279c.031-.086.059-.161.083-.228a4.321,4.321,0,0,1,.753-1.381c.008-.008.013-.016.008-.024A.035.035,0,0,0,18.479,10.724ZM13.144,4.981l.4.236-.4.241-.339-.241Zm-1.238.477-.4-.241.4-.236.339.236Zm5.452,4.861a1.429,1.429,0,0,1-.521.169,2.037,2.037,0,0,0,.241-.442,3.281,3.281,0,0,0,.153-.5,2.914,2.914,0,0,0,.059-.525,1.251,1.251,0,0,0-.217-.8.444.444,0,0,0-.051-.063,1.556,1.556,0,0,0-.248-.217,1.524,1.524,0,0,0-.3-.166,1.359,1.359,0,0,0-.244-.086l-.055-.013a2.294,2.294,0,0,0-.6-.047c-.091,0-.19.008-.3.023l-.1.013a.576.576,0,0,0-.086.016H15.07a.681.681,0,0,0-.094.016,2.651,2.651,0,0,0-.3.059c-.107.023-.214.047-.3.07l-.293.075-.3.072c-.086.019-.189.043-.292.063-.011,0-.023,0-.031,0-.111.019-.209.039-.308.055-.115.016-.233.035-.351.048a.555.555,0,0,1-.078.008.246.246,0,0,0,.007-.311.373.373,0,0,0,.072,0c.13,0,.249-.016.355-.027s.23-.028.348-.051c.055-.008.106-.02.161-.032l.134-.032c.1-.024.2-.048.3-.075l.3-.07c.094-.024.193-.043.292-.067a3.456,3.456,0,0,1,1.72-.008,1.632,1.632,0,0,1,1.022.789A2.3,2.3,0,0,1,17.358,10.319Zm-1.069.177a.578.578,0,0,0,.319.086,1.475,1.475,0,0,0,.236-.024c.051-.008.1-.019.158-.031a1.971,1.971,0,0,0-.659.666,2.012,2.012,0,0,0-.146-.773h0A.421.421,0,0,0,16.289,10.5Zm-.091-.177V7.754l.008,0a1.08,1.08,0,0,1,.217.072v2.654a.355.355,0,0,1-.1-.047A.579.579,0,0,1,16.2,10.319Zm.292.181V7.86a1.535,1.535,0,0,1,.225.126V10.5A.83.83,0,0,1,16.491,10.5Zm.3-.059v-2.4a1.441,1.441,0,0,1,.185.165c.016.02.027.036.04.051v1.768A2.186,2.186,0,0,1,16.786,10.44Zm.3-.607V8.361a1.33,1.33,0,0,1,.143.659A2.974,2.974,0,0,1,17.082,9.833Zm-.955-2.095v2.5l-.031-.032a.742.742,0,0,0-.08-.078.089.089,0,0,0-.027-.027.441.441,0,0,0-.086-.08V7.7A1.677,1.677,0,0,1,16.127,7.738Zm-.3-.04V9.975a.643.643,0,0,0-.224-.08V7.7C15.686,7.7,15.756,7.7,15.831,7.7Zm-.3,0V9.884h-.1a1.175,1.175,0,0,0-.126.008V7.714C15.394,7.706,15.469,7.7,15.536,7.7Zm-.292.024V9.9a2.064,2.064,0,0,0-.225.035V7.77c.032-.013.056-.02.067-.024l.091-.013Zm-4.892,2.363a3.439,3.439,0,0,0,.6.115h0c.04,0,.075,0,.11,0a.729.729,0,0,0,.193-.035l.008,0a.707.707,0,0,0,.363-.319c-.035.147-.075.281-.114.407a1.433,1.433,0,0,0-.34.789c-.043-.064-.107-.134-.189-.23a.623.623,0,0,1-.06-.067,4.161,4.161,0,0,0-.382-.414,2.343,2.343,0,0,0-.442-.308C10.182,10.042,10.268,10.062,10.351,10.086ZM10.1,9.951V7.793c.059.02.138.051.224.088v2.126C10.252,9.987,10.177,9.967,10.1,9.951Zm1.468-1.314h0a1.636,1.636,0,0,0-.292-.308h0c-.008-.008-.013-.016-.024-.019a2.88,2.88,0,0,0-.576-.351c-.094-.048-.192-.091-.28-.13l.256.063.3.075c.1.024.2.051.3.072s.19.043.3.063a.087.087,0,0,0,.032.008c.1.019.19.035.276.048a8.8,8.8,0,0,1-.075.9A1.29,1.29,0,0,0,11.571,8.637Zm.15.765a1.51,1.51,0,0,1-.142.388V8.776A.916.916,0,0,1,11.721,9.4Zm-.214-.73V9.9a.641.641,0,0,1-.225.185V8.428A2.062,2.062,0,0,1,11.507,8.673Zm-.3-.3v1.74a.446.446,0,0,1-.155.024h-.07V8.211a2.3,2.3,0,0,1,.217.155Zm-.292-.2v1.961a2.064,2.064,0,0,1-.225-.035V8.045C10.769,8.085,10.845,8.125,10.92,8.168Zm-.3-.153v2.063c-.075-.016-.15-.035-.225-.056V7.911C10.466,7.939,10.544,7.975,10.624,8.014Zm1.159,1.408,0-.008V9.4a.039.039,0,0,0,0-.019,9.864,9.864,0,0,0,.123-1.212c.09.011.185.027.28.04a8.461,8.461,0,0,1-.241,1.744,1.226,1.226,0,0,0-.311.174.119.119,0,0,1-.024.019A5.549,5.549,0,0,0,11.783,9.423Zm.482-1.207.13.011a.275.275,0,0,0-.134.233.264.264,0,0,0,.182.249.3.3,0,0,0-.217.283.294.294,0,0,0,.153.257.364.364,0,0,0-.063.631,1.439,1.439,0,0,0-.284.048A8.519,8.519,0,0,0,12.265,8.216Zm.489-.829a.294.294,0,0,0-.1-.1.509.509,0,0,0,.153-.056A.433.433,0,0,0,12.754,7.387ZM13,7.754l-.194.011c-.042,0-.09,0-.134,0l-.026-.016a.264.264,0,0,0,.138-.185A.352.352,0,0,0,13,7.754Zm-.284-.233a.193.193,0,0,1-.386,0,.193.193,0,1,1,.386,0ZM12.3,7.387a.361.361,0,0,0-.055-.155.468.468,0,0,0,.153.056A.294.294,0,0,0,12.3,7.387Zm-.031.182a.261.261,0,0,0,.138.185l-.027.016c-.043,0-.091,0-.134,0l-.193-.011A.358.358,0,0,0,12.265,7.569Zm.134.272c.043,0,.082,0,.126,0h0c.043,0,.083,0,.126,0a.2.2,0,0,1,.067.15.185.185,0,0,1-.1.169.6.6,0,0,1-.09.008.614.614,0,0,1-.091-.008.186.186,0,0,1-.1-.169A.182.182,0,0,1,12.4,7.841Zm-.067.62a.193.193,0,1,1,.193.193A.195.195,0,0,1,12.332,8.46Zm.417.532a.225.225,0,1,1-.449,0,.225.225,0,1,1,.449,0Zm-.521.592a.3.3,0,0,1,.3-.3.294.294,0,0,1,.291.3.291.291,0,0,1-.291.292A.3.3,0,0,1,12.229,9.584Zm.659,0a.364.364,0,0,0-.217-.335.291.291,0,0,0,.15-.257.3.3,0,0,0-.213-.283.262.262,0,0,0,.047-.482l.131-.011a8.762,8.762,0,0,0,.232,1.712,1.442,1.442,0,0,0-.283-.048A.365.365,0,0,0,12.888,9.584Zm-.032-1.377c.094-.013.186-.028.284-.04a8.934,8.934,0,0,0,.118,1.212l0,.015v.024a6.022,6.022,0,0,0,.169.726.119.119,0,0,1-.024-.019,1.226,1.226,0,0,0-.311-.174A8.54,8.54,0,0,1,12.857,8.208Zm1.523-.249h0a3.014,3.014,0,0,0-.576.351.089.089,0,0,0-.024.019,1.556,1.556,0,0,0-.3.308v0a1.237,1.237,0,0,0-.2.41c-.044-.343-.064-.664-.072-.9.086-.013.177-.028.276-.048a.087.087,0,0,0,.032-.008c.106-.019.209-.043.3-.063s.2-.048.3-.072l.3-.075c.067-.016.158-.04.257-.063C14.568,7.868,14.474,7.911,14.38,7.959Zm.272-.048v2.111c-.075.02-.149.04-.225.056V8.014C14.506,7.975,14.581,7.939,14.651,7.911Zm-.3.134v2.048a2.117,2.117,0,0,1-.221.035V8.168C14.21,8.125,14.285,8.085,14.356,8.045Zm-.292.166v1.922H13.99a.478.478,0,0,1-.151-.024V8.369l.008,0A2.3,2.3,0,0,1,14.064,8.211Zm-.3.217v1.653a.641.641,0,0,1-.225-.185V8.673A2.164,2.164,0,0,1,13.768,8.428Zm-.438.971a.933.933,0,0,1,.142-.623V9.79a1.507,1.507,0,0,1-.139-.388v0Zm.094.446a.69.69,0,0,0,.363.319l.008,0a.73.73,0,0,0,.194.035c.034,0,.07,0,.106,0h0a3.4,3.4,0,0,0,.6-.115c.083-.024.169-.043.252-.064a2.38,2.38,0,0,0-.442.308,4.3,4.3,0,0,0-.382.414.729.729,0,0,1-.059.067,2.807,2.807,0,0,0-.19.23,1.432,1.432,0,0,0-.339-.789C13.5,10.125,13.46,9.991,13.425,9.845Zm1.3.161V7.88c.086-.036.166-.067.225-.088V9.951C14.873,9.967,14.8,9.987,14.723,10.006Zm1.629-2.627a.336.336,0,0,0,.2-.126.332.332,0,0,0,.094.225c-.067-.028-.138-.051-.213-.075Zm.821.426a1.785,1.785,0,0,0-.316-.23.07.07,0,0,0,.032,0,.348.348,0,0,0,.23-.086.3.3,0,0,0-.016.1A.353.353,0,0,0,17.173,7.805Zm.311.394a1.354,1.354,0,0,0-.24-.327.308.308,0,0,0,.2.063.337.337,0,0,0,.126-.024.336.336,0,0,0-.086.23C17.481,8.16,17.484,8.179,17.484,8.2Zm.217.674a.355.355,0,0,0,.225.206.327.327,0,0,0-.209.193A2.143,2.143,0,0,0,17.7,8.874Zm.15.817a.355.355,0,0,0-.228.126,2.39,2.39,0,0,0,.075-.343A.336.336,0,0,0,17.851,9.691Zm-.174-.955a1.822,1.822,0,0,0-.114-.375.336.336,0,0,0,.248.118A.336.336,0,0,0,17.677,8.736Zm.482,1.294a.27.27,0,0,1-.268.273.271.271,0,1,1,0-.541A.269.269,0,0,1,18.159,10.03ZM18.3,9.4a.27.27,0,0,1-.273.268A.266.266,0,0,1,17.76,9.4a.269.269,0,0,1,.268-.272A.273.273,0,0,1,18.3,9.4Zm-.011-.655a.274.274,0,0,1-.273.273.271.271,0,0,1,0-.541A.273.273,0,0,1,18.29,8.748Zm-.466-.88a.271.271,0,1,1-.273.273A.273.273,0,0,1,17.824,7.868Zm-.383-.544a.274.274,0,0,1,.273.273.272.272,0,0,1-.544,0A.273.273,0,0,1,17.441,7.323Zm-.552-.355a.27.27,0,0,1,0,.54.27.27,0,1,1,0-.54Zm-.61-.193a.272.272,0,1,1-.273.272A.272.272,0,0,1,16.278,6.775Zm-.2.548a2.507,2.507,0,0,0-.3-.027.353.353,0,0,0,.169-.161A.305.305,0,0,0,16.076,7.323Zm-.434-.612a.271.271,0,1,1-.268.268A.269.269,0,0,1,15.641,6.712Zm-.3.439A.357.357,0,0,0,15.5,7.3c-.107,0-.209.016-.311.027A.365.365,0,0,0,15.346,7.151Zm-.315-.4a.269.269,0,0,1,.272.268.272.272,0,1,1-.544,0A.27.27,0,0,1,15.031,6.752Zm-.3.434a.336.336,0,0,0,.228.169c-.094.016-.19.035-.28.056-.04.008-.08.019-.123.027A.344.344,0,0,0,14.731,7.186Zm-.34-.319a.272.272,0,1,1-.268.272A.269.269,0,0,1,14.391,6.866Zm-.3.441a.337.337,0,0,0,.28.171l-.284.07c-.063.016-.122.032-.185.043A.323.323,0,0,0,14.1,7.307Zm-.34-.291a.272.272,0,1,1-.268.272A.27.27,0,0,1,13.756,7.016Zm-.323.406V7.4a.346.346,0,0,0,.323.233l-.094.024c-.051.011-.106.024-.158.032-.086.016-.169.027-.248.039A.347.347,0,0,0,13.433,7.422Zm-.34-.268a.27.27,0,0,1,.273.268.272.272,0,1,1-.544,0A.269.269,0,0,1,13.093,7.154Zm-.055-.69h-.332V6.151A.553.553,0,0,1,13.038,6.464ZM12.245,4.5,12.526,4l.28.506-.28.43Zm.094.714a.186.186,0,1,1,.186.185A.186.186,0,0,1,12.339,5.217Zm.186.292.28.508-.051.08a.573.573,0,0,0-.458,0l-.051-.08Zm-.182.642v.313h-.332A.566.566,0,0,1,12.344,6.151Zm-.375.525a.613.613,0,0,1,.02-.142h.39a.035.035,0,0,0,.035-.035V6.132a.507.507,0,0,1,.111-.011.5.5,0,0,1,.11.011V6.5a.035.035,0,0,0,.035.035h.391a.611.611,0,0,1,.019.142.732.732,0,0,1-.008.091h-1.1A.56.56,0,0,1,11.969,6.677Zm.024.161h1.065a.554.554,0,0,1-.532.394A.56.56,0,0,1,11.993,6.838Zm-.035.316a.266.266,0,0,1,.268.268.27.27,0,0,1-.268.273.274.274,0,0,1-.273-.273A.27.27,0,0,1,11.957,7.154Zm-.34.244v.024a.347.347,0,0,0,.177.3c-.078-.011-.161-.023-.248-.039-.051-.008-.107-.02-.155-.032l-.1-.024A.344.344,0,0,0,11.617,7.4Zm-.323-.382a.272.272,0,1,1-.273.272A.272.272,0,0,1,11.295,7.016Zm-.15.575c-.064-.011-.123-.027-.185-.043l-.284-.07a.336.336,0,0,0,.28-.171A.331.331,0,0,0,11.145,7.592Zm-.485-.725a.272.272,0,1,1-.273.272A.272.272,0,0,1,10.659,6.866Zm-.166.572c-.04-.008-.083-.019-.126-.027-.086-.02-.182-.04-.276-.056a.338.338,0,0,0,.23-.169A.333.333,0,0,0,10.493,7.438Zm-.473-.687a.269.269,0,0,1,.272.268.273.273,0,0,1-.272.273.27.27,0,0,1-.268-.273A.266.266,0,0,1,10.02,6.752Zm-.163.572c-.1-.011-.208-.024-.315-.027A.348.348,0,0,0,9.7,7.151.365.365,0,0,0,9.858,7.323Zm-.449-.612a.271.271,0,0,1,0,.541.271.271,0,1,1,0-.541Zm-.3.423a.328.328,0,0,0,.171.161,2.433,2.433,0,0,0-.3.027A.341.341,0,0,0,9.1,7.135Zm-.331-.359a.272.272,0,1,1-.273.272A.272.272,0,0,1,8.773,6.775ZM8.5,7.253a.339.339,0,0,0,.2.126L8.615,7.4c-.07.024-.142.047-.209.075A.349.349,0,0,0,8.5,7.253Zm-.339-.284a.27.27,0,1,1-.273.268A.272.272,0,0,1,8.162,6.969Zm-.228.525a.346.346,0,0,0,.228.086.07.07,0,0,0,.032,0,1.785,1.785,0,0,0-.316.23.353.353,0,0,0,.07-.209A.3.3,0,0,0,7.933,7.494Zm-.6.1a.272.272,0,1,1,.543,0,.272.272,0,0,1-.543,0Zm.146.315a.341.341,0,0,0,.126.024.323.323,0,0,0,.2-.063,1.513,1.513,0,0,0-.246.327.155.155,0,0,0,.008-.059A.33.33,0,0,0,7.483,7.911Zm-.525.23a.274.274,0,0,1,.273-.273.271.271,0,0,1,0,.541A.273.273,0,0,1,6.958,8.141Zm.375,1.132a.327.327,0,0,0-.209-.193.355.355,0,0,0,.225-.206A1.964,1.964,0,0,0,7.333,9.273Zm.019.2a3.216,3.216,0,0,0,.072.343A.339.339,0,0,0,7.2,9.691.336.336,0,0,0,7.353,9.474Zm-.114-.995a.334.334,0,0,0,.248-.118,2.153,2.153,0,0,0-.114.375A.347.347,0,0,0,7.239,8.479Zm-.477.268a.272.272,0,1,1,.272.273A.272.272,0,0,1,6.761,8.748ZM6.749,9.4a.273.273,0,0,1,.273-.272A.269.269,0,0,1,7.29,9.4a.266.266,0,0,1-.268.268A.27.27,0,0,1,6.749,9.4Zm.415.9a.271.271,0,1,1,.268-.273A.274.274,0,0,1,7.164,10.3Zm.449-2.044A1.635,1.635,0,0,1,8.635,7.47a3.459,3.459,0,0,1,1.721.008c.1.024.2.043.291.067l.3.07c.1.027.2.051.3.075l.134.032c.056.011.107.024.161.032.119.023.233.039.343.051s.23.024.359.027a.379.379,0,0,0,.072,0,.252.252,0,0,0-.048.153.244.244,0,0,0,.056.158.662.662,0,0,1-.083-.008c-.115-.013-.233-.032-.351-.048-.094-.016-.193-.035-.3-.055-.008,0-.02,0-.032,0-.1-.019-.206-.043-.292-.063l-.3-.072-.292-.075c-.083-.024-.189-.048-.3-.07a2.665,2.665,0,0,0-.3-.059.7.7,0,0,0-.091-.016H9.969a.52.52,0,0,0-.088-.016l-.107-.013a2.869,2.869,0,0,0-.3-.023,2.4,2.4,0,0,0-.3,0,2.363,2.363,0,0,0-.3.043l-.056.013a1.359,1.359,0,0,0-.244.086,1.376,1.376,0,0,0-.3.166,1.452,1.452,0,0,0-.252.217l-.051.063a1.286,1.286,0,0,0-.217.8,2.977,2.977,0,0,0,.213,1.022,2.194,2.194,0,0,0,.241.442c-.063-.013-.131-.024-.2-.04h0a1.079,1.079,0,0,1-.319-.13A2.3,2.3,0,0,1,7.613,8.259Zm2.419-.489V9.935A2.043,2.043,0,0,0,9.808,9.9V7.722l.066.011.091.013ZM9.74,7.714V9.892a1.233,1.233,0,0,0-.126-.008h-.1V7.7C9.582,7.7,9.657,7.706,9.74,7.714Zm-.3-.019V9.9a.649.649,0,0,0-.225.08V7.7C9.294,7.7,9.365,7.7,9.444,7.7Zm-.3.008v2.319a.417.417,0,0,0-.088.08.206.206,0,0,0-.027.027c-.027.024-.055.051-.083.078a.176.176,0,0,1-.027.032v-2.5A1.666,1.666,0,0,1,9.149,7.7Zm-.707,2.879a.568.568,0,0,0,.319-.086.421.421,0,0,0,.091-.075h0a2.1,2.1,0,0,0-.146.773,2,2,0,0,0-.659-.666c.056.011.107.023.158.031A1.424,1.424,0,0,0,8.441,10.582Zm-.177-.142a2.251,2.251,0,0,1-.225-.418V8.254c.013-.015.024-.031.04-.051a1.521,1.521,0,0,1,.185-.165Zm.072.064V7.986A1.522,1.522,0,0,1,8.56,7.86V10.5A.82.82,0,0,1,8.336,10.5Zm.386-.067a.355.355,0,0,1-.1.047V7.829a1.125,1.125,0,0,1,.214-.072l.011,0v2.564A.534.534,0,0,1,8.722,10.437ZM7.969,8.361V9.833a3.061,3.061,0,0,1-.142-.813A1.315,1.315,0,0,1,7.969,8.361Zm8.6,5.552a14.12,14.12,0,0,1-4.043.425,14.207,14.207,0,0,1-4.048-.425.857.857,0,0,1-.38-.265c.064-.035.139-.07.23-.11a2.979,2.979,0,0,1,.441-.147,4.332,4.332,0,0,1,.616-.11,31.24,31.24,0,0,1,3.141-.13h.209c.248,0,.7,0,1.207.019.039,0,.082,0,.126,0,.083,0,.169,0,.26.008.043,0,.086,0,.13,0l.214.011c.3.016.607.04.88.067.039,0,.075.013.114.016a3.855,3.855,0,0,1,1.057.257c.091.04.166.075.23.11A.847.847,0,0,1,16.569,13.913Zm1.094-1.78c-.024.067-.052.142-.08.23A4.161,4.161,0,0,1,17,13.592c-.063-.035-.138-.07-.228-.11V13.3a.035.035,0,1,0-.07,0v.158a1.458,1.458,0,0,0-.171-.064v-.2a.034.034,0,0,0-.035-.032.035.035,0,0,0-.035.032v.182c-.043-.013-.091-.028-.142-.04v-.2a.035.035,0,0,0-.035-.035.035.035,0,0,0-.035.035v.177c-.06-.011-.123-.027-.194-.039v-.155a.035.035,0,0,0-.035-.035.035.035,0,0,0-.035.035v.142c-.075-.016-.158-.027-.244-.039v-.15a.031.031,0,0,0-.032-.032.035.035,0,0,0-.035.032v.138l-.244-.024v-.134a.036.036,0,0,0-.072,0v.126c-.078,0-.158-.011-.236-.019v-.169a.036.036,0,0,0-.072,0v.166c-.082,0-.161-.013-.244-.016v-.15a.035.035,0,1,0-.07,0v.146l-.193-.011v-.174a.036.036,0,0,0-.072,0v.169c-.075,0-.146,0-.221-.008V12.9a.036.036,0,1,0-.072,0v.2c-.078,0-.157,0-.236-.008v-.2a.035.035,0,1,0-.07,0v.2c-.075,0-.142,0-.217,0V12.9a.035.035,0,0,0-.032-.036.036.036,0,0,0-.035.036v.189c-.08,0-.155,0-.225,0V12.9a.036.036,0,1,0-.072,0v.185c-.1,0-.189,0-.272,0v-.225a.036.036,0,0,0-.072,0v.225h-.382v-.225a.035.035,0,0,0-.035-.035.035.035,0,0,0-.035.035v.225h-.383v-.225a.036.036,0,0,0-.072,0v.225c-.083,0-.174,0-.276,0V12.9a.032.032,0,0,0-.032-.036.036.036,0,0,0-.035.036v.185c-.07,0-.146,0-.225,0V12.9a.035.035,0,0,0-.035-.036.033.033,0,0,0-.032.036v.189c-.07,0-.142,0-.216.008v-.2a.036.036,0,1,0-.072,0v.2c-.075,0-.158.008-.236.008v-.2a.036.036,0,1,0-.072,0v.208c-.075,0-.145,0-.221.008v-.169a.036.036,0,0,0-.072,0v.174l-.192.011v-.146a.036.036,0,0,0-.072,0v.15c-.083,0-.161.011-.244.016v-.166a.036.036,0,0,0-.072,0v.169c-.078.008-.158.016-.236.019v-.126a.035.035,0,0,0-.035-.035.038.038,0,0,0-.035.035v.134l-.246.024v-.138a.035.035,0,0,0-.07,0v.15c-.083.011-.166.023-.244.039v-.142a.033.033,0,0,0-.032-.035A.035.035,0,0,0,9,13.115v.155c-.067.011-.134.027-.193.039v-.177a.036.036,0,0,0-.072,0v.2c-.051.011-.1.027-.142.04v-.182a.035.035,0,0,0-.07,0v.2c-.059.02-.118.04-.169.064V13.3a.036.036,0,0,0-.072,0v.185c-.09.04-.166.075-.228.11a4.189,4.189,0,0,1-.584-1.23c-.027-.088-.056-.163-.078-.23a4.546,4.546,0,0,0-.742-1.377,1.3,1.3,0,0,1,1.07-.288,1.779,1.779,0,0,1,1,.887.036.036,0,0,0,.04.02.042.042,0,0,0,.027-.04,1.693,1.693,0,0,1,.3-1.159.747.747,0,0,1,.525-.225,1.562,1.562,0,0,1,.883.43,3.491,3.491,0,0,1,.375.407.663.663,0,0,0,.063.07c.064.072.23.252.23.3a.028.028,0,0,0,.027.036.037.037,0,0,0,.04-.032,1.776,1.776,0,0,1,.145-.584,1.066,1.066,0,0,1,.311-.4,1.237,1.237,0,0,1,.837-.228h.008a1.233,1.233,0,0,1,.837.228,1.37,1.37,0,0,1,.457.987.036.036,0,0,0,.036.032h0a.036.036,0,0,0,.035-.036c0-.047.166-.232.225-.3a.664.664,0,0,0,.063-.07,3.939,3.939,0,0,1,.375-.407,1.562,1.562,0,0,1,.883-.43.765.765,0,0,1,.525.225,1.711,1.711,0,0,1,.3,1.159.043.043,0,0,0,.028.04.035.035,0,0,0,.039-.02,1.783,1.783,0,0,1,1-.887,1.309,1.309,0,0,1,1.074.288A4.46,4.46,0,0,0,17.663,12.133Z" transform="translate(-6.558 -3.887)"/><path d="M16.681,8.5a.272.272,0,1,1-.268.272A.273.273,0,0,1,16.681,8.5Z" transform="translate(-5.211 -3.256)" fill="#fed742"/><path d="M16.671,7.927a.274.274,0,0,1,.273.273.27.27,0,0,1-.273.268A.266.266,0,0,1,16.4,8.2.27.27,0,0,1,16.671,7.927Z" transform="translate(-5.212 -3.335)" fill="#fed742"/><path d="M16.561,9.055a.271.271,0,1,1-.272.268A.272.272,0,0,1,16.561,9.055Z" transform="translate(-5.228 -3.18)" fill="#fed742"/><path d="M16.5,7.389a.271.271,0,1,1-.268.268A.273.273,0,0,1,16.5,7.389Z" transform="translate(-5.236 -3.408)" fill="#fed742"/><path d="M17.323,9.74a1.783,1.783,0,0,0-1,.887.035.035,0,0,1-.039.02.043.043,0,0,1-.028-.04,1.711,1.711,0,0,0-.3-1.159.765.765,0,0,0-.525-.225,1.562,1.562,0,0,0-.883.43,3.939,3.939,0,0,0-.375.407.664.664,0,0,1-.063.07c-.059.072-.23.257-.225.3a.036.036,0,0,1-.035.036h0a.036.036,0,0,1-.036-.032,1.37,1.37,0,0,0-.457-.987,1.233,1.233,0,0,0-.837-.228h-.008a1.237,1.237,0,0,0-.837.228,1.066,1.066,0,0,0-.311.4,1.776,1.776,0,0,0-.145.584.037.037,0,0,1-.04.032.028.028,0,0,1-.027-.036c0-.051-.166-.232-.23-.3a.663.663,0,0,1-.063-.07,3.491,3.491,0,0,0-.375-.407,1.562,1.562,0,0,0-.883-.43.747.747,0,0,0-.525.225,1.693,1.693,0,0,0-.3,1.159.042.042,0,0,1-.027.04.036.036,0,0,1-.04-.02,1.779,1.779,0,0,0-1-.887,1.3,1.3,0,0,0-1.07.288A4.546,4.546,0,0,1,7.378,11.4c.023.067.051.142.078.23a4.189,4.189,0,0,0,.584,1.23c.063-.035.139-.07.228-.11v-.185a.036.036,0,0,1,.072,0v.158c.051-.024.11-.043.169-.064v-.2a.035.035,0,0,1,.07,0v.182c.043-.013.091-.028.142-.04v-.2a.036.036,0,0,1,.072,0v.177c.059-.011.126-.027.193-.039v-.155a.035.035,0,0,1,.035-.035.033.033,0,0,1,.032.035v.142c.078-.016.161-.027.244-.039v-.15a.035.035,0,0,1,.07,0v.138l.246-.024v-.134a.038.038,0,0,1,.035-.035.035.035,0,0,1,.035.035v.126c.078,0,.158-.011.236-.019v-.169a.036.036,0,0,1,.072,0v.166c.083,0,.161-.013.244-.016v-.15a.036.036,0,0,1,.072,0V12.4l.192-.011v-.174a.036.036,0,0,1,.072,0v.169c.075,0,.145,0,.221-.008V12.17a.036.036,0,1,1,.072,0v.2c.078,0,.161,0,.236-.008v-.2a.036.036,0,1,1,.072,0v.2c.074,0,.146,0,.216-.008V12.17a.033.033,0,0,1,.032-.036.035.035,0,0,1,.035.036v.189c.08,0,.155,0,.225,0V12.17a.036.036,0,0,1,.035-.036.032.032,0,0,1,.032.036v.185c.1,0,.193,0,.276,0v-.225a.036.036,0,0,1,.072,0v.225h.383v-.225a.035.035,0,0,1,.035-.035.035.035,0,0,1,.035.035v.225h.382v-.225a.036.036,0,0,1,.072,0v.225c.083,0,.174,0,.272,0V12.17a.036.036,0,1,1,.072,0v.185c.07,0,.146,0,.225,0V12.17a.036.036,0,0,1,.035-.036.035.035,0,0,1,.032.036v.193c.075,0,.142,0,.217,0v-.2a.035.035,0,1,1,.07,0v.2c.08,0,.158.008.236.008v-.2a.036.036,0,1,1,.072,0v.208c.075,0,.146,0,.221.008v-.169a.036.036,0,0,1,.072,0v.174l.193.011v-.146a.035.035,0,1,1,.07,0v.15c.083,0,.163.011.244.016v-.166a.036.036,0,0,1,.072,0v.169c.078.008.158.016.236.019v-.126a.036.036,0,0,1,.072,0v.134l.244.024v-.138a.035.035,0,0,1,.035-.032.031.031,0,0,1,.032.032v.15c.086.011.169.023.244.039v-.142a.035.035,0,0,1,.035-.035.035.035,0,0,1,.035.035v.155c.072.011.134.027.194.039V12.4a.035.035,0,0,1,.035-.035.035.035,0,0,1,.035.035v.2c.051.011.1.027.142.04v-.182a.035.035,0,0,1,.035-.032.034.034,0,0,1,.035.032v.2a1.458,1.458,0,0,1,.171.064v-.158a.035.035,0,1,1,.07,0v.185c.091.04.166.075.228.11a4.161,4.161,0,0,0,.584-1.23c.027-.088.056-.163.08-.23a4.46,4.46,0,0,1,.746-1.377A1.309,1.309,0,0,0,17.323,9.74Zm-9.132.54a.03.03,0,0,1,.043.019l.094.225a.035.035,0,0,1-.019.048H8.3a.042.042,0,0,1-.036-.019l-.091-.225A.035.035,0,0,1,8.191,10.28Zm-.257-.1a.037.037,0,0,1,.048.016l.09.209a.041.041,0,0,1-.019.047c-.008,0-.011,0-.016,0A.042.042,0,0,1,8,10.43l-.086-.209A.033.033,0,0,1,7.934,10.177Zm-.28-.088a.037.037,0,0,1,.047.016l.134.252a.037.037,0,0,1-.016.048l-.016,0c-.015,0-.027,0-.031-.016l-.131-.257A.035.035,0,0,1,7.655,10.09Zm-.34.225a.028.028,0,0,1-.024.013.029.029,0,0,1-.024-.008l-.2-.171a.036.036,0,0,1,0-.047.033.033,0,0,1,.051,0l.2.171A.031.031,0,0,1,7.315,10.315Zm.228-.016a.025.025,0,0,1-.015,0,.037.037,0,0,1-.032-.016l-.139-.209a.039.039,0,0,1,.013-.051.035.035,0,0,1,.047.011l.139.209A.043.043,0,0,1,7.543,10.3Zm.947,1.63a.327.327,0,0,0-.051-.067,6.1,6.1,0,0,0-.812-.738.285.285,0,0,1-.028-.016l-.016-.016a1.346,1.346,0,0,0,.163.051c.342.083.208-.161.094-.446.34.465.481.363.627.182a1.944,1.944,0,0,0,.063,1.112A.478.478,0,0,0,8.49,11.929Zm1.673-2.264a.036.036,0,0,1,.043.027l.048.264a.033.033,0,0,1-.027.04h-.008a.034.034,0,0,1-.032-.027L10.136,9.7A.032.032,0,0,1,10.163,9.665Zm-.284-.1a.035.035,0,0,1,.043.024l.067.281a.035.035,0,0,1-.024.043H9.959a.04.04,0,0,1-.036-.028l-.067-.275A.039.039,0,0,1,9.879,9.561Zm-.268,0a.039.039,0,0,1,.048.02l.094.26a.032.032,0,0,1-.016.043.033.033,0,0,1-.016,0,.032.032,0,0,1-.031-.023l-.1-.257A.038.038,0,0,1,9.611,9.561Zm-.438,1.086c0,.008-.013.008-.02.008a.032.032,0,0,1-.026-.013l-.182-.2a.032.032,0,0,1,0-.048.033.033,0,0,1,.048,0l.181.206A.036.036,0,0,1,9.173,10.647Zm.11-.281a.035.035,0,0,1-.024.013.036.036,0,0,1-.027-.013l-.2-.221a.036.036,0,0,1,.052-.048l.2.222A.041.041,0,0,1,9.283,10.366Zm.091-.217a.028.028,0,0,1-.02.008.035.035,0,0,1-.027-.015l-.158-.23a.037.037,0,0,1,.013-.047.031.031,0,0,1,.047.008l.158.228A.029.029,0,0,1,9.374,10.149ZM9.469,9.9l-.083-.193a.038.038,0,0,1,.02-.047.036.036,0,0,1,.047.019l.083.193a.042.042,0,0,1-.019.048l-.013,0A.037.037,0,0,1,9.469,9.9Zm.781,1.752A3,3,0,0,0,9.5,10.62c.423.126.343-.115.26-.522.214.388.332.522.546.351A3.277,3.277,0,0,0,10.25,11.656Zm.276-1.562h-.011a.034.034,0,0,1-.035-.024l-.067-.185a.034.034,0,0,1,.019-.043.03.03,0,0,1,.043.019l.072.185A.035.035,0,0,1,10.526,10.094Zm2.534-.482a.035.035,0,0,1,.035-.035.035.035,0,0,1,.035.035V9.83a.036.036,0,0,1-.035.036.035.035,0,0,1-.035-.036ZM12.8,9.5a.036.036,0,0,1,.072,0v.225a.036.036,0,0,1-.072,0Zm-.2-.024a.04.04,0,0,1,.036-.04.039.039,0,0,1,.034.04v.26a.032.032,0,0,1-.034.032.033.033,0,0,1-.036-.032Zm-.244,0a.035.035,0,1,1,.07,0v.26a.035.035,0,0,1-.07,0Zm-.2.024a.035.035,0,0,1,.07,0v.225a.035.035,0,0,1-.07,0Zm-.257.114a.036.036,0,0,1,.072,0V9.83a.036.036,0,1,1-.072,0Zm-.292.825-.016,0a.032.032,0,0,1-.031-.023l-.08-.19a.033.033,0,0,1,.02-.043.037.037,0,0,1,.047.016l.075.189A.037.037,0,0,1,11.607,10.438Zm.118-.273h-.008a.03.03,0,0,1-.031-.027l-.048-.26a.039.039,0,0,1,.032-.04.036.036,0,0,1,.04.032l.043.257A.033.033,0,0,1,11.725,10.165Zm.79,1.6a3.9,3.9,0,0,0-.643-1.511c.544.481.643-.311.643-.311s.1.792.642.311A3.884,3.884,0,0,0,12.515,11.763Zm.832-1.626a.038.038,0,0,1-.035.027H13.3a.031.031,0,0,1-.028-.039l.044-.257a.039.039,0,0,1,.043-.032.036.036,0,0,1,.024.04Zm.2.091-.078.19a.035.035,0,0,1-.032.023l-.011,0a.035.035,0,0,1-.02-.048l.078-.189a.033.033,0,0,1,.044-.016A.03.03,0,0,1,13.548,10.229Zm1-.158a.035.035,0,0,1-.036.024H14.5a.038.038,0,0,1-.019-.048l.067-.185a.034.034,0,0,1,.047-.019.032.032,0,0,1,.02.043Zm.82-.489a.039.039,0,0,1,.048-.02.04.04,0,0,1,.02.048l-.1.257a.034.034,0,0,1-.032.023l-.013,0a.035.035,0,0,1-.023-.043Zm-.264,0a.032.032,0,0,1,.043-.024.033.033,0,0,1,.024.044l-.067.275a.036.036,0,0,1-.035.028h-.008c-.019-.008-.032-.024-.024-.043Zm-.284.107a.036.036,0,0,1,.043-.027.03.03,0,0,1,.027.039l-.051.265c0,.016-.016.027-.035.027h0a.033.033,0,0,1-.028-.04Zm-.043,1.964a3.406,3.406,0,0,0-.056-1.207c.209.171.327.036.541-.351-.083.407-.158.648.26.522A3,3,0,0,0,14.779,11.656Zm.746-1.728-.013,0a.035.035,0,0,1-.019-.048l.083-.193a.035.035,0,0,1,.048-.019.034.034,0,0,1,.019.047L15.56,9.9A.037.037,0,0,1,15.525,9.929Zm.177.214a.03.03,0,0,1-.027.015.03.03,0,0,1-.02-.008.031.031,0,0,1-.011-.047l.158-.228a.033.033,0,1,1,.055.039Zm.067.236a.035.035,0,0,1-.024-.013.032.032,0,0,1,0-.047l.2-.222a.033.033,0,0,1,.048,0,.034.034,0,0,1,0,.048l-.2.221A.036.036,0,0,1,15.77,10.379Zm.316.059-.182.2a.028.028,0,0,1-.024.013c-.011,0-.019,0-.024-.008a.033.033,0,0,1,0-.051l.182-.206a.032.032,0,0,1,.047,0A.033.033,0,0,1,16.086,10.438Zm1.108-.08.134-.252a.037.037,0,0,1,.048-.016.035.035,0,0,1,.011.048l-.131.257a.03.03,0,0,1-.031.016.026.026,0,0,1-.016,0A.037.037,0,0,1,17.194,10.358Zm-.233.044.088-.209a.037.037,0,0,1,.048-.016.033.033,0,0,1,.015.043l-.086.209c-.008.011-.02.024-.032.024s-.008,0-.016,0A.036.036,0,0,1,16.961,10.4Zm-.169-.1a.037.037,0,0,1,.048-.019.035.035,0,0,1,.019.048l-.091.225a.042.042,0,0,1-.035.019H16.72a.035.035,0,0,1-.019-.048Zm.639.809s-.011.008-.019.016l-.078.059a.548.548,0,0,0-.06.047.63.63,0,0,1-.07.056c-.016.011-.027.024-.04.032l-.078.067c-.04.032-.08.07-.123.107-.027.023-.055.047-.083.074a2.7,2.7,0,0,0-.3.3l-.035.047a.374.374,0,0,0-.048.075,1.9,1.9,0,0,0,.059-1.112c.153.181.292.283.631-.182-.114.284-.248.529.1.446a1.566,1.566,0,0,0,.163-.051A.146.146,0,0,0,17.43,11.108Zm.241-1.03-.139.209a.03.03,0,0,1-.027.016.026.026,0,0,1-.019,0,.043.043,0,0,1-.013-.051l.139-.209a.036.036,0,0,1,.047-.011A.039.039,0,0,1,17.671,10.079Zm.091.241a.029.029,0,0,1-.024.008.036.036,0,0,1-.027-.013.035.035,0,0,1,0-.047l.2-.171a.03.03,0,0,1,.048,0,.032.032,0,0,1,0,.047Z" transform="translate(-6.548 -3.158)" fill="#fed742"/><path d="M16.636,9.993a.041.041,0,0,1,0,.051l-.2.171a.029.029,0,0,1-.024.008.043.043,0,0,1-.027-.013.035.035,0,0,1,0-.047l.2-.174A.041.041,0,0,1,16.636,9.993Z" transform="translate(-5.217 -3.054)"/><path d="M16.356,9.934a.034.034,0,0,1,.013.048l-.139.209a.026.026,0,0,1-.027.016.026.026,0,0,1-.019,0,.041.041,0,0,1-.013-.051l.139-.209A.032.032,0,0,1,16.356,9.934Z" transform="translate(-5.245 -3.061)"/><path d="M16.164,6.91a.274.274,0,0,1,.273.273.27.27,0,0,1-.273.268.266.266,0,0,1-.268-.268A.27.27,0,0,1,16.164,6.91Z" transform="translate(-5.282 -3.474)" fill="#fed742"/><path d="M16.695,7.841a2.3,2.3,0,0,1-.08,2.06,1.429,1.429,0,0,1-.521.169,2.194,2.194,0,0,0,.241-.442h0a2.835,2.835,0,0,0,.153-.5,2.914,2.914,0,0,0,.059-.525,1.245,1.245,0,0,0-.217-.8.444.444,0,0,0-.051-.063,1.411,1.411,0,0,0-.252-.217,1.376,1.376,0,0,0-.3-.166,1.686,1.686,0,0,0-.244-.086c-.019,0-.04-.008-.055-.013a2.294,2.294,0,0,0-.6-.047c-.091,0-.19.008-.3.019-.036.008-.072.011-.107.016l-.086.011h0l-.008,0h0a.681.681,0,0,0-.094.016c-.086.015-.182.035-.3.059s-.214.051-.3.07l-.293.075-.3.072c-.086.019-.189.043-.3.063a.161.161,0,0,0-.032.008c-.107.019-.2.035-.3.051-.118.016-.236.035-.351.048a.665.665,0,0,1-.082.008A.263.263,0,0,0,12,7.419a.373.373,0,0,0,.072,0c.13,0,.249-.016.355-.027s.23-.028.348-.051c.055-.008.106-.02.161-.032l.134-.032c.1-.024.2-.048.3-.075s.2-.047.291-.07.2-.043.3-.067a3.455,3.455,0,0,1,1.72-.008A1.632,1.632,0,0,1,16.695,7.841Z" transform="translate(-5.816 -3.469)" fill="#fed742"/><path d="M16.106,9.985a.035.035,0,0,1,.011.048l-.131.257c0,.011-.019.016-.031.016l-.016,0a.037.037,0,0,1-.016-.048L16.059,10A.037.037,0,0,1,16.106,9.985Z" transform="translate(-5.278 -3.054)"/><path d="M15.816,7.82a1.289,1.289,0,0,1,.139.663,2.808,2.808,0,0,1-.139.813Z" transform="translate(-5.293 -3.349)" fill="#fed742"/><path d="M16,10.516c-.13.329-.283.6.268.391a4.856,4.856,0,0,0-.958.907,1.913,1.913,0,0,0,.064-1.112C15.526,10.883,15.664,10.982,16,10.516Z" transform="translate(-5.361 -2.981)"/><path d="M15.85,10.062a.03.03,0,0,1,.019.043l-.086.209a.037.037,0,0,1-.032.019h-.016a.037.037,0,0,1-.016-.047l.088-.209A.033.033,0,0,1,15.85,10.062Z" transform="translate(-5.306 -3.043)"/><path d="M15.679,6.6a.27.27,0,1,1-.272.272A.273.273,0,0,1,15.679,6.6Z" transform="translate(-5.349 -3.516)" fill="#fed742"/><path d="M15.781,7.755V9.527a2.29,2.29,0,0,1-.225.414v-2.4a1.441,1.441,0,0,1,.185.165C15.757,7.724,15.769,7.74,15.781,7.755Z" transform="translate(-5.328 -3.388)" fill="#fed742"/><path d="M15.686,9.773c.051-.008.1-.019.158-.031a1.971,1.971,0,0,0-.659.666,2.078,2.078,0,0,0-.146-.773h0a.551.551,0,0,0,.091.075.578.578,0,0,0,.319.086A1.475,1.475,0,0,0,15.686,9.773Z" transform="translate(-5.399 -3.101)"/><path d="M15.629,10.152a.032.032,0,0,1,.019.043l-.094.23a.032.032,0,0,1-.032.019l-.013,0a.029.029,0,0,1-.019-.043l.091-.225A.037.037,0,0,1,15.629,10.152Z" transform="translate(-5.338 -3.031)"/><path d="M16.537,12.424c.091.04.166.075.23.11a.86.86,0,0,1-.379.265,14.274,14.274,0,0,1-4.048.422A14.258,14.258,0,0,1,8.293,12.8a.857.857,0,0,1-.38-.265c.064-.035.139-.07.23-.11a3.44,3.44,0,0,1,.441-.147,5.511,5.511,0,0,1,.616-.114c1.183-.142,3.12-.126,3.141-.126h0c.019,0,1.956-.016,3.14.126a4.1,4.1,0,0,1,1.057.26Z" transform="translate(-6.373 -2.773)"/><path d="M15.521,7.508v2.518a.83.83,0,0,1-.225,0V7.382A1.813,1.813,0,0,1,15.521,7.508Z" transform="translate(-5.364 -3.409)" fill="#fed742"/><path d="M15.142,6.431a.269.269,0,0,1,.272.268.272.272,0,1,1-.544,0A.269.269,0,0,1,15.142,6.431Z" transform="translate(-5.422 -3.539)" fill="#fed742"/><path d="M15.26,7.364v2.651a.29.29,0,0,1-.091-.043.674.674,0,0,1-.13-.118V7.289l.008,0A1.168,1.168,0,0,1,15.26,7.364Z" transform="translate(-5.399 -3.422)" fill="#fed742"/><path d="M15,7.279v2.5a.177.177,0,0,1-.027-.032l-.083-.082a.146.146,0,0,0-.027-.024.565.565,0,0,0-.086-.08V7.247A1.265,1.265,0,0,1,15,7.279Z" transform="translate(-5.434 -3.428)" fill="#fed742"/><path d="M14.974,10.25a.033.033,0,0,1,0,.048l-.182.2a.028.028,0,0,1-.024.013c-.007,0-.019,0-.024-.008a.036.036,0,0,1,0-.051l.182-.206A.032.032,0,0,1,14.974,10.25Z" transform="translate(-5.44 -3.018)"/><path d="M14.9,9.99a.038.038,0,0,1,0,.051l-.2.221a.036.036,0,0,1-.027.013.021.021,0,0,1-.019-.013.032.032,0,0,1,0-.047l.2-.222A.036.036,0,0,1,14.9,9.99Z" transform="translate(-5.453 -3.054)"/><path d="M14.765,9.789a.036.036,0,0,1,.013.047l-.158.23a.033.033,0,0,1-.027.015.03.03,0,0,1-.02-.008.035.035,0,0,1-.011-.047l.158-.228A.031.031,0,0,1,14.765,9.789Z" transform="translate(-5.465 -3.081)"/><path d="M14.581,6.372a.274.274,0,0,1,.273.273.27.27,0,0,1-.273.268.267.267,0,0,1-.268-.268A.27.27,0,0,1,14.581,6.372Z" transform="translate(-5.498 -3.547)" fill="#fed742"/><path d="M14.743,7.24V9.517a.62.62,0,0,0-.224-.08V7.24C14.6,7.237,14.672,7.237,14.743,7.24Z" transform="translate(-5.47 -3.429)" fill="#fed742"/><path d="M14.559,9.611a.034.034,0,0,1,.019.047l-.083.193a.037.037,0,0,1-.032.024.022.022,0,0,1-.016,0,.036.036,0,0,1-.019-.044l.083-.2A.04.04,0,0,1,14.559,9.611Z" transform="translate(-5.483 -3.105)"/><path d="M14.483,7.24V9.426a.669.669,0,0,0-.1,0h0a1.061,1.061,0,0,0-.123.008V7.256C14.341,7.248,14.416,7.245,14.483,7.24Z" transform="translate(-5.505 -3.429)" fill="#fed742"/><path d="M14.379,9.52a.04.04,0,0,1,.02.048l-.1.257a.034.034,0,0,1-.032.023l-.013,0a.03.03,0,0,1-.019-.043l.094-.26A.039.039,0,0,1,14.379,9.52Z" transform="translate(-5.509 -3.117)"/><path d="M14.292,9.992c-.083.407-.163.648.264.522a2.993,2.993,0,0,0-.749,1.037,3.406,3.406,0,0,0-.056-1.207C13.965,10.514,14.078,10.38,14.292,9.992Z" transform="translate(-5.575 -3.052)"/><path d="M14.226,7.261V9.439A2.064,2.064,0,0,0,14,9.474V7.309c.032-.013.056-.02.067-.024l.091-.013Z" transform="translate(-5.541 -3.426)" fill="#fed742"/><path d="M14.045,6.407a.271.271,0,1,1-.273.268A.272.272,0,0,1,14.045,6.407Z" transform="translate(-5.572 -3.542)" fill="#fed742"/><path d="M14.139,9.52a.033.033,0,0,1,.024.044l-.067.275a.039.039,0,0,1-.035.028h-.008a.039.039,0,0,1-.024-.043l.067-.281A.037.037,0,0,1,14.139,9.52Z" transform="translate(-5.537 -3.117)"/><path d="M13.966,7.323V9.482c-.075.016-.15.035-.225.055V7.411C13.827,7.374,13.907,7.347,13.966,7.323Z" transform="translate(-5.576 -3.417)" fill="#fed742"/><path d="M13.887,9.611a.034.034,0,0,1,.027.039l-.051.265a.03.03,0,0,1-.031.027h-.008A.035.035,0,0,1,13.8,9.9l.048-.264A.036.036,0,0,1,13.887,9.611Z" transform="translate(-5.569 -3.105)"/><path d="M13.873,9.369c.083-.024.169-.043.252-.064a2.38,2.38,0,0,0-.442.308,4.3,4.3,0,0,0-.382.414.729.729,0,0,1-.059.067c-.083.1-.147.171-.19.23a1.432,1.432,0,0,0-.339-.789c-.04-.126-.08-.265-.115-.407a.69.69,0,0,0,.363.319l.008,0a.73.73,0,0,0,.194.035c.034,0,.07,0,.109,0h0A3.4,3.4,0,0,0,13.873,9.369Z" transform="translate(-5.733 -3.17)"/><path d="M13.705,7.424V9.543c-.075.016-.149.035-.225.051V7.526Z" transform="translate(-5.612 -3.403)" fill="#fed742"/><path d="M13.654,9.767a.033.033,0,0,1,.02.043L13.607,10a.038.038,0,0,1-.036.024l-.011,0a.031.031,0,0,1-.019-.043l.067-.185A.034.034,0,0,1,13.654,9.767Z" transform="translate(-5.604 -3.083)"/><path d="M13.481,6.511a.269.269,0,0,1,.273.268.271.271,0,1,1-.541,0A.269.269,0,0,1,13.481,6.511Z" transform="translate(-5.649 -3.528)" fill="#fed742"/><path d="M13.856,7.358c-.083.035-.177.078-.276.126h0A3.144,3.144,0,0,0,13,7.835a.089.089,0,0,0-.024.019h0a1.69,1.69,0,0,0-.3.308l0,0a1.167,1.167,0,0,0-.2.41,8.9,8.9,0,0,1-.075-.9c.086-.013.177-.028.276-.048a.107.107,0,0,0,.032-.008c.1-.019.209-.04.3-.063l.3-.072.3-.075C13.674,7.4,13.765,7.377,13.856,7.358Z" transform="translate(-5.759 -3.412)"/><path d="M13.445,7.545V9.593c-.075.016-.15.027-.221.035V7.668C13.294,7.625,13.369,7.585,13.445,7.545Z" transform="translate(-5.647 -3.387)" fill="#fed742"/><path d="M13.188,7.691V9.613h-.074a.656.656,0,0,1-.151-.024V7.849l.008,0A1.813,1.813,0,0,1,13.188,7.691Z" transform="translate(-5.683 -3.367)" fill="#fed742"/><path d="M12.923,6.643a.27.27,0,0,1,.273.268.272.272,0,1,1-.544,0A.269.269,0,0,1,12.923,6.643Z" transform="translate(-5.725 -3.51)" fill="#fed742"/><path d="M12.928,7.882V9.535A.641.641,0,0,1,12.7,9.35V8.126A1.572,1.572,0,0,1,12.928,7.882Z" transform="translate(-5.718 -3.341)" fill="#fed742"/><path d="M12.715,10.065a.035.035,0,0,1,.019.048l-.078.19a.035.035,0,0,1-.032.023l-.011,0a.035.035,0,0,1-.02-.048l.075-.189A.047.047,0,0,1,12.715,10.065Z" transform="translate(-5.734 -3.042)"/><path d="M12.659,8.188V9.2a1.383,1.383,0,0,1-.139-.388v0h0A.933.933,0,0,1,12.659,8.188Z" transform="translate(-5.745 -3.299)" fill="#fed742"/><path d="M12.675,9.633l-.024-.023a1.114,1.114,0,0,0-.311-.171A8.6,8.6,0,0,1,12.1,7.693c.094-.013.19-.028.281-.04A9.614,9.614,0,0,0,12.5,8.865V8.88a.029.029,0,0,1,0,.02h0v0A6.242,6.242,0,0,0,12.675,9.633Z" transform="translate(-5.801 -3.372)" fill="#fed742"/><path d="M12.56,9.763a.043.043,0,0,1,.032.043l-.043.257a.038.038,0,0,1-.035.027h-.008a.031.031,0,0,1-.028-.039l.044-.257A.035.035,0,0,1,12.56,9.763Z" transform="translate(-5.749 -3.084)"/><path d="M12.34,6.761a.27.27,0,0,1,.273.268.272.272,0,1,1-.544,0A.269.269,0,0,1,12.34,6.761Z" transform="translate(-5.805 -3.494)" fill="#fed742"/><path d="M12.357,9.569v.217a.036.036,0,0,1-.035.036.035.035,0,0,1-.035-.036V9.569a.035.035,0,0,1,.035-.035A.035.035,0,0,1,12.357,9.569Z" transform="translate(-5.775 -3.115)"/><path d="M12.133,9.469v.225a.036.036,0,0,1-.072,0V9.469a.036.036,0,0,1,.072,0Z" transform="translate(-5.806 -3.129)"/><path d="M11.885,9.854s.1.792.642.315a3.842,3.842,0,0,0-.642,1.507,3.857,3.857,0,0,0-.643-1.507C11.786,10.646,11.885,9.854,11.885,9.854Z" transform="translate(-5.918 -3.071)"/><path d="M12.058,7.695a8.762,8.762,0,0,0,.232,1.712,1.168,1.168,0,0,0-.283-.048.358.358,0,0,0,.153-.3.368.368,0,0,0-.217-.335.295.295,0,0,0-.063-.54.265.265,0,0,0,.047-.482Z" transform="translate(-5.831 -3.366)"/><path d="M11.843,8.639a.294.294,0,0,1,.291.3.292.292,0,1,1-.583,0A.294.294,0,0,1,11.843,8.639Z" transform="translate(-5.876 -3.237)" fill="#fed742"/><path d="M11.836,8.181a.225.225,0,0,1,0,.449.225.225,0,1,1,0-.449Z" transform="translate(-5.868 -3.3)" fill="#fed742"/><path d="M11.954,9.445v.264a.034.034,0,0,1-.034.035.036.036,0,0,1-.036-.035V9.445a.035.035,0,0,1,.036-.032A.034.034,0,0,1,11.954,9.445Z" transform="translate(-5.83 -3.131)"/><path d="M11.831,6.91a.2.2,0,1,1,0,.391.2.2,0,0,1,0-.391Z" transform="translate(-5.864 -3.474)" fill="#fed742"/><path d="M11.831,7.736a.2.2,0,1,1,0,.391.2.2,0,0,1,0-.391Z" transform="translate(-5.864 -3.361)" fill="#fed742"/><path d="M11.957,7.365a.2.2,0,0,1,.07.15.188.188,0,0,1-.107.169l-.09.013-.091-.013a.186.186,0,0,1-.1-.169.182.182,0,0,1,.067-.15c.043,0,.082,0,.126,0h0C11.874,7.368,11.914,7.365,11.957,7.365Z" transform="translate(-5.864 -3.411)" fill="#fed742"/><path d="M11.739,9.445v.264a.035.035,0,0,1-.07,0V9.445a.035.035,0,0,1,.07,0Z" transform="translate(-5.86 -3.131)"/><path d="M11.607,7.695l.13.011a.265.265,0,0,0,.048.482.3.3,0,0,0-.214.283.291.291,0,0,0,.15.257.368.368,0,0,0-.217.335.356.356,0,0,0,.155.3,1.168,1.168,0,0,0-.284.048A8.86,8.86,0,0,0,11.607,7.695Z" transform="translate(-5.9 -3.366)"/><path d="M12.136,7.414a.379.379,0,0,0,.072,0,.252.252,0,0,0-.048.153.244.244,0,0,0,.056.158.662.662,0,0,1-.083-.008c-.115-.013-.233-.032-.351-.048l-.3-.051a.087.087,0,0,0-.032-.008c-.1-.019-.206-.043-.292-.063l-.3-.072-.292-.075c-.083-.019-.189-.048-.3-.07s-.209-.044-.3-.059a.654.654,0,0,0-.094-.016h0l-.008,0h0L9.78,7.245c-.035,0-.07-.008-.107-.016-.106-.011-.2-.016-.3-.019a2.4,2.4,0,0,0-.3,0,2.363,2.363,0,0,0-.3.043l-.056.013a1.686,1.686,0,0,0-.244.086,1.376,1.376,0,0,0-.3.166,1.452,1.452,0,0,0-.252.217.542.542,0,0,0-.051.063,1.252,1.252,0,0,0-.217.8,2.9,2.9,0,0,0,.213,1.022,2.194,2.194,0,0,0,.241.442c-.063-.013-.131-.024-.193-.04h0a1.063,1.063,0,0,1-.323-.13,2.3,2.3,0,0,1-.08-2.06,1.635,1.635,0,0,1,1.022-.789,3.46,3.46,0,0,1,1.721.008c.1.024.2.043.291.067l.3.07c.1.027.2.051.3.075l.134.032c.056.011.107.024.161.032.119.023.233.039.348.051S12.006,7.411,12.136,7.414Z" transform="translate(-6.457 -3.469)" fill="#fed742"/><path d="M11.65,5.086l-.339.241-.4-.241.4-.241Z" transform="translate(-5.963 -3.756)" fill="#fed742"/><path d="M11.562,9.469v.225a.035.035,0,0,1-.07,0V9.469a.035.035,0,0,1,.07,0Z" transform="translate(-5.884 -3.129)"/><path d="M11.341,6.761a.269.269,0,0,1,.272.268.272.272,0,1,1-.544,0A.27.27,0,0,1,11.341,6.761Z" transform="translate(-5.942 -3.494)" fill="#fed742"/><path d="M11.585,7.693a8.521,8.521,0,0,1-.241,1.747,1.114,1.114,0,0,0-.311.171l-.024.023a6.3,6.3,0,0,0,.171-.73V8.884a.039.039,0,0,0,0-.019,9.864,9.864,0,0,0,.123-1.212C11.4,7.664,11.491,7.68,11.585,7.693Z" transform="translate(-5.95 -3.372)" fill="#fed742"/><path d="M11.338,9.569v.217a.036.036,0,1,1-.072,0V9.569a.036.036,0,0,1,.072,0Z" transform="translate(-5.915 -3.115)"/><path d="M11.382,7.682c-.008.232-.027.548-.07.9a1.29,1.29,0,0,0-.2-.41l0,0a1.69,1.69,0,0,0-.3-.308h0a.089.089,0,0,0-.024-.019,3.106,3.106,0,0,0-.576-.351h0c-.1-.048-.192-.091-.28-.126.094.019.185.043.256.059l.3.075.3.072c.086.023.193.043.3.063a.107.107,0,0,0,.032.008C11.2,7.654,11.3,7.669,11.382,7.682Z" transform="translate(-6.097 -3.412)"/><path d="M11.152,10.052a.031.031,0,0,1-.028.039h-.008a.03.03,0,0,1-.031-.027l-.048-.257a.044.044,0,0,1,.032-.043.036.036,0,0,1,.04.032Z" transform="translate(-5.946 -3.084)"/><path d="M10.975,8.188a.923.923,0,0,1,.138.623,1.276,1.276,0,0,1-.138.391Z" transform="translate(-5.955 -3.299)" fill="#fed742"/><path d="M11.04,10.274a.035.035,0,0,1-.019.048l-.013,0a.032.032,0,0,1-.031-.023l-.08-.19a.035.035,0,0,1,.02-.048.043.043,0,0,1,.047.02Z" transform="translate(-5.965 -3.042)"/><path d="M11.2,9.128c-.035.142-.075.281-.118.407a1.463,1.463,0,0,0-.335.789c-.043-.059-.107-.134-.189-.23a.623.623,0,0,1-.06-.067,4.161,4.161,0,0,0-.382-.414,2.343,2.343,0,0,0-.442-.308c.083.02.169.04.252.064a3.439,3.439,0,0,0,.6.115h0c.04,0,.075,0,.11,0a.729.729,0,0,0,.193-.035l.008,0A.69.69,0,0,0,11.2,9.128Z" transform="translate(-6.133 -3.17)"/><path d="M10.939,8.126V9.35a.641.641,0,0,1-.225.185V7.882A1.761,1.761,0,0,1,10.939,8.126Z" transform="translate(-5.99 -3.341)" fill="#fed742"/><path d="M10.758,6.643a.269.269,0,0,1,.272.268.272.272,0,1,1-.544,0A.27.27,0,0,1,10.758,6.643Z" transform="translate(-6.022 -3.51)" fill="#fed742"/><path d="M10.679,7.849v1.74a.619.619,0,0,1-.15.024h-.075V7.691a1.813,1.813,0,0,1,.217.155Z" transform="translate(-6.026 -3.367)" fill="#fed742"/><path d="M10.419,7.668V9.625a1.672,1.672,0,0,1-.225-.032V7.545C10.272,7.585,10.347,7.625,10.419,7.668Z" transform="translate(-6.061 -3.387)" fill="#fed742"/><path d="M10.2,6.511a.269.269,0,0,1,.268.268.271.271,0,1,1-.541,0A.27.27,0,0,1,10.2,6.511Z" transform="translate(-6.098 -3.528)" fill="#fed742"/><path d="M10.162,7.526V9.594c-.075-.016-.15-.035-.225-.051V7.424Z" transform="translate(-6.096 -3.403)" fill="#fed742"/><path d="M10.092,9.972a.032.032,0,0,1-.02.043l-.011,0A.037.037,0,0,1,10.025,10l-.067-.185a.032.032,0,0,1,.019-.043.035.035,0,0,1,.048.019Z" transform="translate(-6.094 -3.083)"/><path d="M9.9,7.411V9.536c-.075-.019-.15-.039-.224-.055V7.323C9.74,7.347,9.815,7.374,9.9,7.411Z" transform="translate(-6.132 -3.417)" fill="#fed742"/><path d="M9.833,9.9a.035.035,0,0,1-.027.04H9.8a.03.03,0,0,1-.032-.027L9.715,9.65a.034.034,0,0,1,.027-.039.036.036,0,0,1,.043.027Z" transform="translate(-6.127 -3.105)"/><path d="M9.96,10.343A3.435,3.435,0,0,0,9.9,11.55a3,3,0,0,0-.746-1.037c.423.126.343-.115.26-.522C9.633,10.38,9.751,10.514,9.96,10.343Z" transform="translate(-6.203 -3.052)"/><path d="M9.637,6.407a.271.271,0,1,1-.273.268A.272.272,0,0,1,9.637,6.407Z" transform="translate(-6.175 -3.542)" fill="#fed742"/><path d="M9.641,7.309V9.474a1.884,1.884,0,0,0-.224-.035V7.261l.066.011.091.013C9.585,7.288,9.609,7.3,9.641,7.309Z" transform="translate(-6.168 -3.426)" fill="#fed742"/><path d="M9.6,9.825a.039.039,0,0,1-.024.043H9.572a.04.04,0,0,1-.036-.028l-.067-.275a.033.033,0,0,1,.024-.044.037.037,0,0,1,.043.024Z" transform="translate(-6.161 -3.117)"/><path d="M9.4,9.8a.035.035,0,0,1-.024.043l-.013,0a.029.029,0,0,1-.031-.023l-.1-.257a.038.038,0,0,1,.019-.048.039.039,0,0,1,.048.02Z" transform="translate(-6.193 -3.117)"/><path d="M9.381,7.256V9.434a1.061,1.061,0,0,0-.123-.008h-.1V7.24C9.226,7.245,9.3,7.248,9.381,7.256Z" transform="translate(-6.203 -3.429)" fill="#fed742"/><path d="M9.1,6.372a.273.273,0,0,1,.272.273.272.272,0,0,1-.543,0A.273.273,0,0,1,9.1,6.372Z" transform="translate(-6.248 -3.547)" fill="#fed742"/><path d="M9.205,9.827a.033.033,0,0,1-.019.044l-.013,0a.037.037,0,0,1-.035-.024l-.083-.193a.034.034,0,0,1,.02-.047.039.039,0,0,1,.047.019Z" transform="translate(-6.217 -3.105)"/><path d="M9.124,7.24v2.2a.618.618,0,0,0-.225.08V7.24C8.971,7.237,9.045,7.237,9.124,7.24Z" transform="translate(-6.238 -3.429)" fill="#fed742"/><path d="M9.082,10.025a.035.035,0,0,1-.011.047.028.028,0,0,1-.02.008.035.035,0,0,1-.027-.015l-.158-.23a.036.036,0,0,1,.013-.047.031.031,0,0,1,.047.008Z" transform="translate(-6.244 -3.081)"/><path d="M9,10.215a.032.032,0,0,1,0,.047.035.035,0,0,1-.024.013.036.036,0,0,1-.027-.013l-.2-.221A.035.035,0,1,1,8.8,9.993Z" transform="translate(-6.26 -3.054)"/><path d="M8.9,10.456a.036.036,0,0,1,0,.051c0,.008-.013.008-.024.008A.031.031,0,0,1,8.85,10.5l-.182-.2a.032.032,0,0,1,0-.048.033.033,0,0,1,.048,0Z" transform="translate(-6.271 -3.018)"/><path d="M8.864,7.247V9.563a.813.813,0,0,0-.091.08l-.024.024-.083.082a.176.176,0,0,1-.027.032v-2.5A1.263,1.263,0,0,1,8.864,7.247Z" transform="translate(-6.274 -3.428)" fill="#fed742"/><path d="M8.539,6.431a.269.269,0,0,1,.272.268.273.273,0,0,1-.272.273A.27.27,0,0,1,8.271,6.7.266.266,0,0,1,8.539,6.431Z" transform="translate(-6.324 -3.539)" fill="#fed742"/><path d="M8.673,9.635h0a2.1,2.1,0,0,0-.146.773,1.961,1.961,0,0,0-.659-.666c.056.011.107.023.158.031a1.475,1.475,0,0,0,.236.024.575.575,0,0,0,.319-.086A.551.551,0,0,0,8.673,9.635Z" transform="translate(-6.379 -3.101)"/><path d="M8.6,7.289V9.853a.613.613,0,0,1-.13.118.271.271,0,0,1-.1.043V7.364A1.349,1.349,0,0,1,8.6,7.292Z" transform="translate(-6.31 -3.422)" fill="#fed742"/><path d="M8.346,7.382v2.639a.82.82,0,0,1-.224,0V7.508A1.72,1.72,0,0,1,8.346,7.382Z" transform="translate(-6.345 -3.409)" fill="#fed742"/><path d="M8.355,10.7a1.971,1.971,0,0,0,.063,1.112,4.856,4.856,0,0,0-.958-.907c.552.209.4-.063.268-.391C8.067,10.982,8.2,10.883,8.355,10.7Z" transform="translate(-6.435 -2.981)"/><path d="M8,6.6a.27.27,0,1,1-.273.272A.272.272,0,0,1,8,6.6Z" transform="translate(-6.398 -3.516)" fill="#fed742"/><path d="M8.144,10.4a.029.029,0,0,1-.019.043l-.011,0a.03.03,0,0,1-.032-.019l-.1-.23a.032.032,0,0,1,.02-.043.036.036,0,0,1,.047.019Z" transform="translate(-6.364 -3.031)"/><path d="M8.086,7.539v2.4a2.362,2.362,0,0,1-.225-.414V7.755c.013-.015.024-.031.04-.051A1.521,1.521,0,0,1,8.086,7.539Z" transform="translate(-6.38 -3.388)" fill="#fed742"/><path d="M7.914,10.287a.037.037,0,0,1-.016.047H7.883a.037.037,0,0,1-.032-.019l-.086-.209a.031.031,0,0,1,.016-.043.037.037,0,0,1,.048.016Z" transform="translate(-6.394 -3.043)"/><path d="M7.816,7.82V9.3a3.061,3.061,0,0,1-.142-.813A1.333,1.333,0,0,1,7.816,7.82Z" transform="translate(-6.406 -3.349)" fill="#fed742"/><path d="M7.715,10.254A.037.037,0,0,1,7.7,10.3l-.016,0c-.011,0-.027,0-.031-.016l-.134-.257a.04.04,0,0,1,.016-.048A.036.036,0,0,1,7.581,10Z" transform="translate(-6.428 -3.054)"/><path d="M7.516,6.91a.273.273,0,0,1,.272.273.272.272,0,0,1-.543,0A.273.273,0,0,1,7.516,6.91Z" transform="translate(-6.465 -3.474)" fill="#fed742"/><path d="M7.469,10.151a.041.041,0,0,1-.013.051s-.011,0-.019,0a.031.031,0,0,1-.027-.016l-.139-.209a.034.034,0,0,1,.013-.048.032.032,0,0,1,.047.008Z" transform="translate(-6.462 -3.061)"/><path d="M7.183,7.389a.271.271,0,0,1,0,.541.271.271,0,1,1,0-.541Z" transform="translate(-6.51 -3.408)" fill="#fed742"/><path d="M7.119,9.055a.271.271,0,1,1-.268.268A.273.273,0,0,1,7.119,9.055Z" transform="translate(-6.518 -3.18)" fill="#fed742"/><path d="M7.264,10.164a.035.035,0,0,1,0,.047.045.045,0,0,1-.028.013.029.029,0,0,1-.024-.008l-.2-.171a.042.042,0,0,1,0-.051.041.041,0,0,1,.051,0Z" transform="translate(-6.497 -3.054)"/><path d="M7.009,7.927a.272.272,0,0,1,.268.273.27.27,0,0,1-.54,0A.273.273,0,0,1,7.009,7.927Z" transform="translate(-6.534 -3.335)" fill="#fed742"/><path d="M7,8.5a.272.272,0,1,1-.273.272A.272.272,0,0,1,7,8.5Z" transform="translate(-6.535 -3.256)" fill="#fed742"/></g></g></g></svg>