<svg xmlns="http://www.w3.org/2000/svg" width="35.168" height="35.172" viewBox="0 0 35.168 35.172"><g transform="translate(0)"><g transform="translate(0 0)"><path d="M34.041,20.627a17.582,17.582,0,0,1-33.156,0Z" transform="translate(0.121 2.82)" fill="#e92838"/><path d="M35.168,16.174a17.486,17.486,0,0,1-1.006,5.863H1.006a17.576,17.576,0,0,1,0-11.722h33.16A17.576,17.576,0,0,1,35.168,16.174Z" transform="translate(0 1.41)" fill="#31b137"/><path d="M34.045,11.725H.885a17.585,17.585,0,0,1,33.16,0Z" transform="translate(0.121)" fill="#fdca16"/><path d="M16.956,5.151l2.912,8.96h9.421L21.667,19.65l2.912,8.964-7.623-5.539L9.33,28.613l2.912-8.964L4.619,14.11h9.421Z" transform="translate(0.632 0.704)" fill="#fff"/></g></g></svg>