<svg xmlns="http://www.w3.org/2000/svg" width="35.168" height="35.169" viewBox="0 0 35.168 35.169"><g transform="translate(0)"><g transform="translate(0 0)"><path d="M34.045,20.627a17.6,17.6,0,0,1-33.16,0Z" transform="translate(0.121 2.82)" fill="#03aac8"/><path d="M35.168,16.174a17.512,17.512,0,0,1-1,5.863H1.006a17.586,17.586,0,0,1,0-11.725H34.162A17.4,17.4,0,0,1,35.168,16.174Z" transform="translate(0 1.41)" fill="#f9df47"/><path d="M34.041,11.722H.885a17.584,17.584,0,0,1,33.156,0Z" transform="translate(0.121)" fill="#03aac8"/><g transform="translate(0 6.454)"><path d="M26.248,16.808,14.526,22.671,3.984,27.942a17.53,17.53,0,0,1,0-22.264l10.539,5.268Z" transform="translate(0 -5.678)"/></g></g></g></svg>