<svg xmlns="http://www.w3.org/2000/svg" width="61.198" height="60.937" viewBox="0 0 61.198 60.937"><g transform="translate(0 0)"><g transform="translate(0 0)"><path d="M52.591,80.612l8.562-48.15c8.161,0,10.735.895,11.106,4.547,0,0,5.474-2.041,8.235-6.187a60.5,60.5,0,0,0-21.6-5.218L52.577,33.3h.014L46.274,25.6a60.5,60.5,0,0,0-21.6,5.218c2.759,4.145,8.235,6.187,8.235,6.187.374-3.653,2.945-4.548,11.051-4.553Z" transform="translate(-21.989 -19.675)" fill="#cacee6"/><path d="M43.674,3.707A70.538,70.538,0,0,1,72.558,9.5a23.449,23.449,0,0,0,1.715-3.54A83.765,83.765,0,0,0,43.673,0a83.755,83.755,0,0,0-30.6,5.962A29.61,29.61,0,0,0,14.788,9.5a70.53,70.53,0,0,1,28.884-5.8Z" transform="translate(-13.075)" fill="#cacee6"/></g></g></svg>