<svg xmlns="http://www.w3.org/2000/svg" width="54.865" height="37.174" viewBox="0 0 54.865 37.174"><path d="M127.95,0C112.8,0,100.518,8.322,100.518,18.587S112.8,37.174,127.95,37.174s27.432-8.322,27.432-18.587S143.1,0,127.95,0Zm0,35.718c-13.419,0-24.3-7.67-24.3-17.131s10.878-17.132,24.3-17.132,24.3,7.67,24.3,17.132S141.37,35.718,127.95,35.718Zm23.391-17.131a13.048,13.048,0,0,1-4.586,9.5c-6.762,6.283-18.617,7.923-18.617,1.209V9.1l9.273,5.1.279.154.281.154V21.9a4.821,4.821,0,0,0,1.755,4.19,4.606,4.606,0,0,0,1.806.843,4.679,4.679,0,0,0,.746.057,6.033,6.033,0,0,0,2.815-.726h0a6.015,6.015,0,0,0,1.4-1.05c1.489-1.494,2.238-3.723,2.227-6.627-.013-3.9-2.154-7.578-6.025-10.355a25.385,25.385,0,0,0-14.614-4.371h-.262a25.371,25.371,0,0,0-14.613,4.372c-3.872,2.777-6.012,6.455-6.026,10.355-.01,2.9.739,5.134,2.227,6.627a6.021,6.021,0,0,0,1.4,1.05h0a6.032,6.032,0,0,0,2.815.726,4.721,4.721,0,0,0,.747-.057c.147-.025,3.658-.673,3.559-5.033V14.51l.279-.153.281-.155,9.273-5.1V29.3c0,6.714-11.855,5.074-18.617-1.209a13.048,13.048,0,0,1-4.586-9.5c0-9.1,10.392-16.479,23.26-16.57h.262C140.95,2.108,151.342,9.492,151.342,18.587Z" transform="translate(-100.518)" fill="#cacee6"/></svg>