<svg xmlns="http://www.w3.org/2000/svg" width="35.169" height="35.169" viewBox="0 0 35.169 35.169"><g transform="translate(0 0)"><path d="M35.169,17.584a17.491,17.491,0,0,1-2.352,8.782,17.748,17.748,0,0,1-4.995,5.507,17.551,17.551,0,0,1-20.476,0,17.779,17.779,0,0,1-4.991-5.507,17.543,17.543,0,0,1,0-17.56,17.583,17.583,0,0,1,32.814,8.778Z" fill="#fff"/><g transform="translate(2.355 3.299)"><path d="M32.534,8.409H2.072A17.637,17.637,0,0,1,7.063,2.9H27.539A17.648,17.648,0,0,1,32.534,8.409Z" transform="translate(-2.072 -2.902)" fill="#0a39b6"/><path d="M32.534,23.195A17.748,17.748,0,0,1,27.539,28.7H7.063a17.779,17.779,0,0,1-4.991-5.507Z" transform="translate(-2.072 -0.128)" fill="#0a39b6"/></g><path d="M22.833,12.564h-4.4l-2.17-3.752-2.165,3.752H9.69l2.2,3.815-2.2,3.815h4.4l2.165,3.752,2.17-3.752h4.4l-2.2-3.815Zm-2.095,1.212-.8,1.392-.8-1.392Zm-4.479-2.545.774,1.333H15.49Zm-4.474,2.545H13.4l-.806,1.392Zm0,5.207.8-1.392.806,1.392Zm4.474,2.545-.77-1.335h1.544Zm1.472-2.545h-2.94l-1.5-2.6,1.5-2.6h2.94l1.5,2.6Zm3.007,0h-1.61l.8-1.392Z" transform="translate(1.325 1.205)" fill="#0a39b6"/></g></svg>