<svg xmlns="http://www.w3.org/2000/svg" width="35.169" height="35.172" viewBox="0 0 35.169 35.172"><g transform="translate(0 0)"><g transform="translate(3.68 3.85)"><path d="M26.351,8.016c5.709,5.71,6.207,14.5,1.108,19.594S13.575,32.21,7.867,26.5,1.66,12,6.757,6.907,20.646,2.307,26.351,8.016Z" transform="translate(-3.237 -3.387)"/></g><path d="M35.169,17.588A17.583,17.583,0,1,1,17.584,0,17.606,17.606,0,0,1,35.169,17.588Z" fill="#cd1225"/><path d="M9.007,6.914,18,3.4,11.647.909a17.586,17.586,0,0,0,0,33.106L18,31.529,9.007,28.014,18,24.495,9.007,20.979,18,17.464,9.007,13.945,18,10.429Z" transform="translate(0 0.124)" fill="#fff"/></g></svg>