<svg xmlns="http://www.w3.org/2000/svg" width="35.153" height="35.153" viewBox="0 0 35.153 35.153"><g transform="translate(0)"><g transform="translate(0 0)"><path d="M35.153,17.576a17.285,17.285,0,0,1-.5,4.166A17.558,17.558,0,0,1,4.418,29.211q-.5-.563-.958-1.172A17.575,17.575,0,1,1,34.478,12.747a17.251,17.251,0,0,1,.663,4.187C35.149,17.146,35.153,17.363,35.153,17.576Z" fill="#053891"/><path d="M34.724,15.4,4,27.678q-.5-.563-.958-1.172L34.062,11.214A17.251,17.251,0,0,1,34.724,15.4Z" transform="translate(0.416 1.533)" fill="#dc7409"/><path d="M34.622,15.539a17.285,17.285,0,0,1-.5,4.166L5.212,28.524a17.461,17.461,0,0,1-1.325-1.349L34.609,14.9C34.617,15.11,34.622,15.327,34.622,15.539Z" transform="translate(0.531 2.037)" fill="#fff"/><path d="M10.883,4.071l.331,5.587,1.172-3.085-.532,3.259,1.929-2.683-1.357,3.01,2.557-2.087-2.091,2.557L15.9,9.271,13.222,11.2l3.259-.533L13.392,11.84l5.586.327-5.586.331,3.089,1.168-3.259-.529L15.9,15.067l-3.01-1.357,2.091,2.557-2.557-2.091,1.357,3.01-1.929-2.679.532,3.259-1.172-3.089-.331,5.587-.327-5.587L9.384,17.765l.533-3.259L7.987,17.185l1.357-3.01L6.788,16.266,8.879,13.71,5.864,15.067l2.683-1.929-3.259.529L8.374,12.5l-5.587-.331,5.587-.327L5.288,10.668l3.259.533L5.864,9.271l3.014,1.357L6.788,8.072l2.557,2.087L7.987,7.149,9.916,9.831,9.384,6.573l1.172,3.085Z" transform="translate(0.381 0.557)" fill="#fff"/></g></g></svg>