<svg xmlns="http://www.w3.org/2000/svg" width="55.413" height="55.413" viewBox="0 0 55.413 55.413"><g transform="translate(0 0)"><path d="M27.708,0A27.706,27.706,0,1,0,55.413,27.708,27.707,27.707,0,0,0,27.708,0ZM23.233,1.731l2.6-.288,1.878,5.484,1.875-5.484,2.6.288.29,7.793-2.022-.288-.192-5.194L28.429,9.235H26.986L25.158,4.042l-.192,5.194-2.022.288ZM5.743,14.559c-.21-.17-.418-.336-.628-.5a.7.7,0,0,1-.075-.062c.037-.043.072-.089.107-.132q.807-1.011,1.618-2.02.939-1.175,1.882-2.351c.119-.15.24-.3.361-.451a1.876,1.876,0,0,1,2.774-.171,1.905,1.905,0,0,1,.515.9,2,2,0,0,1-.045,1.039c.045-.037.091-.08.141-.115a2.093,2.093,0,0,1,3.325,1.441,2.158,2.158,0,0,1-.068.824,4.182,4.182,0,0,1-.858,1.327q-.967,1.2-1.933,2.413-.807,1-1.612,2.014c-.041.05-.08.1-.119.148-.008.011-.056-.037-.062-.043l-.6-.48q-1.175-.939-2.349-1.88T5.743,14.559ZM27.708,45.023A17.316,17.316,0,1,1,45.023,27.708,17.316,17.316,0,0,1,27.708,45.023ZM44.2,18.755l-.993-1.7,3.423-4.5-5.138,2.356-1.443-1.339,4.686-6.154,1.443,1.339-2.7,3.551L47.8,10.323,49.065,11.9l-2.884,3.788,4.056-1.861.993,1.7Z" fill="#cacee6" fill-rule="evenodd"/><path d="M12.829,13.749a.89.89,0,0,0-.2-.794.88.88,0,0,0-.975-.218,1.465,1.465,0,0,0-.548.516c-.608.756-1.214,1.516-1.822,2.273-.008.011-.136.167-.136.175l.373.3.976.781q.48-.6.961-1.2t.958-1.2A1.921,1.921,0,0,0,12.829,13.749Z" transform="translate(-1.718 -2.379)" fill="#cacee6" fill-rule="evenodd"/><path d="M13.46,19.1c.029.023.058.045.089.068,0,0,.019-.021.021-.023q.849-1.061,1.7-2.121l.619-.773a.865.865,0,0,0-.694-1.416.921.921,0,0,0-.7.392q-.376.467-.75.938L12.2,18.09c.266.214.534.426.8.641Z" transform="translate(-2.29 -2.786)" fill="#cacee6" fill-rule="evenodd"/><path d="M13.874,30.312H30.312V13.874A16.889,16.889,0,0,0,13.874,30.312Z" transform="translate(-2.605 -2.605)" fill="#cacee6" fill-rule="evenodd"/><path d="M34.112,50.55A16.889,16.889,0,0,0,50.55,34.112H34.112Z" transform="translate(-6.404 -6.404)" fill="#cacee6" fill-rule="evenodd"/></g></svg>