<svg xmlns="http://www.w3.org/2000/svg" width="66.675" height="60.499" viewBox="0 0 66.675 60.499"><g transform="translate(0 0)"><g transform="translate(0 0)"><path d="M66.215,21.9a.466.466,0,0,0,.436-.508h0a.473.473,0,1,0-.944.073h0a.52.52,0,0,0,.508.436M36.282,6.632a1.379,1.379,0,0,0,1.379,1.379,1.364,1.364,0,0,0,1.379-1.379,1.379,1.379,0,0,0-1.379-1.379,1.394,1.394,0,0,0-1.379,1.379h0m8.711,2.952A1.379,1.379,0,1,0,46.373,8.2h0a1.379,1.379,0,0,0-1.379,1.379h0M12.229,45.422a1.379,1.379,0,1,0,1.379-1.379h0a1.428,1.428,0,0,0-1.379,1.379h0M19,51.108a1.379,1.379,0,1,0,1.379-1.379h0A1.411,1.411,0,0,0,19,51.108m8.615,2.662A1.379,1.379,0,1,0,29,52.391h0a1.394,1.394,0,0,0-1.379,1.379h0m8.857-.1a1.379,1.379,0,1,0,0-.048v.048h0m8.518-2.71a1.38,1.38,0,1,0,1.4-1.4h0a1.374,1.374,0,0,0-1.379,1.355c0,.024,0,.024-.024.048m6.775-5.445a1.379,1.379,0,1,0,2.759,0,1.364,1.364,0,0,0-1.379-1.379h0a1.378,1.378,0,0,0-1.379,1.379h0M51.7,15a1.367,1.367,0,1,0,2.734-.024,1.358,1.358,0,0,0-1.379-1.355A1.374,1.374,0,0,0,51.7,15h0m-9.631-3.63a1.754,1.754,0,1,0-3.509.024A1.735,1.735,0,0,0,40.3,13.141a1.761,1.761,0,0,0,1.766-1.766h0M47.946,15a1.754,1.754,0,1,0-3.509.024,1.735,1.735,0,0,0,1.742,1.742A1.776,1.776,0,0,0,47.946,15h0m4.6,5.154a1.766,1.766,0,1,0-1.766,1.766h0a1.776,1.776,0,0,0,1.766-1.766h0M39.96.51a.461.461,0,1,0-.92-.073.466.466,0,0,0,.436.508A.458.458,0,0,0,39.96.51h0M51.672,4.769a.479.479,0,0,0-.411-.508h0a.465.465,0,0,0-.46.484.488.488,0,0,0,.387.46.445.445,0,0,0,.484-.436m9.219,6.606a.466.466,0,0,0-.436-.508h0a.479.479,0,0,0-.508.411h0a.468.468,0,1,0,.92.169.089.089,0,0,0,.024-.073m-15.947-6.1a.9.9,0,1,0-.968.847.892.892,0,0,0,.968-.8V5.277h0M53.9,9.729a.892.892,0,0,0-.8-.968h-.024a.883.883,0,0,0-.29,1.742h.145a.856.856,0,0,0,.944-.8V9.657h0m6.1,6.413a.9.9,0,1,0,.847.968.892.892,0,0,0-.8-.968h-.048M33.33,2.809a.9.9,0,1,0,.9.9h0a.925.925,0,0,0-.9-.9h0M29,5.277a1.379,1.379,0,1,0,1.379,1.379h0A1.428,1.428,0,0,0,29,5.277h0M20.287,8.2a1.379,1.379,0,1,0,1.379,1.379h0A1.379,1.379,0,0,0,20.287,8.2M7.559,28.918A1.379,1.379,0,1,0,8.938,30.3h0a1.41,1.41,0,0,0-1.379-1.379h0M9.253,20.86a1.379,1.379,0,1,0,1.379,1.379h0a1.374,1.374,0,0,0-1.331-1.4h0m4.38-7.211A1.379,1.379,0,1,0,15.06,15h0a1.428,1.428,0,0,0-1.379-1.379M33.33,52a1.754,1.754,0,1,0-1.742-1.766h0A1.771,1.771,0,0,0,33.33,52m0-39.9a1.754,1.754,0,1,0-1.742-1.766h0A1.771,1.771,0,0,0,33.33,12.1m-6.969,1.016a1.754,1.754,0,1,0-1.742-1.766h0a1.725,1.725,0,0,0,1.742,1.766h0m-5.9,3.606a1.754,1.754,0,1,0-1.742-1.766h0a1.756,1.756,0,0,0,1.742,1.766h0m-4.646,5.2a1.756,1.756,0,1,0-1.67-1.839v.024h0a1.771,1.771,0,0,0,1.742,1.766h0M13.971,28.41a1.754,1.754,0,1,0-1.742-1.766h0a1.771,1.771,0,0,0,1.742,1.766h0M27.208.945a.466.466,0,0,0,.436-.508A.466.466,0,0,0,27.135,0a.448.448,0,0,0-.411.508V.534a.428.428,0,0,0,.484.411h0M15.5,5.2a.476.476,0,0,0,.436-.484h0a.466.466,0,0,0-.508-.436.476.476,0,0,0-.436.484h0A.483.483,0,0,0,15.5,5.2M66.215,41.913a.46.46,0,0,0,0-.92h-.1a.476.476,0,0,0-.436.484h0a.466.466,0,0,0,.508.436M60.577,49.7a.5.5,0,0,0,.436-.508.473.473,0,1,0-.436.508h0m-9.34,6.582a.476.476,0,0,0,.436-.484h0a.472.472,0,1,0-.944-.024h0v.1a.433.433,0,0,0,.508.411h0M39.549,60.5a.473.473,0,0,0-.073-.944h0a.473.473,0,0,0,.073.944m-12.341,0a.473.473,0,0,0-.073-.944h0a.473.473,0,1,0,.073.944h0M15.5,56.238a.476.476,0,0,0,.436-.484h0a.466.466,0,0,0-.508-.436.476.476,0,0,0-.436.484h0a.466.466,0,0,0,.508.436M6.252,49.632a.466.466,0,0,0,.436-.508h0a.473.473,0,1,0-.944.073h0a.466.466,0,0,0,.508.436M.469,41.913a.46.46,0,1,0,0-.92h-.1a.456.456,0,0,0-.363.557.468.468,0,0,0,.46.387M6.3,11.762a.466.466,0,0,0,.436-.508h0a.473.473,0,0,0-.944.073h0a.466.466,0,0,0,.508.436M22.659,6.027a.911.911,0,0,0,.774-.992.894.894,0,0,0-.92-.774.875.875,0,0,0-.75.992.905.905,0,0,0,.871.774h0M13.681,10.5a.836.836,0,1,0-.073,0h.073M5.817,17.013a.857.857,0,0,0,.847.847h.121a.883.883,0,0,0-.024-1.766h-.1a.858.858,0,0,0-.847.92M63.481,33.952a.9.9,0,1,0,.145,1.791h0a.929.929,0,0,0,.823-.968.894.894,0,0,0-.968-.823h0m-3.46,8.639a.911.911,0,0,0-.774.992.843.843,0,1,0,1.67-.218.905.905,0,0,0-.871-.774h0m-6.9,7.356a.883.883,0,1,0,.024,1.766h.1a.9.9,0,0,0,.847-.944.857.857,0,0,0-.847-.847h-.121M44,54.423a.9.9,0,0,0-.847.944h0a.884.884,0,1,0,1.766-.073h0v-.073a.889.889,0,0,0-.92-.847h0m-10.768,1.5a.884.884,0,1,0,.073,1.766h.073a.887.887,0,0,0-.145-1.766M22.9,54.689a.887.887,0,0,0,.169,1.766.906.906,0,0,0,.823-.944.9.9,0,0,0-.944-.847c-.024.024-.024.024-.048.024h0m-9.316-4.694a.884.884,0,0,0,.073,1.766h.073a.911.911,0,0,0,.774-.992.894.894,0,0,0-.92-.774M6.639,42.639a.911.911,0,0,0-.774.992.877.877,0,0,0,.92.774.875.875,0,0,0,.75-.992.905.905,0,0,0-.871-.774h0M2.816,25.579a.911.911,0,0,0-.774.992.877.877,0,0,0,.92.774.875.875,0,0,0,.75-.992.905.905,0,0,0-.871-.774h0M28.176,49.1a1.742,1.742,0,1,0-1.742,1.742h0A1.751,1.751,0,0,0,28.176,49.1h0m12.051-1.766A1.754,1.754,0,1,0,41.969,49.1h0a1.74,1.74,0,0,0-1.742-1.766h0m6-3.46a1.755,1.755,0,1,0,1.718,1.791v-.024A1.776,1.776,0,0,0,46.2,43.849h-.048m6.364-3.509a1.754,1.754,0,0,0-3.509.024,1.735,1.735,0,0,0,1.742,1.742,1.792,1.792,0,0,0,1.766-1.766h0M20.5,43.776a1.754,1.754,0,1,0,1.742,1.766h0A1.771,1.771,0,0,0,20.5,43.776h0M15.883,38.6a1.754,1.754,0,1,0,1.742,1.766V40.34h0A1.735,1.735,0,0,0,15.883,38.6h0M33.6,21.006,42.767,37.8h4.065L37.661,21.054ZM19.731,37.8H23.8l9.171-16.745H28.9Zm-5.747-5.947a1.754,1.754,0,1,1-1.754,1.754A1.754,1.754,0,0,1,13.984,31.852Zm38.75,0a1.754,1.754,0,1,1-1.754,1.754A1.754,1.754,0,0,1,52.734,31.852Zm0-6.951a1.754,1.754,0,1,1-1.754,1.754A1.754,1.754,0,0,1,52.734,24.9Zm4.609-4.341a1.367,1.367,0,1,1-1.367,1.367A1.367,1.367,0,0,1,57.343,20.56Zm6.21,4a.884.884,0,1,1-.884.884A.884.884,0,0,1,63.553,24.561Zm-60.674,9.4A.884.884,0,1,1,2,34.845.884.884,0,0,1,2.879,33.962Zm56.073-5.2a1.367,1.367,0,1,1-1.367,1.367A1.367,1.367,0,0,1,58.952,28.764Zm-1.609,8.2a1.367,1.367,0,1,1-1.367,1.367A1.367,1.367,0,0,1,57.343,36.968Zm-48.09,0a1.367,1.367,0,1,1-1.367,1.367A1.367,1.367,0,0,1,9.253,36.968Z" transform="translate(0 0)" fill="#cacee6"/></g></g></svg>