<svg xmlns="http://www.w3.org/2000/svg" width="35.153" height="35.153" viewBox="0 0 35.153 35.153"><g transform="translate(0)"><g transform="translate(0 0)"><circle cx="17.576" cy="17.576" r="17.576" fill="#e60313"/><g transform="translate(8.763 8.763)"><path d="M25.341,16.522a8.816,8.816,0,1,1-8.819-8.813A8.821,8.821,0,0,1,25.341,16.522Z" transform="translate(-7.709 -7.709)" fill="#fff"/><g transform="translate(2.871 2.217)"><path d="M18.58,21.558a5.3,5.3,0,1,1,3.539-9.244,6.594,6.594,0,1,0,0,7.887A5.293,5.293,0,0,1,18.58,21.558Z" transform="translate(-10.235 -9.659)" fill="#e60313"/><path d="M16.831,12.186l1.677,2.3,2.7-.888-1.665,2.3,1.681,2.3-2.706-.872-1.665,2.308-.008-2.845-2.706-.868,2.7-.888Z" transform="translate(-9.701 -9.314)" fill="#e60313"/></g></g></g></g></svg>