<svg xmlns="http://www.w3.org/2000/svg" width="35.169" height="35.169" viewBox="0 0 35.169 35.169"><g transform="translate(0 0)"><path d="M17.463,32.349A17.612,17.612,0,0,0,34.041,20.627H.885A17.613,17.613,0,0,0,17.463,32.349Z" transform="translate(0.121 2.82)" fill="#f1a711"/><path d="M17.463,0A17.611,17.611,0,0,0,.885,11.725H34.041A17.61,17.61,0,0,0,17.463,0Z" transform="translate(0.121)" fill="#d80212"/><path d="M34.162,10.315H1.006a17.576,17.576,0,0,0,0,11.722H34.162a17.557,17.557,0,0,0,0-11.722Z" transform="translate(0 1.41)" fill="#07339e"/></g></svg>