<svg xmlns="http://www.w3.org/2000/svg" width="35.153" height="35.149" viewBox="0 0 35.153 35.149"><g transform="translate(0 0)"><path d="M34.025,11.717H.885a17.575,17.575,0,0,1,33.14,0Z" transform="translate(0.121)" fill="#028832"/><path d="M34.025,20.613a17.575,17.575,0,0,1-33.14,0Z" transform="translate(0.121 2.818)" fill="#d9131a"/><path d="M35.153,16.167a17.44,17.44,0,0,1-1.007,5.855H1.006a17.553,17.553,0,0,1,0-11.714h33.14A17.45,17.45,0,0,1,35.153,16.167Z" transform="translate(0 1.409)" fill="#fbdc1d"/><g transform="translate(5.846 5.847)"><path d="M28.6,16.873A11.728,11.728,0,1,1,16.873,5.144,11.726,11.726,0,0,1,28.6,16.873Z" transform="translate(-5.143 -5.144)" fill="#1447ad"/><g transform="translate(2.687 2.304)"><path d="M13.638,17.407l.225.162,1.547,1.124.73-.529-2-1.452-.225-.162-.726-.533L10.32,13.935H8.864l4.044,2.939-2.134,6.569,1.18-.856L12.4,21.2Z" transform="translate(-7.321 -6.246)" fill="#fbdc1d"/><path d="M19.906,20.868l-3.231-2.347.225-.162,1.547-1.124-.276-.856-2,1.452-.221.162-.729.529L12.351,20.6l-.45,1.385,4.048-2.939,5.587,4.06-.45-1.385Z" transform="translate(-6.906 -5.912)" fill="#fbdc1d"/><path d="M18.447,16.153l-.087-.26-.592-1.819h-.9l.765,2.347.087.264.276.856,1.1,3.369,1.18.856-1.546-4.758,5.586-4.056H22.853l-1.18.856Z" transform="translate(-6.228 -6.38)" fill="#fbdc1d"/><path d="M16.841,13.744h-2.19l-.276.856h7.188l1.18-.856h-5L15.61,7.171l-.453,1.389.453,1.385Z" transform="translate(-6.568 -7.171)" fill="#fbdc1d"/><path d="M10.931,14.381h3.2l-.087.264-.592,1.819.73.529.766-2.347.082-.264.28-.856,1.093-3.373-.45-1.385-1.543,4.758H7.507l1.18.856h2.245Z" transform="translate(-7.507 -6.952)" fill="#fbdc1d"/><g transform="translate(0.059 1.823)"><rect width="0.414" height="5.058" transform="translate(8.774 11.966)" fill="#fbdc1d"/><g transform="translate(3.314)"><path d="M20.509,8.774l.335.245L17.869,13.11l-.335-.245Z" transform="translate(-9.509 -8.774)" fill="#fbdc1d"/><path d="M10.474,9.019l.339-.245,2.971,4.091-.335.245Z" transform="translate(-10.474 -8.774)" fill="#fbdc1d"/></g><g transform="translate(0 8.818)"><path d="M23.959,18.094l-.13.4L19.02,16.93l.126-.4Z" transform="translate(-5.992 -16.531)" fill="#fbdc1d"/><path d="M7.686,18.492l-.127-.4,4.809-1.562.126.4Z" transform="translate(-7.559 -16.531)" fill="#fbdc1d"/></g></g></g></g></g></svg>