<svg xmlns="http://www.w3.org/2000/svg" width="35" height="34.991" viewBox="0 0 35 34.991">
  <g id="Rwanda" transform="translate(-426.583 -863.609)">
    <path id="Path_10238" data-name="Path 10238" d="M171.517,113.108v.046h-35v-.046a17.5,17.5,0,1,1,35,0" transform="translate(290.063 768)" fill="#00a1de"/>
    <path id="Path_10239" data-name="Path 10239" d="M161.059,99.068l.221,3.879,1.217-3.69-.791,3.8,2.13-3.249-1.748,3.47,2.9-2.587-2.587,2.9,3.47-1.749-3.249,2.131,3.8-.791-3.69,1.217,3.879.221-3.879.221,3.69,1.217-3.8-.791,3.249,2.13-3.47-1.748,2.587,2.9-2.9-2.587,1.748,3.47-2.13-3.249.791,3.8-1.217-3.69-.221,3.879-.221-3.879-1.217,3.69.791-3.8-2.13,3.249,1.748-3.47-2.9,2.587,2.587-2.9-3.47,1.748,3.249-2.13-3.8.791,3.69-1.217-3.879-.221,3.879-.221-3.69-1.217,3.8.791-3.249-2.131,3.47,1.749-2.587-2.9,2.9,2.587-1.748-3.47,2.13,3.249-.791-3.8,1.217,3.69Z" transform="translate(290.063 768)" fill="#e5be01"/>
    <path id="Path_10240" data-name="Path 10240" d="M162.823,104.407l0-.032a1.806,1.806,0,0,0-.112-.417c0-.01-.008-.02-.013-.03a1.759,1.759,0,0,0-.216-.374l-.02-.026a1.8,1.8,0,0,0-.3-.305l-.026-.019a1.731,1.731,0,0,0-.373-.217l-.03-.012a1.723,1.723,0,0,0-.417-.112l-.032,0a1.8,1.8,0,0,0-.432,0l-.032,0a1.723,1.723,0,0,0-.417.112l-.03.012a1.731,1.731,0,0,0-.373.217l-.026.019a1.8,1.8,0,0,0-.3.305l-.02.026a1.759,1.759,0,0,0-.216.374c0,.01-.009.02-.013.03a1.807,1.807,0,0,0-.112.417l0,.032a1.8,1.8,0,0,0,0,.432l0,.032a1.82,1.82,0,0,0,.112.417c0,.01.008.02.013.03a1.752,1.752,0,0,0,.216.373c.006.009.013.017.02.026a1.761,1.761,0,0,0,.3.305l.026.02a1.77,1.77,0,0,0,.373.216l.03.013a1.769,1.769,0,0,0,.417.111l.032,0a1.8,1.8,0,0,0,.432,0l.032,0a1.769,1.769,0,0,0,.417-.111l.03-.013a1.77,1.77,0,0,0,.373-.216l.026-.02a1.761,1.761,0,0,0,.3-.305c.007-.009.014-.017.02-.026a1.752,1.752,0,0,0,.216-.373c.005-.01.009-.02.013-.03a1.82,1.82,0,0,0,.112-.417l0-.032a1.8,1.8,0,0,0,0-.432m-1.764,1.843a1.627,1.627,0,1,1,1.627-1.627,1.629,1.629,0,0,1-1.627,1.627" transform="translate(290.063 768)" fill="#00a1de"/>
    <path id="Path_10241" data-name="Path 10241" d="M171.52,113.154a17.483,17.483,0,0,1-2.475,8.928H138.993a17.443,17.443,0,0,1-2.473-8.928Z" transform="translate(290.063 768)" fill="#fad201"/>
    <path id="Path_10242" data-name="Path 10242" d="M169.04,122.082a17.5,17.5,0,0,1-30.043,0Z" transform="translate(290.063 768)" fill="#20603d"/>
  </g>
</svg>
