<svg xmlns="http://www.w3.org/2000/svg" width="35.153" height="35.156" viewBox="0 0 35.153 35.156"><g transform="translate(0 0)"><path d="M7,3.12V31.183A17.56,17.56,0,0,1,7,3.12Z" transform="translate(0 0.427)" fill="#0872c4"/><path d="M31.767,17.149a17.568,17.568,0,0,1-7,14.034V3.12A17.573,17.573,0,0,1,31.767,17.149Z" transform="translate(3.386 0.427)" fill="#009d60"/><path d="M27.311,3.547V31.61a17.541,17.541,0,0,1-21.151,0V3.547a17.541,17.541,0,0,1,21.151,0Z" transform="translate(0.842)" fill="#fbd023"/><g transform="translate(12.293 12.029)"><path d="M13.182,19.854l-2.367-4.636,2.367-4.636,2.367,4.636Z" transform="translate(-10.815 -10.582)" fill="#009d60"/><path d="M18.315,19.854l-2.367-4.636,2.367-4.636,2.367,4.636Z" transform="translate(-10.113 -10.582)" fill="#009d60"/><path d="M15.746,25.018l-2.363-4.636,2.363-4.636,2.367,4.636Z" transform="translate(-10.463 -9.876)" fill="#009d60"/></g></g></svg>