<svg xmlns="http://www.w3.org/2000/svg" width="35.153" height="35.156" viewBox="0 0 35.153 35.156"><g transform="translate(0)"><g transform="translate(0 0)"><path d="M31.519,6.885a17.556,17.556,0,0,0-27.881,0c-.311.4-.6.816-.875,1.242-.19.3-.375.612-.549.923-.118.2-.228.414-.335.631-.056.1-.107.209-.158.316-.07.15-.142.3-.209.454-.1.236-.2.474-.3.71A17.139,17.139,0,0,0,.529,13.3q-.089.35-.166.71c-.083.407-.153.821-.209,1.236s-.094.828-.122,1.25c-.016.268-.024.544-.028.816,0,.088,0,.174,0,.26a17.577,17.577,0,0,0,35.153,0A17.479,17.479,0,0,0,31.519,6.885Z" fill="#00247d"/><g transform="translate(0 6.885)"><path d="M2.61,12.328.135,13.564c.056-.415.126-.829.209-1.236Z" transform="translate(0.018 -5.199)" fill="#00247d"/><path d="M6.462,6.057V9.319L2.43,7.3c.275-.426.564-.84.875-1.242Z" transform="translate(0.332 -6.056)" fill="#00247d"/><path d="M2.446,9.249H1.329c.067-.153.139-.3.209-.454Z" transform="translate(0.182 -5.682)" fill="#00247d"/><path d="M17.519,9.48V7.1L12.769,9.48Z" transform="translate(1.746 -5.913)" fill="#00247d"/><path d="M15.621,6.057H9.107V9.319Z" transform="translate(1.245 -6.057)" fill="#00247d"/><path d="M17.519,14.7V12.325h-4.75Z" transform="translate(1.746 -5.2)" fill="#00247d"/><path d="M.246,15.858H6.76V12.6Z" transform="translate(0.034 -5.162)" fill="#00247d"/><path d="M9.107,15.858h6.514L9.107,12.6Z" transform="translate(1.245 -5.162)" fill="#00247d"/><path d="M19.265,7.248l-4.75,2.375h4.75v3.562h-4.75l4.75,2.376v.4l-5.552-2.778h-1.6l7.125,3.562H16.867l-6.515-3.259v3.259H6.794V13.489L.28,16.748H0c0-.086,0-.173,0-.26l6.6-3.3h-1.6L.032,15.671q.041-.634.122-1.25l2.475-1.236H.363q.077-.361.166-.71a17.139,17.139,0,0,1,.683-2.142c.094-.236.2-.474.3-.71H2.628L1.72,9.169c.051-.107.1-.213.158-.316l1.544.77h1.6l-2.805-1.4c.174-.311.359-.623.549-.923l4.032,2.02V6.057h3.558V9.319l6.515-3.262h.789L10.531,9.623h1.6l7.125-3.566h.013Z" transform="translate(0 -6.056)" fill="#fff"/><path d="M4.793,9.362H3.2l-1.544-.77c.107-.217.217-.426.335-.631Z" transform="translate(0.226 -5.796)" fill="#cb142a"/><path d="M10.659,12.325,17.788,15.9h.02v-.789l-5.551-2.781Z" transform="translate(1.457 -5.2)" fill="#cb142a"/><path d="M9.264,9.623h1.6l7.125-3.567h-1.6Z" transform="translate(1.267 -6.057)" fill="#cb142a"/><path d="M6.6,12.328,0,15.63c0-.272.013-.548.028-.816l4.974-2.486Z" transform="translate(0 -5.199)" fill="#cb142a"/><path d="M19.2,10.333v2.142H9.579v4.273H7.44V12.475H.465a17.139,17.139,0,0,1,.683-2.142H7.44V6.057H9.579v4.276Z" transform="translate(0.064 -6.056)" fill="#cb142a"/></g><g transform="translate(20.788 9.389)"><g transform="translate(4.848 12.701)"><path d="M24.337,21.952l-.947.659.335-1.1-.919-.694,1.152-.024.379-1.085.379,1.085,1.148.024-.915.694.331,1.1Z" transform="translate(-22.518 -19.396)" fill="#cb142a"/><path d="M26.191,20.755l-1.369-.028-.45-1.294-.45,1.294-1.369.028,1.089.828-.394,1.311,1.124-.781,1.124.781-.4-1.311Zm-1.819,1.112-.765.533.268-.891-.742-.565.931-.019.308-.88.3.88.931.019-.741.565.272.891Z" transform="translate(-22.553 -19.433)" fill="#fff"/></g><g transform="translate(4.995)"><path d="M24.319,10.56l-.852.592.3-.994-.829-.627,1.038-.02.343-.982.339.982,1.038.02-.825.627.3.994Z" transform="translate(-22.647 -8.223)" fill="#cb142a"/><path d="M26.023,9.472l-1.258-.024-.41-1.188L23.94,9.448l-1.258.024,1.006.762-.367,1.2,1.033-.717,1.03.717-.363-1.2Zm-1.669,1-.674.465.24-.781-.655-.5.817-.016.272-.774.268.774.821.016-.655.5.236.781Z" transform="translate(-22.682 -8.26)" fill="#fff"/></g><g transform="translate(0 4.98)"><path d="M19.941,14.963l-.864.6.3-1.01-.836-.635,1.049-.02.348-.994.343.994,1.053.02-.84.635.308,1.01Z" transform="translate(-18.253 -12.605)" fill="#cb142a"/><path d="M21.661,13.864l-1.266-.024-.418-1.2-.418,1.2-1.27.024,1.014.768-.372,1.215,1.046-.725,1.041.725-.366-1.215Zm-1.685,1.014-.687.476.241-.8-.663-.5.832-.016.276-.789.273.789.832.016-.663.5.24.8Z" transform="translate(-18.288 -12.641)" fill="#fff"/></g><g transform="translate(9.378 3.894)"><path d="M28.013,13.745l-.754.525.264-.876-.73-.556.915-.016.3-.868.3.868.916.016-.73.556.264.876Z" transform="translate(-26.503 -11.649)" fill="#cb142a"/><path d="M29.556,12.78l-1.137-.02-.371-1.073-.375,1.073-1.136.02.907.685-.332,1.089.936-.65.931.65-.327-1.089Zm-1.507.879-.576.4.206-.672-.557-.422.7-.011.228-.659.23.659.7.011-.557.422.2.672Z" transform="translate(-26.538 -11.686)" fill="#fff"/></g></g></g></g></svg>