<svg xmlns="http://www.w3.org/2000/svg" width="35.149" height="35.153" viewBox="0 0 35.149 35.153"><g transform="translate(0 0)"><path d="M13.793.361V34.693a17.579,17.579,0,0,1,0-34.332Z" transform="translate(0 0.049)" fill="#ce1126"/><path d="M33.49,17.576H12.134V.41A17.579,17.579,0,0,1,33.49,17.576Z" transform="translate(1.659)" fill="#fcd116"/><path d="M33.49,15.462A17.579,17.579,0,0,1,12.134,32.629V15.462Z" transform="translate(1.659 2.114)" fill="#009e49"/><path d="M6.738,10.791l1.314,4.056h4.265L8.869,17.352l1.318,4.056L6.738,18.9,3.286,21.407,4.6,17.352,1.156,14.846H5.421Z" transform="translate(0.158 1.475)"/></g></svg>