<svg xmlns="http://www.w3.org/2000/svg" width="35.153" height="35.153" viewBox="0 0 35.153 35.153"><g transform="translate(0 0)"><path d="M34.034,20.616a17.579,17.579,0,0,1-33.156,0Z" transform="translate(0.12 2.819)" fill="#0738a6"/><path d="M35.153,16.167a17.716,17.716,0,0,1-1,5.859H1A17.695,17.695,0,0,1,1,10.308H34.154A17.741,17.741,0,0,1,35.153,16.167Z" transform="translate(0 1.409)" fill="#fff"/><path d="M34.034,11.717H.878A17.549,17.549,0,0,1,17.314,0H17.6A17.565,17.565,0,0,1,34.034,11.717Z" transform="translate(0.12)" fill="#d42b1e"/><g transform="translate(13.011 13.012)"><path d="M20.214,14.235a4.489,4.489,0,0,0-.979-1.452,4.569,4.569,0,0,0-5-.979,4.656,4.656,0,0,0-1.453.979,4.53,4.53,0,0,0-.974,1.452,4.579,4.579,0,0,0,0,3.556,4.564,4.564,0,0,0,2.427,2.426,4.576,4.576,0,0,0,3.555,0,4.439,4.439,0,0,0,1.448-.979,4.569,4.569,0,0,0,.979-5Zm-4.2,6.143a4.365,4.365,0,1,1,4.36-4.367A4.371,4.371,0,0,1,16.011,20.378Z" transform="translate(-11.446 -11.447)"/><g transform="translate(0.793 0.797)"><path d="M19.384,14.452a3.792,3.792,0,0,0-.8-1.2,3.776,3.776,0,0,0-5.33,0,3.863,3.863,0,0,0-.809,1.2,3.751,3.751,0,0,0,.809,4.126,3.765,3.765,0,0,0,6.135-4.126ZM15.916,19.6A3.686,3.686,0,1,1,19.6,15.915,3.69,3.69,0,0,1,15.916,19.6Z" transform="translate(-12.144 -12.148)"/></g><g transform="translate(1.732 1.731)"><path d="M18.41,14.7a2.762,2.762,0,0,0-.607-.9A2.82,2.82,0,0,0,14.7,13.2,2.863,2.863,0,0,0,13.191,14.7a2.754,2.754,0,0,0-.221,1.1,2.788,2.788,0,0,0,.221,1.1,2.833,2.833,0,0,0,.608.9,2.777,2.777,0,0,0,.9.608,2.827,2.827,0,0,0,3.106-.608,2.811,2.811,0,0,0,.607-.9,2.85,2.85,0,0,0,.222-1.1A2.815,2.815,0,0,0,18.41,14.7ZM15.8,18.557a2.752,2.752,0,1,1,2.75-2.754A2.757,2.757,0,0,1,15.8,18.557Z" transform="translate(-12.97 -12.97)"/></g><g transform="translate(0.995 0.998)"><path d="M13.359,16.866l-.145.083-.075-.126a.068.068,0,0,1-.008-.059.083.083,0,0,1,.043-.048l.075-.043-.094-.163-.11.064a.106.106,0,0,0-.056.07.137.137,0,0,0,.019.1h0c-.048-.047-.083-.07-.123-.067a.3.3,0,0,0-.114.048.185.185,0,0,0-.107.13.349.349,0,0,0,.059.178l.177.311.552-.316Zm-.425.244-.072-.126c-.016-.027-.024-.051-.016-.064s.016-.027.04-.043a.284.284,0,0,1,.07-.027c.02,0,.036.016.056.048l.07.122Z" transform="translate(-12.275 -11.753)"/><path d="M13.012,16.028l-.131.04.1.311-.118.035-.091-.284-.115.036.091.288-.11.035-.094-.3-.134.04.153.481.608-.193Z" transform="translate(-12.309 -11.819)"/><path d="M12.99,15.843l-.166.016-.016-.166a.193.193,0,0,0-.264-.213.237.237,0,0,0-.171.07.269.269,0,0,0-.035.19l.035.351.632-.064Zm-.489.043-.013-.126a.152.152,0,0,1,0-.04.032.032,0,0,1,.013-.027c0-.008.011-.011.023-.016s.024,0,.04-.008a.211.211,0,0,1,.08,0,.111.111,0,0,1,.023.07l.013.126Z" transform="translate(-12.319 -11.894)"/><path d="M12.98,14.955a.218.218,0,0,0-.166-.086l-.423-.056-.023.19.41.048c.039,0,.059.015.067.031a.163.163,0,0,1,0,.083.285.285,0,0,1-.02.094.07.07,0,0,1-.067.02l-.418-.048-.019.185.422.051a.214.214,0,0,0,.171-.031A.444.444,0,0,0,13,15.185.486.486,0,0,0,12.98,14.955Z" transform="translate(-12.321 -11.985)"/><path d="M13.068,14.285a.166.166,0,0,0-.1-.013.107.107,0,0,0-.075.08l0,0a.117.117,0,0,0-.016-.1.2.2,0,0,0-.086-.051.158.158,0,0,0-.147.008.361.361,0,0,0-.082.145l-.127.343.6.222.126-.351a.311.311,0,0,0,.032-.169A.162.162,0,0,0,13.068,14.285Zm-.288.193-.044.126-.11-.04.051-.15a.088.088,0,0,1,.027-.039c.013,0,.024,0,.044,0a.128.128,0,0,1,.043.032A.132.132,0,0,1,12.78,14.478Zm.228.075-.048.134-.115-.043.048-.134a.171.171,0,0,1,.032-.059.064.064,0,0,1,.055,0,.061.061,0,0,1,.04.039A.1.1,0,0,1,13.009,14.553Z" transform="translate(-12.306 -12.071)"/><path d="M13.352,13.862l-.15.249-.418-.252-.1.158.544.331.249-.41Z" transform="translate(-12.271 -12.115)"/><path d="M13.1,13.421l-.118.147.492.4.118-.146Z" transform="translate(-12.231 -12.175)"/><path d="M13.958,13.325c-.011-.016-.031-.043-.059-.078l-.016-.013-.142.126.013.016c.024.024.032.043.027.064a.191.191,0,0,1-.059.075c-.048.039-.083.051-.115.035a.281.281,0,0,1-.059-.059l-.067-.075a.155.155,0,0,1-.047-.083c0-.024.016-.048.055-.083a.215.215,0,0,1,.059-.043.075.075,0,0,1,.068.011l.015.02.143-.131-.017-.016a.2.2,0,0,0-.173-.086.552.552,0,0,0-.178.123.493.493,0,0,0-.153.193.2.2,0,0,0,.067.2l.11.123a.212.212,0,0,0,.209.094.555.555,0,0,0,.193-.134c.048-.04.075-.067.091-.083A.179.179,0,0,0,13.958,13.325Z" transform="translate(-12.195 -12.232)"/><path d="M14.069,12.668l-.249.142.131.655.166-.09-.024-.115.221-.123.086.08.163-.1Zm0,.466-.059-.284.209.2Z" transform="translate(-12.116 -12.278)"/><path d="M15.406,12.695l-.019-.13a.393.393,0,0,0-.035-.11.192.192,0,0,0-.06-.067.211.211,0,0,0-.094-.032.455.455,0,0,0-.126.008l-.355.051.094.631.38-.059a.339.339,0,0,0,.118-.031.228.228,0,0,0,.07-.056.241.241,0,0,0,.032-.086A.63.63,0,0,0,15.406,12.695Zm-.268.15-.161.028-.051-.34.161-.024a.113.113,0,0,1,.075.008.11.11,0,0,1,.032.075l.019.134C15.224,12.8,15.2,12.837,15.138,12.845Z" transform="translate(-11.994 -12.321)"/><path d="M15.943,12.494l.013-.139-.5-.031-.044.635L15.92,13l.008-.142-.324-.02.008-.126.3.024.008-.122-.3-.02.008-.114Z" transform="translate(-11.899 -12.325)"/><path d="M16.144,12.9l.123-.469-.177-.051-.163.62.462.118.04-.142Z" transform="translate(-11.828 -12.317)"/><path d="M17.319,12.91l-.291-.193-.351.529.153.107.091-.139.138.091a.251.251,0,0,0,.19.064.3.3,0,0,0,.142-.131.255.255,0,0,0,.051-.182A.265.265,0,0,0,17.319,12.91Zm-.07.182a.3.3,0,0,1-.019.039.192.192,0,0,1-.051.056c-.016,0-.036,0-.067-.024L17,13.092l.1-.147.107.067c.016.013.027.02.035.028a.03.03,0,0,1,.011.023A.034.034,0,0,1,17.249,13.092Z" transform="translate(-11.725 -12.271)"/><path d="M17.662,13.165l-.6.3.138.134.1-.051.177.177-.051.107.134.13.3-.6Zm-.119.449-.126-.122.26-.134Z" transform="translate(-11.673 -12.21)"/><path d="M18.229,13.882l-.193-.3-.537.339.1.158.142-.091.078.123c.016.027.02.047.013.063a.069.069,0,0,1-.04.043l-.075.048.1.158h0l.013-.008.1-.059a.1.1,0,0,0,.05-.072.109.109,0,0,0-.024-.094l0,0c.048.043.088.067.123.063a.315.315,0,0,0,.118-.055.177.177,0,0,0,.1-.134A.314.314,0,0,0,18.229,13.882Zm-.161.158a.2.2,0,0,1-.067.035c-.019,0-.04-.016-.056-.048l-.078-.118.147-.094.078.123c.016.027.024.047.019.063A.087.087,0,0,1,18.067,14.04Z" transform="translate(-11.613 -12.154)"/><path d="M18.451,14.3l-.658.016H17.78v.008l.064.177.118,0,.083.236-.091.07.064.178.529-.41Zm-.3.356-.055-.163.288-.011Z" transform="translate(-11.575 -12.056)"/><path d="M18.653,15.142a.46.46,0,0,0-.07-.236.21.21,0,0,0-.209-.067l-.161.019a.224.224,0,0,0-.19.107.566.566,0,0,0-.011.248.468.468,0,0,0,.074.244.274.274,0,0,0,.214.036l.11-.013-.035-.315-.118.011.016.131c-.048,0-.08,0-.091-.016a.185.185,0,0,1-.032-.091.225.225,0,0,1,.008-.11.124.124,0,0,1,.1-.043l.1-.013a.184.184,0,0,1,.111,0c.023.015.035.055.043.118a.315.315,0,0,1,0,.083.062.062,0,0,1-.055.043l.024.189c.09-.011.149-.047.165-.11A.611.611,0,0,0,18.653,15.142Z" transform="translate(-11.544 -11.982)"/><path d="M18.18,15.721a.055.055,0,0,1,.063-.027l.418.047.02-.185-.423-.048a.231.231,0,0,0-.169.032.488.488,0,0,0-.078.252.419.419,0,0,0,.019.23.192.192,0,0,0,.166.086l.422.048.019-.185-.41-.044c-.039,0-.059-.016-.067-.031a.192.192,0,0,1,0-.083A.266.266,0,0,1,18.18,15.721Z" transform="translate(-11.544 -11.89)"/><path d="M18.017,16.021l-.064.182.091.07-.083.236-.114,0-.064.182.671.011.094-.268Zm.075.493.059-.161.228.173Z" transform="translate(-11.574 -11.82)"/><path d="M18.3,16.991l.106-.185-.481,0-.193-.115-.094.163.193.114.225.431.11-.185-.147-.238,0,0Z" transform="translate(-11.594 -11.728)"/></g><g transform="translate(3.567 3.511)"><path d="M15.572,14.581l.225.686h.726l-.588.426.225.69-.588-.426-.584.426.225-.69-.588-.426h.726Z" transform="translate(-14.578 -14.53)" fill="#fdde19"/><path d="M16.577,15.258h-.762l-.233-.722-.236.722h-.762l.615.449-.236.723.62-.447.615.447-.236-.723Zm-.995.687-.556.4.213-.651-.56-.4h.691l.213-.655.209.655h.687l-.557.4.214.651Z" transform="translate(-14.584 -14.536)"/></g><g transform="translate(2.086 2.284)"><path d="M16.7,13.906v.02a.19.19,0,0,0-.017.027.207.207,0,0,0-.035-.078.3.3,0,0,0-.043-.052.584.584,0,0,1-.048-.047.436.436,0,0,1-.063-.118c0-.008-.013-.013-.019-.008s-.013.011-.013.019a.561.561,0,0,0,.072.126.451.451,0,0,0,.048.051c.015.016.027.028.039.043a.221.221,0,0,1,.032.06.664.664,0,0,0-.2-.171h0l-.013-.008,0-.011a.848.848,0,0,0-.04-.134c-.016-.04-.032-.072-.043-.094a.315.315,0,0,1-.019-.048s.019-.008.11.04a.473.473,0,0,1,.166.13.526.526,0,0,1,.086.193A.28.28,0,0,1,16.7,13.906Z" transform="translate(-12.863 -13.453)" fill="#009a3c"/><path d="M17.97,15.883a.832.832,0,0,0,.11-.115.73.73,0,0,0,.114-.288.805.805,0,0,0,.024-.415.02.02,0,0,0-.019-.011c-.016,0-.027.011-.043.032v0a.485.485,0,0,1-.1.1.165.165,0,0,0,0-.078.158.158,0,0,0,0-.019.278.278,0,0,1-.016-.111.039.039,0,0,0,0-.019c0-.019.008-.035-.008-.043s-.027-.019-.094.07a.475.475,0,0,0-.035.059h0c0-.019,0-.035-.008-.055A.356.356,0,0,1,17.9,14.9a.291.291,0,0,0,.019-.072.778.778,0,0,0,.028-.3.2.2,0,0,0-.009-.055.435.435,0,0,1,0-.123c0-.019,0-.035.008-.051s.008-.048-.008-.056a.026.026,0,0,0-.016,0,.208.208,0,0,0-.064.094.292.292,0,0,0-.011.139c0,.023,0,.047,0,.078a.682.682,0,0,1-.015.126,1.235,1.235,0,0,0,0-.13,1.92,1.92,0,0,0-.078-.364c-.013-.032-.02-.055-.028-.075a.854.854,0,0,1-.035-.11c0-.008,0-.011,0-.016,0-.027-.008-.043-.024-.047a.023.023,0,0,0-.019.008.526.526,0,0,0-.086.24l-.115-.1c-.052-.043-.083-.07-.107-.091a.082.082,0,0,0-.013-.063.085.085,0,0,0-.067-.048.108.108,0,0,0-.078,0,.035.035,0,0,0-.024.013.371.371,0,0,0,0-.059.461.461,0,0,0-.268-.348c-.064-.031-.126-.059-.15-.031s0,.043.016.083c.011.023.027.051.043.09a.986.986,0,0,1,.035.118.477.477,0,0,0-.1-.035c-.04,0-.072,0-.1,0a.159.159,0,0,1-.094-.02.147.147,0,0,1-.072-.051c-.015-.011-.027-.027-.043-.016s-.019.028.008.088a1.011,1.011,0,0,0,.064.126,1,1,0,0,0,.067.1.957.957,0,0,1-.107.008c-.048,0-.08-.008-.1-.008s-.043-.008-.051.011,0,.035.07.091a1.189,1.189,0,0,0,.166.1.823.823,0,0,0,.335.1.1.1,0,0,0,.032.064.108.108,0,0,0,.086.035H17a.089.089,0,0,0,.074-.04.06.06,0,0,0,.016-.027.3.3,0,0,1,.032.035.048.048,0,0,1,.016.02l-.008,0,0,0h0a.058.058,0,0,0-.007.023.542.542,0,0,0-.013.123.438.438,0,0,0,.027.1l-.015-.008-.017,0c-.059-.027-.086-.04-.1-.02s0,.028.007.044.04.063.08.118a.521.521,0,0,0,.165.169.318.318,0,0,0,.048.019.134.134,0,0,0,.051.013.348.348,0,0,0,.044.011.243.243,0,0,1,.05.02.385.385,0,0,1,.139.086c.008.019.019.043.027.063-.032-.027-.07-.055-.094-.039s-.019.043-.011.094c.008.027.011.059.019.1s0,.051,0,.075a.088.088,0,0,1-.031-.016.2.2,0,0,1-.052-.051c-.011-.016-.023-.028-.039-.024a.037.037,0,0,0-.028.019.4.4,0,0,0-.011.26.39.39,0,0,0,.094.174.652.652,0,0,1,.092.139.594.594,0,0,1,.058.161.143.143,0,0,0-.058.016.178.178,0,0,0-.044.043l-.016-.008c-.027-.019-.055-.035-.063-.067a.086.086,0,0,1,0-.032c0-.019,0-.04-.019-.043s-.032.011-.048.035h0a.317.317,0,0,1-.048.059.316.316,0,0,0-.027.032.21.21,0,0,0,0,.134.6.6,0,0,1,.007.126.218.218,0,0,1-.027.088.215.215,0,0,0-.019.09.276.276,0,0,0,.023.107.363.363,0,0,1,.04.118l0,0c0,.016,0,.027,0,.043a.134.134,0,0,0-.024.035l-.011.027,0-.011c-.031-.115-.055-.11-.067-.11s-.016.019-.019.032,0,.019-.013.031a.168.168,0,0,1-.067.067.086.086,0,0,1-.027.016,1.093,1.093,0,0,0-.118.1h0a.1.1,0,0,0-.008-.086c-.048-.044-.163.011-.23.067a.436.436,0,0,0-.1.126c-.024.035-.032.059-.044.078a.254.254,0,0,1-.035.075.247.247,0,0,1-.059.067.189.189,0,0,0-.043.059.247.247,0,0,0-.032.123.143.143,0,0,1-.027.091c-.008.015-.027.027-.139.07-.043.019-.086.035-.13.051a.138.138,0,0,1-.032-.016.667.667,0,0,0-.169-.059.484.484,0,0,0-.2.04c-.031-.016-.059-.032-.09-.051-.072-.04-.158-.1-.241-.15a1.03,1.03,0,0,1-.249-.214,1.343,1.343,0,0,1-.1-.149.9.9,0,0,0-.165-.23.945.945,0,0,0-.091-.083c-.043-.035-.067-.043-.083-.031s0,.055.047.146a1.9,1.9,0,0,0,.1.174c.019.027.039.059.059.094a1.068,1.068,0,0,1,.1.185.7.7,0,0,1-.321-.28,1.011,1.011,0,0,1-.134-.418,1.743,1.743,0,0,1-.027-.228.777.777,0,0,0-.051-.284c-.019-.056-.11-.257-.166-.238a.032.032,0,0,0-.019.024c-.008-.016-.016-.024-.032-.024a.038.038,0,0,0-.032.024.826.826,0,0,1,.032-.134c.008-.027.016-.051.019-.07a.669.669,0,0,0,.048-.268.453.453,0,0,0-.043-.209c-.008-.008-.011-.008-.011-.008-.02,0-.024.019-.024.051a.973.973,0,0,1-.02.107.384.384,0,0,1-.063.126.364.364,0,0,0-.035.067A.748.748,0,0,0,14.06,16c.008.036.011.067.019.1a.908.908,0,0,1-.094-.327.828.828,0,0,1,.083-.4,1.29,1.29,0,0,1,.355-.447c.059-.051.115-.1.166-.142.1-.078.131-.106.115-.13s-.032-.024-.169.035a1.054,1.054,0,0,0-.313.209l-.016.019a.878.878,0,0,1,.225-.224,2.214,2.214,0,0,1,.19-.115c.056-.027.1-.048.122-.059a.543.543,0,0,0,.115-.067A.377.377,0,0,0,15,14.2a.03.03,0,0,0-.007-.019c-.017-.008-.025,0-.036.024a.425.425,0,0,1-.221.177.226.226,0,0,1-.044,0,.492.492,0,0,0-.07,0,.049.049,0,0,1-.019,0,.377.377,0,0,0-.233.091.277.277,0,0,0-.067.1c-.024.035-.048.083-.1.15l.035-.059a1.841,1.841,0,0,1,.15-.233.38.38,0,0,1,.118-.08.7.7,0,0,0,.1-.051A1.937,1.937,0,0,0,14.987,14a1.219,1.219,0,0,0,.114-.126,1.276,1.276,0,0,1,.115-.123l.008,0c.027-.028.048-.048.035-.064s0-.008-.016-.011a1,1,0,0,0-.379.149,1.578,1.578,0,0,0-.324.261.662.662,0,0,0-.047.055.294.294,0,0,1,.008-.063.232.232,0,0,1,.019-.067c.008-.024.024-.067.051-.142a.127.127,0,0,0,.016-.036.58.58,0,0,1,.067-.157.3.3,0,0,1,.048-.059c.008-.013.016-.024.008-.036a.026.026,0,0,0-.028,0c-.063.024-.374.23-.394.482v.063a.442.442,0,0,1-.023.177.3.3,0,0,1-.044.08c-.011.019-.027.043-.043.075a1.384,1.384,0,0,0-.1.252l-.011.043c0-.032.011-.063.015-.086.008-.056.016-.1.024-.174a.963.963,0,0,0,0-.174.292.292,0,0,1,.011-.094.35.35,0,0,1,.075-.131.641.641,0,0,0,.094-.153.765.765,0,0,0,.083-.288l-.008-.008-.008,0c-.011,0-.016.013-.016.02a.425.425,0,0,1-.027.067.355.355,0,0,0-.019.039.757.757,0,0,1-.11.134,1.085,1.085,0,0,0-.225.343.449.449,0,0,0-.035.171c0,.043-.008.1-.024.185a.045.045,0,0,1,0,.024.686.686,0,0,0-.075-.335s-.016-.028-.031-.052c-.032-.047-.04-.059-.056-.051s-.008.024,0,.04a.94.94,0,0,1,.019.4.722.722,0,0,1-.048.2.558.558,0,0,0-.032.174,1.333,1.333,0,0,0,.028.308c0,.007,0,.015.008.023-.016-.031-.024-.063-.036-.086a.344.344,0,0,0-.11-.182,1.309,1.309,0,0,0-.161-.106h0c-.083-.051-.094-.056-.107-.044s0,.052.064.15c.051.08.122.19.2.327a1.877,1.877,0,0,1,.134.3,1.4,1.4,0,0,1,.059.185c-.035-.02-.09-.056-.169-.1s-.1-.056-.115-.04,0,.032.02.056l.008.008a.394.394,0,0,1,.059.13.832.832,0,0,0,.032.1.685.685,0,0,0,.153.185,1.84,1.84,0,0,1,.217.214.941.941,0,0,1,.091.122.952.952,0,0,0,.1.134.548.548,0,0,0,.059.064,1.1,1.1,0,0,0-.146-.083.762.762,0,0,1-.131-.075,1.111,1.111,0,0,1-.257-.272l-.007-.013c-.028-.04-.04-.059-.06-.051,0,0-.008,0-.011.011a.707.707,0,0,0,.075.253.981.981,0,0,0,.371.457.554.554,0,0,0,.123.067,2,2,0,0,1,.3.139.963.963,0,0,1,.182.1.873.873,0,0,1-.5-.094c-.02-.013-.04-.024-.056-.032-.048-.028-.07-.043-.086-.024,0,0,0,.008,0,.016a.717.717,0,0,0,.228.256c.032.02.064.04.1.06a1.18,1.18,0,0,0,.45.118,1.551,1.551,0,0,0,.193,0,.906.906,0,0,1,.324.024c.043.016.134.048.157.059l.013,0a.559.559,0,0,1,.078.031c-.083.032-.153.059-.217.088l-.181.063a.139.139,0,0,0-.028.008c-.035.008-.09.019-.109.048h0a.04.04,0,0,0,0,.051A.172.172,0,0,0,15.1,18h0a.324.324,0,0,0,.056.007.434.434,0,0,0,.142-.031l.024-.013a1.092,1.092,0,0,0,.161-.075.9.9,0,0,1,.241-.1.407.407,0,0,0,.15.043.3.3,0,0,0,.055-.008.09.09,0,0,0,.032-.02c.016.008.035.016.059.028l.008,0a1.427,1.427,0,0,1,.142.075l.13.072a.49.49,0,0,0,.19.051H16.5c.056,0,.094-.02.107-.064a.089.089,0,0,0,0-.059h0a.108.108,0,0,0-.047-.047l-.119-.06-.122-.059h.008v0a.394.394,0,0,1,.122-.016.471.471,0,0,1,.115.024c.035.008.056.016.072.019a.191.191,0,0,0,.063.013h0a.133.133,0,0,0,.043-.008.282.282,0,0,1,.055-.013.562.562,0,0,1,.072,0h.024a.763.763,0,0,0,.189-.02.608.608,0,0,0,.15-.078c.083-.043.094-.059.086-.078s-.023-.016-.047-.013h-.016a.242.242,0,0,1-.051,0,.206.206,0,0,1,.047-.016c.048-.016.08-.027.142-.051a.838.838,0,0,0,.186-.1s.106-.083.082-.118c-.011-.016-.031-.008-.051,0l-.039.011a.28.28,0,0,1-.131,0c-.016,0-.039,0-.063,0a.376.376,0,0,0-.067-.008c.015-.013.031-.024.047-.04a.146.146,0,0,0,.044.008.1.1,0,0,0,.039-.008.127.127,0,0,0,.08-.142.03.03,0,0,0-.008-.019.866.866,0,0,1,.11-.027l.161-.036a.376.376,0,0,0,.1-.027c.064-.035.11-.115.2-.265s.091-.185.075-.2-.04,0-.114.028l-.008,0c-.024.013-.052.024-.075.035v0a.11.11,0,0,0,0-.04.173.173,0,0,1,0-.063A.18.18,0,0,1,18,16.435a.425.425,0,0,0,.032-.048s.086-.123.051-.158c-.016-.011-.035,0-.059.016a.417.417,0,0,1-.123.056c-.016,0-.032,0-.043,0a.149.149,0,0,0,.063-.04.118.118,0,0,0,.028-.153.1.1,0,0,0-.088-.035.128.128,0,0,0-.035,0c.013-.019.02-.039.032-.059A.449.449,0,0,1,17.97,15.883Zm-.013-.872a.267.267,0,0,1,.048-.051s0,.011,0,.019a.279.279,0,0,0,.013.123.158.158,0,0,1,0,.019l0,.008-.013-.024a.121.121,0,0,0-.039-.04.223.223,0,0,0-.04-.016A.268.268,0,0,1,17.957,15.011Zm-.055.07h.008a.072.072,0,0,1,.04.013.109.109,0,0,1,.031.027.151.151,0,0,1,.019.067v.048c-.011.011-.023.019-.039.035a.534.534,0,0,0-.056.051.186.186,0,0,1-.067-.08.175.175,0,0,1-.016-.1.085.085,0,0,1,.02-.043A.1.1,0,0,1,17.9,15.081Zm-.052-.311a.918.918,0,0,0,.032-.209.613.613,0,0,0,0-.083.214.214,0,0,1,.011-.122c.008-.02.013-.036.02-.052,0,.013,0,.028,0,.044a.342.342,0,0,0,0,.13.3.3,0,0,1,.007.056.815.815,0,0,1-.023.288c-.008.032-.016.048-.02.067a.335.335,0,0,0-.019.107.294.294,0,0,0,.008.063.1.1,0,0,0-.04.024c-.008,0-.011.013-.016.016a.236.236,0,0,1-.015-.1.166.166,0,0,1,0-.043v0a.166.166,0,0,1,.016-.043A1.389,1.389,0,0,0,17.851,14.77Zm-.307-.158h0a.935.935,0,0,1,.059.107c.072.146.059.169.059.169-.016.008-.091-.048-.142-.091a1.3,1.3,0,0,1-.244-.236c-.035-.051-.072-.094-.1-.131a.114.114,0,0,1-.023-.055v-.008s0,0,.011,0h.008a.534.534,0,0,1,.26.131A.467.467,0,0,1,17.544,14.612Zm-.02-.078.008.008,0,0Zm-.2-.5c.024.016.056.043.1.083s.088.078.126.118c0,.04-.011.078-.016.118-.031-.051-.067-.1-.1-.15a.7.7,0,0,0-.07-.091.014.014,0,0,0-.02,0c-.008.008-.011.016,0,.024.024.031.047.059.07.091.043.059.088.122.123.181a.862.862,0,0,0,0,.094.958.958,0,0,1-.126-.146.65.65,0,0,1-.1-.2.742.742,0,0,1-.027-.091.078.078,0,0,0,.034-.028Zm-.131-.11a.061.061,0,0,1,.032,0,.1.1,0,0,1,.075.036A.059.059,0,0,1,17.3,14a.048.048,0,0,1-.011.016c-.011.019-.032.019-.04.024a.178.178,0,0,1-.091-.032h0a.054.054,0,0,1-.024-.035C17.137,13.954,17.165,13.93,17.188,13.922Zm-.039.138a.076.076,0,0,1,0,.059.064.064,0,0,1-.048.028.067.067,0,0,1-.064-.1.089.089,0,0,1,.024-.019.139.139,0,0,1,.028-.008l.011,0A.075.075,0,0,1,17.149,14.06Zm-.332-.43c-.016-.04-.032-.072-.043-.094a.315.315,0,0,1-.019-.048s.019-.008.11.04a.419.419,0,0,1,.248.323.144.144,0,0,1,.009.059v.016c0,.013-.013.02-.017.032a.207.207,0,0,0-.035-.078.18.18,0,0,0-.043-.052.254.254,0,0,1-.048-.047.613.613,0,0,1-.063-.118c0-.008-.013-.013-.019-.008s-.013.011-.013.019a.561.561,0,0,0,.072.126A.236.236,0,0,0,17,13.85l.042.043a.36.36,0,0,1,.028.06.635.635,0,0,0-.2-.171h0l-.013-.008,0-.011A.536.536,0,0,0,16.817,13.63Zm-.3.2a.621.621,0,0,1-.07-.145.392.392,0,0,0,.07.051.2.2,0,0,0,.048.016.29.29,0,0,0,.063,0,.834.834,0,0,1,.086,0,.481.481,0,0,1,.123.048l.016.008h0a.658.658,0,0,1,.2.177.1.1,0,0,0-.047.035l-.008.008A.3.3,0,0,1,16.944,14l-.051-.024a.139.139,0,0,0-.035-.019.826.826,0,0,0-.118-.051.71.71,0,0,1-.075-.043.417.417,0,0,1-.088-.091c0-.008-.007-.008-.011-.008h-.008c-.008.008-.011.016-.008.024a.51.51,0,0,0,.094.1.422.422,0,0,0,.084.043c.027.013.063.024.118.051l.031.02c.016.008.027.016.051.027s.043.019.067.032v.019a.352.352,0,0,1-.1,0,.408.408,0,0,1-.225-.07.259.259,0,0,1-.067-.064l0,0A.776.776,0,0,1,16.522,13.826Zm-.048.2a.779.779,0,0,0,.166.107.965.965,0,0,0,.2.047.175.175,0,0,0,.048.008l-.011.036a.8.8,0,0,1-.316-.1.839.839,0,0,1-.217-.147h.013a.476.476,0,0,0,.1.008h.027a.718.718,0,0,0,.1-.008.587.587,0,0,0,.067.064.5.5,0,0,0,.241.078h.043a.4.4,0,0,0,.064,0l.008.011,0,.013a.106.106,0,0,0-.107.019v0a.583.583,0,0,1-.058-.011,1.149,1.149,0,0,1-.194-.051.56.56,0,0,1-.157-.1l-.013,0-.011,0C16.466,14.008,16.466,14.021,16.474,14.024Zm.58.268A.066.066,0,0,1,17,14.32a.076.076,0,0,1-.067-.024.1.1,0,0,1-.028-.063.08.08,0,0,1,.024-.051.072.072,0,0,1,.048-.02.077.077,0,0,1,.043.013.062.062,0,0,1,.032.027A.077.077,0,0,1,17.054,14.293Zm.044-.043a.106.106,0,0,0-.02-.064l0-.011s.011,0,.019,0H17.1a.1.1,0,0,0,.072-.043.09.09,0,0,0,0-.078.413.413,0,0,0,.067.011.7.7,0,0,0,.028.094.87.87,0,0,0,.1.209.839.839,0,0,0,.075.091.561.561,0,0,0-.276-.13l-.024-.036C17.137,14.281,17.117,14.265,17.1,14.249Zm.363.679a.238.238,0,0,0-.056-.02c-.019-.007-.031-.007-.047-.011a.195.195,0,0,1-.088-.032.465.465,0,0,1-.158-.158,1,1,0,0,1-.078-.118c.016,0,.04.016.059.024l.016.008a.294.294,0,0,0,.051.016.483.483,0,0,0,.139.153h0a.269.269,0,0,0,.094.059.318.318,0,0,1,.075.048.5.5,0,0,1,.067.072A.417.417,0,0,0,17.461,14.928Zm.15.094a.466.466,0,0,0-.123-.15.472.472,0,0,0-.083-.051.432.432,0,0,1-.086-.055.439.439,0,0,1-.174-.276.179.179,0,0,1,0-.06.939.939,0,0,0,.107.15,1.265,1.265,0,0,0,.249.246c.078.059.126.1.157.1a.039.039,0,0,0,.02-.008c.019-.015.032-.051-.048-.213-.016-.027-.032-.067-.059-.107a.968.968,0,0,1-.008-.228c0-.048.008-.094.016-.139h0a.993.993,0,0,1,.075-.24l0,.011v.016a1.076,1.076,0,0,0,.036.115c.008.019.016.043.027.075a1.815,1.815,0,0,1,.078.351,1.107,1.107,0,0,1-.031.374v.008a.2.2,0,0,0-.008.051.327.327,0,0,0,.032.15.216.216,0,0,0,.015.115.228.228,0,0,0,.08.091.567.567,0,0,0-.11.158.442.442,0,0,0-.048.2,1,1,0,0,1-.016-.123.535.535,0,0,0,.032-.153.525.525,0,0,0-.11-.379Zm.016.147a.4.4,0,0,1,.051.264V15.5c0,.027,0,.055,0,.082v0a1.733,1.733,0,0,0,.032.233c0,.011,0,.024-.008.039a.436.436,0,0,0-.031-.094.3.3,0,0,0-.064-.107.136.136,0,0,1-.051-.086.27.27,0,0,1-.008-.126.362.362,0,0,0,.008-.078.544.544,0,0,0,0-.1c0-.039-.009-.07-.013-.1a.135.135,0,0,1-.008-.064C17.544,15.094,17.587,15.121,17.627,15.169Zm-.044.655a.654.654,0,0,0-.094-.142.424.424,0,0,1-.086-.163.341.341,0,0,1,.011-.24l.013.011a.188.188,0,0,0,.055.056.244.244,0,0,0,.051.027.463.463,0,0,0-.008.064.3.3,0,0,0,0,.141.3.3,0,0,0,.055.1.289.289,0,0,1,.064.1.532.532,0,0,1,.043.165c-.008.028-.015.056-.024.083l-.011-.008,0,0A.694.694,0,0,0,17.582,15.824Zm-.051.268h0a.083.083,0,0,1,.035-.048.1.1,0,0,1,.043-.011.029.029,0,0,1,.024.008.05.05,0,0,1,.027.031.112.112,0,0,1,.009.08.063.063,0,0,1-.013.035.072.072,0,0,1-.024.032.083.083,0,0,1-.051,0,.1.1,0,0,1-.056-.063A.1.1,0,0,1,17.531,16.092Zm-.236.477a.2.2,0,0,1-.024-.1.15.15,0,0,1,.02-.078.253.253,0,0,0,.023-.094.5.5,0,0,0,0-.134.2.2,0,0,1,0-.115c0-.011.008-.016.016-.024a.454.454,0,0,0,.056-.063h0a.037.037,0,0,1,.013-.016v.008a.158.158,0,0,0,.007.035.165.165,0,0,0,.075.086l.013,0a.445.445,0,0,0-.044.086.618.618,0,0,0-.023.26c0,.043.008.072.011.094a.366.366,0,0,1,0,.1.3.3,0,0,1-.016.078H17.4a.085.085,0,0,0-.059.024c0-.011,0-.019-.008-.027v0A.536.536,0,0,0,17.295,16.569Zm.019.228a.122.122,0,0,1,.091-.067h0a.085.085,0,0,1,.024,0,.04.04,0,0,1,.027.016c.024.032-.019.1-.035.126-.04.064-.088.107-.107.1s-.011-.008-.019-.024a.123.123,0,0,1,0-.019.225.225,0,0,0,0-.048A.244.244,0,0,1,17.314,16.8Zm-.371.19c.013-.013.024-.02.035-.032.067-.059.119-.1.119-.1a.1.1,0,0,0,.027-.016c.04-.027.063-.043.075-.078a.064.064,0,0,0,.011-.032.244.244,0,0,1,.028.075.565.565,0,0,1,.019.078.186.186,0,0,0,0,.048v0a.444.444,0,0,1-.106.246.41.41,0,0,1-.072.07.468.468,0,0,1-.048.048c-.015.019-.031.035-.051.059a.056.056,0,0,1-.016.019.258.258,0,0,1-.055.067.641.641,0,0,1-.064.059h0a1.694,1.694,0,0,0-.252.051.4.4,0,0,0,.1-.09.224.224,0,0,0,.039-.083.479.479,0,0,1,.059-.115c.016-.019.028-.032.036-.043a.516.516,0,0,0,.039-.051A.667.667,0,0,0,16.94,17ZM14.229,15.95a.179.179,0,0,1,.024-.056c.008,0,.016.019.028.072s.027.118.043.177a1.988,1.988,0,0,1,.011.221.922.922,0,0,1-.008.118.385.385,0,0,0,.019.209c0,.016.013.032.016.043-.016-.019-.031-.047-.047-.07a.9.9,0,0,1-.111-.355,1.737,1.737,0,0,1-.007-.246C14.21,16.025,14.218,15.985,14.229,15.95Zm-.513-.268a2.336,2.336,0,0,0-.138-.308,3.022,3.022,0,0,0-.2-.335.994.994,0,0,1-.059-.094c.016.011.043.027.056.035h0c.091.059.139.086.158.1.051.04.063.08.1.169.016.044.035.091.064.158,0,.016.011.028.016.043a1.153,1.153,0,0,0,.055.119c.024.059.048.114.075.173l.013.008h.007a.018.018,0,0,0,.008-.024,1.916,1.916,0,0,1-.149-.433A1.153,1.153,0,0,1,13.7,15a.432.432,0,0,1,.035-.161.84.84,0,0,0,.051-.206,1.165,1.165,0,0,0-.008-.347.069.069,0,0,1,.016.023.828.828,0,0,1,.072.431,1.609,1.609,0,0,1-.016.228.833.833,0,0,0,0,.244,1.135,1.135,0,0,0,.051.206.014.014,0,0,0,.019.008c.008,0,.013-.013.008-.02a1.774,1.774,0,0,1-.048-.2.767.767,0,0,1,0-.236c0-.052.011-.107.011-.182.016-.059.024-.123.036-.182a1.8,1.8,0,0,0,.023-.189.46.46,0,0,1,.036-.158,1.133,1.133,0,0,1,.216-.332.883.883,0,0,0,.107-.13c-.016.039-.031.086-.051.134a.787.787,0,0,1-.094.146.509.509,0,0,0-.08.142.245.245,0,0,0-.011.1.963.963,0,0,1,0,.174c-.007.067-.015.115-.023.166s-.02.122-.036.233c0,.047-.007.09-.011.122,0,.048,0,.064.011.064h0c.016,0,.016,0,.019-.048a2.823,2.823,0,0,1,.072-.311,1.178,1.178,0,0,1,.1-.244.731.731,0,0,1,.044-.075.315.315,0,0,0,.043-.083.391.391,0,0,0,.027-.193v-.056a.659.659,0,0,1,.319-.426l-.011.016a1.087,1.087,0,0,0-.07.166.236.236,0,0,0-.013.04c-.027.07-.043.114-.051.138a.191.191,0,0,0-.024.075.488.488,0,0,0-.011.107,2.3,2.3,0,0,0-.171.244.02.02,0,0,0,.008.024c.008,0,.016,0,.02,0a2.03,2.03,0,0,1,.169-.248.957.957,0,0,1,.078-.088,1.381,1.381,0,0,1,.316-.256,1.321,1.321,0,0,1,.339-.147.173.173,0,0,0-.019.02l0,0a.892.892,0,0,0-.118.126c-.028.032-.052.064-.111.123a1.848,1.848,0,0,1-.379.3c-.04.024-.07.035-.094.051a.374.374,0,0,0-.126.083,1.361,1.361,0,0,0-.158.236c-.032.056-.056.1-.072.126s-.035.064-.019.075.032,0,.056-.035a.528.528,0,0,1,.051-.067c.051-.07.078-.118.1-.153a.37.37,0,0,1,.059-.091.376.376,0,0,1,.217-.083c.008,0,.011,0,.016,0a.479.479,0,0,1,.067,0,.123.123,0,0,0,.051-.008.366.366,0,0,0,.209-.142.441.441,0,0,1-.11.147.532.532,0,0,1-.107.067.635.635,0,0,0-.123.059,2.1,2.1,0,0,0-.2.114,1.088,1.088,0,0,0-.383.525.017.017,0,0,0,.008.016h0c.011,0,.016-.008.019-.016a.945.945,0,0,1,.185-.268.959.959,0,0,1,.3-.206.76.76,0,0,1,.123-.043c-.02.02-.06.056-.1.088a2.044,2.044,0,0,0-.169.142,1.357,1.357,0,0,0-.364.457.931.931,0,0,0-.083.418.746.746,0,0,0,.166.43l.016,0c.008,0,.011-.008.011-.016a.063.063,0,0,0-.011-.032.892.892,0,0,1-.043-.161.711.711,0,0,1,.059-.43.514.514,0,0,1,.035-.064.484.484,0,0,0,.067-.138.307.307,0,0,0,.016-.1.691.691,0,0,1,.019.15.709.709,0,0,1-.043.256c-.008.024-.016.048-.024.075a1.466,1.466,0,0,0-.055.316c0,.043,0,.086,0,.126a1.121,1.121,0,0,0,.008.126,1.333,1.333,0,0,0,.047.221l-.047-.059a.8.8,0,0,1-.083-.165c-.016-.04-.032-.075-.059-.131a.861.861,0,0,0-.206-.257s0,0-.043-.023C13.764,15.824,13.74,15.752,13.716,15.682ZM15.11,17.97h0a.181.181,0,0,1-.088-.035l0-.008a.671.671,0,0,1,.1,0,.242.242,0,0,1,.13.019l.019.013A.231.231,0,0,1,15.11,17.97Zm.358-.107c-.051.027-.1.051-.153.075-.008,0-.013,0-.02,0a.139.139,0,0,0-.039-.027.269.269,0,0,0-.146-.024h-.025c.008,0,.016,0,.025,0l.027-.008c.059-.019.118-.043.185-.067s.15-.059.244-.1c.024.008.043.02.063.027a.408.408,0,0,0,.04.024s0,0,.013,0A1.547,1.547,0,0,0,15.468,17.863Zm.474-.078a.078.078,0,0,1-.024.011.267.267,0,0,1-.185-.035.317.317,0,0,1-.051-.027.427.427,0,0,0-.04-.02c-.019-.011-.043-.019-.067-.032s-.075-.031-.115-.043l-.011-.008c-.024-.008-.115-.043-.163-.059a.721.721,0,0,0-.2-.027,1.239,1.239,0,0,0-.13.008c-.064,0-.126,0-.19,0a1.083,1.083,0,0,1-.438-.118.8.8,0,0,1-.094-.059.849.849,0,0,1-.209-.213.136.136,0,0,1,.035.019l.059.032a.89.89,0,0,0,.533.094.024.024,0,0,0,.019-.024c.008-.016-.011-.027-.032-.043a1.391,1.391,0,0,0-.169-.094c-.161-.083-.244-.115-.3-.139a.756.756,0,0,1-.123-.059.988.988,0,0,1-.359-.446,1.421,1.421,0,0,1-.067-.193l.008.008.008.011a1.029,1.029,0,0,0,.268.281.75.75,0,0,0,.135.083,1.238,1.238,0,0,1,.189.114c.019.013.035.028.051.04.051.04.063.048.075.032s0-.027-.013-.032l-.031-.032c-.035-.035-.091-.086-.15-.153-.035-.043-.067-.086-.1-.134s-.059-.083-.091-.123a1.989,1.989,0,0,0-.221-.217.572.572,0,0,1-.15-.177c-.013-.027-.019-.059-.032-.091a.4.4,0,0,0-.059-.142l0,0c.015.008.039.019.051.027l.2.118c.036.02.043.024.043.028a.742.742,0,0,1,.2.244c.027.051.043.091.059.126a.6.6,0,0,0,.086.169.851.851,0,0,0,.107.131c.011.016.019.039.031.059a.632.632,0,0,0,.238.248l.011,0,0-.011c0-.008,0-.013-.015-.02a.548.548,0,0,1-.147-.209.411.411,0,0,1-.019-.2,1.192,1.192,0,0,0,.008-.123,2.134,2.134,0,0,0-.013-.225c-.008-.07-.019-.126-.027-.165s-.011-.064-.011-.075a.6.6,0,0,1,.123.213.872.872,0,0,1,.055.273,2.025,2.025,0,0,0,.024.232,1.053,1.053,0,0,0,.138.431.728.728,0,0,0,.34.291.03.03,0,0,0,.031-.007c.024-.02-.008-.08-.094-.225l-.059-.1a1.832,1.832,0,0,1-.1-.165.443.443,0,0,1-.048-.1.714.714,0,0,1,.123.107.9.9,0,0,1,.161.221,1.18,1.18,0,0,0,.1.155.925.925,0,0,0,.256.217,2.663,2.663,0,0,0,.241.153c.035.024.067.04.094.059s.063.027.091.043a.4.4,0,0,1,.059.028l.032.011.016.008a.074.074,0,0,1,.039.019l0,.013Zm.631.15a.047.047,0,0,1,0,.031c-.011.036-.056.04-.078.04a.425.425,0,0,1-.161-.04.094.094,0,0,1,.031-.024.2.2,0,0,1,.134-.023A.253.253,0,0,1,16.573,17.935Zm-.15-.1c.035.016.072.035.1.051-.008,0-.016,0-.024,0a.254.254,0,0,0-.153.024c-.015.011-.032.024-.048.039-.039-.019-.074-.043-.114-.063s-.094-.056-.142-.08l-.013,0-.055-.024h0a.048.048,0,0,0-.02-.04.12.12,0,0,0-.047-.027l-.016-.008-.032-.011L15.8,17.67c-.016-.008-.035-.019-.055-.027a.308.308,0,0,1,.157-.028.387.387,0,0,1,.158.056l.04.011,0,0,.155.075h0C16.316,17.788,16.372,17.812,16.423,17.839Zm.829-.236h.016l-.056.032a.851.851,0,0,1-.142.075.648.648,0,0,1-.181.019h-.024a.462.462,0,0,0-.075,0c-.032,0-.048.011-.059.011a.114.114,0,0,1-.035.008.1.1,0,0,1-.056-.013c-.019,0-.04-.011-.075-.019a.5.5,0,0,0-.118-.024.327.327,0,0,0-.134.02h0l-.043.011c-.04-.024-.08-.04-.118-.059.035-.008.067-.024.1-.035.118-.048.138-.064.153-.083a.163.163,0,0,0,.032-.107.231.231,0,0,1,.027-.114.3.3,0,0,1,.035-.048.316.316,0,0,0,.068-.08c.019-.027.027-.051.04-.07a.244.244,0,0,1,.039-.078.472.472,0,0,1,.091-.119c.067-.055.161-.086.185-.067s0,.052-.013.107l0,.019a.665.665,0,0,1-.067.163.284.284,0,0,1-.035.047.346.346,0,0,0-.036.048.446.446,0,0,0-.063.118.255.255,0,0,1-.04.075.306.306,0,0,1-.142.11c-.024.013-.039.024-.031.04s.023.016.086,0a2.244,2.244,0,0,1,.272-.056h.008c.04,0,.067-.008.091-.008a.2.2,0,0,1,.086.008c.028.008.048.019.072.027s.019.013.032.016A.215.215,0,0,0,17.252,17.6Zm.118-.284a.454.454,0,0,0,.064.008.174.174,0,0,0,.047,0,.275.275,0,0,0,.1,0,.174.174,0,0,1,.043-.011l-.013.011-.031.032c-.008.008-.013.016-.019.019a.542.542,0,0,1-.182.091c-.06.024-.091.04-.134.056l-.091.023-.024-.011a.5.5,0,0,0-.075-.032.109.109,0,0,0-.032-.008.048.048,0,0,0,.016-.011h.008a.194.194,0,0,1,.083-.04.307.307,0,0,1,.1,0c.016,0,.027,0,.043,0a.355.355,0,0,0,.214-.064.02.02,0,0,0,.008-.024s-.008-.008-.016-.008l-.008,0a.328.328,0,0,1-.193.059l-.043,0a.355.355,0,0,0-.11,0,.328.328,0,0,0-.1.044h0c-.024.015-.048.027-.07.039h-.04a.264.264,0,0,0,.032-.027c.024-.027.039-.048.059-.07,0,0,.008-.013.016-.02s.027-.035.043-.051a.9.9,0,0,1,.146-.011C17.275,17.315,17.354,17.318,17.37,17.318Zm.059-.107a.091.091,0,0,1-.078,0,.074.074,0,0,1-.043-.059.086.086,0,0,1,.051-.1.077.077,0,0,1,.031-.008.112.112,0,0,1,.075.035l0,.008c.008,0,.011.011.016.027A.091.091,0,0,1,17.429,17.212Zm.533-.588c.027-.008.055-.024.086-.035l.008,0a.742.742,0,0,0,.078-.036c0,.013-.008.051-.078.158a.738.738,0,0,1-.193.257.378.378,0,0,1-.091.024l-.158.035c-.043.008-.083.019-.126.027h0l-.016-.016a.405.405,0,0,1,.094-.047.271.271,0,0,1,.091-.013.366.366,0,0,0,.1-.011.432.432,0,0,0,.185-.139.409.409,0,0,0,.064-.118A.014.014,0,0,0,18,16.688a.019.019,0,0,0-.024.008.336.336,0,0,1-.059.11.359.359,0,0,1-.166.126.152.152,0,0,1-.091.011.355.355,0,0,0-.106.013.475.475,0,0,0-.107.055.17.17,0,0,1,.032-.043.133.133,0,0,1,.07-.047c.016-.008.04-.016.072-.032.118-.059.292-.147.335-.257Zm-.059-.292a.335.335,0,0,0,.134-.063l.019-.008a.3.3,0,0,1-.051.11.248.248,0,0,1-.035.043.128.128,0,0,0-.036.059.208.208,0,0,0-.008.08.094.094,0,0,1,0,.035c-.008.115-.209.213-.327.268-.027.016-.051.027-.067.035a.187.187,0,0,0-.088.056.227.227,0,0,0-.035.063.106.106,0,0,0-.059,0l-.008,0a.119.119,0,0,0-.07.139.1.1,0,0,0,.047.07.248.248,0,0,1-.075.056H17.2c-.032,0-.067,0-.107,0l.016-.011a.422.422,0,0,0,.07-.075.445.445,0,0,0,.107-.209.1.1,0,0,0,.024.016.016.016,0,0,0,.011,0A.067.067,0,0,0,17.35,17a.322.322,0,0,0,.1-.11c.024-.035.07-.11.035-.158a.107.107,0,0,0-.032-.027.6.6,0,0,0,.02-.086.441.441,0,0,0-.008-.1c0-.024-.008-.051-.013-.094a.562.562,0,0,1,.024-.244.127.127,0,0,1,.016-.04.03.03,0,0,0,0,.019.138.138,0,0,0,.07.08c0,.047,0,.1-.008.149a1.115,1.115,0,0,1-.051.222c-.016.04-.019.059,0,.067s.027-.008.048-.035a.388.388,0,0,1,.05-.067.368.368,0,0,1,.056-.059.231.231,0,0,0,.04-.044.479.479,0,0,0,.051-.086.07.07,0,0,1,.031-.043.048.048,0,0,1,.048-.008A.473.473,0,0,0,17.9,16.332Zm-.044-.224c.036,0,.052.011.059.023.024.028.008.083-.019.115a.106.106,0,0,1-.091.024.063.063,0,0,1-.047-.04.092.092,0,0,1,.019-.083l.024-.024A.128.128,0,0,1,17.859,16.108Zm-.075-.008a.2.2,0,0,0-.027.027.106.106,0,0,0-.024.115.093.093,0,0,0,.064.059l0,0c-.009,0-.016,0-.024.013a.1.1,0,0,0-.048.063.413.413,0,0,1-.043.075.223.223,0,0,1-.035.04.39.39,0,0,0-.06.059c-.015.016-.023.032-.035.043a.888.888,0,0,0,.048-.2.957.957,0,0,0,.008-.142h.016a.061.061,0,0,0,.031-.008.107.107,0,0,0,.056-.086.154.154,0,0,0-.011-.1l0-.007s0-.008,0-.016c0,.023.011.039.027.043h.008c.032,0,.059-.056.1-.158a.708.708,0,0,0,.056-.145.234.234,0,0,1,.035-.091A.522.522,0,0,1,18,15.591a.287.287,0,0,0,.078-.1.363.363,0,0,0,.036-.163.016.016,0,1,0-.032,0,.335.335,0,0,1-.032.147.242.242,0,0,1-.07.094.368.368,0,0,0-.083.1.282.282,0,0,0-.04.1.839.839,0,0,1-.051.142.622.622,0,0,1-.075.138.156.156,0,0,1,0-.051c0-.016,0-.032,0-.051v-.008a.8.8,0,0,0,.024-.115c.008-.047.011-.083.016-.114a.507.507,0,0,1,.043-.186.7.7,0,0,1,.181-.224.375.375,0,0,1,.075-.067.386.386,0,0,0,.119-.123l0,0,.011-.013a.961.961,0,0,1-.031.383.676.676,0,0,1-.111.276.609.609,0,0,1-.1.11.591.591,0,0,0-.127.146A.567.567,0,0,0,17.784,16.1Z" transform="translate(-13.281 -13.457)"/><path d="M17.681,14.893a1,1,0,0,1-.027.383.733.733,0,0,1-.115.276,1.12,1.12,0,0,1-.1.11.5.5,0,0,0-.123.146.513.513,0,0,0-.044.1.2.2,0,0,0-.027.027.108.108,0,0,0-.024.115.093.093,0,0,0,.064.059l0,0a.064.064,0,0,0-.031.013.1.1,0,0,0-.048.059.277.277,0,0,1-.043.078c-.016.019-.024.027-.035.04a.39.39,0,0,0-.06.059.276.276,0,0,1-.035.043.888.888,0,0,0,.048-.2.977.977,0,0,0,.008-.146l.016,0a.061.061,0,0,0,.031-.008.106.106,0,0,0,.056-.083.161.161,0,0,0-.011-.107l0-.007,0-.013c0,.024.011.035.027.04h.008c.032,0,.059-.056.1-.158a1.166,1.166,0,0,0,.056-.145.234.234,0,0,1,.035-.091.522.522,0,0,1,.075-.091.287.287,0,0,0,.078-.1.374.374,0,0,0,.036-.163.017.017,0,0,0-.016-.016h0a.017.017,0,0,0-.016.016.362.362,0,0,1-.032.15.213.213,0,0,1-.07.091.541.541,0,0,0-.083.1.282.282,0,0,0-.04.1.839.839,0,0,1-.051.142.507.507,0,0,1-.075.138.156.156,0,0,1,0-.051c0-.016,0-.032,0-.051v-.008a.8.8,0,0,0,.024-.115c.008-.047.011-.083.016-.114a.387.387,0,0,1,.043-.186.783.783,0,0,1,.181-.228.829.829,0,0,1,.075-.063.441.441,0,0,0,.119-.123l0,0Z" transform="translate(-12.768 -13.26)" fill="#009a3c"/><path d="M17.634,16.181a.5.5,0,0,1-.078.153.7.7,0,0,1-.193.257.258.258,0,0,1-.091.024l-.158.035c-.043.008-.083.019-.126.027h0c-.008,0-.011-.011-.019-.016a.405.405,0,0,1,.094-.047.261.261,0,0,1,.091-.013.187.187,0,0,0,.1-.011.432.432,0,0,0,.185-.139.409.409,0,0,0,.064-.118.014.014,0,0,0-.008-.019.019.019,0,0,0-.024.008.336.336,0,0,1-.059.11.359.359,0,0,1-.166.126.209.209,0,0,1-.094.011.3.3,0,0,0-.1.013.358.358,0,0,0-.108.055.106.106,0,0,1,.028-.043.133.133,0,0,1,.07-.047c.016-.008.04-.016.072-.032.118-.059.292-.147.335-.257l.008,0a.754.754,0,0,1,.09-.04l0,0A.541.541,0,0,1,17.634,16.181Z" transform="translate(-12.78 -13.084)" fill="#009a3c"/><path d="M17.457,14.941l0,.008-.013-.024a.2.2,0,0,0-.039-.04.223.223,0,0,0-.04-.016.268.268,0,0,1,.027-.039.484.484,0,0,1,.043-.056V14.8a.285.285,0,0,0,.013.123A.037.037,0,0,1,17.457,14.941Z" transform="translate(-12.722 -13.276)" fill="#009a3c"/><path d="M17.455,14.993v.048a.271.271,0,0,0-.039.035.534.534,0,0,0-.056.051.165.165,0,0,1-.067-.08.2.2,0,0,1-.016-.1h0a.064.064,0,0,1,.02-.04.083.083,0,0,1,.059-.024h0a.087.087,0,0,1,.048.013.109.109,0,0,1,.031.027A.151.151,0,0,1,17.455,14.993Z" transform="translate(-12.735 -13.261)" fill="#009a3c"/><path d="M17.379,15.812c.024.028.008.083-.019.115a.116.116,0,0,1-.091.027.083.083,0,0,1-.047-.043.092.092,0,0,1,.019-.083l.027-.024h0a.1.1,0,0,1,.051-.015C17.357,15.789,17.373,15.8,17.379,15.812Z" transform="translate(-12.743 -13.138)" fill="#009a3c"/><path d="M17.375,14.432a.815.815,0,0,1-.023.288c-.008.027-.016.051-.02.067a.335.335,0,0,0-.019.107.261.261,0,0,0,.008.063.1.1,0,0,0-.04.024c-.008,0-.011.013-.016.016a.333.333,0,0,1-.015-.1c0-.02,0-.032,0-.048h0a.155.155,0,0,1,.013-.043,1.389,1.389,0,0,0,.039-.134.892.892,0,0,0,.032-.209c0-.032,0-.059,0-.083a.214.214,0,0,1,.011-.122.221.221,0,0,1,.024-.052.171.171,0,0,0-.008.044.43.43,0,0,0,0,.13A.267.267,0,0,1,17.375,14.432Z" transform="translate(-12.738 -13.355)" fill="#009a3c"/><path d="M17.4,16.034c0,.007,0,.019-.008.019a.187.187,0,0,0-.123.086.064.064,0,0,0-.011.043.288.288,0,0,1-.016.064c-.013.035-.028.051-.115.146-.032.032-.063.064-.094.1l-.013,0-.011,0a.029.029,0,0,1,0-.024c.032-.031.063-.067.094-.1.083-.088.1-.107.11-.134s.008-.04.013-.052a.118.118,0,0,1,.011-.059.24.24,0,0,1,.142-.1C17.389,16.021,17.4,16.026,17.4,16.034Z" transform="translate(-12.771 -13.106)"/><path d="M17.343,15.191a.216.216,0,0,1-.015-.115.327.327,0,0,1-.032-.15.2.2,0,0,1,.008-.051v-.008a1.107,1.107,0,0,0,.031-.374,1.815,1.815,0,0,0-.078-.351c-.011-.032-.019-.056-.027-.075a1.076,1.076,0,0,1-.036-.115v-.016l0-.011a.993.993,0,0,0-.075.24h0c-.008.044-.011.091-.016.139a.968.968,0,0,0,.008.228c.027.04.043.08.059.107.08.161.067.2.048.213a.039.039,0,0,1-.02.008c-.031,0-.078-.039-.157-.1a1.265,1.265,0,0,1-.249-.246.939.939,0,0,1-.107-.15.179.179,0,0,0,0,.06.439.439,0,0,0,.174.276.432.432,0,0,0,.086.055.472.472,0,0,1,.083.051.466.466,0,0,1,.123.15l.024.024a.525.525,0,0,1,.11.379.535.535,0,0,1-.032.153,1,1,0,0,0,.016.123.442.442,0,0,1,.048-.2.567.567,0,0,1,.11-.158A.228.228,0,0,1,17.343,15.191Zm-.086-.415h0a.016.016,0,0,1-.016-.015.786.786,0,0,1-.016-.088.525.525,0,0,1-.015-.063.5.5,0,0,1-.017-.091.305.305,0,0,1-.011-.115.154.154,0,0,1,.011-.043.075.075,0,0,0,0-.032.241.241,0,0,0,0-.075c0-.011,0-.027-.008-.043a.694.694,0,0,1-.011-.118.016.016,0,1,1,.032,0c0,.035,0,.075.008.11,0,.016.008.032.011.043a.291.291,0,0,1,0,.083.127.127,0,0,1-.008.043.063.063,0,0,0-.008.036.281.281,0,0,0,.008.1c.008.04.016.063.019.091s.008.039.016.067.011.055.016.086A.02.02,0,0,1,17.257,14.776Z" transform="translate(-12.817 -13.393)" fill="#009a3c"/><path d="M17.213,14.739a.015.015,0,0,1-.016.016h0c-.008,0-.016,0-.016-.011a.786.786,0,0,1-.016-.088c-.008-.027-.011-.047-.015-.063s-.013-.056-.017-.091a.305.305,0,0,1-.011-.115.272.272,0,0,1,.008-.043.125.125,0,0,0,.011-.035.43.43,0,0,0-.008-.072.157.157,0,0,1-.008-.047.624.624,0,0,1-.011-.115.016.016,0,1,1,.032,0,.6.6,0,0,0,.011.11.127.127,0,0,0,.008.043.513.513,0,0,1,.008.083.281.281,0,0,1-.011.043.063.063,0,0,0-.008.036.248.248,0,0,0,.011.1c0,.04.013.063.016.091a1.032,1.032,0,0,1,.032.153Z" transform="translate(-12.757 -13.374)"/><path d="M17.2,15.618a.138.138,0,0,1-.008.039.586.586,0,0,0-.027-.094.463.463,0,0,0-.067-.107.136.136,0,0,1-.051-.082.234.234,0,0,1,0-.131.7.7,0,0,1,.007-.075.587.587,0,0,0-.007-.107.615.615,0,0,0-.017-.1c0-.028-.008-.056-.008-.064s.056.024.1.072a.412.412,0,0,1,.055.264v.15C17.178,15.46,17.186,15.539,17.2,15.618Z" transform="translate(-12.77 -13.259)" fill="#009a3c"/><path d="M17.155,15.762a.119.119,0,0,1,.009.083.106.106,0,0,1-.009.032.123.123,0,0,1-.027.032.082.082,0,0,1-.051,0,.1.1,0,0,1-.056-.063.076.076,0,0,1,0-.059h0a.118.118,0,0,1,.04-.048.1.1,0,0,1,.043-.011.064.064,0,0,1,.051.039Z" transform="translate(-12.771 -13.147)" fill="#009a3c"/><path d="M17.152,15.553a.532.532,0,0,1,.043.165c-.008.028-.015.056-.024.083l-.011-.008,0,0a.888.888,0,0,0-.063-.185.864.864,0,0,0-.1-.142.382.382,0,0,1-.086-.163.341.341,0,0,1,.011-.24l.013.011a.244.244,0,0,0,.055.056.341.341,0,0,0,.048.027c0,.024,0,.043,0,.064a.3.3,0,0,0,0,.141.252.252,0,0,0,.055.1A.289.289,0,0,1,17.152,15.553Z" transform="translate(-12.787 -13.237)" fill="#009a3c"/><path d="M17.137,14.61c.072.146.055.169.055.169s-.086-.048-.138-.091a1.3,1.3,0,0,1-.244-.236c-.035-.048-.072-.094-.1-.131a.114.114,0,0,1-.023-.055v-.008s0,0,.011,0h0a.572.572,0,0,1,.372.249h0C17.1,14.543,17.121,14.578,17.137,14.61Z" transform="translate(-12.815 -13.348)" fill="#009a3c"/><path d="M17.066,14.164c-.008.04-.011.078-.016.118-.031-.051-.063-.1-.1-.15a.966.966,0,0,0-.075-.091.014.014,0,0,0-.02,0,.018.018,0,0,0,0,.024c.024.031.047.059.07.091a1.8,1.8,0,0,1,.123.185v.09a1.17,1.17,0,0,1-.123-.146.692.692,0,0,1-.1-.2.742.742,0,0,1-.027-.091.085.085,0,0,0,.039-.028l0,0c.02.016.052.043.1.083S17.027,14.124,17.066,14.164Z" transform="translate(-12.8 -13.387)" fill="#009a3c"/><path d="M17.084,14.832a.417.417,0,0,0-.075-.04.238.238,0,0,0-.056-.02.4.4,0,0,1-.047-.011.2.2,0,0,1-.048-.008.427.427,0,0,1-.04-.019.582.582,0,0,1-.158-.163,1,1,0,0,1-.078-.118c.016,0,.035.016.059.024l.016.008a.5.5,0,0,1,.051.019.5.5,0,0,0,.139.15h0a.316.316,0,0,0,.094.059.491.491,0,0,1,.075.048A.338.338,0,0,1,17.084,14.832Z" transform="translate(-12.83 -13.321)" fill="#009a3c"/><path d="M17,16.678a.1.1,0,0,1-.056.107.11.11,0,0,1-.078-.008.1.1,0,0,1-.048-.059.094.094,0,0,1,.056-.1.077.077,0,0,1,.031-.008.112.112,0,0,1,.075.035l0,0h0A.093.093,0,0,1,17,16.678Z" transform="translate(-12.797 -13.026)" fill="#009a3c"/><path d="M17,15.78l.013,0a.445.445,0,0,0-.044.086.618.618,0,0,0-.023.26c0,.043.008.075.011.094a.257.257,0,0,1,.008.1.493.493,0,0,1-.019.078h-.024a.1.1,0,0,0-.059.02.2.2,0,0,1-.008-.024v0a.536.536,0,0,0-.04-.122.2.2,0,0,1-.024-.1.129.129,0,0,1,.02-.075.433.433,0,0,0,.027-.1.742.742,0,0,0-.008-.134.166.166,0,0,1,0-.115.1.1,0,0,1,.016-.024.454.454,0,0,0,.056-.063h0a.037.037,0,0,1,.013-.016v.008a.158.158,0,0,0,.007.035A.15.15,0,0,0,17,15.78Z" transform="translate(-12.801 -13.157)" fill="#009a3c"/><path d="M17.182,16.847a.382.382,0,0,1-.043.016.406.406,0,0,1-.1.008c-.016,0-.027,0-.043-.008s-.043,0-.067,0a.737.737,0,0,0-.166-.008.9.9,0,0,0-.146.011c-.016.016-.027.032-.043.051s-.011.016-.016.02a.485.485,0,0,1-.059.07.264.264,0,0,1-.032.027h.035c.027-.011.051-.024.075-.035l0,0a.328.328,0,0,1,.1-.044.38.38,0,0,1,.114,0c.011,0,.024,0,.04,0a.328.328,0,0,0,.193-.059l.008,0c.008,0,.011,0,.016.008a.02.02,0,0,1-.008.024.379.379,0,0,1-.214.064c-.016,0-.027,0-.043,0a.307.307,0,0,0-.1,0,.267.267,0,0,0-.083.04l-.008,0-.016.008a.06.06,0,0,1,.027.008.4.4,0,0,1,.08.032l.024.011a.746.746,0,0,0,.091-.027,1.212,1.212,0,0,0,.134-.051.616.616,0,0,0,.182-.091.607.607,0,0,0,.063-.067Z" transform="translate(-12.845 -12.993)" fill="#009a3c"/><path d="M16.978,16.356c.024.032-.019.1-.035.126-.04.064-.088.107-.107.1s-.016-.008-.019-.024,0-.011,0-.024,0-.027,0-.043a.189.189,0,0,1,.023-.086c.016-.024.044-.067.091-.067h0a.1.1,0,0,1,.028,0h0A.034.034,0,0,1,16.978,16.356Z" transform="translate(-12.799 -13.063)" fill="#009a3c"/><path d="M17.578,15.946a.335.335,0,0,1-.134.063.473.473,0,0,1-.072,0,.048.048,0,0,0-.048.008.07.07,0,0,0-.031.043.479.479,0,0,1-.051.086.231.231,0,0,1-.04.044.368.368,0,0,0-.056.059.388.388,0,0,0-.05.067c-.02.027-.033.043-.048.035s-.013-.027,0-.067a1.115,1.115,0,0,0,.051-.222c0-.047.008-.1.008-.149a.138.138,0,0,1-.07-.08.03.03,0,0,1,0-.019.127.127,0,0,0-.016.04A.562.562,0,0,0,17,16.1c0,.043.008.07.013.094a.441.441,0,0,1,.008.1.6.6,0,0,1-.02.086.107.107,0,0,1,.032.027c.035.048-.011.123-.035.158a.322.322,0,0,1-.1.11.067.067,0,0,1-.028.008.016.016,0,0,1-.011,0,.1.1,0,0,1-.024-.016.445.445,0,0,1-.107.209.422.422,0,0,1-.07.075l-.016.011c.04,0,.075,0,.107,0h.047a.248.248,0,0,0,.075-.056.1.1,0,0,1-.047-.07.119.119,0,0,1,.07-.139l.008,0a.106.106,0,0,1,.059,0,.227.227,0,0,1,.035-.063.187.187,0,0,1,.088-.056c.016-.008.04-.019.067-.035.118-.056.319-.153.327-.268a.094.094,0,0,0,0-.035.208.208,0,0,1,.008-.08.128.128,0,0,1,.036-.059.248.248,0,0,0,.035-.043.3.3,0,0,0,.051-.11Zm-.139.134a.179.179,0,0,0-.118.086.091.091,0,0,0-.011.043.2.2,0,0,1-.016.067c-.013.032-.028.048-.115.139l-.094.1s0,0-.013,0l-.008,0a.016.016,0,0,1,0-.024c.028-.031.059-.067.091-.1.083-.088.1-.1.11-.131s.008-.043.013-.056a.09.09,0,0,1,.016-.059.2.2,0,0,1,.138-.1.015.015,0,0,1,.02.008C17.456,16.068,17.452,16.076,17.44,16.08Z" transform="translate(-12.822 -13.134)" fill="#009a3c"/><path d="M16.831,13.9a.048.048,0,0,1,0,.047h0l-.008.016a.052.052,0,0,1-.04.019.144.144,0,0,1-.091-.027h0a.054.054,0,0,1-.024-.035c0-.019.028-.043.051-.051a.07.07,0,0,1,.032,0h.027A.077.077,0,0,1,16.831,13.9Z" transform="translate(-12.817 -13.401)" fill="#009a3c"/><path d="M16.861,16.49a.565.565,0,0,0-.019-.078.244.244,0,0,0-.028-.075.064.064,0,0,1-.011.032c-.013.035-.035.051-.075.078a.1.1,0,0,1-.027.016s-.052.04-.119.1c-.011.011-.023.019-.035.032l0,.015a.667.667,0,0,1-.072.171.516.516,0,0,1-.039.051c-.008.011-.02.024-.036.043a.479.479,0,0,0-.059.115.224.224,0,0,1-.039.083.4.4,0,0,1-.1.09,1.694,1.694,0,0,1,.252-.051h0a.641.641,0,0,0,.064-.059.258.258,0,0,0,.055-.067.056.056,0,0,0,.016-.019c.02-.024.036-.04.051-.059a.468.468,0,0,0,.048-.048.41.41,0,0,0,.072-.07.444.444,0,0,0,.106-.246v0A.186.186,0,0,1,16.861,16.49Zm-.059-.011a.552.552,0,0,1-.118.169.228.228,0,0,1-.036.032.222.222,0,0,0-.067.067.2.2,0,0,0-.019.04.233.233,0,0,1-.027.067c-.016.027-.024.043-.032.055a.237.237,0,0,0-.032.051c-.008.016-.011.028-.016.036a.1.1,0,0,1-.023.047.257.257,0,0,1-.075.064l-.008,0a.012.012,0,0,1-.013-.011.012.012,0,0,1,0-.02.234.234,0,0,0,.067-.055.436.436,0,0,0,.019-.04.393.393,0,0,0,.016-.04.3.3,0,0,1,.032-.055l.031-.051a.4.4,0,0,0,.028-.064.182.182,0,0,1,.019-.043.277.277,0,0,1,.075-.078c.008-.008.019-.016.032-.028a.445.445,0,0,0,.114-.161.025.025,0,0,1,.024,0S16.805,16.471,16.8,16.479Z" transform="translate(-12.882 -13.063)" fill="#009a3c"/><path d="M16.906,17.193a.215.215,0,0,1-.11-.024c-.013,0-.019-.011-.032-.016s-.043-.019-.072-.027a.2.2,0,0,0-.086-.008c-.024,0-.051,0-.091.008h-.008a2.244,2.244,0,0,0-.272.056c-.064.019-.08.023-.086,0s.007-.027.031-.04a.306.306,0,0,0,.142-.11.255.255,0,0,0,.04-.075.446.446,0,0,1,.063-.118.346.346,0,0,1,.036-.048.284.284,0,0,0,.035-.047.665.665,0,0,0,.067-.163l0-.019c.016-.055.024-.094.013-.107s-.118.013-.185.067a.472.472,0,0,0-.091.119.244.244,0,0,0-.039.078c-.013.019-.02.043-.04.07a.316.316,0,0,1-.068.08.3.3,0,0,0-.035.048.231.231,0,0,0-.027.114.163.163,0,0,1-.032.107c-.016.019-.035.035-.153.083-.035.011-.067.027-.1.035.039.019.078.035.118.059l.043-.011h0a.327.327,0,0,1,.134-.02.5.5,0,0,1,.118.024c.035.008.056.016.075.019a.1.1,0,0,0,.056.013.114.114,0,0,0,.035-.008c.011,0,.027-.008.059-.011a.462.462,0,0,1,.075,0h.024a.648.648,0,0,0,.181-.019.851.851,0,0,0,.142-.075l.056-.032Zm-.77-.056a.011.011,0,0,1,0-.019c.016-.035.031-.067.043-.1,0-.016.008-.027.011-.039a.114.114,0,0,1,.024-.056.14.14,0,0,1,.035-.04c.008-.008.017-.011.024-.027a.135.135,0,0,0,.027-.067.272.272,0,0,0,.008-.04.355.355,0,0,1,.115-.158.019.019,0,0,1,.024,0,.02.02,0,0,1,0,.024.289.289,0,0,0-.1.142.3.3,0,0,1-.008.031.159.159,0,0,1-.032.083.1.1,0,0,1-.031.032.114.114,0,0,0-.028.032.141.141,0,0,0-.019.048c0,.011-.008.023-.011.039a.661.661,0,0,1-.052.107l-.011.008Zm.522.119a.5.5,0,0,0-.072,0,.792.792,0,0,0-.118.008c-.016,0-.032,0-.048,0a.58.58,0,0,1-.091,0,.64.64,0,0,1-.091,0,.016.016,0,0,1-.015-.015.017.017,0,0,1,.019-.016.662.662,0,0,0,.177,0,.155.155,0,0,0,.043,0c.032,0,.067-.008.123-.011h.072a.014.014,0,0,1,.015.016A.017.017,0,0,1,16.659,17.257Z" transform="translate(-12.936 -13.047)" fill="#009a3c"/><path d="M16.777,16.441a.02.02,0,0,1,.008.024.556.556,0,0,1-.118.169c-.013.013-.024.019-.036.032a.222.222,0,0,0-.067.067.312.312,0,0,0-.015.04c-.008.016-.013.031-.032.067s-.024.039-.032.055a.173.173,0,0,0-.032.051c-.008.016-.011.028-.016.036a.105.105,0,0,1-.023.047.2.2,0,0,1-.075.064h-.008s-.013,0-.013-.008,0-.016,0-.02a.178.178,0,0,0,.067-.055.436.436,0,0,0,.019-.04c0-.008.008-.019.016-.035a.174.174,0,0,1,.032-.059l.031-.051a.4.4,0,0,0,.028-.064.182.182,0,0,1,.019-.043.355.355,0,0,1,.075-.078c.008-.008.019-.016.032-.028a.49.49,0,0,0,.114-.161C16.761,16.441,16.769,16.441,16.777,16.441Z" transform="translate(-12.866 -13.049)"/><path d="M16.7,13.992a.076.076,0,0,1,0,.059.067.067,0,0,1-.115-.008.069.069,0,0,1,0-.07c.008,0,.016-.013.024-.016a.089.089,0,0,1,.028-.008h.015A.09.09,0,0,1,16.7,13.992Z" transform="translate(-12.831 -13.389)" fill="#009a3c"/><path d="M16.615,14.116a.083.083,0,0,1,0,.091.066.066,0,0,1-.055.027.091.091,0,0,1-.072-.024.11.11,0,0,1-.024-.063.08.08,0,0,1,.024-.051.063.063,0,0,1,.048-.016.122.122,0,0,1,.043.008A.062.062,0,0,1,16.615,14.116Z" transform="translate(-12.845 -13.371)" fill="#009a3c"/><path d="M16.623,17.148a.017.017,0,0,1-.015.016h-.072c-.051,0-.086.007-.118.011a.225.225,0,0,1-.048,0,.58.58,0,0,1-.091,0,.64.64,0,0,1-.091,0,.016.016,0,0,1-.015-.015.017.017,0,0,1,.019-.016.662.662,0,0,0,.177,0,.155.155,0,0,0,.043,0c.032,0,.067-.008.123-.011h.072A.014.014,0,0,1,16.623,17.148Z" transform="translate(-12.885 -12.954)"/><path d="M16.479,13.785h0l-.024-.013a.562.562,0,0,0-.118-.043.834.834,0,0,0-.086,0,.274.274,0,0,1-.063,0,.26.26,0,0,1-.048-.016.251.251,0,0,1-.07-.051.728.728,0,0,0,.07.15,1,1,0,0,0,.078.115v0a.55.55,0,0,0,.072.064.48.48,0,0,0,.225.075.737.737,0,0,0,.1,0v-.019a.448.448,0,0,0-.067-.032.336.336,0,0,0-.051-.027c-.008,0-.016-.013-.031-.02-.056-.027-.091-.039-.118-.051a.422.422,0,0,1-.084-.043.51.51,0,0,1-.094-.1.02.02,0,0,1,.008-.024h.008s.008,0,.011.008a.392.392,0,0,0,.088.091.261.261,0,0,0,.075.039l.122.056.032.019.051.024a.416.416,0,0,0,.064.032l.008-.011a.152.152,0,0,1,.043-.032A.612.612,0,0,0,16.479,13.785Z" transform="translate(-12.9 -13.43)" fill="#009a3c"/><path d="M16.639,14.064l-.008-.011a.4.4,0,0,1-.064,0h-.043a.475.475,0,0,1-.241-.083.321.321,0,0,1-.067-.059.668.668,0,0,1-.1.008h-.027a.476.476,0,0,1-.1-.008h-.013a.839.839,0,0,0,.217.147.8.8,0,0,0,.319.1.082.082,0,0,1,.008-.032l-.048-.013a.94.94,0,0,1-.2-.051.694.694,0,0,1-.169-.1.017.017,0,0,1,0-.024l.011,0,.013,0a.523.523,0,0,0,.161.1.819.819,0,0,0,.185.048l.063.011h0a.108.108,0,0,1,.107-.019Z" transform="translate(-12.913 -13.394)" fill="#009a3c"/><path d="M16.406,16.581a.02.02,0,0,1,0,.024.289.289,0,0,0-.1.142c0,.008,0,.019-.008.031a.147.147,0,0,1-.032.083.209.209,0,0,1-.031.032.071.071,0,0,0-.028.032.141.141,0,0,0-.019.048c0,.011-.008.023-.011.039a.463.463,0,0,1-.052.107l-.011.008-.008,0a.018.018,0,0,1-.008-.023.535.535,0,0,0,.048-.1c0-.016.008-.027.011-.039a.114.114,0,0,1,.024-.056.14.14,0,0,1,.035-.04c.008-.008.017-.011.024-.027a.121.121,0,0,0,.027-.07.251.251,0,0,0,.008-.036.332.332,0,0,1,.115-.158A.019.019,0,0,1,16.406,16.581Z" transform="translate(-12.897 -13.03)"/><path d="M16.206,17.4a.047.047,0,0,1,0,.031c-.011.036-.056.04-.083.04a.425.425,0,0,1-.157-.04A.094.094,0,0,1,16,17.405a.2.2,0,0,1,.134-.023A.442.442,0,0,1,16.206,17.4Z" transform="translate(-12.914 -12.92)" fill="#009a3c"/><path d="M16.228,17.39a.058.058,0,0,0-.024,0,.237.237,0,0,0-.153.027A.244.244,0,0,0,16,17.45c-.035-.019-.074-.039-.114-.063s-.094-.056-.142-.08l-.013,0-.055-.024v0a.047.047,0,0,0-.02-.036.12.12,0,0,0-.047-.027l-.016-.008-.032-.011a.457.457,0,0,1-.059-.027.512.512,0,0,1-.055-.028.36.36,0,0,1,.157-.024.471.471,0,0,1,.158.052.429.429,0,0,1,.04.019h0l.155.075h0c.051.024.107.051.158.078C16.158,17.355,16.193,17.371,16.228,17.39Z" transform="translate(-12.984 -12.957)" fill="#009a3c"/><path d="M15.91,17.485l.008.013,0,0a.037.037,0,0,1-.024.016.267.267,0,0,1-.185-.035.317.317,0,0,1-.051-.027.427.427,0,0,0-.04-.02c-.019-.011-.043-.019-.067-.032h0c-.04-.015-.075-.031-.115-.047l-.011,0c-.024-.008-.115-.043-.163-.059a.721.721,0,0,0-.2-.027,1.239,1.239,0,0,0-.13.008c-.064,0-.126,0-.19,0a1.03,1.03,0,0,1-.438-.115.8.8,0,0,1-.094-.059A.91.91,0,0,1,14,16.886a.136.136,0,0,1,.035.019l.059.032a.864.864,0,0,0,.533.094c.011-.008.019-.011.019-.024s-.011-.027-.032-.043a1.391,1.391,0,0,0-.169-.094c-.161-.083-.244-.115-.3-.139a.551.551,0,0,1-.123-.059.988.988,0,0,1-.359-.446,1.421,1.421,0,0,1-.067-.193l.008.008.008.011a1.083,1.083,0,0,0,.265.281.894.894,0,0,0,.139.083,1.147,1.147,0,0,1,.189.114c.019.013.035.028.051.04.051.04.063.048.075.032s0-.024-.013-.035a.163.163,0,0,1-.031-.028c-.035-.035-.091-.086-.15-.153-.035-.043-.067-.086-.1-.134s-.059-.083-.091-.123a2.336,2.336,0,0,0-.221-.217.572.572,0,0,1-.15-.177.531.531,0,0,1-.027-.091.526.526,0,0,0-.064-.142l0,0c.015.008.035.019.047.027.107.064.171.1.2.118s.043.028.048.028a.775.775,0,0,1,.2.244c.027.051.043.091.059.126a.6.6,0,0,0,.086.169.646.646,0,0,0,.107.126.366.366,0,0,0,.031.064.666.666,0,0,0,.238.248l.011,0,0-.011c0-.008,0-.013-.015-.02a.585.585,0,0,1-.15-.209.463.463,0,0,1-.016-.2,1.192,1.192,0,0,0,.008-.123,2.134,2.134,0,0,0-.013-.225h0c-.008-.067-.019-.126-.027-.165s-.011-.064-.011-.08a.693.693,0,0,1,.123.217.745.745,0,0,1,.05.273c0,.063.013.134.028.232a1.053,1.053,0,0,0,.138.431.707.707,0,0,0,.34.291.04.04,0,0,0,.031,0c.024-.027-.008-.083-.094-.225a1.083,1.083,0,0,0-.059-.1,1.832,1.832,0,0,1-.1-.165c-.016-.032-.043-.08-.051-.1a.6.6,0,0,1,.126.107.9.9,0,0,1,.161.221.914.914,0,0,0,.1.155,1,1,0,0,0,.256.221c.083.056.166.107.241.15.035.019.067.04.1.056s.056.031.088.047a.4.4,0,0,1,.059.028.247.247,0,0,0,.032.011l.016.008A.074.074,0,0,1,15.91,17.485Z" transform="translate(-13.253 -13.178)" fill="#009a3c"/><path d="M15.449,17.249l.016.008a1.339,1.339,0,0,0-.214.094,1.118,1.118,0,0,1-.158.075l-.016,0a.439.439,0,0,0-.039-.027.269.269,0,0,0-.146-.024h-.025c.008,0,.016,0,.025,0l.027-.008c.059-.019.118-.043.181-.067s.155-.059.249-.1a.456.456,0,0,0,.063.027A.2.2,0,0,0,15.449,17.249Z" transform="translate(-13.064 -12.945)" fill="#009a3c"/><path d="M15.031,17.4l.019.013a.231.231,0,0,1-.149.016h0a.181.181,0,0,1-.088-.035l0-.008c.032,0,.064,0,.1,0C14.988,17.385,15.015,17.393,15.031,17.4Z" transform="translate(-13.073 -12.92)" fill="#009a3c"/><path d="M14.875,13.833a1.48,1.48,0,0,0-.316.256.957.957,0,0,0-.078.088,1.8,1.8,0,0,0-.169.248c0,.008-.013.008-.02,0a.016.016,0,0,1-.008-.02,1.8,1.8,0,0,1,.171-.248.488.488,0,0,1,.011-.107.261.261,0,0,1,.019-.075,1.239,1.239,0,0,0,.056-.138.236.236,0,0,1,.013-.04.634.634,0,0,1,.074-.166l.013-.016a.65.65,0,0,0-.324.426V14.1a.391.391,0,0,1-.027.193.409.409,0,0,1-.043.086.425.425,0,0,0-.044.072,1.178,1.178,0,0,0-.1.244,1.885,1.885,0,0,0-.067.311c-.008.04-.008.048-.024.048h0c-.015,0-.015-.016-.011-.064,0-.032.008-.075.011-.122a2.239,2.239,0,0,1,.036-.233c.008-.051.016-.1.023-.169a.925.925,0,0,0,0-.171.245.245,0,0,1,.011-.1.4.4,0,0,1,.08-.142.787.787,0,0,0,.094-.146c.02-.048.035-.1.051-.134a.883.883,0,0,1-.107.13,1.068,1.068,0,0,0-.216.332.438.438,0,0,0-.036.158,1.8,1.8,0,0,1-.023.189,1.32,1.32,0,0,1-.036.182c0,.075-.007.13-.011.177a.8.8,0,0,0,0,.241,1.774,1.774,0,0,0,.048.2.015.015,0,0,1-.008.02c-.008,0-.019,0-.019-.008a1.135,1.135,0,0,1-.051-.206,1,1,0,0,1,0-.248,1.575,1.575,0,0,0,.016-.23.774.774,0,0,0-.072-.422l-.016-.027a1.185,1.185,0,0,1,0,.347.735.735,0,0,1-.048.206.575.575,0,0,0-.035.165,1.142,1.142,0,0,0,.032.3,1.9,1.9,0,0,0,.149.433.018.018,0,0,1-.008.024h-.007l-.013-.008c-.027-.055-.051-.114-.075-.173a1.153,1.153,0,0,1-.055-.119.178.178,0,0,0-.016-.043c-.028-.067-.048-.118-.064-.158a.333.333,0,0,0-.1-.169c-.019-.016-.064-.043-.158-.1h0c-.013-.008-.04-.027-.056-.035a.509.509,0,0,0,.059.094c.051.083.126.193.2.335a2.336,2.336,0,0,1,.138.308c.024.07.048.142.067.217.04.023.04.023.043.023a.861.861,0,0,1,.206.257,1.225,1.225,0,0,1,.059.134.876.876,0,0,0,.083.161l.047.059a1.333,1.333,0,0,1-.047-.221,1.121,1.121,0,0,1-.008-.126v-.126a1.421,1.421,0,0,1,.055-.316c.008-.027.016-.051.024-.075a.709.709,0,0,0,.043-.256.691.691,0,0,0-.019-.15c0,.027-.008.063-.016.1a.554.554,0,0,1-.067.138c-.011.019-.023.035-.035.059a.727.727,0,0,0-.059.434.672.672,0,0,0,.043.161.251.251,0,0,1,.008.032c0,.008,0,.011-.008.016a.038.038,0,0,1-.019,0,.778.778,0,0,1-.163-.43.875.875,0,0,1,.088-.418,1.265,1.265,0,0,1,.363-.457,1.59,1.59,0,0,1,.166-.142c.035-.032.078-.067.1-.088-.016,0-.052.016-.123.043a.959.959,0,0,0-.3.206.945.945,0,0,0-.185.268c0,.008-.008.016-.015.016l-.013,0-.008-.011a1.082,1.082,0,0,1,.386-.521,1.691,1.691,0,0,1,.2-.118,1.33,1.33,0,0,1,.123-.064.372.372,0,0,0,.107-.063.441.441,0,0,0,.11-.147.392.392,0,0,1-.206.142.147.147,0,0,1-.055.008.416.416,0,0,0-.064,0c-.008,0-.011,0-.019,0a.385.385,0,0,0-.217.083.444.444,0,0,0-.059.086,1.144,1.144,0,0,1-.1.158c-.016.024-.035.048-.051.067s-.04.043-.056.035-.008-.031.019-.075.04-.07.072-.122a1.278,1.278,0,0,1,.158-.241.374.374,0,0,1,.126-.083c.024-.016.055-.027.094-.051a1.848,1.848,0,0,0,.379-.3c.059-.059.083-.091.111-.123a1.306,1.306,0,0,1,.118-.126l0,0c.008-.008.016-.013.019-.02A1.321,1.321,0,0,0,14.875,13.833Z" transform="translate(-13.276 -13.435)" fill="#009a3c"/></g></g></g></svg>