<svg xmlns="http://www.w3.org/2000/svg" width="35.153" height="35.153" viewBox="0 0 35.153 35.153"><g transform="translate(0.001)"><g transform="translate(-0.001 0)"><path d="M17.455,0A17.6,17.6,0,0,0,.885,11.717H34.026A17.6,17.6,0,0,0,17.455,0Z" transform="translate(0.121)" fill="#ce1126"/><path d="M35.153,16.167a17.478,17.478,0,0,0-1.006-5.859H1.006a17.563,17.563,0,0,0,0,11.717H34.147A17.5,17.5,0,0,0,35.153,16.167Z" transform="translate(0 1.409)" fill="#fcd116"/><path d="M.885,20.616a17.575,17.575,0,0,0,33.141,0Z" transform="translate(0.121 2.819)" fill="#006b3f"/><path d="M16.2,10.308l1.452,4.474h4.707l-3.807,2.766,1.456,4.478L16.2,19.256,12.4,22.026l1.452-4.478-3.807-2.766h4.707Z" transform="translate(1.373 1.409)"/></g></g></svg>