<svg xmlns="http://www.w3.org/2000/svg" width="35.153" height="35.149" viewBox="0 0 35.153 35.149"><g transform="translate(0)"><g transform="translate(0 0)"><path d="M7.666,2.7V31.714a17.562,17.562,0,0,1,0-29.017Z" transform="translate(0 0.369)" fill="#0846ac"/><path d="M31.847,17.207a17.573,17.573,0,0,1-7.663,14.507V2.7A17.574,17.574,0,0,1,31.847,17.207Z" transform="translate(3.306 0.369)" fill="#cb0b2e"/><path d="M26.568,3.066V32.083a17.557,17.557,0,0,1-19.824,0V3.066a17.557,17.557,0,0,1,19.824,0Z" transform="translate(0.922)" fill="#fed117"/><g transform="translate(11.355 9.363)"><g transform="translate(4.107)"><path d="M14.786,8.67a.372.372,0,0,1,.043.171A.336.336,0,0,1,14.786,9c-.011-.019-.036-.051-.067-.091l0,0h-.422v1.3l.008,0a.431.431,0,0,0,.091.067.369.369,0,0,0-.075.107c-.028.051-.064.118-.094.118s-.064-.067-.091-.118a.331.331,0,0,0-.075-.107.64.64,0,0,0,.094-.067l0,0v-1.3h-.406l0,0c-.031.04-.055.072-.067.091a.34.34,0,0,1-.043-.166.368.368,0,0,1,.043-.166.774.774,0,0,0,.067.1l0,0h.406V8.382l0,0-.091-.072a.357.357,0,0,1,.332,0,.806.806,0,0,0-.091.072l-.008,0v.386h.422l0,0A.666.666,0,0,0,14.786,8.67Z" transform="translate(-13.598 -8.233)" fill="#fed117"/><path d="M14.817,8.651l-.024-.04-.015.024a.912.912,0,0,1-.076.1h-.374V8.4a.689.689,0,0,1,.106-.075l.024-.016-.04-.024a.388.388,0,0,0-.382,0L14,8.311l.023.016a.748.748,0,0,1,.1.075v.335h-.359a.543.543,0,0,1-.075-.1l-.016-.024-.019.04a.358.358,0,0,0-.056.193.354.354,0,0,0,.056.189l.019.04.016-.024a.664.664,0,0,1,.075-.107h.359V10.2a.889.889,0,0,1-.1.075L14,10.291l.035.02a.329.329,0,0,1,.072.1c.039.07.074.134.122.134s.083-.064.122-.134a.315.315,0,0,1,.067-.1l.04-.02-.024-.015a.8.8,0,0,1-.106-.075V8.942H14.7a1.271,1.271,0,0,1,.076.107l.015.024.024-.04a.391.391,0,0,0,.048-.189A.4.4,0,0,0,14.817,8.651Zm-.027.355c-.011-.019-.036-.051-.067-.091l0,0H14.3v1.3l0,0a.781.781,0,0,0,.1.067.485.485,0,0,0-.075.107c-.028.051-.064.118-.091.118s-.067-.067-.094-.118a.331.331,0,0,0-.075-.107.461.461,0,0,0,.09-.067l.008,0v-1.3h-.406l0,0c-.031.04-.055.072-.067.091a.336.336,0,0,1-.043-.161.34.34,0,0,1,.043-.166.843.843,0,0,0,.067.086l0,.008h.406V8.386l-.008,0c-.035-.032-.067-.056-.086-.072a.358.358,0,0,1,.327,0l-.091.072,0,0v.386h.422l0-.008a.7.7,0,0,0,.067-.086.307.307,0,0,1,.043.166A.3.3,0,0,1,14.79,9.005Z" transform="translate(-13.602 -8.237)"/></g><g transform="translate(0 0.635)"><g transform="translate(0.667)"><g transform="translate(0 1.159)"><path d="M20.339,10.808l-.193.382-.238-.26c-.031-.114-.09-.248-.209-.276a.079.079,0,0,0-.1.06.084.084,0,0,0,.059.1c.031,0,.059.063.083.134l-.26.323-.016,0a.087.087,0,0,0-.044.016l-.228-.19c.008-.126-.027-.3-.177-.331a.08.08,0,1,0-.035.157c.043.013.051.107.047.171l-.492.5-.1-.04v-.757A3.815,3.815,0,0,0,19.483,10,3.089,3.089,0,0,1,20.339,10.808Z" transform="translate(-9.501 -9.789)" fill="#af7e55"/><path d="M20.3,11.1v.888l-.256-.182v-.592l.173-.35A1.1,1.1,0,0,1,20.3,11.1Z" transform="translate(-9.282 -9.672)" fill="#af7e55"/><path d="M20.3,12.048v.5l-.256.209V11.87Z" transform="translate(-9.282 -9.534)" fill="#af7e55"/><path d="M19.949,11.884V12.7l-.193-.162v-.5Z" transform="translate(-9.321 -9.532)" fill="#af7e55"/><path d="M19.949,11.274v.509l-.193.158v-.88Z" transform="translate(-9.321 -9.645)" fill="#af7e55"/><path d="M19.639,11.037v.919l-.241-.17v-.45Z" transform="translate(-9.37 -9.648)" fill="#af7e55"/><path d="M19.639,12.047v.5l-.241.189v-.86Z" transform="translate(-9.37 -9.534)" fill="#af7e55"/><path d="M19.309,11.88v.844l-.209-.181v-.5Z" transform="translate(-9.411 -9.533)" fill="#af7e55"/><path d="M19.309,11.322v.45l-.209.162v-.785Z" transform="translate(-9.411 -9.633)" fill="#af7e55"/><path d="M19.007,11.169v.757l-.414-.343Z" transform="translate(-9.48 -9.63)" fill="#af7e55"/><path d="M18.985,12.045v.5l-.229.181V11.86Z" transform="translate(-9.458 -9.535)" fill="#af7e55"/><path d="M18.486,11.561a1.917,1.917,0,0,0-.986.327l.185.091.138-.268.379.316a1.678,1.678,0,0,0,.289-.466Z" transform="translate(-9.629 -9.576)" fill="#af7e55"/><path d="M20.339,12.651v8.5a2.1,2.1,0,0,1-.583-.8v-7.7l.209.174c0,.008.011.011.019.016l.059.051Z" transform="translate(-9.321 -9.427)" fill="#af7e55"/><path d="M19.68,20.377l0,.016a1.331,1.331,0,0,1-.583-.782V12.659l.272.233.308-.244v7.729Z" transform="translate(-9.411 -9.428)" fill="#af7e55"/><path d="M13.4,11.708a2.081,2.081,0,0,0-.663-.147h-.008a1.688,1.688,0,0,0,.292.466l.379-.316.134.268.185-.091A1.669,1.669,0,0,0,13.4,11.708Z" transform="translate(-10.281 -9.576)" fill="#af7e55"/><path d="M12.377,11.86v.868l-.229-.181v-.5Z" transform="translate(-10.361 -9.535)" fill="#af7e55"/><path d="M12.562,11.583l-.414.343v-.757Z" transform="translate(-10.361 -9.63)" fill="#af7e55"/><path d="M12.027,11.148v.785l-.205-.162v-.45Z" transform="translate(-10.406 -9.633)" fill="#af7e55"/><path d="M12.027,12.046v.5l-.205.181V11.88Z" transform="translate(-10.406 -9.533)" fill="#af7e55"/><path d="M11.732,11.874v.86l-.237-.189v-.5Z" transform="translate(-10.45 -9.534)" fill="#af7e55"/><path d="M11.373,12.042v.5l-.193.162v-.821Z" transform="translate(-10.494 -9.532)" fill="#af7e55"/><path d="M11.093,11.87v.884l-.257-.209v-.5Z" transform="translate(-10.54 -9.534)" fill="#af7e55"/><path d="M10.919,10.864l.174.35v.592l-.257.182V11.1A1.1,1.1,0,0,1,10.919,10.864Z" transform="translate(-10.54 -9.672)" fill="#af7e55"/><path d="M11.373,11.061v.88l-.193-.158v-.509Z" transform="translate(-10.494 -9.645)" fill="#af7e55"/><path d="M11.732,11.337v.45l-.237.17v-.919Z" transform="translate(-10.45 -9.648)" fill="#af7e55"/><path d="M12.9,10.792v.757l-.1.04-.5-.5c0-.059.008-.158.051-.171a.081.081,0,0,0,.064-.1.084.084,0,0,0-.1-.059c-.15.035-.182.2-.177.331l-.225.19a.084.084,0,0,0-.044-.016l-.015,0-.26-.323c.019-.072.051-.131.082-.134a.083.083,0,0,0,.059-.1.081.081,0,0,0-.1-.06c-.118.028-.182.163-.209.276l-.241.26-.19-.382a3.014,3.014,0,0,1,.857-.8A3.808,3.808,0,0,0,12.9,10.792Z" transform="translate(-10.519 -9.789)" fill="#af7e55"/><path d="M11.419,12.651v7.7a2.087,2.087,0,0,1-.583.8v-8.5l.3.241.056-.051a.042.042,0,0,0,.024-.016Z" transform="translate(-10.54 -9.427)" fill="#af7e55"/><path d="M11.5,20.369V12.648l.308.244.268-.233V19.61a1.3,1.3,0,0,1-.584.785.038.038,0,0,0,0-.019Z" transform="translate(-10.451 -9.428)" fill="#af7e55"/><path d="M19.888,12.789v6.644a4.575,4.575,0,0,1-.824-2.229l-.008-.072H12.98l-.011.072a4.585,4.585,0,0,1-.821,2.229V12.789l.3.241.581-.5a.079.079,0,0,0,.008-.115.082.082,0,0,0-.115-.011l-.414.355v-.979l.165-.138a1.379,1.379,0,0,0,.394.552l.048.027.311-.26.118.228.423-.209a1.534,1.534,0,0,0,1.053-.149h2a1.529,1.529,0,0,0,1.053.149l.423.209.115-.228.315.26.048-.027a1.379,1.379,0,0,0,.394-.552l.161.138v.979l-.41-.355a.087.087,0,0,0-.118.011.082.082,0,0,0,.011.115l.581.5Z" transform="translate(-10.361 -9.565)" fill="#af7e55"/><path d="M11.569,18.116l-.115-.3V19.97a.871.871,0,0,1,.166-.032v-1.7Zm5.37-6.2h-.185c.019.051.039.11.063.166h.316A1.073,1.073,0,0,1,16.939,11.915Zm-.482,0h-.1v.055l.008.016a.257.257,0,0,1,.023.032l-.055.064h.225a1.047,1.047,0,0,1-.1-.139Zm-.335.07.008-.016v-.055h-.1v.027c-.008.013-.016.019-.024.032v0a.724.724,0,0,1-.08.1h.233l-.056-.075A.146.146,0,0,0,16.122,11.985Zm-.768.1h.319c.024-.059.047-.115.063-.166h-.193A1.091,1.091,0,0,1,15.354,12.08Zm6.454,9.666c-.024-.078-.04-.138-.048-.161V11.223l0-.008a1.347,1.347,0,0,0-.178-.43,2.751,2.751,0,0,0-.607-.666,3.343,3.343,0,0,0-.386-.268l-.056-.036-.047.051a3.825,3.825,0,0,1-1.073.813l-.06.016v.943a1.953,1.953,0,0,0-1.092.43,1.183,1.183,0,0,1-.915-.122.505.505,0,0,0-.075-.028l-.013,0H15.212l-.013,0a.226.226,0,0,0-.047.016,1.222,1.222,0,0,1-.943.134,1.965,1.965,0,0,0-1.092-.43v-.943l-.059-.016a3.79,3.79,0,0,1-1.073-.813l-.048-.051-.056.036a3.19,3.19,0,0,0-.993.934,1.1,1.1,0,0,0-.107.209,1.148,1.148,0,0,0-.075.221V21.585c-.008.024-.024.083-.048.161l-.082.265.213-.174a3.524,3.524,0,0,0,.73-.825,1.409,1.409,0,0,0,.7-.639,1.116,1.116,0,0,0,.086-.185l.008-.016.011-.027.013-.043a.326.326,0,0,0,.019-.067l0-.013v-.094c0-.008.011-.011.019-.019a.97.97,0,0,0,.078-.088c.024-.027.052-.055.08-.091l0,0c.028-.043.064-.091.1-.142s.078-.123.122-.2a4.661,4.661,0,0,0,.38-.939,1.187,1.187,0,0,0,.031-.122,1.3,1.3,0,0,0,.04-.142c.048-.193.091-.4.126-.635h5.792c.035.233.08.442.127.631.011.052.023.1.034.147l.036.118A3.684,3.684,0,0,0,20,19.817a.31.31,0,0,0,.039.039.42.42,0,0,0,.067.072v.107c.024.078.052.153.08.221l.024.048a1.4,1.4,0,0,0,.741.709,3.525,3.525,0,0,0,.73.825l.214.174Zm-.214-8.92-.256.209v-.884l.256.182Zm0-1.587v.892l-.256-.182v-.592l.173-.35A1.262,1.262,0,0,1,21.594,11.239Zm-2.082-.418a3.787,3.787,0,0,0,1.041-.792,3.03,3.03,0,0,1,.86.8l-.19.382-.241-.26c-.031-.11-.09-.248-.209-.276a.086.086,0,0,0-.1.06.09.09,0,0,0,.064.1c.027.008.059.063.083.134l-.26.323c-.008,0-.013,0-.02,0a.089.089,0,0,0-.04.016l-.228-.193c.008-.123-.027-.292-.177-.327a.081.081,0,0,0-.1.063.088.088,0,0,0,.064.1c.043.008.051.1.047.166l-.492.5-.1-.04Zm1.5,1.29v-.883l.193.217v.509Zm.193.056v.821l-.193-.161v-.5Zm-.359.161v.5l-.241.189v-.859Zm-.241-.374V11.5l.241-.3v.923Zm-.335.161V11.33l.206.174v.45Zm.206.047V13l-.206-.174v-.5Zm-.6-.023.228.189v.5l-.228.181Zm-.185-.372.414-.414v.757Zm-.257.032h0a1.612,1.612,0,0,1-.292.466l-.375-.316-.134.268-.189-.091A1.917,1.917,0,0,1,19.432,11.8Zm-6.4,0a1.956,1.956,0,0,1,.663.147,1.669,1.669,0,0,1,.319.181l-.185.091L13.7,11.95l-.379.316a1.6,1.6,0,0,1-.289-.466Zm-1.124-1.771a3.913,3.913,0,0,0,1.041.792v.754l-.094.04-.5-.5c0-.059.008-.158.051-.166a.082.082,0,0,0,.06-.1.078.078,0,0,0-.1-.063c-.15.035-.182.2-.174.327l-.228.193a.084.084,0,0,0-.044-.016l-.015,0-.26-.323c.019-.072.051-.126.082-.134a.083.083,0,0,0,.059-.1.081.081,0,0,0-.1-.06c-.118.028-.177.166-.209.276l-.241.26-.19-.382A3.022,3.022,0,0,1,11.909,10.029Zm.454,2.082v-.757l.414.414Zm.228.028v.867l-.228-.181v-.5Zm-.394.189v.5L11.991,13v-.841Zm-.206-.374V11.5l.206-.174v.785Zm-.371.173V11.2l.241.3v.45Zm.241.028v.859l-.241-.189v-.5Zm-.407.169v.5l-.193.161v-.821Zm-.193-.371v-.509l.193-.217v.883Zm-.39-.715a1.262,1.262,0,0,1,.083-.232l.174.35v.592l-.257.182Zm0,1.094.257-.182v.884l-.257-.209Zm.583,8.4a2.087,2.087,0,0,1-.583.8v-8.5l.3.241.056-.051a.042.042,0,0,0,.024-.016l.208-.171Zm.648-.492c-.008.019-.016.035-.024.051a1.274,1.274,0,0,1-.466.489.038.038,0,0,0,0-.019l0-.008V13.035l.308.244.268-.233V20c0,.02-.011.04-.016.059a.3.3,0,0,0-.019.056c-.008.019-.016.035-.024.056a.775.775,0,0,0-.032.075Zm7.342-2c-.028-.106-.056-.216-.083-.339-.027-.142-.056-.292-.083-.454l-.008-.067H13.2l-.011.067c-.024.161-.051.311-.083.454-.024.123-.051.233-.078.339a4.827,4.827,0,0,1-.336.916c-.016.031-.031.063-.047.09a2.4,2.4,0,0,1-.276.431V13.039l.3.241L12.994,13l.083-.075.083-.072.083-.07a.086.086,0,0,0,.019-.1l-.008-.013a.087.087,0,0,0-.118-.011l-.024.024-.008,0-.078.072-.08.067-.224.189v-.979l.165-.134a1.418,1.418,0,0,0,.391.549l.051.027.311-.26.118.228.423-.2a1.3,1.3,0,0,0,.781-.048c.072-.027.138-.055.2-.083l.07-.023h2c.031.011.067.023.1.035l.186.078a1.343,1.343,0,0,0,.768.04l.423.2.115-.228.311.26.051-.027a1.392,1.392,0,0,0,.394-.549l.161.134v.979l-.221-.189-.08-.072-.078-.067,0,0-.027-.024a.087.087,0,0,0-.118.011l-.008.013a.081.081,0,0,0,.019.1l.08.07.083.072.086.075.332.284.3-.241v6.644c0-.008-.011-.013-.015-.02A3.828,3.828,0,0,1,19.445,18.246Zm.9,1.969-.024-.047A1.578,1.578,0,0,1,20.269,20V13.047l.268.233.308-.244v7.713l0,.016,0,.016A1.237,1.237,0,0,1,20.348,20.215Zm1.246,1.322a2.1,2.1,0,0,1-.583-.8V13.042l.209.171c0,.008.011.011.019.016l.059.051.3-.241Z" transform="translate(-10.576 -9.815)"/></g><g transform="translate(3.973)"><path d="M14.888,9.606a1.108,1.108,0,0,1-.125.153,1.511,1.511,0,0,0-.182-.169A2.029,2.029,0,0,0,14.888,9.606Z" transform="translate(-14.001 -8.686)" fill="#cb0b2e"/><path d="M15.006,9.585a.713.713,0,0,0-.71-.316.408.408,0,0,1,.185-.115,1.031,1.031,0,0,1,.276-.015h.008a.528.528,0,0,1,.075,0,.844.844,0,0,0,.086.182l.024.059C14.991,9.478,15.026,9.561,15.006,9.585Z" transform="translate(-14.04 -8.748)" fill="#cb0b2e"/><path d="M15.1,9.6a.729.729,0,0,1,.169.217.578.578,0,0,0-.43-.063.154.154,0,0,0-.072.07l-.011-.011a.8.8,0,0,0,.146-.182h0l.078,0-.024-.043.008-.013c.027-.035,0-.107-.04-.209a.247.247,0,0,0,.119.059.077.077,0,0,1,.07.043c.013.024,0,.064-.024.111l0,.011Z" transform="translate(-13.977 -8.717)"/><path d="M15.222,9.338a.043.043,0,0,1-.086,0,.043.043,0,1,1,.086,0Z" transform="translate(-13.925 -8.727)"/><path d="M15.28,9.265h-.016l-.015-.008a.533.533,0,0,0-.064-.035.129.129,0,0,0-.123.126.124.124,0,0,0,.126.123.127.127,0,0,0,.126-.123A.113.113,0,0,0,15.28,9.265Zm-.091.126a.043.043,0,1,1,.043-.043A.043.043,0,0,1,15.189,9.391Z" transform="translate(-13.935 -8.737)" fill="#fed117"/><path d="M15.266,11.868v-.99a.05.05,0,0,0-.051-.048.046.046,0,0,0-.047.048v.963a1.372,1.372,0,0,1-.667.54,2.853,2.853,0,0,0,.473-2.2.872.872,0,0,0-.146-.26.119.119,0,0,1,.064-.07c.106-.056.291.011.446.078l.039.019-.019-.039a.741.741,0,0,0-.189-.26.183.183,0,0,0,.023-.119.156.156,0,0,0,.233-.138A.185.185,0,0,0,15.4,9.3a.085.085,0,0,0,.027,0,.862.862,0,0,1,.817.26.045.045,0,0,0,.067,0,.05.05,0,0,0,0-.07.949.949,0,0,0-.9-.281c-.016,0-.028,0-.04,0a1.427,1.427,0,0,0-.56-.131.423.423,0,0,1,.418-.2,2.637,2.637,0,0,1,1.132.315,2.692,2.692,0,0,0,.276.123l-.091.07.043.04s.115.1.19.177a.421.421,0,0,1-.115.024l-.082.008.047.072a1.01,1.01,0,0,1,.11.213c-.07-.024-.11-.04-.11-.04l-.083-.035.016.086a2.607,2.607,0,0,1,.043.5.436.436,0,0,1-.09.166.382.382,0,0,0-.107.236,3.148,3.148,0,0,0,.473,1.519,1.187,1.187,0,0,1-.627-.517v-.955a.049.049,0,0,0-.047-.051.052.052,0,0,0-.051.051v.983l0,0h0a5.31,5.31,0,0,0,.221.56.769.769,0,0,1-.455-.359V10.886a.046.046,0,0,0-.047-.048.049.049,0,0,0-.051.048V12.1l.008.013.023.035-.15.185-.13-.2.011-.019.008-.013V10.886a.05.05,0,0,0-.051-.048.046.046,0,0,0-.047.048v1.183c-.008.013-.016.019-.024.032v0a.752.752,0,0,1-.431.324c.091-.19.2-.5.222-.552Z" transform="translate(-14.012 -8.783)" fill="#af7e55"/><path d="M14.806,9.145a1.715,1.715,0,0,1,.36.068.153.153,0,0,0-.1.146.138.138,0,0,0,.02.07c-.013,0-.024-.008-.04-.011C14.909,9.4,14.838,9.233,14.806,9.145Z" transform="translate(-13.971 -8.747)" fill="#af7e55"/><path d="M16.307,11.848v-.955a.049.049,0,0,0-.047-.051.052.052,0,0,0-.051.051v.987h0c0,.019.031.086.063.174h.185A1.293,1.293,0,0,1,16.307,11.848Zm-.374-1a.049.049,0,0,0-.051.048v1.156h.1V10.9A.046.046,0,0,0,15.933,10.85Zm-.332,0a.046.046,0,0,0-.047.048v1.156h.1V10.9A.05.05,0,0,0,15.6,10.85Zm-.327-.008a.048.048,0,0,0-.047.048v.963a1.146,1.146,0,0,1-.163.2h.193c.032-.08.056-.147.064-.166l0-.008v-.99A.05.05,0,0,0,15.274,10.842Zm1.839,1.673.264.055-.228-.146a.586.586,0,0,1-.11-.091.948.948,0,0,1-.174-.248,3.668,3.668,0,0,1-.3-1.244.3.3,0,0,1,.086-.173.484.484,0,0,0,.11-.209,1.911,1.911,0,0,0-.031-.442c.035.011.074.027.13.043l.083.027L16.918,10a1.006,1.006,0,0,0-.114-.272.587.587,0,0,0,.138-.044l.051-.031-.039-.048a2.778,2.778,0,0,0-.2-.2L16.9,9.3l-.088-.028a2.677,2.677,0,0,1-.355-.149A2.711,2.711,0,0,0,15.282,8.8c-.359,0-.481.182-.521.292a.957.957,0,0,0-.281.019.517.517,0,0,0-.216.134.153.153,0,0,0-.032.04.331.331,0,0,0-.048.1l-.027.09.075-.023.016-.008.016,0a.6.6,0,0,1,.634.182,3.056,3.056,0,0,1-.446-.048l-.189-.043-.032-.008-.08-.016-.023,0,.1.055.032.02.153.086a1.242,1.242,0,0,1,.521.568,2.806,2.806,0,0,1-.008,1.1,2.277,2.277,0,0,1-.256.746,1.048,1.048,0,0,1-.19.252.809.809,0,0,1-.174.142l-.24.134.272-.043a1.459,1.459,0,0,0,.69-.339.922.922,0,0,0,.088-.075.618.618,0,0,0-.032.075,1.4,1.4,0,0,1-.138.28l-.1.115-.011.016.051-.016.11-.036a.976.976,0,0,0,.564-.347l.186.28.213-.272a1,1,0,0,0,.56.339l.11.036.051.016-.016-.016L16.58,12.5a1.542,1.542,0,0,1-.134-.28c-.008-.02-.016-.044-.024-.064a.588.588,0,0,0,.072.064A1.278,1.278,0,0,0,17.113,12.515Zm-2.786-3.2a.378.378,0,0,1,.185-.119,1.015,1.015,0,0,1,.276-.015H14.8c.024,0,.051,0,.075,0a.662.662,0,0,0,.086.177c.008.024.016.043.024.064.04.094.072.177.056.2A.7.7,0,0,0,14.327,9.32Zm.84.086a.138.138,0,0,0,.02.07.137.137,0,0,0-.04-.008c-.134-.023-.209-.189-.241-.276a1.715,1.715,0,0,1,.36.068A.153.153,0,0,0,15.167,9.407Zm.155-.126a.533.533,0,0,1,.064.035l.015.008h.016a.113.113,0,0,1,.035.083.127.127,0,0,1-.126.123.124.124,0,0,1-.126-.123A.129.129,0,0,1,15.321,9.28Zm-.671.418a2.6,2.6,0,0,0,.307.016.891.891,0,0,1-.125.153A1.511,1.511,0,0,0,14.651,9.7Zm.2.193A.875.875,0,0,0,15,9.71h0l.078,0-.024-.043.008-.013c.027-.035,0-.107-.043-.209a.239.239,0,0,0,.123.056.1.1,0,0,1,.075.047c.011.024,0,.064-.028.111l0,.011.008.011a.793.793,0,0,1,.173.217.591.591,0,0,0-.433-.063.178.178,0,0,0-.072.07Zm1.606,2.162a1.293,1.293,0,0,1-.155-.206v-.955a.049.049,0,0,0-.047-.051.052.052,0,0,0-.051.051v.987h0c0,.019.031.086.063.174.019.051.039.11.063.166.032.078.064.153.1.216a.79.79,0,0,1-.351-.216,1.047,1.047,0,0,1-.1-.139V10.9a.046.046,0,0,0-.047-.048.049.049,0,0,0-.051.048v1.211l.008.016a.257.257,0,0,1,.023.032l-.055.064-.1.122-.078-.122-.056-.075a.146.146,0,0,0,.016-.02l.008-.016V10.9a.05.05,0,0,0-.051-.048.046.046,0,0,0-.047.048v1.183c-.008.013-.016.019-.024.032v0a.725.725,0,0,1-.08.1.717.717,0,0,1-.351.216c.032-.063.064-.141.1-.216.024-.059.047-.115.063-.166.032-.08.056-.147.064-.166l0-.008v-.99a.05.05,0,0,0-.051-.048.048.048,0,0,0-.047.048v.963a1.146,1.146,0,0,1-.163.2,1.091,1.091,0,0,1-.189.166,1.241,1.241,0,0,1-.316.173.73.73,0,0,0,.126-.15,1.388,1.388,0,0,0,.115-.189,3.158,3.158,0,0,0,.232-1.859.872.872,0,0,0-.146-.26.134.134,0,0,1,.064-.07c.106-.056.3.011.446.078l.039.019-.019-.039a.774.774,0,0,0-.189-.26.191.191,0,0,0,.027-.119.129.129,0,0,0,.07.02.158.158,0,0,0,.158-.158.127.127,0,0,0-.027-.086.247.247,0,0,1,.027-.008.858.858,0,0,1,.817.264.048.048,0,0,0,.067-.008.05.05,0,0,0,0-.07.949.949,0,0,0-.9-.281.13.13,0,0,0-.04.008,1.366,1.366,0,0,0-.556-.134c.043-.091.15-.2.414-.2a2.652,2.652,0,0,1,1.132.315c.1.044.19.091.276.123L16.6,9.4l.048.04s.11.1.185.177a.421.421,0,0,1-.115.024l-.082.008.047.072a1.01,1.01,0,0,1,.11.213c-.07-.024-.11-.04-.11-.04L16.6,9.86l.016.086a2.611,2.611,0,0,1,.048.5.527.527,0,0,1-.094.166.365.365,0,0,0-.107.24,4.058,4.058,0,0,0,.28,1.2,2.076,2.076,0,0,0,.11.2c.028.04.052.075.083.11a1.139,1.139,0,0,1-.28-.146A1.073,1.073,0,0,1,16.462,12.054Z" transform="translate(-14.071 -8.795)"/></g></g><g transform="translate(3.432 10.526)"><path d="M18.276,21.539a2.3,2.3,0,0,0-.746.319,6.791,6.791,0,0,1-1.153-1.878l-.2-.466.011.509a4.69,4.69,0,0,0,.639,2.052c.02.043.043.086.064.126a3.8,3.8,0,0,0-1.041.8,3.914,3.914,0,0,0-1.041-.8c.019-.04.039-.083.063-.126a4.647,4.647,0,0,0,.635-2.052l.015-.509-.2.466a6.822,6.822,0,0,1-1.151,1.878,2.354,2.354,0,0,0-.746-.319,8.14,8.14,0,0,0,2.02-3.307h.821A8.127,8.127,0,0,0,18.276,21.539Z" transform="translate(-12.952 -18.031)" fill="#af7e55"/><path d="M18.607,21.55a7.857,7.857,0,0,1-1.965-2.94l-.035-.094c-.011-.032-.024-.063-.035-.1-.032-.094-.064-.189-.091-.288l-.013-.04-.011-.035H15.341l-.008.035-.013.04c-.031.1-.059.193-.094.288a.63.63,0,0,1-.032.1l-.035.094a7.842,7.842,0,0,1-1.969,2.94l-.182.153.241.02a2.137,2.137,0,0,1,.907.355l.052.04.051-.032a4.546,4.546,0,0,0,1.03-1.46,5.558,5.558,0,0,1-.544,1.381c-.04.078-.08.153-.111.225l-.05.1.106.036a3.635,3.635,0,0,1,1.137.867l.075.083.074-.083a3.616,3.616,0,0,1,1.141-.867l.1-.036-.047-.1c-.032-.072-.072-.147-.115-.225a5.648,5.648,0,0,1-.544-1.381,4.655,4.655,0,0,0,1.03,1.46l.056.032.051-.04a2.137,2.137,0,0,1,.907-.355l.236-.02Zm-1.022.332a6.813,6.813,0,0,1-1.153-1.874l-.2-.469.011.509a4.69,4.69,0,0,0,.639,2.052c.024.043.043.086.064.126a3.8,3.8,0,0,0-1.041.8,3.84,3.84,0,0,0-1.041-.8c.019-.04.039-.083.063-.126a4.647,4.647,0,0,0,.635-2.052l.015-.509-.2.469a6.845,6.845,0,0,1-1.151,1.874,2.592,2.592,0,0,0-.746-.324,8.176,8.176,0,0,0,1.862-2.844c.011-.036.024-.067.035-.1s.024-.064.032-.094c.032-.088.063-.178.091-.265h.821c.027.086.055.177.086.265.011.031.024.067.035.094s.019.063.035.094a8.217,8.217,0,0,0,1.859,2.849A2.553,2.553,0,0,0,17.586,21.882Z" transform="translate(-13.008 -18.055)"/></g><g transform="translate(9.373 5.922)"><path d="M18.647,20.5l-.307.276-.056-.41.118-.032a.184.184,0,0,0,.169.063Z" transform="translate(-18.228 -13.14)" fill="#fed117"/><path d="M18.524,20.232c.051.02.083.064.067.094s-.064.048-.111.028a.083.083,0,0,1-.067-.1C18.425,20.228,18.476,20.216,18.524,20.232Z" transform="translate(-18.211 -13.155)" fill="#fed117"/><path d="M18.974,19.324l-.379,1.03a.2.2,0,0,0-.059-.039.159.159,0,0,0-.075-.008l.379-1.03a.3.3,0,0,0,.064.031A.226.226,0,0,0,18.974,19.324Z" transform="translate(-18.204 -13.284)" fill="#fed117"/><path d="M21.056,14.668a.185.185,0,0,0,.051-.072.18.18,0,0,0,0-.13l.075-.056L21.147,14l-.288.288.023.091a.169.169,0,0,0-.09.1.124.124,0,0,0,0,.086l-.075.016-.166.032-.157.035,0,.024s.1.6-.055.792l-.009.008.048.177v.008a.08.08,0,0,0-.035.043.125.125,0,0,0,.011.1l-.39,1.073-.064.171a.112.112,0,0,0-.074.067.13.13,0,0,0,.011.1l0,.016c-.011,0-.024,0-.035.008a.148.148,0,0,0-.11.094.176.176,0,0,0,.043.169l0,.02a.1.1,0,0,0-.075.067.112.112,0,0,0,.013.1L19.222,18.9l-.032.083a.346.346,0,0,0-.134.094.055.055,0,0,1-.015.011.7.7,0,0,0-.091.155.2.2,0,0,0-.008.024A.378.378,0,0,0,19,19.7a.189.189,0,0,0-.217.1.165.165,0,0,0,.044.165l-.008.024-.036.091L18.7,20.3l-.165.462-.059.15-.024.067-.024.063a.1.1,0,0,0-.043.052.076.076,0,0,0,0,.059l-.155.035.072.552.415-.375-.1-.126a.079.079,0,0,0,.035-.048s0-.008,0-.016a.119.119,0,0,0,0-.051l.013-.031.055-.155.028-.075.055-.153.032-.072.056-.157.035-.1L19,20.21l.035-.1.024-.064a.162.162,0,0,0,.138-.1.181.181,0,0,0-.1-.209.463.463,0,0,0,.064-.008.353.353,0,0,0,.142-.088.505.505,0,0,0,.122-.2.433.433,0,0,0-.008-.374l.383-1.038.094-.257a.116.116,0,0,0,.072-.063v0a.11.11,0,0,0,0-.078l-.013-.02.008-.019h0a.172.172,0,0,0,.142-.1.181.181,0,0,0-.043-.173l0-.016a.118.118,0,0,0,.075-.072.127.127,0,0,0-.013-.1l.418-1.14.036-.1a.118.118,0,0,0,.075-.072.153.153,0,0,0,0-.055l0,0,.048-.032.1-.075v-.011c.008-.249.469-.635.474-.639l.019-.016Zm.051-.552.02.272-.056.035a.148.148,0,0,0-.063-.043.192.192,0,0,0-.08-.008l-.019-.063Zm-.268.379a.12.12,0,0,1,.155-.067.118.118,0,0,1-.083.221A.122.122,0,0,1,20.839,14.494Zm-.193.292.067-.027.166-.072.013.008c.007,0,.011,0,.019,0l.11.225a2.877,2.877,0,0,0-.308.407.515.515,0,0,0-.086.233l-.072.082-.008,0h0l-.008,0v-.106l.011-.016A1.715,1.715,0,0,0,20.646,14.786Zm-.2-.094.1-.024.166-.032.086-.019,0,0a.165.165,0,0,0,.027.04l-.118.055-.118.048v.016a2.351,2.351,0,0,1-.048.623.228.228,0,0,1-.055.11l-.008.008v.119a.119.119,0,0,0-.064.007l-.035-.146A1.376,1.376,0,0,0,20.445,14.692ZM18.433,21.11a.1.1,0,0,1,.115-.027.114.114,0,0,1,.051.035.061.061,0,0,1,.019.059.086.086,0,0,1-.115.028A.089.089,0,0,1,18.433,21.11Zm.221.253-.311.276-.051-.41.123-.032a.133.133,0,0,0,.075.055.138.138,0,0,0,.09.008Zm.3-1.192-.072.193-.032.1L18.8,20.6l-.024.075-.059.153-.027.075-.056.15-.008.019a.139.139,0,0,0-.063-.035.129.129,0,0,0-.056-.011h-.016l0-.008.027-.072.055-.15.028-.075.047-.13.1-.276.083-.222L18.87,20v-.008a.185.185,0,0,0,.064.035.226.226,0,0,0,.07.016L19,20.073Zm.193-.24a.157.157,0,0,1-.2.055c-.086-.035-.142-.11-.118-.169a.15.15,0,0,1,.2-.056C19.119,19.792,19.171,19.872,19.151,19.931Zm.225-.506a.446.446,0,0,1-.1.171.244.244,0,0,1-.142.086.111.111,0,0,1-.072,0c-.106-.04-.142-.214-.075-.4h0a.374.374,0,0,1,.233-.256.112.112,0,0,1,.08,0C19.412,19.07,19.443,19.248,19.376,19.425Zm.422-1.543-.418,1.14a.167.167,0,0,0-.059-.039.247.247,0,0,0-.075-.013l.458-1.239a.114.114,0,0,0,.059.036.131.131,0,0,0,.035.008c.011,0,.028.008.035,0Zm.122-.193c-.011.036-.067.051-.122.04l-.016,0c-.064-.024-.1-.075-.083-.119a.093.093,0,0,1,.1-.043.13.13,0,0,1,.04.008C19.9,17.595,19.936,17.646,19.92,17.689Zm.139-.221a.1.1,0,0,1-.094.067.225.225,0,0,1-.111-.008A.237.237,0,0,1,19.8,17.5a.137.137,0,0,1-.067-.146.109.109,0,0,1,.067-.059.219.219,0,0,1,.142,0c.008,0,.016,0,.024.013A.143.143,0,0,1,20.058,17.469Zm.035-.257c-.016.04-.07.056-.13.04l-.008,0c-.059-.02-.1-.075-.083-.115a.088.088,0,0,1,.091-.048.222.222,0,0,1,.047.008C20.07,17.117,20.109,17.173,20.094,17.212Zm0-.126a.155.155,0,0,0-.059-.035.218.218,0,0,0-.067-.011h-.008l.008-.016.43-1.172a.2.2,0,0,0,.064.035.214.214,0,0,0,.07.013Zm.521-1.282a.07.07,0,0,1-.064.043.118.118,0,0,1-.075-.008c-.059-.023-.1-.074-.082-.118s.078-.055.138-.035l.019.013C20.595,15.72,20.627,15.768,20.611,15.8Zm.153-.173-.051.035-.07.051a.211.211,0,0,0-.04-.048l.07-.086V15.57a.286.286,0,0,1,.04-.138,2.418,2.418,0,0,1,.355-.485l.013-.016-.11-.228a.09.09,0,0,0,.043-.011v0l.221.284C21.147,15.058,20.78,15.385,20.764,15.631Z" transform="translate(-18.235 -14.005)"/><path d="M20.729,14.612l.225.284c-.091.075-.458.406-.474.651l-.122.086a.155.155,0,0,0-.044-.048l.075-.086v-.013c-.011-.149.281-.5.394-.626l.013-.013-.11-.228c.011,0,.027,0,.043-.011Z" transform="translate(-17.951 -13.922)" fill="#fed117"/><path d="M20.635,14.616l.11.225c-.067.075-.4.45-.394.64l-.072.082-.008,0-.016,0,0-.106a1.594,1.594,0,0,0,.11-.746l.228-.1c.008,0,.013,0,.02.008Z" transform="translate(-17.959 -13.923)" fill="#fed117"/><path d="M19.215,18.427c.11.04.142.217.078.394s-.209.292-.316.253-.142-.217-.075-.4S19.108,18.388,19.215,18.427Z" transform="translate(-18.148 -13.401)" fill="#fed117"/><path d="M19.76,16.9c.086.032.142.11.118.174a.154.154,0,0,1-.206.056c-.09-.032-.141-.111-.118-.174S19.669,16.869,19.76,16.9Z" transform="translate(-18.055 -13.611)" fill="#fed117"/><path d="M18.961,19.07c.086.032.142.107.118.171a.148.148,0,0,1-.2.051c-.086-.032-.142-.107-.118-.166A.15.15,0,0,1,18.961,19.07Z" transform="translate(-18.163 -13.314)" fill="#fed117"/><path d="M20.782,14.1l.024.272-.056.035a.2.2,0,0,0-.063-.043.2.2,0,0,0-.08-.008l-.016-.063Z" transform="translate(-17.913 -13.992)" fill="#fed117"/><path d="M20.677,14.377a.116.116,0,0,1,.072.15.115.115,0,0,1-.15.07.119.119,0,0,1-.072-.15A.116.116,0,0,1,20.677,14.377Z" transform="translate(-17.923 -13.955)" fill="#fed117"/><path d="M20.269,15.484c.059.024.1.08.083.118a.107.107,0,0,1-.139.035c-.059-.023-.1-.074-.082-.118S20.21,15.465,20.269,15.484Z" transform="translate(-17.976 -13.804)" fill="#fed117"/><path d="M19.814,16.727c.059.019.1.075.083.114s-.078.059-.138.036-.1-.075-.083-.115A.1.1,0,0,1,19.814,16.727Z" transform="translate(-18.038 -13.634)" fill="#fed117"/><path d="M19.662,17.143c.059.024.1.075.082.118s-.078.056-.138.036-.1-.075-.083-.119S19.6,17.124,19.662,17.143Z" transform="translate(-18.059 -13.577)" fill="#fed117"/><path d="M19.716,17.336l-.458,1.238a.122.122,0,0,0-.059-.039.247.247,0,0,0-.075-.013l.458-1.239a.192.192,0,0,0,.059.04A.265.265,0,0,0,19.716,17.336Z" transform="translate(-18.113 -13.557)" fill="#fed117"/><path d="M20.321,15.677l-.438,1.187a.143.143,0,0,0-.064-.035.218.218,0,0,0-.07-.011l.438-1.192a.173.173,0,0,0,.064.04A.214.214,0,0,0,20.321,15.677Z" transform="translate(-18.028 -13.784)" fill="#fed117"/><path d="M20.226,15.438v.115a.361.361,0,0,0-.064.008l-.035-.145a1.392,1.392,0,0,0,.059-.8l.355-.075h0a.331.331,0,0,0,.027.035l-.236.1V14.7c.008.169,0,.627-.1.733Z" transform="translate(-17.976 -13.931)" fill="#fed117"/></g><g transform="translate(0 5.989)"><path d="M10.773,15.175l.019-.028.016,0,0,.016,0,0,.225.581v.019a1.123,1.123,0,0,0,.032.272l0,.02a.813.813,0,0,0-.094-.139l-.289-.754Z" transform="translate(-9.893 -13.916)" fill="#067654"/><path d="M12.88,20.2a.187.187,0,0,1,.088.149l.008.19a.113.113,0,0,1-.08.118.115.115,0,0,1-.13-.027l-.126-.134a.188.188,0,0,1-.051-.153l.023-.2.111-.044Z" transform="translate(-9.634 -13.24)" fill="#067654"/><path d="M11.2,16.16a.14.14,0,0,1-.032.019l-.008,0a.032.032,0,0,1-.032,0c-.008,0-.011-.011-.016-.019l-.015.008-.016,0,.564,1.468.008.008.035.036-.024.008.533,1.38c.024.044.04.083.051.107l.011.04h-.008l0,0a.221.221,0,0,0,.027.028l.032.035-.032.016.513,1.325.107-.04-.513-1.33-.078-.213h0v0l-.115-.3H12.19V18.72l-.414-1.073-.086-.228h0l0,0-.115-.292h-.008c0-.008,0-.013,0-.016Z" transform="translate(-9.839 -13.777)" fill="#067654"/><path d="M12.338,17.836c.008.032.019.064.027.091a1.465,1.465,0,0,1,.091.446.427.427,0,0,1-.249.348l-.011.008-.086-.222h.007A.911.911,0,0,1,12.338,17.836Z" transform="translate(-9.699 -13.548)" fill="#067654"/><path d="M12.679,18.229l-.013.09c-.024.252-.035.372-.391.6l-.055-.142h0a.3.3,0,0,1,.019-.059.5.5,0,0,0,.265-.383A1.041,1.041,0,0,1,12.679,18.229Z" transform="translate(-9.684 -13.495)" fill="#067654"/><path d="M11.19,18.809a.95.95,0,0,1,1,.1A1.239,1.239,0,0,1,11.19,18.809Z" transform="translate(-9.825 -13.428)" fill="#067654"/><path d="M11.245,18.315a.981.981,0,0,1,.9.537.958.958,0,0,0-.544-.146A1.412,1.412,0,0,1,11.245,18.315Z" transform="translate(-9.817 -13.483)" fill="#067654"/><path d="M11.575,17.435a.777.777,0,0,0-.454-.115,1.226,1.226,0,0,1-.3-.327A.83.83,0,0,1,11.575,17.435Z" transform="translate(-9.875 -13.664)" fill="#067654"/><path d="M10.784,17.411a.792.792,0,0,1,.832.088A1.041,1.041,0,0,1,10.784,17.411Z" transform="translate(-9.88 -13.617)" fill="#067654"/><path d="M12.036,16.924c0,.023,0,.043-.008.067a.522.522,0,0,1-.3.489l-.059-.147v0h0v0h0v0a.679.679,0,0,1,.217-.3A.484.484,0,0,1,12.036,16.924Z" transform="translate(-9.759 -13.673)" fill="#067654"/><path d="M11.75,16.587a.719.719,0,0,0,.024.07,1.4,1.4,0,0,1,.075.364.774.774,0,0,0-.2.268l-.083-.225h0A.716.716,0,0,1,11.75,16.587Z" transform="translate(-9.774 -13.719)" fill="#067654"/><path d="M11.081,16.073c.008,0,.016.011.024.016a.9.9,0,0,1-.737-.1.7.7,0,0,1,.28-.059A.662.662,0,0,0,11.081,16.073Z" transform="translate(-9.937 -13.809)" fill="#067654"/><path d="M10.4,15.6a.787.787,0,0,1,.679.454A.84.84,0,0,1,10.4,15.6Z" transform="translate(-9.933 -13.854)" fill="#067654"/><path d="M11.17,15.891a.621.621,0,0,1,.3-.332.3.3,0,0,1,0,.064c-.011.206-.019.3-.327.5A.585.585,0,0,1,11.17,15.891Z" transform="translate(-9.833 -13.86)" fill="#067654"/><path d="M11.077,15.959a1.321,1.321,0,0,1-.019-.217.715.715,0,0,1,.146-.5.31.31,0,0,0,.02.063,1.5,1.5,0,0,1,.075.348.658.658,0,0,0-.186.292l-.015.007Z" transform="translate(-9.843 -13.904)" fill="#067654"/><path d="M10.808,15.1c-.008-.04-.024-.1-.04-.174a.816.816,0,0,0-.016-.2.847.847,0,0,1,.127-.471.665.665,0,0,1,.145.5A.526.526,0,0,1,10.808,15.1Z" transform="translate(-9.885 -14.038)" fill="#067654"/><path d="M10.505,14.813a2.2,2.2,0,0,0,.185.257c0,.019.008.043.013.067v.011l0,.024a.331.331,0,0,1,0,.056c-.342.019-.564-.386-.631-.529A.988.988,0,0,1,10.505,14.813Z" transform="translate(-9.977 -13.977)" fill="#067654"/><path d="M10.345,14.14a.818.818,0,0,1,.4.592,1.222,1.222,0,0,0,.02.224,1.742,1.742,0,0,1-.024.186c-.008-.008-.016-.02-.024-.028a.43.43,0,0,0-.2-.272A.947.947,0,0,1,10.345,14.14Z" transform="translate(-9.943 -14.054)" fill="#067654"/><path d="M13.386,21.165a.254.254,0,0,0-.114-.2l-.147-.091-.016-.013v0l-.228-.592-.086-.221-.036-.1-.134-.35-.019-.052a1.08,1.08,0,0,0,.166-.118.63.63,0,0,0,.268-.537c0-.047.008-.094.016-.15l.008-.055-.056.019a1.121,1.121,0,0,0-.166.094.271.271,0,0,0-.031.016,1.277,1.277,0,0,0-.044-.24c-.016-.048-.031-.1-.047-.158s-.028-.088-.044-.139l-.011-.047-.04.031a.6.6,0,0,0-.181.233,1.093,1.093,0,0,0-.1.379l-.067-.177-.217-.572-.075-.19,0-.008L12,17.922c.023-.016.047-.032.067-.048a.558.558,0,0,0,.213-.248.723.723,0,0,0,.048-.238c0-.039.008-.082.011-.126l.008-.059-.051.024-.016.008a.908.908,0,0,0-.15.083,1.8,1.8,0,0,0-.075-.332c-.011-.039-.024-.078-.035-.122L12,16.817l-.04.032a.672.672,0,0,0-.232.442l-.028-.083-.166-.431-.075-.193-.074-.193-.016-.035a1.5,1.5,0,0,0,.165-.13.514.514,0,0,0,.15-.4c0-.039,0-.074.008-.118l.008-.059-.051.024a.606.606,0,0,0-.115.064.123.123,0,0,0-.027.016,1.648,1.648,0,0,0-.075-.316c-.011-.035-.024-.072-.035-.115l-.016-.047-.035.031a.646.646,0,0,0-.206.45l-.134-.351-.055-.15-.024-.059,0,0,.019-.013a.36.36,0,0,0,.043-.035.591.591,0,0,0,.2-.359.755.755,0,0,0-.19-.588l-.027-.032-.024.036,0,0a.805.805,0,0,0-.147.351c-.008-.019-.011-.035-.019-.051a.779.779,0,0,0-.4-.434l-.032-.011-.011.031a.881.881,0,0,0,.114.7,1.311,1.311,0,0,0-.41-.083H9.989l.019.048c.013.024.206.521.576.607a.51.51,0,0,0,.177.008h0l.019.056.024.063.142.367.039.1c-.011-.011-.027-.019-.039-.032a.706.706,0,0,0-.166-.1,1.021,1.021,0,0,0-.391-.091h-.059l.028.048a1.231,1.231,0,0,0,.26.339.951.951,0,0,0-.292.088l-.048.024.043.031a1.046,1.046,0,0,0,.458.182.731.731,0,0,0,.166,0,.7.7,0,0,0,.213-.039l.048.122.059.163.264.679.1.268a.808.808,0,0,0-.1-.1.963.963,0,0,0-.583-.209.473.473,0,0,0-.067,0h-.056l.024.048a.965.965,0,0,0,.1.149,1.173,1.173,0,0,0,.185.206,1.042,1.042,0,0,0-.185.04,1.138,1.138,0,0,0-.15.055l-.016.008-.035.02.035.023.011.008a1.29,1.29,0,0,0,.155.08,1.08,1.08,0,0,0,.583.094.648.648,0,0,0,.166-.035A.319.319,0,0,0,11.768,18h.008l.032.083.059.161.367.947a1.029,1.029,0,0,0-.533-.319,1.011,1.011,0,0,0-.166-.027,1.212,1.212,0,0,0-.173-.013h-.056l.024.048a1.25,1.25,0,0,0,.2.284.971.971,0,0,0,.139.134.586.586,0,0,0-.139.027,1.274,1.274,0,0,0-.264.086l-.056.028.048.032a1.3,1.3,0,0,0,.272.13,1.347,1.347,0,0,0,.166.048,1.172,1.172,0,0,0,.446.019.132.132,0,0,0,.036,0h0a1.022,1.022,0,0,0,.2-.056H12.4l.024.059.138.363.036.091.078.214.036.094h0l.039.11.032.075.059.153.028.072.039.1h0l-.013.08-.008.1,0,.032a.235.235,0,0,0,.067.2l.126.139a.19.19,0,0,0,.324-.139Zm-.4-2.367-.013.09a.569.569,0,0,1-.23.485c-.043.035-.1.072-.161.115l-.031-.08-.013-.027-.011-.035h0l.011-.059.009,0a.475.475,0,0,0,.26-.379A1.04,1.04,0,0,1,12.984,18.8Zm-.541-.107a.721.721,0,0,1,.185-.34c.011.032.019.064.027.091.024.083.048.161.064.228a.762.762,0,0,1,.027.217.238.238,0,0,1-.027.115.353.353,0,0,1-.1.142l0,0a1.083,1.083,0,0,1-.1.075l-.02.013-.011.008-.086-.222h.007v0A1.344,1.344,0,0,1,12.443,18.692Zm-.177-1.381c0,.027,0,.048-.008.072a.519.519,0,0,1-.3.489l-.055-.147h0v-.011a.734.734,0,0,1,.217-.3A.769.769,0,0,1,12.266,17.31Zm-.3-.375a.307.307,0,0,1,.019.067,1.259,1.259,0,0,1,.08.364.774.774,0,0,0-.2.268c0-.016-.013-.032-.016-.048l-.067-.177h0A.7.7,0,0,1,11.966,16.935Zm-.431-1.116a.763.763,0,0,1,.088-.056c0,.02,0,.04,0,.064a.491.491,0,0,1-.083.3,1,1,0,0,1-.244.2.553.553,0,0,1,.04-.233A.56.56,0,0,1,11.535,15.819Zm-.583-1.487a.322.322,0,0,1,.032-.052.656.656,0,0,1,.145.5.531.531,0,0,1-.177.316c-.013.011-.024.019-.04.032a1.412,1.412,0,0,1-.035-.177,1.1,1.1,0,0,0-.02-.2A.9.9,0,0,1,10.952,14.332Zm-.56-.182a.814.814,0,0,1,.394.576.022.022,0,0,0,0,.016,1.222,1.222,0,0,0,.02.224,1.394,1.394,0,0,1-.024.174l0,.013a.148.148,0,0,0-.02-.028.43.43,0,0,0-.2-.272A.947.947,0,0,1,10.391,14.15Zm-.3.635a.927.927,0,0,1,.426.114,2.678,2.678,0,0,0,.185.257l.013.067v.011l0,.024a.331.331,0,0,1,0,.056C10.38,15.334,10.158,14.928,10.091,14.786Zm.359,1.022a.93.93,0,0,1,.335.091,1.059,1.059,0,0,1,.166.114.792.792,0,0,1,.177.249.623.623,0,0,1-.343-.1A1.13,1.13,0,0,1,10.451,15.808Zm.5.575a.726.726,0,0,1-.166-.008,1,1,0,0,1-.366-.13.7.7,0,0,1,.28-.059.556.556,0,0,0,.086.055.686.686,0,0,0,.166.067.552.552,0,0,0,.181.02.075.075,0,0,1,.02.016A.73.73,0,0,1,10.952,16.383Zm.126-.327-.126-.331-.163-.423c0-.011.032,0,.044,0s.011,0,.019,0l.016.02.019-.024.016-.008,0,.016,0,0,.027.067v0l.013.027.185.485V15.9a1.123,1.123,0,0,0,.032.272l0,.02A.972.972,0,0,0,11.078,16.056ZM11.2,15.9a.712.712,0,0,1,.146-.5c.008.024.013.043.017.063a1.365,1.365,0,0,1,.078.348.68.68,0,0,0-.19.292l-.011.007-.02.013A1.331,1.331,0,0,1,11.2,15.9Zm-.252,1.511-.013-.016h.013a.886.886,0,0,1,.583.236.813.813,0,0,1,.155.206.661.661,0,0,0-.155-.072.792.792,0,0,0-.3-.043A1.1,1.1,0,0,1,10.952,17.409Zm.749.544a.648.648,0,0,1-.166.035,1.061,1.061,0,0,1-.583-.1.314.314,0,0,1-.059-.032.6.6,0,0,1,.059-.019.84.84,0,0,1,.583,0,.534.534,0,0,1,.166.086l.024.024A.2.2,0,0,0,11.7,17.954Zm-.166,1.108a1.478,1.478,0,0,1-.118-.166l.118.013c.06.008.115.019.166.031a.948.948,0,0,1,.576.423c.016.027.027.051.04.07a.408.408,0,0,0-.04-.024.957.957,0,0,0-.5-.122.325.325,0,0,1-.072-.056A1.284,1.284,0,0,1,11.535,19.062Zm.683.525-.051.011h0a1.183,1.183,0,0,1-.462-.019,1.317,1.317,0,0,1-.166-.051,1.023,1.023,0,0,1-.177-.083,1.064,1.064,0,0,1,.177-.056.945.945,0,0,1,.726.086.573.573,0,0,1,.094.072A.86.86,0,0,1,12.218,19.587Zm.733,1.325-.043-.11-.027-.075-.055-.142-.107-.268-.083-.222-.035-.09-.139-.359-.024-.059.032-.016-.032-.035a.16.16,0,0,1-.019-.016l-.008-.008,0-.008h.013l-.016-.04a.771.771,0,0,0-.051-.1l-.075-.2-.019-.047-.418-1.089-.02-.051.02-.008-.028-.036-.011-.008-.1-.264-.051-.126-.115-.3-.3-.773.016-.008.011,0c0,.008.011.013.019.02a.05.05,0,0,0,.032,0h.008c.011-.008.019-.016.032-.024l.181.469.166.43.016.043,0,.008v.013h0l.11.292v0h0l.091.228L11.95,18l.027.063.3.785.036.091.026.07v.016h.008l.115.3v0h0l.043.11.035.1.011.032.024.059.131.332.035.091.086.228.178.466.043.114,0,.008-.011,0Zm.3.568a.125.125,0,0,1-.13-.032L13,21.315a.188.188,0,0,1-.051-.153l.015-.111.008-.09.111-.044.011.008.146.1a.187.187,0,0,1,.088.149l.008.19A.126.126,0,0,1,13.251,21.481Z" transform="translate(-9.989 -14.064)"/><path d="M11.475,17.28l.142.372.091-.059s.083.019.083.011-.131-.391-.206-.588c-.035-.094-.051-.075-.051-.075l-.056.166-.039.055Z" transform="translate(-9.791 -13.671)"/><path d="M12.028,18.714l.106.273.036.094.047-.048L12.265,19l.078.083s-.122-.359-.051-.426c-.075.019-.173-.217-.169-.292s-.134.008-.134.008l0,.225Z" transform="translate(-9.716 -13.48)"/><path d="M10.748,15.315a.137.137,0,0,1-.139.134.134.134,0,1,1,0-.268A.137.137,0,0,1,10.748,15.315Z" transform="translate(-9.923 -13.911)"/><path d="M11.063,15.145a.133.133,0,0,1-.134.134.134.134,0,1,1,0-.268A.133.133,0,0,1,11.063,15.145Z" transform="translate(-9.879 -13.935)"/><path d="M11.156,16.353a.134.134,0,1,1-.268,0,.134.134,0,1,1,.268,0Z" transform="translate(-9.866 -13.769)"/><path d="M11.472,16.187a.134.134,0,0,1-.268,0,.134.134,0,1,1,.268,0Z" transform="translate(-9.823 -13.793)"/><circle cx="0.134" cy="0.134" r="0.134" transform="translate(1.617 4)"/><path d="M12,17.547a.136.136,0,1,1-.138-.134A.136.136,0,0,1,12,17.547Z" transform="translate(-9.751 -13.606)"/><path d="M12.16,19.006a.137.137,0,0,1-.139.134.133.133,0,0,1-.134-.134.137.137,0,0,1,.134-.139A.141.141,0,0,1,12.16,19.006Z" transform="translate(-9.73 -13.407)"/><path d="M12.476,18.835a.136.136,0,1,1-.134-.134A.137.137,0,0,1,12.476,18.835Z" transform="translate(-9.686 -13.43)"/></g><g transform="translate(2.209 10.025)"><path d="M13.637,17.736c.107.055.386.193.813.418a3.833,3.833,0,0,0-.454.454c-.072.078-.139.153-.2.217v-.032c0-.131,0-.284,0-.3v-.072l-.252.11.019-.189-.19.016h-.023a1.815,1.815,0,0,0,.185-.343C13.581,17.905,13.617,17.8,13.637,17.736Z" transform="translate(-11.739 -17.597)" fill="#af7e55"/><path d="M12.874,19.937l.032-.091-.209.059a.8.8,0,0,1,.083-.185l.088-.139-.15.067a.621.621,0,0,1-.118.036,1.679,1.679,0,0,0-.217.063c-.048.019-.091.04-.139.059a.935.935,0,0,0-.217.15.763.763,0,0,1,.214-.367.81.81,0,0,1,.56-.146l.027,0,.757-1.073.048,0-.027.236.272-.118c0,.059,0,.142,0,.217-.3.375-.849,1.124-1.042,1.408A.589.589,0,0,1,12.874,19.937Z" transform="translate(-11.92 -17.51)" fill="#cb0b2e"/><path d="M12.728,20.069l-.256.241a.058.058,0,0,1-.048.019.086.086,0,0,1-.051-.019l-.008-.008a.073.073,0,0,1,0-.1l.257-.244a.06.06,0,0,1,.043-.016.047.047,0,0,1,.027,0v0a.153.153,0,0,0,.048.091A.06.06,0,0,1,12.728,20.069Z" transform="translate(-11.876 -17.296)" fill="#cb0b2e"/><path d="M12.569,19.809l.016.011.016.016a.076.076,0,0,1-.008.091l-.257.241a.059.059,0,0,1-.047.019.087.087,0,0,1-.052-.019l-.007-.013a.062.062,0,0,1-.02-.047.1.1,0,0,1,.024-.048l.257-.244a.059.059,0,0,1,.047-.016A.077.077,0,0,1,12.569,19.809Z" transform="translate(-11.895 -17.315)" fill="#cb0b2e"/><path d="M12.2,20.025a.063.063,0,0,1-.094,0l-.013-.008a.081.081,0,0,1-.016-.051.062.062,0,0,1,.02-.047l.232-.222a.553.553,0,0,1,.08-.032l.013,0a.04.04,0,0,1,.027.016l.011.008a.072.072,0,0,1,0,.1Z" transform="translate(-11.913 -17.334)" fill="#cb0b2e"/><path d="M14.773,18.127c-.615-.327-.95-.489-.954-.489l-.052-.024-.015.056s-.013.035-.028.091c-.011.027-.019.059-.035.1s-.019.059-.035.1a1.482,1.482,0,0,1-.26.454l-.1.1.174-.016-.675.958a1.132,1.132,0,0,0-.3.019l-.047.013a.788.788,0,0,0-.11.04.181.181,0,0,0-.044.023.4.4,0,0,0-.11.083.77.77,0,0,0-.248.56l0,.107.094-.091.008-.008a.23.23,0,0,0-.008.051.137.137,0,0,0,.036.1l.007.007a.142.142,0,0,0,.1.044h.013v.016a.126.126,0,0,0,.035.094l.008.008a.154.154,0,0,0,.094.043h0l.011,0a.152.152,0,0,0,.035.115l.008.008a.129.129,0,0,0,.094.043h0a.128.128,0,0,0,.094-.039l.043-.04.075-.072.131-.126,0,0a.088.088,0,0,0,.032-.051l0,0,.016-.024c.1-.161.658-.934,1.009-1.38l-.011.11L13.972,19c.075-.07.182-.185.292-.307s.225-.249.327-.348c.027-.027.059-.051.083-.075a.266.266,0,0,1,.083-.051l.031-.008.1-.019Zm-2.552,2.183a.067.067,0,0,1-.094,0l-.013-.008a.081.081,0,0,1-.016-.051.062.062,0,0,1,.02-.047l.232-.222c.028-.011.052-.019.08-.032l.013,0h0a.149.149,0,0,1,.027.016l.008.008a.07.07,0,0,1,0,.086l-.008.013Zm.153.158a.059.059,0,0,1-.047.019.08.08,0,0,1-.052-.019l0-.013a.051.051,0,0,1-.019-.047.066.066,0,0,1,.019-.048l.244-.233.008-.011a.1.1,0,0,1,.036-.016h.015a.046.046,0,0,1,.032.008l.016.011.011.016a.056.056,0,0,1,.016.043.068.068,0,0,1-.019.048l-.016.016-.04.039Zm.252.067-.1.094a.062.062,0,0,1-.048.019.086.086,0,0,1-.051-.019l-.008-.008a.07.07,0,0,1,0-.1l.178-.169.078-.072a.055.055,0,0,1,.048-.019c.008,0,.011,0,.016,0h.007v0a.153.153,0,0,0,.048.091l-.011.019,0,.008,0,0Zm.225-.316a.614.614,0,0,1,.035-.177l.032-.091-.209.059a.8.8,0,0,1,.083-.185l.088-.139-.147.067a.79.79,0,0,1-.118.032l0,0-.044.011c-.035.008-.075.019-.114.032-.016,0-.032.011-.048.016a.089.089,0,0,1-.016,0l-.134.059a.935.935,0,0,0-.217.15.745.745,0,0,1,.217-.367.243.243,0,0,1,.072-.059.368.368,0,0,1,.043-.024,1.048,1.048,0,0,1,.11-.039c.016,0,.032,0,.048-.008a1.14,1.14,0,0,1,.284-.016l.031,0,.754-1.073.048-.008-.027.241.276-.118v.217C13.589,19.185,13.045,19.934,12.852,20.218Zm1.791-2.047a1.738,1.738,0,0,0-.153.138c-.083.083-.186.19-.3.316-.067.078-.139.153-.2.217V18.81c0-.134,0-.284,0-.3v-.072l-.252.11.019-.189-.19.016h-.023a1.476,1.476,0,0,0,.181-.343.161.161,0,0,0,.016-.04c.016-.032.027-.064.04-.091s.024-.067.032-.094a.517.517,0,0,1,.019-.059c.1.047.335.165.695.355C14.565,18.127,14.6,18.147,14.643,18.171Z" transform="translate(-11.933 -17.614)"/><g transform="translate(5.27)"><path d="M17.6,17.736c-.11.055-.386.193-.813.418a3.619,3.619,0,0,1,.45.454c.07.078.142.153.2.217v-.032c0-.131,0-.284,0-.3v-.072l.253.11-.02-.189.19.016h.019a2.1,2.1,0,0,1-.182-.343C17.656,17.905,17.62,17.8,17.6,17.736Z" transform="translate(-16.539 -17.597)" fill="#af7e55"/><path d="M18.454,19.937l-.032-.091.2.059a.514.514,0,0,0-.083-.185l-.086-.139.15.067a.661.661,0,0,0,.123.036,1.789,1.789,0,0,1,.217.063c.047.019.09.04.138.059a.823.823,0,0,1,.213.15.717.717,0,0,0-.213-.367.8.8,0,0,0-.556-.146l-.032,0-.754-1.073-.048,0,.028.236-.276-.118v.217c.3.375.843,1.124,1.041,1.408A.589.589,0,0,0,18.454,19.937Z" transform="translate(-16.449 -17.51)" fill="#cb0b2e"/><path d="M18.425,20.069l.256.241a.058.058,0,0,0,.048.019.07.07,0,0,0,.048-.019l.011-.008a.073.073,0,0,0,0-.1l-.257-.244a.064.064,0,0,0-.048-.016.07.07,0,0,0-.027,0v0a.128.128,0,0,1-.043.091A.06.06,0,0,0,18.425,20.069Z" transform="translate(-16.317 -17.296)" fill="#cb0b2e"/><path d="M18.584,19.809l-.016.011-.016.016a.053.053,0,0,0-.011.043.072.072,0,0,0,.02.048l.256.241a.054.054,0,0,0,.047.019.066.066,0,0,0,.048-.019l.008-.013a.051.051,0,0,0,.019-.047.066.066,0,0,0-.019-.048l-.257-.244a.063.063,0,0,0-.047-.016A.066.066,0,0,0,18.584,19.809Z" transform="translate(-16.3 -17.315)" fill="#cb0b2e"/><path d="M18.952,20.025a.064.064,0,0,0,.1,0l.008-.008a.067.067,0,0,0,.019-.051.065.065,0,0,0-.019-.047l-.233-.222a.773.773,0,0,0-.08-.032l-.011,0a.048.048,0,0,0-.032.016l-.008.008a.072.072,0,0,0,0,.1Z" transform="translate(-16.281 -17.334)" fill="#cb0b2e"/><path d="M19.276,19.626l-.011-.011a.291.291,0,0,0-.039-.035.46.46,0,0,0-.127-.072.251.251,0,0,0-.047-.016,1.118,1.118,0,0,0-.388-.043l-.671-.958.174.016-.1-.1a1.4,1.4,0,0,1-.26-.454c-.016-.036-.027-.067-.039-.1s-.024-.07-.032-.1a.6.6,0,0,0-.027-.091l-.016-.056-.056.024s-.335.161-.95.489l-.119.064.1.019.032.008a.285.285,0,0,1,.086.051c.024.024.052.048.083.075.1.1.225.233.327.348s.214.236.289.307l.1.088-.011-.11c.351.446.907,1.219,1.011,1.38l.015.024a.117.117,0,0,0,.036.056l.051.051.04.04.011.008h0l.091.09.059.052.008.007a.135.135,0,0,0,.086.032h0a.133.133,0,0,0,.094-.043l.008-.008a.147.147,0,0,0,.035-.115l.008,0h0a.155.155,0,0,0,.1-.043l.008-.008a.148.148,0,0,0,.035-.094c0-.008,0-.013,0-.016h.011a.127.127,0,0,0,.1-.044l.008-.007a.126.126,0,0,0,.04-.1.11.11,0,0,0-.013-.051l.013.008.094.091,0-.107A.756.756,0,0,0,19.276,19.626Zm-1.8-1.183v.072c0,.011,0,.161,0,.3v.032c-.059-.064-.131-.139-.2-.217-.115-.126-.213-.233-.3-.316-.032-.032-.06-.056-.083-.078a.7.7,0,0,0-.075-.059l.118-.064c.363-.19.6-.308.7-.355,0,.016.013.035.019.059s.02.059.032.094.024.059.04.091a.193.193,0,0,0,.011.04,1.743,1.743,0,0,0,.185.343H17.9l-.19-.016.02.189Zm1.563,2.178-.008.008a.07.07,0,0,1-.048.019.058.058,0,0,1-.048-.019L18.9,20.6l-.04-.04-.11-.107-.043-.035-.032-.032a.06.06,0,0,1-.016-.027.128.128,0,0,0,.043-.091v0a.07.07,0,0,1,.027,0,.061.061,0,0,1,.036.008l.011.011.027.024.111.107.039.035.08.075A.07.07,0,0,1,19.036,20.621Zm.153-.166-.008.013a.066.066,0,0,1-.048.019.059.059,0,0,1-.047-.019l-.1-.1-.04-.035-.11-.107,0,0a.092.092,0,0,1-.025-.048.08.08,0,0,1,.016-.043l.016-.016.016-.011a.037.037,0,0,1,.027-.008h0a.049.049,0,0,1,.047.016l.072.067.035.035.15.142a.066.066,0,0,1,.019.048A.051.051,0,0,1,19.189,20.455Zm.158-.158-.011.008a.068.068,0,0,1-.1,0l-.169-.163-.043-.039-.043-.043a.072.072,0,0,1,0-.1l.013-.008a.059.059,0,0,1,.023-.016.089.089,0,0,1,.016,0c.016.008.032.013.051.02l.028.011.016.013.217.209a.065.065,0,0,1,.019.047A.081.081,0,0,1,19.347,20.3Zm-.142-.386a.267.267,0,0,1-.043-.016.312.312,0,0,0-.048-.024c-.016-.007-.032-.011-.047-.019l-.088-.027c-.016,0-.031-.013-.048-.016s-.059-.016-.082-.019c-.052-.013-.1-.028-.123-.036l-.15-.067.086.139a.652.652,0,0,1,.088.185l-.209-.059.032.091a.614.614,0,0,1,.035.177c-.193-.284-.742-1.033-1.041-1.408v-.217l.276.118-.028-.241.048.008.754,1.073.032,0a1.047,1.047,0,0,1,.366.035.42.42,0,0,1,.048.019.338.338,0,0,1,.123.075.16.16,0,0,1,.019.016l.024.024a.691.691,0,0,1,.189.343A.823.823,0,0,0,19.205,19.91Z" transform="translate(-16.569 -17.614)"/></g></g><g transform="translate(2.833 3.819)"><g transform="translate(0.19 0.098)"><g transform="translate(0.169 3.283)"><path d="M19.061,15.129V17.4a.3.3,0,0,1-.043.15,2.39,2.39,0,0,1-1.322.915,4.877,4.877,0,0,0-1.766.942h0a4.9,4.9,0,0,0-1.768-.942,2.4,2.4,0,0,1-1.322-.915.3.3,0,0,1-.043-.15V15.129Z" transform="translate(-12.797 -15.129)" fill="#0846ac"/></g><path d="M16.009,12.241h3.243a.992.992,0,0,0-.126.265.911.911,0,0,0-.044.292v2.726H12.817V12.8a1.006,1.006,0,0,0-.169-.557h3.361Z" transform="translate(-12.648 -12.241)" fill="#cb0b2e"/></g><path d="M19.069,12.332a.087.087,0,0,0-.118.011l-.008.013H19.1ZM18.978,17.9a1.835,1.835,0,0,1-.682.6c.008.027.019.059.032.1a2.062,2.062,0,0,0,.7-.6c-.011-.048-.023-.094-.034-.147C18.991,17.875,18.983,17.891,18.978,17.9Zm-6.1-5.571-.024.024H13l-.008-.013A.087.087,0,0,0,12.875,12.332Zm-.394-.177.107.153a.7.7,0,0,1,.1.19,1.01,1.01,0,0,1,.048.177,1.252,1.252,0,0,1,.008.134V17.8a.39.39,0,0,0,.02.122.25.25,0,0,0,.035.08,1.241,1.241,0,0,0,.083.122,2.485,2.485,0,0,0,.7.573.765.765,0,0,1,.086.043,3.9,3.9,0,0,0,.5.217c.088.032.166.063.246.094l.1.035a5.848,5.848,0,0,1,.714.327,1.326,1.326,0,0,1,.174.1c.146.09.26.177.386.272.035.032.078.064.122.1l.024.019H16l.028-.019.123-.1c.125-.094.24-.182.385-.276.051-.032.111-.067.174-.1a5.614,5.614,0,0,1,.714-.327l.1-.035c.074-.032.157-.063.244-.094a4.122,4.122,0,0,0,.5-.217.557.557,0,0,1,.086-.043,2.324,2.324,0,0,0,.7-.576c.035-.048.063-.086.083-.118a.51.51,0,0,0,.035-.08A.426.426,0,0,0,19.2,17.8V12.81c0-.048,0-.091.008-.134s.016-.088.027-.126c.008-.02.013-.035.02-.051a1.094,1.094,0,0,1,.094-.19l.107-.153Zm6.62.2a1.009,1.009,0,0,0-.048.131c0,.016-.008.027-.011.039a.98.98,0,0,0-.04.281V17.8a.15.15,0,0,1-.007.055c0,.016-.013.032-.017.044a1.835,1.835,0,0,1-.682.6c-.027.015-.056.035-.088.051a3.371,3.371,0,0,1-.5.217c-.075.027-.142.055-.213.078-.094.035-.182.072-.265.1-.24.1-.43.19-.583.268-.064.036-.119.072-.174.1a4.41,4.41,0,0,0-.434.311.745.745,0,0,0-.063.047c-.024-.016-.04-.031-.064-.047a3.858,3.858,0,0,0-.438-.311c-.051-.032-.11-.067-.174-.1-.153-.078-.339-.165-.584-.268-.078-.031-.169-.067-.264-.1l-.214-.078a4.205,4.205,0,0,1-.5-.217c-.032-.02-.059-.036-.088-.051a1.846,1.846,0,0,1-.682-.6.113.113,0,0,1-.016-.04.156.156,0,0,1-.011-.059V12.81a.98.98,0,0,0-.04-.281.658.658,0,0,0-.056-.169l0,0H19.1Z" transform="translate(-12.481 -12.155)" fill="#fed117"/><g transform="translate(0.552 0.315)"><g transform="translate(0.118 0.213)"><g transform="translate(1.72 3.609)"><rect width="0.292" height="0.292" transform="matrix(0.7, -0.714, 0.714, 0.7, 0, 0.208)" fill="#fed117"/></g><g transform="translate(4.19 2.423)"><path d="M17.475,14.751a2.6,2.6,0,0,0,.73.43,3.591,3.591,0,0,0-.707.5,4.006,4.006,0,0,0-.741-.5A2.277,2.277,0,0,0,17.475,14.751Z" transform="translate(-16.757 -14.751)" fill="#fed117"/></g><g transform="translate(4.126 4.466)"><path d="M17.795,16.8a.532.532,0,0,0-.115-.011.6.6,0,0,0-.6.6.589.589,0,0,0,.11.347.6.6,0,1,1,.608-.939Z" transform="translate(-16.701 -16.549)" fill="#fed117"/></g><g transform="translate(0.719 0)"><path d="M17.4,12.963a1.478,1.478,0,0,1,.5,1.215,1.565,1.565,0,0,1-1.054,1.156c.114.291.228.521.228.521a.923.923,0,0,0-.824.7,3.812,3.812,0,0,0-.048.821,3.319,3.319,0,0,0,.027.382.545.545,0,0,0,.142.335c.1.088.238.115.308.244a.233.233,0,0,1-.032.281.676.676,0,0,1-.26.134,1.525,1.525,0,0,0-.268.185.576.576,0,0,1-.315.107h0a.564.564,0,0,1-.316-.107,1.525,1.525,0,0,0-.268-.185.739.739,0,0,1-.265-.134.245.245,0,0,1-.031-.281c.075-.13.209-.157.311-.244a.545.545,0,0,0,.142-.335,3.082,3.082,0,0,0,.027-.382,3.812,3.812,0,0,0-.048-.821.931.931,0,0,0-.829-.7s.119-.23.234-.521a1.563,1.563,0,0,1-1.054-1.156,1.464,1.464,0,0,1,.5-1.215s.272-.244.414-.343a2.979,2.979,0,0,0-.355,1.345.882.882,0,0,0,.241.573,1,1,0,0,0,.449.213.933.933,0,0,1,.15.051l.11.048s.126-.134.225-.134a.628.628,0,0,1,.217.091c.08.047.147.094.147.094h0a1.2,1.2,0,0,1,.363-.185c.1,0,.225.134.225.134L16.5,14.8a1.1,1.1,0,0,1,.149-.051.984.984,0,0,0,.454-.213.857.857,0,0,0,.238-.573,2.906,2.906,0,0,0-.356-1.345C17.127,12.719,17.4,12.963,17.4,12.963Z" transform="translate(-13.703 -12.62)" fill="#fed117"/></g><g transform="translate(3.507 3.61)"><path d="M16.571,16l-.209.205L16.156,16l.206-.205Z" transform="translate(-16.156 -15.796)" fill="#fed117"/></g><g transform="translate(3.418 4.188)"><path d="M16.093,17.122c-.008-.142-.119-.867.414-.816a5.651,5.651,0,0,0-.134,1.211A.593.593,0,0,1,16.093,17.122Z" transform="translate(-16.078 -16.304)" fill="#fed117"/></g><g transform="translate(2.028)"><path d="M16.441,13.413l-.426.15.193.41-.41-.2-.15.43-.154-.43-.406.2.193-.41-.426-.15.426-.154-.193-.41.406.2.154-.426.15.426.41-.2-.193.41Z" transform="translate(-14.855 -12.62)" fill="#fed117"/></g><g transform="translate(1.795 4.188)"><path d="M14.65,16.306c.533-.051.423.674.415.816a.6.6,0,0,1-.281.394A5.651,5.651,0,0,0,14.65,16.306Z" transform="translate(-14.65 -16.304)" fill="#fed117"/></g><g transform="translate(1.07 4.46)"><path d="M14.5,16.668a.265.265,0,0,1-.083.367.261.261,0,0,1-.13.039h0a.288.288,0,0,0-.056,0,.358.358,0,0,1-.067-.02.2.2,0,0,0-.013-.067.253.253,0,0,0-.141-.173.224.224,0,0,1,.011-.072h0v0a.21.21,0,0,0,.019-.048h0a.236.236,0,0,1,.1-.1A.261.261,0,0,1,14.5,16.668Z" transform="translate(-14.012 -16.544)" fill="#fed117"/></g><g transform="translate(1.034 4.987)"><path d="M14.419,17.07a.268.268,0,0,1,.032.375.264.264,0,0,1-.372.032.239.239,0,0,1-.078-.11.349.349,0,0,0-.016-.059.166.166,0,0,1,0-.067.264.264,0,0,0,.181-.222l.072-.011a.325.325,0,0,0,.056,0h0A.28.28,0,0,1,14.419,17.07Z" transform="translate(-13.981 -17.007)" fill="#fed117"/></g><g transform="translate(0.69 4.7)"><path d="M14.211,17.021c0,.013,0,.024,0,.032a.264.264,0,0,1-.181.222l-.016,0c-.008,0-.013,0-.019,0a.26.26,0,0,1-.261-.107.31.31,0,0,1-.019-.027.2.2,0,0,1-.024-.064.261.261,0,0,1,.043-.221.2.2,0,0,1,.024-.028.276.276,0,0,1,.126-.075.269.269,0,0,1,.147.008.311.311,0,0,1,.032.013.253.253,0,0,1,.141.173A.205.205,0,0,1,14.211,17.021Z" transform="translate(-13.678 -16.754)" fill="#fed117"/></g><g transform="translate(0 2.423)"><path d="M14.519,15.181a3.874,3.874,0,0,0-.738.5,3.683,3.683,0,0,0-.71-.5,2.619,2.619,0,0,0,.734-.43A2.262,2.262,0,0,0,14.519,15.181Z" transform="translate(-13.071 -14.751)" fill="#fed117"/></g><g transform="translate(0.58 4.265)"><path d="M14.1,16.573a.257.257,0,0,1,0,.138h0a.21.21,0,0,0-.019.048v0h0a.412.412,0,0,1-.043.059.269.269,0,0,0-.147-.008.276.276,0,0,0-.126.075h0a.272.272,0,0,1-.064-.031h0l-.043-.036a.249.249,0,0,1-.067-.118.267.267,0,0,1,.193-.323A.262.262,0,0,1,14.1,16.573Z" transform="translate(-13.581 -16.372)" fill="#fed117"/></g><g transform="translate(0.522 5.121)"><path d="M14.062,17.35a.323.323,0,0,1-.016.134.268.268,0,0,1-.348.15.271.271,0,0,1-.15-.348.3.3,0,0,1,.083-.107h0a.139.139,0,0,0,.048-.031h0a.225.225,0,0,1,.07-.024h0a.26.26,0,0,0,.261.107.246.246,0,0,1,.035.059A.306.306,0,0,0,14.062,17.35Z" transform="translate(-13.531 -17.125)" fill="#fed117"/></g><g transform="translate(0.241 4.671)"><path d="M13.783,16.868h0a.261.261,0,0,0-.043.221.2.2,0,0,0,.024.064.363.363,0,0,1-.051.051h0a.374.374,0,0,0-.048.031h0a.241.241,0,0,1-.134.024.264.264,0,0,1-.248-.28.27.27,0,0,1,.284-.249.324.324,0,0,1,.13.043.188.188,0,0,0,.043.036A.34.34,0,0,1,13.783,16.868Z" transform="translate(-13.283 -16.729)" fill="#fed117"/></g></g><g transform="translate(1.948 0.016)"><path d="M16.662,13.433l-.532-.185.24-.513-.509.244-.189-.533-.19.533-.513-.244.244.513-.533.185.533.193-.244.509.513-.244.19.537.189-.537.509.244-.24-.509Zm-.99.6-.115-.323-.308.146.147-.307-.321-.115.321-.11-.147-.308.308.146.115-.323.114.323.308-.146-.146.308.319.11-.319.115.146.307-.308-.146Z" transform="translate(-14.681 -12.446)"/></g><g transform="translate(0.771)"><path d="M17.455,12.938c-.013-.008-.276-.246-.423-.348l-.221-.158.126.241a3,3,0,0,1,.347,1.314.776.776,0,0,1-.221.524.947.947,0,0,1-.418.2.8.8,0,0,0-.161.056l-.072.027a.392.392,0,0,0-.236-.118.962.962,0,0,0-.363.166c-.028-.016-.067-.04-.111-.067a.518.518,0,0,0-.252-.1.4.4,0,0,0-.24.118l-.067-.027a.832.832,0,0,0-.163-.056.979.979,0,0,1-.422-.2.788.788,0,0,1-.217-.524,3,3,0,0,1,.347-1.314l.126-.241-.221.158c-.146.1-.41.34-.422.351a1.5,1.5,0,0,0-.517,1.271A1.593,1.593,0,0,0,14.688,15.4c-.016.035-.031.07-.043.1-.091.206-.161.351-.161.355l-.048.088.1.008a.862.862,0,0,1,.77.647c.02.138.035.284.043.434,0,.051,0,.106,0,.161,0,.072,0,.139,0,.209v.04a3.029,3.029,0,0,1-.027.335.493.493,0,0,1-.118.3c-.032.023-.067.043-.107.067a.5.5,0,0,0-.217.193.306.306,0,0,0,.04.358.517.517,0,0,0,.221.123l.064.024c.015.008.027.011.043.019.043.028.083.059.126.091a.626.626,0,0,0,.086.067l.013.008a.593.593,0,0,0,.343.115.609.609,0,0,0,.343-.115l.007-.008a.481.481,0,0,0,.088-.067c.043-.032.086-.063.13-.091.013-.008.028-.011.04-.019l.064-.024a.509.509,0,0,0,.224-.123.306.306,0,0,0,.04-.358.49.49,0,0,0-.217-.193c-.039-.024-.075-.044-.11-.067a.52.52,0,0,1-.115-.3,2.517,2.517,0,0,1-.027-.335l0-.04c0-.07,0-.138,0-.209,0-.056,0-.11.007-.161a2.489,2.489,0,0,1,.048-.434.848.848,0,0,1,.765-.647l.094-.008-.043-.088s-.075-.149-.161-.355c-.013-.032-.027-.067-.039-.1a1.6,1.6,0,0,0,1.033-1.183A1.558,1.558,0,0,0,17.455,12.938Zm.386,1.258a1.521,1.521,0,0,1-1.014,1.1l-.06.027.024.059c.016.035.032.075.048.11.059.142.115.26.146.335a.947.947,0,0,0-.789.742,3.311,3.311,0,0,0-.051.454c0,.051,0,.106,0,.161,0,.072,0,.142,0,.214v.043c0,.114.013.232.027.351a.586.586,0,0,0,.166.374.775.775,0,0,0,.126.083.4.4,0,0,1,.169.142.178.178,0,0,1-.023.206.428.428,0,0,1-.171.09l-.07.024a.824.824,0,0,0-.169.107c-.008.008-.02.016-.028.024a.979.979,0,0,1-.082.063.447.447,0,0,1-.552,0,.834.834,0,0,1-.083-.063c-.008-.008-.02-.016-.028-.024a.765.765,0,0,0-.173-.107c-.024-.008-.048-.016-.067-.024a.443.443,0,0,1-.174-.09.183.183,0,0,1-.019-.206.4.4,0,0,1,.169-.142.886.886,0,0,0,.126-.083.559.559,0,0,0,.161-.374,2.69,2.69,0,0,0,.028-.351l0-.043c0-.072,0-.142,0-.214,0-.056,0-.11-.007-.161a2.859,2.859,0,0,0-.048-.454.945.945,0,0,0-.793-.742c.035-.075.091-.193.15-.335.016-.035.032-.075.048-.11l.019-.059L14.8,15.3a1.511,1.511,0,0,1-1.014-1.1,1.4,1.4,0,0,1,.473-1.161s.094-.083.2-.165a2.673,2.673,0,0,0-.246,1.124.918.918,0,0,0,.265.615,1.019,1.019,0,0,0,.477.233.554.554,0,0,1,.138.043l.15.067.036-.032a.336.336,0,0,1,.173-.114.489.489,0,0,1,.185.083c.075.043.139.086.142.086l.016.011h.04l.016-.011a1.221,1.221,0,0,1,.327-.169c.048,0,.13.067.177.114l.027.032.155-.067a.586.586,0,0,1,.138-.043,1.058,1.058,0,0,0,.482-.233.925.925,0,0,0,.26-.615,2.673,2.673,0,0,0-.244-1.124c.1.082.193.165.193.165A1.392,1.392,0,0,1,17.842,14.2Z" transform="translate(-13.646 -12.432)"/></g><g transform="translate(1.768 3.752)"><path d="M14.8,15.733l-.276.276.276.276.28-.276Zm0,.142.138.134-.138.134-.134-.134Z" transform="translate(-14.522 -15.733)"/></g><g transform="translate(1.851 4.35)"><path d="M15.119,16.667a.612.612,0,0,0-.047-.161.347.347,0,0,0-.091-.142.4.4,0,0,0-.332-.1l-.055.008.011.055s.016.072.04.182c.008.047.019.1.027.161a4.786,4.786,0,0,1,.072.856l0,.1.083-.059a.641.641,0,0,0,.3-.433c0-.013,0-.028,0-.044A1.646,1.646,0,0,0,15.119,16.667Zm-.094.41c0,.019,0,.035,0,.048a.46.46,0,0,1-.177.3,5.234,5.234,0,0,0-.07-.754c-.008-.059-.02-.115-.027-.161-.013-.064-.02-.11-.028-.147a.282.282,0,0,1,.2.075.35.35,0,0,1,.051.072.51.51,0,0,1,.055.161A1.559,1.559,0,0,1,15.025,17.077Z" transform="translate(-14.595 -16.259)"/></g><g transform="translate(3.555 3.752)"><path d="M16.374,15.733l-.28.276.28.276.273-.276Zm0,.142.134.134-.134.134-.138-.134Z" transform="translate(-16.094 -15.733)"/></g><g transform="translate(3.486 4.35)"><path d="M16.516,16.261a.406.406,0,0,0-.331.1.525.525,0,0,0-.091.142.7.7,0,0,0-.048.161,2.191,2.191,0,0,0,0,.422.21.21,0,0,1,0,.044.639.639,0,0,0,.3.433l.083.059,0-.1a4.791,4.791,0,0,1,.07-.856c.011-.059.019-.115.027-.161.02-.11.036-.182.036-.182l.016-.055Zm-.09.244c-.013.047-.02.1-.032.161a5.261,5.261,0,0,0-.067.754.46.46,0,0,1-.177-.3c0-.013,0-.028,0-.048a1.559,1.559,0,0,1,0-.41.438.438,0,0,1,.055-.161.35.35,0,0,1,.051-.072.282.282,0,0,1,.2-.075A1.46,1.46,0,0,0,16.426,16.506Z" transform="translate(-16.034 -16.259)"/></g><g transform="translate(0 2.564)"><path d="M14.553,15.142a2.163,2.163,0,0,1-.7-.417l-.032-.036-.04.036a2.52,2.52,0,0,1-.714.417l-.1.04.016.008.083.043a3.849,3.849,0,0,1,.695.485l.031.04.04-.035a4,4,0,0,1,.726-.49l.086-.043.016-.008Zm-.134.056a3.66,3.66,0,0,0-.618.418,3.558,3.558,0,0,0-.6-.418l.011-.008a2.433,2.433,0,0,0,.608-.363,2.044,2.044,0,0,0,.588.363Z" transform="translate(-12.967 -14.688)"/></g><g transform="translate(4.19 2.564)"><path d="M18.239,15.142a2.6,2.6,0,0,1-.718-.417l-.035-.036-.032.036a2.117,2.117,0,0,1-.7.417l-.1.04.011.008.088.043a4.037,4.037,0,0,1,.726.49l.034.035.036-.04a3.655,3.655,0,0,1,.695-.485l.078-.043.016-.008Zm-.13.056a3.47,3.47,0,0,0-.6.418,3.854,3.854,0,0,0-.62-.418l.011-.008a2.048,2.048,0,0,0,.589-.363,2.457,2.457,0,0,0,.6.363Z" transform="translate(-16.653 -14.688)"/></g><g transform="translate(4.193 4.632)"><path d="M17.839,16.783a.629.629,0,0,0-.146-.15.637.637,0,0,0-.386-.126.644.644,0,0,0-.382.126.649.649,0,0,0,.256,1.164l.122.024-.07-.1a.53.53,0,0,1-.1-.316.555.555,0,0,1,.556-.552.511.511,0,0,1,.107.011l.122.024Zm-.808.62a.626.626,0,0,0,.056.26.552.552,0,0,1,.047-1.03.568.568,0,0,1,.348,0,.581.581,0,0,1,.2.118A.652.652,0,0,0,17.031,17.4Z" transform="translate(-16.656 -16.507)"/></g><path d="M14.689,16.906a.322.322,0,0,0-.04-.238l-.008-.011a.321.321,0,0,0-.426-.086l-.016.011,0-.016a.144.144,0,0,0-.027-.07.267.267,0,0,0-.115-.123.314.314,0,0,0-.236-.035.306.306,0,0,0-.2.146l0,.013a.315.315,0,0,0-.04.161c0,.024.008.043.011.064l0,.015h-.016a.311.311,0,0,0-.335.292.347.347,0,0,0,.075.23.338.338,0,0,0,.217.106h.019s-.008.008-.008.016a.316.316,0,0,0,.178.41.342.342,0,0,0,.114.02.35.35,0,0,0,.126-.024.331.331,0,0,0,.166-.174l0-.016a.048.048,0,0,1,.016.013.313.313,0,0,0,.2.074.1.1,0,0,0,.032,0,.3.3,0,0,0,.213-.115.289.289,0,0,0,.07-.228.316.316,0,0,0-.109-.213l-.013-.013.013-.008A.3.3,0,0,0,14.689,16.906Zm-.477.627a.238.238,0,0,1-.064-.088.2.2,0,0,0-.016-.055v-.028a.321.321,0,0,0,.178-.209.064.064,0,0,1,.027,0c.011,0,.027,0,.048,0h0a.216.216,0,0,1,.1.048.2.2,0,0,1,.075.142.234.234,0,0,1-.048.161.221.221,0,0,1-.3.028Zm-.289.161a.219.219,0,0,1-.288-.281.276.276,0,0,1,.056-.078l.016-.008a.331.331,0,0,0,.035-.027l.027-.013A.316.316,0,0,0,14,17.4c.008,0,.016,0,.024,0l.011.023c0,.02.008.036.013.052a.2.2,0,0,1-.013.106A.23.23,0,0,1,13.923,17.7Zm-.355-.86a.185.185,0,0,1,.1.032.312.312,0,0,1,.04.035.048.048,0,0,1,.019.02.317.317,0,0,0-.031.232.174.174,0,0,0,.016.044.068.068,0,0,1-.024.015l-.036.024-.035.016a.252.252,0,0,1-.078.013.235.235,0,0,1-.15-.075.222.222,0,0,1-.051-.155.208.208,0,0,1,.228-.2Zm.139-.3c.008-.011.019-.024.027-.035a.234.234,0,0,1,.107-.064.211.211,0,0,1,.161.024.228.228,0,0,1,.048.04.212.212,0,0,1,.051.094.123.123,0,0,1,0,.067.185.185,0,0,1,0,.043.155.155,0,0,0-.02.048l0,0-.008.02a.274.274,0,0,0-.142,0,.3.3,0,0,0-.126.067l-.027-.016a.137.137,0,0,0-.04-.032.262.262,0,0,1-.051-.094c0-.013,0-.028,0-.04A.209.209,0,0,1,13.707,16.531Zm.556.126,0,0a.223.223,0,0,1,.233,0,.181.181,0,0,1,.067.067.208.208,0,0,1,.027.161.211.211,0,0,1-.094.134.241.241,0,0,1-.1.036.226.226,0,0,0-.056,0c-.008,0-.016,0-.027-.008a.166.166,0,0,0,0-.043.321.321,0,0,0-.142-.19c0-.007,0-.019.008-.027l0-.008h0l0-.011.011-.035A.269.269,0,0,1,14.263,16.658Zm-.206.631a.025.025,0,0,0-.015,0,.225.225,0,0,1-.214-.086.1.1,0,0,1-.016-.024.183.183,0,0,1-.019-.051.2.2,0,0,1,.04-.182l.011-.019a.242.242,0,0,1,.107-.064.258.258,0,0,1,.051,0,.3.3,0,0,1,.067.008.278.278,0,0,1,.027.011.214.214,0,0,1,.115.142.3.3,0,0,1,.008.055h0a.053.053,0,0,1,0,.028.212.212,0,0,1-.145.177Z" transform="translate(-12.93 -11.899)"/></g></g></g></g></g></g></svg>