<svg xmlns="http://www.w3.org/2000/svg" width="55.399" height="55.492" viewBox="0 0 55.399 55.492"><g transform="translate(0 0)"><g transform="translate(0 0)"><path d="M19.458,25.457c-.916,0-1.556,1.007-1.556,2.291s.64,2.288,1.556,2.288c.824,0,1.558-1.007,1.558-2.288S20.282,25.457,19.458,25.457Zm0,0c-.916,0-1.556,1.007-1.556,2.291s.64,2.288,1.556,2.288c.824,0,1.558-1.007,1.558-2.288S20.282,25.457,19.458,25.457Zm0,0c-.916,0-1.556,1.007-1.556,2.291s.64,2.288,1.556,2.288c.824,0,1.558-1.007,1.558-2.288S20.282,25.457,19.458,25.457Zm0,0c-.916,0-1.556,1.007-1.556,2.291s.64,2.288,1.556,2.288c.824,0,1.558-1.007,1.558-2.288S20.282,25.457,19.458,25.457ZM51.642,9.489a1.085,1.085,0,0,1,1.711.124L54.7,11.639c.385.626.7.537.7-.2V1.427A1.338,1.338,0,0,0,54.065.093H43.957c-.734,0-.819.308-.189.683L46.1,2.306a1.106,1.106,0,0,1,.137,1.727l-.713.713a1.662,1.662,0,0,1-1.854.281,27.592,27.592,0,1,0,7.467,7.844c-.307-.614-.695-2.144-.218-2.636ZM27.7,8.521A19.225,19.225,0,0,1,46.023,21.935H9.376A19.229,19.229,0,0,1,27.7,8.521ZM24.312,25.547v-.823h5.768v.823H28.616v4.3h1.556A1.918,1.918,0,0,0,32.1,28.02h.915v2.838h-8.7V29.851h1.465v-4.3Zm8.607,0H31.455v-.823H37.68v.823H36.124l2.2,3.755,1.924-3.755h-1.1v-.823h4.3v.823H41.983l-2.838,5.311H35.758Zm-8.973,2.2c0,1.831-2.015,3.3-4.488,3.3-2.381,0-4.394-1.465-4.394-3.3,0-1.741,2.013-3.207,4.394-3.207C21.931,24.54,23.946,26.007,23.946,27.747ZM7.922,30.859,5.083,25.547H3.619v-.823H9.844v.823H8.288l2.2,3.755L12.5,25.547h-1.19v-.823h4.3v.823H14.147l-2.838,5.311ZM27.7,46.968A19.229,19.229,0,0,1,9.376,33.555H46.023A19.225,19.225,0,0,1,27.7,46.968ZM51.782,27.747c0,1.831-2.016,3.3-4.488,3.3-2.38,0-4.394-1.465-4.394-3.3s2.015-3.3,4.394-3.3C49.767,24.449,51.782,25.914,51.782,27.747Zm-6.044,0c0,1.281.641,2.288,1.556,2.288.824,0,1.558-1.007,1.558-2.288,0-1.376-.734-2.381-1.558-2.381C46.38,25.366,45.739,26.371,45.739,27.747Zm-27.836,0c0,1.281.64,2.288,1.556,2.288.824,0,1.558-1.007,1.558-2.288s-.734-2.291-1.558-2.291C18.542,25.457,17.9,26.464,17.9,27.747Zm1.556-2.291c-.916,0-1.556,1.007-1.556,2.291s.64,2.288,1.556,2.288c.824,0,1.558-1.007,1.558-2.288S20.282,25.457,19.458,25.457Zm0,0c-.916,0-1.556,1.007-1.556,2.291s.64,2.288,1.556,2.288c.824,0,1.558-1.007,1.558-2.288S20.282,25.457,19.458,25.457Z" fill="#cacee6" fill-rule="evenodd"/></g></g></svg>