<svg xmlns="http://www.w3.org/2000/svg" width="35.153" height="35.153" viewBox="0 0 35.153 35.153"><g transform="translate(0)"><g transform="translate(0 0)"><circle cx="17.576" cy="17.576" r="17.576" fill="#e31e1f"/><path d="M26.863,22.538a.66.66,0,0,0-1.045.032l-1.4.059a5.039,5.039,0,0,1,.821-.616.694.694,0,0,0,.936-.438c.035-.107.2-.138.548-.138-.166-.268-.434-.225-.8-.139a.572.572,0,0,0-.92.442l-1.017.7s-1.685-.41-2.288-.588a.073.073,0,0,0,.016-.024,3.494,3.494,0,0,0,.477-.741c.07-.244-.557-.244-1.3-.379s-1.453-1.67-1.662-2.111.261-.506.434-.332.754,1.432,1.145,1.649.69-.228.327-.466A2.356,2.356,0,0,1,20.578,18c0-.276.576-.339.576.166a2.62,2.62,0,0,0,.766,1.566c.374.374.915.792,1.172.379s-.1-.481-.576-.821a1.62,1.62,0,0,1-.679-.966c-.008-.163.008-.837.481-.517s.742.936,1.566,1.76,1.5,1.227,2.339.947a.715.715,0,0,0,.513-.422.505.505,0,0,0-.272-.557,1.066,1.066,0,0,0-.458-.075,2.952,2.952,0,0,1-1.495-.233,3.707,3.707,0,0,1-1.46-2.122c0-.564.371.013.883.525a4.1,4.1,0,0,0,.793.588,3.743,3.743,0,0,0,1.053.462.892.892,0,0,0,.683-.107c.2-.138.469-.627.225-.829-.214-.173-.687-.063-.931-.039-.845.078-1.547-.667-1.946-1.062s-.556-.537-.556-1.022,1.049.364,1.732.762a1.582,1.582,0,0,0,1.747,0,.482.482,0,0,0,.013-.674c-.276-.249-.734-.08-1.065-.08a2.337,2.337,0,0,1-1.117-.347,6.918,6.918,0,0,1-.88-.568,1.156,1.156,0,0,1-.382-.422.218.218,0,0,1-.008-.178.177.177,0,0,1,.181-.078.607.607,0,0,1,.194.086,4.227,4.227,0,0,0,2.177.643,1.445,1.445,0,0,0,.482-.07.685.685,0,0,0,.371-.3.558.558,0,0,0-.3-.754.53.53,0,0,0-.311.044c-.19.078-.34.228-.537.291a1.1,1.1,0,0,1-.469.056,2.122,2.122,0,0,1-.8-.3c-.313-.173-.62-.359-.916-.56-.134-.086-.28-.213-.26-.371a.312.312,0,0,1,.311-.233.976.976,0,0,1,.4.123,3.7,3.7,0,0,0,1.507.406,1.747,1.747,0,0,0,1.392-.6.739.739,0,0,0,.142-.265.526.526,0,0,0-.118-.441.421.421,0,0,0-.394-.178,1.5,1.5,0,0,0-.414.249c-.174.115-.348.221-.529.316a2.167,2.167,0,0,1-2.079-.517c-.134-.308-.1-.4.379-.4a4.094,4.094,0,0,0,2.308-.134c.509-.209,1.014-.643.785-1.244a.5.5,0,0,0-.193-.248.4.4,0,0,0-.446.063,2.657,2.657,0,0,0-.474.4,1.708,1.708,0,0,1-1.2.425,3.97,3.97,0,0,1-.615,0,.648.648,0,0,1-.383-.115.408.408,0,0,1-.008-.583c.04-.04.241-.04.3-.048.094-.019.185-.035.28-.056a4.839,4.839,0,0,0,1.969-.789,2.36,2.36,0,0,0,.466-.462,1.831,1.831,0,0,0,.43-1.151c-.016-.252-.2-.525-.481-.426a1.514,1.514,0,0,0-.648.623,3.817,3.817,0,0,1-2.485,1.5l-.222-.221c-.276-.276-.548.059-1.392.347s-1.3.785-1.3,1.113c.155,1.637-.792,1.554-1.148,1.436a.864.864,0,0,1-.426-1.1,2.656,2.656,0,0,1,1.89-1.841c1.121-.206,1.5-.38,1.688-.632a2.3,2.3,0,0,1-.828.1A.207.207,0,0,1,21.336,8c0-.083,1.219.083,1.7-.2s.687-.521.5-.715-.426,0-.695.4-.99.276-1.314.221c.126-.41.829-.386.987-.228.206-.722-1.025-.564-1.025-.564a.119.119,0,0,0-.016-.032c-.15-.292-.691-.335-.979-.34a4.457,4.457,0,0,0-1.365.423c-.5.166-1.136.166-1.136.233s.157.157.643.529a2.035,2.035,0,0,0-.94.781,2.656,2.656,0,0,1,.581.032,3.263,3.263,0,0,0-1.062.6c.1.067.1.04.327.174-.11.115-.793.915-.793.915s-.682-.8-.792-.915c.225-.134.221-.107.327-.174a3.263,3.263,0,0,0-1.062-.6A2.626,2.626,0,0,1,15.8,8.5a2,2,0,0,0-.936-.781c.485-.372.643-.462.643-.529s-.631-.067-1.137-.233A4.441,4.441,0,0,0,13,6.535c-.288,0-.829.048-.983.34l-.011.032s-1.231-.158-1.025.564c.157-.158.859-.182.982.228-.319.056-1.042.178-1.311-.221s-.5-.588-.693-.4.015.434.5.715,1.7.118,1.7.2a.209.209,0,0,1-.233.224,2.336,2.336,0,0,1-.832-.1c.185.252.572.426,1.693.632a2.654,2.654,0,0,1,1.889,1.841.863.863,0,0,1-.426,1.1c-.355.118-1.306.2-1.148-1.436,0-.327-.454-.824-1.3-1.113s-1.12-.623-1.392-.347l-.221.221a3.807,3.807,0,0,1-2.485-1.5,1.529,1.529,0,0,0-.651-.623c-.281-.1-.462.174-.477.426a1.831,1.831,0,0,0,.43,1.151,2.3,2.3,0,0,0,.466.462,4.833,4.833,0,0,0,1.969.789c.094.02.185.036.28.056.059.008.26.008.3.048a.409.409,0,0,1-.013.583.627.627,0,0,1-.379.115,3.967,3.967,0,0,1-.615,0,1.709,1.709,0,0,1-1.2-.425,2.65,2.65,0,0,0-.473-.4A.4.4,0,0,0,6.9,9.629a.493.493,0,0,0-.193.248c-.23.6.272,1.034.784,1.244a4.1,4.1,0,0,0,2.309.134c.474,0,.513.09.379.4A2.171,2.171,0,0,1,8.1,12.17a6.12,6.12,0,0,1-.529-.316,1.567,1.567,0,0,0-.414-.249.42.42,0,0,0-.394.178.526.526,0,0,0-.118.441.687.687,0,0,0,.141.265,1.751,1.751,0,0,0,1.392.6,3.694,3.694,0,0,0,1.507-.406.976.976,0,0,1,.4-.123.311.311,0,0,1,.311.233c.02.158-.125.284-.26.371-.3.2-.6.388-.918.56a2.093,2.093,0,0,1-.8.3,1.1,1.1,0,0,1-.469-.056c-.2-.063-.347-.213-.537-.291a.54.54,0,0,0-.316-.044.556.556,0,0,0-.3.754.669.669,0,0,0,.371.3,1.438,1.438,0,0,0,.481.07,4.228,4.228,0,0,0,2.178-.643.612.612,0,0,1,.193-.086.177.177,0,0,1,.182.078.218.218,0,0,1-.008.178,1.15,1.15,0,0,1-.383.422,6.905,6.905,0,0,1-.879.568,2.337,2.337,0,0,1-1.117.347c-.332,0-.789-.169-1.065.08a.48.48,0,0,0,.013.674,1.582,1.582,0,0,0,1.747,0c.682-.4,1.732-1.242,1.732-.762s-.163.624-.557,1.022-1.1,1.14-1.945,1.062c-.244-.024-.718-.134-.931.039-.244.2.024.691.225.829a.884.884,0,0,0,.679.107,3.714,3.714,0,0,0,1.057-.462,4.1,4.1,0,0,0,.793-.588c.513-.513.883-1.089.883-.525a3.694,3.694,0,0,1-1.464,2.122,2.937,2.937,0,0,1-1.491.233,1.064,1.064,0,0,0-.457.075.5.5,0,0,0-.272.557.707.707,0,0,0,.513.422c.835.28,1.514-.123,2.339-.947s1.089-1.44,1.562-1.76.493.355.485.517a1.62,1.62,0,0,1-.679.966c-.473.34-.837.41-.576.821s.8,0,1.172-.379a2.62,2.62,0,0,0,.762-1.566c0-.5.58-.442.58-.166a2.355,2.355,0,0,1-.556,1.452c-.364.238-.064.683.327.466s.971-1.472,1.144-1.649.64-.115.434.332-.918,1.976-1.661,2.111-1.369.134-1.3.379a3.518,3.518,0,0,0,.474.741l.015.024c-.6.177-2.288.588-2.288.588l-1.013-.7a.572.572,0,0,0-.92-.442c-.367-.086-.632-.13-.8.139.343,0,.508.031.548.138a.694.694,0,0,0,.936.438,5.039,5.039,0,0,1,.821.616l-1.4-.059a.661.661,0,0,0-1.046-.032c-.267.04-.615.213-.568.418.431-.131.541-.075.541-.075a.577.577,0,0,0,.974,0c.695.04,1.373.04,1.373.04l-.808.433a.675.675,0,0,0-.892.5,2.644,2.644,0,0,0-.193.781l.363-.508s.766.142.924-.41c.438-.26,1.136-.679,1.136-.679l1.113.4s.008.564.934.434a1.461,1.461,0,0,1,.3.379.946.946,0,0,0-.139-.7c-.082-.407-.379-.6-.864-.434-.813-.292-.915-.335-.915-.335l2.173-.521c.246.319.584.7.825.7.414,0,.8-.4,1.1-1.215s.715-1.345,1.03-1.4.632-.26.632.4a2.169,2.169,0,0,1-.549,1.621c-.41.41-.837.963-1.4,1.046s-1.378-.1-1.191.418a.756.756,0,0,0,.958.544c.308-.134.875-.75,1.132-.62s.462.391.083.663a5.865,5.865,0,0,1-.789.493,1.663,1.663,0,0,1-.383.146c-.142.032-.292.016-.438.048a.254.254,0,0,0-.214.174.265.265,0,0,0,.072.209.755.755,0,0,0,.825.276c.452-.1,1.009-.7,1.254-.77s.3-.032.236.256a1.093,1.093,0,0,1-.73.959,1.677,1.677,0,0,1-.607.118.167.167,0,0,0-.147.059c-.039.063.008.134.043.19a.935.935,0,0,0,.375.374.537.537,0,0,0,.533-.043,2.686,2.686,0,0,0,.832-.915c.134-.268.375-.418.442-.153s.236.347-.04.832-.741.576-.671.856a5.074,5.074,0,0,0,1.444,2.017h0a5.125,5.125,0,0,0,1.445-2.017c.07-.28-.391-.371-.671-.856s-.107-.572-.04-.832.308-.115.442.153a2.686,2.686,0,0,0,.832.915.535.535,0,0,0,.532.043.921.921,0,0,0,.375-.374c.036-.056.083-.127.04-.19a.154.154,0,0,0-.142-.059,1.688,1.688,0,0,1-.608-.118,1.1,1.1,0,0,1-.73-.959c-.063-.288-.011-.331.238-.256s.8.666,1.254.77a.755.755,0,0,0,.825-.276.264.264,0,0,0,.07-.209A.251.251,0,0,0,20.4,25.1c-.146-.032-.3-.016-.442-.048a1.711,1.711,0,0,1-.379-.146,5.865,5.865,0,0,1-.789-.493c-.379-.272-.174-.529.083-.663s.824.485,1.132.62a.758.758,0,0,0,.958-.544c.185-.517-.627-.34-1.191-.418s-.99-.635-1.4-1.046a2.169,2.169,0,0,1-.549-1.621c0-.659.316-.45.632-.4s.725.592,1.03,1.4.685,1.215,1.1,1.215c.241,0,.58-.379.824-.7l2.175.521s-.1.043-.916.335c-.484-.161-.781.027-.864.434a.949.949,0,0,0-.138.7,1.432,1.432,0,0,1,.3-.379c.928.13.931-.434.931-.434l1.113-.4,1.14.679c.158.552.92.41.92.41l.367.508a2.662,2.662,0,0,0-.194-.781.674.674,0,0,0-.891-.5l-.813-.433s.683,0,1.373-.04a.581.581,0,0,0,.979,0s.107-.056.541.075C27.479,22.75,27.128,22.578,26.863,22.538Zm-6.4-15.312c.218,0,.391.091.391.2s-.173.206-.391.206-.386-.091-.386-.206S20.255,7.226,20.468,7.226Zm-7.444.41c-.214,0-.386-.091-.386-.206s.173-.2.386-.2.391.091.391.2S13.241,7.636,13.024,7.636Z" transform="translate(0.828 0.893)"/></g></g></svg>