<svg xmlns="http://www.w3.org/2000/svg" width="35.153" height="35.153" viewBox="0 0 35.153 35.153"><g transform="translate(0)"><g transform="translate(0 0)"><path d="M35.153,17.576c0,.565-.028,1.124-.08,1.677a17.578,17.578,0,0,1-35,0C.027,18.7,0,18.141,0,17.576s.027-1.124.078-1.68a17.578,17.578,0,0,1,35,0C35.125,16.452,35.153,17.009,35.153,17.576Z" transform="translate(0 0)" fill="#042b7d"/><path d="M11.825,16.958l.722,2.884,2.063-2.134L13.8,20.56l2.852-.813-2.134,2.063,2.884.722-2.884.722,2.134,2.063L13.8,24.5l.813,2.856-2.063-2.134-.722,2.88-.722-2.88L9.04,27.358,9.856,24.5,7,25.318l2.134-2.063-2.88-.722,2.88-.722L7,19.748l2.856.813L9.04,17.708,11.1,19.842Z" transform="translate(0.855 2.319)" fill="#fff"/><g transform="translate(0 15.896)"><path d="M35.153,15.664c0,.565-.028,1.124-.08,1.677h-35C.027,16.788,0,16.229,0,15.664s.027-1.124.078-1.68h35C35.125,14.54,35.153,15.1,35.153,15.664Z" transform="translate(0 -13.984)" fill="#fec527"/></g></g></g></svg>