<svg xmlns="http://www.w3.org/2000/svg" width="57.352" height="33.292" viewBox="0 0 57.352 33.292"><g transform="translate(0 0)"><g transform="translate(0 0)"><path d="M42.9,41.855c.117.022.117.051,0,.073l-5.194.87a.405.405,0,0,0-.278.238l-1.016,2.854c-.036.11-.1.11-.142,0l-1.056-2.854a.4.4,0,0,0-.285-.234l-5.285-.874c-.117-.022-.117-.051,0-.073l5.288-.917a.4.4,0,0,0,.278-.238l1.06-2.946c.04-.11.1-.11.142,0L37.429,40.7a.4.4,0,0,0,.278.238Z" transform="translate(-12.244 -15.605)" fill="#cacee6" fill-rule="evenodd"/><path d="M20.315,25.04l-2.372-6.418a.907.907,0,0,0-.636-.526L5.421,16.13c-.259-.04-.259-.113,0-.157l11.886-2.065a.906.906,0,0,0,.632-.53l2.379-6.627c.088-.248.23-.245.318,0l2.284,6.627a.9.9,0,0,0,.625.534L35.22,15.969c.259.048.259.121,0,.165L23.546,18.1a.888.888,0,0,0-.629.526L20.64,25.037C20.552,25.285,20.407,25.285,20.315,25.04Z" transform="translate(-2.165 -2.72)" fill="#cacee6" fill-rule="evenodd"/><path d="M51.914,27.257l1.06-2.949c.037-.11.1-.11.139,0l1.016,2.946a.41.41,0,0,0,.282.237l5.193.918c.113.018.113.051,0,.069l-5.193.873a.412.412,0,0,0-.282.238l-1.012,2.851c-.04.113-.106.113-.146,0l-1.056-2.858a.414.414,0,0,0-.282-.234l-5.288-.873c-.114-.018-.114-.051,0-.069l5.288-.918A.417.417,0,0,0,51.914,27.257Z" transform="translate(-19.163 -10.035)" fill="#cacee6" fill-rule="evenodd"/><path d="M68.084,39.633c.117.022.117.052,0,.073l-5.194.873a.4.4,0,0,0-.281.234L61.6,43.668c-.036.11-.1.11-.142,0L60.4,40.814a.4.4,0,0,0-.285-.234l-5.285-.873c-.117-.022-.117-.051,0-.073l5.288-.917a.4.4,0,0,0,.278-.237l1.06-2.946c.04-.11.1-.11.142,0l1.016,2.946a.4.4,0,0,0,.278.237Z" transform="translate(-22.676 -14.685)" fill="#cacee6" fill-rule="evenodd"/><path d="M63.582,14.1c-.117-.022-.117-.051,0-.073l5.285-.917a.4.4,0,0,0,.282-.234l1.06-2.95c.04-.11.1-.11.142,0l1.016,2.946a.381.381,0,0,0,.278.238l5.194.917c.113.022.113.055,0,.073l-5.194.873a.4.4,0,0,0-.281.234L70.35,18.061c-.04.11-.1.11-.146,0l-1.053-2.854a.4.4,0,0,0-.285-.234Z" transform="translate(-26.302 -4.077)" fill="#cacee6" fill-rule="evenodd"/><path d="M84.031,28.481l-5.193.873a.412.412,0,0,0-.282.238l-1.012,2.851c-.04.113-.106.113-.146,0l-1.053-2.858a.42.42,0,0,0-.285-.234l-5.288-.873c-.114-.018-.114-.051,0-.069l5.288-.918a.41.41,0,0,0,.282-.237l1.06-2.949c.04-.11.1-.11.139,0l1.02,2.946a.4.4,0,0,0,.278.237l5.193.918C84.144,28.43,84.144,28.463,84.031,28.481Z" transform="translate(-29.282 -10.035)" fill="#cacee6" fill-rule="evenodd"/><path d="M53.493,8.26C48.4,3.165,38.887,0,28.676,0,21.092,0,13.95,1.685,8.567,4.744,3.041,7.887,0,12.112,0,16.644a11.9,11.9,0,0,0,3.86,8.388c5.095,5.095,14.6,8.26,24.817,8.26s19.722-3.165,24.817-8.26a11.906,11.906,0,0,0,3.86-8.388A11.905,11.905,0,0,0,53.493,8.26ZM28.676,31.7c-9.806,0-18.885-2.986-23.694-7.8A10.358,10.358,0,0,1,1.59,16.644,10.358,10.358,0,0,1,4.982,9.385c4.81-4.81,13.888-7.8,23.694-7.8s18.885,2.986,23.691,7.8a10.35,10.35,0,0,1,3.4,7.259C55.762,24.948,43.61,31.7,28.676,31.7Z" transform="translate(0 0)" fill="#cacee6" fill-rule="evenodd"/><path d="M42.9,41.855c.117.022.117.051,0,.073l-5.194.87a.405.405,0,0,0-.278.238l-1.016,2.854c-.036.11-.1.11-.142,0l-1.056-2.854a.4.4,0,0,0-.285-.234l-5.285-.874c-.117-.022-.117-.051,0-.073l5.288-.917a.4.4,0,0,0,.278-.238l1.06-2.946c.04-.11.1-.11.142,0L37.429,40.7a.4.4,0,0,0,.278.238Z" transform="translate(-12.244 -15.605)" fill="#cacee6" fill-rule="evenodd"/><path d="M20.315,25.04l-2.372-6.418a.907.907,0,0,0-.636-.526L5.421,16.13c-.259-.04-.259-.113,0-.157l11.886-2.065a.906.906,0,0,0,.632-.53l2.379-6.627c.088-.248.23-.245.318,0l2.284,6.627a.9.9,0,0,0,.625.534L35.22,15.969c.259.048.259.121,0,.165L23.546,18.1a.888.888,0,0,0-.629.526L20.64,25.037C20.552,25.285,20.407,25.285,20.315,25.04Z" transform="translate(-2.165 -2.72)" fill="#cacee6" fill-rule="evenodd"/><path d="M51.914,27.257l1.06-2.949c.037-.11.1-.11.139,0l1.016,2.946a.41.41,0,0,0,.282.237l5.193.918c.113.018.113.051,0,.069l-5.193.873a.412.412,0,0,0-.282.238l-1.012,2.851c-.04.113-.106.113-.146,0l-1.056-2.858a.414.414,0,0,0-.282-.234l-5.288-.873c-.114-.018-.114-.051,0-.069l5.288-.918A.417.417,0,0,0,51.914,27.257Z" transform="translate(-19.163 -10.035)" fill="#cacee6" fill-rule="evenodd"/><path d="M68.084,39.633c.117.022.117.052,0,.073l-5.194.873a.4.4,0,0,0-.281.234L61.6,43.668c-.036.11-.1.11-.142,0L60.4,40.814a.4.4,0,0,0-.285-.234l-5.285-.873c-.117-.022-.117-.051,0-.073l5.288-.917a.4.4,0,0,0,.278-.237l1.06-2.946c.04-.11.1-.11.142,0l1.016,2.946a.4.4,0,0,0,.278.237Z" transform="translate(-22.676 -14.685)" fill="#cacee6" fill-rule="evenodd"/><path d="M63.582,14.1c-.117-.022-.117-.051,0-.073l5.285-.917a.4.4,0,0,0,.282-.234l1.06-2.95c.04-.11.1-.11.142,0l1.016,2.946a.381.381,0,0,0,.278.238l5.194.917c.113.022.113.055,0,.073l-5.194.873a.4.4,0,0,0-.281.234L70.35,18.061c-.04.11-.1.11-.146,0l-1.053-2.854a.4.4,0,0,0-.285-.234Z" transform="translate(-26.302 -4.077)" fill="#cacee6" fill-rule="evenodd"/><path d="M84.031,28.481l-5.193.873a.412.412,0,0,0-.282.238l-1.012,2.851c-.04.113-.106.113-.146,0l-1.053-2.858a.42.42,0,0,0-.285-.234l-5.288-.873c-.114-.018-.114-.051,0-.069l5.288-.918a.41.41,0,0,0,.282-.237l1.06-2.949c.04-.11.1-.11.139,0l1.02,2.946a.4.4,0,0,0,.278.237l5.193.918C84.144,28.43,84.144,28.463,84.031,28.481Z" transform="translate(-29.282 -10.035)" fill="#cacee6" fill-rule="evenodd"/><path d="M35.22,16.133,23.546,18.1a.888.888,0,0,0-.629.526L20.64,25.037c-.088.248-.234.248-.325,0l-2.372-6.418a.907.907,0,0,0-.636-.526L5.421,16.13c-.259-.04-.259-.113,0-.157l11.886-2.065a.906.906,0,0,0,.632-.53l2.379-6.627c.088-.248.23-.245.318,0l2.284,6.627a.9.9,0,0,0,.625.534L35.22,15.969C35.479,16.017,35.479,16.089,35.22,16.133Z" transform="translate(-2.165 -2.72)" fill="#cacee6" fill-rule="evenodd"/><path d="M59.6,28.481l-5.193.873a.412.412,0,0,0-.282.238l-1.012,2.851c-.04.113-.106.113-.146,0l-1.056-2.858a.414.414,0,0,0-.282-.234l-5.288-.873c-.114-.018-.114-.051,0-.069l5.288-.918a.417.417,0,0,0,.282-.237l1.06-2.949c.037-.11.1-.11.139,0l1.016,2.946a.41.41,0,0,0,.282.237l5.193.918C59.716,28.43,59.716,28.463,59.6,28.481Z" transform="translate(-19.163 -10.035)" fill="#cacee6" fill-rule="evenodd"/><path d="M84.031,28.481l-5.193.873a.412.412,0,0,0-.282.238l-1.012,2.851c-.04.113-.106.113-.146,0l-1.053-2.858a.42.42,0,0,0-.285-.234l-5.288-.873c-.114-.018-.114-.051,0-.069l5.288-.918a.41.41,0,0,0,.282-.237l1.06-2.949c.04-.11.1-.11.139,0l1.02,2.946a.4.4,0,0,0,.278.237l5.193.918C84.144,28.43,84.144,28.463,84.031,28.481Z" transform="translate(-29.282 -10.035)" fill="#cacee6" fill-rule="evenodd"/><path d="M76.838,14.1l-5.194.873a.4.4,0,0,0-.281.234L70.35,18.061c-.04.11-.1.11-.146,0l-1.053-2.854a.4.4,0,0,0-.285-.234L63.582,14.1c-.117-.022-.117-.051,0-.073l5.285-.917a.4.4,0,0,0,.282-.234l1.06-2.95c.04-.11.1-.11.142,0l1.016,2.946a.381.381,0,0,0,.278.238l5.194.917C76.951,14.048,76.951,14.081,76.838,14.1Z" transform="translate(-26.302 -4.077)" fill="#cacee6" fill-rule="evenodd"/><path d="M68.084,39.706l-5.194.873a.4.4,0,0,0-.281.234L61.6,43.668c-.036.11-.1.11-.142,0L60.4,40.814a.4.4,0,0,0-.285-.234l-5.285-.873c-.117-.022-.117-.051,0-.073l5.288-.917a.4.4,0,0,0,.278-.237l1.06-2.946c.04-.11.1-.11.142,0l1.016,2.946a.4.4,0,0,0,.278.237l5.194.917C68.2,39.655,68.2,39.684,68.084,39.706Z" transform="translate(-22.676 -14.685)" fill="#cacee6" fill-rule="evenodd"/><path d="M42.9,41.927l-5.194.87a.405.405,0,0,0-.278.238l-1.016,2.854c-.036.11-.1.11-.142,0l-1.056-2.854a.4.4,0,0,0-.285-.234l-5.285-.874c-.117-.022-.117-.051,0-.073l5.288-.917a.4.4,0,0,0,.278-.238l1.06-2.946c.04-.11.1-.11.142,0L37.429,40.7a.4.4,0,0,0,.278.238l5.194.917C43.018,41.876,43.018,41.906,42.9,41.927Z" transform="translate(-12.244 -15.605)" fill="#cacee6" fill-rule="evenodd"/></g></g></svg>