<svg xmlns="http://www.w3.org/2000/svg" width="35.153" height="35.153" viewBox="0 0 35.153 35.153"><g transform="translate(0 0)"><g transform="translate(3.665 3.85)"><path d="M26.337,8.017c5.709,5.709,6.206,14.5,1.108,19.593S13.562,32.21,7.853,26.5,1.647,12,6.744,6.907,20.632,2.307,26.337,8.017Z" transform="translate(-3.224 -3.387)"/></g><path d="M35.153,17.576A17.567,17.567,0,0,1,6.715,31.385c-.114-.086-.225-.177-.335-.272-.055-.044-.11-.091-.161-.134s-.11-.1-.166-.142c-.035-.032-.075-.064-.11-.1-.115-.1-.225-.2-.339-.308s-.233-.217-.348-.331c-.138-.134-.272-.273-.406-.41-.091-.1-.182-.193-.268-.292-.072-.075-.139-.155-.206-.23l-.161-.185c-.11-.13-.222-.26-.324-.394q-.307-.372-.58-.762a17.517,17.517,0,0,1,0-20.5c.185-.26.379-.517.58-.766h0c.107-.13.214-.26.324-.39.051-.064.107-.123.161-.185.067-.08.134-.155.206-.23.09-.1.181-.2.272-.292.131-.141.268-.275.4-.409.115-.115.233-.225.351-.335s.221-.206.335-.3c.035-.035.075-.067.11-.1v0h0c.051-.048.106-.091.161-.134a1.875,1.875,0,0,1,.161-.142c.11-.091.225-.182.335-.268a17.564,17.564,0,0,1,28.438,13.8Z" fill="#03aec9"/><g transform="translate(2.831 3.772)"><g transform="translate(0 1.381)"><path d="M5.735,19.227c-.134-.28-.268-.559-.406-.843-.1-.209-.2-.423-.3-.632-.027-.063-.055-.122-.086-.181l0-.008A.841.841,0,0,1,4.9,16.9a.556.556,0,0,1,.647-.335.608.608,0,0,1,.379.284.532.532,0,0,1,0,.612.363.363,0,0,1-.288.161.349.349,0,0,1-.3-.088.386.386,0,0,1-.064-.141.2.2,0,0,1,.013-.127.225.225,0,0,1,.26-.094c.075.051.086.177.11.233l.027-.051a.3.3,0,0,0,.016-.067.461.461,0,0,0,0-.08c0-.023,0-.031.019-.035s.158-.035.158-.04-.035-.074-.177-.114a.478.478,0,0,0-.024-.142.276.276,0,0,0-.035-.064c0-.008-.044-.039-.044-.047a.685.685,0,0,1,0,.083c-.019.07-.083.075-.146.067a.338.338,0,0,0-.3.134.539.539,0,0,0-.106.386.491.491,0,0,0,.165.327.8.8,0,0,0,.394.13c.025,0,.186.032.139.08a.426.426,0,0,0-.1.166.236.236,0,0,1,.013.291c-.1.182.059.059.256,0-.091.95.572.915.572.915a1.913,1.913,0,0,1-.177-1.527,1.346,1.346,0,0,0-.161-1.408.374.374,0,0,0,.249-.206.365.365,0,0,0-.249-.2A1.355,1.355,0,0,0,6.307,14.6a1.918,1.918,0,0,1,.177-1.527s-.663-.036-.572.915c-.2-.051-.355-.174-.256,0a.246.246,0,0,1-.013.3.434.434,0,0,0,.1.161c.048.051-.114.075-.139.078a.83.83,0,0,0-.394.134.475.475,0,0,0-.165.327.537.537,0,0,0,.106.383.33.33,0,0,0,.3.134c.063-.008.126,0,.146.067a.675.675,0,0,1,0,.083s.04-.035.044-.043a.273.273,0,0,0,.035-.067.433.433,0,0,0,.024-.139.284.284,0,0,0,.177-.114,1.23,1.23,0,0,0-.158-.04c-.024-.008-.019-.016-.019-.04a.416.416,0,0,0,0-.075.336.336,0,0,0-.016-.07l-.027-.048c-.024.056-.035.177-.11.228a.212.212,0,0,1-.26-.094.193.193,0,0,1-.013-.126.371.371,0,0,1,.064-.138.348.348,0,0,1,.3-.091.353.353,0,0,1,.288.166.525.525,0,0,1,0,.607.612.612,0,0,1-.379.284.554.554,0,0,1-.647-.332.84.84,0,0,1,.031-.663l0-.008c.032-.063.059-.122.086-.181.1-.214.2-.423.3-.635.138-.281.272-.564.406-.84.2-.407.4-.813.592-1.22a2.309,2.309,0,0,0,.367-1.2,1.087,1.087,0,0,0-.083-.3A.868.868,0,0,0,5.771,10a1.23,1.23,0,0,0-1.175.608A1.238,1.238,0,0,0,3.42,10a.873.873,0,0,0-.845.474,1.08,1.08,0,0,0-.08.3,2.3,2.3,0,0,0,.364,1.2c.2.407.4.813.591,1.22.134.276.273.559.407.84.1.213.2.422.3.635.032.059.059.118.088.181l0,.008a.808.808,0,0,1,.032.663.551.551,0,0,1-.647.332.615.615,0,0,1-.38-.284.527.527,0,0,1,0-.607.368.368,0,0,1,.292-.166.349.349,0,0,1,.3.091.351.351,0,0,1,.063.138.2.2,0,0,1-.011.126c-.035.08-.19.147-.26.094s-.091-.173-.115-.228l-.027.048a.427.427,0,0,0-.016.07c0,.024,0,.051,0,.075s0,.032-.016.04a1.184,1.184,0,0,0-.158.04s.032.07.174.114a.506.506,0,0,0,.024.139.381.381,0,0,0,.035.067l.043.043a.294.294,0,0,1,.008-.083c.016-.07.083-.075.147-.067a.337.337,0,0,0,.3-.134.537.537,0,0,0,.106-.383.489.489,0,0,0-.165-.327.86.86,0,0,0-.4-.134c-.019,0-.182-.027-.134-.078a.453.453,0,0,0,.1-.161.249.249,0,0,1-.016-.3c.1-.177-.056-.055-.252,0,.086-.951-.573-.915-.573-.915A1.924,1.924,0,0,1,2.879,14.6a1.355,1.355,0,0,0,.166,1.412.376.376,0,0,0-.252.2.386.386,0,0,0,.252.206,1.346,1.346,0,0,0-.166,1.408A1.92,1.92,0,0,1,2.7,19.35s.659.035.573-.915c.2.055.355.177.252,0a.239.239,0,0,1,.016-.291.443.443,0,0,0-.1-.166c-.048-.048.115-.075.134-.08a.829.829,0,0,0,.4-.13.507.507,0,0,0,.165-.327.539.539,0,0,0-.106-.386.345.345,0,0,0-.3-.134c-.064.008-.131,0-.147-.067a.3.3,0,0,1-.008-.083c0,.008-.035.039-.043.047a.4.4,0,0,0-.035.064.563.563,0,0,0-.024.142c-.142.04-.174.11-.174.114s.146.036.158.04.016.013.016.035,0,.052,0,.08a.386.386,0,0,0,.016.067l.027.051c.024-.056.04-.182.115-.233s.225.02.26.094a.2.2,0,0,1,.011.127.366.366,0,0,1-.063.141.35.35,0,0,1-.3.088.379.379,0,0,1-.292-.161.534.534,0,0,1,0-.612.611.611,0,0,1,.38-.284.553.553,0,0,1,.647.335.809.809,0,0,1-.032.663l0,.008c-.028.059-.056.118-.088.181-.1.209-.2.423-.3.632-.134.284-.273.564-.407.843-.193.407-.394.809-.591,1.215a2.3,2.3,0,0,0-.364,1.2,1.014,1.014,0,0,0,.08.3.876.876,0,0,0,.845.477A1.237,1.237,0,0,0,4.6,21.812a1.23,1.23,0,0,0,1.175.612.871.871,0,0,0,.841-.477,1.018,1.018,0,0,0,.083-.3,2.313,2.313,0,0,0-.367-1.2C6.134,20.036,5.933,19.634,5.735,19.227ZM3.46,12.346c-.139-.288-.3-.567-.431-.867a.936.936,0,0,1-.051-.848.583.583,0,0,1,.509-.268.683.683,0,0,1,.355.078.463.463,0,0,1,.228.276.332.332,0,0,1-.063.324.254.254,0,0,1-.316.043.292.292,0,0,1-.1-.158.907.907,0,0,1-.019-.185.235.235,0,0,0-.182.169,1.057,1.057,0,0,1-.032.139c-.019.051-.055.059-.1.067a.2.2,0,0,0-.11.055.515.515,0,0,0-.064.072c.051.106.182.118.284.13a.432.432,0,0,0,.059.233.348.348,0,0,0,.08.094s.09.056.09.043c-.008-.126.013-.284.15-.339.043-.019.107.008.158,0,.15-.011.288-.1.442-.1,0,.335-.016.923-.016.923-.064.252-.288.2-.568.161a.773.773,0,0,0,.627.474.674.674,0,0,0,.209.947.674.674,0,0,0,.209-.947.785.785,0,0,0,.627-.474c-.284.043-.509.091-.568-.161,0,0-.016-.588-.016-.923.15,0,.288.086.442.1.047,0,.11-.023.158,0,.134.055.153.213.146.339,0,.013.086-.039.094-.043a.455.455,0,0,0,.08-.094.461.461,0,0,0,.055-.233c.107-.011.233-.024.289-.13a.553.553,0,0,0-.067-.072.186.186,0,0,0-.11-.055.116.116,0,0,1-.1-.067c-.019-.044-.016-.1-.031-.139a.232.232,0,0,0-.178-.169,1,1,0,0,1-.023.185.3.3,0,0,1-.1.158.248.248,0,0,1-.311-.043.334.334,0,0,1-.067-.324.483.483,0,0,1,.228-.276.687.687,0,0,1,.356-.078.584.584,0,0,1,.513.268.948.948,0,0,1-.056.848c-.126.3-.288.58-.43.867-.363.758-.71,1.515-1.062,2.281a.459.459,0,0,0-.07.153.47.47,0,0,0-.075-.153C4.173,13.862,3.822,13.1,3.46,12.346Zm.618,3.863c.265-.043.517-.414.517-.414s.252.371.513.414c-.26.048-.513.418-.513.418S4.343,16.257,4.078,16.209Zm2.135,5.579a.6.6,0,0,1-.513.272.687.687,0,0,1-.356-.078.505.505,0,0,1-.228-.276.329.329,0,0,1,.067-.323.246.246,0,0,1,.311-.048.314.314,0,0,1,.1.158,1.032,1.032,0,0,1,.023.189.243.243,0,0,0,.178-.169c.015-.048.011-.094.031-.142s.059-.056.1-.063a.175.175,0,0,0,.11-.06.467.467,0,0,0,.067-.067c-.056-.11-.182-.122-.289-.134a.4.4,0,0,0-.134-.327c-.008,0-.094-.051-.094-.039a.318.318,0,0,1-.146.339c-.048.02-.111-.008-.158,0-.155.008-.292.094-.442.094,0-.335.016-.923.016-.923.059-.252.284-.2.568-.158a.768.768,0,0,0-.627-.473A.68.68,0,0,0,4.6,18.6a.68.68,0,0,0-.209.951.758.758,0,0,0-.627.473c.281-.043.5-.094.568.158,0,0,.016.588.016.923-.155,0-.292-.086-.442-.094-.051,0-.115.024-.158,0a.316.316,0,0,1-.15-.339c0-.013-.086.039-.09.039a.353.353,0,0,0-.08.1.436.436,0,0,0-.059.232c-.1.013-.233.024-.284.134a.435.435,0,0,0,.064.067.191.191,0,0,0,.11.06c.048.007.083.011.1.063a1.063,1.063,0,0,1,.032.142.246.246,0,0,0,.182.169.94.94,0,0,1,.019-.189.3.3,0,0,1,.1-.158.252.252,0,0,1,.316.048.327.327,0,0,1,.063.323.483.483,0,0,1-.228.276.683.683,0,0,1-.355.078.6.6,0,0,1-.509-.272.937.937,0,0,1,.051-.848c.131-.3.292-.576.431-.868.363-.757.714-1.515,1.061-2.276.019-.04.075-.115.075-.158a.527.527,0,0,0,.07.158c.351.76.7,1.519,1.062,2.276.142.292.3.572.43.868A.948.948,0,0,1,6.213,21.788Z" transform="translate(-2.49 -3.786)" fill="#fdc41b"/><path d="M6.328,8.766c-.193-.407-.394-.809-.592-1.215-.134-.28-.268-.564-.406-.84-.1-.214-.2-.426-.3-.64C5,6.012,4.97,5.953,4.938,5.894l0-.008A.848.848,0,0,1,4.9,5.22a.559.559,0,0,1,.647-.332.612.612,0,0,1,.379.284.532.532,0,0,1,0,.612.36.36,0,0,1-.288.161.286.286,0,0,1-.364-.228A.193.193,0,0,1,5.29,5.59.222.222,0,0,1,5.55,5.5c.075.055.086.177.11.232l.027-.051A.29.29,0,0,0,5.7,5.609a.454.454,0,0,0,0-.078c0-.024,0-.032.019-.035s.158-.036.158-.043a.272.272,0,0,0-.177-.111A.466.466,0,0,0,5.684,5.2a.2.2,0,0,0-.035-.063c0-.008-.044-.04-.044-.048a.666.666,0,0,1,0,.083c-.019.072-.083.075-.146.067a.338.338,0,0,0-.3.134.541.541,0,0,0-.106.386.482.482,0,0,0,.165.327.814.814,0,0,0,.394.131c.025,0,.186.032.139.078a.434.434,0,0,0-.1.166.238.238,0,0,1,.013.292c-.1.182.059.059.256,0-.091.951.572.916.572.916a1.917,1.917,0,0,1-.177-1.528,1.355,1.355,0,0,0-.161-1.412.365.365,0,0,0,.249-.2H5.108c-.26.043-.513.418-.513.418s-.031-.043-.083-.1c-.091.1-.182.194-.272.292a.656.656,0,0,1,.043.08.816.816,0,0,1-.032.666l0,.008c-.028.059-.056.118-.088.177-.1.214-.2.426-.3.64-.134.276-.273.56-.407.84-.193.406-.394.808-.591,1.215a2.3,2.3,0,0,0-.364,1.2,1,1,0,0,0,.08.3.876.876,0,0,0,.845.477A1.237,1.237,0,0,0,4.6,10.135a1.23,1.23,0,0,0,1.175.612.871.871,0,0,0,.841-.477,1.009,1.009,0,0,0,.083-.3A2.319,2.319,0,0,0,6.328,8.766Zm-.115,1.349a.6.6,0,0,1-.513.268.748.748,0,0,1-.356-.078.513.513,0,0,1-.228-.276.331.331,0,0,1,.067-.324.249.249,0,0,1,.311-.048.335.335,0,0,1,.1.158,1.082,1.082,0,0,1,.023.19A.239.239,0,0,0,5.8,9.836a1.3,1.3,0,0,1,.031-.142c.024-.052.059-.056.1-.064a.169.169,0,0,0,.11-.059A.533.533,0,0,0,6.11,9.5c-.056-.11-.182-.123-.289-.134a.478.478,0,0,0-.055-.233.364.364,0,0,0-.08-.091C5.68,9.038,5.593,8.991,5.593,9a.32.32,0,0,1-.146.34c-.048.019-.111-.008-.158,0-.155.008-.292.1-.442.1,0-.335.016-.924.016-.924.059-.252.284-.2.568-.157A.77.77,0,0,0,4.8,7.878a.678.678,0,0,0-.209-.95.678.678,0,0,0-.209.95.759.759,0,0,0-.627.474c.281-.044.5-.1.568.157,0,0,.016.589.016.924-.155,0-.292-.088-.442-.1-.051,0-.115.024-.158,0A.317.317,0,0,1,3.593,9c0-.011-.086.035-.09.043a.291.291,0,0,0-.08.091.448.448,0,0,0-.059.233c-.1.011-.233.024-.284.134a.494.494,0,0,0,.064.067.183.183,0,0,0,.11.059c.048.008.083.011.1.064a.925.925,0,0,1,.032.142.242.242,0,0,0,.182.169.978.978,0,0,1,.019-.19.324.324,0,0,1,.1-.158.255.255,0,0,1,.316.048.329.329,0,0,1,.063.324.49.49,0,0,1-.228.276.744.744,0,0,1-.355.078.6.6,0,0,1-.509-.268.946.946,0,0,1,.051-.853c.131-.3.292-.575.431-.867.363-.754.714-1.515,1.061-2.277.019-.04.075-.115.075-.158a.527.527,0,0,0,.07.158c.351.762.7,1.523,1.062,2.277.142.292.3.572.43.867A.958.958,0,0,1,6.213,10.115ZM4.039,5.373l0,0c-.055.063-.11.122-.161.185A.246.246,0,0,1,3.9,5.59a.2.2,0,0,1,.011.126.335.335,0,0,1-.063.139.347.347,0,0,1-.3.09h0c-.2.249-.394.506-.58.766a1.968,1.968,0,0,1-.265.963s.659.035.573-.916c.2.056.355.178.252,0a.241.241,0,0,1,.016-.292.452.452,0,0,0-.1-.166c-.048-.047.115-.075.134-.078a.843.843,0,0,0,.4-.131.5.5,0,0,0,.165-.327A.541.541,0,0,0,4.039,5.373Z" transform="translate(-2.49 -4.533)" fill="#fdc41b"/><path d="M5.913,24.913c-.2-.055-.355-.173-.256,0a.238.238,0,0,1-.013.292.4.4,0,0,0,.1.165c.048.051-.114.075-.139.08a.806.806,0,0,0-.394.134.472.472,0,0,0-.165.323.538.538,0,0,0,.106.388.343.343,0,0,0,.3.138c.063-.008.126-.008.146.064a.657.657,0,0,1,0,.082s.04-.035.044-.043a.211.211,0,0,0,.035-.067.449.449,0,0,0,.024-.138.283.283,0,0,0,.177-.115s-.147-.035-.158-.04-.019-.015-.019-.039a.416.416,0,0,0,0-.075.347.347,0,0,0-.016-.072l-.027-.047c-.024.055-.035.177-.11.228a.214.214,0,0,1-.26-.094.193.193,0,0,1-.013-.126.345.345,0,0,1,.064-.139.351.351,0,0,1,.3-.091.356.356,0,0,1,.288.166.532.532,0,0,1,0,.612.618.618,0,0,1-.379.28.554.554,0,0,1-.647-.331.852.852,0,0,1,.031-.667l0,0c.032-.059.059-.123.086-.182.1-.213.2-.422.3-.635.138-.28.272-.559.406-.84.2-.406.4-.808.592-1.215a2.321,2.321,0,0,0,.367-1.2,1.084,1.084,0,0,0-.083-.3.867.867,0,0,0-.841-.473,1.23,1.23,0,0,0-1.175.607,1.238,1.238,0,0,0-1.175-.607.872.872,0,0,0-.845.473,1.077,1.077,0,0,0-.08.3,2.306,2.306,0,0,0,.364,1.2c.2.407.4.809.591,1.215.134.281.273.56.407.84.1.214.2.423.3.635.032.059.059.123.088.182l0,0a.819.819,0,0,1,.032.667c-.013.027-.028.055-.043.083.086.1.177.2.268.292a.825.825,0,0,0,.086-.107s.252.375.513.418H6.395a.362.362,0,0,0-.249-.2,1.355,1.355,0,0,0,.161-1.413A1.919,1.919,0,0,1,6.484,24S5.822,23.966,5.913,24.913Zm-1.247.64a.509.509,0,0,0-.07.157c0-.043-.056-.118-.075-.157-.347-.758-.7-1.52-1.061-2.277-.139-.292-.3-.568-.431-.864a.947.947,0,0,1-.051-.853.6.6,0,0,1,.509-.268.684.684,0,0,1,.355.08.46.46,0,0,1,.228.275.329.329,0,0,1-.063.324.253.253,0,0,1-.316.043.288.288,0,0,1-.1-.158.9.9,0,0,1-.019-.185.234.234,0,0,0-.182.171.9.9,0,0,1-.032.138c-.019.056-.055.056-.1.064a.228.228,0,0,0-.11.059.509.509,0,0,0-.064.07c.051.107.182.118.284.131a.425.425,0,0,0,.059.232.3.3,0,0,0,.08.1s.09.055.09.043a.315.315,0,0,1,.15-.34c.043-.019.107.008.158,0,.15-.013.288-.094.442-.094,0,.331-.016.918-.016.918-.064.257-.288.206-.568.158a.761.761,0,0,0,.627.474.677.677,0,0,0,.209.95.677.677,0,0,0,.209-.95.772.772,0,0,0,.627-.474c-.284.048-.509.1-.568-.158,0,0-.016-.588-.016-.918.15,0,.288.082.442.094.047,0,.11-.024.158,0,.134.056.153.214.146.34,0,.011.086-.04.094-.043a.367.367,0,0,0,.08-.1.454.454,0,0,0,.055-.232c.107-.013.233-.024.289-.131a.547.547,0,0,0-.067-.07.205.205,0,0,0-.11-.059c-.044-.008-.08-.008-.1-.064a1.279,1.279,0,0,1-.031-.138.232.232,0,0,0-.178-.171.983.983,0,0,1-.023.185.3.3,0,0,1-.1.158.246.246,0,0,1-.311-.043.331.331,0,0,1-.067-.324.481.481,0,0,1,.228-.275.688.688,0,0,1,.356-.08.6.6,0,0,1,.513.268.958.958,0,0,1-.056.853c-.126.3-.288.572-.43.864C5.365,24.033,5.017,24.795,4.666,25.553Zm-.685.035a.835.835,0,0,0-.4-.134c-.019,0-.182-.028-.134-.08a.418.418,0,0,0,.1-.165.241.241,0,0,1-.016-.292c.1-.177-.056-.059-.252,0C3.364,23.966,2.7,24,2.7,24a1.99,1.99,0,0,1,.265.966q.273.39.58.762a.352.352,0,0,1,.3.091.329.329,0,0,1,.063.139.2.2,0,0,1-.011.126.139.139,0,0,1-.027.039l.161.185,0-.007a.538.538,0,0,0,.106-.388A.486.486,0,0,0,3.98,25.588Z" transform="translate(-2.49 -2.291)" fill="#fdc41b"/></g><path d="M5.365,27.007l-.056.123c.035.035.075.067.11.1A.49.49,0,0,0,5.365,27.007Zm.055.222c.056.047.107.094.166.142A.234.234,0,0,0,5.42,27.229Zm.371-.557s.115-.055.126-.059a.4.4,0,0,0,.186-.221H4.816a.929.929,0,0,0-.193.1c.115.114.233.224.348.331a.624.624,0,0,1,.189-.016c.308.02.485.126.564.34a.669.669,0,0,1,.024.359c.11.094.222.185.335.272A.991.991,0,0,0,5.79,26.672Z" transform="translate(-2.199 -0.163)" fill="#fdc41b"/><path d="M5.917,4.482a1.3,1.3,0,0,1-.126-.064.989.989,0,0,0,.292-1.1c-.11.086-.225.177-.335.268a.666.666,0,0,1-.024.359c-.078.217-.256.324-.564.339a.593.593,0,0,1-.185-.015c-.118.11-.236.221-.351.335a.823.823,0,0,0,.193.094H6.1A.386.386,0,0,0,5.917,4.482Zm-.492-.62a.237.237,0,0,0,.161-.134C5.53,3.772,5.476,3.815,5.424,3.862Zm-.115.1.056.118a.475.475,0,0,0,.055-.216C5.385,3.9,5.345,3.93,5.31,3.965Z" transform="translate(-2.199 -3.318)" fill="#fdc41b"/></g><g transform="translate(9.367 7.393)"><g transform="translate(3.675)"><path d="M23.25,13.55a4.73,4.73,0,1,1-4.73-4.731A4.732,4.732,0,0,1,23.25,13.55Z" transform="translate(-11.157 -6.187)" fill="#fdc41b"/><path d="M18.384,8.126a.386.386,0,0,1-.773,0C17.611,7.909,18,6.5,18,6.5S18.384,7.909,18.384,8.126Z" transform="translate(-10.635 -6.504)" fill="#fdc41b"/><path d="M18.384,8.126a.386.386,0,0,1-.773,0C17.611,7.909,18,6.5,18,6.5S18.384,7.909,18.384,8.126Z" transform="translate(-10.635 -6.504)" fill="#fdc41b"/><path d="M17.391,8.14a.389.389,0,1,1-.762.155c-.039-.214.067-1.665.067-1.665S17.352,7.932,17.391,8.14Z" transform="translate(-10.77 -6.487)" fill="#fdc41b"/><path d="M17.391,8.14a.389.389,0,1,1-.762.155c-.039-.214.067-1.665.067-1.665S17.352,7.932,17.391,8.14Z" transform="translate(-10.77 -6.487)" fill="#fdc41b"/><path d="M16.451,8.346a.388.388,0,0,1-.717.3c-.083-.2-.26-1.645-.26-1.645S16.369,8.15,16.451,8.346Z" transform="translate(-10.927 -6.437)" fill="#fdc41b"/><path d="M16.451,8.346a.388.388,0,0,1-.717.3c-.083-.2-.26-1.645-.26-1.645S16.369,8.15,16.451,8.346Z" transform="translate(-10.927 -6.437)" fill="#fdc41b"/><path d="M15.575,8.726a.389.389,0,1,1-.648.43c-.118-.177-.575-1.557-.575-1.557S15.456,8.548,15.575,8.726Z" transform="translate(-11.081 -6.354)" fill="#fdc41b"/><path d="M15.575,8.726a.389.389,0,1,1-.648.43c-.118-.177-.575-1.557-.575-1.557S15.456,8.548,15.575,8.726Z" transform="translate(-11.081 -6.354)" fill="#fdc41b"/><path d="M14.79,9.27a.391.391,0,0,1,0,.549.384.384,0,0,1-.548,0c-.155-.15-.873-1.416-.873-1.416S14.64,9.12,14.79,9.27Z" transform="translate(-11.215 -6.244)" fill="#fdc41b"/><path d="M14.79,9.27a.391.391,0,0,1,0,.549.384.384,0,0,1-.548,0c-.155-.15-.873-1.416-.873-1.416S14.64,9.12,14.79,9.27Z" transform="translate(-11.215 -6.244)" fill="#fdc41b"/><path d="M14.127,9.961a.387.387,0,1,1-.431.642c-.177-.118-1.132-1.219-1.132-1.219S13.949,9.843,14.127,9.961Z" transform="translate(-11.325 -6.11)" fill="#fdc41b"/><path d="M14.127,9.961a.387.387,0,1,1-.431.642c-.177-.118-1.132-1.219-1.132-1.219S13.949,9.843,14.127,9.961Z" transform="translate(-11.325 -6.11)" fill="#fdc41b"/><path d="M13.608,10.763a.388.388,0,1,1-.3.717c-.2-.083-1.346-.978-1.346-.978S13.412,10.684,13.608,10.763Z" transform="translate(-11.407 -5.957)" fill="#fdc41b"/><path d="M13.608,10.763a.388.388,0,1,1-.3.717c-.2-.083-1.346-.978-1.346-.978S13.412,10.684,13.608,10.763Z" transform="translate(-11.407 -5.957)" fill="#fdc41b"/><path d="M13.261,11.663a.388.388,0,0,1-.15.762c-.209-.044-1.512-.7-1.512-.7S13.052,11.62,13.261,11.663Z" transform="translate(-11.457 -5.8)" fill="#fdc41b"/><path d="M13.261,11.663a.388.388,0,0,1-.15.762c-.209-.044-1.512-.7-1.512-.7S13.052,11.62,13.261,11.663Z" transform="translate(-11.457 -5.8)" fill="#fdc41b"/><path d="M13.092,12.641a.388.388,0,0,1,0,.776c-.213,0-1.618-.39-1.618-.39S12.879,12.641,13.092,12.641Z" transform="translate(-11.474 -5.665)" fill="#fdc41b"/><path d="M13.092,12.641a.388.388,0,0,1,0,.776c-.213,0-1.618-.39-1.618-.39S12.879,12.641,13.092,12.641Z" transform="translate(-11.474 -5.665)" fill="#fdc41b"/><path d="M13.111,13.634a.384.384,0,0,1,.454.3.391.391,0,0,1-.3.458c-.209.04-1.662-.067-1.662-.067S12.9,13.677,13.111,13.634Z" transform="translate(-11.457 -5.53)" fill="#fdc41b"/><path d="M13.111,13.634a.384.384,0,0,1,.454.3.391.391,0,0,1-.3.458c-.209.04-1.662-.067-1.662-.067S12.9,13.677,13.111,13.634Z" transform="translate(-11.457 -5.53)" fill="#fdc41b"/><path d="M13.313,14.606a.386.386,0,1,1,.3.714c-.2.083-1.641.264-1.641.264S13.115,14.684,13.313,14.606Z" transform="translate(-11.407 -5.4)" fill="#fdc41b"/><path d="M13.313,14.606a.386.386,0,1,1,.3.714c-.2.083-1.641.264-1.641.264S13.115,14.684,13.313,14.606Z" transform="translate(-11.407 -5.4)" fill="#fdc41b"/><path d="M13.7,15.512a.389.389,0,0,1,.431.647c-.178.118-1.563.576-1.563.576S13.519,15.635,13.7,15.512Z" transform="translate(-11.325 -5.281)" fill="#fdc41b"/><path d="M13.7,15.512a.389.389,0,0,1,.431.647c-.178.118-1.563.576-1.563.576S13.519,15.635,13.7,15.512Z" transform="translate(-11.325 -5.281)" fill="#fdc41b"/><path d="M14.242,16.327a.387.387,0,1,1,.548.548c-.15.153-1.421.872-1.421.872S14.087,16.48,14.242,16.327Z" transform="translate(-11.215 -5.176)" fill="#fdc41b"/><path d="M14.242,16.327a.387.387,0,1,1,.548.548c-.15.153-1.421.872-1.421.872S14.087,16.48,14.242,16.327Z" transform="translate(-11.215 -5.176)" fill="#fdc41b"/><path d="M14.927,17.014a.39.39,0,0,1,.648.434c-.119.177-1.223,1.128-1.223,1.128S14.809,17.191,14.927,17.014Z" transform="translate(-11.081 -5.091)" fill="#fdc41b"/><path d="M14.927,17.014a.39.39,0,0,1,.648.434c-.119.177-1.223,1.128-1.223,1.128S14.809,17.191,14.927,17.014Z" transform="translate(-11.081 -5.091)" fill="#fdc41b"/><path d="M15.733,17.549a.388.388,0,0,1,.717.3c-.082.2-.978,1.349-.978,1.349S15.65,17.746,15.733,17.549Z" transform="translate(-10.927 -5.027)" fill="#fdc41b"/><path d="M15.733,17.549a.388.388,0,0,1,.717.3c-.082.2-.978,1.349-.978,1.349S15.65,17.746,15.733,17.549Z" transform="translate(-10.927 -5.027)" fill="#fdc41b"/><path d="M16.629,17.908a.39.39,0,0,1,.458-.3.382.382,0,0,1,.3.454c-.039.213-.695,1.515-.695,1.515S16.59,18.118,16.629,17.908Z" transform="translate(-10.77 -4.987)" fill="#fdc41b"/><path d="M16.629,17.908a.39.39,0,0,1,.458-.3.382.382,0,0,1,.3.454c-.039.213-.695,1.515-.695,1.515S16.59,18.118,16.629,17.908Z" transform="translate(-10.77 -4.987)" fill="#fdc41b"/><path d="M17.611,18.08a.386.386,0,0,1,.773,0C18.384,18.3,18,19.7,18,19.7S17.611,18.3,17.611,18.08Z" transform="translate(-10.635 -4.974)" fill="#fdc41b"/><path d="M17.611,18.08a.386.386,0,0,1,.773,0C18.384,18.3,18,19.7,18,19.7S17.611,18.3,17.611,18.08Z" transform="translate(-10.635 -4.974)" fill="#fdc41b"/><path d="M18.6,18.059a.388.388,0,0,1,.762-.15c.043.209-.064,1.665-.064,1.665S18.644,18.271,18.6,18.059Z" transform="translate(-10.501 -4.987)" fill="#fdc41b"/><path d="M18.6,18.059a.388.388,0,0,1,.762-.15c.043.209-.064,1.665-.064,1.665S18.644,18.271,18.6,18.059Z" transform="translate(-10.501 -4.987)" fill="#fdc41b"/><path d="M19.572,17.845a.384.384,0,0,1,.209-.5.389.389,0,0,1,.509.208c.083.2.26,1.646.26,1.646S19.655,18.042,19.572,17.845Z" transform="translate(-10.371 -5.027)" fill="#fdc41b"/><path d="M19.572,17.845a.384.384,0,0,1,.209-.5.389.389,0,0,1,.509.208c.083.2.26,1.646.26,1.646S19.655,18.042,19.572,17.845Z" transform="translate(-10.371 -5.027)" fill="#fdc41b"/><path d="M20.482,17.448a.392.392,0,0,1,.107-.541.388.388,0,0,1,.537.107c.123.177.58,1.562.58,1.562S20.6,17.625,20.482,17.448Z" transform="translate(-10.251 -5.091)" fill="#fdc41b"/><path d="M20.482,17.448a.392.392,0,0,1,.107-.541.388.388,0,0,1,.537.107c.123.177.58,1.562.58,1.562S20.6,17.625,20.482,17.448Z" transform="translate(-10.251 -5.091)" fill="#fdc41b"/><path d="M21.3,16.874a.384.384,0,0,1,0-.548.39.39,0,0,1,.548,0c.15.153.868,1.42.868,1.42S21.447,17.028,21.3,16.874Z" transform="translate(-10.147 -5.176)" fill="#fdc41b"/><path d="M21.3,16.874a.384.384,0,0,1,0-.548.39.39,0,0,1,.548,0c.15.153.868,1.42.868,1.42S21.447,17.028,21.3,16.874Z" transform="translate(-10.147 -5.176)" fill="#fdc41b"/><path d="M21.984,16.159a.388.388,0,0,1,.43-.647c.178.123,1.133,1.223,1.133,1.223S22.162,16.277,21.984,16.159Z" transform="translate(-10.061 -5.281)" fill="#fdc41b"/><path d="M21.984,16.159a.388.388,0,0,1,.43-.647c.178.123,1.133,1.223,1.133,1.223S22.162,16.277,21.984,16.159Z" transform="translate(-10.061 -5.281)" fill="#fdc41b"/><path d="M22.516,15.319a.387.387,0,1,1,.3-.714c.2.078,1.345.978,1.345.978S22.714,15.4,22.516,15.319Z" transform="translate(-9.997 -5.4)" fill="#fdc41b"/><path d="M22.516,15.319a.387.387,0,1,1,.3-.714c.2.078,1.345.978,1.345.978S22.714,15.4,22.516,15.319Z" transform="translate(-9.997 -5.4)" fill="#fdc41b"/><path d="M22.879,14.4a.388.388,0,1,1,.15-.762c.209.043,1.511.695,1.511.695S23.088,14.435,22.879,14.4Z" transform="translate(-9.958 -5.53)" fill="#fdc41b"/><path d="M22.879,14.4a.388.388,0,1,1,.15-.762c.209.043,1.511.695,1.511.695S23.088,14.435,22.879,14.4Z" transform="translate(-9.958 -5.53)" fill="#fdc41b"/><path d="M23.051,13.417a.388.388,0,1,1,0-.776c.214,0,1.618.386,1.618.386S23.265,13.417,23.051,13.417Z" transform="translate(-9.944 -5.665)" fill="#fdc41b"/><path d="M23.051,13.417a.388.388,0,1,1,0-.776c.214,0,1.618.386,1.618.386S23.265,13.417,23.051,13.417Z" transform="translate(-9.944 -5.665)" fill="#fdc41b"/><path d="M23.029,12.425a.388.388,0,1,1-.15-.762c.209-.043,1.661.063,1.661.063S23.238,12.381,23.029,12.425Z" transform="translate(-9.958 -5.8)" fill="#fdc41b"/><path d="M23.029,12.425a.388.388,0,1,1-.15-.762c.209-.043,1.661.063,1.661.063S23.238,12.381,23.029,12.425Z" transform="translate(-9.958 -5.8)" fill="#fdc41b"/><path d="M22.816,11.481a.389.389,0,1,1-.3-.717c.2-.08,1.645-.26,1.645-.26S23.013,11.4,22.816,11.481Z" transform="translate(-9.997 -5.957)" fill="#fdc41b"/><path d="M22.816,11.481a.389.389,0,1,1-.3-.717c.2-.08,1.645-.26,1.645-.26S23.013,11.4,22.816,11.481Z" transform="translate(-9.997 -5.957)" fill="#fdc41b"/><path d="M22.414,10.6a.386.386,0,1,1-.43-.642c.178-.118,1.563-.576,1.563-.576S22.592,10.485,22.414,10.6Z" transform="translate(-10.061 -6.11)" fill="#fdc41b"/><path d="M22.414,10.6a.386.386,0,1,1-.43-.642c.178-.118,1.563-.576,1.563-.576S22.592,10.485,22.414,10.6Z" transform="translate(-10.061 -6.11)" fill="#fdc41b"/><path d="M21.845,9.819A.388.388,0,0,1,21.3,9.27c.15-.15,1.416-.867,1.416-.867S21.995,9.669,21.845,9.819Z" transform="translate(-10.147 -6.244)" fill="#fdc41b"/><path d="M21.845,9.819A.388.388,0,0,1,21.3,9.27c.15-.15,1.416-.867,1.416-.867S21.995,9.669,21.845,9.819Z" transform="translate(-10.147 -6.244)" fill="#fdc41b"/><path d="M21.125,9.155a.385.385,0,0,1-.537.111.394.394,0,0,1-.107-.541C20.6,8.548,21.7,7.6,21.7,7.6S21.248,8.978,21.125,9.155Z" transform="translate(-10.251 -6.354)" fill="#fdc41b"/><path d="M21.125,9.155a.385.385,0,0,1-.537.111.394.394,0,0,1-.107-.541C20.6,8.548,21.7,7.6,21.7,7.6S21.248,8.978,21.125,9.155Z" transform="translate(-10.251 -6.354)" fill="#fdc41b"/><path d="M20.29,8.642a.388.388,0,0,1-.718-.3C19.655,8.15,20.55,7,20.55,7S20.373,8.445,20.29,8.642Z" transform="translate(-10.371 -6.437)" fill="#fdc41b"/><path d="M20.29,8.642a.388.388,0,0,1-.718-.3C19.655,8.15,20.55,7,20.55,7S20.373,8.445,20.29,8.642Z" transform="translate(-10.371 -6.437)" fill="#fdc41b"/><path d="M19.362,8.294a.384.384,0,0,1-.454.3A.391.391,0,0,1,18.6,8.14c.043-.208.7-1.511.7-1.511S19.406,8.081,19.362,8.294Z" transform="translate(-10.501 -6.487)" fill="#fdc41b"/><path d="M19.362,8.294a.384.384,0,0,1-.454.3A.391.391,0,0,1,18.6,8.14c.043-.208.7-1.511.7-1.511S19.406,8.081,19.362,8.294Z" transform="translate(-10.501 -6.487)" fill="#fdc41b"/></g><g transform="translate(0 8.085)"><path d="M18.719,21.167c-.155.067-.3.3-.4.406-.177.2-.356.391-.544.581a3.114,3.114,0,0,1-1.113.757c-.276.059-.56.019-.706.166s-.3.292-.3.379-.308.138-.364.324a.97.97,0,0,0-.027.433.87.87,0,0,0,.316-.165c.059-.056.059.07.059.07s.177-.019.213-.019a4,4,0,0,1,1-.15c.525,0,1.677.107,1.934.07s-.228-.1-.4-.1-.754-.086-.864-.086-.469.027-.469-.032.166-.244.2-.276-.418.043-.134-.131.19-.307.043-.256a3.339,3.339,0,0,0-.729.284c0,.059-.23.3-.3.233a.373.373,0,0,0-.216-.064s-.033-.11.173-.177.094.032.442-.163a12.78,12.78,0,0,0,1.992-1.294,2.686,2.686,0,0,1,1.228-.418c.308-.04.62-.059.926-.1a1.569,1.569,0,0,0,.861-.257,5.246,5.246,0,0,1,1.444-1.049,4.454,4.454,0,0,0,1.1-.525,13.057,13.057,0,0,0,1.061-1.234,3.644,3.644,0,0,1,.916-.647c.118-.059.872-.434.789-.035a3.212,3.212,0,0,1-.5.813c-.039.039.41-.174.506-.083s.043.288-.067.394-.372.375-.372.375.415-.036.38.1-.833.537-.892.591.016.091.016.139-.118.118-.221.221-.45.214-.391.359.019.072-.063.153-.383.091-.383.2.035.273-.027.34a1.493,1.493,0,0,1-.45.118.294.294,0,0,1,0,.26,8.168,8.168,0,0,1-1.645.843c-.088,0-.222.08-.19.08a5.437,5.437,0,0,0,1.756-.284c.433-.257.812-.34.915-.442s-.359-.2-.359-.311.272-.249.746-.308.71-.09.5-.153-.521,0-.521-.091.051-.078.275-.146.785-.115.785-.249-.418-.078-.54-.123,0-.043.422-.185.821-.307.821-.4-.41-.118-.533-.118-.2-.027.032-.153a6.157,6.157,0,0,0,1.295-.92c.165-.256.307-.4.209-.493s-.423.241-.722.292-.391.118-.3-.027.5-.438.918-.856.99-.9.99-1.086.024-.359-.213-.307-.521.457-.679.615-.947.762-.947.762.434-.525.907-1.188a4.2,4.2,0,0,0,.7-1.14.6.6,0,0,0-.075-.288.4.4,0,0,0-.454.134c-.206.2-.8,1.156-.995,1.282s-.324.319-.193.122a11.918,11.918,0,0,0,.556-1.223,4.41,4.41,0,0,0,.281-1.128c0-.155-.028-.458-.19-.537-.182-.088-.331.086-.351.244a8.108,8.108,0,0,1-.193.982,3.367,3.367,0,0,1-.174.489,1.8,1.8,0,0,1-.268.4,6.237,6.237,0,0,0,.131-.626,2.61,2.61,0,0,0-.04-.679c-.019-.088-.051-.193-.153-.185-.2.015-.3.232-.323.406a3.206,3.206,0,0,1-.206.778c-.142.374-.3.741-.474,1.1a8.077,8.077,0,0,1-3.373,3.483,9.148,9.148,0,0,1-3.736,1.113A.181.181,0,0,0,18.719,21.167Z" transform="translate(-7.282 -13.616)" fill="#fdc41b"/><path d="M21.111,22.34c-.118,0-.272-.083-.272.138a.478.478,0,0,1-.335.482,10.143,10.143,0,0,1-2.344.161,1.72,1.72,0,0,0-1.487.564c-.1.2-.059.462.153.332a4.111,4.111,0,0,1,.7-.442c.1,0-.107.477.118.442s.383-.34.576-.386.209.086.142.24-.1.364.248.1.471-.426.471-.206.078.316.358.131.19-.319.308-.319.091.11.174.2.221.217.513-.161c.094-.094.118-.075.209.016s.035.284.276.13.343-.4.485-.4c.114,0,.114.276.268.161a.314.314,0,0,0,.051-.063c.07-.119.158-.41.331-.41.225,0,.249.208.434.208s.383.013.45-.252.07-.548.213-.4c.185.182.423.348.664.166a.7.7,0,0,0,.236-.335.181.181,0,0,0-.15-.233c-.388-.051-.778-.086-1.169-.114-.228-.016-.457-.028-.687-.04a2.771,2.771,0,0,0-.65-.016C21.186,22.067,21.111,22.34,21.111,22.34Z" transform="translate(-7.095 -12.469)" fill="#fdc41b"/><path d="M11.052,17.107a3.378,3.378,0,0,1,.426.41c.153.158.3.313.462.469a9.255,9.255,0,0,0,1.215,1.44,8.777,8.777,0,0,0,1.164.584,5.91,5.91,0,0,1,.99.757,2.831,2.831,0,0,0,1.528.648,3.182,3.182,0,0,1,1.321.134c.147.146.517.28.6.2a3.5,3.5,0,0,0,.284-.473,1.662,1.662,0,0,0-.592-.075A7.512,7.512,0,0,1,15.4,20.26a8.391,8.391,0,0,1-3.109-2.632,12.146,12.146,0,0,1-1.354-2.979c-.107-.394-.406-.394-.406.155s.292.982.209,1.065c-.059.063-.407-.64-.431-.691a7.8,7.8,0,0,1-.386-1.242c-.024-.1-.035-.268-.153-.308s-.228.083-.289.182a.624.624,0,0,0-.027.391,2.739,2.739,0,0,0,.155.663c.082.224.153.446.232.671.118.347.244.69.375,1.037,0,0-.749-1.041-1-1.294-.086-.086-.173-.174-.268-.252-.055-.048-.228-.213-.291-.091a.2.2,0,0,0-.013.086,2.07,2.07,0,0,0,.319,1.014c.276.439,1.078,1.472,1.078,1.472s-.517-.462-.77-.714-1.076-.845-1.022-.45,1.622,1.784,1.748,2c.027.048.118.268-.028.228a.174.174,0,0,1-.086-.063,1.841,1.841,0,0,0-.3-.225.582.582,0,0,0-.265-.134c-.107,0-.248.13.008.386s1.7.942,1.7,1.038-.623.024-.793.024-.26.051-.07.161a7.752,7.752,0,0,0,.829.249c.248.094.462.055.386.13-.059.059-.185.059-.26.067-.118.016-.268-.016-.379.011-.086.02-.072.06-.013.123.158.153.845.236.892.284s-.214.153-.284.153-.383-.016-.147.123a6.683,6.683,0,0,0,1.121.28c.019.024-.469.171-.469.249s.221.131.241.153a11.935,11.935,0,0,0,3.053.975,19.066,19.066,0,0,1-2.568-1.062c-.075-.153.291-.213.291-.316s-.272-.1-.521-.232-.347-.131-.256-.222.374-.083.118-.2-.572-.04-.521-.23.213-.122.169-.248-.206-.11-.244-.222c-.028-.083.027-.142-.02-.225-.106-.2-.425-.248-.612-.347a.8.8,0,0,1-.268-.174c-.1-.13.23-.173.316-.169-.078-.063-.785-.659-.607-.714a.832.832,0,0,1,.232-.056c.072,0,.167.028.174-.075a.557.557,0,0,0-.083-.236c-.118-.236-.434-.639-.323-.682.13-.051.3.158.4.075.047-.036.067-.1.1-.147S10.985,17.063,11.052,17.107Z" transform="translate(-8.241 -13.616)" fill="#fdc41b"/></g></g></g></svg>