<svg xmlns="http://www.w3.org/2000/svg" width="35.169" height="35.169" viewBox="0 0 35.169 35.169"><g transform="translate(0)"><g transform="translate(0 0)"><path d="M11.725.885V34.041a17.691,17.691,0,0,1-8.541-6.5c-.118-.166-.233-.34-.348-.509-.221-.343-.433-.69-.631-1.049A17.5,17.5,0,0,1,0,17.463c0-.26.008-.521.019-.781A17.5,17.5,0,0,1,4.044,6.258c.051-.059.1-.118.153-.181l0,0A17.6,17.6,0,0,1,11.725.885Z" transform="translate(0 0.121)" fill="#c4272f"/><path d="M32.349,17.463A17.613,17.613,0,0,0,20.627.885V34.041A17.612,17.612,0,0,0,32.349,17.463Z" transform="translate(2.82 0.121)" fill="#c4272f"/><path d="M16.174,0a17.484,17.484,0,0,0-5.862,1.006V34.162a17.567,17.567,0,0,0,11.725,0V1.006A17.486,17.486,0,0,0,16.174,0Z" transform="translate(1.41 0)" fill="#015197"/><g transform="translate(0 6.199)"><g transform="translate(0 10.604)"><path d="M1.183,14.782V21.9A17.468,17.468,0,0,1,0,15.563c0-.26.008-.521.019-.781Z" transform="translate(0 -14.782)" fill="#f9cf02"/><rect width="2.561" height="12.412" transform="translate(7.413 0)" fill="#f9cf02"/></g><path d="M2.074,18.917a2.586,2.586,0,0,0,.41,3.63,3.177,3.177,0,0,0,.418.273l-.008-.013a.892.892,0,0,1-.067-.075h0c-.019-.027-.04-.051-.059-.075l-.011-.019a.588.588,0,0,1-.052-.075l0,0a.751.751,0,0,1-.04-.072l-.011-.016L2.615,22.4l0-.011a.325.325,0,0,1-.027-.064l-.008-.015-.024-.072,0-.011a.4.4,0,0,1-.016-.064s0-.008,0-.016a.478.478,0,0,1-.016-.067v-.016a.351.351,0,0,1-.008-.055c0-.008,0-.013,0-.016a.306.306,0,0,0,0-.064v-.082c0-.02,0-.044,0-.064v-.016c0-.016,0-.035.008-.055v0c0-.019,0-.04.008-.059a.089.089,0,0,0,0-.016c0-.016.008-.035.013-.055a1.536,1.536,0,0,1,1.55-1.156,1.716,1.716,0,0,0,.955-.343,1.092,1.092,0,0,0,.347-.576,1.288,1.288,0,0,0-.379-1.191,1.367,1.367,0,0,0-1.161-.351,2.654,2.654,0,0,0-.76.193,2.61,2.61,0,0,0-.671.414A2.835,2.835,0,0,0,2.074,18.917Z" transform="translate(0.207 -3.745)" fill="#f9cf02"/><path d="M5.966,22.106a2.575,2.575,0,0,0-.41-3.626,2.814,2.814,0,0,0-.529-.327l0,.008.04.04a1.668,1.668,0,0,1,.39.717A1.364,1.364,0,0,1,4.6,20.464a2.561,2.561,0,0,1-.639.142,1.579,1.579,0,0,0-1.188.584,1.117,1.117,0,0,0-.185.824A1.361,1.361,0,0,0,3.7,23.06a2.179,2.179,0,0,0,1.042-.107A2.594,2.594,0,0,0,5.966,22.106Z" transform="translate(0.351 -3.717)" fill="#f9cf02"/><circle cx="0.541" cy="0.541" r="0.541" transform="translate(3.791 17.556)" fill="#c4272f"/><path d="M4.416,19.113a.541.541,0,1,1-.54-.541A.542.542,0,0,1,4.416,19.113Z" transform="translate(0.456 -3.659)" fill="#c4272f"/><rect width="5.16" height="1.053" transform="translate(1.72 12.664)" fill="#f9cf02"/><path d="M6.615,22.963v1.049H2.571c-.221-.343-.433-.69-.631-1.049Z" transform="translate(0.265 -3.059)" fill="#f9cf02"/><path d="M6.5,24.334l-1.29.776-1.219.734A17.655,17.655,0,0,1,2.8,24.334Z" transform="translate(0.383 -2.872)" fill="#f9cf02"/><path d="M4.093,14.782h2.58l-1.29.777-1.29.773L2.8,15.559l-1.29-.777Z" transform="translate(0.207 -4.178)" fill="#f9cf02"/><circle cx="2.087" cy="2.087" r="2.087" transform="translate(2.213 4.375)" fill="#f9cf02"/><path d="M3.935,9.335A1.294,1.294,0,0,1,2.645,8.04a1.082,1.082,0,0,1,.311-.674c.027-.059-.027-.174-.035-.319s-.036-.23.063-.348c.088-.1.139-.157.15-.169a.579.579,0,0,0-.019.236.758.758,0,0,0,.123.2.7.7,0,0,1,.007.5c-.059.165-.134.371-.007.489a.236.236,0,0,0,.379.008c.114-.131.094-.217.031-.363A.833.833,0,0,1,3.488,7a2.333,2.333,0,0,1,.23-.612.965.965,0,0,0-.024-.6.559.559,0,0,1-.011-.155c.051-.059.1-.118.153-.181a.211.211,0,0,0,.048.142c.355.438.808,1.025.484,1.7,0,0-.248.446-.126.592.032.059.276.311.462.019a.459.459,0,0,0-.055-.383.506.506,0,0,1,.043-.583.407.407,0,0,0,.048-.423.593.593,0,0,1,.228.386c.024.241-.123.343.027.552a.835.835,0,0,1,.23.588A1.265,1.265,0,0,1,3.935,9.335Z" transform="translate(0.362 -5.453)" fill="#f9cf02"/><path d="M4.125,13.65A3.1,3.1,0,0,1,1.284,11.8c0,.016,0,.027,0,.04a2.842,2.842,0,0,0,5.685,0V11.8A3.108,3.108,0,0,1,4.125,13.65Z" transform="translate(0.175 -4.585)" fill="#f9cf02"/></g></g></g></svg>