<svg xmlns="http://www.w3.org/2000/svg" width="35.153" height="35.153" viewBox="0 0 35.153 35.153"><g transform="translate(0 0)"><path d="M8.79,2.076V32.509a17.566,17.566,0,0,1,0-30.433Z" transform="translate(0 0.284)" fill="#008440"/><path d="M31.982,17.292a17.591,17.591,0,0,1-8.787,15.217V2.076A17.584,17.584,0,0,1,31.982,17.292Z" transform="translate(3.171 0.284)" fill="#e21b23"/><path d="M25.309,2.36V32.793a17.543,17.543,0,0,1-17.576,0V2.36a17.543,17.543,0,0,1,17.576,0Z" transform="translate(1.057)" fill="#fcee48"/><path d="M16.134,10.791l1.318,4.056h4.265l-3.448,2.509,1.318,4.056L16.134,18.9l-3.452,2.509L14,17.356l-3.448-2.509h4.265Z" transform="translate(1.443 1.475)" fill="#008440"/></g></svg>