<svg xmlns="http://www.w3.org/2000/svg" width="35.153" height="35.153" viewBox="0 0 35.153 35.153"><g transform="translate(0)"><g transform="translate(0 0)"><path d="M35.153,17.576a17.515,17.515,0,0,1-1.006,5.863H1.006A17.574,17.574,0,0,1,32.793,8.79,17.457,17.457,0,0,1,35.153,17.576Z" fill="#4289db"/><path d="M31.83,24.049A17.041,17.041,0,0,1,30.31,26H4.126a17.422,17.422,0,0,1-1.519-1.953Z" transform="translate(0.356 3.288)" fill="#f8d523"/><path d="M30.127,25.767a17.549,17.549,0,0,1-26.184,0Z" transform="translate(0.539 3.523)" fill="#4289db"/><path d="M33.1,22.334c-.166.332-.34.659-.525.979s-.394.655-.607.971H2.743c-.214-.316-.415-.639-.608-.971s-.359-.647-.521-.979Z" transform="translate(0.221 3.054)" fill="#4289db"/><path d="M34.026,20.62a16.9,16.9,0,0,1-.829,1.948H1.714A16.514,16.514,0,0,1,.885,20.62Z" transform="translate(0.121 2.819)" fill="#f8d523"/><g transform="translate(5.697 2.004)"><path d="M9.423,8.932,5.012,7.555,9.423,6.174,10.8,1.763,12.18,6.174l4.411,1.381L12.18,8.932,10.8,13.343Z" transform="translate(-5.012 -1.763)" fill="#fff"/><path d="M10.646,2.919l1.065,3.413L15.123,7.4,11.711,8.462l-1.065,3.413L9.576,8.462,6.168,7.4,9.576,6.332Z" transform="translate(-4.854 -1.605)" fill="#d11133"/></g></g></g></svg>