<svg xmlns="http://www.w3.org/2000/svg" width="35.169" height="35.169" viewBox="0 0 35.169 35.169"><g transform="translate(0)"><g transform="translate(0 0)"><path d="M35.169,17.584A17.585,17.585,0,1,1,17.585,0h2.039V.118A17.609,17.609,0,0,1,35.169,17.584Z" fill="#fd0302"/><path d="M19.624,0V17.584H0A17.605,17.605,0,0,1,17.585,0Z" fill="#060593"/><g transform="translate(5.102 3.567)"><path d="M10.593,5.8a3.509,3.509,0,0,0-1.475,0l.738-2.662Z" transform="translate(-3.855 -3.138)" fill="#fff"/><path d="M9.094,5.783a3.412,3.412,0,0,0-1.274.738L7.126,3.846Z" transform="translate(-4.127 -3.041)" fill="#fff"/><path d="M7.866,6.474A3.426,3.426,0,0,0,7.13,7.748L5.2,5.779Z" transform="translate(-4.391 -2.777)" fill="#fff"/><path d="M7.068,8.505a3.509,3.509,0,0,0,.078.738L4.488,8.505l2.659-.734A3.469,3.469,0,0,0,7.068,8.505Z" transform="translate(-4.488 -2.505)" fill="#fff"/><path d="M7.866,10.6l-2.67.695L7.13,9.326A3.462,3.462,0,0,0,7.866,10.6Z" transform="translate(-4.391 -2.292)" fill="#fff"/><path d="M9.094,11.376,7.126,13.313l.693-2.675A3.474,3.474,0,0,0,9.094,11.376Z" transform="translate(-4.127 -2.113)" fill="#fff"/><path d="M10.589,11.356l-.733,2.66-.738-2.66a3.428,3.428,0,0,0,.738.08A3.386,3.386,0,0,0,10.589,11.356Z" transform="translate(-3.855 -2.014)" fill="#fff"/><path d="M12.642,13.313l-1.969-1.937a3.451,3.451,0,0,0,1.278-.738Z" transform="translate(-3.642 -2.113)" fill="#fff"/><path d="M14.66,11.295,11.985,10.6a3.418,3.418,0,0,0,.738-1.274Z" transform="translate(-3.463 -2.292)" fill="#fff"/><path d="M12.7,9.243a3.509,3.509,0,0,0,.078-.738,3.469,3.469,0,0,0-.078-.734l2.663.734Z" transform="translate(-3.365 -2.505)" fill="#fff"/><path d="M14.66,5.779,12.723,7.748a3.41,3.41,0,0,0-.738-1.279Z" transform="translate(-3.463 -2.777)" fill="#fff"/><path d="M12.642,3.846l-.691,2.675a3.39,3.39,0,0,0-1.278-.738Z" transform="translate(-3.642 -3.041)" fill="#fff"/><circle cx="3.034" cy="3.034" r="3.034" transform="translate(2.967 2.966)" fill="#fff"/></g></g></g></svg>