<svg xmlns="http://www.w3.org/2000/svg" width="35.153" height="35.153" viewBox="0 0 35.153 35.153"><g transform="translate(0 0)"><path d="M34.022,11.717H.885a17.572,17.572,0,0,1,33.137,0Z" transform="translate(0.121)" fill="#fff"/><path d="M34.022,20.62a17.574,17.574,0,0,1-33.137,0Z" transform="translate(0.121 2.819)" fill="#ec1c24"/><path d="M35.153,16.167a17.4,17.4,0,0,1-1.011,5.863H1.006a17.576,17.576,0,0,1,0-11.722H34.143A17.4,17.4,0,0,1,35.153,16.167Z" transform="translate(0 1.409)" fill="#055da3"/><g transform="translate(7.666 5.764)"><path d="M11.1,12.707c.564,0,.564-.289,1.129-.289s.564.289,1.128.289a1.751,1.751,0,0,0,.778-.236,4.559,4.559,0,0,1-.221.41,1.073,1.073,0,0,1-.557.141c-.564,0-.564-.288-1.128-.288s-.565.288-1.129.288-.564-.288-1.129-.288-.564.288-1.128.288a1.041,1.041,0,0,1-.549-.138c-.086-.142-.157-.28-.224-.414a1.749,1.749,0,0,0,.773.236c.564,0,.564-.289,1.128-.289S10.536,12.707,11.1,12.707Z" transform="translate(-6.563 -4.066)" fill="#fff"/><path d="M11.038,13.259c.564,0,.564-.289,1.129-.289s.564.289,1.128.289a1.26,1.26,0,0,0,.268-.028,5.253,5.253,0,0,1-2.52,1.827A5.255,5.255,0,0,1,8.517,13.23a.994.994,0,0,0,.265.028c.564,0,.564-.289,1.128-.289S10.474,13.259,11.038,13.259Z" transform="translate(-6.502 -3.99)" fill="#fff"/><path d="M12.277,12.651c-.565,0-.565.289-1.129.289s-.564-.289-1.129-.289-.564.289-1.128.289c-.485,0-.552-.217-.923-.273a5.042,5.042,0,0,1-.26-.859L9.453,9.5l.687.942,1.009-2.012,1.014,2.012.687-.942,1.744,2.3a5.06,5.06,0,0,1-.256.859h0c-.371.056-.438.273-.928.273C12.841,12.94,12.841,12.651,12.277,12.651Z" transform="translate(-6.612 -4.611)" fill="#fff"/><path d="M13.486,5.284a11.8,11.8,0,0,0-4.466,0,8.422,8.422,0,0,0-2.044.635l.02.3.363,4.8.07.951a5.506,5.506,0,0,0,3.824,4.509,5.5,5.5,0,0,0,3.818-4.506l.072-.955.363-4.8.019-.292,0,0A8.228,8.228,0,0,0,13.486,5.284Zm-1.3.533.236.024.043-.1.056-.118.055.13.04.088.236-.024-.142.193.142.189-.236-.023-.094.217-.1-.217-.236.023.142-.189Zm-1.266,1.7.236.024.1-.217.094.217.236-.024-.142.19.142.193-.236-.024-.094.217-.1-.217-.236.024L11.06,7.7Zm-1.266-1.7.236.024.04-.088.055-.13.056.118.043.1.236-.024-.142.193.142.189-.236-.023-.1.217-.094-.217L9.652,6.2l.141-.189Zm1.6,10.32A5.255,5.255,0,0,1,8.728,14.31a.994.994,0,0,0,.265.028c.564,0,.564-.289,1.128-.289s.565.289,1.129.289.564-.289,1.129-.289.564.289,1.128.289a1,1,0,0,0,.268-.028A5.253,5.253,0,0,1,11.253,16.137Zm2.809-2.252a1.073,1.073,0,0,1-.557.141c-.564,0-.564-.288-1.128-.288s-.565.288-1.129.288-.564-.288-1.129-.288-.564.288-1.128.288a1.041,1.041,0,0,1-.549-.138,4.49,4.49,0,0,1-.221-.414,1.716,1.716,0,0,0,.77.24c.564,0,.564-.292,1.128-.292s.565.292,1.129.292.564-.292,1.129-.292.564.292,1.128.292a1.749,1.749,0,0,0,.778-.24C14.216,13.609,14.145,13.747,14.062,13.885Zm.631-1.618a5.06,5.06,0,0,1-.256.859h0c-.371.056-.438.273-.928.273-.564,0-.564-.289-1.128-.289s-.565.289-1.129.289-.564-.289-1.129-.289-.564.289-1.128.289c-.485,0-.552-.217-.923-.273a5.167,5.167,0,0,1-.26-.859l.939-1.244.8-1.061.687.942,1.009-2.012,1.014,2.012.687-.942.8,1.061Z" transform="translate(-6.712 -5.07)" fill="#055da3"/><path d="M11.794,6.109l-.237.024.142-.189-.142-.193.237.024.043-.1h0l.051-.118.055.13h0l.039.087.237-.024-.142.193.142.189-.237-.024-.095.217Z" transform="translate(-6.086 -5.004)" fill="#fcdb19"/><path d="M10.874,7.266l.237-.024-.142.189.142.193L10.874,7.6l-.1.221-.1-.221-.237.028.142-.193-.142-.189.237.024.1-.217Z" transform="translate(-6.238 -4.8)" fill="#fcdb19"/><path d="M9.759,6.109l-.095.217-.1-.217-.237.024.142-.189L9.33,5.75l.237.024.039-.087.059-.13.051.118.043.1L10,5.75l-.142.193L10,6.133Z" transform="translate(-6.39 -5.004)" fill="#fcdb19"/><path d="M15.376,11.9a5.831,5.831,0,0,1-4.091,4.774A5.831,5.831,0,0,1,7.19,11.9L6.744,5.962a2.06,2.06,0,0,1,.264-.142l.02.292.433,5.761a5.511,5.511,0,0,0,3.824,4.509A5.508,5.508,0,0,0,15.1,11.876l.434-5.764.024-.288v0a2.707,2.707,0,0,1,.26.142Z" transform="translate(-6.744 -4.968)" fill="#ec1c24"/></g></g></svg>