<svg xmlns="http://www.w3.org/2000/svg" width="35.168" height="35.169" viewBox="0 0 35.168 35.169"><g transform="translate(0)"><g transform="translate(0 0)"><path d="M17.584,35.169A17.585,17.585,0,1,1,35.168,17.584,17.606,17.606,0,0,1,17.584,35.169Z" fill="#e20c17"/><g transform="translate(4.3 9.268)"><path d="M14.226,23.137A6.667,6.667,0,1,1,19,11.81a8.321,8.321,0,1,0,0,9.319A6.647,6.647,0,0,1,14.226,23.137Z" transform="translate(-3.783 -8.153)" fill="#fff"/><path d="M24.421,18.369l-2.856-.927L19.8,19.876l0-3.006-2.86-.923,2.856-.931V12.009l1.767,2.43,2.856-.931-1.764,2.43Z" transform="translate(-1.985 -7.626)" fill="#fff"/></g></g></g></svg>