<svg xmlns="http://www.w3.org/2000/svg" width="35.149" height="35.153" viewBox="0 0 35.149 35.153"><g transform="translate(0 0)"><path d="M34.022,11.717H.885a17.572,17.572,0,0,1,33.137,0Z" transform="translate(0.121)" fill="#fff"/><path d="M34.022,20.62a17.574,17.574,0,0,1-33.137,0Z" transform="translate(0.121 2.819)" fill="#ed1c24"/><path d="M35.149,16.167a17.486,17.486,0,0,1-1.006,5.863H1.006a17.576,17.576,0,0,1,0-11.722H34.143A17.4,17.4,0,0,1,35.149,16.167Z" transform="translate(0 1.409)" fill="#0f4ea0"/><g transform="translate(5.779 8.107)"><path d="M20.362,13.559c-.013-.288-.028-.556-.036-.813l-.063-2-.11-3.61H5.345l-.11,3.61-.064,2c-.008.257-.019.525-.035.813-.118,2.486-.28,5.855,2.489,8.905.142.153.292.311.45.465l.016.016.339.289a20.085,20.085,0,0,0,3.6,2.454l.722.386.723-.386a20.373,20.373,0,0,0,3.6-2.454l.339-.289.016-.016c.158-.153.308-.311.45-.465C20.641,19.414,20.483,16.045,20.362,13.559Zm-1.953,7.106a9.425,9.425,0,0,1-1.445,1.795l0,0-.319.268a19.48,19.48,0,0,1-3.481,2.375l-.41.217-.414-.217a19.719,19.719,0,0,1-3.48-2.375l-.319-.268,0,0a9.437,9.437,0,0,1-1.44-1.795c-1.731-2.809-1.329-5.756-1.262-7.9l.063-2.025.091-2.951H19.512l.091,2.951.067,2.025C19.734,14.908,20.137,17.856,18.409,20.665Z" transform="translate(-5.084 -7.132)" fill="#fff"/><path d="M19.588,12.687c.067,2.142.469,5.089-1.258,7.9-1.555-2.363-2.9-.923-3.417-.4a3.817,3.817,0,0,0-1.61-1.827v-2.8a22.225,22.225,0,0,1,3.657.394V13.855a22.859,22.859,0,0,1-3.657.394V12.344a15.3,15.3,0,0,1,2.876.39v-2.09a15.481,15.481,0,0,1-2.825.386c.051-.872.142-1.736.276-2.6H11.709c.134.864.228,1.728.28,2.6a15.29,15.29,0,0,1-2.829-.386v2.09a15.39,15.39,0,0,1,2.877-.39c0,.122,0,.244,0,.367v1.538a22.915,22.915,0,0,1-3.661-.394v2.092a22.28,22.28,0,0,1,3.661-.394v2.8a3.794,3.794,0,0,0-1.61,1.827c-.521-.521-1.865-1.961-3.417.4-1.731-2.809-1.329-5.756-1.262-7.9l.153-4.975H19.433Z" transform="translate(-5.004 -7.053)" fill="#ed1c24"/><path d="M16.633,13.768V15.86a22.225,22.225,0,0,0-3.657-.394v2.8a1.336,1.336,0,0,0-.544-.134h-.174a1.321,1.321,0,0,0-.544.134h0v-2.8a22.28,22.28,0,0,0-3.661.394V13.768a22.915,22.915,0,0,0,3.661.394V12.625c0-.123,0-.246,0-.367a15.39,15.39,0,0,0-2.877.39v-2.09a15.29,15.29,0,0,0,2.829.386c-.051-.872-.146-1.736-.28-2.6H13.3c-.134.864-.225,1.728-.276,2.6a15.481,15.481,0,0,0,2.825-.386v2.09a15.3,15.3,0,0,0-2.876-.39v1.905A22.859,22.859,0,0,0,16.633,13.768Z" transform="translate(-4.678 -6.966)" fill="#fff"/><path d="M14.75,18.919a3.817,3.817,0,0,0-1.61-1.827,1.336,1.336,0,0,0-.544-.134h-.174a1.321,1.321,0,0,0-.544.134h0a3.794,3.794,0,0,0-1.61,1.827c-.521-.521-1.865-1.961-3.417.4a9.437,9.437,0,0,0,1.44,1.795l.324.273a19.719,19.719,0,0,0,3.48,2.375l.414.217.41-.217A19.728,19.728,0,0,0,16.4,21.389l.323-.273a9.559,9.559,0,0,0,1.445-1.795C16.612,16.958,15.271,18.4,14.75,18.919Z" transform="translate(-4.842 -5.789)" fill="#0f4ea0"/></g></g></svg>