<svg xmlns="http://www.w3.org/2000/svg" width="35.153" height="35.153" viewBox="0 0 35.153 35.153"><g transform="translate(0)"><g transform="translate(0 0)"><path d="M8.79,2.076V32.509a17.566,17.566,0,0,1,0-30.433Z" transform="translate(0 0.284)"/><path d="M31.982,17.292a17.587,17.587,0,0,1-8.787,15.217V2.076A17.6,17.6,0,0,1,31.982,17.292Z" transform="translate(3.171 0.284)" fill="#007937"/><path d="M25.309,2.36V32.793a17.543,17.543,0,0,1-17.576,0V2.36a17.543,17.543,0,0,1,17.576,0Z" transform="translate(1.057)" fill="#d22011"/><g transform="translate(9.776 9.733)"><g transform="translate(3.082 3.346)"><g transform="translate(1.093)"><g transform="translate(0.86 2.671)"><path d="M18.2,14.293H13.384l-.355-.438h5.527Z" transform="translate(-13.029 -13.855)" fill="#fff"/></g><g transform="translate(2.147 2.122)"><path d="M17.111,13.779H14.161l.453-.406h2.048Z" transform="translate(-14.161 -13.373)" fill="#fff"/></g><g transform="translate(1.31 0.402)"><g transform="translate(0 0.895)"><rect width="0.635" height="1.199" fill="#fff"/></g><g transform="translate(0 0.627)"><rect width="0.635" height="0.174" fill="#fff"/></g><g transform="translate(0)"><path d="M14.059,12.381h-.634v-.2a.32.32,0,0,1,.319-.319h0a.32.32,0,0,1,.315.319Z" transform="translate(-13.425 -11.86)" fill="#fff"/></g><g transform="translate(3.989)"><g transform="translate(0 0.895)"><rect width="0.639" height="1.199" fill="#fff"/></g><g transform="translate(0 0.627)"><rect width="0.639" height="0.174" fill="#fff"/></g><g transform="translate(0)"><path d="M17.573,12.381h-.639v-.2a.32.32,0,0,1,.319-.319h0a.323.323,0,0,1,.319.319Z" transform="translate(-16.934 -11.86)" fill="#fff"/></g></g></g><g transform="translate(2.505)"><path d="M16.686,12.512a.822.822,0,0,0-.718-.632.491.491,0,0,1-.375-.374.482.482,0,0,1-.374.374.826.826,0,0,0-.718.632,1.075,1.075,0,0,0,.244.978h1.7A1.085,1.085,0,0,0,16.686,12.512Zm-1.98.39a.85.85,0,0,1-.013-.3.628.628,0,0,1,.107-.284.572.572,0,0,1,.225-.19.936.936,0,0,0-.23.489,1.686,1.686,0,0,0-.011.273,2.151,2.151,0,0,0,.04.28A.631.631,0,0,1,14.706,12.9Zm.311.142a2.38,2.38,0,0,0,.039.281.652.652,0,0,1-.118-.268.885.885,0,0,1-.011-.3.62.62,0,0,1,.107-.284.577.577,0,0,1,.224-.19.941.941,0,0,0-.228.49A1.553,1.553,0,0,0,15.017,13.044Zm1.234.013a.7.7,0,0,1-.122.268,1.835,1.835,0,0,0,.04-.281,1.554,1.554,0,0,0-.013-.272.909.909,0,0,0-.23-.49.522.522,0,0,1,.225.19.683.683,0,0,1,.111.284A1.15,1.15,0,0,1,16.252,13.056Zm.233-.155a.7.7,0,0,1-.123.268,1.52,1.52,0,0,0,.028-.552.9.9,0,0,0-.23-.489.522.522,0,0,1,.225.19.661.661,0,0,1,.11.284A1.093,1.093,0,0,1,16.485,12.9Z" transform="translate(-14.476 -11.506)" fill="#fff"/></g><g transform="translate(1.274 3.203)"><rect width="4.695" height="0.103" fill="#fff"/></g><g transform="translate(1.203 3.404)"><g transform="translate(0.071 2.698)"><rect width="0.734" height="0.43" fill="#fff"/></g><g transform="translate(0.071 1.46)"><rect width="0.734" height="0.252" fill="#fff"/></g><g transform="translate(0 1.093)"><path d="M14.136,15.711H13.4l-.071-.249h.876Z" transform="translate(-13.331 -15.462)" fill="#fff"/></g><g transform="translate(0.071)"><path d="M13.393,14.5v.974h.734V14.5Zm.627.84h-.106v-.6h-.308v.6H13.5v-.706h.521Z" transform="translate(-13.393 -14.501)" fill="#fff"/></g><g transform="translate(0.071 1.819)"><g transform="translate(0.316 0.462)"><rect width="0.103" height="0.178" fill="#fff"/></g><g transform="translate(0.135 0.331)"><rect width="0.158" height="0.103" fill="#fff"/></g><g transform="translate(0.446 0.331)"><rect width="0.154" height="0.103" fill="#fff"/></g><g transform="translate(0.316 0.13)"><rect width="0.103" height="0.178" fill="#fff"/></g><path d="M13.393,16.1v.77h.734V16.1Zm.656.69h-.572v-.612h.572Z" transform="translate(-13.393 -16.101)" fill="#fff"/></g></g><g transform="translate(5.235 6.103)"><rect width="0.734" height="0.43" fill="#fff"/></g><g transform="translate(4.798 6.651)"><path d="M17.665,17.357h-.734a1.111,1.111,0,0,1-.438.774H18.1A1.111,1.111,0,0,1,17.665,17.357Z" transform="translate(-16.493 -17.357)" fill="#fff"/></g><g transform="translate(5.235 4.864)"><rect width="0.734" height="0.252" fill="#fff"/></g><g transform="translate(5.164 4.497)"><path d="M17.62,15.711h-.734l-.071-.249h.876Z" transform="translate(-16.816 -15.462)" fill="#fff"/></g><g transform="translate(5.235 3.404)"><path d="M16.878,14.5v.974h.734V14.5Zm.627.84H17.4v-.6h-.308v.6h-.106v-.706h.521Z" transform="translate(-16.878 -14.501)" fill="#fff"/></g><g transform="translate(5.235 5.223)"><g transform="translate(0.316 0.462)"><rect width="0.103" height="0.178" fill="#fff"/></g><g transform="translate(0.134 0.331)"><rect width="0.154" height="0.103" fill="#fff"/></g><g transform="translate(0.446 0.331)"><rect width="0.154" height="0.103" fill="#fff"/></g><g transform="translate(0.316 0.13)"><rect width="0.103" height="0.178" fill="#fff"/></g><path d="M16.878,16.1v.77h.734V16.1Zm.655.69h-.576v-.612h.576Z" transform="translate(-16.878 -16.101)" fill="#fff"/></g><g transform="translate(0.812 6.651)"><path d="M13.449,17.357h.734s.107.273.695.273v.5h-1.89S13.449,17.689,13.449,17.357Z" transform="translate(-12.987 -17.357)" fill="#fff"/></g><g transform="translate(0 7.567)"><path d="M19.516,18.691H12.272l.687-.529h5.87Z" transform="translate(-12.272 -18.163)" fill="#fff"/></g></g><g transform="translate(6.02 5.231)"><rect width="0.107" height="0.639" fill="#fff"/></g><g transform="translate(3.235 3.472)"><path d="M14.157,14.56v.56a1.219,1.219,0,0,1,.458-.56Z" transform="translate(-14.157 -14.56)" fill="#fff"/><path d="M16.812,14.56v.56a1.225,1.225,0,0,0-.455-.56Z" transform="translate(-13.856 -14.56)" fill="#fff"/></g><g transform="translate(6.995 2.93)"><path d="M19.907,16.716a.277.277,0,0,0-.008-.043,3,3,0,0,1-.059-.738,1.16,1.16,0,0,0-.466-.963,6.125,6.125,0,0,1-.446-.469l.013-.019a.166.166,0,0,0,.043,0,.2.2,0,1,0-.2-.2.207.207,0,0,0,.056.139L17.465,16.8l.043.158.829-1.437a1.212,1.212,0,0,1,.69,1.054,2.246,2.246,0,0,0,.225.8l.02.027.023-.024C19.915,16.771,19.91,16.728,19.907,16.716ZM18.85,15.9l.011-.024a.76.76,0,0,1,.236-.284c.028-.02.06-.04.091-.059a1,1,0,0,0,.214-.155.388.388,0,0,0,.083-.221,1.022,1.022,0,0,1,.3.781v.147a.536.536,0,0,1-.155.157.631.631,0,0,1-.209.091.962.962,0,0,0-.13.043.546.546,0,0,0-.214.19A1.711,1.711,0,0,0,18.85,15.9Z" transform="translate(-17.465 -14.084)" fill="#fff"/></g><path d="M11.926,17.383l.024.024.016-.032a2.183,2.183,0,0,0,.228-.8,1.2,1.2,0,0,1,.691-1.049l.829,1.437.043-.158-1.377-2.379a.2.2,0,0,0,.055-.139.2.2,0,1,0-.2.2.175.175,0,0,0,.048-.008l.011.024a5.906,5.906,0,0,1-.446.469,1.151,1.151,0,0,0-.466.963,2.926,2.926,0,0,1-.063.738c0,.02-.008.035-.008.043S11.306,16.771,11.926,17.383Zm.218-.821a.554.554,0,0,0-.214-.19.727.727,0,0,0-.134-.047.563.563,0,0,1-.2-.088.627.627,0,0,1-.158-.157,1.051,1.051,0,0,0,0-.147,1.037,1.037,0,0,1,.3-.781.416.416,0,0,0,.088.221,1.035,1.035,0,0,0,.209.155l.094.059a.749.749,0,0,1,.233.284.1.1,0,0,1,.016.024A1.569,1.569,0,0,0,12.144,16.562Z" transform="translate(-11.311 -11.154)" fill="#fff"/><g transform="translate(3.432 4.848)"><path d="M15.1,16.347v.612h.248V15.771H14.33v1.188h.249v-.612a.262.262,0,0,1,.26-.265A.265.265,0,0,1,15.1,16.347Z" transform="translate(-14.33 -15.771)" fill="#fff"/><rect width="0.197" height="0.612" transform="translate(0.411 0.576)" fill="#fff"/></g><g transform="translate(3.298 3.215)"><rect width="0.181" height="0.126" transform="translate(1.602 1.953)" fill="#fff"/><rect width="0.181" height="0.122" transform="translate(1.879 2.364)" fill="#fff"/><rect width="0.181" height="0.126" transform="translate(2.407 3.255)" fill="#fff"/><rect width="0.185" height="0.122" transform="translate(2.206 2.805)" fill="#fff"/><path d="M16.093,16.857l-.347-.162v-.264l-.252-.11v-.331l-.115-.079v1.03h.343l.556.623v-.221l-.185-.193Z" transform="translate(-14.052 -14.119)" fill="#fff"/><path d="M17.242,18.07l-.339-.252V17.51l-.194-.15v-.307l-.323-.155v-.292l-.273-.118V16.2l-.572-.252v-.209H14.319a1.308,1.308,0,0,1,2.616,0V16.2h.107v-.454a1.415,1.415,0,0,0-2.829,0v1.934h.469v.864h.056V18.07h.485l.091.474H15.8l-.15-.474H16l.289.474h.7l-.434-.474Zm-.391-.532v.228h-.288v-.228Zm-.484-.455h.288v.233h-.288Zm-.04-.441v.228h-.289v-.228Zm-.568-.407h.292v.23h-.292Zm-1.113.308v.663h-.355v-1.29H15.42v1.29h-.356v-.663a.209.209,0,0,0-.418,0Zm.06.663v-.714h.3v.714Zm.031.418V17.27h.327l.072.355Zm.529.394-.067-.339h.273l.106.339Zm.241-.394-.11-.355h.114l.217.355Zm.746.394h-.225l-.2-.339h.3l.311.339Zm.241-.1-.635-.71h-.375v-1.18l.225.15V16.5l.249.11v.264l.35.166v.3l.186.2Z" transform="translate(-14.212 -14.334)" fill="#fff"/></g></g><g transform="translate(0 2.438)"><g transform="translate(4.093 10.857)"><path d="M19.387,21.246c-.339-.3-.722-.544-1.041-.864a.452.452,0,0,0-.1-.088c-.225-.122-.58.091-.785.177a4.49,4.49,0,0,1-3.1,0c-.2-.086-.556-.3-.785-.177a.557.557,0,0,0-.1.088c-.319.319-.706.564-1.045.864-.158.138-.367.327-.1.513a4,4,0,0,0,1.025.276.329.329,0,0,1-.031.284c-.115.2-.072.256,0,.268a.921.921,0,0,1,.671-.139c.454.088.781.273.915.174.114-.091-.02-.3.146-.426.26.011.544.016.853.016s.592,0,.853-.016c.169.123.031.335.15.426s.462-.086.915-.174.6.155.671.139.115-.067,0-.268a.33.33,0,0,1-.035-.284,3.932,3.932,0,0,0,1.025-.276C19.758,21.573,19.545,21.383,19.387,21.246Zm-4.6,1.234c-.067.051-.107.016-.469-.118a1.2,1.2,0,0,0-.868-.008.761.761,0,0,0,.051-.3c.324.047.722.094,1.215.122A.218.218,0,0,1,14.784,22.48Zm2.722-.118c-.364.134-.407.169-.469.118a.214.214,0,0,1,.07-.3c.489-.027.891-.075,1.215-.122a.885.885,0,0,0,.048.3A1.188,1.188,0,0,0,17.506,22.362Zm1.937-.687a9.025,9.025,0,0,1-3.535.446,9.124,9.124,0,0,1-3.531-.442c-.056-.039-.083-.075-.083-.11,0-.075.1-.169.2-.256.139-.118.284-.233.426-.343a6.585,6.585,0,0,0,.62-.521l.019-.02a.35.35,0,0,1,.059-.055.28.28,0,0,1,.119-.024,1.231,1.231,0,0,1,.473.158c.043.019.083.035.115.051a4.649,4.649,0,0,0,3.176,0c.031-.016.07-.032.11-.051a1.277,1.277,0,0,1,.477-.158.206.206,0,0,1,.114.027.172.172,0,0,1,.06.051l.019.016a6.314,6.314,0,0,0,.62.521c.142.11.292.23.43.348.1.086.2.181.2.256A.169.169,0,0,1,19.443,21.676Z" transform="translate(-12.201 -20.258)" fill="#fff"/><g transform="translate(0.117 0.12)"><path d="M17.024,21.051c-.027.059.1.083.118-.013C17.143,21.038,17.052,20.987,17.024,21.051Z" transform="translate(-11.659 -20.273)" fill="#fff"/><path d="M19.295,21.318c-.134-.118-.284-.233-.431-.347a6.477,6.477,0,0,1-.618-.522l-.016-.019c-.024-.019-.04-.035-.056-.048a.269.269,0,0,0-.1-.019,1.235,1.235,0,0,0-.466.153c-.039.02-.078.036-.114.052a4.883,4.883,0,0,1-1.6.283,4.973,4.973,0,0,1-1.6-.283c-.032-.016-.068-.032-.115-.052a1.215,1.215,0,0,0-.462-.153.213.213,0,0,0-.1.019.342.342,0,0,0-.055.048l-.02.019a6.234,6.234,0,0,1-.62.525c-.146.11-.291.225-.43.343-.063.056-.193.169-.189.236a.155.155,0,0,0,.074.088,9.1,9.1,0,0,0,3.516.438,9.126,9.126,0,0,0,3.519-.438c.043-.032.07-.064.07-.088C19.488,21.487,19.357,21.374,19.295,21.318Zm-1.934-.529a.118.118,0,0,1,.064-.051c.023,0,.031,0,.082.011.08.013.119,0,.127.024,0,0,0,.008-.008.035-.028.051-.044.083-.075.091s-.044-.024-.111-.035-.09.011-.1,0S17.35,20.805,17.361,20.789ZM16.88,21a.1.1,0,0,1,.063-.051c.024-.008.036,0,.083.008.078.013.118,0,.131.024,0,0,0,.008-.013.035-.027.051-.043.083-.075.091s-.043-.024-.11-.032-.091.013-.1-.008S16.872,21.014,16.88,21Zm-1.847.048a1.449,1.449,0,0,1,.147-.072s.138.056.142.107-.174.088-.174.088l-.094-.072a.623.623,0,0,1-.126.059c-.016,0-.115-.008-.111-.107A.125.125,0,0,1,15.033,21.05Zm-.895-.225c.082.013.158.083.149.131s-.114.075-.193.055c-.055-.016-.13-.059-.126-.106S14.064,20.813,14.139,20.825Zm-.111.758a.613.613,0,0,1-.434-.036c-.067-.024-.386-.134-.382-.284,0-.059.051-.1.107-.146a.712.712,0,0,1,.426-.161.175.175,0,0,1-.02.055c-.051.08-.19.028-.256.1a.2.2,0,0,0-.013.194c.059.142.268.157.375.165.091.008.244.024.3-.063.035-.051.008-.094.056-.161s.13-.111.153-.091-.008.1-.019.126A.529.529,0,0,1,14.027,21.583Zm2.588.165c-.019.024-.043.013-.233.013a1.5,1.5,0,0,0-.221.011.922.922,0,0,1-.115.027c-.094,0-.118-.043-.209-.059s-.1.02-.2.028c-.139.016-.217.023-.26-.024s-.032-.083-.067-.091-.059.027-.08.043c-.075.059-.169.024-.371-.016-.311-.063-.379-.043-.446-.122a.259.259,0,0,1-.064-.155c0-.039.016-.059.131-.26a.206.206,0,0,0,.043-.153c0-.032-.019-.04-.016-.064.008-.067.147-.122.186-.086,0,0,.011.011.007.056a.324.324,0,0,1-.067.169c-.1.158-.11.185-.114.225a.153.153,0,0,0,.027.106.179.179,0,0,0,.126.067c.209.036.292.072.351.083a1.377,1.377,0,0,0-.032-.181c.008-.072.118-.115.135-.075a1.342,1.342,0,0,1,0,.256h0c.134-.035.217-.138.244-.114s-.015.055,0,.1c.032.091.249.142.4.067.083-.04.142-.11.155-.1s-.048.059-.036.1a.1.1,0,0,0,.123.036c.032-.02.019-.051.059-.107s.078-.083.094-.075-.035.086-.008.142c.048.091.335.063.351,0a.1.1,0,0,0-.043-.078c-.027-.024-.043-.019-.055-.04a.094.094,0,0,1,.039-.114c.048-.008.1.1.118.142S16.667,21.688,16.616,21.748Zm1.59-.288a1.262,1.262,0,0,1-.853.107.6.6,0,0,1-.5.153c-.185-.056-.308-.5-.319-.529s-.04.008-.083.04-.177-.044-.209-.067.063-.107.091-.115a.058.058,0,0,1,.024,0l.067.024a.088.088,0,0,1,.059-.059c.075-.024.13.08.161.134a1.467,1.467,0,0,1,.118.249.215.215,0,0,0,.268.158.2.2,0,0,0,.131-.083c-.1-.02-.217-.027-.2-.158.027-.182.383-.051.466,0,.067.039.015.078,0,.134,0,0,0,.015,0,.019a.022.022,0,0,0,.016,0,1.385,1.385,0,0,0,.375-.047,1.711,1.711,0,0,0,.236-.04c-.019-.048-.064-.177-.134-.153-.027.011-.056.019-.083.031a.452.452,0,0,1-.177.02.172.172,0,0,1-.048-.308.141.141,0,0,1,.126-.016,1.117,1.117,0,0,1,.233.15.644.644,0,0,1,.19.206C18.171,21.334,18.233,21.441,18.206,21.46Zm.161.035c-.007,0-.011-.019-.011-.024a.859.859,0,0,0-.265-.351c-.114-.1-.15-.1-.193-.181s-.063-.166-.043-.177.048.031.083.067c.047.059.078.106.086.118.06.094.1.075.222.193.075.075.161.161.153.26A.2.2,0,0,1,18.367,21.5Z" transform="translate(-12.304 -20.363)" fill="#fff"/></g></g><g transform="translate(5.788 9.295)"><g transform="translate(0 0.434)"><path d="M13.692,19.266a2.535,2.535,0,0,1,.264.71.834.834,0,0,0,.455.572,2.172,2.172,0,0,1-.3-.591C14.055,19.7,13.869,19.3,13.692,19.266Z" transform="translate(-13.692 -19.266)" fill="#fff"/><path d="M13.973,19.266a2.557,2.557,0,0,1,.265.71.843.843,0,0,0,.454.572,2.172,2.172,0,0,1-.3-.591C14.336,19.7,14.15,19.3,13.973,19.266Z" transform="translate(-13.654 -19.266)" fill="#fff"/><path d="M14.817,19.657a.512.512,0,0,0-.151.043.248.248,0,0,0-.086.056.207.207,0,0,0,.1.26c.035.008.039-.013.126-.027s.118,0,.158-.024a.149.149,0,0,0,.063-.11c0-.013.028-.139-.043-.194C14.946,19.637,14.9,19.641,14.817,19.657Z" transform="translate(-13.573 -19.214)" fill="#fff"/><path d="M15.1,19.68c-.064.051-.048.158-.04.193a.171.171,0,0,0,.059.122c.043.028.078-.007.153.02.048.016.064.04.088.032.008,0,.023-.013.043-.1s.027-.147,0-.19a.188.188,0,0,0-.094-.075C15.289,19.672,15.174,19.616,15.1,19.68Z" transform="translate(-13.505 -19.214)" fill="#fff"/><path d="M14.671,20.162s.047.292.3.335C15.006,20.489,14.951,20.307,14.671,20.162Z" transform="translate(-13.558 -19.143)" fill="#fff"/><path d="M14.882,20.2s.391.431.608.3C15.514,20.437,15.455,20.295,14.882,20.2Z" transform="translate(-13.529 -19.139)" fill="#fff"/><g transform="translate(2.063)"><g transform="translate(0.923)"><path d="M17.322,19.266a2.516,2.516,0,0,0-.265.71.843.843,0,0,1-.454.572,2.182,2.182,0,0,0,.3-.591C16.959,19.7,17.144,19.3,17.322,19.266Z" transform="translate(-16.28 -19.266)" fill="#fff"/><path d="M17.037,19.266a2.473,2.473,0,0,0-.26.71.847.847,0,0,1-.458.572,2.143,2.143,0,0,0,.3-.591C16.678,19.7,16.86,19.3,17.037,19.266Z" transform="translate(-16.319 -19.266)" fill="#fff"/></g><path d="M16.168,19.657a.472.472,0,0,1,.147.043c.051.024.075.035.086.056a.2.2,0,0,1-.1.26c-.032.008-.035-.013-.126-.027s-.118,0-.158-.024a.182.182,0,0,1-.063-.11c0-.013-.027-.139.043-.194C16.039,19.637,16.082,19.641,16.168,19.657Z" transform="translate(-15.447 -19.214)" fill="#fff"/><path d="M15.869,19.68c.063.051.043.158.04.193a.191.191,0,0,1-.059.122c-.048.028-.08-.007-.158.02-.048.016-.059.04-.083.032s-.028-.013-.043-.1-.032-.147,0-.19a.181.181,0,0,1,.091-.075C15.679,19.672,15.8,19.616,15.869,19.68Z" transform="translate(-15.502 -19.214)" fill="#fff"/><path d="M16.29,20.162s-.047.292-.3.335C15.955,20.489,16.01,20.307,16.29,20.162Z" transform="translate(-15.442 -19.143)" fill="#fff"/><path d="M16.115,20.2s-.388.431-.6.3C15.488,20.437,15.547,20.295,16.115,20.2Z" transform="translate(-15.507 -19.139)" fill="#fff"/></g></g><path d="M14.661,19.061a.151.151,0,0,0,.024.047,2.064,2.064,0,0,1,.1.209c.024.051.032.134.067.257.04-.04.043-.147.047-.2a.7.7,0,0,0-.13-.457.048.048,0,0,0-.019-.02c-.028-.011-.052.016-.064.04a.152.152,0,0,0-.032.08A.2.2,0,0,0,14.661,19.061Z" transform="translate(-13.561 -18.882)" fill="#fff"/><path d="M15.093,18.888c-.035.043-.075.118-.035.174a1.715,1.715,0,0,1,.185.485c0,.1.059-.091.059-.091s.016-.217-.032-.268a.3.3,0,0,0,.115-.3c-.059.035-.027.078-.1.091s-.107-.013-.126-.059A.053.053,0,0,0,15.093,18.888Z" transform="translate(-13.508 -18.884)" fill="#fff"/><path d="M15.772,19.219a1.4,1.4,0,0,1-.008-.194.11.11,0,0,0-.07-.126c-.048-.019-.107.02-.142.052a.219.219,0,0,0-.04.28.146.146,0,0,0,.177.032s-.016.248.088.28a.239.239,0,0,0,.075-.146A1.264,1.264,0,0,1,15.772,19.219Zm-.142-.072a.043.043,0,0,1-.035-.043c0-.024.019-.051.04-.048s.023.024.023.024C15.665,19.108,15.65,19.144,15.63,19.148Z" transform="translate(-13.448 -18.883)" fill="#fff"/><path d="M15.876,19.374a.19.19,0,0,0-.008.048.5.5,0,0,0,0,.13l.007.011c.008,0,.016,0,.02-.007a1.4,1.4,0,0,0,.181-.442c.017.067.044.13.067.2.016.032.028.067.044.1a.669.669,0,0,0,.075.123.1.1,0,0,0,.039.035.375.375,0,0,0,.008-.213.414.414,0,0,0-.083-.15,1.757,1.757,0,0,1-.138-.268c0-.016-.013-.036-.016-.052a.314.314,0,0,0-.04.111c-.019.067-.031.134-.055.2a.469.469,0,0,1-.075.139A.107.107,0,0,0,15.876,19.374Z" transform="translate(-13.395 -18.884)" fill="#fff"/></g><g transform="translate(0.169 3.243)"><path d="M9.788,19.31c.019,0,.078.123.094.138a2.061,2.061,0,0,0,.264.3,1.049,1.049,0,0,0,1.041.268c.407-.11.762-.359,1.156-.493a2.665,2.665,0,0,1,.68-.138,2.069,2.069,0,0,1,.3,0c.047,0,.232.013.256.06a1.424,1.424,0,0,0-1.763-.592C10.789,19.232,10.7,19.456,9.788,19.31Z" transform="translate(-8.607 -12.852)" fill="#fff"/><path d="M8.749,15.719a.577.577,0,0,1,0,.166,1.891,1.891,0,0,0,.063.394,1.051,1.051,0,0,0,.734.789c.4.123.837.1,1.242.2a2.677,2.677,0,0,1,.643.249,1.768,1.768,0,0,1,.26.161c.035.027.19.134.185.19a1.424,1.424,0,0,0-1.172-1.448C9.637,16.193,9.44,16.331,8.749,15.719Z" transform="translate(-8.749 -13.265)" fill="#fff"/><path d="M9.517,14.148s1.468,1.626,1.388,2.483a1.8,1.8,0,0,0,.08-1.882,5.116,5.116,0,0,0-.774-1.188l-.078.537Z" transform="translate(-8.644 -13.56)" fill="#fff"/></g><g transform="translate(2.028 9.24)"><path d="M11.037,20.721s.821.749,1.388.679c.225-.024.091-.217-.063-.257A7.539,7.539,0,0,1,11.037,20.721Z" transform="translate(-10.295 -18.578)" fill="#fff"/><path d="M10.384,19.9a1.432,1.432,0,0,0,.766.388C11.508,20.284,11.237,20.012,10.384,19.9Z" transform="translate(-10.384 -18.69)" fill="#fff"/><path d="M10.714,20.311c.008,0,.048.043.056.051a.876.876,0,0,0,.618.174c.091,0,.332.008.343-.123,0-.075-.055-.11-.126-.106a2.579,2.579,0,0,0-.288.031,1.629,1.629,0,0,1-.28.016c-.056,0-.111,0-.166-.011A1.216,1.216,0,0,0,10.714,20.311Z" transform="translate(-10.339 -18.635)" fill="#fff"/><path d="M11.127,20.574c.008,0,.043.035.051.043a.787.787,0,0,0,.158.078.953.953,0,0,0,.394.048c.083-.008.3-.008.3-.123,0-.07-.056-.094-.115-.094-.086.008-.169.027-.252.043a1.31,1.31,0,0,1-.249.024.777.777,0,0,1-.146,0A.924.924,0,0,0,11.127,20.574Z" transform="translate(-10.282 -18.605)" fill="#fff"/><path d="M11.474,20.814c.008,0,.051.027.064.032a.605.605,0,0,0,.165.047.908.908,0,0,0,.4-.031c.078-.024.288-.064.268-.178-.011-.067-.072-.082-.13-.067a1.4,1.4,0,0,0-.241.091,1.522,1.522,0,0,1-.238.072c-.047.011-.094.019-.142.027A.872.872,0,0,0,11.474,20.814Z" transform="translate(-10.235 -18.593)" fill="#fff"/><path d="M11.922,20.925a.376.376,0,0,1,.059.032.858.858,0,0,0,.169.051.932.932,0,0,0,.4-.035c.075-.02.288-.064.268-.178-.013-.067-.072-.082-.131-.067a2.055,2.055,0,0,0-.241.091,1.232,1.232,0,0,1-.236.072.866.866,0,0,1-.146.027C12.021,20.925,11.965,20.917,11.922,20.925Z" transform="translate(-10.174 -18.578)" fill="#fff"/><path d="M11.211,19.835c0,.016.031.115.034.127a.869.869,0,0,0,.127.228.327.327,0,0,0,.11.086c.047.02.114.035.15-.011a.1.1,0,0,0,.008-.094.517.517,0,0,0-.193-.217A.843.843,0,0,0,11.211,19.835Z" transform="translate(-10.271 -18.699)" fill="#fff"/><path d="M11.585,19.9l.094.284a.855.855,0,0,0,.088.214.228.228,0,0,0,.086.075.145.145,0,0,0,.091.011.119.119,0,0,0,.032-.2C11.869,20.174,11.657,19.965,11.585,19.9Z" transform="translate(-10.22 -18.69)" fill="#fff"/><path d="M11.859,19.9c.04.1.083.206.126.308a1.708,1.708,0,0,0,.139.311.381.381,0,0,0,.185.142c.086.028.134-.035.115-.114a.913.913,0,0,0-.321-.426c-.055-.056-.114-.107-.169-.158C11.915,19.953,11.867,19.925,11.859,19.9Z" transform="translate(-10.182 -18.69)" fill="#fff"/><path d="M12.109,19.87a4.764,4.764,0,0,0,.383.691c.07.086.252.335.39.264a.094.094,0,0,0,.048-.078c0-.067-.07-.126-.115-.174s-.106-.107-.161-.158c-.122-.122-.249-.244-.371-.367-.035-.031-.067-.067-.1-.1A.321.321,0,0,1,12.109,19.87Z" transform="translate(-10.148 -18.695)" fill="#fff"/><path d="M12.453,20.106a1.561,1.561,0,0,0,.454.265.968.968,0,0,0,.185.035.178.178,0,0,0,.091-.019c.118-.075-.027-.209-.115-.222C12.879,20.138,12.681,20.138,12.453,20.106Z" transform="translate(-10.101 -18.662)" fill="#fff"/><path d="M12.2,19.78a1.483,1.483,0,0,0,.454.265.58.58,0,0,0,.182.035.159.159,0,0,0,.094-.016c.118-.08-.027-.209-.115-.222C12.629,19.815,12.428,19.815,12.2,19.78Z" transform="translate(-10.135 -18.707)" fill="#fff"/><path d="M12.064,19.516a1.388,1.388,0,0,0,.4.233.752.752,0,0,0,.161.032.132.132,0,0,0,.078-.016c.107-.067-.023-.182-.1-.193C12.439,19.548,12.262,19.548,12.064,19.516Z" transform="translate(-10.154 -18.743)" fill="#fff"/><path d="M12.53,20.363a1.474,1.474,0,0,0,.452.26.845.845,0,0,0,.185.04.176.176,0,0,0,.091-.02c.118-.078-.027-.208-.114-.221C12.959,20.395,12.757,20.395,12.53,20.363Z" transform="translate(-10.091 -18.627)" fill="#fff"/><path d="M13.289,19.617a1.539,1.539,0,0,1,.123.509,1.057,1.057,0,0,1-.016.189.145.145,0,0,1-.047.08c-.107.094-.19-.083-.178-.171C13.2,20.035,13.259,19.842,13.289,19.617Z" transform="translate(-10.003 -18.729)" fill="#fff"/><path d="M13.039,19.28a1.548,1.548,0,0,1,.123.509,1,1,0,0,1-.015.185.172.172,0,0,1-.048.083c-.107.094-.19-.083-.178-.169C12.95,19.7,13,19.505,13.039,19.28Z" transform="translate(-10.037 -18.775)" fill="#fff"/><path d="M12.806,19.023a1.4,1.4,0,0,1,.107.454.625.625,0,0,1-.011.166.183.183,0,0,1-.04.075c-.1.08-.174-.078-.163-.153C12.723,19.4,12.774,19.224,12.806,19.023Z" transform="translate(-10.068 -18.81)" fill="#fff"/><path d="M12.48,18.836a1.36,1.36,0,0,1,.11.454.588.588,0,0,1-.016.166.122.122,0,0,1-.04.075c-.094.078-.169-.08-.158-.155C12.4,19.211,12.451,19.037,12.48,18.836Z" transform="translate(-10.112 -18.836)" fill="#fff"/></g><g transform="translate(0 6.499)"><path d="M9.662,18.638s.474.541.8.56c.059,0,.142.008.182-.043a.111.111,0,0,0,.011-.1.174.174,0,0,0-.107-.1c-.2-.075-.414-.115-.615-.193A.744.744,0,0,1,9.662,18.638Z" transform="translate(-8.455 -16.121)" fill="#fff"/><path d="M10.185,17.694s.351.615.249.888c-.016.048-.044.115-.107.126a.143.143,0,0,1-.1-.035.174.174,0,0,1-.056-.126c0-.193.04-.383.035-.576A.651.651,0,0,0,10.185,17.694Z" transform="translate(-8.385 -16.25)" fill="#fff"/><path d="M10.482,18.26s.371.516.3.73c-.013.04-.032.091-.091.094a.157.157,0,0,1-.1-.035.179.179,0,0,1-.063-.107c-.013-.158.011-.3-.008-.462A.5.5,0,0,0,10.482,18.26Z" transform="translate(-8.343 -16.173)" fill="#fff"/><path d="M8.6,16.667s.474.54.8.556c.056,0,.139.008.177-.043a.107.107,0,0,0,.013-.1.174.174,0,0,0-.107-.1c-.2-.075-.414-.115-.615-.19A.874.874,0,0,1,8.6,16.667Z" transform="translate(-8.6 -16.391)" fill="#fff"/><path d="M9.388,18.26a1.179,1.179,0,0,0,.355.347c.238.155.4.222.5.2s.051-.193-.063-.238A5.01,5.01,0,0,1,9.388,18.26Z" transform="translate(-8.492 -16.173)" fill="#fff"/><path d="M9.121,17.861a1.719,1.719,0,0,0,.4.4c.238.161.388.2.415.118s-.048-.185-.182-.222A5.106,5.106,0,0,1,9.121,17.861Z" transform="translate(-8.529 -16.228)" fill="#fff"/><path d="M8.878,17.059a1.7,1.7,0,0,0,.438.363c.252.139.4.161.426.075s-.067-.182-.2-.2A5.666,5.666,0,0,1,8.878,17.059Z" transform="translate(-8.562 -16.337)" fill="#fff"/><path d="M9.159,17.389a1.548,1.548,0,0,0,.359.363c.209.146.343.182.371.1s-.043-.166-.166-.193A5.3,5.3,0,0,1,9.159,17.389Z" transform="translate(-8.524 -16.292)" fill="#fff"/><path d="M9.059,17.555a3.838,3.838,0,0,0,.334.386,1.324,1.324,0,0,0,.214.155c.078.043.185.106.272.043a.11.11,0,0,0,.043-.091c-.011-.094-.138-.126-.208-.158-.111-.055-.23-.1-.335-.161S9.165,17.611,9.059,17.555Z" transform="translate(-8.537 -16.269)" fill="#fff"/><path d="M9.718,18.95c.083.052.169.1.252.158.04.028.083.056.123.088a.365.365,0,0,0,.1.059c.024.008.055.008.067-.013a.047.047,0,0,0,0-.063c-.039-.059-.134-.088-.2-.123A.652.652,0,0,0,9.718,18.95Z" transform="translate(-8.447 -16.079)" fill="#fff"/><path d="M9.93,17.107a1.881,1.881,0,0,1-.043.38c-.035.083-.091.311.019.347s.182-.123.155-.292A2.343,2.343,0,0,0,9.93,17.107Z" transform="translate(-8.43 -16.331)" fill="#fff"/><path d="M10.209,17.527a2.2,2.2,0,0,1-.19.367c-.067.075-.2.289-.114.367s.213-.059.256-.244A2.839,2.839,0,0,0,10.209,17.527Z" transform="translate(-8.426 -16.273)" fill="#fff"/><path d="M9.673,16.868a1.693,1.693,0,0,1,.016.347c-.02.083-.036.3.07.313s.146-.134.094-.289A2.188,2.188,0,0,0,9.673,16.868Z" transform="translate(-8.453 -16.363)" fill="#fff"/><path d="M9.461,16.424a1.688,1.688,0,0,1,.016.347c-.019.083-.035.3.07.311s.147-.134.1-.288A2.252,2.252,0,0,0,9.461,16.424Z" transform="translate(-8.482 -16.424)" fill="#fff"/><path d="M10.676,17.75a3.823,3.823,0,0,0,.548.615c.185.126.336.138.3,0S10.79,17.82,10.676,17.75Z" transform="translate(-8.316 -16.243)" fill="#fff"/><path d="M11.054,18.322a.534.534,0,0,0,.268.359c.244.146.343.169.394.1s-.019-.177-.169-.209A2.5,2.5,0,0,1,11.054,18.322Z" transform="translate(-8.264 -16.165)" fill="#fff"/><path d="M10.126,17.128a.28.28,0,0,0,0,.2c.036.067.083.059.134.115.111.126.024.343.059.351s.088-.094.1-.2a.343.343,0,0,0-.067-.248c-.058-.064-.107-.04-.15-.1s-.024-.173-.043-.177S10.13,17.117,10.126,17.128Z" transform="translate(-8.394 -16.336)" fill="#fff"/><path d="M10.469,17.834a.284.284,0,0,0,.063.236c.04.043.059.028.091.067.051.059.027.115.051.206a.438.438,0,0,0,.2.28c.07.04.158.059.169.04s-.07-.067-.138-.19a2.011,2.011,0,0,1-.1-.248c-.039-.1-.05-.131-.078-.158-.056-.059-.094-.043-.142-.091-.091-.094-.043-.26-.067-.265S10.475,17.775,10.469,17.834Z" transform="translate(-8.345 -16.248)" fill="#fff"/><path d="M10.482,17.34c-.02.019.13.2.24.319a2.348,2.348,0,0,0,.627.442c.027.011.07.032.086.016.032-.028-.016-.147-.083-.225a.632.632,0,0,0-.323-.174A1.909,1.909,0,0,1,10.482,17.34Z" transform="translate(-8.343 -16.299)" fill="#fff"/><path d="M10.638,17.187s.023.273.169.364.284.035.217-.088A1.27,1.27,0,0,0,10.638,17.187Z" transform="translate(-8.321 -16.32)" fill="#fff"/><path d="M11.7,17.822a.673.673,0,0,1-.083.308c-.078.115-.15.225-.063.3s.213-.04.225-.217A1.053,1.053,0,0,0,11.7,17.822Z" transform="translate(-8.201 -16.233)" fill="#fff"/><path d="M11.848,18.142a.473.473,0,0,1-.056.268c-.07.1-.153.2-.093.276a.13.13,0,0,0,.227-.075A.581.581,0,0,0,11.848,18.142Z" transform="translate(-8.179 -16.189)" fill="#fff"/><path d="M12.031,18.322s-.035.169-.067.265.056.213.115.138A.378.378,0,0,0,12.031,18.322Z" transform="translate(-8.141 -16.165)" fill="#fff"/><path d="M11.6,17.532a1.052,1.052,0,0,1-.126.217.348.348,0,0,0-.091.163.245.245,0,0,0,.013.15c.032.047.1.035.146.011a.235.235,0,0,0,.1-.139.973.973,0,0,0-.027-.446Z" transform="translate(-8.221 -16.278)" fill="#fff"/><path d="M11.016,17.284a.621.621,0,0,0,.169.463.135.135,0,0,0,.177.019.107.107,0,0,0,.051-.067.077.077,0,0,0-.011-.059.72.72,0,0,0-.225-.185C11.123,17.415,11.024,17.359,11.016,17.284Z" transform="translate(-8.27 -16.306)" fill="#fff"/><path d="M10.867,18.621s-.048.311.213.343.206-.158.185-.171A.369.369,0,0,1,10.867,18.621Z" transform="translate(-8.29 -16.124)" fill="#fff"/><path d="M10.868,18.947a.935.935,0,0,0-.11.209c-.027.091-.115.28.043.316S10.868,18.947,10.868,18.947Z" transform="translate(-8.312 -16.079)" fill="#fff"/></g><g transform="translate(0.169 3.093)"><g transform="translate(0 0.458)"><path d="M8.749,15.48s.3.647.525.695.244-.1.147-.214S8.789,15.555,8.749,15.48Z" transform="translate(-8.749 -13.606)" fill="#fff"/><path d="M8.812,15.015s.185.65.383.73.24-.059.169-.178S8.836,15.09,8.812,15.015Z" transform="translate(-8.74 -13.669)" fill="#fff"/><path d="M8.822,14.6s.178.627.372.7.228-.056.157-.174S8.846,14.68,8.822,14.6Z" transform="translate(-8.739 -13.725)" fill="#fff"/><path d="M8.843,14.206s.174.62.367.695.225-.056.158-.169S8.867,14.276,8.843,14.206Z" transform="translate(-8.736 -13.78)" fill="#fff"/><path d="M8.972,13.831s.043.533.189.62.19-.008.155-.11S8.98,13.895,8.972,13.831Z" transform="translate(-8.719 -13.831)" fill="#fff"/></g><path d="M9.848,15.528s-.047.6-.233.707-.252,0-.2-.119S9.842,15.6,9.848,15.528Z" transform="translate(-8.661 -13.141)" fill="#fff"/><path d="M9.947,15.035s-.181.651-.382.731-.241-.06-.169-.178S9.925,15.11,9.947,15.035Z" transform="translate(-8.665 -13.208)" fill="#fff"/><path d="M9.92,14.629s-.174.627-.367.7-.228-.055-.161-.174S9.9,14.7,9.92,14.629Z" transform="translate(-8.665 -13.264)" fill="#fff"/><path d="M9.92,14.216s-.174.62-.367.695-.224-.055-.157-.169S9.9,14.291,9.92,14.216Z" transform="translate(-8.665 -13.32)" fill="#fff"/><path d="M9.692,13.873s-.044.529-.186.62-.193-.008-.158-.111S9.683,13.936,9.692,13.873Z" transform="translate(-8.669 -13.367)" fill="#fff"/><path d="M9.3,13.428a.762.762,0,0,0-.035.091.91.91,0,0,0-.04.115,1.234,1.234,0,0,0-.051.233.591.591,0,0,0,.008.26c.016.059.07.145.15.138a.132.132,0,0,0,.086-.078.74.74,0,0,0-.04-.5C9.352,13.6,9.328,13.511,9.3,13.428Z" transform="translate(-8.692 -13.428)" fill="#fff"/><path d="M9.8,15.941c.016.008.024.107.027.123a.712.712,0,0,0,.052.15c.039.091.114.181.224.161a.066.066,0,0,0,.056-.032.081.081,0,0,0,.008-.067.326.326,0,0,0-.1-.158A2.579,2.579,0,0,0,9.8,15.941Z" transform="translate(-8.605 -13.084)" fill="#fff"/><path d="M9.818,15.622a.5.5,0,0,1,.024.123c.016.051.032.1.051.149.044.091.115.186.225.166a.082.082,0,0,0,.067-.1.324.324,0,0,0-.1-.158A2.627,2.627,0,0,0,9.818,15.622Z" transform="translate(-8.603 -13.128)" fill="#fff"/><path d="M9.89,15.216a.78.78,0,0,1-.016.126,1.221,1.221,0,0,0,0,.158c.011.1.056.209.166.225a.093.093,0,0,0,.063-.016.087.087,0,0,0,.032-.064.338.338,0,0,0-.048-.177A2.569,2.569,0,0,0,9.89,15.216Z" transform="translate(-8.595 -13.184)" fill="#fff"/><path d="M10.571,15.941a.5.5,0,0,0-.024.123c-.016.051-.032.1-.051.15-.044.091-.115.181-.225.161a.073.073,0,0,1-.059-.032.09.09,0,0,1-.008-.067.316.316,0,0,1,.1-.158A3.158,3.158,0,0,1,10.571,15.941Z" transform="translate(-8.55 -13.084)" fill="#fff"/><path d="M10.553,15.622a.635.635,0,0,0-.024.123.624.624,0,0,1-.051.149c-.04.091-.114.186-.225.166a.076.076,0,0,1-.055-.035.082.082,0,0,1-.013-.067.362.362,0,0,1,.1-.158A2.644,2.644,0,0,1,10.553,15.622Z" transform="translate(-8.553 -13.128)" fill="#fff"/><path d="M10.41,15.195a.781.781,0,0,0,.016.126,1.222,1.222,0,0,1,0,.158c-.013.1-.056.209-.166.225a.08.08,0,0,1-.064-.016.09.09,0,0,1-.031-.064.348.348,0,0,1,.047-.177A2.721,2.721,0,0,1,10.41,15.195Z" transform="translate(-8.555 -13.186)" fill="#fff"/><path d="M10.159,14.786c0,.011-.059.09-.067.106a.93.93,0,0,0-.063.142c-.032.094-.043.214.051.273a.077.077,0,0,0,.063.016.087.087,0,0,0,.056-.044.326.326,0,0,0,.035-.185A2.952,2.952,0,0,0,10.159,14.786Z" transform="translate(-8.577 -13.242)" fill="#fff"/></g><path d="M10.044,13.262a.1.1,0,0,1,.016-.056.272.272,0,0,1,.094-.106.572.572,0,0,1,.485-.032.34.34,0,0,1,.064.019c-.016-.008-.075.051-.083.059a.958.958,0,0,1-.214.142.477.477,0,0,1-.256.072A.1.1,0,0,1,10.044,13.262Z" transform="translate(-8.403 -10.389)" fill="#fff"/><path d="M9.746,13.5a.118.118,0,0,1,.027-.051.308.308,0,0,1,.122-.075.584.584,0,0,1,.477.1c.02.011.036.023.056.035-.016-.008-.086.035-.1.04a.973.973,0,0,1-.24.078.511.511,0,0,1-.268,0A.1.1,0,0,1,9.746,13.5Z" transform="translate(-8.444 -10.345)" fill="#fff"/><path d="M10.332,12.92a.162.162,0,0,1,.013-.059.348.348,0,0,1,.086-.11.485.485,0,0,1,.434-.059.221.221,0,0,0,.051.016c-.013,0-.064.059-.072.072a1.209,1.209,0,0,1-.189.149.446.446,0,0,1-.23.088A.094.094,0,0,1,10.332,12.92Z" transform="translate(-8.363 -10.439)" fill="#fff"/><path d="M10.527,12.571c0-.2.272-.249.417-.273.024,0,.19-.035.186-.067.016.233-.238.351-.426.41a.193.193,0,0,1-.083.011.1.1,0,0,1-.088-.047A.067.067,0,0,1,10.527,12.571Z" transform="translate(-8.337 -10.499)" fill="#fff"/><path d="M10.721,12.222c0-.174.236-.217.367-.236.019,0,.165-.032.165-.064.013.206-.209.311-.374.363a.231.231,0,0,1-.075.013.084.084,0,0,1-.075-.043A.119.119,0,0,1,10.721,12.222Z" transform="translate(-8.31 -10.541)" fill="#fff"/><path d="M10.927,11.938c-.075-.225.236-.39.406-.477a1.752,1.752,0,0,0,.289-.2.952.952,0,0,1-.45.69.274.274,0,0,1-.094.048.132.132,0,0,1-.127-.02A.066.066,0,0,1,10.927,11.938Z" transform="translate(-8.283 -10.632)" fill="#fff"/><path d="M9.957,11.627a5.892,5.892,0,0,0,.044.837c.015.126.019.252.04.375a.649.649,0,0,0,.055.276c.067.094.15.011.173-.064a1.171,1.171,0,0,0-.1-.631c-.056-.2-.11-.4-.166-.6A.738.738,0,0,1,9.957,11.627Z" transform="translate(-8.415 -10.581)" fill="#fff"/><path d="M9.628,11.936a6.708,6.708,0,0,0,.086.837c.024.122.035.248.059.371a.7.7,0,0,0,.067.273c.075.09.15,0,.174-.075a1.221,1.221,0,0,0-.131-.624c-.067-.193-.13-.39-.2-.588A.955.955,0,0,1,9.628,11.936Z" transform="translate(-8.459 -10.539)" fill="#fff"/><path d="M9.507,12.252a6.293,6.293,0,0,0-.028.84c0,.126,0,.252.008.379a.6.6,0,0,0,.032.276c.056.1.146.028.177-.047a1.19,1.19,0,0,0-.043-.64c-.035-.2-.075-.4-.11-.607A.8.8,0,0,1,9.507,12.252Z" transform="translate(-8.481 -10.496)" fill="#fff"/><path d="M10.315,11.256a6.116,6.116,0,0,0-.031.8c0,.123,0,.241.007.364a.653.653,0,0,0,.028.264c.055.1.142.027.174-.043a1.166,1.166,0,0,0-.044-.612l-.106-.58A.811.811,0,0,1,10.315,11.256Z" transform="translate(-8.37 -10.632)" fill="#fff"/><path d="M10.558,11.072a4.07,4.07,0,0,0-.027.671c0,.1,0,.2.008.3,0,.072-.016.161.027.225s.139.019.174-.04c.075-.146-.011-.359-.043-.513l-.107-.485A.634.634,0,0,1,10.558,11.072Z" transform="translate(-8.337 -10.657)" fill="#fff"/><path d="M10.761,10.707a2.934,2.934,0,0,0-.035.581c0,.118,0,.236,0,.355a.139.139,0,0,0,.031.1.1.1,0,0,0,.123.008.147.147,0,0,0,.059-.067c.064-.13-.016-.288-.048-.418s-.067-.28-.1-.418C10.78,10.806,10.775,10.755,10.761,10.707Z" transform="translate(-8.31 -10.707)" fill="#fff"/><path d="M11.356,10.891a1.031,1.031,0,0,1-.139.158,1.437,1.437,0,0,0-.169.174.329.329,0,0,0-.055.169.359.359,0,0,0,0,.115.1.1,0,0,0,.04.067.119.119,0,0,0,.091,0c.165-.051.193-.221.209-.371A3.17,3.17,0,0,0,11.356,10.891Z" transform="translate(-8.274 -10.682)" fill="#fff"/><path d="M11.2,12.313a.9.9,0,0,0-.115.257.676.676,0,0,0-.015.252c.007.067.031.214.122.214.146,0,.11-.3.07-.383a1.128,1.128,0,0,1-.031-.386Z" transform="translate(-8.263 -10.494)" fill="#fff"/><path d="M10.961,12.688a1.064,1.064,0,0,0-.083.268.631.631,0,0,0,.011.252c.02.067.056.209.147.2.146-.019.075-.315.027-.39a1.141,1.141,0,0,1-.075-.383Z" transform="translate(-8.29 -10.443)" fill="#fff"/><path d="M10.719,13.033a1.074,1.074,0,0,0-.04.276.581.581,0,0,0,.052.248c.027.064.09.2.177.174.138-.04.023-.323-.036-.39a1.193,1.193,0,0,1-.138-.364Z" transform="translate(-8.316 -10.397)" fill="#fff"/><path d="M10.566,13.3a.809.809,0,0,0-.039.276.57.57,0,0,0,.051.248c.027.064.09.2.177.174.138-.04.024-.324-.04-.391a1.158,1.158,0,0,1-.134-.363Z" transform="translate(-8.337 -10.36)" fill="#fff"/><path d="M11.4,11.925a.847.847,0,0,0-.114.256.594.594,0,0,0-.016.252c.008.067.031.214.122.214.142,0,.11-.3.072-.383a1.136,1.136,0,0,1-.032-.386Z" transform="translate(-8.235 -10.547)" fill="#fff"/><path d="M11.737,11.466a.981.981,0,0,0-.161.252.825.825,0,0,0-.064.268c0,.075-.008.232.083.248.142.024.161-.3.139-.394a1.406,1.406,0,0,1,.043-.418Z" transform="translate(-8.202 -10.609)" fill="#fff"/><path d="M11.946,12.6a1.019,1.019,0,0,1-.126.248.677.677,0,0,1-.19.174c-.059.032-.185.107-.241.035-.091-.11.166-.272.252-.3a1.161,1.161,0,0,0,.324-.217Z" transform="translate(-8.221 -10.456)" fill="#fff"/><path d="M11.789,12.994a.852.852,0,0,1-.155.232.572.572,0,0,1-.2.15c-.064.028-.2.088-.249.013-.075-.123.2-.257.288-.265a1.154,1.154,0,0,0,.348-.181Z" transform="translate(-8.249 -10.401)" fill="#fff"/><path d="M11.635,13.393a1.051,1.051,0,0,1-.19.2.619.619,0,0,1-.228.115c-.064.019-.209.056-.244-.027-.056-.134.236-.222.327-.217a1.138,1.138,0,0,0,.367-.123Z" transform="translate(-8.277 -10.346)" fill="#fff"/><path d="M11.541,13.709a1.028,1.028,0,0,1-.193.2.622.622,0,0,1-.225.115c-.067.019-.209.055-.244-.028-.055-.134.236-.221.327-.216a1.138,1.138,0,0,0,.367-.123Z" transform="translate(-8.289 -10.303)" fill="#fff"/><path d="M10.41,13.595a1.109,1.109,0,0,0-.04.281.7.7,0,0,0,.051.248c.028.059.091.2.178.169.138-.039.023-.319-.036-.386a1.233,1.233,0,0,1-.138-.366Z" transform="translate(-8.358 -10.32)" fill="#fff"/><path d="M11.314,14.11a.836.836,0,0,1-.213.182.59.59,0,0,1-.238.091c-.067.008-.213.031-.24-.056-.04-.138.26-.193.347-.177a1.272,1.272,0,0,0,.383-.083Z" transform="translate(-8.324 -10.248)" fill="#fff"/><path d="M12.089,12.207a.859.859,0,0,1-.13.248.557.557,0,0,1-.186.174c-.059.035-.185.11-.244.035-.086-.11.169-.272.257-.291a1.264,1.264,0,0,0,.323-.222Z" transform="translate(-8.202 -10.51)" fill="#fff"/><path d="M12.25,11.686a1.11,1.11,0,0,1-.1.284.752.752,0,0,1-.166.217c-.055.048-.177.15-.244.091-.107-.1.134-.319.221-.359a1.322,1.322,0,0,0,.3-.292Z" transform="translate(-8.174 -10.581)" fill="#fff"/><path d="M12.252,11.308s-.134.055-.146.063a.812.812,0,0,0-.155.1.385.385,0,0,0-.166.311.1.1,0,0,0,.028.072.12.12,0,0,0,.126.019.682.682,0,0,0,.2-.177A.612.612,0,0,0,12.252,11.308Z" transform="translate(-8.164 -10.625)" fill="#fff"/><g transform="translate(10.163)"><g transform="translate(0.292 3.243)"><path d="M21.594,19.31c-.02,0-.078.123-.091.138a2.467,2.467,0,0,1-.264.3,1.053,1.053,0,0,1-1.042.268c-.406-.11-.762-.359-1.159-.493a2.641,2.641,0,0,0-.675-.138,2.142,2.142,0,0,0-.308,0c-.043,0-.232.013-.256.06a1.428,1.428,0,0,1,1.768-.592C20.591,19.232,20.686,19.456,21.594,19.31Z" transform="translate(-17.798 -12.852)" fill="#fff"/><path d="M22.555,15.719a.577.577,0,0,0,0,.166,2.482,2.482,0,0,1-.063.394,1.055,1.055,0,0,1-.738.789c-.4.123-.832.1-1.242.2a2.812,2.812,0,0,0-.643.249,1.575,1.575,0,0,0-.257.161c-.039.027-.189.134-.185.19a1.422,1.422,0,0,1,1.172-1.448C21.667,16.193,21.865,16.331,22.555,15.719Z" transform="translate(-17.576 -13.265)" fill="#fff"/><path d="M21.611,14.148s-1.468,1.626-1.388,2.483a1.81,1.81,0,0,1-.08-1.882,5.116,5.116,0,0,1,.774-1.188L21,14.1Z" transform="translate(-17.508 -13.56)" fill="#fff"/></g><g transform="translate(0 9.24)"><path d="M20.076,20.721s-.824.749-1.388.679c-.225-.024-.1-.217.058-.257A7.666,7.666,0,0,0,20.076,20.721Z" transform="translate(-17.401 -18.578)" fill="#fff"/><path d="M20.651,19.9a1.432,1.432,0,0,1-.766.388C19.526,20.284,19.8,20.012,20.651,19.9Z" transform="translate(-17.242 -18.69)" fill="#fff"/><path d="M20.335,20.311c-.011,0-.051.043-.059.051a.883.883,0,0,1-.169.1,1.087,1.087,0,0,1-.446.072c-.091,0-.335.008-.343-.123-.008-.075.056-.11.123-.106a2.393,2.393,0,0,1,.288.031,1.629,1.629,0,0,0,.28.016c.056,0,.111,0,.166-.011A1.157,1.157,0,0,1,20.335,20.311Z" transform="translate(-17.298 -18.635)" fill="#fff"/><path d="M19.909,20.574c-.011,0-.047.035-.055.043a.682.682,0,0,1-.155.078.96.96,0,0,1-.4.048c-.078-.008-.3-.008-.3-.123,0-.07.051-.094.114-.094a2.484,2.484,0,0,1,.252.043,1.258,1.258,0,0,0,.246.024.814.814,0,0,0,.149,0A.888.888,0,0,1,19.909,20.574Z" transform="translate(-17.341 -18.605)" fill="#fff"/><path d="M19.558,20.814c-.008,0-.051.027-.059.032a.636.636,0,0,1-.169.047.917.917,0,0,1-.4-.031c-.075-.024-.288-.064-.268-.178.013-.067.075-.082.134-.067a1.39,1.39,0,0,1,.236.091,1.732,1.732,0,0,0,.238.072c.047.011.1.019.146.027A.851.851,0,0,1,19.558,20.814Z" transform="translate(-17.388 -18.593)" fill="#fff"/><path d="M19.114,20.925a.37.37,0,0,0-.064.032.826.826,0,0,1-.166.051.921.921,0,0,1-.4-.035c-.08-.02-.289-.064-.268-.178.011-.067.07-.082.13-.067a1.742,1.742,0,0,1,.238.091,1.265,1.265,0,0,0,.24.072.919.919,0,0,0,.142.027C19.015,20.925,19.07,20.917,19.114,20.925Z" transform="translate(-17.449 -18.578)" fill="#fff"/><path d="M19.77,19.835c0,.016-.035.115-.04.127a.753.753,0,0,1-.126.228.322.322,0,0,1-.106.086.131.131,0,0,1-.155-.011.1.1,0,0,1-.008-.094.5.5,0,0,1,.194-.217A.886.886,0,0,1,19.77,19.835Z" transform="translate(-17.297 -18.699)" fill="#fff"/><path d="M19.394,19.9l-.094.284a1.016,1.016,0,0,1-.091.214.21.21,0,0,1-.083.075.144.144,0,0,1-.091.011.122.122,0,0,1-.035-.2C19.11,20.174,19.319,19.965,19.394,19.9Z" transform="translate(-17.347 -18.69)" fill="#fff"/><path d="M19.137,19.9c-.043.1-.083.206-.126.308a1.457,1.457,0,0,1-.142.311.366.366,0,0,1-.185.142c-.086.028-.131-.035-.114-.114a.941.941,0,0,1,.323-.426c.055-.056.11-.107.169-.158C19.078,19.953,19.129,19.925,19.137,19.9Z" transform="translate(-17.401 -18.69)" fill="#fff"/><path d="M18.917,19.87a4.551,4.551,0,0,1-.386.691c-.07.086-.249.335-.386.264a.087.087,0,0,1-.048-.078c0-.067.072-.126.115-.174s.1-.107.158-.158c.122-.122.248-.244.374-.367l.1-.1C18.866,19.926,18.905,19.9,18.917,19.87Z" transform="translate(-17.465 -18.695)" fill="#fff"/><path d="M18.568,20.106a1.615,1.615,0,0,1-.458.265.873.873,0,0,1-.182.035.173.173,0,0,1-.091-.019c-.118-.075.028-.209.111-.222C18.137,20.138,18.339,20.138,18.568,20.106Z" transform="translate(-17.507 -18.662)" fill="#fff"/><path d="M18.817,19.78a1.471,1.471,0,0,1-.452.265.635.635,0,0,1-.186.035.144.144,0,0,1-.09-.016c-.118-.08.027-.209.114-.222C18.387,19.815,18.589,19.815,18.817,19.78Z" transform="translate(-17.472 -18.707)" fill="#fff"/><path d="M18.945,19.516a1.374,1.374,0,0,1-.4.233.806.806,0,0,1-.163.032.144.144,0,0,1-.082-.016c-.1-.067.027-.182.1-.193C18.566,19.548,18.744,19.548,18.945,19.516Z" transform="translate(-17.442 -18.743)" fill="#fff"/><path d="M18.484,20.356a1.543,1.543,0,0,1-.454.265.954.954,0,0,1-.182.035.139.139,0,0,1-.094-.019c-.118-.075.027-.209.115-.222C18.058,20.388,18.259,20.388,18.484,20.356Z" transform="translate(-17.518 -18.628)" fill="#fff"/><path d="M17.667,19.617a1.506,1.506,0,0,0-.126.509.761.761,0,0,0,.019.189.164.164,0,0,0,.044.08c.106.094.193-.083.181-.171C17.758,20.035,17.7,19.842,17.667,19.617Z" transform="translate(-17.541 -18.729)" fill="#fff"/><path d="M17.917,19.28a1.609,1.609,0,0,0-.126.509.718.718,0,0,0,.019.185.158.158,0,0,0,.043.083c.107.094.193-.083.182-.169C18.008,19.7,17.949,19.505,17.917,19.28Z" transform="translate(-17.507 -18.775)" fill="#fff"/><path d="M18.147,19.023a1.36,1.36,0,0,0-.11.454.813.813,0,0,0,.016.166.171.171,0,0,0,.04.075c.094.08.169-.078.158-.153C18.227,19.4,18.176,19.224,18.147,19.023Z" transform="translate(-17.473 -18.81)" fill="#fff"/><path d="M18.47,18.836a1.36,1.36,0,0,0-.11.454.821.821,0,0,0,.016.166.171.171,0,0,0,.04.075c.1.078.173-.08.161-.155C18.553,19.211,18.5,19.037,18.47,18.836Z" transform="translate(-17.429 -18.836)" fill="#fff"/></g><g transform="translate(1.465 6.499)"><path d="M21.386,18.638s-.473.541-.8.56a.217.217,0,0,1-.182-.043.11.11,0,0,1-.008-.1.171.171,0,0,1,.1-.1c.2-.075.418-.115.62-.193A.773.773,0,0,0,21.386,18.638Z" transform="translate(-18.618 -16.121)" fill="#fff"/><path d="M20.773,17.694s-.347.615-.249.888c.02.048.044.115.107.126a.143.143,0,0,0,.1-.035.166.166,0,0,0,.059-.126c0-.193-.039-.383-.039-.576A.811.811,0,0,1,20.773,17.694Z" transform="translate(-18.6 -16.25)" fill="#fff"/><path d="M20.483,18.26s-.375.516-.3.73c.016.04.032.091.091.094a.151.151,0,0,0,.1-.035.147.147,0,0,0,.063-.107c.016-.158-.008-.3.008-.462A.54.54,0,0,1,20.483,18.26Z" transform="translate(-18.646 -16.173)" fill="#fff"/><path d="M22.448,16.667s-.473.54-.8.556c-.059,0-.142.008-.182-.043a.106.106,0,0,1-.007-.1.175.175,0,0,1,.1-.1c.2-.075.414-.115.615-.19A.93.93,0,0,0,22.448,16.667Z" transform="translate(-18.472 -16.391)" fill="#fff"/><path d="M21.645,18.26a1.191,1.191,0,0,1-.351.347c-.236.155-.407.222-.5.2s-.051-.193.064-.238A5.047,5.047,0,0,0,21.645,18.26Z" transform="translate(-18.569 -16.173)" fill="#fff"/><path d="M21.9,17.861a1.719,1.719,0,0,1-.4.4c-.238.161-.383.2-.415.118s.051-.185.185-.222A5.264,5.264,0,0,0,21.9,17.861Z" transform="translate(-18.522 -16.228)" fill="#fff"/><path d="M22.15,17.059a1.7,1.7,0,0,1-.438.363c-.252.139-.4.161-.423.075s.067-.182.206-.2A5.615,5.615,0,0,0,22.15,17.059Z" transform="translate(-18.494 -16.337)" fill="#fff"/><path d="M21.856,17.389a1.557,1.557,0,0,1-.358.363c-.214.146-.348.182-.372.1s.043-.166.166-.193A5.65,5.65,0,0,0,21.856,17.389Z" transform="translate(-18.517 -16.292)" fill="#fff"/><path d="M21.973,17.555a3.893,3.893,0,0,1-.335.386,1.175,1.175,0,0,1-.217.155c-.075.043-.185.106-.268.043a.1.1,0,0,1-.043-.091c.008-.094.134-.126.2-.158.115-.055.23-.1.34-.161S21.863,17.611,21.973,17.555Z" transform="translate(-18.518 -16.269)" fill="#fff"/><path d="M21.272,18.95c-.083.052-.166.1-.249.158-.043.028-.082.056-.122.088a.391.391,0,0,1-.107.059.058.058,0,0,1-.067-.013.062.062,0,0,1,0-.063.6.6,0,0,1,.2-.123A.622.622,0,0,1,21.272,18.95Z" transform="translate(-18.571 -16.079)" fill="#fff"/><path d="M21.025,17.107a1.658,1.658,0,0,0,.043.38c.036.083.088.311-.023.347s-.178-.123-.155-.292A2.656,2.656,0,0,1,21.025,17.107Z" transform="translate(-18.549 -16.331)" fill="#fff"/><path d="M20.758,17.527a2.1,2.1,0,0,0,.185.367c.067.075.206.289.119.367s-.217-.059-.257-.244A2.967,2.967,0,0,1,20.758,17.527Z" transform="translate(-18.566 -16.273)" fill="#fff"/><path d="M21.28,16.868a1.622,1.622,0,0,0-.02.347c.024.083.036.3-.07.313s-.142-.134-.094-.289A2.468,2.468,0,0,1,21.28,16.868Z" transform="translate(-18.523 -16.363)" fill="#fff"/><path d="M21.491,16.424a1.425,1.425,0,0,0-.015.347c.019.083.031.3-.072.311s-.146-.134-.1-.288A2.468,2.468,0,0,1,21.491,16.424Z" transform="translate(-18.494 -16.424)" fill="#fff"/><path d="M20.351,17.75a3.7,3.7,0,0,1-.544.615c-.189.126-.339.138-.3,0S20.237,17.82,20.351,17.75Z" transform="translate(-18.738 -16.243)" fill="#fff"/><path d="M19.955,18.322a.546.546,0,0,1-.272.359c-.241.146-.343.169-.391.1s.016-.177.166-.209A2.556,2.556,0,0,0,19.955,18.322Z" transform="translate(-18.769 -16.165)" fill="#fff"/><path d="M20.836,17.128a.247.247,0,0,1,0,.2c-.036.067-.08.059-.131.115-.114.126-.027.343-.064.351s-.082-.094-.094-.2a.32.32,0,0,1,.064-.248c.059-.064.11-.04.15-.1s.023-.173.043-.177S20.836,17.117,20.836,17.128Z" transform="translate(-18.596 -16.336)" fill="#fff"/><path d="M20.525,17.834a.292.292,0,0,1-.059.236c-.039.043-.059.028-.094.067-.051.059-.027.115-.048.206a.45.45,0,0,1-.2.28c-.07.04-.157.059-.173.04s.075-.067.142-.19c.027-.051.015-.047.09-.248a.472.472,0,0,1,.08-.158c.059-.059.094-.043.142-.091.091-.094.043-.26.07-.265S20.517,17.775,20.525,17.834Z" transform="translate(-18.677 -16.248)" fill="#fff"/><path d="M20.562,17.34c.019.019-.134.2-.24.319a2.432,2.432,0,0,1-.632.442c-.024.011-.067.032-.086.016s.019-.147.082-.225a.667.667,0,0,1,.329-.174A2.017,2.017,0,0,0,20.562,17.34Z" transform="translate(-18.725 -16.299)" fill="#fff"/><path d="M20.334,17.187s-.019.273-.165.364-.284.035-.217-.088A1.212,1.212,0,0,1,20.334,17.187Z" transform="translate(-18.679 -16.32)" fill="#fff"/><path d="M19.255,17.822a.689.689,0,0,0,.083.308c.078.115.15.225.059.3s-.209-.04-.221-.217A.97.97,0,0,1,19.255,17.822Z" transform="translate(-18.783 -16.233)" fill="#fff"/><path d="M19.107,18.142a.489.489,0,0,0,.059.268c.07.1.153.2.091.276a.133.133,0,0,1-.23-.075A.629.629,0,0,1,19.107,18.142Z" transform="translate(-18.805 -16.189)" fill="#fff"/><path d="M18.915,18.322s.032.169.063.265-.055.213-.11.138A.383.383,0,0,1,18.915,18.322Z" transform="translate(-18.83 -16.165)" fill="#fff"/><path d="M19.363,17.532a.815.815,0,0,0,.126.217.343.343,0,0,1,.088.163.2.2,0,0,1-.013.15c-.031.047-.1.035-.146.011a.23.23,0,0,1-.1-.139.919.919,0,0,1,.028-.446Z" transform="translate(-18.765 -16.278)" fill="#fff"/><path d="M19.956,17.284a.6.6,0,0,1-.166.463.139.139,0,0,1-.181.019.127.127,0,0,1-.052-.067.085.085,0,0,1,.016-.059.684.684,0,0,1,.225-.185C19.854,17.415,19.953,17.359,19.956,17.284Z" transform="translate(-18.73 -16.306)" fill="#fff"/><path d="M20.111,18.621s.043.311-.214.343-.209-.158-.189-.171A.376.376,0,0,0,20.111,18.621Z" transform="translate(-18.712 -16.124)" fill="#fff"/><path d="M20.081,18.947a.935.935,0,0,1,.11.209c.028.091.115.28-.043.316S20.081,18.947,20.081,18.947Z" transform="translate(-18.662 -16.079)" fill="#fff"/></g><g transform="translate(3.251 3.093)"><g transform="translate(1.292 0.458)"><path d="M22.261,15.48s-.3.647-.521.695-.244-.1-.15-.214S22.227,15.555,22.261,15.48Z" transform="translate(-21.537 -13.606)" fill="#fff"/><path d="M22.182,15.015s-.182.65-.383.73-.236-.059-.165-.178S22.158,15.09,22.182,15.015Z" transform="translate(-21.529 -13.669)" fill="#fff"/><path d="M22.169,14.6s-.174.627-.367.7-.23-.056-.163-.174S22.149,14.68,22.169,14.6Z" transform="translate(-21.527 -13.725)" fill="#fff"/><path d="M22.148,14.206s-.174.62-.363.695-.23-.056-.158-.169S22.127,14.276,22.148,14.206Z" transform="translate(-21.53 -13.78)" fill="#fff"/><path d="M21.994,13.831s-.043.533-.185.62-.193-.008-.153-.11S21.991,13.895,21.994,13.831Z" transform="translate(-21.523 -13.831)" fill="#fff"/></g><path d="M21.133,15.528s.048.6.233.707.252,0,.206-.119S21.141,15.6,21.133,15.528Z" transform="translate(-20.301 -13.141)" fill="#fff"/><path d="M21.05,15.035s.182.651.383.731.236-.06.165-.178S21.07,15.11,21.05,15.035Z" transform="translate(-20.312 -13.208)" fill="#fff"/><path d="M21.071,14.629s.177.627.371.7.228-.055.158-.174S21.095,14.7,21.071,14.629Z" transform="translate(-20.309 -13.264)" fill="#fff"/><path d="M21.074,14.216s.174.62.364.695.228-.055.161-.169S21.094,14.291,21.074,14.216Z" transform="translate(-20.309 -13.32)" fill="#fff"/><path d="M21.279,13.873s.043.529.185.62.193-.008.153-.111S21.282,13.936,21.279,13.873Z" transform="translate(-20.281 -13.367)" fill="#fff"/><path d="M21.661,13.428c.013.028.028.072.036.091a.907.907,0,0,1,.039.115,1.08,1.08,0,0,1,.051.233.714.714,0,0,1-.007.26c-.02.059-.075.145-.15.138a.127.127,0,0,1-.088-.078.721.721,0,0,1,.04-.5C21.607,13.6,21.634,13.511,21.661,13.428Z" transform="translate(-20.249 -13.428)" fill="#fff"/><path d="M21.167,15.941a.5.5,0,0,0-.024.123.972.972,0,0,1-.051.15c-.043.091-.115.181-.225.161a.063.063,0,0,1-.056-.032.086.086,0,0,1-.011-.067.332.332,0,0,1,.1-.158A2.626,2.626,0,0,1,21.167,15.941Z" transform="translate(-20.347 -13.084)" fill="#fff"/><path d="M21.149,15.622a.561.561,0,0,0-.023.123.681.681,0,0,1-.052.149c-.039.091-.114.186-.224.166a.085.085,0,0,1-.056-.035.081.081,0,0,1-.008-.067.326.326,0,0,1,.1-.158A2.644,2.644,0,0,1,21.149,15.622Z" transform="translate(-20.349 -13.128)" fill="#fff"/><path d="M21.068,15.216a.589.589,0,0,0,.016.126.673.673,0,0,1,0,.158c-.013.1-.051.209-.161.225a.086.086,0,0,1-.064-.016.079.079,0,0,1-.031-.064.308.308,0,0,1,.047-.177A2.759,2.759,0,0,1,21.068,15.216Z" transform="translate(-20.343 -13.184)" fill="#fff"/><path d="M20.4,15.941a.635.635,0,0,1,.024.123.65.65,0,0,0,.051.15c.04.091.114.181.225.161a.065.065,0,0,0,.055-.032.082.082,0,0,0,.013-.067.352.352,0,0,0-.1-.158A2.517,2.517,0,0,0,20.4,15.941Z" transform="translate(-20.401 -13.084)" fill="#fff"/><path d="M20.415,15.622a.636.636,0,0,1,.024.123,1.207,1.207,0,0,0,.051.149c.043.091.115.186.228.166a.1.1,0,0,0,.056-.035.085.085,0,0,0,.008-.067.326.326,0,0,0-.1-.158A3.187,3.187,0,0,0,20.415,15.622Z" transform="translate(-20.399 -13.128)" fill="#fff"/><path d="M20.545,15.195a.473.473,0,0,1-.016.126.735.735,0,0,0,0,.158c.011.1.051.209.161.225a.073.073,0,0,0,.064-.016.079.079,0,0,0,.031-.064.317.317,0,0,0-.047-.177A2.721,2.721,0,0,0,20.545,15.195Z" transform="translate(-20.384 -13.186)" fill="#fff"/><path d="M20.8,14.786a.686.686,0,0,0,.064.106.7.7,0,0,1,.067.142.222.222,0,0,1-.056.273.072.072,0,0,1-.063.016.1.1,0,0,1-.056-.044.366.366,0,0,1-.031-.185A2.738,2.738,0,0,1,20.8,14.786Z" transform="translate(-20.357 -13.242)" fill="#fff"/></g><path d="M20.962,13.262a.1.1,0,0,0-.016-.056.312.312,0,0,0-.1-.106.572.572,0,0,0-.485-.032.3.3,0,0,0-.059.019c.016-.008.07.051.083.059a1.012,1.012,0,0,0,.209.142.482.482,0,0,0,.26.072A.1.1,0,0,0,20.962,13.262Z" transform="translate(-17.163 -10.389)" fill="#fff"/><path d="M21.264,13.5a.108.108,0,0,0-.032-.051.283.283,0,0,0-.123-.075.574.574,0,0,0-.473.1.411.411,0,0,0-.055.035c.011-.008.082.035.094.04a1.022,1.022,0,0,0,.24.078.511.511,0,0,0,.268,0A.107.107,0,0,0,21.264,13.5Z" transform="translate(-17.125 -10.345)" fill="#fff"/><path d="M20.662,12.92a.125.125,0,0,0-.011-.059.322.322,0,0,0-.088-.11.476.476,0,0,0-.43-.059.257.257,0,0,1-.056.016c.011,0,.064.059.075.072a1.182,1.182,0,0,0,.185.149.474.474,0,0,0,.228.088A.092.092,0,0,0,20.662,12.92Z" transform="translate(-17.194 -10.439)" fill="#fff"/><path d="M20.474,12.571c0-.2-.273-.249-.418-.273-.024,0-.19-.035-.19-.067-.011.233.241.351.426.41a.193.193,0,0,0,.083.011.1.1,0,0,0,.091-.047A.142.142,0,0,0,20.474,12.571Z" transform="translate(-17.223 -10.499)" fill="#fff"/><path d="M20.267,12.222c0-.174-.236-.217-.363-.236-.024,0-.171-.032-.166-.064-.011.206.209.311.375.363a.216.216,0,0,0,.072.013.092.092,0,0,0,.078-.043A.1.1,0,0,0,20.267,12.222Z" transform="translate(-17.241 -10.541)" fill="#fff"/><path d="M20.082,11.938c.08-.225-.236-.39-.406-.477a1.853,1.853,0,0,1-.289-.2.976.976,0,0,0,.45.69.388.388,0,0,0,.094.048.139.139,0,0,0,.131-.02A.088.088,0,0,0,20.082,11.938Z" transform="translate(-17.289 -10.632)" fill="#fff"/><path d="M21.01,11.627a6.657,6.657,0,0,1-.043.837c-.016.126-.024.252-.043.375a.745.745,0,0,1-.051.276c-.067.094-.15.011-.178-.064a1.22,1.22,0,0,1,.1-.631c.051-.2.11-.4.161-.6A.906.906,0,0,0,21.01,11.627Z" transform="translate(-17.112 -10.581)" fill="#fff"/><path d="M21.344,11.936a6.369,6.369,0,0,1-.083.837c-.023.122-.035.248-.063.371a.648.648,0,0,1-.067.273c-.072.09-.15,0-.169-.075a1.209,1.209,0,0,1,.13-.624c.064-.193.131-.39.193-.588A.626.626,0,0,0,21.344,11.936Z" transform="translate(-17.075 -10.539)" fill="#fff"/><path d="M21.448,12.252a6.661,6.661,0,0,1,.032.84c-.008.126,0,.252-.008.379a.724.724,0,0,1-.031.276c-.06.1-.147.028-.182-.047a1.226,1.226,0,0,1,.047-.64c.036-.2.075-.4.111-.607A.707.707,0,0,0,21.448,12.252Z" transform="translate(-17.037 -10.496)" fill="#fff"/><path d="M20.641,11.256a5.581,5.581,0,0,1,.027.8c0,.123,0,.241,0,.364a.654.654,0,0,1-.032.264c-.055.1-.138.027-.169-.043a1.152,1.152,0,0,1,.04-.612l.106-.58A.637.637,0,0,0,20.641,11.256Z" transform="translate(-17.146 -10.632)" fill="#fff"/><path d="M20.4,11.072a4.31,4.31,0,0,1,.031.671c-.008.1,0,.2-.008.3a.469.469,0,0,1-.027.225c-.055.078-.142.019-.174-.04-.078-.146.008-.359.044-.513s.07-.324.1-.485A.485.485,0,0,0,20.4,11.072Z" transform="translate(-17.18 -10.657)" fill="#fff"/><path d="M20.192,10.707a3.278,3.278,0,0,1,.04.581c-.008.118,0,.236,0,.355a.154.154,0,0,1-.028.1.105.105,0,0,1-.126.008.151.151,0,0,1-.055-.067c-.064-.13.015-.288.047-.418s.067-.28.1-.418C20.172,10.806,20.18,10.755,20.192,10.707Z" transform="translate(-17.206 -10.707)" fill="#fff"/><path d="M19.616,10.891a1.143,1.143,0,0,0,.134.158,1.207,1.207,0,0,1,.175.174.443.443,0,0,1,.055.169.563.563,0,0,1,0,.115.106.106,0,0,1-.039.067.12.12,0,0,1-.091,0c-.171-.051-.193-.221-.214-.371C19.629,11.1,19.621,11,19.616,10.891Z" transform="translate(-17.257 -10.682)" fill="#fff"/><path d="M19.753,12.313a.994.994,0,0,1,.111.257.634.634,0,0,1,.019.252c-.011.067-.035.214-.126.214-.142,0-.107-.3-.067-.383a1.234,1.234,0,0,0,.032-.386Z" transform="translate(-17.252 -10.494)" fill="#fff"/><path d="M19.993,12.688a.941.941,0,0,1,.083.268.611.611,0,0,1-.013.252c-.015.067-.055.209-.145.2-.142-.019-.075-.315-.023-.39a1.261,1.261,0,0,0,.074-.383Z" transform="translate(-17.228 -10.443)" fill="#fff"/><path d="M20.241,13.033a.813.813,0,0,1,.04.276.6.6,0,0,1-.051.248c-.028.064-.088.2-.178.174-.138-.04-.019-.323.04-.39a1.162,1.162,0,0,0,.134-.364Z" transform="translate(-17.207 -10.397)" fill="#fff"/><path d="M20.4,13.3a1.067,1.067,0,0,1,.04.276.741.741,0,0,1-.051.248c-.032.064-.091.2-.177.174-.139-.04-.024-.324.035-.391a1.158,1.158,0,0,0,.134-.363Z" transform="translate(-17.185 -10.36)" fill="#fff"/><path d="M19.552,11.925a.967.967,0,0,1,.11.256.615.615,0,0,1,.02.252c-.011.067-.032.214-.126.214-.142,0-.107-.3-.067-.383a1.259,1.259,0,0,0,.031-.386Z" transform="translate(-17.279 -10.547)" fill="#fff"/><path d="M19.222,11.466a1.1,1.1,0,0,1,.158.252.707.707,0,0,1,.067.268c0,.075.008.232-.083.248-.142.024-.165-.3-.142-.394a1.332,1.332,0,0,0-.039-.418Z" transform="translate(-17.317 -10.609)" fill="#fff"/><path d="M19.053,12.6a.851.851,0,0,0,.126.248.644.644,0,0,0,.185.174c.059.032.185.107.244.035.091-.11-.169-.272-.256-.3a1.13,1.13,0,0,1-.321-.217Z" transform="translate(-17.337 -10.456)" fill="#fff"/><path d="M19.213,12.994a.89.89,0,0,0,.158.232.539.539,0,0,0,.206.15c.059.028.2.088.244.013.078-.123-.2-.257-.288-.265a1.159,1.159,0,0,1-.343-.181Z" transform="translate(-17.316 -10.401)" fill="#fff"/><path d="M19.378,13.393a.848.848,0,0,0,.189.2.6.6,0,0,0,.225.115c.067.019.209.056.244-.027.059-.134-.232-.222-.323-.217a1.133,1.133,0,0,1-.372-.123Z" transform="translate(-17.295 -10.346)" fill="#fff"/><path d="M19.471,13.709a.922.922,0,0,0,.19.2.622.622,0,0,0,.225.115c.067.019.209.055.248-.028.056-.134-.236-.221-.327-.216a1.134,1.134,0,0,1-.371-.123Z" transform="translate(-17.282 -10.303)" fill="#fff"/><path d="M20.55,13.595a.87.87,0,0,1,.04.281.6.6,0,0,1-.052.248c-.027.059-.086.2-.177.169-.138-.039-.019-.319.04-.386a1.2,1.2,0,0,0,.134-.366Z" transform="translate(-17.164 -10.32)" fill="#fff"/><path d="M19.7,14.11a.861.861,0,0,0,.209.182.6.6,0,0,0,.241.091c.067.008.213.031.236-.056.044-.138-.256-.193-.347-.177a1.234,1.234,0,0,1-.379-.083Z" transform="translate(-17.251 -10.248)" fill="#fff"/><path d="M18.91,12.207a.913.913,0,0,0,.127.248.626.626,0,0,0,.185.174c.059.035.189.11.244.035.091-.11-.166-.272-.252-.291a1.276,1.276,0,0,1-.324-.222Z" transform="translate(-17.356 -10.51)" fill="#fff"/><path d="M18.744,11.686a1.019,1.019,0,0,0,.094.284.832.832,0,0,0,.169.217c.056.048.174.15.246.091.106-.1-.134-.319-.222-.359a1.322,1.322,0,0,1-.3-.292Z" transform="translate(-17.378 -10.581)" fill="#fff"/><path d="M18.731,11.308s.131.055.142.063a.8.8,0,0,1,.158.1.394.394,0,0,1,.166.311.125.125,0,0,1-.027.072.122.122,0,0,1-.126.019.685.685,0,0,1-.206-.177A.582.582,0,0,1,18.731,11.308Z" transform="translate(-17.378 -10.625)" fill="#fff"/></g></g><g transform="translate(6.62 2.639)"><path d="M14.574,11.444c-.063.028-.091.013-.123.043a.1.1,0,0,0-.027.067c.008.04.064.059.1.064a.126.126,0,0,0,.118-.043c.024-.032.016-.056.036-.067s.047.032.1.047a.2.2,0,0,0,.131-.027c.048-.035.043-.075.086-.158a.637.637,0,0,1,.153-.2,1.4,1.4,0,0,1,.158-.118c.064-.04.1-.059.107-.1a.076.076,0,0,0-.051-.075c-.028,0-.048.032-.08.067-.067.08-.078.051-.217.171a.615.615,0,0,0-.153.157c-.043.072-.051.134-.078.134s-.048-.094-.091-.1c-.02,0-.024.027-.08.07A.27.27,0,0,1,14.574,11.444Z" transform="translate(-14.424 -10.884)" fill="#fff"/><path d="M15.239,11.087a.262.262,0,0,0-.09.039c-.016.016-.051.044-.044.072s.033.024.044.051a.1.1,0,0,1-.011.07.991.991,0,0,0-.036.158c0,.043-.011.1.008.115s.075-.016.1-.064c.056-.1-.047-.228,0-.3a.185.185,0,0,1,.055-.056c.016-.011.028-.015.035-.031a.046.046,0,0,0,0-.059C15.295,11.074,15.271,11.079,15.239,11.087Z" transform="translate(-14.332 -10.857)" fill="#fff"/><path d="M15.748,11.327c-.08.032-.08.02-.11.04a.131.131,0,0,0-.064.067c-.011.032-.011.083.019.1a.069.069,0,0,0,.083-.008c.024-.019.02-.047.048-.059a.035.035,0,0,1,.035,0c.024.011,0,.067.027.106a.114.114,0,0,0,.08.032c.051,0,.059-.032.115-.051.074-.032.1.011.177-.011a.2.2,0,0,0,.122-.088c.043-.07.043-.173,0-.2a.066.066,0,0,0-.07.011c-.027.024,0,.059-.032.11-.016.032-.048.064-.07.056,0,0-.013,0-.028-.059s-.016-.1-.019-.1-.008.086-.067.139c0,0-.043.035-.075.023-.016,0-.032-.031-.064-.082-.019-.028-.023-.036-.039-.04S15.783,11.316,15.748,11.327Z" transform="translate(-14.267 -10.834)" fill="#fff"/><path d="M15.927,11c0,.078-.04.1-.02.13a.058.058,0,0,0,.064.032c.011,0,.016-.016.024-.106s0-.1,0-.107a.042.042,0,0,0-.055.011A.074.074,0,0,0,15.927,11Z" transform="translate(-14.222 -10.876)" fill="#fff"/><path d="M16.4,11.1c-.036.024-.04.024-.072.048a.229.229,0,0,0-.039.043c-.036.043.007.1.019.2.013.115-.027.186,0,.2s.056-.011.075-.04c.051-.083-.051-.181,0-.276a.431.431,0,0,1,.056-.067c.043-.039.075-.039.086-.07a.066.066,0,0,0-.016-.08.04.04,0,0,0-.019-.011C16.459,11.041,16.444,11.068,16.4,11.1Z" transform="translate(-14.171 -10.862)" fill="#fff"/></g><g transform="translate(3.135)"><path d="M11.777,11.34c-.032.011-.056-.032-.1-.016a.084.084,0,0,0-.051.078.146.146,0,0,0,.158.1.159.159,0,0,0,.091-.048c.04-.048.035-.107.027-.221-.019-.225-.032-.281-.008-.292s.056.043.15.118.185.15.265.126c.043-.013.078-.067.146-.182.059-.1.051-.114.086-.142.08-.067.15-.011.222-.07a.286.286,0,0,0,.059-.236.515.515,0,0,0-.1-.238c-.027-.039-.174-.256-.288-.225a.087.087,0,0,0-.063.056c0,.011-.013.056.09.169.083.1.1.083.142.139.059.078.1.209.048.26-.036.035-.115.019-.166-.013-.035-.023-.043-.047-.088-.126-.07-.114-.122-.2-.193-.2-.027,0-.059,0-.067.024s.008.059.08.142c.11.134.118.13.134.169a.289.289,0,0,1-.024.228c-.019.04-.056.115-.11.118s-.115-.078-.214-.221c-.075-.115-.1-.177-.142-.177s-.07.086-.074.091c-.02.067.007.1.023.228a.765.765,0,0,1,0,.177C11.812,11.319,11.788,11.335,11.777,11.34Z" transform="translate(-11.321 -8.353)" fill="#fff"/><path d="M11.537,10.778c-.028-.013-.083-.016-.1.011s.025.161.083.161c.036,0,.06-.043.064-.047a.086.086,0,0,0,.016-.083A.1.1,0,0,0,11.537,10.778Z" transform="translate(-11.349 -8.261)" fill="#fff"/><path d="M11.525,10.441c0,.024-.055.032-.1.1-.013.016-.036.051-.024.078a.064.064,0,0,0,.051.032c.063,0,.114-.078.158-.145a.169.169,0,0,0,.043-.091c0-.086-.131-.146-.217-.153-.024,0-.064-.008-.075.011s0,.059.019.083C11.439,10.422,11.525,10.414,11.525,10.441Z" transform="translate(-11.358 -8.331)" fill="#fff"/><path d="M11.844,10.245c-.024.011-.052-.019-.075-.008s-.024.051-.028.056a.074.074,0,0,0,.02.055.091.091,0,0,0,.1.02.125.125,0,0,0,.064-.056c.011-.027,0-.035.011-.056s.028-.019.107-.035.078-.019.091-.035a.1.1,0,0,0,.027-.07.189.189,0,0,0-.063-.142c-.02-.02-.075-.083-.131-.067-.024.008-.051.027-.048.047s.052.02.083.067a.076.076,0,0,1,.02.067.067.067,0,0,1-.032.051c-.035.013-.078-.043-.1-.027-.008,0-.008.011-.016.051S11.856,10.237,11.844,10.245Z" transform="translate(-11.305 -8.379)" fill="#fff"/><path d="M11.725,9.917c-.019.024.027.083.048.107s.027.027.035.027.019-.035.019-.056a.077.077,0,0,0-.024-.059C11.776,9.913,11.736,9.905,11.725,9.917Z" transform="translate(-11.308 -8.378)" fill="#fff"/><path d="M12.155,9.539a.122.122,0,0,0-.072.07c-.011.024-.027.075-.011.091s.088-.032.118-.067c.016-.016.067-.067.051-.094S12.182,9.527,12.155,9.539Z" transform="translate(-11.261 -8.43)" fill="#fff"/><path d="M12.4,9.434c-.016.126.1.177.23.394.067.106.051.114.177.339.059.1.118.2.228.23.019,0,.056.015.072,0s-.032-.115-.111-.241c-.232-.358-.228-.323-.272-.414-.055-.107-.118-.213-.173-.319-.025-.048-.049-.1-.084-.1S12.405,9.383,12.4,9.434Z" transform="translate(-11.216 -8.459)" fill="#fff"/><path d="M12.82,9.134c-.011.015,0,.039.008.086.02.067.035.067.035.094,0,.048-.063.056-.067.107a.068.068,0,0,0,.024.056c.048.019.186-.1.174-.225a.138.138,0,0,0-.048-.1C12.9,9.118,12.84,9.11,12.82,9.134Z" transform="translate(-11.161 -8.486)" fill="#fff"/><path d="M14.17,9.309c-.056,0-.075.051-.155.114s-.158.08-.153.107.064.048.115.048c.153,0,.3-.171.268-.233C14.233,9.317,14.193,9.309,14.17,9.309Z" transform="translate(-11.015 -8.46)" fill="#fff"/><path d="M13.811,9.828c-.019.051.016.118.055.118s.052-.031.064-.051.019-.1-.016-.114S13.83,9.79,13.811,9.828Z" transform="translate(-11.023 -8.396)" fill="#fff"/><path d="M14.73,8.764c-.028,0-.059.055-.088.11s-.039.1-.055.1-.04-.088-.067-.091-.028.1-.1.138a.145.145,0,0,1-.13-.008c-.051-.027-.048-.075-.083-.083s-.04.02-.118.1a.737.737,0,0,1-.11.094.242.242,0,0,1-.155.024c-.086-.032-.078-.134-.145-.147s-.122.052-.15.107a.193.193,0,0,0,.028.233c.05.027.1-.035.176,0,.008,0,.056.023.064.063s-.032.086-.091.142c-.078.078-.134.134-.169.166a.722.722,0,0,1-.118-.241l-.056-.221c-.027-.115-.032-.174-.07-.185s-.075.015-.1.047c-.031.051,0,.115.024.185.072.2.028.185.091.351A.686.686,0,0,0,13.4,9.8c-.111.059-.182.07-.217.153,0,0-.036.086-.008.11s.161-.04.3-.134a.268.268,0,0,0,.016.027.589.589,0,0,1,.059.5.483.483,0,0,1-.343.206.33.33,0,0,1-.2-.024c-.127-.064-.155-.225-.2-.214-.019,0-.027.032-.035.056a.271.271,0,0,0,.032.2.361.361,0,0,0,.284.142.593.593,0,0,0,.462-.221.67.67,0,0,0,.161-.367.743.743,0,0,0-.083-.379l-.011-.024a.816.816,0,0,0,.233-.2c.07-.115.039-.163.13-.311.048-.075.123-.194.214-.194.067,0,.086.06.161.052s.07-.044.138-.056c.088-.011.115.043.182.024a.186.186,0,0,0,.107-.107C14.836,8.925,14.774,8.767,14.73,8.764Zm-1.019.477c-.011.008-.051-.016-.063-.051s-.008-.048,0-.052.019.008.039.028a.1.1,0,0,1,.032.027C13.724,9.21,13.724,9.237,13.712,9.241Z" transform="translate(-11.165 -8.535)" fill="#fff"/><path d="M15.639,9.5c-.153,0-.379-.008-.39-.064,0-.016.011-.027.09-.086a2.416,2.416,0,0,1,.233-.169c.139-.064.193-.016.249-.08a.185.185,0,0,0,0-.236.148.148,0,0,0-.185-.032.082.082,0,0,0-.032.088c.019.027.075.007.091.039s-.024.067-.027.072a.22.22,0,0,1-.15.07.687.687,0,0,0-.343.163c-.059.059-.115.161-.08.221.016.032.072.048.185.078s.15.036.155.059-.051.044-.118.107a.438.438,0,0,0-.088.11c-.019-.035-.039-.067-.055-.1-.134-.228-.2-.342-.209-.374-.067-.209-.024-.343-.123-.4-.032-.016-.083-.032-.11-.008-.011.008-.04.032-.019.142a1.023,1.023,0,0,0,.134.3c.086.169.134.257.114.355-.008.051-.027.088-.031.123a3.037,3.037,0,0,1-.316.225.332.332,0,0,1-.252.039.088.088,0,0,1-.043-.027l.074-.094a1.707,1.707,0,0,0,.186-.3c.043-.111.09-.222.039-.292a.133.133,0,0,0-.134-.051.112.112,0,0,0-.078.083c0,.027.008.043.027.082A.535.535,0,0,1,14.5,9.7c0,.059-.056.083-.155.189a.606.606,0,0,0-.083.111.672.672,0,0,1-.015-.313s.015-.027,0-.039-.04-.013-.059,0a.075.075,0,0,0-.035.043.461.461,0,0,0,.027.288c.011.032.024.059.035.088a.493.493,0,0,1-.075.09c-.058.064-.1.091-.185.19-.059.07-.091.118-.075.161a.066.066,0,0,0,.048.048c.059.011.11-.086.213-.228.067-.088.1-.119.126-.155a.22.22,0,0,0,.1.1c.126.055.265-.032.489-.174a.636.636,0,0,0,.15-.134.293.293,0,0,1,.059.024c.107.063.083.157.2.256.059.051.146.1.173.08.008-.008.02-.036-.106-.289-.02-.039-.036-.07-.056-.1.094-.182.19-.244.265-.264.1-.028.169.015.319-.028.106-.032.217-.1.209-.13S15.923,9.5,15.639,9.5Z" transform="translate(-11.014 -8.529)" fill="#fff"/><path d="M15.377,8.582a.343.343,0,0,0-.181.24c-.013.036-.008.044,0,.048.024.019.139-.063.217-.15.035-.035.111-.114.091-.146S15.417,8.567,15.377,8.582Z" transform="translate(-10.834 -8.562)" fill="#fff"/><path d="M15.052,8.691c-.044-.008-.088.024-.166.086-.048.035-.056.051-.056.059s.048.028.075.028c.048,0,.083-.028.142-.072s.059-.067.059-.07C15.1,8.7,15.071,8.691,15.052,8.691Z" transform="translate(-10.883 -8.545)" fill="#fff"/><path d="M15.05,8.944A.162.162,0,0,1,14.987,9c-.032.011-.051-.008-.067,0a.061.061,0,0,0-.008.083c.016.019.048.016.115.013.043,0,.067-.008.078-.02.027-.032.013-.086,0-.114s-.016-.052-.032-.052S15.065,8.929,15.05,8.944Z" transform="translate(-10.874 -8.514)" fill="#fff"/><path d="M15.99,8.833a.2.2,0,0,0-.1.115c-.013.032-.027.063-.013.078s.056.008.083,0,.02-.028.072-.083a.1.1,0,0,0,.035-.048s.008-.035-.008-.051S16,8.833,15.99,8.833Z" transform="translate(-10.741 -8.526)" fill="#fff"/><path d="M16.191,9.152c-.008,0,0,.043.027.075a.211.211,0,0,0,.1.059,1.14,1.14,0,0,0,.158,0c.056,0,.064,0,.075,0,.056-.035.019-.169.013-.189-.008-.04-.032-.107-.052-.1s-.019.182-.063.185c-.024,0-.04-.047-.067-.043s-.027.091-.067.1S16.207,9.139,16.191,9.152Z" transform="translate(-10.697 -8.504)" fill="#fff"/><path d="M16.313,8.869a.084.084,0,0,0,.066.1.077.077,0,0,0,.052-.088.061.061,0,0,0-.044-.055A.065.065,0,0,0,16.313,8.869Z" transform="translate(-10.681 -8.526)" fill="#fff"/><path d="M15.486,9.708c-.027,0-.067.059-.083.126a.35.35,0,0,0,.032.2c.051.153.086.252.142.256.035,0,.063-.032.142-.134.217-.276.244-.276.252-.272.035.016-.08.213.008.359a.262.262,0,0,0,.248.126c.111-.028.123-.171.206-.171s.107.158.209.171c.072.008.134-.059.181-.115a.7.7,0,0,0,.155-.359c.039-.169.067-.3,0-.363-.051-.048-.15-.048-.173-.008-.013.024.035.056.055.13a.3.3,0,0,1,0,.163c-.051.311-.091.347-.11.359a.143.143,0,0,1-.11.031c-.064-.016-.091-.09-.1-.11a.221.221,0,0,1-.011-.118c.032-.276.078-.4.019-.5-.016-.024-.051-.063-.075-.059s-.043.067-.056.23c-.015.307.013.379-.047.462s-.147.118-.2.09c-.02-.008-.056-.039-.068-.2-.016-.281.075-.466.04-.485-.016-.008-.063.035-.193.2-.213.265-.284.383-.335.367-.027-.008-.043-.075-.072-.209C15.506,9.764,15.51,9.713,15.486,9.708Z" transform="translate(-10.805 -8.446)" fill="#fff"/><path d="M17.369,9.866a1.049,1.049,0,0,1-.078-.221c.019-.048.039-.1.059-.158.086-.228.165-.351.11-.422a.1.1,0,0,0-.1-.035c-.064.023-.051.142-.083.311a1.163,1.163,0,0,1-.035.138c-.008-.011-.013-.027-.02-.039-.118-.214-.181-.178-.339-.447-.032-.047-.064-.11-.1-.1s-.075.11-.056.2c.028.126.163.146.3.276a.644.644,0,0,1,.153.24,1.4,1.4,0,0,0-.067.2c-.051.193-.023.174-.074.351s-.091.257-.052.292.08.016.119-.008c.082-.055.063-.185.074-.339a1.32,1.32,0,0,1,.064-.324c.123.34.083.588.182.608a.1.1,0,0,0,.1-.048C17.582,10.257,17.48,10.127,17.369,9.866Z" transform="translate(-10.625 -8.517)" fill="#fff"/><path d="M17.444,9.427c-.024,0-.051.035-.055.07,0,.051.05.1.106.118s.146-.011.158-.07a.073.073,0,0,0-.04-.091c-.035-.011-.063.043-.1.032S17.471,9.427,17.444,9.427Z" transform="translate(-10.533 -8.444)" fill="#fff"/><path d="M17.557,9.3c.048.055.181-.016.2-.024s.075-.035.072-.059-.063-.027-.123-.032-.114-.011-.138.013A.088.088,0,0,0,17.557,9.3Z" transform="translate(-10.512 -8.478)" fill="#fff"/><path d="M16.985,10.518a.107.107,0,0,0-.016.107c.044.075.238.035.3.019a.681.681,0,0,0,.358-.161.856.856,0,0,0,.182-.383c.091-.284.048-.355.147-.473.063-.072.122-.1.133-.182a.335.335,0,0,0-.067-.2C18,9.2,17.987,9.2,17.98,9.2c-.032,0-.043.1-.051.153s0,0-.15.466a2.875,2.875,0,0,1-.142.41c-.07.138-.107.209-.177.249C17.277,10.574,17.068,10.416,16.985,10.518Z" transform="translate(-10.592 -8.475)" fill="#fff"/><path d="M18.221,9.385a.958.958,0,0,0-.158.43,2.611,2.611,0,0,1-.272.671c.024.016.153-.161.158-.169.217-.3.15-.4.335-.667.083-.118.173-.213.142-.292a.1.1,0,0,0-.072-.055C18.344,9.3,18.3,9.294,18.221,9.385Z" transform="translate(-10.478 -8.461)" fill="#fff"/><path d="M18.241,9.952c-.032.032-.067.088-.043.118s.035.024.078.028.1.011.111-.013-.02-.027-.036-.075,0-.083-.019-.094S18.265,9.932,18.241,9.952Z" transform="translate(-10.424 -8.378)" fill="#fff"/><path d="M18.112,10.293c-.008.032-.024.044-.019.056s.067.024.086.024c.193,0,.257.067.311.016.028-.024.048-.064.036-.088s-.075-.008-.182-.016c-.126-.011-.217-.059-.233-.031C18.1,10.262,18.112,10.265,18.112,10.293Z" transform="translate(-10.437 -8.332)" fill="#fff"/><path d="M19.431,9.966c-.043,0-.067.094-.142.252a2.971,2.971,0,0,1-.182.359c-.008-.059-.016-.138-.032-.228-.008-.064-.019-.123-.027-.182.043-.064.083-.131.126-.193s.091-.131.063-.177a.108.108,0,0,0-.122-.04c-.064.024-.072.118-.1.241a1.073,1.073,0,0,0-.147-.371c-.027-.04-.063-.083-.1-.075s-.07.086-.078.146c-.011.134.086.213.182.367a1.048,1.048,0,0,1,.059.126,2.5,2.5,0,0,0-.182.311,1.138,1.138,0,0,1-.177.319c-.019.02-.161.182-.233.147-.011-.008-.024-.02-.063-.222-.02-.1-.02-.13-.048-.15s-.078,0-.169.024a1.275,1.275,0,0,1-.233.088.188.188,0,0,1-.134-.013c-.072-.048-.048-.161-.107-.182a.074.074,0,0,0-.075.02c-.047.051-.019.181.056.248a.4.4,0,0,0,.426,0c.067-.035.1-.078.126-.067.048.028-.02.163.051.321a.214.214,0,0,0,.094.118c.126.051.308-.134.336-.163.208-.213.1-.331.318-.631.016-.019.032-.043.048-.067a2.524,2.524,0,0,1,.059.319c0,.024,0,.051.008.075-.016.024-.032.043-.051.067a.958.958,0,0,0-.11.174.242.242,0,0,0-.035.166c0,.023.011.055.031.063.043.008.067-.169.174-.367.011.186,0,.308.043.321.024,0,.059-.032.072-.064.023-.051,0-.094-.016-.169-.008-.043,0-.024-.02-.2v-.011a.791.791,0,0,1,.111-.131,1.273,1.273,0,0,0,.268-.355.241.241,0,0,0,.011-.075C19.506,10.044,19.466,9.969,19.431,9.966Z" transform="translate(-10.52 -8.427)" fill="#fff"/><path d="M18.427,11.164a.086.086,0,0,0-.032.1c.032.1.311.163.524.08.123-.048.193-.139.335-.319.217-.273.19-.386.372-.541a.285.285,0,0,0,.078-.114c.048-.127-.027-.289-.075-.284-.024,0-.04.043-.048.07-.063.169-.157.332-.221.5-.055.145-.177.465-.442.556a.461.461,0,0,1-.374.008C18.506,11.195,18.463,11.152,18.427,11.164Z" transform="translate(-10.396 -8.354)" fill="#fff"/></g><g transform="translate(6.096 1.946)"><path d="M16.748,10.884l.615-.2-.647.319a2.027,2.027,0,0,0-1.054-.221,2.034,2.034,0,0,0-1.053.221l-.647-.319.615.2s-.169-.2-.193-.221h0c.019,0,.343.166.343.166l-.273-.371.514.307-.126-.244.256.209L15,10.3l.383.406V10.42l.157.288.126-.433.131.433.158-.288v.288l.379-.406-.1.43.252-.209-.125.244.513-.307-.273.371s.327-.161.343-.166Z" transform="translate(-13.963 -10.274)" fill="#fff"/></g></g></g></g></svg>