<svg xmlns="http://www.w3.org/2000/svg" width="35.153" height="35.153" viewBox="0 0 35.153 35.153"><g transform="translate(0 0)"><path d="M34.025,11.717H.885c.139-.39.292-.773.454-1.151A17.739,17.739,0,0,1,4.246,5.993a17.563,17.563,0,0,1,29.322,4.573C33.733,10.944,33.883,11.327,34.025,11.717Z" transform="translate(0.121)"/><path d="M35.153,16.167a17.471,17.471,0,0,1-.814,5.283c-.063.193-.126.386-.193.575H1.006c-.067-.189-.134-.382-.193-.575a17.576,17.576,0,0,1,0-10.566c.059-.193.126-.386.193-.576h33.14c.067.19.131.383.19.576A17.366,17.366,0,0,1,35.153,16.167Z" transform="translate(0 1.409)" fill="#d9131a"/><path d="M34.025,20.616c-.142.391-.292.778-.457,1.156a17.587,17.587,0,0,1-32.229,0c-.161-.379-.315-.765-.454-1.156Z" transform="translate(0.121 2.819)" fill="#028832"/><g transform="translate(0.813 10.566)"><path d="M34.238,11.023H.715c.059-.193.126-.386.193-.576.139-.39.292-.773.454-1.151H33.591c.165.379.315.762.457,1.151C34.115,10.636,34.179,10.83,34.238,11.023Z" transform="translate(-0.715 -9.295)" fill="#fff"/><path d="M34.241,20.11c-.063.193-.126.386-.193.575-.142.391-.292.778-.457,1.156H1.362c-.161-.379-.315-.765-.454-1.156C.841,20.5.774,20.3.715,20.11Z" transform="translate(-0.715 -7.816)" fill="#fff"/></g><path d="M24.409,16.855l-9.137,5.283-1,.575-2,1.156-7.91,4.57A17.663,17.663,0,0,1,1.46,23.87c-.161-.379-.315-.765-.454-1.156-.067-.189-.134-.382-.193-.575a17.576,17.576,0,0,1,0-10.566c.059-.193.126-.386.193-.576.139-.39.292-.773.454-1.151A17.739,17.739,0,0,1,4.367,5.272l7.91,4.573,2,1.151.995.576Z" transform="translate(0 0.721)" fill="#1447ad"/><path d="M6.583,10.846l2.359,3.239,3.816-1.243L10.4,16.089l2.359,3.243L8.947,18.1,6.6,21.341l0-4.008L2.777,16.1l3.811-1.243Z" transform="translate(0.38 1.483)" fill="#fbdc1d"/></g></svg>