<svg xmlns="http://www.w3.org/2000/svg" width="51.382" height="68.554" viewBox="0 0 51.382 68.554"><g transform="translate(0 0)"><path d="M41.231,34.277h-5.3L20.615,63.495,5.295,34.277,23.268,0h-5.3L0,34.277,17.968,68.544l-.005.01h5.305l-.005-.01Z" fill="#cacee6"/><path d="M48.007.01,48.012,0H42.707l.005.01L24.744,34.277h5.295L45.359,5.059,60.68,34.277,42.707,68.554H48L65.975,34.277Z" transform="translate(-14.592)" fill="#cacee6"/><path d="M68.486,29.747,65.839,34.8l8.923,17.022h5.3Z" transform="translate(-38.827 -17.543)" fill="#cacee6"/><path d="M30.038,83.547h-5.3L36.315,105.62l2.646-5.05Z" transform="translate(-14.59 -49.27)" fill="#cacee6"/></g></svg>