<svg xmlns="http://www.w3.org/2000/svg" width="35.149" height="35.153" viewBox="0 0 35.149 35.153"><g transform="translate(0.001)"><g transform="translate(-0.001 0)"><path d="M35.149,16.167a17.47,17.47,0,0,1-2.793,9.5c-.063.1-.134.2-.2.3s-.155.225-.233.34c-.07.1-.142.193-.213.292-.1.126-.19.252-.289.374-.07.1-.146.19-.225.284-.1.126-.2.252-.311.375-.078.091-.161.182-.24.268-.1.118-.209.233-.321.343-.078.091-.161.174-.244.256-.1.107-.2.206-.308.3-.086.083-.169.165-.256.244A17.565,17.565,0,0,1,0,16.167a17.4,17.4,0,0,1,1.006-5.859H34.143A17.4,17.4,0,0,1,35.149,16.167Z" transform="translate(0 1.409)"/><path d="M34.022,11.717H.885A17.5,17.5,0,0,1,3.9,6.4c.173-.213.355-.418.537-.623.091-.1.177-.193.272-.292A17.641,17.641,0,0,1,6.681,3.7a17.537,17.537,0,0,1,21.545,0A18.2,18.2,0,0,1,30.2,5.488c.094.094.182.193.268.292.185.2.367.41.54.62A17.482,17.482,0,0,1,34.022,11.717Z" transform="translate(0.121 0)" fill="#052586"/><g transform="translate(3.823 3.701)"><rect width="2.632" height="0.237" transform="translate(0.45 4.217)" fill="#fbdc1d"/><path d="M6.895,8.483c-.316-.2-1-.679-1.038-1.153H4.4c-.04.474-.722.955-1.038,1.153a2.188,2.188,0,0,0,1.424-.147c-.28,1.606.34,1.9.34,1.9s.623-.292.343-1.9A2.188,2.188,0,0,0,6.895,8.483Z" transform="translate(-3.363 -2.699)" fill="#fbdc1d"/><path d="M6.221,3.256a25.456,25.456,0,0,0-.872,4.035H4.666a8.745,8.745,0,0,0-.418-2.248A17.641,17.641,0,0,1,6.221,3.256Z" transform="translate(-3.242 -3.256)" fill="#fbdc1d"/><g transform="translate(0.198 0.248)"><path d="M4.527,7.041H4.066a3.066,3.066,0,0,0-.529-1.333c.173-.213.355-.418.537-.623A8.857,8.857,0,0,1,4.527,7.041Z" transform="translate(-3.537 -3.254)" fill="#fbdc1d"/><path d="M7.2,6.741s1.728-.58,1.768-1.9S8.077,3.388,7.622,3.509s-1.76.391-2.2,3.752h.462s.169-1.353,1.025-1.736C7.694,5.368,7.437,6.524,7.2,6.741Z" transform="translate(-3.279 -3.474)" fill="#fbdc1d"/></g></g><g transform="translate(13.452 0.482)"><rect width="2.632" height="0.237" transform="translate(2.807 7.437)" fill="#fbdc1d"/><path d="M17.439,8.483c-.316-.2-1-.679-1.038-1.153H14.945c-.039.474-.722.955-1.038,1.153a2.188,2.188,0,0,0,1.424-.147c-.28,1.606.34,1.9.34,1.9s.623-.292.343-1.9A2.188,2.188,0,0,0,17.439,8.483Z" transform="translate(-11.55 0.52)" fill="#fbdc1d"/><path d="M15.9.518a.469.469,0,0,0-.565,0,2.625,2.625,0,0,0-1.029,2.2c0,1.469.97,3.449.97,4.96h.683c0-1.511.971-3.491.971-4.96A2.622,2.622,0,0,0,15.9.518Z" transform="translate(-11.496 -0.424)" fill="#fbdc1d"/><g transform="translate(0 3.467)"><path d="M13.6,6.741s-1.728-.58-1.768-1.9.892-1.456,1.346-1.335,1.76.391,2.2,3.752h-.462s-.169-1.353-1.025-1.736C13.109,5.368,13.366,6.524,13.6,6.741Z" transform="translate(-11.834 -3.474)" fill="#fbdc1d"/><path d="M17.745,6.741s1.728-.58,1.768-1.9-.892-1.456-1.346-1.335-1.76.391-2.2,3.752h.462s.169-1.353,1.026-1.736C18.238,5.368,17.981,6.524,17.745,6.741Z" transform="translate(-11.268 -3.474)" fill="#fbdc1d"/></g></g><g transform="translate(25.438 3.697)"><rect width="2.632" height="0.237" transform="translate(2.806 4.222)" fill="#fbdc1d"/><path d="M27.983,8.483c-.316-.2-1-.679-1.038-1.153H25.489c-.039.474-.721.955-1.037,1.153a2.191,2.191,0,0,0,1.424-.147c-.281,1.606.339,1.9.339,1.9s.623-.292.343-1.9A2.188,2.188,0,0,0,27.983,8.483Z" transform="translate(-22.095 -2.694)" fill="#fbdc1d"/><path d="M26.91,5.043a8.943,8.943,0,0,0-.418,2.248h-.687a25.6,25.6,0,0,0-.867-4.04A18.2,18.2,0,0,1,26.91,5.043Z" transform="translate(-22.029 -3.252)" fill="#fbdc1d"/><g transform="translate(0 0.252)"><path d="M24.147,6.741s-1.728-.58-1.766-1.9.891-1.456,1.345-1.335,1.76.391,2.2,3.752h-.462s-.169-1.353-1.025-1.736C23.654,5.368,23.91,6.524,24.147,6.741Z" transform="translate(-22.379 -3.474)" fill="#fbdc1d"/><path d="M27.5,5.7a3.087,3.087,0,0,0-.529,1.337h-.462a9.029,9.029,0,0,1,.45-1.956C27.148,5.286,27.33,5.5,27.5,5.7Z" transform="translate(-21.813 -3.254)" fill="#fbdc1d"/></g></g><g transform="translate(0.146 13.801)"><g transform="translate(0 0.963)"><g transform="translate(19.482 9.756)"><path d="M27.41,27.146c-.086.083-.169.165-.256.244l-.726-.4-.741-.391q-1.485-.769-3-1.487c-.591-.284-1.187-.557-1.782-.829h0c-1.207-.552-2.414-1.089-3.634-1.61v-.206c1.346.557,2.684,1.125,4.013,1.716.509.225,1.014.45,1.519.683q1.528.7,3.034,1.452l.75.382.741.4Z" transform="translate(-17.267 -21.449)" fill="#007f0a"/><path d="M27.962,26.661c-.078.091-.161.174-.244.256l-.078-.039-1.5-.734-.189-.094-.19-.091-.379-.177-.757-.359c-.383-.182-.77-.359-1.156-.537-.118-.056-.233-.11-.351-.161h0l-.011-.008-.762-.348c-.063-.031-.126-.059-.19-.086l0,0c-.19-.086-.379-.169-.572-.256l-1.527-.687c-.928-.41-1.851-.821-2.778-1.227v-.2c.161.067.324.134.482.2l.753.319c.544.233,1.086.466,1.633.7l1.539.667c.257.11.513.221.77.335l.765.34a.133.133,0,0,0,.032.015h0c.5.222,1,.442,1.5.671l.766.351.379.174.193.086.189.091,1.52.718Z" transform="translate(-17.267 -21.525)" fill="#007f0a"/><path d="M28.523,26.066c-.078.091-.161.182-.24.268L28,26.208l-1.543-.651-.193-.078-.194-.08-.39-.158-.778-.315c-.517-.214-1.038-.415-1.558-.62l-.371-.15h0l-.4-.158c-.26-.1-.524-.2-.781-.3l-1.57-.6c-.572-.217-1.14-.43-1.713-.647-.409-.153-.813-.3-1.219-.457l-.016,0V21.8l.067.024.016,0c.292.1.584.209.876.311.69.249,1.38.5,2.067.749l.23.083,1.349.5c.177.067.355.134.532.2l.252.094.785.3c.524.2,1.046.394,1.57.6l.781.3.391.153.193.078.2.075,1.554.635Z" transform="translate(-17.267 -21.54)" fill="#007f0a"/><path d="M29.059,25.406c-.07.1-.146.19-.225.284l-.366-.134-1.587-.548-.2-.072-.2-.063-.4-.134-.8-.26c-.529-.178-1.062-.348-1.594-.517l-.8-.257c-.264-.086-.533-.165-.8-.248l-.075-.024-1.5-.466-.028-.008c-.915-.276-1.827-.556-2.745-.832-.155-.043-.308-.091-.466-.138l-.016,0V21.8c.024.008.043.011.067.019l.016,0q1.13.319,2.256.643c.319.094.635.185.951.275l1.069.316h0l.541.161c.272.08.54.158.8.241l.8.244c.537.163,1.069.324,1.606.5l.8.248.4.126.2.067.2.064,1.594.529Z" transform="translate(-17.267 -21.54)" fill="#007f0a"/><path d="M29.995,24.127c-.063.1-.134.2-.2.3l-.414-.11-1.63-.391-.206-.047-.2-.048-.406-.091-.821-.185c-.544-.126-1.094-.241-1.638-.359l-.228-.047-.233-.051-.359-.075c-.272-.059-.548-.115-.821-.174l-.307-.064h0l-1.329-.272c-1.1-.221-2.2-.442-3.294-.651-.21-.04-.423-.083-.632-.122v-.174l.663.118q1.657.3,3.3.608l1.649.315c.276.056.548.1.824.161l.273.056.552.11c.549.11,1.1.217,1.645.335l.821.174.41.086.2.044.206.047L29.458,24Z" transform="translate(-17.267 -21.571)" fill="#007f0a"/><path d="M29.561,24.748c-.07.1-.142.193-.213.292l-.38-.115-1.613-.458-.2-.059-.2-.055-.4-.107-.813-.221c-.54-.147-1.081-.281-1.622-.423l-.812-.209c-.269-.07-.541-.138-.814-.2L21.749,23l-.888-.222c-.418-.1-.832-.2-1.255-.307-.457-.111-.918-.222-1.38-.332-.206-.048-.415-.1-.627-.15-.111-.024-.222-.051-.332-.075v-.177c.126.024.249.051.375.078,1.092.246,2.181.493,3.275.746l1.207.284h0l.422.1c.273.067.544.126.817.193l.816.2c.541.134,1.089.26,1.63.4l.813.209.406.1.206.051.2.056,1.621.438Z" transform="translate(-17.267 -21.548)" fill="#007f0a"/></g><path d="M12.418,20.355c-.139-.027-.276-.059-.41-.091s-.276-.067-.41-.106-.268-.08-.4-.126l-.2-.067-.2-.075c-.13-.048-.259-.1-.39-.155s-.26-.11-.386-.169a7.56,7.56,0,0,1-.75-.39c-.485-.289-.934-.632-1.389-.955-.228-.166-.457-.324-.693-.469l-.178-.107-.185-.1c-.118-.064-.244-.126-.371-.185-.249-.115-.5-.222-.762-.321s-.516-.185-.781-.272-.529-.161-.8-.241-.533-.158-.8-.236-.533-.161-.8-.249l-.4-.122-.4-.126c-.13-.044-.264-.088-.4-.131l-.2-.063-.2-.064c-.268-.091-.533-.177-.8-.272l.008-.036c.281.036.557.08.833.131.139.024.276.047.414.075s.273.055.41.086.273.059.41.091l.407.1c.272.063.544.138.813.213.54.155,1.073.327,1.6.525.265.1.529.2.785.327.126.063.252.126.375.2s.244.142.366.217c.241.147.474.3.707.462s.457.324.69.474a12.585,12.585,0,0,0,1.468.789l.742.367c.248.122.5.241.754.355l.185.088.193.086c.126.059.252.115.379.169l.383.169c.126.059.256.115.383.174Z" transform="translate(-0.128 -12.682)" fill="#007f0a"/><path d="M.68,13.8a5.017,5.017,0,0,1,.995.155,3.4,3.4,0,0,1,.481.158.853.853,0,0,1,.118.047c.04.02.08.035.119.056l.114.059c.04.019.075.043.115.063a2.3,2.3,0,0,1,.762.723c.024.035.047.074.07.114l.059.118a2.06,2.06,0,0,1,.1.249c.051.166.091.324.139.473a3.426,3.426,0,0,0,.173.442c.016.04.035.075.051.11s.04.072.056.107c.04.072.08.142.123.213a3.651,3.651,0,0,0,.966,1.089,2.743,2.743,0,0,0,.414.253,3.157,3.157,0,0,0,.939.248c.324.048.651.072.979.1l.987.1c.331.032.658.059.987.091s.658.056.99.091c.161.019.331.04.5.067.083.011.166.027.249.04s.165.031.249.051c.165.035.326.078.489.122s.323.1.481.147a9.387,9.387,0,0,1,1.819.829l-.016.031c-.311-.114-.623-.221-.934-.323l-.238-.072c-.078-.024-.157-.047-.236-.067-.158-.047-.315-.086-.473-.126s-.319-.075-.477-.107-.319-.067-.482-.09c-.319-.056-.639-.088-.966-.118-.659-.06-1.317-.139-1.977-.23s-1.31-.189-1.964-.343c-.163-.039-.324-.083-.485-.138l-.118-.04-.118-.048-.119-.051-.114-.059a4.1,4.1,0,0,1-.809-.6,6.138,6.138,0,0,1-.682-.741c-.051-.067-.1-.134-.15-.206a1.191,1.191,0,0,1-.067-.107L3.7,16.574a3.482,3.482,0,0,1-.228-.462c-.067-.163-.11-.324-.161-.474a2.089,2.089,0,0,0-.193-.414,2.031,2.031,0,0,0-.289-.359,2.325,2.325,0,0,0-.358-.3,4.027,4.027,0,0,0-.853-.439,9.213,9.213,0,0,0-.939-.3Z" transform="translate(-0.053 -12.878)" fill="#007f0a"/><path d="M1.127,14.4c.379.2.754.406,1.136.588.19.091.383.177.58.257.1.039.193.078.292.114l.3.11c.1.04.2.08.3.123a2.744,2.744,0,0,1,.3.161,3.705,3.705,0,0,1,.529.4c.163.15.308.316.45.474s.3.307.454.454L5.42,17.06l.032.011c.011,0,.023.016.019.016l.011.008.02.016.039.035.08.063c.055.044.11.088.166.131.11.083.224.161.339.241.233.153.469.3.7.449.118.072.236.147.355.217.059.032.118.072.177.1s.118.067.178.1.122.064.182.091.125.059.184.086l.19.083.19.075c.252.1.513.185.773.265.13.035.26.078.394.11l.2.048.2.047c.134.036.273.051.406.083s.273.043.41.072l.206.027.209.032c.138.019.276.035.418.059l0,.035a7.361,7.361,0,0,1-1.7-.008c-.07-.011-.142-.019-.209-.027l-.214-.035c-.142-.024-.28-.056-.418-.088a5.788,5.788,0,0,1-.82-.264l-.2-.083-.194-.1c-.13-.063-.256-.13-.379-.2-.063-.035-.126-.075-.185-.115l-.177-.118c-.059-.039-.118-.078-.174-.118s-.118-.083-.173-.126c-.23-.169-.447-.351-.656-.537-.106-.094-.209-.19-.315-.288l-.155-.142-.075-.075L5.42,17.2l-.02-.02-.007-.008c-.008,0,0,0,.007,0a.021.021,0,0,0,.02,0l-.04-.016L4.93,16.7c-.078-.078-.153-.15-.232-.221a2.768,2.768,0,0,0-.249-.193,3.892,3.892,0,0,0-.544-.3,6.02,6.02,0,0,0-.584-.217c-.1-.036-.2-.075-.3-.115-.051-.019-.1-.043-.15-.064s-.1-.043-.15-.067a6.1,6.1,0,0,1-.575-.311,5.789,5.789,0,0,1-1.034-.784Z" transform="translate(0.006 -12.795)" fill="#007f0a"/><path d="M2.43,12.988c.11.236.225.473.351.7s.26.446.406.655a6.478,6.478,0,0,0,.477.6,7.07,7.07,0,0,0,.544.533,5.776,5.776,0,0,0,.608.469c.055.032.11.067.166.1l.169.094c.059.032.118.059.177.086s.118.051.177.075a7.738,7.738,0,0,0,1.515.394l.778.134c.063.013.13.024.193.035l.193.032c.126.024.257.043.386.064l.778.114c.26.04.521.083.781.142a6.283,6.283,0,0,1,.778.225l.185.072.189.075.091.043.091.043.182.086a6.993,6.993,0,0,1,.687.407,5.9,5.9,0,0,1,.635.485l-.019.027a13.284,13.284,0,0,0-1.421-.663l-.182-.067-.086-.032-.1-.032c-.059-.019-.118-.043-.181-.063l-.185-.056c-.246-.067-.493-.126-.746-.177s-.509-.094-.766-.146L8.9,17.367c-.13-.027-.26-.051-.39-.078s-.261-.056-.388-.088-.26-.059-.386-.1-.252-.072-.379-.107l-.379-.115c-.5-.158-1.011-.307-1.511-.477-.249-.086-.5-.181-.746-.291-.059-.028-.119-.06-.182-.091-.027-.016-.059-.032-.091-.048l-.086-.048c-.059-.035-.118-.07-.174-.106l-.083-.059-.043-.028-.04-.031a3.474,3.474,0,0,1-.6-.552,4.609,4.609,0,0,1-.821-1.386A4.3,4.3,0,0,1,2.395,13Z" transform="translate(0.182 -12.988)" fill="#007f0a"/><path d="M7.681,14.674c.08.107.147.214.217.321s.134.213.2.319l.193.319c.067.107.13.213.185.323a4.687,4.687,0,0,0,.371.659c.035.051.08.1.118.146a.9.9,0,0,1,.064.072.933.933,0,0,0,.067.067,3.326,3.326,0,0,0,.292.244l.15.115.153.107.3.221c.206.138.415.268.62.406l.627.4.163.1.161.1c.106.072.213.134.323.209l-.011.036a2.608,2.608,0,0,1-.386-.075l-.1-.024-.09-.027c-.064-.02-.127-.04-.186-.064a4.312,4.312,0,0,1-.706-.335,4.411,4.411,0,0,1-.626-.466,3.764,3.764,0,0,1-.538-.564c-.083-.1-.158-.209-.24-.3-.044-.048-.083-.1-.123-.15l-.131-.142c-.169-.193-.366-.367-.529-.572a2.179,2.179,0,0,1-.213-.327,2.91,2.91,0,0,1-.166-.351,3.779,3.779,0,0,1-.126-.367,2.484,2.484,0,0,1-.07-.386Z" transform="translate(0.9 -12.757)" fill="#007f0a"/><path d="M10.312,18.57a1.841,1.841,0,0,1-.364-.023,2.907,2.907,0,0,1-.355-.08c-.115-.035-.228-.075-.34-.122a2.105,2.105,0,0,1-.319-.171c-.2-.13-.374-.307-.564-.449s-.379-.281-.576-.423a3.2,3.2,0,0,1-.288-.224,2.609,2.609,0,0,1-.252-.261,3.135,3.135,0,0,1-.423-.6,3.344,3.344,0,0,1-.252-.687,3.032,3.032,0,0,1-.059-.359,2.328,2.328,0,0,1-.008-.367l.036,0c.055.107.1.217.149.319s.1.213.15.316c.1.2.209.4.324.6s.221.39.351.575c.063.1.131.182.2.276a.653.653,0,0,0,.052.067l.05.072.108.138a2.1,2.1,0,0,0,.508.469,3.541,3.541,0,0,0,.639.281c.107.043.209.091.313.142l.307.153c.206.1.415.206.623.327Z" transform="translate(0.744 -12.74)" fill="#007f0a"/><path d="M14.159,18.739a6.221,6.221,0,0,1-1.341.275c-.228.024-.458.036-.687.04a5.011,5.011,0,0,1-.69-.035,5.847,5.847,0,0,1-.679-.118c-.222-.048-.447-.1-.667-.155s-.442-.11-.663-.169c-.051-.016-.11-.027-.161-.043l-.166-.048c-.11-.035-.222-.063-.332-.1-.051-.016-.106-.035-.161-.051l-.161-.063c-.111-.04-.214-.088-.319-.135a5.968,5.968,0,0,1-1.192-.709,4.259,4.259,0,0,1-.521-.469,4.817,4.817,0,0,1-.8-1.14,4.538,4.538,0,0,1-.442-1.3l.036-.011c.094.2.2.406.3.6.056.1.11.193.166.288.027.048.059.1.091.142s.059.1.09.139a6.022,6.022,0,0,0,.394.529c.139.169.284.331.439.489a6.941,6.941,0,0,0,1.006.84c.185.123.375.238.568.351s.382.225.583.319a4.794,4.794,0,0,0,1.271.431,8.063,8.063,0,0,0,1.341.091l.671.011c.221,0,.446,0,.671,0s.446-.008.671-.011.45-.016.679-.02Z" transform="translate(0.561 -12.781)" fill="#007f0a"/><path d="M13.859,18.21a9.064,9.064,0,0,1-1.5.612,6.946,6.946,0,0,1-1.6.327,6.8,6.8,0,0,1-1.63-.1l-.1-.02-.1-.019-.2-.043c-.063-.02-.13-.04-.193-.059a.65.65,0,0,1-.1-.028l-.1-.035a3.382,3.382,0,0,1-.379-.153L7.771,18.6c-.031-.016-.059-.036-.09-.052l-.088-.055a2.418,2.418,0,0,1-.335-.252c-.055-.048-.1-.1-.153-.142l-.142-.15c-.185-.2-.359-.407-.533-.612l-.521-.612c-.173-.206-.347-.41-.516-.62-.675-.832-1.346-1.669-1.953-2.564l.027-.024c.2.185.386.375.576.568.1.094.189.19.283.288s.186.193.281.292l.276.3.272.3q.273.295.533.6c.174.209.343.414.509.627s.331.422.5.634l.489.64c.08.1.163.209.244.3a2.731,2.731,0,0,0,.281.268l.075.059c.027.019.051.04.078.059l.166.107.174.094.043.024.043.019.091.036.091.039a.767.767,0,0,0,.094.032l.19.059c.067.016.13.027.2.04l.1.019a.729.729,0,0,0,.1.016c.067.008.134.011.2.019.016,0,.035,0,.051,0h.048l.1,0h.2c.068,0,.134-.008.2-.016l.2-.011.2-.027.2-.024.2-.035c1.046-.15,2.071-.423,3.12-.675Z" transform="translate(0.325 -12.916)" fill="#007f0a"/><path d="M10.652,19.967a2.163,2.163,0,0,1-.264.027c-.086.008-.171.008-.257.011H9.882c-.043,0-.082,0-.126,0-.019,0-.039,0-.063,0s-.04,0-.059-.008a2.6,2.6,0,0,0-.513-.059,1.074,1.074,0,0,0-.249.04c-.043.013-.083.024-.123.04s-.078.032-.118.048c-.078.035-.158.074-.233.11s-.153.067-.228.1c-.153.067-.3.145-.45.213s-.3.134-.457.2-.315.134-.485.193l-.024-.027a1.822,1.822,0,0,1,.356-.406,2.365,2.365,0,0,1,.441-.3,1.881,1.881,0,0,1,.249-.11c.083-.027.169-.055.256-.078s.174-.043.261-.059a1.348,1.348,0,0,1,.134-.016,1.307,1.307,0,0,1,.134-.008c.043,0,.09,0,.134-.008s.086,0,.13-.008c.086-.011.174-.019.26-.035.169-.032.343-.1.522-.126a1.167,1.167,0,0,1,.267,0,2.1,2.1,0,0,1,.265.04,1.552,1.552,0,0,1,.5.2Z" transform="translate(0.778 -12.073)" fill="#007f0a"/><path d="M11.759,19.235c-.08,0-.158,0-.236-.008s-.163-.011-.238-.016-.157-.011-.236-.019l-.233-.024c-.157-.016-.311-.032-.465-.051s-.311-.035-.466-.064a9.342,9.342,0,0,0-.931-.15,3.805,3.805,0,0,0-.469,0c-.078.008-.158.011-.236.019s-.153.02-.233.032c-.153.024-.307.051-.462.08-.04.008-.075.015-.115.019l-.114.024-.115.019-.11.024c-.035.008-.075.016-.11.027l-.11.028c-.075.015-.147.043-.217.063a4.271,4.271,0,0,0-.41.158,1.252,1.252,0,0,0-.185.1,2.156,2.156,0,0,0-.178.122,3.439,3.439,0,0,0-.335.3c-.1.106-.2.224-.3.343s-.182.252-.268.386l-.036-.013a2.352,2.352,0,0,1,.147-.465,2.286,2.286,0,0,1,.24-.431,2.186,2.186,0,0,1,.329-.382c.059-.056.122-.11.193-.166a2.33,2.33,0,0,1,.224-.134,2.448,2.448,0,0,1,.477-.177c.08-.016.158-.04.241-.051l.119-.02c.042-.008.082-.011.122-.016l.122-.016.119-.011.122-.011h.123l.118,0a1.077,1.077,0,0,1,.122,0c.08,0,.158,0,.241.008.158.011.316.019.477.027s.316.008.474.008c.315,0,.634-.04.958-.032a3.928,3.928,0,0,1,.474.043c.078.013.158.028.236.04s.158.035.233.051l.232.059.23.072c.075.023.15.051.224.078s.15.064.226.1Z" transform="translate(0.531 -12.201)" fill="#007f0a"/><path d="M11.623,20.671c-.391-.177-.762-.371-1.141-.556l-.564-.276c-.185-.088-.375-.182-.56-.276s-.371-.2-.556-.292-.383-.185-.576-.26a5.449,5.449,0,0,0-.6-.2c-.2-.055-.409-.1-.615-.134s-.418-.063-.623-.09-.415-.052-.62-.075-.415-.036-.624-.048-.414-.019-.623-.027-.414-.016-.623-.02l-.316,0c-.1,0-.209,0-.311,0l-.316,0-.316,0c-.213,0-.422,0-.634,0L2,18.379a8.035,8.035,0,0,1,1.254-.253c.107-.011.214-.023.321-.031s.213-.02.319-.024c.213-.016.426-.019.642-.016s.426.016.64.035.426.051.639.088.422.075.631.126c.1.027.206.055.308.086s.2.064.308.1c.2.067.4.138.6.209s.4.138.6.2c.4.134.821.236,1.22.39a5.088,5.088,0,0,1,.583.265c.19.1.376.2.557.316a7.191,7.191,0,0,1,1.022.768Z" transform="translate(0.127 -12.295)" fill="#007f0a"/><path d="M13.947,19.152a9.765,9.765,0,0,1-1.543.15c-.126,0-.257,0-.386,0s-.261-.008-.388-.016-.26-.02-.386-.032c-.067,0-.13-.016-.193-.024s-.13-.019-.193-.027a13.982,13.982,0,0,1-1.507-.379c-.059-.02-.122-.036-.185-.056s-.122-.035-.185-.055c-.123-.032-.244-.075-.367-.111s-.248-.078-.371-.122S8,18.4,7.879,18.363c-.246-.072-.49-.134-.738-.193L6.4,17.988l-.746-.177c-.249-.056-.5-.123-.741-.182a6.941,6.941,0,0,0-.73-.142,3.854,3.854,0,0,0-.734-.016c-.059,0-.123.013-.182.02s-.122.015-.185.027c-.118.024-.241.051-.363.083a4.59,4.59,0,0,0-.706.272l-.02-.032a3.176,3.176,0,0,1,1.421-.65c.067-.013.13-.024.2-.032s.134-.011.2-.019c.133,0,.267-.008.4,0,.067,0,.134.011.2.016s.134.015.2.027c.13.016.26.043.386.07.257.059.5.126.749.193s.493.139.738.214.5.146.738.233c.123.043.246.086.367.134l.356.153c.24.107.465.217.706.308.059.024.118.043.177.063l.091.032.091.027c.063.02.122.036.185.056s.122.032.185.043a3.775,3.775,0,0,0,.375.075c.126.019.252.04.379.056l.379.035.379.027c.126.008.252.024.379.032l.38.035c.126.008.252.016.382.027l.38.024c.508.032,1.017.051,1.53.091Z" transform="translate(0.127 -12.421)" fill="#007f0a"/><path d="M11.515,22.066c-.213-.171-.418-.356-.612-.541s-.39-.386-.576-.584-.366-.4-.54-.615-.343-.422-.5-.647-.3-.458-.438-.695-.268-.477-.41-.7a2.2,2.2,0,0,0-.241-.319l-.067-.07-.075-.072c-.047-.043-.1-.086-.15-.13s-.106-.08-.161-.119-.11-.075-.166-.11c-.114-.07-.228-.138-.347-.2-.059-.028-.118-.059-.182-.088l-.091-.039-.09-.04-.1-.035-.091-.036c-.063-.023-.126-.043-.189-.063a6.585,6.585,0,0,0-.762-.214,6.765,6.765,0,0,0-.785-.11,7.277,7.277,0,0,0-.789-.031c-.264,0-.524.015-.789.039l-.2.024c-.063.008-.13.016-.2.027-.131.02-.26.044-.391.072a7.6,7.6,0,0,0-1.519.509l-.019-.032a4.683,4.683,0,0,1,.7-.434,4.074,4.074,0,0,1,.379-.174c.064-.027.126-.051.193-.075s.131-.047.2-.067l.2-.059c.067-.019.134-.035.206-.051s.134-.032.2-.047l.2-.036a6.008,6.008,0,0,1,.833-.078,5.232,5.232,0,0,1,.832.04,6.34,6.34,0,0,1,.821.157A5.148,5.148,0,0,1,6.6,16.7a3.859,3.859,0,0,1,.371.182l.091.051.09.055c.06.036.119.072.178.11a6.837,6.837,0,0,1,.655.506,3.935,3.935,0,0,1,.292.292,3.25,3.25,0,0,1,.256.323c.155.228.311.446.477.659.043.055.088.106.131.158s.083.106.126.157l.13.155.131.153.509.627.5.635c.166.209.335.422.5.635s.335.425.5.647Z" transform="translate(-0.003 -12.546)" fill="#007f0a"/><path d="M12.236,20.678c-.146-.04-.288-.088-.426-.134s-.28-.1-.418-.147c-.07-.023-.138-.051-.2-.075s-.139-.051-.206-.078-.138-.051-.2-.078c-.035-.013-.067-.028-.1-.044l-.1-.043a6.683,6.683,0,0,0-.817-.339,2.576,2.576,0,0,0-.43-.091c-.07-.008-.146-.019-.217-.024s-.15,0-.221,0c-.035,0-.075,0-.11,0l-.111,0a1.917,1.917,0,0,0-.213.011c-.075,0-.146.011-.217.011l-.213.024a3.7,3.7,0,0,0-.813.19,3.553,3.553,0,0,0-.75.367c-.118.078-.232.165-.347.252s-.222.193-.332.3l-.027-.024a2.434,2.434,0,0,1,1.322-1.25A2.57,2.57,0,0,1,8,19.336c.075,0,.15,0,.228,0s.155.008.23.016a1.4,1.4,0,0,1,.224.031l.115.02a.933.933,0,0,1,.11.019c.075.019.15.035.222.051l.055.013.056.015c.035.008.07.02.11.028.146.032.288.067.438.094l.107.024.11.019.225.035.221.044c.075.016.15.031.222.051s.146.043.217.067.138.051.208.083.139.059.206.09.134.068.2.1a3.971,3.971,0,0,1,.749.5Z" transform="translate(0.642 -12.12)" fill="#007f0a"/><path d="M11.041,21.963c-.051.008-.1.011-.153.016s-.1.007-.155.007-.1,0-.153-.007-.1-.013-.15-.02a3.578,3.578,0,0,1-.3-.07c-.051-.016-.1-.032-.145-.051a.558.558,0,0,1-.07-.032c-.024-.013-.048-.024-.067-.035a4,4,0,0,1-.493-.383c-.158-.126-.313-.252-.466-.4a1.678,1.678,0,0,1-.2-.244c-.059-.083-.111-.169-.158-.248a.67.67,0,0,0-.147-.171l-.008-.008H8.363l-.013-.008-.008,0H8.331a.141.141,0,0,0-.056,0,.574.574,0,0,0-.182.111,1.634,1.634,0,0,0-.2.185c-.131.134-.26.284-.407.43l-.031-.016a2.051,2.051,0,0,1,.209-.58,1.171,1.171,0,0,1,.181-.268,1.065,1.065,0,0,1,.131-.126.74.74,0,0,1,.177-.1.466.466,0,0,1,.236-.019.412.412,0,0,1,.217.106.581.581,0,0,1,.131.15c.031.051.055.1.078.15.044.1.083.185.115.276.019.043.035.088.051.131l.059.13a1.176,1.176,0,0,0,.158.236.581.581,0,0,0,.051.056c.016.016.032.032.051.048l.056.043a.305.305,0,0,0,.063.043,2.019,2.019,0,0,0,.541.2c.043.011.09.027.134.043s.09.032.134.051l.134.048.067.027.067.024c.043.016.09.035.134.055s.091.036.138.056a2.322,2.322,0,0,1,.276.13Z" transform="translate(0.874 -12.04)" fill="#007f0a"/><path d="M13.7,17.237a2.574,2.574,0,0,1-.418.138,3.279,3.279,0,0,1-.439.075,4.1,4.1,0,0,1-.441.024,2.789,2.789,0,0,1-.447-.04l-.106-.023c-.035-.008-.072-.016-.11-.028l-.209-.059c-.142-.043-.284-.083-.423-.118-.284-.075-.568-.13-.856-.2l-.107-.023c-.035-.013-.075-.02-.11-.032l-.107-.032-.106-.035a2.954,2.954,0,0,1-.41-.19,2.889,2.889,0,0,1-.383-.252c-.032-.027-.063-.047-.091-.075l-.082-.083a1.467,1.467,0,0,1-.158-.177,1.7,1.7,0,0,1-.335-.88,1.792,1.792,0,0,1,.027-.462,1.73,1.73,0,0,1,.146-.422l.032.008a4.151,4.151,0,0,0,.008.43,2.253,2.253,0,0,0,.067.4A1.785,1.785,0,0,0,9,15.872a2.135,2.135,0,0,0,.272.284,2.771,2.771,0,0,0,.316.252c.115.075.233.146.355.217s.246.138.375.2a2.734,2.734,0,0,0,.813.268,2.579,2.579,0,0,0,.43.036c.072,0,.142,0,.214,0l.213,0c.143,0,.284.011.423.019s.28.011.422.019l.426.013c.146,0,.288,0,.438.016Z" transform="translate(0.998 -12.802)" fill="#007f0a"/><path d="M12.643,16.666a2.161,2.161,0,0,1-.291.311,3.059,3.059,0,0,1-.34.252,2.918,2.918,0,0,1-.379.206,2.157,2.157,0,0,1-.4.138c-.276.059-.56.08-.837.115-.138.019-.276.04-.414.055s-.28.032-.426.04a2.052,2.052,0,0,1-.439-.027,1.539,1.539,0,0,1-.425-.139,1.784,1.784,0,0,1-.383-.24A1.881,1.881,0,0,1,8,17.057a3.028,3.028,0,0,1-.415-.754,3.119,3.119,0,0,1-.126-.41,1.933,1.933,0,0,1-.059-.418l.035-.013c.064.126.127.249.194.367s.138.233.208.343a5.778,5.778,0,0,0,.463.643,2.212,2.212,0,0,0,.551.5,2.637,2.637,0,0,0,.343.161,3.168,3.168,0,0,0,.38.107,1.922,1.922,0,0,0,.8-.008,5.412,5.412,0,0,0,.765-.289c.123-.051.244-.1.371-.15s.244-.1.367-.153.244-.11.367-.169.244-.118.375-.177Z" transform="translate(0.866 -12.65)" fill="#007f0a"/><path d="M14.363,18.6a2.987,2.987,0,0,1-.28.283c-.1.088-.2.174-.308.253a5.037,5.037,0,0,1-.674.433,4.465,4.465,0,0,1-.734.327,3.778,3.778,0,0,1-.785.193,3.437,3.437,0,0,1-.4.036c-.067,0-.134,0-.2,0a.779.779,0,0,1-.1,0l-.1,0a5.922,5.922,0,0,1-.792-.1,6.094,6.094,0,0,1-1.512-.509c-.118-.059-.236-.126-.351-.2-.059-.032-.114-.07-.169-.106l-.083-.06-.083-.059a4.834,4.834,0,0,1-.6-.544,5.236,5.236,0,0,1-.5-.634,4.755,4.755,0,0,1-.394-.71,4.813,4.813,0,0,1-.268-.765c-.016-.064-.036-.131-.051-.2l-.04-.2c-.024-.131-.044-.265-.059-.4a4.878,4.878,0,0,1,.09-1.59l.036,0c0,.264.011.524.035.781l.024.193.027.19c.008.063.019.126.032.189l.016.094a.711.711,0,0,1,.019.1,6.532,6.532,0,0,0,.485,1.44,5.986,5.986,0,0,0,.808,1.282,5.865,5.865,0,0,0,.53.548l.07.064.07.063.075.059c.024.024.048.04.075.064.1.078.2.153.308.225A3.549,3.549,0,0,0,10,19.9a3.285,3.285,0,0,0,.77.019l.094-.008.1-.011c.063-.013.126-.016.189-.027s.127-.02.186-.036l.19-.039a8.424,8.424,0,0,0,2.808-1.228Z" transform="translate(0.653 -12.843)" fill="#007f0a"/><path d="M12.255,16.5c-.321.233-.648.442-.975.651l-.489.315c-.163.1-.327.206-.5.3-.082.047-.168.094-.256.142-.043.023-.094.043-.142.067a.438.438,0,0,1-.072.031l-.07.028a3.142,3.142,0,0,1-.592.142c-.2.027-.394.039-.591.047H8.12c-.047,0-.1,0-.146-.008s-.1,0-.15-.008-.1,0-.15-.007l-.147-.013-.15-.016c-.193-.019-.386-.051-.58-.078a5.351,5.351,0,0,0-1.116-.059,1.53,1.53,0,0,0-.5.122,1.185,1.185,0,0,0-.406.308,1.5,1.5,0,0,0-.15.221,1.469,1.469,0,0,0-.118.253,3.48,3.48,0,0,0-.166.551H4.305a2.2,2.2,0,0,1,.024-.6c0-.023.008-.047.015-.075a.572.572,0,0,1,.016-.074,1.209,1.209,0,0,1,.048-.15,1.393,1.393,0,0,1,.138-.284,1.343,1.343,0,0,1,.206-.257c.043-.035.088-.07.126-.107l.142-.094a1.684,1.684,0,0,1,.623-.193,2.682,2.682,0,0,1,.62.008,5.691,5.691,0,0,1,.592.1c.193.04.386.08.576.126l.284.072c.047.011.094.019.141.032s.1.019.142.031a3.491,3.491,0,0,0,.573.08,2.282,2.282,0,0,0,.572-.04,1.772,1.772,0,0,0,.529-.209l.059-.035c.019-.013.04-.027.056-.04A1.163,1.163,0,0,0,9.9,17.7c.075-.059.15-.122.23-.181a5.181,5.181,0,0,1,.5-.324c.171-.1.343-.2.517-.284a6.9,6.9,0,0,1,1.1-.446Z" transform="translate(0.442 -12.513)" fill="#007f0a"/><path d="M12.254,21.871c-.23-.134-.45-.28-.671-.425-.111-.075-.222-.147-.329-.222s-.221-.15-.327-.225l-.323-.228-.324-.228c-.213-.155-.426-.311-.635-.474-.414-.323-.821-.666-1.258-.963a9.8,9.8,0,0,0-1.377-.773c-.064-.027-.123-.056-.182-.078l-.181-.083c-.064-.028-.123-.059-.186-.088s-.118-.063-.177-.1a6.524,6.524,0,0,1-.679-.439c-.217-.157-.43-.327-.631-.5a6.672,6.672,0,0,1-.576-.572A4.111,4.111,0,0,1,3.91,15.8a2.089,2.089,0,0,1-.177-.39,2.185,2.185,0,0,1-.088-.423,1.863,1.863,0,0,1,.013-.422,1.841,1.841,0,0,1,.094-.407,2.219,2.219,0,0,1,.394-.706l.027.02a2.824,2.824,0,0,0-.244.733,2.022,2.022,0,0,0-.035.375,2.223,2.223,0,0,0,.032.371,1.861,1.861,0,0,0,.106.348,2.3,2.3,0,0,0,.174.319,5.15,5.15,0,0,0,.477.591c.177.19.359.372.544.552s.383.348.584.513.41.316.627.462c.051.04.107.075.161.111s.107.07.161.1l.169.1c.056.032.115.067.171.1.454.284.9.573,1.349.849s.923.529,1.369.816c.11.075.221.146.332.225s.213.153.319.236c.213.158.422.319.627.489.1.083.2.171.3.257s.2.174.3.265c.2.173.39.358.575.548Z" transform="translate(0.352 -12.924)" fill="#007f0a"/><path d="M1.772,13.324a1.973,1.973,0,0,1,.4.2c.067.043.126.091.185.138a1.351,1.351,0,0,1,.163.171,1.133,1.133,0,0,1,.224.425,1.258,1.258,0,0,1,.04.485,2.956,2.956,0,0,0-.047.415.91.91,0,0,0,.106.351,1.978,1.978,0,0,0,.233.323c.091.107.19.206.292.3a7.062,7.062,0,0,0,.666.548,6.5,6.5,0,0,0,.738.465c.131.068.26.135.394.194s.268.118.407.173l.2.083.2.083.415.153c.276.1.552.2.829.3.138.051.272.106.41.157l.41.163.821.319c.272.1.544.213.816.324s.541.224.813.342l.4.174.406.174c.135.059.269.123.4.182s.268.118.4.181c.268.123.532.249.8.379l-.013.036c-.284-.075-.567-.158-.851-.246-.139-.039-.281-.082-.423-.13s-.28-.091-.418-.139l-.418-.141-.414-.147c-.142-.051-.281-.1-.415-.153s-.275-.1-.414-.158c-.272-.107-.548-.217-.816-.332s-.541-.232-.809-.355-.54-.236-.8-.363l-.2-.1-.2-.1-.4-.2c-.264-.134-.524-.264-.792-.391-.131-.063-.265-.126-.4-.185l-.4-.189c-.264-.131-.532-.257-.792-.4-.131-.072-.26-.147-.388-.225s-.251-.169-.369-.265a2.44,2.44,0,0,1-.336-.315,1.756,1.756,0,0,1-.276-.391,1.088,1.088,0,0,1-.126-.493.709.709,0,0,1,.008-.13l.024-.118c.016-.072.032-.142.043-.209a1.221,1.221,0,0,0,0-.391,1.71,1.71,0,0,0-.056-.19,1.17,1.17,0,0,0-.091-.181,2.047,2.047,0,0,0-.612-.584Z" transform="translate(0.095 -12.942)" fill="#007f0a"/></g><path d="M25.747,24.585a3.121,3.121,0,0,0-2.466-1.456A2.541,2.541,0,0,1,26.13,22.6a3.134,3.134,0,0,0-2.718-.911,2.534,2.534,0,0,1,2.678-1.1,3.117,3.117,0,0,0-2.844-.327,2.54,2.54,0,0,1,2.391-1.637,3.128,3.128,0,0,0-2.852.272,2.533,2.533,0,0,1,2-2.095,3.126,3.126,0,0,0-2.734.856,2.531,2.531,0,0,1,1.519-2.466A3.122,3.122,0,0,0,21.076,16.6a2.53,2.53,0,0,1,.971-2.726A3.112,3.112,0,0,0,19.9,15.771a2.536,2.536,0,0,1,.382-2.872,3.121,3.121,0,0,0-1.7,2.3,2.534,2.534,0,0,1-.221-2.888,3.121,3.121,0,0,0-1.192,2.6,2.534,2.534,0,0,1-.816-2.777,3.114,3.114,0,0,0-.623,2.793,2.537,2.537,0,0,1-1.378-2.549,3.124,3.124,0,0,0-.027,2.868,2.542,2.542,0,0,1-1.878-2.209,3.13,3.13,0,0,0,.568,2.809,2.532,2.532,0,0,1-2.293-1.768,3.127,3.127,0,0,0,1.14,2.627,2.532,2.532,0,0,1-2.612-1.254,3.119,3.119,0,0,0,1.662,2.335,2.538,2.538,0,0,1-2.817-.682,3.116,3.116,0,0,0,2.11,1.937,2.534,2.534,0,0,1-2.9-.083,3.112,3.112,0,0,0,2.466,1.456,2.532,2.532,0,0,1-2.847.525,3.127,3.127,0,0,0,2.713.911,2.528,2.528,0,0,1-2.675,1.1,3.118,3.118,0,0,0,2.844.327,2.534,2.534,0,0,1-2.391,1.637,3.128,3.128,0,0,0,2.852-.272,2.539,2.539,0,0,1-2,2.1A3.134,3.134,0,0,0,11,25.89a2.54,2.54,0,0,1-1.519,2.467,3.122,3.122,0,0,0,2.493-1.408,2.533,2.533,0,0,1-.971,2.729,3.129,3.129,0,0,0,2.147-1.9,2.541,2.541,0,0,1-.383,2.872,3.12,3.12,0,0,0,1.7-2.3A2.534,2.534,0,0,1,14.7,31.24a3.125,3.125,0,0,0,1.191-2.608,2.541,2.541,0,0,1,.816,2.782,3.124,3.124,0,0,0,.624-2.8A2.537,2.537,0,0,1,18.7,31.165a3.115,3.115,0,0,0,.027-2.865,2.536,2.536,0,0,1,1.878,2.205,3.128,3.128,0,0,0-.567-2.809,2.542,2.542,0,0,1,2.292,1.771,3.135,3.135,0,0,0-1.14-2.632,2.543,2.543,0,0,1,2.612,1.255,3.129,3.129,0,0,0-1.662-2.336,2.541,2.541,0,0,1,2.818.683A3.129,3.129,0,0,0,22.852,24.5,2.535,2.535,0,0,1,25.747,24.585Z" transform="translate(0.801 -12.141)" fill="#fbdc1d"/></g></g></g></svg>