<svg xmlns="http://www.w3.org/2000/svg" width="35.153" height="35.153" viewBox="0 0 35.153 35.153"><g transform="translate(0 0)"><path d="M31.516,6.885a17.556,17.556,0,0,0-27.881,0c-.217.283-.431.575-.632.879s-.394.6-.575.908c-.123.2-.236.414-.351.623-.056.1-.111.209-.166.311-.139.281-.272.56-.4.845-.106.236-.2.474-.3.71A18.721,18.721,0,0,0,.525,13.3c-.059.236-.115.473-.163.71a17.1,17.1,0,0,0-.272,1.755c-.043.4-.067.817-.08,1.231-.008.19-.011.386-.011.58a17.571,17.571,0,0,0,31.516,10.7,17.538,17.538,0,0,0,0-21.387Z" fill="#032774"/><g transform="translate(0 6.885)"><path d="M3.583,12.325.08,14.08a17.1,17.1,0,0,1,.272-1.755Z" transform="translate(0.011 -5.199)" fill="#032774"/><path d="M7.4,6.057V9.315L2.641,6.936c.2-.3.415-.6.632-.879Z" transform="translate(0.361 -6.056)" fill="#032774"/><path d="M3.413,9.3H1.329c.127-.284.26-.564.4-.845Z" transform="translate(0.182 -5.729)" fill="#032774"/><path d="M18.369,9.48V7.1L13.619,9.48Z" transform="translate(1.862 -5.914)" fill="#032774"/><path d="M16.471,6.057H9.958V9.315Z" transform="translate(1.361 -6.057)" fill="#032774"/><path d="M18.369,14.7V12.325h-4.75Z" transform="translate(1.862 -5.2)" fill="#032774"/><path d="M1.1,15.854H7.61V12.6Z" transform="translate(0.15 -5.162)" fill="#032774"/><path d="M9.958,15.854h6.514L9.958,12.6Z" transform="translate(1.361 -5.162)" fill="#032774"/><path d="M20.23,7.244,15.48,9.623h4.75v3.559H15.48l4.75,2.375v.4l-5.551-2.777h-1.6l7.13,3.566H17.832l-6.513-3.259v3.259H7.759V13.489L1.246,16.748h-.8l7.125-3.566h-1.6L.01,16.168c.013-.414.036-.829.08-1.231l3.5-1.755H.361c.048-.238.1-.474.163-.71a18.721,18.721,0,0,1,.682-2.138c.1-.236.2-.474.3-.71H3.593L1.908,8.778c.055-.1.11-.209.166-.311L4.386,9.623h1.6L2.426,7.844c.181-.311.374-.616.575-.908L7.759,9.315V6.057h3.559V9.315l6.513-3.258h.793L11.5,9.623h1.6l7.125-3.566h.011Z" transform="translate(0.001 -6.056)" fill="#fff"/><path d="M5.735,9.408h-1.6L1.826,8.252c.115-.209.228-.418.351-.623Z" transform="translate(0.25 -5.842)" fill="#df0333"/><path d="M11.509,12.325l7.129,3.567h.02V15.1l-5.551-2.777Z" transform="translate(1.574 -5.2)" fill="#df0333"/><path d="M10.114,9.623h1.6l7.126-3.567h-1.6Z" transform="translate(1.383 -6.057)" fill="#df0333"/><path d="M7.571,12.325.446,15.891H0c0-.193,0-.39.011-.58l5.962-2.986Z" transform="translate(0 -5.199)" fill="#df0333"/><path d="M20.168,10.333v2.138H10.546v4.276H8.408V12.472H.462a18.721,18.721,0,0,1,.682-2.138H8.408V6.057h2.138v4.276Z" transform="translate(0.063 -6.056)" fill="#df0333"/></g><g transform="translate(20.74 9.264)"><path d="M24.535,8.149l.284.88h.927L25,9.574l.284.88-.746-.544-.75.544.284-.88-.75-.544h.927Z" transform="translate(-17.552 -8.149)" fill="#fff"/><path d="M21.966,8.684l.619.686.844-.379-.462.8.619.686-.9-.193-.466.8-.095-.919-.907-.193.848-.375Z" transform="translate(-17.84 -8.076)" fill="#fff"/><path d="M19.82,10.228l.844.379.619-.69-.1.923.848.375-.907.193-.095.919-.466-.8-.9.193.619-.686Z" transform="translate(-18.052 -7.908)" fill="#fff"/><path d="M18.517,12.521h.923l.288-.88.284.88h.927l-.75.544.288.88-.75-.544-.75.544.288-.88Z" transform="translate(-18.209 -7.672)" fill="#fff"/><path d="M18.246,15.126l.848-.379-.1-.919.619.686.848-.375-.466.8.619.686-.9-.193-.466.8-.095-.923Z" transform="translate(-18.246 -7.373)" fill="#fff"/><path d="M19.041,17.626l.619-.686-.462-.8.844.379.619-.69-.095.923.844.375-.907.193-.095.919-.462-.8Z" transform="translate(-18.137 -7.1)" fill="#fff"/><path d="M20.814,19.6l.284-.88-.746-.544h.923l.288-.884.284.884h.927l-.75.544.288.88-.75-.544Z" transform="translate(-17.958 -6.9)" fill="#fff"/><path d="M23.225,20.653l-.1-.923-.9-.193.844-.375-.1-.919.619.686.848-.375-.462.8.619.686-.907-.193Z" transform="translate(-17.702 -6.769)" fill="#fff"/><path d="M25.834,20.653l-.462-.8-.9.193.619-.686-.466-.8.848.375.619-.686-.1.919.844.375-.9.193Z" transform="translate(-17.395 -6.769)" fill="#fff"/><path d="M28.252,19.6l-.75-.544-.75.544.288-.88-.75-.544h.927l.284-.884.288.884h.923l-.746.544Z" transform="translate(-17.146 -6.9)" fill="#fff"/><path d="M30.019,17.626l-.9-.193-.466.8-.095-.919-.907-.193.848-.375-.1-.923.619.69.844-.379-.462.8Z" transform="translate(-16.96 -7.1)" fill="#fff"/><path d="M30.814,15.126l-.907.189-.095.923-.466-.8-.9.193.619-.686-.466-.8.848.375.619-.686-.1.919Z" transform="translate(-16.852 -7.373)" fill="#fff"/><path d="M30.55,12.521l-.75.544.288.88-.75-.544-.75.544.288-.88-.75-.544h.927l.284-.88.288.88Z" transform="translate(-16.895 -7.672)" fill="#fff"/><path d="M29.24,10.228l-.462.8.619.686-.9-.193-.466.8-.095-.919-.907-.193.848-.375-.1-.923.619.69Z" transform="translate(-17.045 -7.908)" fill="#fff"/><path d="M27.094,8.684,27,9.6l.844.375-.907.193-.095.919-.462-.8-.907.193.619-.686-.462-.8.844.379Z" transform="translate(-17.258 -8.076)" fill="#fff"/></g></g></svg>