<svg xmlns="http://www.w3.org/2000/svg" width="35.168" height="35.168" viewBox="0 0 35.168 35.168"><g transform="translate(0 0)"><circle cx="17.584" cy="17.584" r="17.584" fill="#009b3a"/><path d="M17.483,27.443.715,16.755,17.483,6.067,34.258,16.755Z" transform="translate(0.098 0.829)" fill="#fedf00"/><g transform="translate(10.53 10.53)"><circle cx="7.054" cy="7.054" r="7.054" fill="#002776"/><g transform="translate(0.221 4.03)"><path d="M9.833,12.984a7.681,7.681,0,0,0-.375,1.081,16.134,16.134,0,0,1,13.563,3.886,6.912,6.912,0,0,0,.253-1.113A17.069,17.069,0,0,0,9.833,12.984Z" transform="translate(-9.458 -12.809)" fill="#fff"/></g><path d="M10.478,13.265a.245.245,0,0,0-.063-.107.233.233,0,0,0-.094-.067.293.293,0,0,0-.131-.027.288.288,0,0,0-.13.027.22.22,0,0,0-.1.067.291.291,0,0,0-.067.107.476.476,0,0,0,0,.276.322.322,0,0,0,.067.107.3.3,0,0,0,.1.07.342.342,0,0,0,.13.024.347.347,0,0,0,.131-.024.352.352,0,0,0,.1-.07.247.247,0,0,0,.059-.107.411.411,0,0,0,0-.276Zm-.118.233a.2.2,0,0,1-.035.07.171.171,0,0,1-.059.051.226.226,0,0,1-.075.016.223.223,0,0,1-.078-.016.161.161,0,0,1-.059-.051.2.2,0,0,1-.036-.07A.263.263,0,0,1,10,13.4a.245.245,0,0,1,.016-.094.27.27,0,0,1,.036-.075.126.126,0,0,1,.059-.043.182.182,0,0,1,.078-.019.167.167,0,0,1,.078.019.146.146,0,0,1,.056.048.153.153,0,0,1,.035.07.339.339,0,0,1,.013.094A.366.366,0,0,1,10.359,13.5Z" transform="translate(-9.18 -8.744)" fill="#009b3a"/><path d="M11.166,13.482a.43.43,0,0,0-.048-.078.143.143,0,0,0-.063-.04v0a.2.2,0,0,0,.1-.059.18.18,0,0,0,.031-.114.191.191,0,0,0-.035-.111.117.117,0,0,0-.04-.035.258.258,0,0,0-.047-.024A.265.265,0,0,0,11,13.008h-.067l-.292.016.032.656.126-.008-.013-.257.123-.008a.14.14,0,0,1,.04,0,.233.233,0,0,1,.035.02c.011.008.019.019.032.027a.437.437,0,0,1,.019.04l.063.161.134-.008Zm-.134-.206a.1.1,0,0,1-.04.02.223.223,0,0,1-.055.008l-.15.008-.013-.2.167-.008a.144.144,0,0,1,.086.02.085.085,0,0,1,.032.07.159.159,0,0,1,0,.048A.063.063,0,0,1,11.031,13.276Z" transform="translate(-9.075 -8.752)" fill="#009b3a"/><path d="M11.882,13.052a.376.376,0,0,0-.256-.078h-.218v.655h.218a.3.3,0,0,0,.342-.332A.335.335,0,0,0,11.882,13.052Zm-.091.41a.125.125,0,0,1-.063.043.258.258,0,0,1-.1.016h-.091V13.08h.091a.379.379,0,0,1,.1.016.152.152,0,0,1,.063.044.231.231,0,0,1,.048.157A.258.258,0,0,1,11.791,13.463Z" transform="translate(-8.97 -8.756)" fill="#009b3a"/><path d="M12.312,13.522v-.177l.335,0,0-.106-.339,0,0-.158.359,0,0-.107-.489,0,0,.655.5,0,0-.106Z" transform="translate(-8.864 -8.756)" fill="#009b3a"/><path d="M13.412,13.029l-.182.5-.131-.517-.176-.008-.036.655.118,0,.016-.268.008-.26.142.537.115.008.185-.522-.016.257-.013.272.118,0,.033-.655Z" transform="translate(-8.768 -8.752)" fill="#009b3a"/><path d="M14.666,13.357l.011-.1L14.24,13.2l-.083.592.45.067.016-.1-.34-.051.024-.158.3.043.016-.094-.3-.043.019-.146Z" transform="translate(-8.594 -8.726)" fill="#009b3a"/><path d="M15.881,13.6a.388.388,0,0,0-.024-.056.36.36,0,0,0-.043-.035.287.287,0,0,0-.051-.032l-.072-.024-.24-.07-.19.627.123.035.07-.233.118.035a.33.33,0,0,0,.107.016.213.213,0,0,0,.091-.016.169.169,0,0,0,.064-.047.288.288,0,0,0,.055-.147A.3.3,0,0,0,15.881,13.6Zm-.126.083a.216.216,0,0,1-.019.043.088.088,0,0,1-.028.024.065.065,0,0,1-.04.008.141.141,0,0,1-.055-.008.045.045,0,0,1-.024,0,.2.2,0,0,1-.024-.008l-.083-.024.059-.2.08.024a.6.6,0,0,1,.063.019l.044.019.019.02a.066.066,0,0,1,.008.024.085.085,0,0,1,0,.027A.091.091,0,0,1,15.754,13.68Z" transform="translate(-8.444 -8.701)" fill="#009b3a"/><path d="M16.643,13.809a.165.165,0,0,0-.024-.047.29.29,0,0,0-.088-.064.359.359,0,0,0-.067-.027l-.276-.091-.209.62.123.04L16.18,14l.119.039a.12.12,0,0,1,.035.02.206.206,0,0,1,.027.027.069.069,0,0,1,.016.04.154.154,0,0,1,.008.043l0,.174.126.043-.007-.185a.214.214,0,0,0-.016-.091.1.1,0,0,0-.048-.059l0,0a.174.174,0,0,0,.115-.024.167.167,0,0,0,.072-.09A.23.23,0,0,0,16.643,13.809Zm-.131.083a.142.142,0,0,1-.019.044.342.342,0,0,1-.032.019.185.185,0,0,1-.043,0,.152.152,0,0,1-.056-.011l-.146-.051.063-.182.155.051a.148.148,0,0,1,.075.048A.089.089,0,0,1,16.512,13.892Z" transform="translate(-8.345 -8.673)" fill="#009b3a"/><path d="M17.369,14.065a.233.233,0,0,0-.067-.1.322.322,0,0,0-.115-.067.33.33,0,0,0-.13-.019.309.309,0,0,0-.118.032.3.3,0,0,0-.1.078.4.4,0,0,0-.067.126.409.409,0,0,0-.024.139.314.314,0,0,0,.024.122.274.274,0,0,0,.072.1.338.338,0,0,0,.114.067.308.308,0,0,0,.131.019.273.273,0,0,0,.118-.032.32.32,0,0,0,.094-.083.308.308,0,0,0,.064-.122.447.447,0,0,0,.027-.139A.4.4,0,0,0,17.369,14.065Zm-.122.217a.3.3,0,0,1-.04.086.293.293,0,0,1-.059.056.177.177,0,0,1-.072.027A.137.137,0,0,1,17,14.439a.15.15,0,0,1-.067-.039.153.153,0,0,1-.04-.064.292.292,0,0,1-.011-.083.358.358,0,0,1,.019-.094.274.274,0,0,1,.043-.083A.189.189,0,0,1,17,14.022a.164.164,0,0,1,.072-.028.131.131,0,0,1,.078.013.174.174,0,0,1,.067.039.155.155,0,0,1,.04.067.178.178,0,0,1,.008.08A.246.246,0,0,1,17.247,14.282Z" transform="translate(-8.24 -8.632)" fill="#009b3a"/><path d="M18.1,14.512a.248.248,0,0,0,.008-.1.2.2,0,0,0-.024-.086.288.288,0,0,0-.063-.078.5.5,0,0,0-.094-.056.343.343,0,0,0-.131-.032.323.323,0,0,0-.123.024.318.318,0,0,0-.1.072.438.438,0,0,0-.075.118.467.467,0,0,0-.036.138.347.347,0,0,0,.016.126.335.335,0,0,0,.064.1.357.357,0,0,0,.11.075.344.344,0,0,0,.11.027.207.207,0,0,0,.1-.011l-.008.059.075.035.138-.316-.248-.11-.04.091.134.059-.032.075a.2.2,0,0,1-.086.019.263.263,0,0,1-.094-.027.16.16,0,0,1-.067-.043.134.134,0,0,1-.036-.067.174.174,0,0,1-.008-.078.355.355,0,0,1,.028-.1.335.335,0,0,1,.051-.083.225.225,0,0,1,.063-.051.158.158,0,0,1,.075-.02.19.19,0,0,1,.075.016.338.338,0,0,1,.056.036.118.118,0,0,1,.036.039.1.1,0,0,1,.015.048.225.225,0,0,1,0,.048Z" transform="translate(-8.142 -8.594)" fill="#009b3a"/><path d="M18.791,14.681a.114.114,0,0,0-.027-.043.553.553,0,0,0-.047-.035.438.438,0,0,0-.056-.04l-.256-.138L18.09,15l.11.059.126-.224.107.059a.059.059,0,0,1,.031.023.085.085,0,0,1,.02.036.1.1,0,0,1,.011.039.21.21,0,0,1,0,.044l-.028.169.119.063.027-.181a.4.4,0,0,0,0-.091.234.234,0,0,0-.035-.072.2.2,0,0,0,.122,0,.163.163,0,0,0,.083-.083.159.159,0,0,0,.027-.11A.1.1,0,0,0,18.791,14.681Zm-.126.107a.4.4,0,0,1-.027.04.117.117,0,0,1-.035.015.2.2,0,0,1-.043,0,.156.156,0,0,1-.051-.024l-.134-.07.094-.174.142.078a.138.138,0,0,1,.063.064A.071.071,0,0,1,18.665,14.788Z" transform="translate(-8.057 -8.558)" fill="#009b3a"/><path d="M19.471,15.114l.055-.1-.422-.24-.324.572.434.244.051-.091-.323-.185.086-.15.292.166.051-.094-.292-.166.08-.139Z" transform="translate(-7.962 -8.509)" fill="#009b3a"/><path d="M20.124,15.446a.191.191,0,0,0-.047-.08A.5.5,0,0,0,20,15.3a.344.344,0,0,0-.091-.043.208.208,0,0,0-.083-.013.138.138,0,0,0-.07.016.131.131,0,0,0-.059.043l-.013.02a.044.044,0,0,0-.007.019.122.122,0,0,0-.02.07.147.147,0,0,0,.02.067.208.208,0,0,0,.043.067c.024.024.043.052.07.075a.224.224,0,0,0,.044.051c.011.016.019.032.027.044a.131.131,0,0,1,.008.035.047.047,0,0,1-.013.032.067.067,0,0,1-.032.027.045.045,0,0,1-.039.008.116.116,0,0,1-.048-.008.373.373,0,0,1-.051-.027.348.348,0,0,1-.048-.043.119.119,0,0,1-.027-.048.078.078,0,0,1-.008-.051.1.1,0,0,1,.016-.056l-.1-.067a.234.234,0,0,0-.032.185.353.353,0,0,0,.142.166.624.624,0,0,0,.1.048.18.18,0,0,0,.09.011.186.186,0,0,0,.083-.019.226.226,0,0,0,.064-.064.11.11,0,0,0,.028-.055.159.159,0,0,0,0-.056.221.221,0,0,0-.016-.051.259.259,0,0,0-.032-.051.234.234,0,0,0-.043-.051c-.016-.016-.032-.036-.048-.051a.5.5,0,0,0-.043-.048.174.174,0,0,1-.024-.04.053.053,0,0,1-.008-.032.1.1,0,0,1,.008-.031.082.082,0,0,1,.027-.02c.008-.008.02-.008.036-.008a.092.092,0,0,1,.043.008.157.157,0,0,1,.048.024c.07.048.09.1.059.161l.1.067a.211.211,0,0,0,.027-.082A.187.187,0,0,0,20.124,15.446Z" transform="translate(-7.866 -8.446)" fill="#009b3a"/><path d="M20.763,15.866a.212.212,0,0,0-.048-.08.443.443,0,0,0-.078-.07.315.315,0,0,0-.174-.056.138.138,0,0,0-.07.016.153.153,0,0,0-.059.048l-.013.019-.011.019a.1.1,0,0,0-.011.067.132.132,0,0,0,.015.067.374.374,0,0,0,.048.072c.019.024.043.048.067.075s.032.035.043.051l.027.04a.118.118,0,0,1,.008.035.062.062,0,0,1-.011.035.089.089,0,0,1-.027.027.152.152,0,0,1-.044.008.1.1,0,0,1-.043-.011.2.2,0,0,1-.055-.027.234.234,0,0,1-.048-.04.341.341,0,0,1-.027-.048.115.115,0,0,1-.008-.051.122.122,0,0,1,.016-.055l-.1-.067a.207.207,0,0,0-.027.185.3.3,0,0,0,.141.161.223.223,0,0,0,.1.048.256.256,0,0,0,.091.016.191.191,0,0,0,.078-.024.158.158,0,0,0,.064-.059.161.161,0,0,0,.027-.059.086.086,0,0,0,0-.056.146.146,0,0,0-.016-.051.406.406,0,0,0-.031-.051A.251.251,0,0,0,20.542,16a.2.2,0,0,0-.047-.051c-.016-.019-.032-.04-.043-.051a.093.093,0,0,1-.024-.04.034.034,0,0,1-.008-.032.062.062,0,0,1,.008-.027.061.061,0,0,1,.027-.024.142.142,0,0,1,.035-.008.2.2,0,0,1,.044.008.165.165,0,0,1,.047.024c.072.051.091.1.059.161l.1.067a.2.2,0,0,0,.02-.165Z" transform="translate(-7.779 -8.389)" fill="#009b3a"/><path d="M21.382,16.377a.22.22,0,0,0-.048-.11.289.289,0,0,0-.094-.086.276.276,0,0,0-.123-.048.248.248,0,0,0-.123,0,.393.393,0,0,0-.109.055.411.411,0,0,0-.092.11.482.482,0,0,0-.055.126.373.373,0,0,0,0,.127.29.29,0,0,0,.052.11.309.309,0,0,0,.1.091.369.369,0,0,0,.122.047.278.278,0,0,0,.118-.008.262.262,0,0,0,.11-.059.535.535,0,0,0,.091-.1.459.459,0,0,0,.056-.131A.336.336,0,0,0,21.382,16.377Zm-.123.1a.342.342,0,0,1-.043.086.22.22,0,0,1-.059.075.254.254,0,0,1-.067.044.177.177,0,0,1-.075.008.165.165,0,0,1-.08-.028.23.23,0,0,1-.055-.051.225.225,0,0,1-.024-.07.2.2,0,0,1,.008-.083.264.264,0,0,1,.04-.088.244.244,0,0,1,.059-.075.544.544,0,0,1,.067-.043.185.185,0,0,1,.078-.008.228.228,0,0,1,.075.028.151.151,0,0,1,.056.055.111.111,0,0,1,.024.072A.267.267,0,0,1,21.26,16.476Z" transform="translate(-7.696 -8.325)" fill="#009b3a"/></g><g transform="translate(11.307 15.091)"><path d="M17.437,13.276l.067.205h.213l-.174.13.067.205-.174-.13-.174.13.067-.205-.177-.13h.217Z" transform="translate(-8.962 -13.276)" fill="#fff"/><path d="M17.186,14.942l.051.162h.17l-.138.1.055.162-.138-.1-.138.1L17.1,15.2l-.135-.1h.17Z" transform="translate(-8.988 -13.048)" fill="#fff"/><path d="M15.5,16.243l.06.178h.185l-.15.11.055.181-.15-.11-.154.11.059-.181-.15-.11h.186Z" transform="translate(-9.222 -12.87)" fill="#fff"/><path d="M13.14,15.476l.063.189h.2l-.158.114.059.189-.162-.118-.158.118.06-.189-.162-.114h.2Z" transform="translate(-9.546 -12.975)" fill="#fff"/><path d="M10.982,16.691l.067.209h.221l-.181.13.071.209-.178-.13-.181.13.071-.209-.181-.13h.221Z" transform="translate(-9.846 -12.809)" fill="#fff"/><path d="M10.208,17.274l.063.189h.2l-.162.114.063.189-.161-.114-.158.114.059-.189-.162-.114h.2Z" transform="translate(-9.947 -12.729)" fill="#fff"/><path d="M13.014,18.513l.067.205h.213l-.174.126.067.2-.174-.126-.174.126.067-.2-.174-.126h.213Z" transform="translate(-9.566 -12.56)" fill="#fff"/><path d="M12.086,18.01l.051.15H12.3l-.13.095.051.154-.13-.095-.13.095.051-.154-.13-.095h.161Z" transform="translate(-9.683 -12.628)" fill="#fff"/><path d="M12.266,17.364l.055.174H12.5l-.146.107.055.17-.146-.107-.146.107.055-.17-.142-.107h.178Z" transform="translate(-9.662 -12.717)" fill="#fff"/><path d="M11.578,16.427l.039.122h.127l-.1.071.039.122-.1-.075-.1.075.039-.122-.1-.071h.126Z" transform="translate(-9.747 -12.845)" fill="#fff"/><path d="M10.433,14.043l.075.233h.241l-.193.142.075.233-.2-.146-.2.146.075-.233-.2-.142h.245Z" transform="translate(-9.924 -13.171)" fill="#fff"/><path d="M16.221,16.809l.059.178h.189l-.154.11.059.181-.154-.11-.15.11.055-.181-.15-.11h.189Z" transform="translate(-9.123 -12.793)" fill="#fff"/><path d="M15.51,18.006l.067.205h.217l-.178.126.067.209-.174-.13-.178.13.067-.209-.174-.126h.217Z" transform="translate(-9.225 -12.629)" fill="#fff"/><path d="M17.373,19.412l.064.2h.2l-.165.122.063.2-.166-.122-.17.122.063-.2-.166-.122h.205Z" transform="translate(-8.969 -12.437)" fill="#fff"/><path d="M19.854,17.406l.067.2h.205l-.166.122.063.2-.17-.122-.166.122.063-.2-.166-.122h.205Z" transform="translate(-8.629 -12.711)" fill="#fff"/><path d="M20.114,17.982l.055.17h.181l-.146.107.055.174-.146-.107-.146.107.055-.174-.146-.107h.181Z" transform="translate(-8.59 -12.632)" fill="#fff"/><path d="M20.722,17.507l.051.158h.166l-.134.095.051.158-.134-.1-.134.1.052-.158-.135-.095h.166Z" transform="translate(-8.504 -12.697)" fill="#fff"/><path d="M19.732,18.482l.06.17h.177l-.146.107.059.174-.15-.107-.146.107.059-.174-.15-.107h.181Z" transform="translate(-8.642 -12.564)" fill="#fff"/><path d="M18.62,19.27l.059.185h.2l-.158.114.059.185-.158-.114-.158.114.059-.185-.158-.114h.2Z" transform="translate(-8.797 -12.456)" fill="#fff"/><path d="M17.887,18.9l.047.158H18.1l-.13.095.047.158-.13-.1-.134.1.051-.158-.134-.095h.166Z" transform="translate(-8.891 -12.507)" fill="#fff"/><path d="M18.578,18.707l.047.138h.142l-.114.083.043.138-.118-.083-.114.083.043-.138-.118-.083h.146Z" transform="translate(-8.793 -12.533)" fill="#fff"/><path d="M19.227,18.829l.047.138h.142l-.114.087.043.138-.118-.087-.114.087.043-.138-.118-.087h.146Z" transform="translate(-8.704 -12.516)" fill="#fff"/><path d="M18.595,19.957l.047.138h.146l-.118.087.043.138-.118-.087-.114.087.043-.138-.118-.087h.146Z" transform="translate(-8.791 -12.362)" fill="#fff"/><path d="M16.863,18.749l.047.158h.166L16.942,19l.051.158-.13-.095-.134.095L16.78,19l-.134-.095h.166Z" transform="translate(-9.031 -12.527)" fill="#fff"/><path d="M15.489,20.242l.024.079H15.6l-.067.047.028.079-.067-.047-.067.047.023-.079-.067-.047h.083Z" transform="translate(-9.205 -12.323)" fill="#fff"/><path d="M14.861,16.826l.051.162h.17l-.138.1.055.158-.138-.1-.134.1.051-.158-.138-.1h.17Z" transform="translate(-9.306 -12.79)" fill="#fff"/><path d="M15.176,17.312l.039.118h.122l-.1.071.036.118-.1-.075-.1.075.039-.118-.1-.071h.122Z" transform="translate(-9.254 -12.724)" fill="#fff"/></g></g></svg>