<svg xmlns="http://www.w3.org/2000/svg" width="35.169" height="35.172" viewBox="0 0 35.169 35.172"><g transform="translate(0)"><g transform="translate(0 0)"><path d="M33.652,21.422a17.312,17.312,0,0,1-1.42,2.7H2.611a17.415,17.415,0,0,1-1.421-2.7Z" transform="translate(0.163 2.929)" fill="#fff"/><path d="M34.638,19.041a17.035,17.035,0,0,1-.88,2.707H1.3a17.634,17.634,0,0,1-.88-2.707Z" transform="translate(0.057 2.603)" fill="#b12233"/><path d="M35.112,16.66a17.572,17.572,0,0,1-.423,2.707H.467A17.71,17.71,0,0,1,.045,16.66Z" transform="translate(0.006 2.278)" fill="#fff"/><path d="M32.062,23.8a17.314,17.314,0,0,1-2.135,2.707H4.575A17.586,17.586,0,0,1,2.44,23.8Z" transform="translate(0.334 3.254)" fill="#b12233"/><path d="M25.957,28.561a17.545,17.545,0,0,1-18.724,0Z" transform="translate(0.989 3.905)" fill="#b12233"/><path d="M29.67,26.18a17.523,17.523,0,0,1-3.315,2.707H7.632A17.77,17.77,0,0,1,4.318,26.18Z" transform="translate(0.59 3.579)" fill="#fff"/><path d="M29.67,5.088H4.318A17.653,17.653,0,0,1,7.636,2.381H26.352A17.653,17.653,0,0,1,29.67,5.088Z" transform="translate(0.59 0.326)" fill="#fff"/><path d="M25.953,2.707H7.237A17.058,17.058,0,0,1,8.973,1.74c.055-.024.11-.052.169-.08.2-.094.407-.185.615-.276.091-.039.186-.075.276-.11A17.441,17.441,0,0,1,16.591,0h0A17.465,17.465,0,0,1,25.953,2.707Z" transform="translate(0.989 0)" fill="#b12233"/><path d="M32.062,7.464H2.44c.153-.24.316-.481.485-.714a.487.487,0,0,1,.043-.059A17.838,17.838,0,0,1,4.575,4.762H29.927A17.492,17.492,0,0,1,32.062,7.464Z" transform="translate(0.334 0.651)" fill="#b12233"/><path d="M34.638,12.227H.416A17.879,17.879,0,0,1,1.3,9.52H33.758A17.264,17.264,0,0,1,34.638,12.227Z" transform="translate(0.057 1.302)" fill="#b12233"/><path d="M33.652,9.846H1.19c.072-.173.147-.347.23-.521.189-.414.394-.824.615-1.219.182-.327.375-.651.576-.967H32.233A17.564,17.564,0,0,1,33.652,9.846Z" transform="translate(0.163 0.976)" fill="#fff"/><path d="M35.112,14.608H.045c.008-.114.019-.225.032-.335.027-.331.07-.658.118-.986.07-.466.161-.932.272-1.386H34.689A17.507,17.507,0,0,1,35.112,14.608Z" transform="translate(0.006 1.627)" fill="#fff"/><path d="M35.169,15.631c0,.458-.016.908-.051,1.354H.051C.016,16.54,0,16.089,0,15.631s.016-.9.051-1.349H35.118C35.153,14.728,35.169,15.178,35.169,15.631Z" transform="translate(0 1.953)" fill="#b12233"/><path d="M17.581,0V18.938H.051C.016,18.492,0,18.042,0,17.584s.016-.9.051-1.349c.008-.114.019-.225.032-.335.027-.331.07-.658.118-.986.07-.466.161-.932.272-1.386a17.879,17.879,0,0,1,.88-2.707c.072-.173.147-.347.23-.521.189-.414.394-.824.615-1.219.182-.327.375-.651.576-.967.153-.24.316-.481.485-.714A.487.487,0,0,1,3.3,7.342,17.838,17.838,0,0,1,4.908,5.413,17.653,17.653,0,0,1,8.226,2.707,17.058,17.058,0,0,1,9.962,1.74c.055-.024.11-.052.169-.08.2-.094.407-.185.615-.276.091-.039.186-.075.276-.11A17.441,17.441,0,0,1,17.581,0Z" fill="#3c3b6d"/><g transform="translate(0.083 0.903)"><g transform="translate(9.879)"><path d="M13.634.795l.249.757h.8l-.647.473.249.761-.651-.473-.647.473.249-.761-.647-.473h.8Z" transform="translate(-8.241 -0.795)" fill="#fff"/><path d="M10.294,2.553l.059.19-.256-.19-.391-.284-.39.284-.257.19.059-.19L9.3,1.981l-.54-.394c.055-.024.11-.052.169-.08h.525l.09-.276c.091-.039.186-.075.276-.11l.131.386h.8l-.643.474Z" transform="translate(-8.764 -0.75)" fill="#fff"/></g><g transform="translate(5.322 3.784)"><path d="M13.634,4.123l.249.761h.8l-.647.469.249.761-.651-.469-.647.469.249-.761-.647-.469h.8Z" transform="translate(-3.684 -4.123)" fill="#fff"/><path d="M9.719,4.123l.249.761h.8l-.647.469.249.761-.647-.469-.647.469.249-.761L8.67,4.885h.8Z" transform="translate(-4.22 -4.123)" fill="#fff"/><path d="M5.8,4.123l.245.761h.8L6.2,5.354l.249.761L5.8,5.646l-.651.469L5.4,5.354l-.647-.469h.8Z" transform="translate(-4.755 -4.123)" fill="#fff"/></g><g transform="translate(1.499 7.571)"><path d="M13.634,7.455l.249.761h.8l-.647.469.249.761-.651-.469-.647.469.249-.761-.647-.469h.8Z" transform="translate(0.139 -7.455)" fill="#fff"/><path d="M9.719,7.455l.249.761h.8l-.647.469.249.761-.647-.469-.647.469.249-.761L8.67,8.217h.8Z" transform="translate(-0.397 -7.455)" fill="#fff"/><path d="M5.8,7.455l.245.761h.8L6.2,8.686l.249.761L5.8,8.978l-.651.469L5.4,8.686l-.647-.469h.8Z" transform="translate(-0.932 -7.455)" fill="#fff"/><path d="M2.213,8.613l.244.762L1.81,8.905l-.418.3c.189-.414.394-.824.615-1.219l.051.153h.8Z" transform="translate(-1.392 -7.382)" fill="#fff"/></g><g transform="translate(0.872 11.355)"><path d="M13.634,10.784l.249.761h.8l-.647.473.249.757-.651-.469-.647.469.249-.757-.647-.473h.8Z" transform="translate(0.766 -10.784)" fill="#fff"/><path d="M9.719,10.784l.249.761h.8l-.647.473.249.757-.647-.469-.647.469.249-.757-.651-.473h.8Z" transform="translate(0.231 -10.784)" fill="#fff"/><path d="M5.8,10.784l.245.761h.8l-.647.473.249.757L5.8,12.307l-.651.469.248-.757-.647-.473h.8Z" transform="translate(-0.305 -10.784)" fill="#fff"/><path d="M1.885,10.784l.249.761h.8l-.651.473.249.757-.647-.469-.647.469.249-.757L.84,11.545h.8Z" transform="translate(-0.84 -10.784)" fill="#fff"/></g><g transform="translate(0.872 15.142)"><path d="M13.634,14.116l.249.761h.8l-.647.469.249.761-.651-.469-.647.469.249-.761-.647-.469h.8Z" transform="translate(0.766 -14.116)" fill="#fff"/><path d="M9.719,14.116l.249.761h.8l-.647.469.249.761-.647-.469-.647.469.249-.761-.651-.469h.8Z" transform="translate(0.231 -14.116)" fill="#fff"/><path d="M5.8,14.116l.245.761h.8l-.647.469.249.761L5.8,15.639l-.651.469.248-.761-.647-.469h.8Z" transform="translate(-0.305 -14.116)" fill="#fff"/><path d="M1.885,14.116l.249.761h.8l-.651.469.249.761-.647-.469-.647.469.249-.761L.84,14.877h.8Z" transform="translate(-0.84 -14.116)" fill="#fff"/></g><g transform="translate(0 13.248)"><path d="M11.676,12.45l.249.761h.8l-.647.469.245.761-.647-.469-.647.469.249-.761-.647-.469h.8Z" transform="translate(1.371 -12.45)" fill="#fff"/><path d="M7.762,12.45l.245.761h.8l-.647.469.248.761-.647-.469-.647.469.245-.761-.647-.469h.8Z" transform="translate(0.835 -12.45)" fill="#fff"/><path d="M3.843,12.45l.248.761h.8l-.647.469.245.761-.647-.469-.647.469.249-.761L2.8,13.211h.8Z" transform="translate(0.299 -12.45)" fill="#fff"/><path d="M.164,13.589l.248.76-.339-.244c.027-.331.07-.658.118-.986h.62Z" transform="translate(-0.073 -12.358)" fill="#fff"/></g><g transform="translate(3.097 9.465)"><path d="M11.676,9.121l.249.761h.8l-.647.469.245.761-.647-.473-.647.473.249-.761-.647-.469h.8Z" transform="translate(-1.726 -9.121)" fill="#fff"/><path d="M7.762,9.121l.245.761h.8l-.647.469.248.761-.647-.473-.647.473.245-.761-.647-.469h.8Z" transform="translate(-2.262 -9.121)" fill="#fff"/><path d="M3.843,9.121l.248.761h.8l-.647.469.245.761-.647-.473-.647.473.249-.761L2.8,9.883h.8Z" transform="translate(-2.797 -9.121)" fill="#fff"/></g><g transform="translate(3.176 5.677)"><path d="M11.676,5.789l.249.761h.8l-.647.469.245.761-.647-.469-.647.469.249-.761-.647-.469h.8Z" transform="translate(-1.805 -5.789)" fill="#fff"/><path d="M7.762,5.789l.245.761h.8l-.647.469.248.761-.647-.469-.647.469L7.36,7.02l-.647-.469h.8Z" transform="translate(-2.341 -5.789)" fill="#fff"/><path d="M4.335,7.324l.15.458-.631-.458-.019-.011-.02.011-.627.458.15-.458.1-.3-.568-.41a.487.487,0,0,1,.043-.059h.675l.249-.762.248.762h.8l-.647.469Z" transform="translate(-2.867 -5.789)" fill="#fff"/></g><g transform="translate(7.547 1.89)"><path d="M11.676,2.457l.249.761h.8l-.647.473.245.757-.647-.469-.647.469.249-.757-.647-.473h.8Z" transform="translate(-6.177 -2.457)" fill="#fff"/><path d="M7.762,2.457l.245.761h.8l-.647.473.248.757L7.762,3.98l-.647.469.245-.757-.647-.473h.8Z" transform="translate(-6.712 -2.457)" fill="#fff"/></g></g></g></g></svg>