<svg xmlns="http://www.w3.org/2000/svg" width="35.174" height="35.174" viewBox="0 0 35.174 35.174"><g transform="translate(0 0)"><path d="M33.2,25.692a17.348,17.348,0,0,1-3.175,4.338c-.149.149-.3.293-.451.438a17.624,17.624,0,0,1-23.978,0c-.153-.144-.3-.289-.451-.438a17.572,17.572,0,0,1,0-24.886c.149-.149.3-.3.457-.438a17.61,17.61,0,0,1,23.967,0c.155.14.308.289.457.438A17.423,17.423,0,0,1,33.2,9.476,17.656,17.656,0,0,1,33.2,25.692Z" transform="translate(0)" fill="#cd1225"/><g transform="translate(3.621 0.158)"><g transform="translate(0 3.462)"><path d="M26.539,7.27c-.118-.118-.241-.236-.364-.351a13.992,13.992,0,0,0-19.032,0c-.122.115-.244.233-.363.351L16.66,17.15Z" transform="translate(-2.694 -3.185)" fill="#fbd023"/><path d="M7.273,6.779h0a13.968,13.968,0,0,0,0,19.758l9.879-9.879Z" transform="translate(-3.186 -2.694)" fill="#00795e"/><path d="M27.872,10.219a13.886,13.886,0,0,0-2.521-3.44h0l-9.879,9.879,9.879,9.879A13.87,13.87,0,0,0,27.872,23.1,14.026,14.026,0,0,0,27.872,10.219Z" transform="translate(-1.506 -2.694)" fill="#00795e"/><path d="M6.781,25.349v0c.118.118.236.233.359.347a13.993,13.993,0,0,0,19.04,0c.123-.114.241-.228.359-.347v0L16.66,15.47Z" transform="translate(-2.694 -1.505)" fill="#fbd023"/><g transform="translate(10.557 10.556)"><path d="M19.291,15.88a3.37,3.37,0,0,1-.383,1.57,3.41,3.41,0,1,1,.383-1.57Z" transform="translate(-12.473 -12.471)" fill="#cd1225"/><path d="M15.829,12.724l.7,2.158H18.8l-1.835,1.334.7,2.154-1.835-1.334L13.995,18.37l.7-2.154-1.835-1.334h2.269Z" transform="translate(-12.42 -12.436)" fill="#fbd023"/></g></g><g transform="translate(2.233 14.953)"><path d="M8.744,16.924c-.008.019-.15.4-.158.4-.126-.051-.228-.264-.311-.379a3.639,3.639,0,0,0-.319-.422c-.048-.051-.1-.1-.147-.15a2.616,2.616,0,0,0-.351-.3,5.088,5.088,0,0,0-.663-.3,3.272,3.272,0,0,0,.056,1.073.668.668,0,0,1,.016.083c.043.185.09.366.15.552a4.76,4.76,0,0,1,.228.631,2.12,2.12,0,0,1-1.14-.383,1.957,1.957,0,0,1-.8-.864,4.745,4.745,0,0,1,.031-2.442c.036-.252.083-.5.1-.75a1.606,1.606,0,0,0,.031-.374,7.717,7.717,0,0,0,.856.43,6.506,6.506,0,0,1,1.815,1.009A2.053,2.053,0,0,1,8.744,16.924Z" transform="translate(-5.15 -13.294)" fill="#fbd023"/><path d="M7.737,17.45a3.937,3.937,0,0,1-1.065-.824.668.668,0,0,0-.016-.083A3.272,3.272,0,0,1,6.6,15.47a5.088,5.088,0,0,1,.663.3,2.616,2.616,0,0,1,.351.3A4.248,4.248,0,0,1,7.737,17.45Z" transform="translate(-4.955 -12.997)" fill="#cd1225"/></g><g transform="translate(1.957)"><path d="M15.684.139,16.1,1.414h1.341L16.354,2.2l.414,1.278-1.085-.789-1.089.789L15.013,2.2l-1.089-.789h1.345Z" transform="translate(-3.674 -0.139)" fill="#fbd023"/><g transform="translate(0 4.139)"><path d="M5.4,3.97l1.152.69,1.014-.88-.3,1.31,1.152.69L7.073,5.9,6.769,7.2,6.244,5.97l-1.337.118L5.921,5.2Z" transform="translate(-4.907 -3.78)" fill="#fbd023"/><path d="M25.969,3.97l-1.152.69L23.8,3.78l.3,1.31-1.152.69,1.337.118.3,1.306.525-1.235,1.341.118L25.444,5.2Z" transform="translate(-2.439 -3.78)" fill="#fbd023"/></g><g transform="translate(0 27.27)"><path d="M15.684,31.188l-.414-1.274H13.924l1.089-.793-.418-1.274,1.089.789,1.085-.789-.414,1.274,1.085.793H16.1Z" transform="translate(-3.674 -23.621)" fill="#fbd023"/><path d="M25.969,27.368l-1.152-.69-1.014.88.3-1.31-1.152-.69,1.337-.118.3-1.31.525,1.239,1.341-.118-1.014.884Z" transform="translate(-2.439 -24.129)" fill="#fbd023"/><path d="M5.4,27.368l1.152-.69,1.014.88-.3-1.31,1.152-.69-1.337-.118-.3-1.31-.525,1.239L4.907,25.25l1.014.884Z" transform="translate(-4.907 -24.129)" fill="#fbd023"/></g></g></g></g></svg>