<svg xmlns="http://www.w3.org/2000/svg" width="35.153" height="35.153" viewBox="0 0 35.153 35.153"><g transform="translate(0)"><g transform="translate(0 0)"><path d="M28.086,3.5.533,21.865A17.507,17.507,0,0,1,1.8,9.839c.1-.221.217-.442.336-.659q.355-.65.768-1.27c.217-.332.45-.655.691-.971.216-.288.441-.564.674-.837s.473-.529.722-.781A17.539,17.539,0,0,1,28.086,3.5Z" fill="#04357f"/><path d="M34.3,15.978A17.567,17.567,0,0,1,6.22,30.059L33.774,11.69A17.733,17.733,0,0,1,34.3,15.978Z" transform="translate(0.85 1.598)" fill="#009444"/><path d="M29.218,4.057.915,22.928C.741,22.442.6,21.949.469,21.444L28.022,3.075Q28.644,3.542,29.218,4.057Z" transform="translate(0.064 0.42)" fill="#fff"/><path d="M33.918,11.868,6.364,30.238h0c-.415-.313-.813-.64-1.2-.983l28.307-18.87C33.642,10.869,33.791,11.367,33.918,11.868Z" transform="translate(0.706 1.42)" fill="#fff"/><path d="M34.06,11.266,5.753,30.136A17.569,17.569,0,0,1,.861,22.81l28.3-18.871A17.591,17.591,0,0,1,34.06,11.266Z" transform="translate(0.118 0.539)" fill="#d11133"/><g transform="translate(1.803 3.756)"><path d="M10.14,10.039l2.4-.915-2.4-.916,1.618-2-2.533.407.4-2.537L7.634,5.7l-.92-2.4L5.8,5.7,4.778,4.87q-.373.379-.722.781l.158.967-.832-.131c-.241.316-.474.639-.691.971l.6.749-1.372.521c-.119.217-.234.439-.336.659l1.708.651L1.677,12.032l2.537-.4-.407,2.536L5.8,12.544l.915,2.4.92-2.4,1.993,1.621-.4-2.536,2.533.4ZM6.715,12.655A3.533,3.533,0,1,1,10.25,9.124,3.533,3.533,0,0,1,6.715,12.655Z" transform="translate(-1.586 -3.304)" fill="#fecd17"/><path d="M6.454,5.852A2.923,2.923,0,1,0,9.377,8.776,2.924,2.924,0,0,0,6.454,5.852Z" transform="translate(-1.321 -2.956)" fill="#fecd17"/></g></g></g></svg>