<svg xmlns="http://www.w3.org/2000/svg" width="50.425" height="31.089" viewBox="0 0 50.425 31.089"><g transform="translate(0 0)"><path d="M25.214,0C11.3,0,0,6.969,0,15.577c0,8.544,11.3,15.512,25.214,15.512,13.987,0,25.211-6.968,25.211-15.512C50.425,6.969,39.2,0,25.214,0m0,2.971c13.006,0,23.538,5.6,23.538,12.606,0,6.936-10.532,12.541-23.538,12.541-12.922,0-23.453-5.6-23.453-12.541C1.757,8.575,12.289,2.971,25.21,2.971Z" transform="translate(0 0)" fill="#cacee6" fill-rule="evenodd"/><path d="M393.876,115.383h-8.892v11.552h3.137v-8.678h3.458l.908,1.052v4.756h-3.695v2.869h6.828V117.44l-1.745-2.058" transform="translate(-352.385 -105.612)" fill="#cacee6" fill-rule="evenodd"/><path d="M287.32,119.481h-3.363v7.454h3.461v-4.691l2.633.005,1.263-1.173v-5.693h-3.48V119l-.515.48" transform="translate(-259.913 -105.612)" fill="#cacee6" fill-rule="evenodd"/><path d="M232.2,115.355l-3.506,0v5.69l1.263,1.172,2.756,0v-2.763l-.513-.479v-3.618" transform="translate(-209.33 -105.587)" fill="#cacee6" fill-rule="evenodd"/><path d="M95.878,117.182l-1.534-1.8H84.9v11.552h2.969l0-4.878h5.045l-.006,2.052H88.533v2.826h5.654l1.692-1.166V121.9l-.788-.737.788-.665v-3.318M92.9,120.253l-5.037,0V118.2l5.037,0Z" transform="translate(-77.709 -105.612)" fill="#cacee6" fill-rule="evenodd"/></g></svg>