<svg xmlns="http://www.w3.org/2000/svg" width="35.153" height="35.153" viewBox="0 0 35.153 35.153"><g transform="translate(0 0)"><path d="M35.153,17.576a17.557,17.557,0,0,1-16.91,17.561v.016h-.667a17.427,17.427,0,0,1-8.9-2.427,17.558,17.558,0,0,1,0-30.3A17.416,17.416,0,0,1,17.576,0h.667V.011a17.557,17.557,0,0,1,16.91,17.565Z" transform="translate(0 0)" fill="#fff"/><path d="M35.153,17.576a17.577,17.577,0,0,1-.659,4.782H18.243V35.153h-.667a17.427,17.427,0,0,1-8.9-2.427V22.358H.663a17.6,17.6,0,0,1,0-9.568H8.68V2.427A17.416,17.416,0,0,1,17.576,0h.667V12.79H34.494A17.608,17.608,0,0,1,35.153,17.576Z" transform="translate(0 0)" fill="#04357f"/></g></svg>