<svg xmlns="http://www.w3.org/2000/svg" width="35.153" height="35.153" viewBox="0 0 35.153 35.153"><g transform="translate(0 0)"><path d="M17.455,0A17.609,17.609,0,0,0,.885,11.717H34.026A17.61,17.61,0,0,0,17.455,0Z" transform="translate(0.121)" fill="#0a73cd"/><path d="M35.153,16.167a17.513,17.513,0,0,0-1.006-5.859H1.006a17.563,17.563,0,0,0,0,11.717H34.147A17.468,17.468,0,0,0,35.153,16.167Z" transform="translate(0 1.409)" fill="#fff"/><path d="M.885,20.616a17.575,17.575,0,0,0,33.141,0Z" transform="translate(0.121 2.819)" fill="#0a73cd"/><g transform="translate(6.301 13)"><path d="M15.684,14.064l.438,1.341H17.53l-1.14.829.434,1.341-1.14-.829-1.14.829.438-1.341-1.14-.829H15.25Z" transform="translate(-4.408 -11.077)" fill="#0a73cd"/><path d="M7.389,11.436l.434,1.341H9.236l-1.14.829.434,1.341-1.14-.829-1.14.829.434-1.341-1.14-.829H6.955Z" transform="translate(-5.543 -11.436)" fill="#0a73cd"/><path d="M7.389,16.4l.434,1.337H9.236l-1.14.829.434,1.341-1.14-.829-1.14.829.434-1.341-1.14-.829H6.955Z" transform="translate(-5.543 -10.757)" fill="#0a73cd"/><g transform="translate(18.863)"><path d="M23.983,11.436l.434,1.341h1.408l-1.14.829.438,1.341-1.14-.829-1.144.829.438-1.341-1.14-.829h1.408Z" transform="translate(-22.137 -11.436)" fill="#0a73cd"/><path d="M23.983,16.4l.434,1.337h1.408l-1.14.829.438,1.341-1.14-.829-1.144.829.438-1.341-1.14-.829h1.408Z" transform="translate(-22.137 -10.757)" fill="#0a73cd"/></g></g></g></svg>