<svg xmlns="http://www.w3.org/2000/svg" width="35.153" height="35.153" viewBox="0 0 35.153 35.153"><g transform="translate(0)"><g transform="translate(0 0)"><path d="M17.577,35.153A17.577,17.577,0,1,1,35.153,17.576,17.595,17.595,0,0,1,17.577,35.153Z" fill="#75b1dc"/><g transform="translate(4.277 4.273)"><g transform="translate(0 10.171)"><path d="M6.027,12.707,7.439,14.64l2.272-.75-1.4,1.941L9.728,17.76l-2.276-.73-1.4,1.941-.008-2.391-2.28-.734L6.035,15.1Z" transform="translate(-3.762 -12.707)" fill="#fff"/><path d="M25.615,12.707,24.2,14.64l-2.272-.75,1.4,1.941L21.914,17.76l2.276-.73,1.4,1.941.008-2.391,2.28-.734L25.607,15.1Z" transform="translate(-1.281 -12.707)" fill="#fff"/></g><g transform="translate(10.167)"><path d="M15.839,3.759l.737,2.276h2.395l-1.937,1.4.742,2.276L15.839,8.308,13.9,9.716l.742-2.276-1.937-1.4H15.1Z" transform="translate(-12.707 -3.759)" fill="#fff"/><path d="M15.839,27.882,15.1,25.609H12.707L14.644,24.2,13.9,21.928l1.938,1.4,1.937-1.4L17.035,24.2l1.937,1.408H16.577Z" transform="translate(-12.707 -1.275)" fill="#fff"/></g></g></g></g></svg>