<svg xmlns="http://www.w3.org/2000/svg" width="35.153" height="35.153" viewBox="0 0 35.153 35.153"><g transform="translate(0)"><g transform="translate(0 0)"><path d="M35.153,17.576a17.224,17.224,0,0,1-.246,2.916c-.082.5-.184.995-.311,1.483a17.579,17.579,0,0,1-34.039,0c-.127-.489-.23-.982-.313-1.483a17.515,17.515,0,0,1,0-5.831c.083-.5.185-.993.313-1.483a17.58,17.58,0,0,1,34.039,0c.127.49.23.983.311,1.483A17.273,17.273,0,0,1,35.153,17.576Z" fill="#75aada"/><path d="M35.153,15.991a17.224,17.224,0,0,1-.246,2.916c-.082.5-.184.995-.311,1.483H.557C.43,19.9.327,19.408.244,18.907a17.515,17.515,0,0,1,0-5.831c.083-.5.185-.993.313-1.483H34.6c.127.49.23.983.311,1.483A17.273,17.273,0,0,1,35.153,15.991Z" transform="translate(0 1.585)" fill="#fff"/><path d="M35.153,15.813a17.224,17.224,0,0,1-.246,2.916H.244a17.515,17.515,0,0,1,0-5.831H34.908A17.273,17.273,0,0,1,35.153,15.813Z" transform="translate(0 1.763)"/></g></g></svg>