<svg xmlns="http://www.w3.org/2000/svg" width="35.149" height="35.153" viewBox="0 0 35.149 35.153"><g transform="translate(0 0)"><path d="M33.257,10.06H1.485a17.573,17.573,0,0,1,31.772,0Z" transform="translate(0.203)" fill="#0bac2f"/><path d="M33.257,22.074A17.57,17.57,0,0,1,2.539,23.98a18.036,18.036,0,0,1-1.054-1.906Z" transform="translate(0.203 3.018)" fill="#0bac2f"/><path d="M35.149,16.366a17.441,17.441,0,0,1-1.688,7.516H1.688a17.577,17.577,0,0,1,0-15.032H33.461A17.445,17.445,0,0,1,35.149,16.366Z" transform="translate(0 1.21)" fill="#fecd17"/><path d="M12.171,16.6,4.648,24.111,2.742,26.017a18.036,18.036,0,0,1-1.054-1.906A17.531,17.531,0,0,1,2.742,7.174L4.648,9.079Z" transform="translate(0 0.981)" fill="#d11133"/><g transform="translate(13.11 13.023)"><path d="M16.323,11.457l1.128,3.48h3.657L18.15,17.083l1.128,3.48-2.955-2.15-2.959,2.15,1.128-3.48-2.959-2.146h3.657Z" transform="translate(-11.533 -11.457)"/><path d="M26.152,11.457l1.128,3.48h3.657l-2.959,2.146,1.132,3.48-2.959-2.15-2.959,2.15,1.128-3.48-2.955-2.146h3.653Z" transform="translate(-10.189 -11.457)"/></g></g></svg>