<svg xmlns="http://www.w3.org/2000/svg" width="35.169" height="35.169" viewBox="0 0 35.169 35.169"><g transform="translate(0)"><g transform="translate(0 0)"><path d="M12.23.736v33.5a17.582,17.582,0,0,1,0-33.5Z" transform="translate(0 0.101)" fill="red"/><g transform="translate(12.23)"><path d="M32.7,20.627A17.617,17.617,0,0,1,16.114,32.349a17.424,17.424,0,0,1-5.355-.837V20.627Z" transform="translate(-10.759 2.82)"/><path d="M32.7,11.725H10.759V.837A17.425,17.425,0,0,1,16.114,0,17.616,17.616,0,0,1,32.7,11.725Z" transform="translate(-10.759 0)" fill="#00732f"/><path d="M33.7,16.174a17.484,17.484,0,0,1-1,5.863H10.759V10.315H32.7A17.448,17.448,0,0,1,33.7,16.174Z" transform="translate(-10.759 1.41)" fill="#fff"/></g></g></g></svg>