<svg xmlns="http://www.w3.org/2000/svg" width="35.153" height="35.153" viewBox="0 0 35.153 35.153"><g transform="translate(0 0)"><path d="M34.026,11.717H.885a17.576,17.576,0,0,1,33.141,0Z" transform="translate(0.121)" fill="#ce1126"/><path d="M34.026,20.616a17.575,17.575,0,0,1-33.141,0Z" transform="translate(0.121 2.819)" fill="#3a7728"/><path d="M35.153,16.167a17.67,17.67,0,0,1-.426,3.851,17.046,17.046,0,0,1-.58,2.007H1.006a16.22,16.22,0,0,1-.58-2.007,17.605,17.605,0,0,1,0-7.7,16.468,16.468,0,0,1,.58-2.009H34.147a17.32,17.32,0,0,1,.58,2.009A17.691,17.691,0,0,1,35.153,16.167Z" transform="translate(0 1.409)" fill="#0c1c8c"/><path d="M34.676,12.317H.375a16.468,16.468,0,0,1,.58-2.009H34.1A17.32,17.32,0,0,1,34.676,12.317Z" transform="translate(0.051 1.409)" fill="#fff"/><path d="M34.676,18.85a17.046,17.046,0,0,1-.58,2.007H.955a16.22,16.22,0,0,1-.58-2.007Z" transform="translate(0.051 2.577)" fill="#fff"/></g></svg>