<svg xmlns="http://www.w3.org/2000/svg" width="49.467" height="11.601" viewBox="0 0 49.467 11.601"><g transform="translate(0 0)"><g transform="translate(0 0)"><path d="M23.564,1.034v.339q0,4.506.007,9.012a1.388,1.388,0,0,0,.146.618.877.877,0,0,0,.88.386q3.588,0,7.175,0a1.924,1.924,0,0,0,1.1-.332c.767-.51,1.544-1,2.317-1.507q4.364-2.835,8.728-5.667a1.61,1.61,0,0,1,.286-.116,1.9,1.9,0,0,1,.051.309q0,3.631,0,7.262a1.169,1.169,0,0,0,.06.262,1.261,1.261,0,0,0,.253-.086c1.268-.755,2.52-1.538,3.8-2.264a1.952,1.952,0,0,0,1.095-1.908c-.035-2.11-.011-4.222-.011-6.332a.808.808,0,0,0-.879-.891c-1.131,0-2.262,0-3.393,0A1.528,1.528,0,0,0,44.33.38Q40.908,2.6,37.484,4.825l-7.1,4.611c-.483.314-.965.628-1.45.937a.272.272,0,0,1-.193.04c-.029-.008-.035-.11-.046-.171a.609.609,0,0,1,0-.108q0-3.188,0-6.376c0-.922,0-1.844,0-2.767a.8.8,0,0,0-.6-.842,1.847,1.847,0,0,0-.408-.032q-3.685,0-7.37,0a1.687,1.687,0,0,0-.9.247q-1.449.879-2.9,1.748Q14.1,3.555,11.7,5,8.587,6.864,5.48,8.734a2.142,2.142,0,0,1-.262.11v-.32q0-4.085,0-8.169a1.684,1.684,0,0,0,0-.173c-.02-.193-.083-.228-.25-.127q-2.1,1.261-4.2,2.526A1.5,1.5,0,0,0,.006,3.929q-.013,3.317,0,6.635a.787.787,0,0,0,.62.784,1.942,1.942,0,0,0,.429.04q2.313,0,4.625,0a1.826,1.826,0,0,0,.97-.243q2.634-1.589,5.274-3.168c.269-.162.274-.164.491.052q1.512,1.513,3.024,3.026a.963.963,0,0,0,.689.307c.691.012,1.382.023,2.073.027q1.4.006,2.81,0a1.268,1.268,0,0,0,.3-.075,1.239,1.239,0,0,0-.156-.26q-1.806-1.815-3.619-3.623-.787-.786-1.574-1.572c-.159-.159-.15-.207.037-.327.03-.019.061-.037.092-.056q3.6-2.163,7.2-4.325A2.367,2.367,0,0,1,23.564,1.034Z" transform="translate(0 0)" fill="#cacee6"/><path d="M23.564,1.034a2.367,2.367,0,0,0-.277.115q-3.6,2.161-7.2,4.325c-.031.019-.062.037-.092.056-.188.12-.2.167-.037.327q.785.788,1.574,1.572,1.811,1.81,3.619,3.623a1.239,1.239,0,0,1,.156.26,1.268,1.268,0,0,1-.3.075q-1.4.009-2.81,0c-.691,0-1.382-.015-2.073-.027a.963.963,0,0,1-.689-.307Q13.927,9.54,12.411,8.03c-.217-.217-.222-.214-.491-.052Q9.284,9.563,6.647,11.147a1.826,1.826,0,0,1-.97.243q-2.313,0-4.625,0a1.942,1.942,0,0,1-.429-.04A.787.787,0,0,1,0,10.564Q0,7.247.006,3.929A1.5,1.5,0,0,1,.765,2.581q2.1-1.266,4.2-2.526c.167-.1.23-.066.25.127a1.684,1.684,0,0,1,0,.173q0,4.085,0,8.169v.32a2.142,2.142,0,0,0,.262-.11Q8.589,6.867,11.7,5,14.1,3.552,16.511,2.111q1.453-.872,2.9-1.748a1.687,1.687,0,0,1,.9-.247q3.685,0,7.37,0a1.847,1.847,0,0,1,.408.032.8.8,0,0,1,.6.842c0,.922,0,1.844,0,2.767q0,3.188,0,6.376a.609.609,0,0,0,0,.108c.011.061.017.163.046.171a.272.272,0,0,0,.193-.04c.486-.309.968-.623,1.45-.937l7.1-4.611Q40.907,2.6,44.33.38a1.528,1.528,0,0,1,.853-.263c1.131,0,2.262,0,3.393,0a.808.808,0,0,1,.879.891c0,2.111-.024,4.222.011,6.332a1.952,1.952,0,0,1-1.095,1.908c-1.284.726-2.536,1.509-3.8,2.264a1.261,1.261,0,0,1-.253.086,1.169,1.169,0,0,1-.06-.262q0-3.631,0-7.262a1.9,1.9,0,0,0-.051-.309,1.61,1.61,0,0,0-.286.116q-4.366,2.831-8.728,5.667c-.773.5-1.55,1-2.317,1.507a1.924,1.924,0,0,1-1.1.332q-3.588,0-7.175,0a.877.877,0,0,1-.88-.386,1.388,1.388,0,0,1-.146-.618q-.014-4.506-.007-9.012Z" transform="translate(0 0)" fill="#cacee6"/></g></g></svg>