<svg xmlns="http://www.w3.org/2000/svg" width="34.999" height="35.093" viewBox="0 0 34.999 35.093">
  <g id="Antigua_and_Barbuda" data-name="Antigua and Barbuda" transform="translate(-499.749 -898.599)">
    <path id="Path_10303" data-name="Path 10303" d="M237.492,151.9l-10.257,13.7A17.514,17.514,0,0,0,244,143.226l-.775,1.03Z" transform="translate(290.063 768)" fill="#cc1427"/>
    <path id="Path_10304" data-name="Path 10304" d="M211.108,144.255l-.744-.993A17.512,17.512,0,0,0,227.1,165.6l-10.277-13.7Z" transform="translate(290.063 768)" fill="#cc1427"/>
    <path id="Path_10305" data-name="Path 10305" d="M227.186,165.6H227.1l.07.094.07-.093h-.049" transform="translate(290.063 768)" fill="#fff"/>
    <path id="Path_10306" data-name="Path 10306" d="M216.818,151.9l10.276,13.7h.142l10.256-13.7Z" transform="translate(290.063 768)" fill="#fff"/>
    <path id="Path_10307" data-name="Path 10307" d="M237.492,151.9l5.73-7.647H211.107l5.71,7.647Z" transform="translate(290.063 768)" fill="#1d70b6"/>
    <path id="Path_10308" data-name="Path 10308" d="M227.186,130.6a17.509,17.509,0,0,0-16.823,12.663l.745.993h4.7l5.606-1.134-4.823-3.2,5.73,1.092-3.257-4.844,4.865,3.175-1.113-5.669,3.2,4.865,1.165-5.71,1.123,5.627,3.257-4.761-1.092,5.627,4.823-3.174-3.216,4.864,5.69-1.113-4.845,3.237,5.628,1.113h4.679l.775-1.03A17.509,17.509,0,0,0,227.186,130.6" transform="translate(290.063 768)"/>
    <path id="Path_10309" data-name="Path 10309" d="M232.916,143.142l4.844-3.236-5.689,1.113,3.216-4.865-4.824,3.175,1.093-5.628-3.257,4.762-1.124-5.628-1.164,5.71-3.195-4.864,1.113,5.668-4.865-3.174,3.257,4.844-5.731-1.093,4.824,3.195-5.607,1.134h22.736Z" transform="translate(290.063 768)" fill="#fcd018"/>
  </g>
</svg>
