<svg xmlns="http://www.w3.org/2000/svg" width="35.153" height="35.153" viewBox="0 0 35.153 35.153"><g transform="translate(0.001)"><g transform="translate(-0.001 0)"><path d="M32.51,8.786H2.072a17.574,17.574,0,0,1,30.438,0Z" transform="translate(0.283)" fill="#0a2f9f"/><path d="M32.51,23.192a17.57,17.57,0,0,1-30.438,0Z" transform="translate(0.283 3.171)" fill="#0a2f9f"/><path d="M35.153,16.519a17.461,17.461,0,0,1-2.36,8.787H2.355a17.575,17.575,0,0,1,0-17.577H32.793A17.486,17.486,0,0,1,35.153,16.519Z" transform="translate(0 1.057)" fill="#df0324"/><path d="M28.158,22.528h-.5V21.5a.054.054,0,0,0-.056-.056h-.5v-.9a.053.053,0,0,0-.056-.055h-.5v-.659a.054.054,0,0,0-.056-.056H26.19v-.5a.057.057,0,0,0-.056-.056h-.426c-.118-.019-.244-.177-.327-.3V16.973l.359-.391a.045.045,0,0,0,.016-.035V14.854a.058.058,0,0,0-.024-.048.067.067,0,0,0-.048-.008.756.756,0,0,0-.268.182V14.5a.066.066,0,0,0-.008-.032.218.218,0,0,0-.146-.083.174.174,0,0,0-.15.078.04.04,0,0,0-.015.036v.114h-.316v-.718a.054.054,0,0,0-.056-.055.056.056,0,0,0-.056.048v0l-.007.016-.008.016a.708.708,0,0,1-.056.106c-.067.1-.134.155-.217.15a.047.047,0,0,1-.016,0s-.011-.019.013-.08a.582.582,0,0,1,.035-.07.256.256,0,0,0,.027-.048.726.726,0,0,0,.08-.371.305.305,0,0,0-.068-.236.056.056,0,0,0-.055-.013.047.047,0,0,0-.035.044.229.229,0,0,1-.091.142.052.052,0,0,1-.027.011c-.008-.008-.02-.043.082-.233l0,0a.488.488,0,0,0,0-.4.061.061,0,0,0-.051-.027.055.055,0,0,0-.048.04.557.557,0,0,1-.078.161c0-.048.019-.118.027-.169a1.531,1.531,0,0,0,.04-.265.572.572,0,0,0-.051-.268.05.05,0,0,0-.056-.027.055.055,0,0,0-.048.04,1.192,1.192,0,0,1-.055.189.9.9,0,0,1-.019-.209c0-.166-.091-.529-.351-.6-.028-.13-.056-.264-.217-.264s-.186.134-.214.264c-.264.067-.351.43-.351.6a1.247,1.247,0,0,1-.019.209,1.958,1.958,0,0,1-.059-.189.051.051,0,0,0-.043-.04.058.058,0,0,0-.059.027.629.629,0,0,0-.051.268,1.518,1.518,0,0,0,.039.265,1.192,1.192,0,0,1,.032.169.53.53,0,0,1-.078-.161.067.067,0,0,0-.048-.04.07.07,0,0,0-.056.027.521.521,0,0,0,0,.4l0,0c.107.19.091.225.086.233a.063.063,0,0,1-.032-.011.221.221,0,0,1-.086-.142.055.055,0,0,0-.04-.044.049.049,0,0,0-.051.013.314.314,0,0,0-.067.241.689.689,0,0,0,.075.366c.013.016.016.032.027.048a.641.641,0,0,1,.04.07c.02.06.013.08.013.08a.056.056,0,0,1-.02,0c-.078,0-.15-.047-.213-.15a.453.453,0,0,1-.059-.106l-.008-.016,0-.013a.054.054,0,0,0-.059-.051.05.05,0,0,0-.051.051v1.287h-.41A.537.537,0,0,0,21.5,15.1a.043.043,0,0,0-.043.011.049.049,0,0,0-.024.043v.051H19.317V13.986a.05.05,0,0,0-.036-.047.041.041,0,0,0-.055.008l-.281.248a.05.05,0,0,0-.019.04v.209h-.139a.364.364,0,0,1-.126-.276c.013-.086.091-.166.233-.225a.052.052,0,0,0,.032-.051v-.438a.051.051,0,0,0-.051-.056c-.02,0-.169,0-.383.252a.16.16,0,0,0-.118-.059.149.149,0,0,0-.126.08.045.045,0,0,0-.008.031v.469H18.18v-.544c.013-.011.04-.035.051-.047a.276.276,0,0,1,.032-.027.473.473,0,0,1,.048-.048.388.388,0,0,0,.138-.206.907.907,0,0,0-.032-.433.053.053,0,0,0-.1,0c-.011.02-.019.04-.031.059a.749.749,0,0,1-.08.147.1.1,0,0,1-.067.051v-.155a.342.342,0,0,1,.107-.209l.011-.015a1.443,1.443,0,0,0,.174-.257.65.65,0,0,0-.051-.556.047.047,0,0,0-.056-.024.056.056,0,0,0-.043.047.965.965,0,0,1-.083.3c-.024.043-.031.055-.051.059a.439.439,0,0,1-.067,0v-.276a.863.863,0,0,0,.169-.383.687.687,0,0,0-.1-.379.05.05,0,0,0-.051-.016.076.076,0,0,0-.04.04c-.016.055-.027.106-.039.15a.552.552,0,0,1-.064.185h-.083V11.4a.793.793,0,0,0,.177-.382.3.3,0,0,0-.067-.228.054.054,0,0,0-.051-.016.08.08,0,0,0-.039.039.776.776,0,0,1-.1.225h-.107v-.11a.471.471,0,0,0,.185-.3.214.214,0,0,0-.086-.169.055.055,0,0,0-.075,0l-.11.11h-.028l.1-.39a.052.052,0,0,0-.013-.048.059.059,0,0,0-.043-.019h-.067l.048-.23a.047.047,0,0,0-.013-.043.063.063,0,0,0-.043-.019h-.07l.024-.155a.036.036,0,0,0-.013-.039.05.05,0,0,0-.043-.02h-.166l.032-.181a.049.049,0,0,0-.011-.044.05.05,0,0,0-.04-.019h-.161a.4.4,0,0,0-.044-.268.261.261,0,0,0-.2-.115.039.039,0,0,0-.02,0s-.007,0-.015,0a.278.278,0,0,0-.2.115.417.417,0,0,0-.043.268h-.158a.063.063,0,0,0-.043.019.047.047,0,0,0-.013.044l.036.181h-.171a.04.04,0,0,0-.039.02.046.046,0,0,0-.016.039l.027.155h-.075a.055.055,0,0,0-.051.063l.043.23h-.067a.061.061,0,0,0-.043.019.052.052,0,0,0-.011.048l.094.39h-.027l-.11-.11a.055.055,0,0,0-.075,0,.207.207,0,0,0-.083.169.471.471,0,0,0,.181.3v.11h-.1a.757.757,0,0,1-.1-.225.057.057,0,0,0-.04-.039.058.058,0,0,0-.051.016.315.315,0,0,0-.064.228.792.792,0,0,0,.175.382v.23h-.08c-.024-.013-.048-.1-.067-.185a.958.958,0,0,0-.04-.15.054.054,0,0,0-.04-.04.048.048,0,0,0-.05.016.677.677,0,0,0-.1.379.876.876,0,0,0,.169.383v.276a.379.379,0,0,1-.063,0c-.02,0-.028-.016-.056-.064a.892.892,0,0,1-.078-.292.061.061,0,0,0-.043-.047.051.051,0,0,0-.06.024.64.64,0,0,0-.047.556,1.4,1.4,0,0,0,.169.257l.011.015a.31.31,0,0,1,.107.209v.155a.133.133,0,0,1-.067-.051.984.984,0,0,1-.078-.147.4.4,0,0,0-.028-.059.056.056,0,0,0-.051-.032.055.055,0,0,0-.047.036.854.854,0,0,0-.032.433.389.389,0,0,0,.139.206l.047.048c0,.007.016.015.027.027s.044.035.056.047v.544h-.059V13.7a.051.051,0,0,0-.013-.031.14.14,0,0,0-.126-.08.17.17,0,0,0-.118.059c-.213-.248-.363-.252-.379-.252a.053.053,0,0,0-.055.056v.438a.052.052,0,0,0,.031.051c.142.059.222.139.238.225a.36.36,0,0,1-.127.276h-.141v-.209a.048.048,0,0,0-.02-.04l-.276-.248a.047.047,0,0,0-.059-.008.052.052,0,0,0-.032.047v1.223H12.227v-.051a.055.055,0,0,0-.02-.043.05.05,0,0,0-.047-.011.524.524,0,0,0-.158.078h-.41V13.895a.055.055,0,0,0-.11-.007v0l-.008.016-.008.016a.708.708,0,0,1-.056.106.261.261,0,0,1-.217.15.047.047,0,0,1-.016,0s-.011-.019.013-.08c.008-.023.024-.047.035-.07a.341.341,0,0,0,.027-.048.726.726,0,0,0,.08-.371.34.34,0,0,0-.067-.236.059.059,0,0,0-.056-.013.052.052,0,0,0-.035.044.229.229,0,0,1-.091.142.052.052,0,0,1-.027.011c-.008-.008-.02-.043.086-.233v0a.522.522,0,0,0,0-.4.077.077,0,0,0-.056-.027.061.061,0,0,0-.048.04.438.438,0,0,1-.083.161c.008-.048.02-.118.032-.169a1.463,1.463,0,0,0,.043-.265.546.546,0,0,0-.055-.268.053.053,0,0,0-.056-.027.052.052,0,0,0-.047.04c-.016.063-.036.138-.056.189a.966.966,0,0,1-.019-.209c0-.166-.091-.529-.351-.6-.028-.13-.056-.264-.217-.264s-.19.134-.214.264c-.26.067-.35.43-.35.6a.888.888,0,0,1-.02.209,1.958,1.958,0,0,1-.059-.189.049.049,0,0,0-.043-.04.058.058,0,0,0-.059.027.629.629,0,0,0-.051.268,1.518,1.518,0,0,0,.039.265,1.193,1.193,0,0,1,.032.169.461.461,0,0,1-.078-.161.067.067,0,0,0-.048-.04.066.066,0,0,0-.055.027.511.511,0,0,0,0,.4l0,0c.1.19.094.225.086.233a.052.052,0,0,1-.027-.011A.229.229,0,0,1,9.3,13.4a.052.052,0,0,0-.035-.044.066.066,0,0,0-.059.013.327.327,0,0,0-.064.241.723.723,0,0,0,.075.366c.008.016.02.032.028.048a.291.291,0,0,1,.039.07c.02.06.013.08.013.08a.054.054,0,0,1-.019,0c-.08,0-.15-.047-.214-.15-.019-.031-.04-.067-.059-.106L9,13.907l-.008-.013a.05.05,0,0,0-.051-.051.054.054,0,0,0-.059.051v.718H8.561V14.5a.05.05,0,0,0-.011-.036.187.187,0,0,0-.155-.078.211.211,0,0,0-.142.083.048.048,0,0,0-.007.032v.481a.767.767,0,0,0-.268-.182.08.08,0,0,0-.052.008.057.057,0,0,0-.019.048v1.693a.062.062,0,0,0,.011.035l.359.391v1.953c-.078.118-.2.276-.323.3H7.528a.054.054,0,0,0-.056.056v.5H7.161a.056.056,0,0,0-.055.056v.659h-.5a.055.055,0,0,0-.055.055v.9H6.061A.054.054,0,0,0,6,21.5v1.03H5.5a.053.053,0,0,0-.055.055v1.086a.056.056,0,0,0,.055.055H28.158a.06.06,0,0,0,.056-.055V22.583A.056.056,0,0,0,28.158,22.528Z" transform="translate(0.745 1.227)" fill="#fff"/><path d="M28.158,22.528h-.5V21.5a.054.054,0,0,0-.056-.056h-.5v-.9a.053.053,0,0,0-.056-.055h-.5v-.659a.054.054,0,0,0-.056-.056H26.19v-.5a.057.057,0,0,0-.056-.056h-.426c-.118-.019-.244-.177-.327-.3V16.973l.359-.391a.045.045,0,0,0,.016-.035V14.854a.058.058,0,0,0-.024-.048.067.067,0,0,0-.048-.008.756.756,0,0,0-.268.182V14.5a.066.066,0,0,0-.008-.032.218.218,0,0,0-.146-.083.174.174,0,0,0-.15.078.04.04,0,0,0-.015.036v.114h-.316v-.718a.054.054,0,0,0-.056-.055.056.056,0,0,0-.056.048v0l-.007.016-.008.016a.708.708,0,0,1-.056.106c-.067.1-.134.155-.217.15a.047.047,0,0,1-.016,0s-.011-.019.013-.08a.582.582,0,0,1,.035-.07.256.256,0,0,0,.027-.048.726.726,0,0,0,.08-.371.305.305,0,0,0-.068-.236.056.056,0,0,0-.055-.013.047.047,0,0,0-.035.044.229.229,0,0,1-.091.142.052.052,0,0,1-.027.011c-.008-.008-.02-.043.082-.233l0,0a.488.488,0,0,0,0-.4.061.061,0,0,0-.051-.027.055.055,0,0,0-.048.04.557.557,0,0,1-.078.161c0-.048.019-.118.027-.169a1.531,1.531,0,0,0,.04-.265.572.572,0,0,0-.051-.268.05.05,0,0,0-.056-.027.055.055,0,0,0-.048.04,1.192,1.192,0,0,1-.055.189.9.9,0,0,1-.019-.209c0-.166-.091-.529-.351-.6-.028-.13-.056-.264-.217-.264s-.186.134-.214.264c-.264.067-.351.43-.351.6a1.247,1.247,0,0,1-.019.209,1.958,1.958,0,0,1-.059-.189.051.051,0,0,0-.043-.04.058.058,0,0,0-.059.027.629.629,0,0,0-.051.268,1.518,1.518,0,0,0,.039.265,1.192,1.192,0,0,1,.032.169.53.53,0,0,1-.078-.161.067.067,0,0,0-.048-.04.07.07,0,0,0-.056.027.521.521,0,0,0,0,.4l0,0c.107.19.091.225.086.233a.063.063,0,0,1-.032-.011.221.221,0,0,1-.086-.142.055.055,0,0,0-.04-.044.049.049,0,0,0-.051.013.314.314,0,0,0-.067.241.689.689,0,0,0,.075.366c.013.016.016.032.027.048a.641.641,0,0,1,.04.07c.02.06.013.08.013.08a.056.056,0,0,1-.02,0c-.078,0-.15-.047-.213-.15a.453.453,0,0,1-.059-.106l-.008-.016,0-.013a.054.054,0,0,0-.059-.051.05.05,0,0,0-.051.051v1.287h-.41A.537.537,0,0,0,21.5,15.1a.043.043,0,0,0-.043.011.049.049,0,0,0-.024.043v.051H19.317V13.986a.05.05,0,0,0-.036-.047.041.041,0,0,0-.055.008l-.281.248a.05.05,0,0,0-.019.04v.209h-.139a.364.364,0,0,1-.126-.276c.013-.086.091-.166.233-.225a.052.052,0,0,0,.032-.051v-.438a.051.051,0,0,0-.051-.056c-.02,0-.169,0-.383.252a.16.16,0,0,0-.118-.059.149.149,0,0,0-.126.08.045.045,0,0,0-.008.031v.469H18.18v-.544c.013-.011.04-.035.051-.047a.276.276,0,0,1,.032-.027.473.473,0,0,1,.048-.048.388.388,0,0,0,.138-.206.907.907,0,0,0-.032-.433.053.053,0,0,0-.1,0c-.011.02-.019.04-.031.059a.749.749,0,0,1-.08.147.1.1,0,0,1-.067.051v-.155a.342.342,0,0,1,.107-.209l.011-.015a1.443,1.443,0,0,0,.174-.257.65.65,0,0,0-.051-.556.047.047,0,0,0-.056-.024.056.056,0,0,0-.043.047.965.965,0,0,1-.083.3c-.024.043-.031.055-.051.059a.439.439,0,0,1-.067,0v-.276a.863.863,0,0,0,.169-.383.687.687,0,0,0-.1-.379.05.05,0,0,0-.051-.016.076.076,0,0,0-.04.04c-.016.055-.027.106-.039.15a.552.552,0,0,1-.064.185h-.083V11.4a.793.793,0,0,0,.177-.382.3.3,0,0,0-.067-.228.054.054,0,0,0-.051-.016.08.08,0,0,0-.039.039.776.776,0,0,1-.1.225h-.107v-.11a.471.471,0,0,0,.185-.3.214.214,0,0,0-.086-.169.055.055,0,0,0-.075,0l-.11.11h-.028l.1-.39a.052.052,0,0,0-.013-.048.059.059,0,0,0-.043-.019h-.067l.048-.23a.047.047,0,0,0-.013-.043.063.063,0,0,0-.043-.019h-.07l.024-.155a.036.036,0,0,0-.013-.039.05.05,0,0,0-.043-.02h-.166l.032-.181a.049.049,0,0,0-.011-.044.05.05,0,0,0-.04-.019h-.161a.4.4,0,0,0-.044-.268.261.261,0,0,0-.2-.115.039.039,0,0,0-.02,0s-.007,0-.015,0a.278.278,0,0,0-.2.115.417.417,0,0,0-.043.268h-.158a.063.063,0,0,0-.043.019.047.047,0,0,0-.013.044l.036.181h-.171a.04.04,0,0,0-.039.02.046.046,0,0,0-.016.039l.027.155h-.075a.055.055,0,0,0-.051.063l.043.23h-.067a.061.061,0,0,0-.043.019.052.052,0,0,0-.011.048l.094.39h-.027l-.11-.11a.055.055,0,0,0-.075,0,.207.207,0,0,0-.083.169.471.471,0,0,0,.181.3v.11h-.1a.757.757,0,0,1-.1-.225.057.057,0,0,0-.04-.039.058.058,0,0,0-.051.016.315.315,0,0,0-.064.228.792.792,0,0,0,.175.382v.23h-.08c-.024-.013-.048-.1-.067-.185a.958.958,0,0,0-.04-.15.054.054,0,0,0-.04-.04.048.048,0,0,0-.05.016.677.677,0,0,0-.1.379.876.876,0,0,0,.169.383v.276a.379.379,0,0,1-.063,0c-.02,0-.028-.016-.056-.064a.892.892,0,0,1-.078-.292.061.061,0,0,0-.043-.047.051.051,0,0,0-.06.024.64.64,0,0,0-.047.556,1.4,1.4,0,0,0,.169.257l.011.015a.31.31,0,0,1,.107.209v.155a.133.133,0,0,1-.067-.051.984.984,0,0,1-.078-.147.4.4,0,0,0-.028-.059.056.056,0,0,0-.051-.032.055.055,0,0,0-.047.036.854.854,0,0,0-.032.433.389.389,0,0,0,.139.206l.047.048c0,.007.016.015.027.027s.044.035.056.047v.544h-.059V13.7a.051.051,0,0,0-.013-.031.14.14,0,0,0-.126-.08.17.17,0,0,0-.118.059c-.213-.248-.363-.252-.379-.252a.053.053,0,0,0-.055.056v.438a.052.052,0,0,0,.031.051c.142.059.222.139.238.225a.36.36,0,0,1-.127.276h-.141v-.209a.048.048,0,0,0-.02-.04l-.276-.248a.047.047,0,0,0-.059-.008.052.052,0,0,0-.032.047v1.223H12.227v-.051a.055.055,0,0,0-.02-.043.05.05,0,0,0-.047-.011.524.524,0,0,0-.158.078h-.41V13.895a.055.055,0,0,0-.11-.007v0l-.008.016-.008.016a.708.708,0,0,1-.056.106.261.261,0,0,1-.217.15.047.047,0,0,1-.016,0s-.011-.019.013-.08c.008-.023.024-.047.035-.07a.341.341,0,0,0,.027-.048.726.726,0,0,0,.08-.371.34.34,0,0,0-.067-.236.059.059,0,0,0-.056-.013.052.052,0,0,0-.035.044.229.229,0,0,1-.091.142.052.052,0,0,1-.027.011c-.008-.008-.02-.043.086-.233v0a.522.522,0,0,0,0-.4.077.077,0,0,0-.056-.027.061.061,0,0,0-.048.04.438.438,0,0,1-.083.161c.008-.048.02-.118.032-.169a1.463,1.463,0,0,0,.043-.265.546.546,0,0,0-.055-.268.053.053,0,0,0-.056-.027.052.052,0,0,0-.047.04c-.016.063-.036.138-.056.189a.966.966,0,0,1-.019-.209c0-.166-.091-.529-.351-.6-.028-.13-.056-.264-.217-.264s-.19.134-.214.264c-.26.067-.35.43-.35.6a.888.888,0,0,1-.02.209,1.958,1.958,0,0,1-.059-.189.049.049,0,0,0-.043-.04.058.058,0,0,0-.059.027.629.629,0,0,0-.051.268,1.518,1.518,0,0,0,.039.265,1.193,1.193,0,0,1,.032.169.461.461,0,0,1-.078-.161.067.067,0,0,0-.048-.04.066.066,0,0,0-.055.027.511.511,0,0,0,0,.4l0,0c.1.19.094.225.086.233a.052.052,0,0,1-.027-.011A.229.229,0,0,1,9.3,13.4a.052.052,0,0,0-.035-.044.066.066,0,0,0-.059.013.327.327,0,0,0-.064.241.723.723,0,0,0,.075.366c.008.016.02.032.028.048a.291.291,0,0,1,.039.07c.02.06.013.08.013.08a.054.054,0,0,1-.019,0c-.08,0-.15-.047-.214-.15-.019-.031-.04-.067-.059-.106L9,13.907l-.008-.013a.05.05,0,0,0-.051-.051.054.054,0,0,0-.059.051v.718H8.561V14.5a.05.05,0,0,0-.011-.036.187.187,0,0,0-.155-.078.211.211,0,0,0-.142.083.048.048,0,0,0-.007.032v.481a.767.767,0,0,0-.268-.182.08.08,0,0,0-.052.008.057.057,0,0,0-.019.048v1.693a.062.062,0,0,0,.011.035l.359.391v1.953c-.078.118-.2.276-.323.3H7.528a.054.054,0,0,0-.056.056v.5H7.161a.056.056,0,0,0-.055.056v.659h-.5a.055.055,0,0,0-.055.055v.9H6.061A.054.054,0,0,0,6,21.5v1.03H5.5a.053.053,0,0,0-.055.055v1.086a.056.056,0,0,0,.055.055H28.158a.06.06,0,0,0,.056-.055V22.583A.056.056,0,0,0,28.158,22.528Zm-.612-.975v.975H24.162v-.975Zm-11.5-4.979v-.465a.657.657,0,0,1,.2.185.055.055,0,0,0,.059.019.048.048,0,0,0,.04-.04,1.23,1.23,0,0,1,.474-.835,1.247,1.247,0,0,1,.473.835.05.05,0,0,0,.04.04.045.045,0,0,0,.055-.019.675.675,0,0,1,.2-.185v.465Zm1.463.107-.094.134a.044.044,0,0,0-.011.032v1.94h-.15V16.681Zm-.366,0v2.106h-.675V16.681Zm-7.674-.107v-.446a.758.758,0,0,1,.351.292.058.058,0,0,0,.059.027.053.053,0,0,0,.043-.048,1.052,1.052,0,0,1,.308-.631,1.033,1.033,0,0,1,.308.631.057.057,0,0,0,.047.048.056.056,0,0,0,.056-.027A.775.775,0,0,1,11,16.128v.446Zm1.092.107v2.106H9.907V16.681ZM9.185,18.9a.425.425,0,0,1-.268.324H8.376a.686.686,0,0,0,.166-.324Zm-.372-.11V17.438h.217v1.349Zm.485.11h.244a.766.766,0,0,1-.228.324H9.13A.675.675,0,0,0,9.3,18.9Zm.067-2.268c0,.008,0,.016,0,.019v0l0,.008.19.256v1.87H9.307V16.748a.05.05,0,0,0-.016-.04l-.225-.225h.3v.147Zm.3,2.268H9.8v.324H9.473A.974.974,0,0,0,9.663,18.9Zm.011-.11V16.9a.1.1,0,0,0-.008-.032l-.138-.185H9.8v2.106Zm.426-5.859a.652.652,0,0,1,.134-.193.589.589,0,0,1,.134.193.055.055,0,0,0,.04.035.057.057,0,0,0,.051-.011.465.465,0,0,1,.07-.043v.11l-.078.1a.447.447,0,0,0-.2-.131l0,0h-.023l0,0a.417.417,0,0,0-.2.131l-.082-.1v-.11a.465.465,0,0,1,.07.043.056.056,0,0,0,.051.011A.046.046,0,0,0,10.1,12.929Zm-.147-.311v-.072a.315.315,0,0,1,.052.028.049.049,0,0,0,.051.016.063.063,0,0,0,.039-.032.482.482,0,0,1,.139-.209.418.418,0,0,1,.138.209.066.066,0,0,0,.043.032.057.057,0,0,0,.052-.016.475.475,0,0,1,.047-.028v.072l-.13.123a.654.654,0,0,0-.115-.123l0,0-.013,0-.008,0h-.019l-.013,0-.007,0-.008,0a.877.877,0,0,0-.115.123Zm.02.754a.606.606,0,0,1,.26-.276.594.594,0,0,1,.26.276.07.07,0,0,0,.048.032.065.065,0,0,0,.051-.024.234.234,0,0,1,.1-.091v.185l-.142.142a.535.535,0,0,0-.291-.252v0h-.013l-.011,0-.011,0h-.009l0,0a.527.527,0,0,0-.288.252l-.142-.142v-.185a.234.234,0,0,1,.1.091.058.058,0,0,0,.048.024A.063.063,0,0,0,9.974,13.371Zm-.043.5,0-.008c.013-.032.027-.067.043-.1a.481.481,0,0,1,.257-.288.5.5,0,0,1,.26.288c.016.035.027.07.04.1l0,.008a.054.054,0,0,0,.048.035.047.047,0,0,0,.051-.027.318.318,0,0,1,.193-.134V14l-.209.236a1.018,1.018,0,0,0-.359-.466l-.008,0-.008,0h-.019l-.013,0-.007,0a1.01,1.01,0,0,0-.359.466L9.642,14v-.26a.318.318,0,0,1,.19.138.052.052,0,0,0,.055.027A.055.055,0,0,0,9.931,13.867Zm.3.013a1.645,1.645,0,0,1,.43.808.063.063,0,0,0,.051.043.049.049,0,0,0,.051-.031.524.524,0,0,1,.273-.273v.454l-.174.26a.74.74,0,0,0-.142.139,1.028,1.028,0,0,0-.457-.714l0,0h-.008l-.008,0h-.019l-.013,0h-.007l0,0a1.03,1.03,0,0,0-.458.714.548.548,0,0,0-.142-.139l-.168-.26v-.454A.534.534,0,0,1,9.7,14.7a.056.056,0,0,0,.056.031.054.054,0,0,0,.048-.043A1.7,1.7,0,0,1,10.235,13.88Zm-.521,1.581a.058.058,0,0,0,.055.04.057.057,0,0,0,.051-.043,1.09,1.09,0,0,1,.415-.781,1.062,1.062,0,0,1,.414.781.055.055,0,0,0,.107,0,.565.565,0,0,1,.284-.3v.391l-.281.331a1.162,1.162,0,0,0-.5-.572h-.013l-.011,0-.011,0h-.009a.823.823,0,0,0-.3.241,2.089,2.089,0,0,0-.2.331l-.276-.331v-.391A.534.534,0,0,1,9.714,15.461Zm1.037.683a1.175,1.175,0,0,0-.126.114.958.958,0,0,0-.363-.6h-.008l-.008,0-.011,0-.008,0-.013,0h-.007a1,1,0,0,0-.364.6,1.075,1.075,0,0,0-.126-.114c.056-.134.249-.592.517-.718C10.506,15.552,10.7,16.01,10.751,16.144Zm-.078.537h.273l-.139.185a.06.06,0,0,0-.011.032v1.889h-.123Zm.233.236.189-.256,0-.008,0,0s0-.011,0-.019v-.147h.3l-.225.225a.054.054,0,0,0-.016.04v2.039h-.26Zm.268,1.98a.664.664,0,0,0,.166.324h-.2a.761.761,0,0,1-.225-.324Zm.115,0h.639a.731.731,0,0,0,.169.324h-.544A.423.423,0,0,1,11.288,18.9Zm.153-.11V17.438h.213v1.349Zm4.5-2.138,0,0,0,.008.15.2v1.921h-.482V16.428s0-.008,0-.016v0l0,0-.011-.013v0l-.153-.15h.493v.391C15.94,16.638,15.943,16.641,15.943,16.649Zm.016-.867v.153a2.709,2.709,0,0,0-.367-.153Zm-.706-.111v-.647a1.35,1.35,0,0,1,.564.576v.07Zm1.369-4.7a.641.641,0,0,0,.043-.083.609.609,0,0,1,.155-.228.665.665,0,0,1,.153.228.64.64,0,0,0,.043.083.042.042,0,0,0,.04.027.054.054,0,0,0,.047-.015.575.575,0,0,1,.171-.091v.166l-.241.189a1.045,1.045,0,0,0-.161-.233.056.056,0,0,0-.051-.016.046.046,0,0,0-.048.016.914.914,0,0,0-.166.233l-.241-.189v-.166a.575.575,0,0,1,.171.091.055.055,0,0,0,.047.015A.047.047,0,0,0,16.622,10.968Zm-.078-.276V10.5a.407.407,0,0,1,.063.043.059.059,0,0,0,.08,0,.474.474,0,0,0,.082-.1.144.144,0,0,1,.052-.063.181.181,0,0,1,.055.063.48.48,0,0,0,.08.1.058.058,0,0,0,.078,0,.289.289,0,0,1,.063-.043v.193l-.078.04a.47.47,0,0,0-.165-.185v0h0l-.008,0-.008,0h-.024l-.008,0-.008,0h0v0a.491.491,0,0,0-.166.185Zm.059.872a1.19,1.19,0,0,1,.217-.446,1.14,1.14,0,0,1,.216.446.057.057,0,0,0,.048.04.058.058,0,0,0,.056-.027.372.372,0,0,1,.193-.147v.324l-.177.169a1,1,0,0,0-.3-.319.049.049,0,0,0-.039-.008.048.048,0,0,0-.04.008.981.981,0,0,0-.3.319l-.178-.169v-.324a.386.386,0,0,1,.193.147.059.059,0,0,0,.056.027A.062.062,0,0,0,16.6,11.563Zm.217.147a1.5,1.5,0,0,1,.426.623.06.06,0,0,0,.047.035.058.058,0,0,0,.051-.031.563.563,0,0,1,.2-.178V12.5h-.584c-.031-.027-.059-.055-.094-.083a.056.056,0,0,0-.047-.011.058.058,0,0,0-.048.011,1.194,1.194,0,0,0-.094.083H16.1v-.343a.581.581,0,0,1,.2.178.051.051,0,0,0,.048.031.057.057,0,0,0,.051-.035A1.474,1.474,0,0,1,16.82,11.71Zm.492.9a1.35,1.35,0,0,0-.11.166,1.631,1.631,0,0,0-.13-.166Zm-.741,0a1.228,1.228,0,0,0-.134.166,1.231,1.231,0,0,0-.11-.166Zm.249-.09a1.53,1.53,0,0,1,.41.521c.023.04.047.083.074.13a.056.056,0,0,0,.048.028.045.045,0,0,0,.043-.024.615.615,0,0,1,.246-.193v.355h-.608a.5.5,0,0,0-.181-.126.121.121,0,0,0-.032,0,.069.069,0,0,0-.028,0,.481.481,0,0,0-.185.126H16v-.355a.547.547,0,0,1,.24.193.063.063,0,0,0,.048.024.056.056,0,0,0,.048-.028c.027-.047.051-.09.075-.13A1.5,1.5,0,0,1,16.82,12.523Zm.685.926a.646.646,0,0,0-.173.308,2.163,2.163,0,0,0-.2-.308Zm-.993,0a2.076,2.076,0,0,0-.206.308.611.611,0,0,0-.173-.308Zm.308-.13a1.863,1.863,0,0,1,.591.88.056.056,0,0,0,.043.043.05.05,0,0,0,.056-.024.589.589,0,0,1,.3-.26v.426h-.639a.735.735,0,0,0-.323-.308.05.05,0,0,0-.032,0,.051.051,0,0,0-.032,0,.762.762,0,0,0-.327.308h-.635v-.426a.573.573,0,0,1,.3.26.061.061,0,0,0,.059.024.051.051,0,0,0,.043-.043A1.833,1.833,0,0,1,16.82,13.32Zm.915,1.175a1.473,1.473,0,0,0-.193.778.673.673,0,0,0-.048.059,3.1,3.1,0,0,0-.257-.837Zm-1.333,0a3.137,3.137,0,0,0-.257.837.673.673,0,0,0-.048-.059,1.481,1.481,0,0,0-.192-.778Zm-.281,1.019a.052.052,0,0,0,.06.039.059.059,0,0,0,.047-.051c.056-.45.257-1.167.592-1.317.335.15.537.867.591,1.317a.059.059,0,0,0,.048.051.052.052,0,0,0,.059-.039.658.658,0,0,1,.193-.253v.41h-.517a.92.92,0,0,0-.335-.339.048.048,0,0,0-.039,0,.042.042,0,0,0-.036,0,.9.9,0,0,0-.339.339h-.517v-.41c.024.02.048.044.075.072A.552.552,0,0,1,16.121,15.513Zm1.945.268a2.221,2.221,0,0,0-.385.165v-.165h.385Zm-.244-.111v-.043a.027.027,0,0,0,.016-.016,1.351,1.351,0,0,1,.568-.588v.647Zm-.249.111v.208a.71.71,0,0,0-.2.15,1.741,1.741,0,0,0-.123-.358Zm-1.187,0a1.741,1.741,0,0,0-.123.358.824.824,0,0,0-.193-.15v-.208Zm-.875.7v.849h-.2a.053.053,0,0,0-.056.051v1.4h-.485V16.7c0-.02,0-.035-.019-.043l-.2-.171Zm0,.959v1.345h-.143V17.442Zm-.86-.734.015.013v.327H12.029v-.34Zm.015.45v.169h-.2a.056.056,0,0,0-.055.056v1.4h-.253v-1.4a.056.056,0,0,0-.055-.056h-.26a.057.057,0,0,0-.056.056v1.4h-.252v-1.4a.053.053,0,0,0-.051-.056h-.26a.057.057,0,0,0-.056.056v1.4h-.252v-1.4a.057.057,0,0,0-.056-.056h-.26a.059.059,0,0,0-.055.056v1.4H12.29v-1.4a.059.059,0,0,0-.055-.056h-.206v-.169Zm0,.28v1.349h-.153V17.438Zm-.623,0v1.349h-.149V17.438Zm-.62,0v1.349h-.15V17.438Zm-.62,0v1.349h-.153V17.438Zm-.623,0v1.349h-.15V17.438Zm-.139,1.46h2.617a.4.4,0,0,1-.281.324H12.325C12.144,19.194,12.069,19,12.041,18.9Zm2.727,0h.73a.508.508,0,0,1-.3.324H14.6A.571.571,0,0,0,14.768,18.9Zm.843,0h.474a.514.514,0,0,1-.257.324h-.422A.573.573,0,0,0,15.611,18.9Zm.589,0h.161v.324h-.343A.637.637,0,0,0,16.2,18.9Zm.008-.11v-1.94a.082.082,0,0,0-.008-.032l-.1-.134h.26v2.106Zm1.353-1.921.15-.2a.066.066,0,0,0,0-.06c0-.007-.011-.011-.015-.015v-.348h.516l-.158.15v0l-.008.013,0,0v0c0,.008,0,.011,0,.016v2.359h-.481Zm3.867.462a.057.057,0,0,0-.056.056v1.4H21.12v-1.4a.057.057,0,0,0-.056-.056H20.8a.06.06,0,0,0-.056.056v1.4H20.5v-1.4a.057.057,0,0,0-.056-.056h-.26a.056.056,0,0,0-.055.056v1.4h-.253v-1.4a.055.055,0,0,0-.051-.056h-.26a.06.06,0,0,0-.059.056v1.4h-.248v-1.4a.057.057,0,0,0-.056-.056H19v-.169h2.636v.169Zm.2.11v1.349h-.15V17.438Zm-.62,0v1.349H20.86V17.438Zm-.623,0v1.349h-.15V17.438Zm-.62,0v1.349h-.155V17.438Zm-.624,0v1.349H19V17.438Zm-.15-.39v-.327l.016-.013h2.62v.34Zm-.09-.394a.049.049,0,0,0-.02.043v2.09H18.4v-1.4a.052.052,0,0,0-.055-.051h-.193v-.849h.958Zm-.612.789v1.345h-.142V17.442ZM18.05,18.9a.57.57,0,0,0,.2.324h-.417a.512.512,0,0,1-.261-.324Zm.115,0h.73a.592.592,0,0,0,.161.324h-.591A.488.488,0,0,1,18.164,18.9Zm.84,0h2.612c-.027.1-.1.3-.28.324H19.281A.4.4,0,0,1,19,18.9Zm2.727,0h.643a.433.433,0,0,1-.269.324h-.54A.686.686,0,0,0,21.731,18.9Zm.272-.11V17.438h.217v1.349Zm.485.11h.26a.809.809,0,0,1-.228.324h-.2A.707.707,0,0,0,22.488,18.9Zm.008-.11V16.748a.05.05,0,0,0-.016-.04l-.224-.225h.3v.147a.158.158,0,0,0,0,.019l0,0,0,.008.193.256v1.87Zm.793-5.859a.578.578,0,0,1,.134-.193.6.6,0,0,1,.138.193.045.045,0,0,0,.036.035.057.057,0,0,0,.05-.011c.008-.008.04-.024.072-.043v.11l-.083.1a.4.4,0,0,0-.2-.131l0,0h-.024l0,0a.417.417,0,0,0-.2.131l-.083-.1v-.11a.438.438,0,0,1,.072.043.062.062,0,0,0,.051.011A.046.046,0,0,0,23.29,12.929Zm-.147-.311v-.072a.292.292,0,0,1,.051.028.051.051,0,0,0,.051.016.065.065,0,0,0,.04-.032.482.482,0,0,1,.139-.209.462.462,0,0,1,.142.209.055.055,0,0,0,.039.032.054.054,0,0,0,.051-.016.315.315,0,0,1,.052-.028v.072l-.134.123a.984.984,0,0,0-.111-.123l-.008,0-.008,0-.011,0h-.019l-.013,0-.008,0-.008,0a.909.909,0,0,0-.114.123Zm.02.754a.63.63,0,0,1,.26-.276.594.594,0,0,1,.26.276.079.079,0,0,0,.047.032.062.062,0,0,0,.051-.024.218.218,0,0,1,.1-.091v.185l-.146.142a.515.515,0,0,0-.289-.252v0h-.011l-.011,0-.013,0H23.4l0,0a.526.526,0,0,0-.289.252l-.142-.142v-.185a.23.23,0,0,1,.1.091.065.065,0,0,0,.051.024A.074.074,0,0,0,23.164,13.371Zm-.044.5,0-.008c.011-.032.027-.067.04-.1a.5.5,0,0,1,.26-.288.5.5,0,0,1,.26.288c.016.035.027.07.039.1l0,.008a.055.055,0,0,0,.048.035.045.045,0,0,0,.051-.027.309.309,0,0,1,.193-.134V14l-.209.236a1.025,1.025,0,0,0-.359-.466l0,0-.011,0h-.019l-.013,0-.008,0a1.025,1.025,0,0,0-.359.466L22.828,14v-.26a.315.315,0,0,1,.193.138.049.049,0,0,0,.051.027A.045.045,0,0,0,23.119,13.867Zm.3.013a1.645,1.645,0,0,1,.43.808.053.053,0,0,0,.048.043.054.054,0,0,0,.055-.031.524.524,0,0,1,.273-.273v.454l-.174.26a.641.641,0,0,0-.139.139,1.045,1.045,0,0,0-.462-.714v0h-.008l-.011,0h-.019l-.013,0H23.4l0,0a1.03,1.03,0,0,0-.458.714.654.654,0,0,0-.142-.139l-.173-.26v-.454a.523.523,0,0,1,.272.273.055.055,0,0,0,.056.031A.064.064,0,0,0,23,14.688,1.637,1.637,0,0,1,23.424,13.88ZM22.9,15.461a.06.06,0,0,0,.056.04.054.054,0,0,0,.051-.043,1.059,1.059,0,0,1,.415-.781,1.062,1.062,0,0,1,.414.781.058.058,0,0,0,.051.043.054.054,0,0,0,.056-.04.553.553,0,0,1,.284-.3v.391l-.281.331a1.181,1.181,0,0,0-.5-.572h-.011l-.011,0-.013,0H23.4a.786.786,0,0,0-.3.241,1.971,1.971,0,0,0-.209.331l-.28-.331v-.391A.514.514,0,0,1,22.9,15.461Zm1.038.683a.824.824,0,0,0-.122.114.984.984,0,0,0-.367-.6h0l-.011,0-.011,0-.008,0-.013,0H23.4a1,1,0,0,0-.363.6.858.858,0,0,0-.126-.114c.056-.134.249-.592.517-.718C23.7,15.552,23.889,16.01,23.94,16.144Zm-.926.276a.058.058,0,0,0,.059.027.057.057,0,0,0,.047-.048,1.023,1.023,0,0,1,.3-.631,1.026,1.026,0,0,1,.307.631.061.061,0,0,0,.048.048.053.053,0,0,0,.056-.027.8.8,0,0,1,.35-.292v.446H22.662v-.446A.758.758,0,0,1,23.014,16.421Zm2.1,2.477a.687.687,0,0,0,.169.324h-.544a.427.427,0,0,1-.265-.324Zm-.485-.11V17.438h.213v1.349Zm-.1.434h-.185a.782.782,0,0,1-.225-.324h.246A.67.67,0,0,0,24.528,19.221Zm-.173-2.474v2.039h-.26v-1.87l.189-.256.008-.008v0a.123.123,0,0,0,0-.019v-.147h.3l-.224.225A.05.05,0,0,0,24.355,16.748ZM24,16.866a.063.063,0,0,0-.013.032v1.889h-.122V16.681h.268ZM23.862,18.9H24a1.039,1.039,0,0,0,.185.324h-.323ZM26.994,20.6v.84H24.162V20.6Zm-.552-.714v.6h-2.28v-.6Zm-.364-.557v.446H24.162v-.446Zm-.6-.118c-.153-.043-.221-.217-.249-.316h.008A1.238,1.238,0,0,0,25.479,19.213Zm-.08-2.746a.057.057,0,0,0,.013-.015v0l0-.016V15.17a.6.6,0,0,1,.23-.233v1.589l-.359.383a.072.072,0,0,0-.016.04v1.838h-.051V16.654Zm-.193-1.948a.086.086,0,0,1,.052-.024.065.065,0,0,1,.047.024v1.207a.532.532,0,0,0-.1.048Zm.1,1.325v.529h-.5A1.03,1.03,0,0,1,25.305,15.844Zm-.524-1.124H25.1v.161h-.316Zm0,.272H25.1v.849a1.054,1.054,0,0,0-.316.343Zm-.032,1.491h.477l-.1.107a.045.045,0,0,0-.016.04v2.157h-.155v-1.4a.056.056,0,0,0-.055-.056h-.324a.056.056,0,0,0-.055.056v1.4h-.06V16.772ZM22.18,14.12a.347.347,0,0,0,.289.171.138.138,0,0,0,.106-.052.191.191,0,0,0,0-.177.486.486,0,0,0-.047-.094.306.306,0,0,1-.024-.04.622.622,0,0,1-.067-.319.225.225,0,0,1,0-.048.244.244,0,0,0,.123.1.107.107,0,0,0,.118-.027c.088-.083,0-.249-.067-.359v-.008a.277.277,0,0,1-.027-.134.191.191,0,0,0,.11.094.086.086,0,0,0,.083-.023c.043-.044.028-.126-.008-.3a1.6,1.6,0,0,1-.035-.241v-.027a.291.291,0,0,0,.051.091.07.07,0,0,0,.083.016c.091-.036.1-.281.1-.356,0-.153.088-.465.292-.493a.053.053,0,0,0,.048-.043l.008-.032c.027-.146.04-.181.107-.181s.078.035.11.181l0,.032a.054.054,0,0,0,.048.043c.2.028.3.34.3.493,0,.075.008.319.1.356a.069.069,0,0,0,.082-.016.34.34,0,0,0,.056-.091v.027a1.675,1.675,0,0,1-.04.241c-.035.174-.051.256-.008.3a.092.092,0,0,0,.088.023.223.223,0,0,0,.11-.094.277.277,0,0,1-.027.134l0,.008c-.059.11-.153.276-.067.359a.115.115,0,0,0,.123.027.3.3,0,0,0,.122-.094v.048a.609.609,0,0,1-.063.315.306.306,0,0,1-.024.04.387.387,0,0,0-.048.094.179.179,0,0,0,0,.177.135.135,0,0,0,.107.052.349.349,0,0,0,.288-.171v2.253H24.3v-.327A.049.049,0,0,0,24.272,16a.046.046,0,0,0-.051-.008,1.5,1.5,0,0,0-.182.086c-.011-.019-.024-.051-.04-.086l.327-.383a.056.056,0,0,0,.013-.035v-.493a.055.055,0,0,0-.024-.047.064.064,0,0,0-.047-.008l-.009,0,.072-.107a.083.083,0,0,0,.008-.027v-.544a.048.048,0,0,0-.02-.04.046.046,0,0,0-.043-.011.563.563,0,0,0-.351.236c-.019-.059-.039-.122-.067-.189l.257-.292a.045.045,0,0,0,.016-.035v-.348a.061.061,0,0,0-.016-.04.059.059,0,0,0-.043-.015.473.473,0,0,0-.276.122c0-.008,0-.011-.008-.019l.185-.185a.059.059,0,0,0,.02-.04v-.284a.051.051,0,0,0-.02-.04.06.06,0,0,0-.043-.016.412.412,0,0,0-.185.1c-.013-.016-.02-.032-.035-.051l.11-.126a.068.068,0,0,0,.011-.04v-.217a.058.058,0,0,0-.024-.048.055.055,0,0,0-.055,0,1.185,1.185,0,0,0-.11.059l.157-.15a.041.041,0,0,0,.016-.039v-.177a.06.06,0,0,0-.019-.044.064.064,0,0,0-.051-.008.574.574,0,0,0-.1.044.57.57,0,0,0-.182-.222h0l-.008,0-.011,0h-.019l-.013,0-.008,0h0a.5.5,0,0,0-.182.222,1.034,1.034,0,0,0-.1-.044.064.064,0,0,0-.051.008.051.051,0,0,0-.024.044v.177a.046.046,0,0,0,.019.039l.158.15c-.04-.023-.083-.043-.11-.059a.055.055,0,0,0-.055,0,.063.063,0,0,0-.028.048v.217a.069.069,0,0,0,.013.04l.11.126c-.013.019-.024.035-.036.051a.4.4,0,0,0-.181-.1.055.055,0,0,0-.043.016.048.048,0,0,0-.02.04V13.5a.054.054,0,0,0,.016.04l.185.185-.008.019a.471.471,0,0,0-.276-.122.055.055,0,0,0-.039.015.045.045,0,0,0-.016.04v.348a.055.055,0,0,0,.011.035l.26.292a1.45,1.45,0,0,0-.066.189.584.584,0,0,0-.352-.236.042.042,0,0,0-.042.011.039.039,0,0,0-.02.04V14.9a.037.037,0,0,0,.008.027l.067.107,0,0a.068.068,0,0,0-.05.008.062.062,0,0,0-.02.047v.493a.055.055,0,0,0,.011.035l.327.383c-.016.035-.027.067-.039.086a1.35,1.35,0,0,0-.185-.086.05.05,0,0,0-.052.008.06.06,0,0,0-.023.043v.327H22.18ZM22.1,16.483l.284.289v2.015h-.059v-1.4a.056.056,0,0,0-.051-.056h-.324a.06.06,0,0,0-.059.056v1.4h-.153v-1.4h0v-.73h0V16.63a.048.048,0,0,0-.016-.04l-.1-.107ZM21.7,15.292h.375v.892A1.135,1.135,0,0,0,21.7,15.8Zm-.153.169h0v-.2h0v-.027c.016.007.027.015.044.023v.482c-.017,0-.033-.013-.044-.016Zm0,.584v0h0v-.2a1.027,1.027,0,0,1,.5.529h-.5Zm-2.225-.726h2.114v.088H19.317Zm0,.2h2.114v.249H19.317Zm0,.359h2.114v.11H19.317Zm0,.221h2.114v.276H19.317Zm-.036.386h2.186l.115.115H19.143Zm-.3-.244a.052.052,0,0,0,.051-.051V14.258l.169-.15v2.264h-.974l.142-.134Zm-.166-1.685h.107V15.67h-.107Zm-.3-.757a.819.819,0,0,1,.3-.276v.335a.424.424,0,0,0-.268.3.47.47,0,0,0,.158.371V15.67h-.193Zm.41,1.985v.347H17.7v-.064a2.988,2.988,0,0,1,.77-.283Zm-.631-1.5a.054.054,0,0,0,.051-.056v-.5c.011-.016.019-.02.027-.02a.091.091,0,0,1,.051.032l-.008.013a.043.043,0,0,0-.011.031v1.129a1.287,1.287,0,0,0-.584.521V15.15a.052.052,0,0,0-.027-.047.068.068,0,0,0-.056,0s-.039.027-.083.063c.013-.225.072-.572.246-.679l0-.008,0,0,.009-.013,0,0a.043.043,0,0,0,0-.02h0v-.157Zm0-1.148c.019-.028.032-.056.048-.083a.7.7,0,0,1,0,.225.31.31,0,0,1-.11.149c-.016.016-.032.036-.051.052l-.019.019c-.064.056-.091.083-.091.118v.556h-.147v-.28a.056.056,0,0,0-.016-.043.077.077,0,0,0-.043-.013.585.585,0,0,0-.382.233,1.133,1.133,0,0,0-.064-.142.536.536,0,0,1,.3-.481l.008,0,.013-.008,0-.008,0-.007,0-.008v-.016l0,0v-.161h.335A.229.229,0,0,0,18.3,13.134Zm-.134-.723c.078-.011.107-.067.134-.118a.994.994,0,0,0,.056-.142.528.528,0,0,1-.02.284,1.377,1.377,0,0,1-.158.238l-.011.011a.423.423,0,0,0-.134.284v.15h-.28V12.9a.069.069,0,0,0-.024-.043.055.055,0,0,0-.051-.008.9.9,0,0,0-.316.2.286.286,0,0,1-.032-.055,1.025,1.025,0,0,0-.059-.107.869.869,0,0,1,.2-.273H17.6a.052.052,0,0,0,.051-.055v-.147h.375c.015,0,.027,0,.043,0A.386.386,0,0,0,18.164,12.411Zm-.2-.674.011,0c.088-.02.115-.111.147-.249a.722.722,0,0,1,.019.161.767.767,0,0,1-.158.332.041.041,0,0,0-.008.031v.3h-.323v-.236a.055.055,0,0,0-.024-.048.047.047,0,0,0-.051,0,.972.972,0,0,0-.268.19,1.992,1.992,0,0,0-.094-.185l.209-.206a.049.049,0,0,0,.015-.039v-.04Zm-.161-.592c.019,0,.07,0,.138-.142v.013a.765.765,0,0,1-.166.331.075.075,0,0,0-.011.036v.244h-.324v-.268a.049.049,0,0,0-.019-.043.044.044,0,0,0-.043-.013.529.529,0,0,0-.26.131c-.013-.032-.024-.059-.035-.091l.268-.206c.011,0,.07,0,.284.008Zm-.177-.469a.08.08,0,0,0,.039-.016l.083-.086a.061.061,0,0,1,.016.048c0,.091-.118.2-.161.236a.06.06,0,0,0-.02.043v.134c-.11,0-.169,0-.2,0v-.217a.053.053,0,0,0-.024-.043.062.062,0,0,0-.048-.008,1.048,1.048,0,0,0-.232.094.066.066,0,0,0-.008-.024l0,0,.11-.059a.056.056,0,0,0,.028-.048v-.051l0,0ZM16.7,9.153a.166.166,0,0,1,.122-.067h.008a.159.159,0,0,1,.119.067.311.311,0,0,1,.023.2h-.291A.309.309,0,0,1,16.7,9.153Zm.477.315-.027.134H16.5l-.027-.134Zm.189.241-.015.107h-1.05l-.016-.107Zm.1.217-.035.182H16.223l-.035-.182Zm-.65.292.011,0,.008,0h.706l-.083.347h-.256V10.42a.06.06,0,0,0-.02-.043.053.053,0,0,0-.047-.013.663.663,0,0,0-.139.064c-.016-.02-.024-.032-.035-.048a.312.312,0,0,0-.114-.115l-.009,0-.011,0h-.024l-.008,0-.008,0a.3.3,0,0,0-.118.115.314.314,0,0,1-.035.048.663.663,0,0,0-.139-.064.051.051,0,0,0-.047.013.06.06,0,0,0-.02.043v.145H16.2l-.083-.347Zm-.92.4a.1.1,0,0,1,.011-.048L16,10.66a.06.06,0,0,0,.039.016h.394v.048a.056.056,0,0,0,.028.048l.11.059v0l-.013.024a1.026,1.026,0,0,0-.232-.094.062.062,0,0,0-.048.008.053.053,0,0,0-.024.043v.217c-.032,0-.086,0-.173,0V10.9a.063.063,0,0,0-.019-.043C16.015,10.822,15.9,10.712,15.9,10.621Zm-.177.394V11c.064.142.118.142.138.142h.166c.161,0,.236,0,.268-.008l.264.206c-.011.032-.023.059-.035.091a.525.525,0,0,0-.26-.131.042.042,0,0,0-.043.013.063.063,0,0,0-.019.043v.268h-.3v-.244a.065.065,0,0,0-.011-.036A.812.812,0,0,1,15.723,11.015Zm-.206.631a.66.66,0,0,1,.02-.161c.035.138.059.228.149.249l.013,0h.5v.04a.046.046,0,0,0,.016.039l.208.206a1.41,1.41,0,0,0-.09.185,1.124,1.124,0,0,0-.272-.19.049.049,0,0,0-.052,0,.058.058,0,0,0-.027.048v.236h-.3v-.3a.043.043,0,0,0-.011-.031A.823.823,0,0,1,15.517,11.646ZM15.5,12.684l-.013-.011a1.882,1.882,0,0,1-.161-.238.53.53,0,0,1-.019-.284,1.365,1.365,0,0,0,.059.147c.027.047.055.1.13.114a.413.413,0,0,0,.1,0c.016,0,.027,0,.04,0h.351v.147a.055.055,0,0,0,.055.055h.131a.852.852,0,0,1,.2.273c-.019.032-.035.067-.059.107a.286.286,0,0,1-.032.055.9.9,0,0,0-.316-.2.055.055,0,0,0-.051.008.053.053,0,0,0-.024.043v.217h-.256v-.013a.926.926,0,0,1,0-.138A.461.461,0,0,0,15.5,12.684Zm-.02.793-.051-.052a.274.274,0,0,1-.106-.149.7.7,0,0,1-.008-.225.968.968,0,0,0,.051.083.223.223,0,0,0,.209.094H15.6a.11.11,0,0,1,.039,0h.252v.166c0,.008,0,.011,0,.016l0,.008,0,.007.008.008.008.008.008,0h0a.527.527,0,0,1,.3.481,1.132,1.132,0,0,0-.064.142.585.585,0,0,0-.382-.233.077.077,0,0,0-.043.013.08.08,0,0,0-.016.043v.28h-.123v-.556c0-.035-.032-.063-.091-.118C15.49,13.489,15.482,13.481,15.477,13.478Zm-.193.224c.008,0,.016,0,.028.02v.5a.054.054,0,0,0,.055.056h.348v.157h0a.043.043,0,0,0,0,.02l0,0,.008.013,0,0,.008.008c.169.107.228.454.241.679-.043-.035-.078-.059-.083-.063a.068.068,0,0,0-.056,0,.052.052,0,0,0-.027.047v.241a1.255,1.255,0,0,0-.564-.485V13.777a.081.081,0,0,0-.008-.031l-.008-.013C15.253,13.717,15.273,13.7,15.284,13.7Zm-.331.821a.476.476,0,0,0,.153-.371.407.407,0,0,0-.264-.3v-.332a.8.8,0,0,1,.3.273V15.67h-.193Zm-.221.032h.11V15.67h-.11Zm0,1.228h.462a3.241,3.241,0,0,1,.746.272v.075H14.733Zm-.276-1.673.165.15v1.929a.054.054,0,0,0,.056.051h.607l.142.134h-.97Zm-2.229,1.211h2.118v.088H12.227Zm0,.2h2.118v.249H12.227Zm0,.359h2.118v.11H12.227Zm0,.221h2.118v.276H12.227Zm-.032.386h2.181l.139.115H12.081Zm-.118-1.223a.254.254,0,0,1,.043-.023v.489c-.016,0-.027.011-.043.016Zm.043.584v.529h-.5A1.013,1.013,0,0,1,12.12,15.844Zm-.529-.552h.374V15.8a1.1,1.1,0,0,0-.374.383Zm-.032,1.191h.477l-.1.107a.045.045,0,0,0-.016.04v2.157h-.155v-1.4a.056.056,0,0,0-.055-.056h-.324a.056.056,0,0,0-.055.056v1.4h-.056V16.772ZM8.988,14.12a.357.357,0,0,0,.292.171.149.149,0,0,0,.107-.052.2.2,0,0,0,0-.177.562.562,0,0,0-.048-.094.089.089,0,0,1-.024-.04.575.575,0,0,1-.063-.319v-.048a.242.242,0,0,0,.122.1.115.115,0,0,0,.123-.027c.083-.083-.008-.249-.067-.359l0-.008A.277.277,0,0,1,9.4,13.13c.032.043.067.088.11.094a.084.084,0,0,0,.083-.023c.043-.044.027-.126-.008-.3a1.6,1.6,0,0,1-.035-.241v-.027a.29.29,0,0,0,.051.091.07.07,0,0,0,.083.016c.091-.036.1-.281.1-.356,0-.153.086-.465.3-.493a.058.058,0,0,0,.048-.043l0-.032c.027-.146.043-.181.107-.181s.083.035.11.181l0,.032a.054.054,0,0,0,.048.043c.206.028.3.34.3.493,0,.075.008.319.1.356a.07.07,0,0,0,.083-.016.291.291,0,0,0,.055-.091v.027a1.215,1.215,0,0,1-.04.241c-.035.174-.051.256,0,.3a.082.082,0,0,0,.083.023c.043-.007.078-.051.11-.094a.277.277,0,0,1-.027.134l0,.008c-.059.11-.153.276-.067.359a.115.115,0,0,0,.123.027.314.314,0,0,0,.123-.094v.048a.647.647,0,0,1-.064.315.306.306,0,0,1-.024.04.566.566,0,0,0-.051.094.2.2,0,0,0,0,.177.131.131,0,0,0,.1.052.345.345,0,0,0,.292-.171v2.253h-.375v-.327A.049.049,0,0,0,11.083,16a.041.041,0,0,0-.048-.008,1.427,1.427,0,0,0-.189.086l-.035-.086.327-.383a.055.055,0,0,0,.011-.035v-.493a.055.055,0,0,0-.024-.047.068.068,0,0,0-.051-.008l0,0,.07-.107a.062.062,0,0,0,.008-.027v-.544a.05.05,0,0,0-.019-.04.047.047,0,0,0-.043-.011.56.56,0,0,0-.351.236c-.02-.059-.04-.122-.067-.189l.26-.292a.055.055,0,0,0,.011-.035v-.348a.045.045,0,0,0-.016-.04.059.059,0,0,0-.043-.015.473.473,0,0,0-.276.122.039.039,0,0,1,0-.019l.185-.185a.072.072,0,0,0,.016-.04v-.284a.048.048,0,0,0-.02-.04.06.06,0,0,0-.043-.016.4.4,0,0,0-.185.1.585.585,0,0,0-.032-.051l.107-.126a.068.068,0,0,0,.011-.04v-.217a.054.054,0,0,0-.027-.048.048.048,0,0,0-.051,0,1.185,1.185,0,0,0-.11.059l.158-.15a.055.055,0,0,0,.015-.039v-.177a.05.05,0,0,0-.023-.044.054.054,0,0,0-.048-.008.767.767,0,0,0-.1.044.551.551,0,0,0-.185-.222h0l-.013,0-.008,0h-.019l-.013,0-.007,0h0a.613.613,0,0,0-.185.222.575.575,0,0,0-.1-.044.062.062,0,0,0-.051.008.064.064,0,0,0-.024.044v.177a.044.044,0,0,0,.02.039l.157.15a1.094,1.094,0,0,0-.114-.059.049.049,0,0,0-.051,0,.062.062,0,0,0-.027.048v.217a.068.068,0,0,0,.011.04l.11.126c-.011.019-.024.035-.035.051a.4.4,0,0,0-.182-.1.08.08,0,0,0-.048.016.047.047,0,0,0-.015.04V13.5a.053.053,0,0,0,.015.04l.186.185c0,.008,0,.011-.008.019a.465.465,0,0,0-.276-.122.051.051,0,0,0-.04.015.045.045,0,0,0-.016.04v.348a.055.055,0,0,0,.011.035l.257.292c-.024.067-.043.13-.064.189a.579.579,0,0,0-.35-.236.058.058,0,0,0-.048.011.05.05,0,0,0-.019.04V14.9a.041.041,0,0,0,.011.027l.067.107,0,0a.078.078,0,0,0-.052.008.057.057,0,0,0-.023.047v.493a.043.043,0,0,0,.015.035l.329.383c-.016.035-.028.067-.04.086a1.226,1.226,0,0,0-.185-.086A.048.048,0,0,0,9.387,16a.058.058,0,0,0-.024.043v.327H8.988Zm-.075,2.363.284.289v2.015H9.141v-1.4a.06.06,0,0,0-.059-.056H8.759a.055.055,0,0,0-.051.056v1.4H8.553V16.63a.05.05,0,0,0-.019-.04l-.1-.107ZM8.561,14.72h.316v.161H8.561Zm0,.272h.316v1.192a1.066,1.066,0,0,0-.316-.343Zm-.209-.473a.069.069,0,0,1,.048-.024.092.092,0,0,1,.055.024v1.255a.512.512,0,0,0-.1-.048Zm0,1.325a1.027,1.027,0,0,1,.5.529h-.5Zm-.339.682V14.937a.609.609,0,0,1,.233.233v1.278l0,0a.055.055,0,0,0,.011.015l.182.186v2.134H8.387V16.949a.068.068,0,0,0-.011-.04Zm.41,2.371h0a.421.421,0,0,1-.244.316A1.356,1.356,0,0,0,8.424,18.9ZM9.5,23.613H5.559v-.974H9.5Zm0-1.084H6.115v-.975H9.5Zm0-1.086H6.664V20.6H9.5Zm0-.95H7.217v-.6H9.5Zm0-.715H7.579v-.446H9.5Zm.3,3.835H9.611v-.974H9.8Zm0-1.084H9.611v-.975H9.8Zm0-1.086H9.611V20.6H9.8Zm0-.95H9.611v-.6H9.8Zm0-.715H9.611v-.446H9.8Zm.1-.88h.658v.324H9.907Zm.682,4.715H9.911v-.434h.679Zm0-.54H9.911v-.434h.679Zm0-.544H9.911v-.439h.679Zm0-.549H9.911v-.426h.679Zm0-.537H9.911v-.458h.679Zm0-.568H9.911V20.6h.679Zm0-.382H9.911v-.064h.679Zm0-.174H9.911v-.43h.679Zm0-.541H9.911v-.446h.679Zm.3,3.835h-.2v-.974h.2Zm0-1.084h-.2v-.975h.2Zm0-1.086h-.2V20.6h.2Zm0-.95h-.2v-.6h.2Zm0-.715h-.2v-.446h.2Zm-.222-.556V18.9h.123a1.017,1.017,0,0,0,.185.324Zm5.405,4.391H11v-.974h5.078Zm0-1.084H11v-.975h5.078Zm0-1.086H11V20.6h5.078Zm0-.95H11v-.6h5.078Zm0-.715H11v-.446h5.078Zm.3,3.835h-.193v-.974h.193Zm0-1.084h-.193v-.975h.193Zm0-1.086h-.193V20.6h.193Zm0-.95h-.193v-.6h.193Zm0-.715h-.193v-.446h.193Zm.091-.88h.675v.324h-.675Zm.695,4.715h-.675v-.434h.675Zm0-.54h-.675v-.434h.675Zm0-.544h-.675v-.439h.675Zm0-.549h-.675v-.426h.675Zm0-.537h-.675v-.458h.675Zm0-.568h-.675V20.6h.675Zm0-.382h-.675v-.064h.675Zm0-.174h-.675v-.43h.675Zm0-.541h-.675v-.446h.675Zm.091-.88h.2a.612.612,0,0,0,.182.324h-.386Zm.213,4.715h-.193v-.974h.193Zm0-1.084h-.193v-.975h.193Zm0-1.086h-.193V20.6h.193Zm0-.95h-.193v-.6h.193Zm0-.715h-.193v-.446h.193Zm5.188,3.835H17.58v-.974h5.078Zm0-1.084H17.58v-.975h5.078Zm0-1.086H17.58V20.6h5.078Zm0-.95H17.58v-.6h5.078Zm0-.715H17.58v-.446h5.078Zm.3,3.835h-.193v-.974h.193Zm0-1.084h-.193v-.975h.193Zm0-1.086h-.193V20.6h.193Zm0-.95h-.193v-.6h.193Zm0-.715h-.193v-.446h.193Zm.023-.556h-.307a1.017,1.017,0,0,0,.185-.324h.122Zm0-.434h-.118V16.9a.06.06,0,0,0-.011-.032l-.139-.185h.268Zm.762,4.825h-.674v-.434h.674Zm0-.54h-.674v-.434h.674Zm0-.544h-.674v-.439h.674Zm0-.549h-.674v-.426h.674Zm0-.537h-.674v-.458h.674Zm0-.568h-.674V20.6h.674Zm0-.382h-.674v-.064h.674Zm0-.174h-.674v-.43h.674Zm0-.541h-.674v-.446h.674Zm0-.556H23.1V18.9h.655Zm0-.434H23.1V16.681h.655Zm.3,4.825h-.193v-.974h.193Zm0-1.084h-.193v-.975h.193Zm0-1.086h-.193V20.6h.193Zm0-.95h-.193v-.6h.193Zm0-.715h-.193v-.446h.193ZM28.1,23.613H24.162v-.974H28.1Z" transform="translate(0.745 1.227)" fill="#231f20"/></g></g></svg>