<svg xmlns="http://www.w3.org/2000/svg" width="35.153" height="35.149" viewBox="0 0 35.153 35.149"><g transform="translate(0 0)"><path d="M34.529,19.325a17.489,17.489,0,0,1-1.8,4.4H2.293a17.492,17.492,0,0,1-1.8-4.4Z" transform="translate(0.067 2.642)" fill="#f8e724"/><path d="M32.509,23.192a17.57,17.57,0,0,1-30.433,0Z" transform="translate(0.284 3.171)" fill="#042b7d"/><path d="M35.153,17.576a17.489,17.489,0,0,1-.557,4.391H.556a17.577,17.577,0,1,1,34.6-4.391Z" fill="#042b7d"/><g transform="translate(5.851 5.046)"><path d="M13.166,8.628l.884,2.718h2.856l-2.312,1.681.884,2.714-2.312-1.677-2.308,1.677.88-2.714L9.43,11.347h2.856Z" transform="translate(-4.562 -3.866)" fill="#fff"/><path d="M7.873,4.439,8.52,6.42H10.6L8.919,7.647l.643,1.981L7.873,8.4,6.189,9.627l.643-1.981L5.148,6.42H7.23Z" transform="translate(-5.148 -4.439)" fill="#fff"/></g></g></svg>