<svg xmlns="http://www.w3.org/2000/svg" width="35.156" height="35.153" viewBox="0 0 35.156 35.153"><g transform="translate(0)"><g transform="translate(0 0)"><path d="M35.157,17.576A17.578,17.578,0,1,1,17.581,0,17.6,17.6,0,0,1,35.157,17.576Z" fill="#00775e"/><g transform="translate(8.586 7.22)"><g transform="translate(0 3.851)"><path d="M16.548,19.669c5.258,3.976,8.9.032,8.9.032a2.846,2.846,0,0,1-1.191-.311s-2.315,2.437-6.466.851a6.487,6.487,0,0,0,3.815.316,7.426,7.426,0,0,0,3.938-3.3,7.433,7.433,0,0,0-5.058-.888,6.5,6.5,0,0,0-3.144,2.183c2.8-3.449,6.025-2.494,6.025-2.494a2.832,2.832,0,0,1,.875-.867,6.111,6.111,0,0,0-5.29,1.124,6.093,6.093,0,0,0-.067-5.851,2.859,2.859,0,0,1-.607,1.069s1.755,2.872-.86,6.475a6.469,6.469,0,0,0,1.3-3.614,7.421,7.421,0,0,0-2.162-4.656A7.416,7.416,0,0,0,14.381,14.4a6.461,6.461,0,0,0,1.3,3.614c-2.617-3.6-.857-6.475-.857-6.475a2.83,2.83,0,0,1-.612-1.069,6.093,6.093,0,0,0-.067,5.851,6.11,6.11,0,0,0-5.29-1.124,2.82,2.82,0,0,1,.875.867s3.228-.955,6.025,2.494a6.494,6.494,0,0,0-3.144-2.183,7.429,7.429,0,0,0-5.057.888,7.421,7.421,0,0,0,3.936,3.3,6.487,6.487,0,0,0,3.815-.316c-4.15,1.586-6.466-.851-6.466-.851a2.846,2.846,0,0,1-1.191.311S11.285,23.646,16.548,19.669Z" transform="translate(-7.553 -9.739)" fill="#fff"/><path d="M15.968,24.675a10.639,10.639,0,0,0,4.169-.845H11.794A10.645,10.645,0,0,0,15.968,24.675Z" transform="translate(-6.973 -7.812)" fill="#fff"/><path d="M9.829,22.7H22.781c.178-.139.352-.276.517-.423H9.312C9.478,22.422,9.652,22.559,9.829,22.7Z" transform="translate(-7.313 -8.025)" fill="#fff"/><path d="M11.387,23.655h9.576A10.2,10.2,0,0,0,22.083,23H10.267A10.077,10.077,0,0,0,11.387,23.655Z" transform="translate(-7.182 -7.925)" fill="#fff"/><path d="M8.829,21.829H23.984c.091-.09.177-.181.26-.272H8.569C8.652,21.648,8.74,21.739,8.829,21.829Z" transform="translate(-7.414 -8.123)" fill="#fff"/><path d="M17.651,19.892l-1.124-.7-1.124.7a5.02,5.02,0,0,1-2.655.762H7.709c.146.213.3.417.462.618h4.845a4.06,4.06,0,0,0,2.157-.618l1.354-.845,1.349.845a4.06,4.06,0,0,0,2.157.618h4.845c.163-.2.316-.406.463-.618H20.3A5,5,0,0,1,17.651,19.892Z" transform="translate(-7.532 -8.447)" fill="#fff"/></g><g transform="translate(0.283)"><path d="M15.675,6.352l.41,1.262h1.326L16.338,8.4l.41,1.262-1.073-.781L14.6,9.658l.41-1.262-1.073-.781h1.33Z" transform="translate(-6.964 -6.352)" fill="#fad023"/><g transform="translate(0 5.362)"><path d="M9.167,11.068l.15.935.935.146-.84.434.15.935-.675-.671-.844.434.43-.844L7.8,11.767l.935.146Z" transform="translate(-7.802 -11.068)" fill="#fad023"/><path d="M22.055,11.068l-.15.935-.935.146.84.434-.15.935.675-.671.844.434-.43-.844.671-.671-.935.146Z" transform="translate(-6.002 -11.068)" fill="#fad023"/></g><g transform="translate(2.715 2.316)"><path d="M10.656,8.389l.75.548.75-.544-.288.88.75.544H11.69l-.288.88-.284-.88h-.927l.75-.544Z" transform="translate(-10.191 -8.389)" fill="#fad023"/><path d="M20.564,8.389l-.75.548-.75-.544.288.88-.75.544h.927l.288.88.284-.88h.927l-.75-.544Z" transform="translate(-9.04 -8.389)" fill="#fad023"/></g></g></g></g></g></svg>