<svg xmlns="http://www.w3.org/2000/svg" width="35.153" height="35.153" viewBox="0 0 35.153 35.153"><g transform="translate(0)"><g transform="translate(0 0)"><path d="M33.249,10.045H1.492c.206-.426.427-.849.664-1.255a17.566,17.566,0,0,1,30.433,0C32.826,9.2,33.047,9.619,33.249,10.045Z" transform="translate(0.204)" fill="#cb0201"/><path d="M33.249,22.088c-.2.43-.423.848-.659,1.255a17.566,17.566,0,0,1-30.433,0q-.355-.61-.664-1.255Z" transform="translate(0.204 3.02)" fill="#006506"/><path d="M35.153,16.368a17.391,17.391,0,0,1-1.7,7.532H1.7a17.57,17.57,0,0,1,0-15.063H33.453A17.389,17.389,0,0,1,35.153,16.368Z" transform="translate(0 1.208)" fill="#fff"/><g transform="translate(9.41 10.798)"><g transform="translate(3.133 10.436)"><g transform="translate(0 1.61)"><path d="M20.858,21.607a16.37,16.37,0,0,0-4.79-.687,16.368,16.368,0,0,0-4.789.687l-.244-.785a17.241,17.241,0,0,1,5.033-.725,17.249,17.249,0,0,1,5.035.725Z" transform="translate(-11.034 -20.096)" fill="#f7c215"/></g><path d="M15.878,19.4c0-.6-.316-.717-.316-.717s-.315.114-.315.717c-.185-.126-.521,0-.521,0a.757.757,0,0,0,.835.632A.757.757,0,0,0,16.4,19.4S16.064,19.271,15.878,19.4Z" transform="translate(-10.529 -18.68)" fill="#f7c215"/><g transform="translate(1.23 0.221)"><path d="M13.245,19.5c-.13-.588-.465-.631-.465-.631s-.284.182-.155.77c-.2-.083-.509.115-.509.115a.76.76,0,0,0,.955.433c.455-.1.758-.457.683-.8C13.754,19.395,13.4,19.343,13.245,19.5Z" transform="translate(-12.116 -18.874)" fill="#f7c215"/><path d="M17.879,19.5c.13-.588.465-.631.465-.631s.284.182.153.77c.206-.083.509.115.509.115a.761.761,0,0,1-.955.433c-.454-.1-.757-.457-.682-.8C17.369,19.395,17.724,19.343,17.879,19.5Z" transform="translate(-11.399 -18.874)" fill="#f7c215"/></g></g><path d="M15.6,9.5l.268.825h.864l-.7.5.268.821-.7-.5-.7.5.268-.821-.7-.5h.864Z" transform="translate(-7.432 -9.5)" fill="#f7c215"/><g transform="translate(0.947 3.499)"><path d="M10.239,12.578l.268.821h.864l-.7.509.268.821-.7-.509-.7.509.268-.821-.7-.509h.864Z" transform="translate(-9.111 -12.578)" fill="#f7c215"/><path d="M20.957,12.578l.264.821h.864l-.7.509.268.821-.7-.509-.7.509.268-.821-.7-.509h.864Z" transform="translate(-7.646 -12.578)" fill="#f7c215"/></g><g transform="translate(0 7.027)"><path d="M21.787,15.681l.268.821h.864l-.7.5.264.825-.7-.509-.7.509.268-.825-.7-.5h.86Z" transform="translate(-6.585 -15.681)" fill="#f7c215"/><path d="M9.41,15.681l.268.821h.86l-.7.5.268.825-.7-.509-.7.509.264-.825-.7-.5h.864Z" transform="translate(-8.278 -15.681)" fill="#f7c215"/></g><g transform="translate(3.507 0.955)"><path d="M12.5,10.339l.265.821h.864l-.7.5.269.825-.7-.509-.7.509.268-.825-.7-.5h.864Z" transform="translate(-11.363 -10.339)" fill="#f7c215"/><path d="M18.7,10.339l.268.821h.864l-.7.5.268.825-.7-.509-.7.509.268-.825-.7-.5h.864Z" transform="translate(-10.514 -10.339)" fill="#f7c215"/></g><path d="M22.662,19.181c-1.964.88-2.639-.236-2.982-.875-2.04,1.294-2.853-.161-3.129-.95a2.223,2.223,0,0,1-.123-.734V15.315a.906.906,0,0,1,.995-.327l.288.094-.035-.3a1.574,1.574,0,0,0-1.014-1.432,1.262,1.262,0,0,0-.853,0A1.578,1.578,0,0,0,14.8,14.786l-.035.3.284-.094a.907.907,0,0,1,1,.327v1.306a2.221,2.221,0,0,1-.122.734c-.276.789-1.089,2.244-3.125.95-.348.639-1.022,1.755-2.987.875-.082.865,2.2,2.21,3.117-.221,0,0,1.922,2.02,3.31-.8,1.386,2.82,3.31.8,3.31.8C20.465,21.391,22.745,20.046,22.662,19.181Zm-7.338-4.623c-.036,0-.067,0-.1,0a1.1,1.1,0,0,1,.714-.845.856.856,0,0,1,.592,0,1.114,1.114,0,0,1,.717.845,1.3,1.3,0,0,0-1.014.391A1.3,1.3,0,0,0,15.325,14.558Z" transform="translate(-8.069 -8.983)" fill="#f7c215"/></g></g></g></svg>