<svg xmlns="http://www.w3.org/2000/svg" width="35.156" height="35.153" viewBox="0 0 35.156 35.153"><g transform="translate(0)"><g transform="translate(0 0)"><path d="M17.538,18.555H.312A17.538,17.538,0,0,0,3.48,25.586H31.591a17.492,17.492,0,0,0,3.168-7.031Z" transform="translate(0.043 2.537)" fill="#fecd17"/><path d="M17.157,24.74H3.1a17.575,17.575,0,0,0,14.058,7.031h0A17.573,17.573,0,0,0,31.21,24.74Z" transform="translate(0.424 3.382)" fill="#00694e"/><path d="M15.466,13.216H32.687a17.492,17.492,0,0,0-3.168-7.031H15.466Z" transform="translate(2.115 0.846)" fill="#fecd17"/><path d="M32.687,12.37H15.466V19.4H32.687a17.6,17.6,0,0,0,0-7.031Z" transform="translate(2.115 1.691)" fill="#00694e"/><path d="M3.523,7.031A17.559,17.559,0,0,0,.355,21.092H17.581V0A17.575,17.575,0,0,0,3.523,7.031Z" fill="#d11133"/><path d="M29.519,7.031A17.573,17.573,0,0,0,15.466,0h0V7.031Z" transform="translate(2.115)" fill="#00694e"/><path d="M8.843,3.919,10.358,8.57H15.25l-3.957,2.876L12.8,16.1,8.843,13.225,4.886,16.1,6.4,11.446,2.44,8.57H7.332Z" transform="translate(0.334 0.536)" fill="#fff"/></g></g></svg>