<svg xmlns="http://www.w3.org/2000/svg" width="35.153" height="35.153" viewBox="0 0 35.153 35.153"><g transform="translate(0 0)"><path d="M30.127,5.859H3.947a17.553,17.553,0,0,1,26.18,0Z" transform="translate(0.54)" fill="#042b7d"/><path d="M34.026,20.616a17.539,17.539,0,0,1-3.481,5.86H4.366a17.577,17.577,0,0,1-3.481-5.86Z" transform="translate(0.121 2.819)" fill="#fff"/><path d="M30.127,25.771a17.553,17.553,0,0,1-26.18,0Z" transform="translate(0.54 3.523)" fill="#042b7d"/><path d="M35.153,16.167a17.483,17.483,0,0,1-1.006,5.859H1.006a17.563,17.563,0,0,1,0-11.717H34.147A17.493,17.493,0,0,1,35.153,16.167Z" transform="translate(0 1.409)" fill="#cd1225"/><path d="M34.026,11.013H.885A17.583,17.583,0,0,1,4.366,5.154h26.18A17.545,17.545,0,0,1,34.026,11.013Z" transform="translate(0.121 0.705)" fill="#fff"/></g></svg>