<svg xmlns="http://www.w3.org/2000/svg" xmlns:xlink="http://www.w3.org/1999/xlink" width="34.999" height="35" viewBox="0 0 34.999 35">
  <defs>
    <clipPath id="clip-path">
      <path id="Path_10247" data-name="Path 10247" d="M300.049,204.429a17.5,17.5,0,1,0,17.5-17.5,17.5,17.5,0,0,0-17.5,17.5" fill="none"/>
    </clipPath>
  </defs>
  <g id="Jamaica" transform="translate(-687.112 -891.752)">
    <g id="Group_10789" data-name="Group 10789" transform="translate(387.063 704.823)" clip-path="url(#clip-path)">
      <rect id="Rectangle_345" data-name="Rectangle 345" width="60.757" height="36.455" transform="translate(287.17 186.202)" fill="#ffd100"/>
      <path id="Path_10243" data-name="Path 10243" d="M342.247,186.2c-.28.205-.58.364-.873.539q-11.836,7.1-23.672,14.207a.255.255,0,0,1-.3,0q-12.2-7.327-24.406-14.647c-.049-.029-.094-.067-.141-.1Z" fill="#009439"/>
      <path id="Path_10244" data-name="Path 10244" d="M292.851,222.657c.321-.229.662-.413.995-.613q11.775-7.067,23.552-14.134a.245.245,0,0,1,.29-.008q12.209,7.329,24.417,14.654c.049.029.1.067.142.1Z" fill="#009439"/>
      <path id="Path_10245" data-name="Path 10245" d="M347.927,219.23c-.037.048-.061-.007-.085-.021l-24.426-14.655-.211-.123.209-.125,24.318-14.591c.061-.037.118-.1.2-.086Z" fill="#13110c"/>
      <path id="Path_10246" data-name="Path 10246" d="M287.17,189.628a10.8,10.8,0,0,1,1.042.594c.659.39,1.315.79,1.973,1.185l2.933,1.759,2.9,1.743,3.893,2.337,3.891,2.334,3.88,2.328q1.77,1.062,3.539,2.123c.206.124.408.257.631.4-.223.14-.429.275-.638.4q-11.9,7.143-23.8,14.283a.65.65,0,0,1-.248.117Z" fill="#13110c"/>
    </g>
  </g>
</svg>
