<svg xmlns="http://www.w3.org/2000/svg" width="54.221" height="61.344" viewBox="0 0 54.221 61.344"><g transform="translate(0 0)"><path d="M54.183,12.956c-.023.682-.06,1.364-.108,2.045q-.116,1.665-.3,3.324-.211,1.948-.528,3.881-.446,2.718-1.114,5.39a57.933,57.933,0,0,1-4.084,11.281A56.906,56.906,0,0,1,40.67,50.258a77.089,77.089,0,0,1-7.6,7.873c-.649.589-1.286,1.193-1.991,1.718a7.725,7.725,0,0,1-2.545,1.31c-.31.086-.629.111-.941.184h-.861c-.362-.075-.731-.117-1.086-.227a7.822,7.822,0,0,1-2.256-1.166,16.652,16.652,0,0,1-1.344-1.112,82.466,82.466,0,0,1-7.476-7.505A56.469,56.469,0,0,1,4.281,34.253a61.215,61.215,0,0,1-2.669-9.206q-.547-2.624-.89-5.28C.567,18.58.445,17.39.345,16.2.235,14.87.161,13.54.1,12.21a.313.313,0,0,0-.014-.124c-.027-.053-.064-.027-.091.01v-.2c.04.047.086.061.091-.016a1.149,1.149,0,0,0-.02-.39.6.6,0,0,0,.007-.226A12.742,12.742,0,0,1,.2,8.315,5.447,5.447,0,0,1,1.826,5.159,6.956,6.956,0,0,1,3.884,3.851,37.556,37.556,0,0,1,9.726,1.922,60.672,60.672,0,0,1,16.654.645Q18.812.367,20.981.213C22.226.125,23.472.054,24.72.037c.079,0,.169.035.238-.037h4.2c.027.043.071.037.112.037,1.662.024,3.32.127,4.976.263q1.752.144,3.5.372,2.118.278,4.215.687a46.932,46.932,0,0,1,6.678,1.788,18.8,18.8,0,0,1,2.517,1.042,5.419,5.419,0,0,1,2.8,3.332,8.887,8.887,0,0,1,.27,1.536v3.289A1.96,1.96,0,0,0,54.183,12.956Zm-1.51-1.171c0-.219-.007-.439,0-.657a12.289,12.289,0,0,0-.122-2.647,3.839,3.839,0,0,0-1.8-2.689,6.523,6.523,0,0,0-.918-.477c-.8-.34-1.61-.643-2.433-.915A54.871,54.871,0,0,0,36.668,2.131c-1.381-.166-2.768-.285-4.156-.375q-2.627-.171-5.259-.177-3.518-.006-7.026.281c-1.446.12-2.887.275-4.323.48-1.785.255-3.558.578-5.313,1A37.239,37.239,0,0,0,4.613,5.262a6.477,6.477,0,0,0-1.24.676A3.769,3.769,0,0,0,1.866,8.114a8.977,8.977,0,0,0-.221,2.434c.046,2.522.2,5.036.472,7.544.143,1.3.316,2.593.529,3.881a64.239,64.239,0,0,0,1.606,7.169,54.4,54.4,0,0,0,7.7,16.251,71.047,71.047,0,0,0,11.825,12.85,7.038,7.038,0,0,0,1.778,1.147,3.735,3.735,0,0,0,2.417.274,5.2,5.2,0,0,0,1.5-.639,11.4,11.4,0,0,0,1.66-1.28,78.923,78.923,0,0,0,8-8.122,55.574,55.574,0,0,0,7.519-11.5,56.594,56.594,0,0,0,4.064-11.4A66.58,66.58,0,0,0,52.034,19.6c.155-1.187.278-2.377.377-3.57C52.529,14.614,52.6,13.2,52.673,11.784Z" fill="#cacee6"/><path d="M81.581,73.228a2.164,2.164,0,0,0-.11-.908c-.042-.163-.086-.326-.141-.485a3.377,3.377,0,0,1-.084-2.016,3.242,3.242,0,0,0-.4-2.548c-.268-.46-.568-.9-.879-1.328s-.644-.866-.96-1.3a.292.292,0,0,0-.3-.14,3.264,3.264,0,0,0-1.044.362.349.349,0,0,0-.1.081c-.068.078-.051.137.048.166a1.325,1.325,0,0,1,.244.061.78.78,0,0,1,.4.43,9.685,9.685,0,0,1,.368,1.233,1.644,1.644,0,0,1,.034.4c-.008.284-.136.426-.414.437A1.55,1.55,0,0,1,77.1,67.3a4.07,4.07,0,0,1-.57-.642c-.793-1.094-1.671-2.119-2.551-3.142-.022-.026-.045-.05-.066-.076-.06-.073-.125-.163-.227-.088a.235.235,0,0,0-.069.277.708.708,0,0,0,.128.185c.6.749,1.208,1.5,1.768,2.278a16.412,16.412,0,0,1,2.048,3.932,1.784,1.784,0,0,1,.13.717c-.012.206-.11.255-.278.129a1.168,1.168,0,0,1-.425-.612,3.024,3.024,0,0,0-.381-.822.871.871,0,0,0-.2-.23,1.315,1.315,0,0,0-.08.235.365.365,0,0,1-.317.315,1.179,1.179,0,0,1-.625.009,2.369,2.369,0,0,0-.245-.06c-.109-.019-.225-.036-.288.089a.309.309,0,0,0-.005.335.244.244,0,0,0,.287.092,1.523,1.523,0,0,1,.8.037.543.543,0,0,1,.4.448c.009.057.064.149-.04.166-.083.014-.217.072-.251-.03-.055-.168-.167-.135-.281-.134s-.253.01-.38,0-.156.036-.166.157c-.022.249-.017.277.231.3s.506.02.758.03c.109,0,.219.008.328.02a.787.787,0,0,1,.74.651c.032.162.1.179.232.175.388-.009.777,0,1.163-.018a3.356,3.356,0,0,1,2.768,1.216c.087.1.149.178.312.129a.663.663,0,0,1,.482.109,2.155,2.155,0,0,1,.492.353c.222.207.453.407.653.634a2.417,2.417,0,0,0,1.583.753,2.768,2.768,0,0,0,.832.009.7.7,0,0,0,.41-.175A.2.2,0,0,1,86.489,75a.264.264,0,0,1,.019.346,1.656,1.656,0,0,1-.379.4,2.812,2.812,0,0,1-2.78.508,3.858,3.858,0,0,1-1.495-.919,1.4,1.4,0,0,0-.867-.475c-.167-.015-.208-.081-.21-.257,0-.295,0-.59,0-.9a3.043,3.043,0,0,1-.984-.383,2.237,2.237,0,0,0-1.249-.233c-.047,0-.11-.015-.133.044s.033.109.074.146a2.364,2.364,0,0,0,.4.262c.108.065.218.128.321.2a.2.2,0,0,1,.093.24c-.04.112-.136.115-.231.105a3.811,3.811,0,0,1-.843-.159.924.924,0,0,1-.544-.427.657.657,0,0,0-.461-.2c-.061.015-.061.072-.073.12-.063.26-.1.292-.372.316-.084.008-.169.007-.252.021s-.185-.008-.218.123-.062.264.054.375a1.152,1.152,0,0,0,.436.247,5.4,5.4,0,0,0,1.01.226,6.382,6.382,0,0,0,1.436.091.867.867,0,0,0,.364-.092.423.423,0,0,1,.1-.033c.106-.03.227-.075.3.04s-.023.195-.084.271a2.048,2.048,0,0,1-1.088.745,4.047,4.047,0,0,1-3.791-.824,2.419,2.419,0,0,1-.42-.471,1.864,1.864,0,0,1-.24-1.665.583.583,0,0,1,.353-.371,3.294,3.294,0,0,1,1.053-.248c.184-.02.369-.031.552-.046.013-.338-.077-.37-.409-.4a2.7,2.7,0,0,0-1.423.278.7.7,0,0,1-.695,0,1.071,1.071,0,0,0-.777-.142c-.18.044-.188.053-.17.234a7.129,7.129,0,0,0,.12.774,1.025,1.025,0,0,0,.35.6,8.409,8.409,0,0,1,.925.861,1.284,1.284,0,0,1,.309.543,1.048,1.048,0,0,1-.155.867,9.571,9.571,0,0,0-1.05,2.151,2,2,0,0,0-.084,1.048c.015.081.007.188.1.214s.16-.074.215-.145a2.8,2.8,0,0,0,.346-.644,1.366,1.366,0,0,1,.193-.353.373.373,0,0,1,.444-.152.389.389,0,0,1,.276.408,1.729,1.729,0,0,1-.118.541c-.154.447-.372.866-.561,1.3A2.006,2.006,0,0,0,74,81.1a2.278,2.278,0,0,0,.22.8c.028.057.048.142.127.143s.088-.089.112-.147.047-.144.078-.213a.281.281,0,0,1,.327-.176.685.685,0,0,1,.46.286.29.29,0,0,1-.167.475c-.113.04-.235-.013-.344.045a.529.529,0,0,0,.561.372,5.229,5.229,0,0,0,1.336-.259.77.77,0,0,0,.48-.488,3.842,3.842,0,0,0,.2-.937c.028-.226.042-.453.07-.679a2.625,2.625,0,0,1,.465-1.162,6.042,6.042,0,0,1,1.324-1.349,5.687,5.687,0,0,1,.749-.517.935.935,0,0,0,.485-.726c.046-.282.1-.564.147-.846a1.324,1.324,0,0,1,.115-.36.346.346,0,0,1,.558-.159,2.229,2.229,0,0,1,.958,1.107,5.349,5.349,0,0,1,.348,1.418c.115.9.089,1.8.145,2.7a14.928,14.928,0,0,0,.258,2.182,1.558,1.558,0,0,0,.149.454,1.047,1.047,0,0,1,.1.759c-.028.132-.061.263-.1.391-.119.39-.46.448-.8.354-.085-.023-.06-.088-.05-.144a.3.3,0,0,0-.181-.35c-.106-.05-.161-.028-.175.091a2.309,2.309,0,0,0-.05.472,1.468,1.468,0,0,1-.888-.437.9.9,0,0,1-.148-.79,3.834,3.834,0,0,1,.23-.667.671.671,0,0,0-.01-.695.489.489,0,0,1-.028-.371,8.345,8.345,0,0,0,.114-1.156.918.918,0,0,0-.2-.637,12.555,12.555,0,0,1-.961-1.424c-.044-.072-.079-.163-.189-.086a3.735,3.735,0,0,0-1.471,1.49A5.245,5.245,0,0,0,78,81.157c-.057.366-.1.734-.15,1.1a1.264,1.264,0,0,1-1.206,1.213,6.716,6.716,0,0,1-2.015-.05,1.377,1.377,0,0,1-1.14-.953,6.18,6.18,0,0,1-.3-1.275c-.022-.171-.042-.184-.206-.137a.53.53,0,0,0-.468.639,4.268,4.268,0,0,0,.093.65c.057.311-.014.426-.319.524-.27.087-.29.124-.217.4.058.22.128.437.175.659a.411.411,0,0,1-.352.561,11.106,11.106,0,0,1-1.549.228.864.864,0,0,1-.225-.022c-.181-.04-.22-.121-.14-.292a1.107,1.107,0,0,1,.138-.21.155.155,0,0,0,.035-.185c-.039-.071-.048-.181-.142-.193s-.126.094-.164.165a.941.941,0,0,1-.175.276.2.2,0,0,1-.358-.075.872.872,0,0,1,.052-.8,2.758,2.758,0,0,1,.418-.538,7.538,7.538,0,0,0,.82-1.026,4.738,4.738,0,0,0,.473-.948.562.562,0,0,0,.037-.119c.012-.089-.024-.128-.117-.1a.951.951,0,0,0-.648.554c-.068.172-.145.341-.224.508a2.115,2.115,0,0,1-.7.854,2.871,2.871,0,0,0-.955,1.217c-.265.584-.472,1.189-.7,1.787-.042.11-.085.22-.136.326a1.284,1.284,0,0,1-1,.761c-.191.031-.381.076-.573.1-.271.028-.316-.017-.315-.283a1.644,1.644,0,0,1,.019-.277.244.244,0,0,0-.066-.208c-.1-.121-.184-.111-.232.038-.026.08-.026.174-.126.2a1.058,1.058,0,0,1-.418.079.168.168,0,0,1-.129-.17,2.382,2.382,0,0,1,.633-2.188,14.163,14.163,0,0,1,1.287-.981,4.506,4.506,0,0,0,.5-.386.787.787,0,0,0,.27-.627,2.134,2.134,0,0,1,.083-.75.194.194,0,0,0-.007-.172.718.718,0,0,1-.081-.415c-.026-.716-.1-1.43-.153-2.143a.214.214,0,0,0-.179-.209c-.109-.031-.167.038-.225.119a23.3,23.3,0,0,0-1.408,2.366,2.17,2.17,0,0,0-.358,1.208,2.262,2.262,0,0,1-.144.868,1.962,1.962,0,0,1-.682.951c-.147.113-.294.227-.441.34a.308.308,0,0,0-.12.26c-.014.422.029.842.039,1.264,0,.135,0,.27-.009.4a.734.734,0,0,1-.287.592.737.737,0,0,0-.24.59c-.014.193,0,.388-.009.581-.007.262-.059.331-.3.4a5.12,5.12,0,0,1-1.67.1c.015-.156.027-.313.047-.469a.957.957,0,0,0-.051-.372c-.026-.1-.092-.105-.172-.107-.11,0-.085.082-.09.143-.012.151-.019.3-.028.454,0,.05,0,.1-.008.151-.011.1-.028.211-.155.228s-.157-.079-.2-.161a1.054,1.054,0,0,0-.064-.137A.988.988,0,0,1,60.523,87a2.346,2.346,0,0,1,.737-1.037.174.174,0,0,0,.081-.144,2.04,2.04,0,0,1,.521-1.182,3.77,3.77,0,0,1,.751-.711.308.308,0,0,0,.145-.337,6.371,6.371,0,0,1-.063-1.235,1.278,1.278,0,0,1,.2-.642,2.846,2.846,0,0,0,.425-.91,3.367,3.367,0,0,0,.016-1.157,9.5,9.5,0,0,1-.129-1.535,2.767,2.767,0,0,1,.327-1.255,2.226,2.226,0,0,0,.253-1.561,4.462,4.462,0,0,1,.048-1.633,6.531,6.531,0,0,1,1.181-2.6c.2-.295.392-.589.588-.884a1.724,1.724,0,0,0,.266-1.232,6.241,6.241,0,0,1,.015-1.763,1.747,1.747,0,0,1,.351-.825,4.634,4.634,0,0,1,.864-.848,12.742,12.742,0,0,1,2.063-1.271c.157-.081.314-.163.474-.237a3.234,3.234,0,0,0,1.17-.9,5.411,5.411,0,0,1,1.558-1.192,1.252,1.252,0,0,1,.983-.077,4.434,4.434,0,0,1,.594.213,17.793,17.793,0,0,0,3.744,1.116,2.224,2.224,0,0,0,.654.054.435.435,0,0,0,.444-.565,3.609,3.609,0,0,0-.19-.732,1.253,1.253,0,0,0-.822-.765,6.8,6.8,0,0,0-.989-.2,13.288,13.288,0,0,0-2.7-.1c-1.046.014-2.091.065-3.136.075a6.352,6.352,0,0,1-2.146-.279,2.3,2.3,0,0,1-.692-.358,1.108,1.108,0,0,1-.393-1.13.919.919,0,0,1,.2-.4,1.779,1.779,0,0,1,.358-.355,5.378,5.378,0,0,1,2.676-1.1,10.13,10.13,0,0,1,4.467.634,1.392,1.392,0,0,1,.42.228.543.543,0,0,1,.2.258.266.266,0,0,1-.163.37,1.288,1.288,0,0,1-1.145-.074,1.062,1.062,0,0,0-.666-.188c-.067,0-.136,0-.2.008a.517.517,0,0,1-.515-.194c-.052-.064-.109-.171-.224-.111-.061.031-.072.254-.024.333a.5.5,0,0,0,.261.191,1.425,1.425,0,0,0,.671.077c.265-.023.364.061.438.315a.172.172,0,0,1-.116.238,1.064,1.064,0,0,1-.346.068,7,7,0,0,1-2.387-.111,3.071,3.071,0,0,1-1.3-.692.612.612,0,0,0-.677-.135,2.831,2.831,0,0,0-.826.479c-.192.157-.168.291.058.4a3.256,3.256,0,0,0,.9.232,20.274,20.274,0,0,0,4.714.227,18.955,18.955,0,0,1,2.275-.067,5.212,5.212,0,0,1,1.12.181,2.74,2.74,0,0,1,2.051,2.293,1.942,1.942,0,0,1-.258,1.527c-.06.089-.017.136.027.2l.708.986c.4.561.8,1.129,1.216,1.68a2.876,2.876,0,0,1,.556,2.023c-.019.252-.048.5-.07.755a4.661,4.661,0,0,0,.167,1.451,10.279,10.279,0,0,1,.221,2.133c0,.2,0,.208-.208.214C82.059,73.233,81.832,73.228,81.581,73.228ZM72.64,79.763a.949.949,0,0,0-.026-.126,4.358,4.358,0,0,0-.62-1.208,3.356,3.356,0,0,1-.6-1.134,1.456,1.456,0,0,1,.317-1.458c.274-.311.569-.6.859-.893a.659.659,0,0,0,.124-.97,4.369,4.369,0,0,1-.523-1.141,1.9,1.9,0,0,0-.106-.257,1.7,1.7,0,0,0-.3-.466.483.483,0,0,0-.593-.137q-.172.078-.35.143a.445.445,0,0,0-.263.257c-.081.185-.164.369-.248.553a.835.835,0,0,1-.587.475,1.379,1.379,0,0,1-1.255-.284c-.412-.322-.727-.241-.946.228-.018.038-.034.077-.05.116-.061.148-.114.3-.184.443a.626.626,0,0,1-.939.251,1.133,1.133,0,0,1-.242-.254c-.117-.14-.212-.142-.338-.015a1.253,1.253,0,0,0-.421.965,1.791,1.791,0,0,1-.149.736,20.336,20.336,0,0,0-.8,2.42,4.607,4.607,0,0,0-.171,1.121,1.263,1.263,0,0,0,.075.471c.094.236.275.273.449.094a1.494,1.494,0,0,0,.156-.2q.618-.894,1.233-1.791a.479.479,0,0,0,.108-.2.474.474,0,0,1,.474-.411,8.7,8.7,0,0,1,1.918-.049,1.863,1.863,0,0,1,.819.234.451.451,0,0,1,.266.427c-.023.2-.213.244-.375.287a2.8,2.8,0,0,1-.653.066c-.28.006-.32.046-.326.326a5.276,5.276,0,0,0,.235,1.415c.033.129.09.152.211.146,1.163-.051,2.325-.095,3.488-.143A.829.829,0,0,0,72.64,79.763ZM72.561,67.27c.006.305.027.326.331.34a1.61,1.61,0,0,0,.627-.053.406.406,0,0,1,.517.189c.126.168.243.344.373.51a1.942,1.942,0,0,0,.5.492.4.4,0,0,0,.591-.122.842.842,0,0,0,.133-.652,1.98,1.98,0,0,0-.548-1.115,2.793,2.793,0,0,0-1.245-.581c-.118-.033-.191.034-.232.141s.052.142.121.185a.392.392,0,0,0,.047.017c.043.021.111.029.106.089a.161.161,0,0,1-.11.156,1.362,1.362,0,0,1-.248.042,4.021,4.021,0,0,1-.555-.029C72.66,66.858,72.555,66.963,72.561,67.27ZM69.717,71.8c-.1-.127-.115-.3-.279-.4a2.188,2.188,0,0,1-.8-.922,4.249,4.249,0,0,1-.3-.8.2.2,0,0,0-.26-.154c-.119.026-.058.122-.066.187a1.372,1.372,0,0,0,0,.227c.011.244.027.485-.206.656a.436.436,0,0,0-.115.193.713.713,0,0,0,.556,1.042l.05.007a5.959,5.959,0,0,0,1.211.031A.3.3,0,0,0,69.717,71.8ZM81.982,78.94a1.622,1.622,0,0,1-.045-.289c-.044-.512-.093-1.024-.14-1.536a.779.779,0,0,0-.1-.337c-.07-.115-.145-.127-.248-.037a.723.723,0,0,0-.146.173c-.115.2-.214.4-.333.6a.683.683,0,0,0,.034.783c.138.212.285.417.431.624a.568.568,0,0,0,.27.221A.19.19,0,0,0,81.982,78.94ZM63.7,82.75c0,.019,0,.052.006.086.018.283.114.33.357.17a.607.607,0,0,0,.132-.116,1.451,1.451,0,0,0,.282-.64c.036-.167-.093-.246-.189-.33s-.191,0-.273.056a.636.636,0,0,0-.246.312A1.218,1.218,0,0,0,63.7,82.75Zm5.523-1.61a.783.783,0,0,0-.1.024,1.011,1.011,0,0,0-.5.664.208.208,0,0,0,.1.194.349.349,0,0,0,.465-.016.667.667,0,0,0,.363-.57A.282.282,0,0,0,69.227,81.141Zm3.289-22.065c.232.015.284-.027.3-.215,0-.033-.01-.071,0-.1.062-.149-.026-.205-.145-.227-.2-.037-.4-.067-.6-.089a.385.385,0,0,0-.392.29.072.072,0,0,0,.055.095A6.8,6.8,0,0,0,72.517,59.076Z" transform="translate(-45.241 -42.88)" fill="#cacee6"/><path d="M54.717,21.777V18.634l-.048-.012c-.217.608-.4,1.229-.6,1.844s-.394,1.234-.611,1.915l-1.317-3.67c-.091.045-.054.112-.054.162q0,1.505.009,3.011c0,.23.014.241-.221.273-.208.028-.413.083-.62.122-.171.033-.181.025-.182-.159,0-.371,0-.742,0-1.114V16.3c0-.051,0-.1,0-.152-.011-.116.018-.182.156-.2.242-.03.481-.083.72-.134.129-.027.19,0,.239.139.362,1,.734,1.99,1.106,2.984a.538.538,0,0,0,.129.256L54.1,17.12c.168-.521.339-1.04.5-1.563.031-.1.072-.16.18-.177.3-.046.6-.1.885-.146.078.065.048.137.048.2q0,2.973,0,5.946c0,.227,0,.228-.218.266C55.244,21.689,55,21.73,54.717,21.777Z" transform="translate(-38.253 -11.41)" fill="#cacee6"/><path d="M179.243,28.663c-.355-.1-.676-.2-1-.276-.123-.031-.151-.115-.186-.212q-.624-1.693-1.252-3.385-.149-.4-.3-.8c-.014-.036-.009-.087-.09-.088v3.9c-.319-.059-.6-.159-.891-.234a.105.105,0,0,1-.09-.127.69.69,0,0,0,0-.076q0-3.073,0-6.145c0-.033,0-.066.008-.118.291.029.558.137.836.176a.491.491,0,0,1,.433.375c.463,1.273.945,2.539,1.424,3.806.028.073.032.164.13.23V21.819c.323.071.608.191.9.278.1.029.087.109.087.186,0,.472,0,.944,0,1.416q0,2.326-.007,4.652C179.243,28.443,179.243,28.535,179.243,28.663Z" transform="translate(-131.393 -15.801)" fill="#cacee6"/><path d="M73.624,20.247A.5.5,0,0,1,73.6,20q0-3.009-.005-6.017c0-.051,0-.1,0-.152-.007-.1.044-.127.134-.139.493-.063.984-.141,1.478-.2a1.719,1.719,0,0,1,1.475.505,1.608,1.608,0,0,1,.386,1.547,2.269,2.269,0,0,1-.357.883c-.041.058-.069.1,0,.172a1.987,1.987,0,0,1,.479,1.854,1.875,1.875,0,0,1-1.474,1.517c-.449.078-.9.137-1.351.191C74.121,20.2,73.878,20.221,73.624,20.247Zm.986-1.111c.316-.043.6-.089.883-.118a.724.724,0,0,0,.537-.335,1.234,1.234,0,0,0,.157-1.039.51.51,0,0,0-.518-.461,2.117,2.117,0,0,0-.553.042c-.158.025-.364-.006-.461.084-.113.1-.041.318-.043.484C74.607,18.232,74.61,18.668,74.61,19.137Zm.015-2.851a6.744,6.744,0,0,0,.821-.089.575.575,0,0,0,.362-.212,1.25,1.25,0,0,0,.31-.781.671.671,0,0,0-.753-.74c-.209.014-.415.06-.624.085-.082.01-.118.041-.117.126C74.626,15.2,74.625,15.731,74.625,16.286Z" transform="translate(-55.119 -10.101)" fill="#cacee6"/><path d="M113.846,19.618c-.321,0-.631,0-.94,0-.1,0-.115-.078-.14-.15q-.245-.7-.49-1.406c-.124-.358-.249-.715-.368-1.074a.171.171,0,0,0-.2-.14c-.2.011-.4,0-.633,0V17.4q0,1,0,2c0,.192,0,.194-.188.2-.211,0-.422-.012-.632,0-.142.008-.167-.051-.163-.175.008-.312.006-.624.006-.936q0-2.643,0-5.286c0-.051,0-.1,0-.152-.008-.093.022-.14.125-.137.665.023,1.332-.031,2,.043a2.176,2.176,0,0,1,.63.178A1.685,1.685,0,0,1,113.88,14.6a2.048,2.048,0,0,1-.557,1.743,1.2,1.2,0,0,1-.317.248c-.124.061-.138.128-.091.258.283.792.555,1.588.829,2.384A1.041,1.041,0,0,1,113.846,19.618ZM111.1,15.849c.334,0,.645-.008.955,0a.761.761,0,0,0,.729-.447,1.129,1.129,0,0,0,.1-.638.762.762,0,0,0-.689-.8,5.237,5.237,0,0,0-.981-.05c-.087,0-.118.03-.117.116C111.1,14.628,111.1,15.224,111.1,15.849Z" transform="translate(-82.455 -9.667)" fill="#cacee6"/><path d="M150.859,22.56c-.306-.05-.579-.1-.853-.137-.1-.015-.144-.06-.141-.165.006-.177,0-.354,0-.531q0-.911,0-1.822c0-.182,0-.185-.186-.22-.5-.1-1.008-.19-1.55-.292v2.745L147.222,22a.1.1,0,0,1-.1-.12c0-.067,0-.135,0-.2q0-2.606,0-5.212V15.349l.944.145c.051.008.067.042.068.089s0,.118,0,.177q0,1.215,0,2.429c0,.205,0,.205.2.242l1.554.3V15.79c.314.01.6.091.889.123a.082.082,0,0,1,.074.088c0,.05,0,.1,0,.152q0,3.087.007,6.174C150.859,22.392,150.859,22.459,150.859,22.56Z" transform="translate(-110.191 -11.496)" fill="#cacee6"/><path d="M94.663,15.874a6.3,6.3,0,0,1-.257,2,3.1,3.1,0,0,1-.575,1.03,1.636,1.636,0,0,1-2.585-.091,3.448,3.448,0,0,1-.623-1.66,7.517,7.517,0,0,1,.088-2.515,3.048,3.048,0,0,1,.7-1.437,1.632,1.632,0,0,1,2.639.212,3.446,3.446,0,0,1,.55,1.557A6.746,6.746,0,0,1,94.663,15.874ZM93.642,16c0-.2.012-.405,0-.606a2.9,2.9,0,0,0-.349-1.279c-.369-.639-.919-.649-1.311-.02a2.223,2.223,0,0,0-.3.748,6.818,6.818,0,0,0-.05,2.313,2.3,2.3,0,0,0,.4,1.025.631.631,0,0,0,1.082.035,2.173,2.173,0,0,0,.423-.934A5.066,5.066,0,0,0,93.642,16Z" transform="translate(-67.826 -9.461)" fill="#cacee6"/><path d="M128.092,17.486a7.438,7.438,0,0,1,.188-1.6,2.748,2.748,0,0,1,.346-.809,1.52,1.52,0,0,1,1.089-.7,1.748,1.748,0,0,1,2.061,1.775c0,.124-.038.163-.158.158q-.341-.014-.683-.006c-.113,0-.17-.025-.176-.151a1.3,1.3,0,0,0-.107-.414.6.6,0,0,0-.788-.346.925.925,0,0,0-.572.6,3.793,3.793,0,0,0-.174.992,7.5,7.5,0,0,0,.074,1.989,1.866,1.866,0,0,0,.191.546.788.788,0,0,0,.73.418.628.628,0,0,0,.627-.425,2.312,2.312,0,0,0,.132-.844c0-.084-.028-.122-.117-.119-.16,0-.321,0-.481,0-.09,0-.14-.017-.137-.123.007-.244,0-.489,0-.733,0-.1.019-.155.141-.154.489.006.978,0,1.467,0,.094,0,.137.027.137.128a9.357,9.357,0,0,1-.113,1.864,1.659,1.659,0,0,1-1.389,1.385A1.814,1.814,0,0,1,128.507,20a3.484,3.484,0,0,1-.367-1.3A7.539,7.539,0,0,1,128.092,17.486Z" transform="translate(-95.932 -10.749)" fill="#cacee6"/><path d="M35.26,26.647,34.9,25.1c-.346.079-.672.16-1,.223a.228.228,0,0,0-.2.212c-.1.469-.214.935-.306,1.406a.284.284,0,0,1-.251.261c-.285.061-.566.14-.867.216a2.845,2.845,0,0,1,.114-.608q.651-2.932,1.313-5.863a1.1,1.1,0,0,0,.036-.147c.009-.1.06-.143.159-.16.265-.048.528-.107.792-.159.169-.033.172-.031.212.14q.223.959.444,1.918.422,1.833.845,3.665c.045.194.088.181-.152.248S35.53,26.581,35.26,26.647ZM33.981,24.28c.2-.044.365-.087.529-.113.13-.021.161-.081.13-.205-.09-.367-.171-.735-.257-1.1-.008-.032-.015-.067-.067-.078Z" transform="translate(-24.169 -15.33)" fill="#cacee6"/><path d="M21.043,30.862c0,.343,0,.66,0,.977,0,.118-.079.132-.158.161l-1.728.634L18.14,33c-.047.017-.09.048-.15.025a.437.437,0,0,1-.018-.215q0-2.995.006-5.989c0-.241,0-.248.229-.3a8.014,8.014,0,0,1,.81-.183v5.279Z" transform="translate(-13.458 -19.73)" fill="#cacee6"/><path d="M167.714,25.394c-.29-.063-.568-.127-.848-.181-.083-.016-.118-.048-.113-.13,0-.042,0-.084,0-.127V18.517c.312.065.6.126.885.183a.131.131,0,0,1,.123.154c-.006.143,0,.287,0,.43q0,1.618,0,3.237,0,1.327-.01,2.654A.354.354,0,0,1,167.714,25.394Z" transform="translate(-124.894 -13.869)" fill="#cacee6"/><path d="M195.085,26.783c.291.087.588.177.885.264.074.022.081.073.082.136,0,.186,0,.371,0,.556q0,2.806,0,5.613a.481.481,0,0,1-.024.217c-.287-.079-.577-.162-.868-.237a.12.12,0,0,1-.105-.142c0-.034,0-.068,0-.1q0-3.046-.006-6.093A.326.326,0,0,1,195.085,26.783Z" transform="translate(-146.087 -20.06)" fill="#cacee6"/><path d="M119,135.153a2.044,2.044,0,0,1,.2-.659c.053-.111.143-.1.2.013a.85.85,0,0,1,.052.141,1.579,1.579,0,0,0,.527.784c.126.1.232.206.166.383-.044.119-.206.154-.429.1a1.136,1.136,0,0,1-.476-.222A.676.676,0,0,1,119,135.153Z" transform="translate(-89.128 -100.674)" fill="#cacee6"/></g></svg>