<svg xmlns="http://www.w3.org/2000/svg" xmlns:xlink="http://www.w3.org/1999/xlink" width="50.425" height="23.21" viewBox="0 0 50.425 23.21"><defs><clipPath id="a"><rect width="50.425" height="23.21" fill="#cacee6"/></clipPath></defs><g transform="translate(0 0)" clip-path="url(#a)"><path d="M25.437,0C12.8,0,1.417,4.313.117,10.091c-.864,3.843,3.143,7.786,9.268,10.092C16.549,13.675,24.652,6.789,35.223,2.059A116.024,116.024,0,0,0,12.688,21.3a45.531,45.531,0,0,0,6.329,1.234A77.728,77.728,0,0,1,36.595,2.161c-7.774,9.348-11.4,14.9-14.539,20.767,11.571,1.035,25.034-.415,28.241-10.574C51.682,6.19,41.678.7,27.978.075Q26.708.008,25.437,0Zm-.458.94a67.268,67.268,0,0,1,9.151.509c-9.945,3.559-16.951,7.2-26.181,12.429.09.09-7.283-1.071-1.983-7.168C9.966,2.108,18.385,1.017,24.979.94Zm12.989,1.7S44.7,3.5,46.356,9.456c1.824,6.562-15.463,9.194-16.624,8.21C32.931,9.935,33.875,9.869,37.968,2.644Z" transform="translate(0 0)" fill="#cacee6"/></g></svg>