<svg xmlns="http://www.w3.org/2000/svg" width="35.153" height="35.149" viewBox="0 0 35.153 35.149"><g transform="translate(0)"><g transform="translate(0 0)"><path d="M35.153,17.573c0,.091,0,.177,0,.264a.115.115,0,0,1,0,.056v.123a17.341,17.341,0,0,1-.174,2.047c-.007.075-.019.15-.031.221-.032.225-.072.446-.118.667,0,.032-.013.067-.02.1h0a.879.879,0,0,1-.019.107,17.435,17.435,0,0,1-3.492,7.4,17.211,17.211,0,0,1-2.418,2.474,17.505,17.505,0,0,1-11.3,4.115h-1.25v-.043A17.566,17.566,0,0,1,.414,21.371C.4,21.336.4,21.3.391,21.265a.87.87,0,0,1-.02-.094,16.735,16.735,0,0,1-.292-1.953C.07,19.163.067,19.1.064,19.048v0C.035,18.7.016,18.361.008,18.015a.144.144,0,0,1,0-.044.113.113,0,0,1,0-.039c0-.088,0-.171,0-.257a.124.124,0,0,1,0-.035v-.067c0-.118,0-.236,0-.356a.113.113,0,0,1,0-.039.138.138,0,0,1,0-.043c.008-.356.027-.707.056-1.058,0-.015,0-.031,0-.043s0-.035,0-.051c.013-.118.024-.233.036-.347a.445.445,0,0,1,.008-.051h0a.18.18,0,0,1,0-.044,17.576,17.576,0,0,1,28.908-11.3.265.265,0,0,1,.047.043,3.734,3.734,0,0,1,.319.284.174.174,0,0,1,.043.04c.048.04.1.083.142.13.02.016.044.04.067.059.107.1.214.206.316.308.019.02.04.035.056.051.031.036.067.072.1.107l.04.04c.2.2.394.414.58.627.016.015.027.031.04.043.078.086.153.173.224.26a.46.46,0,0,1,.04.047c.086.1.169.206.252.308a17.126,17.126,0,0,1,1.507,2.2,17.509,17.509,0,0,1,1.633,3.8c.094.327.182.659.26,1,0,.013.008.028.011.048l.013.048c.091.4.169.808.233,1.219a.157.157,0,0,0,0,.04c0,.016,0,.032.008.043a18.462,18.462,0,0,1,.185,2.159v.082C35.153,17.336,35.153,17.454,35.153,17.573Z" fill="#15890b"/><g transform="translate(16.326 12.581)"><path d="M20.639,11.068V32.906a17.474,17.474,0,0,1-5.027.73h-1.25V11.068Z" transform="translate(-14.362 -11.068)" fill="#dd2010"/><path d="M31.68,16.059c0,.091,0,.177,0,.264a.115.115,0,0,1,0,.056V16.5a17.341,17.341,0,0,1-.174,2.047c-.007.075-.019.15-.031.221-.032.225-.072.446-.118.667,0,.032-.013.067-.02.1h0a.879.879,0,0,1-.019.107,17.435,17.435,0,0,1-3.492,7.4A17.211,17.211,0,0,1,25.4,29.52V11.068h5.559c.094.327.182.659.26,1,0,.013.008.028.011.048l.013.048c.091.4.169.808.233,1.219a.157.157,0,0,0,0,.04c0,.016,0,.032.008.043a18.462,18.462,0,0,1,.185,2.159V15.7C31.68,15.823,31.68,15.941,31.68,16.059Z" transform="translate(-12.852 -11.068)" fill="#ee7c0a"/><path d="M26.158,11.068V29.52a17.444,17.444,0,0,1-6.274,3.385V11.068Z" transform="translate(-13.607 -11.068)"/></g><g transform="translate(17.444 3.008)"><path d="M28.9,5.872c-.07-.088-.146-.174-.224-.26-.013-.013-.024-.028-.04-.043-.185-.214-.383-.423-.58-.627l-.04-.04c-.035-.035-.072-.07-.1-.107-.016-.016-.036-.031-.056-.051-.1-.1-.209-.2-.316-.308-.023-.019-.047-.043-.067-.059-.047-.047-.094-.09-.142-.13a.174.174,0,0,0-.043-.04,3.734,3.734,0,0,0-.319-.284.265.265,0,0,0-.047-.043l-.083.016a6.036,6.036,0,0,0-.778.209c-.214.067-.43.138-.631.182a4.1,4.1,0,0,0-1.823.118.526.526,0,0,1-.078-.45.3.3,0,0,1,.157-.185,2.925,2.925,0,0,1,.383-.059.1.1,0,0,1,.036.027.212.212,0,0,1,.015.158.027.027,0,0,0,.008.027c.008,0,.02.008.024,0a.424.424,0,0,0,.206-.206.2.2,0,0,0-.016-.166c-.1-.189-.493-.213-.581-.216-.063-.126-.288-.174-.454-.2a1.332,1.332,0,0,0-.725.115,1.4,1.4,0,0,0-.627.971,2.977,2.977,0,0,0-.49-.123c-.2-.035-.425-.064-.623-.086a3.811,3.811,0,0,1-.513-.075c-.088-.032-.84-.356-1.389-.592-.319-.138-.576-.249-.627-.268s-.078-.011-.094,0a.093.093,0,0,0-.011.1,1.055,1.055,0,0,0,.3.382l.035.032c.027.027.059.059.091.086-.407-.189-1.057-.462-1.432-.615-.114-.048-.2-.086-.249-.107-.075-.031-.177-.083-.28-.138-.292-.155-.414-.214-.458-.169l-.008.008c-.055.146.036.26.115.363a.107.107,0,0,1,.027.032,4.11,4.11,0,0,0,.308.358,1.942,1.942,0,0,0,.469.324l-.043-.019-.228-.1A2.976,2.976,0,0,1,16,3.157c-.027-.027-.056-.059-.086-.086a1.4,1.4,0,0,0-.126-.119c-.052-.039-.147-.11-.178-.1a.039.039,0,0,0-.019.024.737.737,0,0,0,.146.481l.017.035a1.266,1.266,0,0,0,.228.3c-.08-.055-.171-.118-.252-.177-.194-.138-.269-.189-.313-.181l-.016.008a.043.043,0,0,0,0,.019,1.049,1.049,0,0,0,.687.741,2.252,2.252,0,0,1-.647-.351c-.02-.015-.032-.027-.051-.027a.019.019,0,0,0-.02,0l-.011.016c-.028.2.161.355.276.446a2.544,2.544,0,0,0,.473.311,4.411,4.411,0,0,0,.915.311c-.1.008-.193.027-.209.075a.128.128,0,0,0,.048.094c.056.051.316.257,1.041.155a2.62,2.62,0,0,1-.548.1c-.024,0-.091.008-.094.056-.008.09.315.221.418.24a2.711,2.711,0,0,0,.911,0,2.527,2.527,0,0,1-.449.1c-.056,0-.08.019-.083.051,0,.064.166.142.284.161a3.624,3.624,0,0,0,1.065.013c-.134.043-.256.075-.308.086a.045.045,0,0,0-.04.043c.008.08.252.2.426.2.032,0,.072,0,.115.008a1.572,1.572,0,0,0,.394-.016c-.072.04-.1.064-.094.094s.011.028.031.04a.755.755,0,0,0,.351.067,1.283,1.283,0,0,0,.268-.032c-.091.072-.075.1-.07.11a.048.048,0,0,0,.016.013.926.926,0,0,0,.256.035,1.477,1.477,0,0,0,.469-.086c-.083.078-.114.134-.094.177s.123.067.332.04A4.1,4.1,0,0,0,22,6.487c-.13.075-.213.147-.2.193.019.064.115.26.541.26a.937.937,0,0,0,.1,0,1.171,1.171,0,0,0,.319-.056l-.015.178a.022.022,0,0,0,.015.027.024.024,0,0,0,.028-.013l.107-.142a5.54,5.54,0,0,0-.2.817.021.021,0,0,0,.013.019s.008,0,.016,0h.008a.769.769,0,0,0,.307-.327c-.011.106-.023.2-.039.284s-.02.146-.02.189a.037.037,0,0,0,.008.02l.016.007.008,0a.05.05,0,0,0,.024-.008c-.027.086-.086.241-.2.28a.463.463,0,0,1-.138.024c-.214.024-.568.064-.529.592a.028.028,0,0,0,.016.024.02.02,0,0,0,.027-.013.537.537,0,0,1,.1-.138.791.791,0,0,0,.438-.064.2.2,0,0,0-.019.246c-.008.106-.011.26.158.3a.029.029,0,0,0,.024-.008.037.037,0,0,0,.008-.019l-.024-.166a.334.334,0,0,0,.268-.23c.027.131.059.2.153.246a.079.079,0,0,1,.009.031c.034.1.058.178.213.178a.035.035,0,0,0,.024-.013.038.038,0,0,0,0-.027.648.648,0,0,1-.048-.072c-.048-.07-.064-.1-.035-.142a.352.352,0,0,0,.126-.228.113.113,0,0,0,0-.032.4.4,0,0,0,.118.182.034.034,0,0,0,.028,0,.032.032,0,0,0,.011-.024c0-.048,0-.083,0-.111a.293.293,0,0,1,0-.074.34.34,0,0,0,.252-.075.333.333,0,0,0,.04.248.33.33,0,0,0,.075.249.14.14,0,0,0,.1.032.126.126,0,0,0,.039,0c.009,0,.016,0,.016-.011a.023.023,0,0,0,0-.024.349.349,0,0,1-.055-.2.22.22,0,0,0,.13-.086.479.479,0,0,0,.048-.351c.024-.032.039-.035.047-.035s.028.016.044.04a.4.4,0,0,1,.019.043.236.236,0,0,0,.249.169.17.17,0,0,1,0,.078.078.078,0,0,1-.051.056.026.026,0,0,0-.016.032.031.031,0,0,0,.027.019A.342.342,0,0,0,25,8.625c.028-.086.016-.224-.181-.382a.072.072,0,0,1,.039-.043c.024-.008.1-.013.238.122,0,.008.011.008.023.008a.034.034,0,0,0,.016-.019.211.211,0,0,0-.031-.19c-.06-.07-.178-.1-.372-.1l-.008-.008c-.043-.027-.083-.051-.067-.177a.655.655,0,0,0,.332.139h0a.037.037,0,0,0,.02-.008c0-.008.008-.016,0-.024a.792.792,0,0,0-.063-.115,1.4,1.4,0,0,1-.2-.469.655.655,0,0,1,.094.064c.1.075.193.153.311.118a.022.022,0,0,0,.016-.027c0-.036-.043-.08-.1-.139a1.108,1.108,0,0,1-.134-.142.889.889,0,0,0,.449.174c.032,0,.075,0,.091-.035s0-.059-.047-.115a1.659,1.659,0,0,0,.6.217c.094,0,.153-.024.177-.064a.114.114,0,0,0-.016-.114l-.011-.008a4.12,4.12,0,0,1-.415-.3,2.857,2.857,0,0,0,1.046.256.075.075,0,0,0,.067-.059c.016-.078-.083-.193-.3-.339l-.013-.008a1.208,1.208,0,0,0,.225.023.852.852,0,0,0,.426-.1l.008-.008a.032.032,0,0,0,.008-.031c-.008-.028-.051-.06-.1-.083a1.556,1.556,0,0,0,.465-.083l.008,0a.037.037,0,0,0,.016-.039c-.007-.04-.078-.08-.161-.111h.064c.078,0,.161,0,.244-.011a1.4,1.4,0,0,0,.931-.438l.236-.036A.46.46,0,0,0,28.9,5.872ZM23.5,7.978V7.7a1.5,1.5,0,0,0,.153.147.029.029,0,0,0,.024.008.031.031,0,0,0,.019-.02.831.831,0,0,0-.059-.355c.032-.19.052-.746.056-.955.048.075.091.158.134.241l.024.039a2.034,2.034,0,0,1,.233,1.078.029.029,0,0,0,.011.024.023.023,0,0,0,.027,0,.4.4,0,0,0,.083-.063.7.7,0,0,1-.019.292.434.434,0,0,1-.134.007A.627.627,0,0,0,23.7,8.2l-.131-.078A.181.181,0,0,1,23.5,7.978Zm.091.627a.258.258,0,0,0-.064-.1.566.566,0,0,1,.064-.051A.822.822,0,0,0,23.586,8.606Z" transform="translate(-15.345 -2.646)" fill="#ee7c0a"/><path d="M28.021,4.9c-.091.024-.182.043-.273.067a.026.026,0,0,0,0,.051h.008c.1-.024.2-.051.3-.078Zm.62.667a4.508,4.508,0,0,1-1.846-.107.025.025,0,0,0-.032.016.026.026,0,0,0,.016.032,4.435,4.435,0,0,0,1.207.157,4.533,4.533,0,0,0,.695-.055C28.667,5.6,28.656,5.583,28.64,5.568Zm.264.3c-.067.011-.138.024-.213.032h0c-.324.047-.707.082-1.153.106a1.018,1.018,0,0,0-.209-.063,6.137,6.137,0,0,1-1.223-.4c-.15-.08-.347-.193-.524-.3.055.023.114.047.181.07a1.372,1.372,0,0,0,1.03.048l.011,0a2.9,2.9,0,0,0,.359.027,1.093,1.093,0,0,0,.2-.015.032.032,0,0,0,.019-.032.033.033,0,0,0-.031-.02,1.794,1.794,0,0,1-.538-.011l-.015,0c-.131-.067-.241-.127-.34-.178-.07-.039-.138-.075-.2-.106a2.739,2.739,0,0,0,1.255.134c.013-.008.02-.016.016-.032-.011-.043-.115-.1-.252-.161a1.034,1.034,0,0,0,.146,0,.969.969,0,0,0,.115,0c.213,0,.288-.008.3-.056s-.027-.067-.134-.118l-.011,0H27.7a1.923,1.923,0,0,0,.214.011c-.016-.016-.036-.031-.056-.051a1,1,0,0,1-.153-.011,1.889,1.889,0,0,1-.249-.04,2.127,2.127,0,0,0-.26-.056.02.02,0,0,0-.027.02.021.021,0,0,0,.016.027l.26.059a1.328,1.328,0,0,1,.224.088.734.734,0,0,1,.108.063,1.536,1.536,0,0,1-.249.019.913.913,0,0,0-.111,0,1.445,1.445,0,0,1-.433-.059,1.783,1.783,0,0,0-.324-.072.023.023,0,0,0-.027.02c0,.011.008.024.019.027a2.219,2.219,0,0,1,.268.064.423.423,0,0,1,.048.011,1.9,1.9,0,0,1,.489.209,3.174,3.174,0,0,1-1.44-.233.027.027,0,0,0-.032.013A.021.021,0,0,0,26,4.928c.119.08.253.147.434.246.088.047.185.094.3.157a1.376,1.376,0,0,1-.95-.067,1.972,1.972,0,0,1-.53-.28c.1,0,.115-.027.123-.051.011-.04-.039-.083-.15-.139.7.131.73.056.746.02s0-.083-.161-.182c.477.067.733.048.757-.064.016-.059-.051-.126-.13-.173a3.761,3.761,0,0,0,.62-.088,1.7,1.7,0,0,0,.492.126c-.023-.019-.047-.043-.067-.059a2.4,2.4,0,0,1-.339-.082c.067-.016.138-.036.2-.048a.174.174,0,0,0-.043-.04,3.946,3.946,0,0,1-.982.139.023.023,0,0,0-.024.023A.024.024,0,0,0,26.3,4.4c.11.032.221.118.209.161,0,.024-.067.131-.829,0a.028.028,0,0,0-.027.019.02.02,0,0,0,.011.027c.246.134.252.182.252.185s-.055.08-.891-.091a.036.036,0,0,0-.032.02.031.031,0,0,0,.016.032h0a1.26,1.26,0,0,1,.307.165c-.019.013-.126.04-.709-.031a.031.031,0,0,0-.032.019.029.029,0,0,0,.019.027.335.335,0,0,1,.178.107s-.036.059-.541-.019a1.556,1.556,0,0,0-.5-.529c-.032-.016-.059-.036-.088-.052a4.182,4.182,0,0,1,1.788-.106h.007c.206-.043.426-.118.64-.185a5.9,5.9,0,0,1,.77-.209c.035,0,.078-.013.122-.02a.265.265,0,0,0-.047-.043l-.083.016a6.036,6.036,0,0,0-.778.209c-.214.067-.43.138-.631.182a4.1,4.1,0,0,0-1.823.118.526.526,0,0,1-.078-.45.3.3,0,0,1,.157-.185,2.925,2.925,0,0,1,.383-.059.1.1,0,0,1,.036.027.212.212,0,0,1,.015.158.027.027,0,0,0,.008.027c.008,0,.02.008.024,0a.424.424,0,0,0,.206-.206.2.2,0,0,0-.016-.166c-.1-.189-.493-.213-.581-.216-.063-.126-.288-.174-.454-.2a1.332,1.332,0,0,0-.725.115,1.4,1.4,0,0,0-.627.971,2.977,2.977,0,0,0-.49-.123c-.2-.035-.425-.064-.623-.086a3.811,3.811,0,0,1-.513-.075c-.088-.032-.84-.356-1.389-.592-.319-.138-.576-.249-.627-.268s-.078-.011-.094,0a.093.093,0,0,0-.011.1,1.055,1.055,0,0,0,.3.382l.035.032c.027.027.059.059.091.086-.407-.189-1.057-.462-1.432-.615-.114-.048-.2-.086-.249-.107-.075-.031-.177-.083-.28-.138-.292-.155-.414-.214-.458-.169l-.008.008c-.055.146.036.26.115.363a.107.107,0,0,1,.027.032,4.11,4.11,0,0,0,.308.358,1.942,1.942,0,0,0,.469.324l-.043-.019-.228-.1A2.976,2.976,0,0,1,16,3.157c-.027-.027-.056-.059-.086-.086a1.4,1.4,0,0,0-.126-.119c-.052-.039-.147-.11-.178-.1a.039.039,0,0,0-.019.024.737.737,0,0,0,.146.481l.017.035a1.266,1.266,0,0,0,.228.3c-.08-.055-.171-.118-.252-.177-.194-.138-.269-.189-.313-.181l-.016.008a.043.043,0,0,0,0,.019,1.049,1.049,0,0,0,.687.741,2.252,2.252,0,0,1-.647-.351c-.02-.015-.032-.027-.051-.027a.019.019,0,0,0-.02,0l-.011.016c-.028.2.161.355.276.446a2.544,2.544,0,0,0,.473.311,4.411,4.411,0,0,0,.915.311c-.1.008-.193.027-.209.075a.128.128,0,0,0,.048.094c.056.051.316.257,1.041.155a2.62,2.62,0,0,1-.548.1c-.024,0-.091.008-.094.056-.008.09.315.221.418.24a2.711,2.711,0,0,0,.911,0,2.527,2.527,0,0,1-.449.1c-.056,0-.08.019-.083.051,0,.064.166.142.284.161a3.624,3.624,0,0,0,1.065.013c-.134.043-.256.075-.308.086a.045.045,0,0,0-.04.043c.008.08.252.2.426.2.032,0,.072,0,.115.008a1.572,1.572,0,0,0,.394-.016c-.072.04-.1.064-.094.094s.011.028.031.04a.755.755,0,0,0,.351.067,1.283,1.283,0,0,0,.268-.032c-.091.072-.075.1-.07.11a.048.048,0,0,0,.016.013.926.926,0,0,0,.256.035,1.477,1.477,0,0,0,.469-.086c-.083.078-.114.134-.094.177s.123.067.332.04A4.1,4.1,0,0,0,22,6.487c-.13.075-.213.147-.2.193.019.064.115.26.541.26a.937.937,0,0,0,.1,0,1.171,1.171,0,0,0,.319-.056l-.015.178a.022.022,0,0,0,.015.027.024.024,0,0,0,.028-.013l.107-.142a5.54,5.54,0,0,0-.2.817.021.021,0,0,0,.013.019s.008,0,.016,0h.008a.769.769,0,0,0,.307-.327c-.011.106-.023.2-.039.284s-.02.146-.02.189a.037.037,0,0,0,.008.02l.016.007.008,0a.05.05,0,0,0,.024-.008c-.027.086-.086.241-.2.28a.463.463,0,0,1-.138.024c-.214.024-.568.064-.529.592a.028.028,0,0,0,.016.024.02.02,0,0,0,.027-.013.537.537,0,0,1,.1-.138.791.791,0,0,0,.438-.064.2.2,0,0,0-.019.246c-.008.106-.011.26.158.3a.029.029,0,0,0,.024-.008.037.037,0,0,0,.008-.019l-.024-.166a.334.334,0,0,0,.268-.23c.027.131.059.2.153.246a.079.079,0,0,1,.009.031c.034.1.058.178.213.178a.035.035,0,0,0,.024-.013.038.038,0,0,0,0-.027.648.648,0,0,1-.048-.072c-.048-.07-.064-.1-.035-.142a.352.352,0,0,0,.126-.228.113.113,0,0,0,0-.032.4.4,0,0,0,.118.182.034.034,0,0,0,.028,0,.032.032,0,0,0,.011-.024c0-.048,0-.083,0-.111a.293.293,0,0,1,0-.074.34.34,0,0,0,.252-.075.333.333,0,0,0,.04.248.33.33,0,0,0,.075.249.14.14,0,0,0,.1.032.126.126,0,0,0,.039,0c.009,0,.016,0,.016-.011a.023.023,0,0,0,0-.024.349.349,0,0,1-.055-.2.22.22,0,0,0,.13-.086.479.479,0,0,0,.048-.351c.024-.032.039-.035.047-.035s.028.016.044.04a.4.4,0,0,1,.019.043.236.236,0,0,0,.249.169.17.17,0,0,1,0,.078.078.078,0,0,1-.051.056.026.026,0,0,0-.016.032.031.031,0,0,0,.027.019A.342.342,0,0,0,25,8.625c.028-.086.016-.224-.181-.382a.072.072,0,0,1,.039-.043c.024-.008.1-.013.238.122,0,.008.011.008.023.008a.034.034,0,0,0,.016-.019.211.211,0,0,0-.031-.19c-.06-.07-.178-.1-.372-.1l-.008-.008c-.043-.027-.083-.051-.067-.177a.655.655,0,0,0,.332.139h0a.037.037,0,0,0,.02-.008c0-.008.008-.016,0-.024a.792.792,0,0,0-.063-.115,1.4,1.4,0,0,1-.2-.469.655.655,0,0,1,.094.064c.1.075.193.153.311.118a.022.022,0,0,0,.016-.027c0-.036-.043-.08-.1-.139a1.108,1.108,0,0,1-.134-.142.889.889,0,0,0,.449.174c.032,0,.075,0,.091-.035s0-.059-.047-.115a1.659,1.659,0,0,0,.6.217c.094,0,.153-.024.177-.064a.114.114,0,0,0-.016-.114l-.011-.008a4.12,4.12,0,0,1-.415-.3,2.857,2.857,0,0,0,1.046.256.075.075,0,0,0,.067-.059c.016-.078-.083-.193-.3-.339l-.013-.008a1.208,1.208,0,0,0,.225.023.852.852,0,0,0,.426-.1l.008-.008a.032.032,0,0,0,.008-.031c-.008-.028-.051-.06-.1-.083a1.556,1.556,0,0,0,.465-.083l.008,0a.037.037,0,0,0,.016-.039c-.007-.04-.078-.08-.161-.111h.064c.078,0,.161,0,.244-.011a1.4,1.4,0,0,0,.931-.438l.236-.036A.46.46,0,0,0,28.9,5.872Zm-4.249-.758c.139,0,.171-.027.178-.059s-.024-.067-.072-.1c.185.019.311.031.4.031a4.651,4.651,0,0,0,.918.6,6.137,6.137,0,0,0,1.236.406c.19.044.221.075.228.083l-.019.013c-.987.26-2.336-.6-2.727-.876a.02.02,0,0,0-.031,0,.021.021,0,0,0,0,.035,7.563,7.563,0,0,0,1.49.939c.127.067.23.123.292.158a1.477,1.477,0,0,1-.813-.1,1.37,1.37,0,0,1-.221-.127h0L25.5,6.113a14.243,14.243,0,0,1-1.191-.955c0-.013-.011-.028-.016-.04s-.011-.027-.019-.04A2.56,2.56,0,0,0,24.655,5.114ZM19.944,6.274a.8.8,0,0,1,.174-.11l.088-.051a1.789,1.789,0,0,0,.473-.292.021.021,0,0,0,0-.032c-.008-.011-.024-.016-.031-.008-.2.131-.356.225-.474.292a1.2,1.2,0,0,1-.584.075c-.047,0-.083-.008-.118-.008A.6.6,0,0,1,19.1,6a2.688,2.688,0,0,0,.741-.281.024.024,0,0,0,0-.035.032.032,0,0,0-.032-.008,2.813,2.813,0,0,1-1.475.131.488.488,0,0,1-.244-.11.184.184,0,0,1,.035,0,6.8,6.8,0,0,0,1.108-.308.026.026,0,0,0,.017-.031.025.025,0,0,0-.032-.016,3.321,3.321,0,0,1-1.55.158A.871.871,0,0,1,17.3,5.3a.134.134,0,0,1,.047-.008,5.507,5.507,0,0,0,1.247-.316.022.022,0,0,0,.016-.031.024.024,0,0,0-.032-.016c-1.132.343-1.558.122-1.661.047a.18.18,0,0,1-.063-.07.673.673,0,0,1,.339-.048h.013a2.214,2.214,0,0,0,.634-.1.025.025,0,0,0,.016-.032.023.023,0,0,0-.027-.016,2.31,2.31,0,0,1-.631.1l-.067-.016a4.779,4.779,0,0,1-1.014-.335,2.363,2.363,0,0,1-.463-.3c-.13-.1-.256-.213-.26-.359a5.553,5.553,0,0,0,2.032.84.029.029,0,0,0,.032-.015.026.026,0,0,0-.016-.032c-.158-.059-.308-.115-.45-.166C16.11,4.1,15.573,3.9,15.451,3.4c.051.027.158.1.244.165a2.973,2.973,0,0,0,.434.276c.04.013.115.044.209.083.158.075.324.139.485.2h.008a.784.784,0,0,0,.075.032,10.4,10.4,0,0,0,1.156.41.023.023,0,0,0,.027-.016.029.029,0,0,0-.016-.032c-.094-.031-.19-.067-.284-.1-.284-.1-.58-.206-.867-.313-.19-.078-.367-.149-.509-.209l-.056-.023a2.234,2.234,0,0,1-.244-.134.977.977,0,0,1-.319-.372l-.019-.035a.774.774,0,0,1-.145-.422.831.831,0,0,1,.122.078,1.065,1.065,0,0,1,.122.115c.033.032.059.059.091.086a3.042,3.042,0,0,0,.872.485c.075.027.15.064.225.094l.048.02c.3.134.62.272.942.379a.674.674,0,0,0,.1.032.029.029,0,0,0,.032-.016.028.028,0,0,0-.016-.032c-.343-.142-.679-.284-1-.446a1.878,1.878,0,0,1-.473-.324,3.461,3.461,0,0,1-.3-.355c-.008-.008-.016-.019-.027-.032-.072-.091-.15-.189-.107-.3a1.854,1.854,0,0,1,.4.182c.1.051.2.106.28.138.048.019.134.056.249.107.441.181,1.266.524,1.626.706a1.524,1.524,0,0,0,.272.153.594.594,0,0,1-.485.1.019.019,0,0,0-.024.008.024.024,0,0,0,0,.027l.008.024c.028.078.08.228.608.126a1.3,1.3,0,0,1-.41.24.021.021,0,0,0-.019.02.021.021,0,0,0,.015.027,1.877,1.877,0,0,0,.656.115,2.451,2.451,0,0,1-.281.244.026.026,0,0,0-.011.032.034.034,0,0,0,.024.016c.224,0,.379,0,.493-.013-.123.08-.21.142-.222.147a.032.032,0,0,0-.011.027.024.024,0,0,0,.023.019,2.322,2.322,0,0,0,.884-.083,2.876,2.876,0,0,1-.509.26h0l0,0,0,0h0l0,.008v.013l0,.008h0l.009.008a.738.738,0,0,0,.422.1,1.82,1.82,0,0,0,.335-.035,2.017,2.017,0,0,0,.426-.123c-.163.118-.388.28-.434.308a.059.059,0,0,0-.028.07c.016.043.1.067.222.067a1.716,1.716,0,0,0,1.2-.537.664.664,0,0,0,.15.161l-.094.115a.659.659,0,0,0-.083.08h0a13.719,13.719,0,0,1-1.231.674A1.028,1.028,0,0,1,19.944,6.274Zm-.221-1.937a.057.057,0,0,0,.024.011c-.094.1-.19.193-.268.273a2.009,2.009,0,0,1-.62-.083,1.555,1.555,0,0,0,.426-.3.019.019,0,0,0,0-.027.023.023,0,0,0-.027-.008c-.533.115-.6,0-.629-.067a.593.593,0,0,0,.5-.138,4,4,0,0,0,.785.225.792.792,0,0,1-.177.067c-.013,0-.024,0-.024.015A.024.024,0,0,0,19.724,4.337Zm.07.035a1.24,1.24,0,0,0,.62.083c-.078.078-.106.1-.114.11a6.234,6.234,0,0,0-.565.335c-.106.008-.256.008-.5.011.059-.051.15-.134.268-.248C19.593,4.577,19.692,4.479,19.794,4.373Zm2.139.8a1.768,1.768,0,0,1-.924.513c-.331.056-.426,0-.43-.011s0,0,.011-.008c.072-.051.592-.422.616-.442a1.884,1.884,0,0,0,.666-.5A.7.7,0,0,0,21.933,5.169Zm.5,1.72c-.474.028-.568-.165-.588-.225a2.039,2.039,0,0,1,.556-.327.021.021,0,0,0,.011-.027.023.023,0,0,0-.031-.016,5.733,5.733,0,0,1-.939.3c-.241.035-.273,0-.276-.013s-.011-.055.189-.213a2.73,2.73,0,0,0,.458-.265.023.023,0,0,0,0-.032.022.022,0,0,0-.035,0,1.811,1.811,0,0,1-1.255.367,1.076,1.076,0,0,1,.194-.134A11.539,11.539,0,0,0,21.8,5.711c-.072.078-.123.153-.107.2a.048.048,0,0,0,.043.035,1.159,1.159,0,0,0,.632-.189,1.281,1.281,0,0,1,.438.978C22.809,6.8,22.805,6.859,22.43,6.889Zm.591.99c0-.039.013-.086.02-.141.016-.111.04-.253.051-.41v0a2.678,2.678,0,0,0,0-.359c0-.016-.011-.024-.027-.024s-.023.013-.023.028a2.686,2.686,0,0,1,0,.347,1,1,0,0,1-.3.391,7.167,7.167,0,0,1,.241-.9.031.031,0,0,0-.013-.032c-.011,0-.027,0-.031.008l-.147.19.013-.123a.135.135,0,0,0,.055-.123,1.561,1.561,0,0,0-.107-.544.735.735,0,0,1,.064-.272,1.168,1.168,0,0,0,.473.265.6.6,0,0,1,.351.272c0,.086-.023.821-.059,1.025l0,.008a1.265,1.265,0,0,1,.059.3.718.718,0,0,1-.273-.391l0-.019c0-.008-.013-.016-.024-.016a.03.03,0,0,0-.023.016,1.227,1.227,0,0,1-.269.481l0,0A.119.119,0,0,1,23.021,7.879Zm1.07.028a.023.023,0,0,0,.027,0,.4.4,0,0,0,.083-.063.7.7,0,0,1-.019.292.434.434,0,0,1-.134.007A.627.627,0,0,0,23.7,8.2l-.131-.078a.181.181,0,0,1-.078-.147V7.7a1.5,1.5,0,0,0,.153.147.029.029,0,0,0,.024.008.031.031,0,0,0,.019-.02.831.831,0,0,0-.059-.355c.032-.19.052-.746.056-.955.048.075.091.158.134.241l.024.039a2.034,2.034,0,0,1,.233,1.078A.029.029,0,0,0,24.091,7.908Zm-.5.7a.258.258,0,0,0-.064-.1.566.566,0,0,1,.064-.051A.822.822,0,0,0,23.586,8.606Zm.013-.228c0,.008,0,.011,0,.019a.315.315,0,0,0-.126.1.025.025,0,0,0,0,.035.222.222,0,0,1,.083.2.316.316,0,0,1-.107.193l-.007.008c-.056.075-.017.13.027.2a.1.1,0,0,0,.019.032c-.07-.011-.086-.051-.118-.138,0-.016-.008-.028-.013-.04s-.007-.016-.015-.016c-.1-.043-.115-.115-.15-.311l-.008-.036a.031.031,0,0,0-.028-.019.026.026,0,0,0-.023.024.3.3,0,0,1-.268.319c-.008,0-.016,0-.02.013a.016.016,0,0,0,0,.019l.019.15c-.09-.04-.09-.126-.086-.241l0-.016c-.052-.078-.044-.153.138-.339a.031.031,0,0,0,0-.036.029.029,0,0,0-.035,0,.681.681,0,0,1-.552.163h-.013c-.011,0-.032,0-.1.094,0-.406.281-.438.49-.458a.684.684,0,0,0,.15-.027c.165-.063.228-.323.24-.375a1.169,1.169,0,0,0,.253-.422.51.51,0,0,0,.1.177v.335a.218.218,0,0,0,.107.19l.114.067A.223.223,0,0,0,23.6,8.377Zm1.1-.319.011.008s.008,0,.016,0c.174,0,.288.024.335.083a.124.124,0,0,1,.027.1c-.122-.11-.2-.114-.249-.1a.112.112,0,0,0-.074.1.02.02,0,0,0,.007.024c.147.114.209.228.178.339a.3.3,0,0,1-.147.166c0-.008,0-.013,0-.016a.151.151,0,0,0-.024-.134.027.027,0,0,0-.019-.008c-.134.016-.174-.064-.214-.142-.007-.016-.016-.032-.019-.043a.111.111,0,0,0-.083-.067c-.043,0-.075.035-.1.063a.043.043,0,0,0,0,.02.413.413,0,0,1-.04.323.177.177,0,0,1-.115.075.023.023,0,0,0-.024.02.383.383,0,0,0,.044.213.093.093,0,0,1-.059-.024.312.312,0,0,1-.056-.213c0-.008,0-.013,0-.016a.343.343,0,0,1,0-.34.031.031,0,0,0-.015-.035.024.024,0,0,0-.032.016.3.3,0,0,1-.3.158h-.011c-.04.011-.036.043-.028.126V8.8a.5.5,0,0,1-.059-.41c.032-.2.244-.193.4-.19.091,0,.146,0,.174-.024.055-.07.031-.307.023-.374a.764.764,0,0,0,.131-.332,1.352,1.352,0,0,0,.236.335C24.584,7.97,24.632,8.018,24.7,8.058Zm.335-.648c.031.036.063.067.078.088a.377.377,0,0,1-.241-.115.607.607,0,0,0-.126-.086.038.038,0,0,0-.019,0c-.008,0-.016.013-.016.016-.043.131.1.379.2.544.016.024.028.043.04.064-.264-.059-.371-.185-.568-.541a.019.019,0,0,0-.027-.011c-.011,0-.019.008-.019.019a.757.757,0,0,1-.131.391.325.325,0,0,1-.063.063,2.209,2.209,0,0,0-.249-1.053l-.024-.04a3.267,3.267,0,0,0-.177-.311l0,0a.7.7,0,0,0-.383-.3,1.164,1.164,0,0,1-.477-.272.029.029,0,0,0-.024-.008.018.018,0,0,0-.016.011,1.126,1.126,0,0,0-.075.23,1.042,1.042,0,0,0-.323-.386.031.031,0,0,0-.028,0,1.08,1.08,0,0,1-.612.189h0c-.013-.035.126-.2.3-.359v0l.118-.134a.027.027,0,0,0,0-.019c0-.008,0-.013-.013-.016a.5.5,0,0,1-.173-.19.02.02,0,0,0-.008-.016.819.819,0,0,1,.031-.706A.022.022,0,0,0,22,4.416c-.011-.008-.027,0-.035.013-.024.059-.043.118-.059.173a2.163,2.163,0,0,1-1.341.781,1.092,1.092,0,0,1-.679-.031,4.146,4.146,0,0,0,.749-.426.734.734,0,0,0,.134-.091.038.038,0,0,0,0-.035.03.03,0,0,0-.036,0c-.043.028-.082.059-.126.088a2.015,2.015,0,0,1-1.089.221,8.986,8.986,0,0,1,.793-.485.881.881,0,0,0,.6-.035c-.08.118-.088.158-.088.169a.026.026,0,0,0,.024.027h.225a.026.026,0,1,0,0-.051h-.19a1.1,1.1,0,0,1,.126-.2.024.024,0,0,0,0-.032.023.023,0,0,0-.031,0,.852.852,0,0,1-.616.082c.024-.023.072-.067.147-.142a.024.024,0,0,0,0-.031.024.024,0,0,0-.027-.013,1.162,1.162,0,0,1-.667-.063l0,0a1.8,1.8,0,0,0,.193-.086.031.031,0,0,0,.011-.027c0-.008-.011-.016-.019-.02a4.179,4.179,0,0,1-.9-.252,1.88,1.88,0,0,1-.525-.371l-.032-.032a1.154,1.154,0,0,1-.284-.359c-.008-.035,0-.051,0-.055a.067.067,0,0,1,.043.008l.624.264c.58.252,1.3.565,1.392.6a3.388,3.388,0,0,0,.521.08c.2.024.426.051.627.083a2.536,2.536,0,0,1,.493.134l.011,0,0,0h0c.066.027.093.043.1.043a.021.021,0,0,0,.032-.008A.021.021,0,0,0,22.1,4.3a.342.342,0,0,0-.1-.051,1.4,1.4,0,0,1,.6-.947,1.28,1.28,0,0,1,.7-.11c.091.016.375.055.423.181a.024.024,0,0,0,.024.02s.454,0,.551.193a.133.133,0,0,1,.013.122.334.334,0,0,1-.134.15.224.224,0,0,0-.027-.146.162.162,0,0,0-.127-.067c-.07,0-.28-.016-.315-.075a.021.021,0,0,0-.032-.008.026.026,0,0,0-.008.035c.024.043.086.072.209.088a1.3,1.3,0,0,0-.2.039.37.37,0,0,0-.19.214.548.548,0,0,0,.027.386,1.139,1.139,0,0,1-.146-.206.028.028,0,0,0-.032-.011.024.024,0,0,0-.011.035,1.033,1.033,0,0,0,.264.319,1.194,1.194,0,0,0,.118.08,1.558,1.558,0,0,1,.537.6,3.023,3.023,0,0,1,.119.781.026.026,0,0,0,.027.024.026.026,0,0,0,.024-.027,5.117,5.117,0,0,0-.083-.667,13.191,13.191,0,0,0,1.151.916c.147.146.292.284.45.433a.224.224,0,0,1,.051.056.117.117,0,0,1-.059.008.514.514,0,0,1-.177-.027,2.227,2.227,0,0,1-.343-.147c-.035-.019-.07-.035-.107-.055a1.623,1.623,0,0,1-.434-.327c-.075-.1-.177-.2-.181-.206a.026.026,0,0,0-.036,0,.025.025,0,0,0,0,.035c.008.008.083.1.19.206a.45.45,0,0,1,.059.091,1.374,1.374,0,0,0,.157.189,1.221,1.221,0,0,1,.206.26c-.386.067-1.062-.6-1.07-.612a.029.029,0,0,0-.035,0,.031.031,0,0,0,0,.036c.011.011.119.118.268.24a1.1,1.1,0,0,1,.2.372,1.976,1.976,0,0,0,.1.26A1.313,1.313,0,0,0,25.034,7.41Zm1.8-.232a.029.029,0,0,1-.028.019,2.428,2.428,0,0,1-1.258-.41.03.03,0,0,0-.036,0,.033.033,0,0,0,0,.035,3.453,3.453,0,0,0,.64.506c.013.019.024.043.013.059s-.028.035-.131.035a1.775,1.775,0,0,1-.816-.371.025.025,0,0,0-.036,0,.029.029,0,0,0,0,.035l0,0a1.163,1.163,0,0,1,.249.26.21.21,0,0,1-.043,0,.881.881,0,0,1-.568-.289h0c-.02-.035-.035-.07-.056-.11a2.7,2.7,0,0,1-.094-.256.979.979,0,0,0-.118-.257,1.283,1.283,0,0,0,.655.292.818.818,0,0,0,.091-.008.032.032,0,0,0,.015-.027c0-.067-.09-.171-.224-.316-.02-.024-.044-.048-.064-.07a1.184,1.184,0,0,0,.252.165c.035.016.072.036.11.056a2.547,2.547,0,0,0,.348.146.585.585,0,0,0,.2.032c.048,0,.1-.011.1-.043s-.02-.067-.064-.11c-.107-.1-.209-.193-.308-.292.02.008.036.019.056.027.051.02.1.035.153.051a6,6,0,0,0,.688.549C26.837,7.083,26.837,7.162,26.834,7.178Zm.35-.45a1.048,1.048,0,0,1-.722.04c-.206-.155-.386-.3-.485-.391.067.016.131.024.186.032l.007.008a2.225,2.225,0,0,0,.853.221A.7.7,0,0,1,27.184,6.728Zm.588-.386a2.884,2.884,0,0,1-1.128-.126.022.022,0,0,0-.032.011.03.03,0,0,0,.016.035,2.879,2.879,0,0,0,.679.134l.011.008a.948.948,0,0,1,.257.111,1.868,1.868,0,0,1-1.279-.1.171.171,0,0,0,.043,0,1.3,1.3,0,0,0,.284-.031.028.028,0,0,0,.016-.02.023.023,0,0,0-.008-.027c-.047-.032-.174-.1-.35-.193-.3-.163-.734-.394-1.065-.612a4.129,4.129,0,0,0,1.913.65,1.518,1.518,0,0,0,.409-.051l.008,0c.013-.008.052-.032.044-.064l0-.011c.4-.024.742-.056,1.041-.094A1.38,1.38,0,0,1,27.772,6.341Z" transform="translate(-15.345 -2.646)"/><path d="M22.693,5.577c-.036-.031-.064-.059-.083-.078a.325.325,0,0,1-.075-.213.024.024,0,1,0-.048,0,.365.365,0,0,0,.083.252c.024.02.056.051.091.083.118.107.3.265.316.407A.022.022,0,0,0,23,6.047h0c.016,0,.024-.015.019-.027C23,5.858,22.819,5.689,22.693,5.577Z" transform="translate(-14.369 -2.289)"/><path d="M22.457,3.227c-.064-.055-.2-.008-.327.04a.577.577,0,0,1-.155.048.017.017,0,0,0-.015.016.03.03,0,0,0,0,.027,1.031,1.031,0,0,0,.335.063.235.235,0,0,0,.08-.008c.086-.035.106-.078.11-.1A.089.089,0,0,0,22.457,3.227Zm-.094.134a.686.686,0,0,1-.289-.019c.024-.008.048-.019.075-.027.1-.036.233-.083.276-.048a.037.037,0,0,1,.013.035C22.438,3.322,22.406,3.345,22.363,3.361Z" transform="translate(-14.441 -2.57)"/></g></g></g></svg>