<svg xmlns="http://www.w3.org/2000/svg" width="62.551" height="62.49" viewBox="0 0 62.551 62.49"><path d="M2.2,42.962c1.249,0,2.342,0,3.434,0a3.15,3.15,0,0,0,.515.043c.948-.155,1.432.35,1.869,1.121a26.2,26.2,0,0,0,18.661,13.3,26.483,26.483,0,0,0,27.351-12.4c.66-1.089,1.187-2.257,1.762-3.4a8.267,8.267,0,0,0,.316-.888h-.864c-4.811,0-9.62.008-14.43-.007q-17.386-.048-34.768-.109a4.972,4.972,0,0,1-4.7-2.877A11.479,11.479,0,0,1,.051,32.967,30.377,30.377,0,0,1,9.213,9.2,29.91,29.91,0,0,1,24.907.7,30.17,30.17,0,0,1,32.251.022a31.448,31.448,0,0,1,29.26,22.963c.045.163.072.33.134.626-1,0-1.946.006-2.888,0-.67-.006-1.483.192-1.964-.119-.442-.284-.523-1.127-.768-1.721-3.7-9.02-10.336-14.508-19.86-16.536a26.742,26.742,0,0,0-25.608,9.458A26.362,26.362,0,0,0,5.492,24.962c-.062.266-.1.537-.178.951.9-.227,1.684-.419,2.464-.623,3.634-.949,7.244-2.017,10.911-2.816,2.775-.6,5.621-.924,8.447-1.258,1.712-.2,3.449-.229,5.178-.27a34.112,34.112,0,0,1,8.405,1.045q6.913,1.572,13.807,3.242c1.153.277,2.289.645,3.41,1.037,3.557,1.24,4.853,3.185,4.58,6.916a30.441,30.441,0,0,1-2.856,11.238A31.091,31.091,0,0,1,37.938,61.9a32.121,32.121,0,0,1-8.263.554,29.591,29.591,0,0,1-18.9-7.536A31.1,31.1,0,0,1,2.591,43.9c-.1-.239-.2-.478-.395-.94ZM18.723,30.3c-.462-1.235-.822-2.271-1.848-2.833A7.372,7.372,0,0,0,12.629,26.3c-.58.052-1.171-.02-1.754.017a7.967,7.967,0,0,0-4.4,1.355,2.692,2.692,0,0,0,.136,4.643,10.285,10.285,0,0,0,3.512,1.257c1.253.294,2.48.7,3.709,1.084.387.121.461.423.406.832-.082.6-.484.734-.971.85-1.563.369-3.015.061-3.573-.964a1.521,1.521,0,0,0-1.673-.883c-.189.017-.386-.053-.578-.045-.934.035-1.867.083-2.872.128.514,1.986,1.36,3.441,3.318,3.994a16.564,16.564,0,0,0,5.858.391,7.663,7.663,0,0,0,3.714-1.235,3.377,3.377,0,0,0,1.465-3.94,3.848,3.848,0,0,0-2.686-2.256c-1.052-.32-2.133-.54-3.2-.8s-2.125-.5-3.186-.745c.3-1.318.628-1.539,1.8-1.308a6.964,6.964,0,0,1,1.014.2,1.266,1.266,0,0,1,.71.461,1.707,1.707,0,0,0,1.959.972A16.448,16.448,0,0,1,17.09,30.3Zm-.345,8.581h3.471c1.578,0,1.586,0,2.145-1.467a.794.794,0,0,1,.855-.614c1.277.029,2.555.006,3.833.013,1.106.007,1.106.014,1.452,1.046.319.947.378,1,1.37,1.019,1.018.016,2.036,0,3.055,0H35.7a3.531,3.531,0,0,0-.136-.488c-1.874-3.8-3.744-7.608-5.644-11.4a.947.947,0,0,0-.707-.4c-1.45-.028-2.9.008-4.353,0a.793.793,0,0,0-.8.516q-2.641,5.427-5.3,10.841c-.129.264-.225.543-.382.927Zm39.5-7.925c-.142-.4-.212-.668-.328-.914a6.216,6.216,0,0,0-3.742-3.207,11.92,11.92,0,0,0-6.591-.237,6.143,6.143,0,0,0-.636,11.918,12.7,12.7,0,0,0,6.91.14,6.037,6.037,0,0,0,4.457-4.125c.165-.438.09-.673-.411-.674-1.25,0-2.5-.028-3.75.014a.928.928,0,0,0-.648.457,3.048,3.048,0,0,1-1.763,1.538A3.133,3.133,0,0,1,47.334,34.4a4.723,4.723,0,0,1-.178-2.991,2.906,2.906,0,0,1,2.281-2.145,3.537,3.537,0,0,1,3.537,1.259.981.981,0,0,0,.616.406c1.38.035,2.76.017,4.285.017Zm-16.723,1.8c0-1.841-.018-3.683.012-5.523.008-.521-.165-.677-.668-.665-1.233.027-2.467.024-3.7,0-.477-.009-.657.166-.656.64q.014,5.524,0,11.046c0,.48.193.641.664.631,1.234-.022,2.469-.028,3.7,0,.515.012.667-.166.659-.674-.028-1.819-.012-3.639-.012-5.457Zm-12.488,1.21h-3.3c.522-1.344,1.019-2.629,1.517-3.914l.19-.018C27.595,31.326,28.116,32.615,28.666,33.966Z" transform="translate(0 0)" fill="#cacee6"/></svg>