<svg xmlns="http://www.w3.org/2000/svg" width="51.412" height="15.008" viewBox="0 0 51.412 15.008"><g transform="translate(0 0)"><path d="M17.213,14.791l-4.6-5.238h.78A3.055,3.055,0,0,0,16.445,6.5V3.056h0A3.055,3.055,0,0,0,13.39,0H3.056A3.055,3.055,0,0,0,0,3.056V15.008H3.056V3.056H13.39V6.5H4.81V9.554H8.786l4.6,5.238Z" fill="#cacee6"/><path d="M95.755,0h-12.5V3.056h12.5V5.868H84.843V8.924H95.755v2.812h-12.5v3.056h12.5a3.055,3.055,0,0,0,3.056-3.056V3.056h0A3.055,3.055,0,0,0,95.755,0Z" transform="translate(-64.789)" fill="#cacee6"/><path d="M164.725,14.791h12.5V11.736h-12.5V8.924h10.912V5.868H164.725V3.056h12.5V0h-12.5a3.055,3.055,0,0,0-3.055,3.056v8.68h0A3.056,3.056,0,0,0,164.725,14.791Z" transform="translate(-125.817)" fill="#cacee6"/></g></svg>