<svg xmlns="http://www.w3.org/2000/svg" width="35.153" height="35.153" viewBox="0 0 35.153 35.153"><g transform="translate(0)"><g transform="translate(0 0)"><path d="M35.153,15.462a17.577,17.577,0,0,1-32.8,8.79A17.48,17.48,0,0,1,0,15.462Z" transform="translate(0 2.114)" fill="#1e1815"/><path d="M35.153,17.576H0A17.573,17.573,0,0,1,32.793,8.79,17.457,17.457,0,0,1,35.153,17.576Z" fill="#d7241b"/><g transform="translate(9.591 6.344)"><path d="M15.17,8.375l.7,2.154h2.265L16.3,11.863l.7,2.154L15.17,12.683l-1.831,1.334.7-2.154-1.831-1.334h2.265Z" transform="translate(-7.922 -5.199)" fill="#f6d324"/><g transform="translate(3.098 9.434)"><path d="M14.389,17.391a.062.062,0,0,1,.075-.1l7.832,6.02h0c.067-.07.106-.118.106-.118l-.091-.07c-.39-.3-.776-.6-1.167-.908l-2.036-1.573q-1.13-.871-2.261-1.748c-.615-.481-1.234-.958-1.849-1.436-.273-.209-.544-.423-.809-.64A15.124,15.124,0,0,1,12.7,15.458a3.685,3.685,0,0,1-.591-.718,6.737,6.737,0,0,1-.418-.859,9.924,9.924,0,0,0-.423.986,2.8,2.8,0,0,0-.074,1.145,4.41,4.41,0,0,0,2.185,2.817c3.709,2.347,8.163,5.365,8.163,5.365l.679-.784Z" transform="translate(-11.162 -13.88)" fill="#f6d324"/><path d="M24.219,24.566c-.134-.134-2.92-2.336-2.92-2.336l-.714.88L22.9,24.893s.217.683.709.714a.667.667,0,0,0,.71-.457A.632.632,0,0,0,24.219,24.566Zm-2.2-1.159a.113.113,0,1,1,0-.225.113.113,0,0,1,0,.225Zm.559.433a.114.114,0,1,1,.115-.114A.114.114,0,0,1,22.581,23.84Zm.533.415a.113.113,0,0,1-.114-.11.112.112,0,1,1,.224,0A.113.113,0,0,1,23.114,24.254Z" transform="translate(-9.874 -12.738)" fill="#f6d324"/></g><path d="M13.487,21a7.961,7.961,0,0,1-4.265-1.661l-.785.986c.238.185.477.359.731.521l-.335.849,1.369.7.5-.765a9.281,9.281,0,0,0,1.835.521l.016.916,1.531.126.166-.9a9.156,9.156,0,0,0,1.894-.217l.363.84,1.463-.473-.193-.892c.166-.07.327-.145.485-.228L17,20.5A7.908,7.908,0,0,1,13.487,21Z" transform="translate(-8.437 -3.699)" fill="#f6d324"/><path d="M23.264,16.521l.126-1.535-.9-.161a8.848,8.848,0,0,0-.216-1.894l.84-.367L22.636,11.1l-.891.193a9.416,9.416,0,0,0-.928-1.665l.635-.659L20.458,7.8l-.753.521a9.327,9.327,0,0,0-1.5-1.184l.335-.851-1.365-.7-.5.77A9.154,9.154,0,0,0,15.2,5.9l-.244,1.238A7.981,7.981,0,0,1,18.32,21.09L20,22.462l.379-.319-.525-.749a9.065,9.065,0,0,0,1.188-1.5l.853.335.7-1.369-.768-.493a9.172,9.172,0,0,0,.521-1.835Z" transform="translate(-7.545 -5.581)" fill="#f6d324"/></g></g></g></svg>