<svg xmlns="http://www.w3.org/2000/svg" width="35.169" height="35.169" viewBox="0 0 35.169 35.169"><g transform="translate(0 0)"><path d="M35.169,17.584H0a17.585,17.585,0,0,1,35.169,0Z" fill="#0738a6"/><path d="M35.169,15.469A17.585,17.585,0,0,1,0,15.469Z" transform="translate(0 2.115)" fill="#cd1225"/><g transform="translate(0 6.245)"><path d="M23.782,16.833,4.155,28.168a17.545,17.545,0,0,1,0-22.674Z" transform="translate(0 -5.494)" fill="#fff"/><g transform="translate(3.622 1.452)"><path d="M14.623,16.4l.3-.316-.3-.319-2.391.161c0-.055-.008-.106-.016-.161l2.151-.272-.269-.281-1.905.415a2.3,2.3,0,0,0-.363-.876l1.64-1.054-.011-.39-1.712,1.325c-.032-.04-.067-.083-.1-.123l1.8-1.578-.013-.438L13,12.477l-1.578,1.8c-.04-.036-.083-.067-.123-.1l1.327-1.713-.391-.011-1.054,1.637a2.36,2.36,0,0,0-.875-.358l.414-1.906-.28-.268-.273,2.151c-.055-.008-.106-.013-.161-.016l.158-2.391-.316-.3-.315.3L9.691,13.7c-.051,0-.106.008-.157.016l-.273-2.151-.284.268.415,1.906a2.358,2.358,0,0,0-.876.358L7.463,12.458l-.388.011L8.4,14.182c-.043.032-.082.063-.126.1L6.7,12.477l-.434.013-.011.438,1.8,1.578c-.035.04-.07.083-.1.123L6.24,13.3l-.008.39,1.637,1.054a2.354,2.354,0,0,0-.363.876l-1.9-.415-.268.281,2.146.272c-.008.056-.013.107-.016.161L5.076,15.76l-.3.319.3.316,2.391-.158c0,.051.008.107.016.158l-2.146.272.268.284,1.9-.414a2.349,2.349,0,0,0,.363.875L6.232,18.466l.008.386,1.712-1.325c.032.043.067.083.1.123l-1.8,1.578.011.438.434.013,1.578-1.8c.044.036.083.072.126.1L7.076,19.689l.388.008L8.516,18.06a2.444,2.444,0,0,0,.876.363l-.415,1.9.284.268.273-2.146c.051,0,.106.011.157.016l-.157,2.391.315.3.316-.3-.158-2.391c.056,0,.107-.013.161-.016l.273,2.146.28-.268-.414-1.9a2.447,2.447,0,0,0,.875-.363L12.236,19.7l.391-.008L11.3,17.978c.04-.032.083-.067.123-.1L13,19.678l.434-.013.013-.438-1.8-1.578c.035-.04.07-.08.1-.123l1.712,1.325.011-.386-1.64-1.054a2.294,2.294,0,0,0,.363-.875l1.905.414.269-.284L12.217,16.4c.008-.051.011-.107.016-.158Z" transform="translate(-2.969 -6.193)" fill="#fbd023"/><path d="M18.184,14.362v.963l.911.3-.911.3v.959L17.62,16.1l-.911.3.565-.777-.565-.773.911.3Z" transform="translate(-1.337 -5.734)" fill="#fbd023"/><path d="M5.684,22.79l-.714.635.387.88-.829-.485-.718.639.205-.935-.829-.485.955-.095L4.346,22l.383.88Z" transform="translate(-3.186 -4.689)" fill="#fbd023"/><path d="M3.814,6.771l.714.643.829-.485-.387.88.714.639-.955-.1-.387.88-.2-.939-.955-.1.829-.481Z" transform="translate(-3.186 -6.771)" fill="#fbd023"/></g></g></g></svg>