<svg xmlns="http://www.w3.org/2000/svg" width="35.153" height="35.153" viewBox="0 0 35.153 35.153"><g transform="translate(0)"><g transform="translate(0 0)"><path d="M35.153,17.576H0a17.577,17.577,0,0,1,35.153,0Z" fill="#fff"/><path d="M35.153,15.462A17.577,17.577,0,1,1,0,15.462Z" transform="translate(0 2.114)" fill="#00aa3c"/><g transform="translate(2.508 7.843)"><path d="M32.338,13.48c-.462-.733-.454-3.941-.379-4.628a.039.039,0,0,0-.024-.04.046.046,0,0,0-.048.02,26.282,26.282,0,0,1-3.436,3.487.037.037,0,0,0-.016.032.029.029,0,0,0,.024.031,3.464,3.464,0,0,0,1.819-.07c-.019.047-.04.091-.059.138-.048.118-.094.241-.142.367-.067.169-.134.348-.209.521a2.359,2.359,0,0,0-.406-.233,3.007,3.007,0,0,0-2.352.016,1.632,1.632,0,0,0-.813,1.231,1.127,1.127,0,0,0,.351,1.022,2.451,2.451,0,0,0,2.312.161c.07-.027.142-.055.209-.086a.859.859,0,0,1-.356.635,1.452,1.452,0,0,1-.655.213,5.768,5.768,0,0,1-2.683-.213,10.472,10.472,0,0,0-2.691-.158c.438-.872,1.543-.942,2.466-.9h0l.011,0h0l.008,0,0,0,.007-.008h0v0l0-.008V14.98l0-.008h0a2.286,2.286,0,0,1-.35-1.9c.366-1.195,1.889-1.894,2.466-2.154l0,0h0l0-.008,0,0,0-.008v-.016h0v0l0-.008v0l-.008-.008h0l-.013-.008c-.516-.182-.8-.447-.843-.785-.131-1.014,1.94-2.427,2.012-2.474h0a.039.039,0,0,0,.019-.051.043.043,0,0,0-.051-.016h0l-.028.011c-.588.241-2.639,1.07-4.32,1.705-.517.09-.876.011-1.065-.233-.455-.608.228-2.036.236-2.048v0l0-.011h0l0-.013V6.919l0,0v0h0L23.339,6.9h0l-.008,0h-.007l-.008,0H23.3q-1.013.634-2.025,1.259L19.374,9.35a22.792,22.792,0,0,0-2.564,1.882c-.043.043-.091.083-.134.122a2.177,2.177,0,0,0-.64.8,3.722,3.722,0,0,0-.153,1.539,2.151,2.151,0,0,1-.11.793,1.278,1.278,0,0,1-.351.591,4.365,4.365,0,0,1-.971.185l-.086.008A5.444,5.444,0,0,0,13.3,15.5a1.754,1.754,0,0,1-.153-.446c-.036-.2-.056-.3,0-.386a.517.517,0,0,1,.612-.075.5.5,0,0,1,.115.083c.035.032.07.063.106.04a.06.06,0,0,0,.028-.048.69.69,0,0,0-.174-.4.563.563,0,0,0-.217-.161,1.23,1.23,0,0,1-.214-.126c-.185-.134-.331-.241-.363-.414a.453.453,0,0,1,.19-.442c.272-.158.71.174.757.213s.075.064.1.088c.051.051.086.086.13.063s.04-.043.043-.094a1.091,1.091,0,0,0-.39-.825.872.872,0,0,0-.206-.114.453.453,0,0,1-.221-.155c-.178-.228-.174-.371-.134-.449.063-.139.248-.171.319-.182a.681.681,0,0,1,.513.15.53.53,0,0,1,.115.123c.023.027.047.059.086.043.024-.013.04-.043.043-.107a.942.942,0,0,0-.375-.808c-.019-.013-.042-.024-.07-.04a1.373,1.373,0,0,1-.351-.244c-.086-.083-.138-.134-.13-.182a.138.138,0,0,1,.075-.091.669.669,0,0,1,.489-.078.684.684,0,0,1,.15.051c.063.027.11.047.138.008s.024-.08-.114-.233a1.5,1.5,0,0,0-.608-.4c-.04-.011-.07-.019-.094-.027a.27.27,0,0,1-.115-.048.365.365,0,0,1-.1-.185.685.685,0,0,0-.051-.139A2.691,2.691,0,0,0,13,9.113a.073.073,0,0,0,.016-.024s0-.008,0-.016C13.062,8.6,14.162,8,14.17,7.992a.033.033,0,0,0,.019-.039.034.034,0,0,0-.032-.028L13.851,7.9a4.779,4.779,0,0,0,.083-.84.04.04,0,0,0-.028-.036.046.046,0,0,0-.043.016A1.053,1.053,0,0,1,13.1,7.4a2.847,2.847,0,0,0-1.432.62c-.15-.016-.308-.02-.458-.028-.11,0-.225-.008-.335-.016-.327-.019-.623-.039-.923-.047a.656.656,0,0,1-.094,0,2.786,2.786,0,0,0-.77.048,1.092,1.092,0,0,0-.537.288,1.053,1.053,0,0,0-.138.2c0,.008-.013.027-.032.075-.013.024-.028.063-.04.086C5.562,8.655,5.214,9.65,5.2,9.693a.04.04,0,0,0,.008.035.035.035,0,0,0,.032.013,3.592,3.592,0,0,1,2.012.086v0a.74.74,0,0,1,.34.363l.015.027a.042.042,0,0,0,.036.02.6.6,0,0,0,.11-.013l.256.233c0,.008.016.008.024.008h.013a.047.047,0,0,0,.024-.027l.055-.265.153.182a.036.036,0,0,0,.04.011.042.042,0,0,0,.027-.032l.04-.268.147.166a.035.035,0,0,0,.063-.024l.019-.252.171.166a.031.031,0,0,0,.039.008.034.034,0,0,0,.025-.032l.007-.367a1.737,1.737,0,0,1,1.137.458.562.562,0,0,1,.051.067,20.009,20.009,0,0,1-4.928.244,2.467,2.467,0,0,0,.548-.268.036.036,0,0,0,.016-.04.046.046,0,0,0-.032-.027,5.182,5.182,0,0,1-2.6-1.033.036.036,0,0,0-.04-.013.044.044,0,0,0-.019.052,5.218,5.218,0,0,0,2.229,2.564l.016,0a.067.067,0,0,0,.027-.008.056.056,0,0,0,.008-.043q-.113-.249-.238-.5c.265.019,1.29.1,2.644.13a1.84,1.84,0,0,0,.249.793v.032c-.02.185-.052.564.213.733,0,0,.011,0,.019,0h.008c.013,0,.02-.008.024-.02a5.015,5.015,0,0,0,.41-.947,2.071,2.071,0,0,1,.177.386l0,0v.008l0,0,0,.008h0a.026.026,0,0,0,.024.013l.011,0,0,0,.008,0,0,0,0-.008,0,0v-.008a1.24,1.24,0,0,1,1.07-.95,1.112,1.112,0,0,0,.169.359,1.074,1.074,0,0,0-.236.228.79.79,0,0,0-.225.58.628.628,0,0,0,.032.118,1.008,1.008,0,0,0-.252.233.87.87,0,0,0-.222.6.8.8,0,0,0,.032.161.906.906,0,0,0-.351.3.889.889,0,0,0-.138.741.2.2,0,0,0,.019.056.913.913,0,0,0-.3.26,1.059,1.059,0,0,0-.177.62.894.894,0,0,0,.039.454.993.993,0,0,0-.233.244,1.066,1.066,0,0,0-.138.837,1.285,1.285,0,0,0,.371.651,1.026,1.026,0,0,0-.217.394c0,.016-.011.047-.019.086a.54.54,0,0,0-.339.078.49.49,0,0,0-.115.107.688.688,0,0,0-.316-.268.725.725,0,0,0-.371-.027v-.024c-.051-.26-.41-.383-.529-.422a1.262,1.262,0,0,0-.3-.059.615.615,0,0,0-.127-.584.538.538,0,0,0-.379-.139,3.733,3.733,0,0,0-.54-1.8c-.013-.016-.024-.031-.035-.043a.68.68,0,0,1,.426-.481c.283-.11.4-.386.326-.782.209-.469.171-.82-.114-1.045a.036.036,0,0,0-.04-.008.039.039,0,0,0-.024.035c0,.008,0,.627-.288.738h0a.885.885,0,0,0-.371.265c.016-.1.031-.193.047-.289a1.783,1.783,0,0,0,.048-.666.51.51,0,0,0-.118-.182,1.011,1.011,0,0,0-1.057-.71.039.039,0,0,0-.008.072.823.823,0,0,1,.477.816A2.164,2.164,0,0,0,4.2,14.333c-.09-.169-.193-.423-.276-.624a2.809,2.809,0,0,0-.174-.386.271.271,0,0,0-.2-.106.876.876,0,0,0-.966-.4.052.052,0,0,0-.028.027.052.052,0,0,0,.016.04,1.889,1.889,0,0,1,.5.541c-.222.189-.139.311-.04.469a.966.966,0,0,1,.1.169.819.819,0,0,0,.608.891c-.019.217-.139,1.48-.182,1.665a1.341,1.341,0,0,1-.529.722c-.2.166-.284.284-.265.383.013.063.067.11.171.138-.043.126-.238.584-.687.588a.035.035,0,0,0-.036.032.042.042,0,0,0,.024.043,1.312,1.312,0,0,0,.383.059.821.821,0,0,0,.659-.288.134.134,0,0,0,.106.027c.166-.031.319-.591.356-.722a4.08,4.08,0,0,0,.355-.658c.067.993,1.341,2.244,2.122,3.013.182.177.34.327.434.438A4.908,4.908,0,0,1,7.3,22.555a.038.038,0,0,0,.024.032h.011a.037.037,0,0,0,.028-.013,3.371,3.371,0,0,0,.757-1.388,9.126,9.126,0,0,1,1.215-.171h0c.2-.016.355-.023.438-.023a.477.477,0,0,0-.051.244.508.508,0,0,0,.078.268c-.032.027-.063.055-.091.083-.189.177-.311.3-.339.473a.542.542,0,0,0,.043.284,1.289,1.289,0,0,0-.379.466.951.951,0,0,0-.115.6c-.434.516-.8.813-1.041.84-.086.011-.182.027-.292.048a4.59,4.59,0,0,1-.7-.147c-.056-.016-.1-.027-.142-.04a.834.834,0,0,1-.268-.122.991.991,0,0,0-.5-.174.645.645,0,0,0-.181.013.252.252,0,0,0-.15-.1A.783.783,0,0,0,5,23.77a.522.522,0,0,0-.2.406.036.036,0,0,0,.02.04.033.033,0,0,0,.039-.008.62.62,0,0,1,.343-.158.173.173,0,0,1,.134.064.472.472,0,0,0,.166.118,1,1,0,0,0,.032.268.212.212,0,0,0-.072.064.549.549,0,0,0-.075.138.575.575,0,0,0-.307-.083.86.86,0,0,0-.833.631.038.038,0,0,0,.017.04s.011,0,.019,0a.028.028,0,0,0,.023-.008c.2-.158.45-.217,1.215-.072l.013.013a.52.52,0,0,0-.091.268c-.434.039-.616.762-.627.821a.049.049,0,0,0,.008.039.036.036,0,0,0,.027.013.035.035,0,0,0,.024-.013l0,0a1.018,1.018,0,0,1,.674-.379.621.621,0,0,0,.1-.016.739.739,0,0,0,.078.067.706.706,0,0,0,.431.142,1.872,1.872,0,0,0,.9-.356c.086-.051.161-.1.224-.13a1.2,1.2,0,0,1,.928.011c.166.072.284-.019.41-.11a.954.954,0,0,1,.351-.185c.221-.048.382.067.6.225a3.6,3.6,0,0,0,.418.264.484.484,0,0,0,.658-.106.214.214,0,0,0,.043-.02.567.567,0,0,1,.731.139.06.06,0,0,0,.027.008l.016,0a.034.034,0,0,0,.019-.04.907.907,0,0,0-.324-.588.607.607,0,0,0-.469-.086.349.349,0,0,0-.275-.158,7.962,7.962,0,0,1-.857-.185,3.9,3.9,0,0,1,.675-1.385,6.022,6.022,0,0,1,.49-.474,5.274,5.274,0,0,0,.457-.434,8.226,8.226,0,0,0,.792-.982,4.885,4.885,0,0,0,.509,1.55.058.058,0,0,0,.027.02.045.045,0,0,0,.036-.016,1.858,1.858,0,0,0,.5-1.223,1.261,1.261,0,0,0,.517-.284,1.141,1.141,0,0,0,.157-.182,1.443,1.443,0,0,0,.321.035h0a1.625,1.625,0,0,0,.864-.264,1.849,1.849,0,0,0,.477-.386.92.92,0,0,0,.4.094c.011,0,.019,0,.031,0a.81.81,0,0,0,.388-.118.584.584,0,0,0-.008.149,1.2,1.2,0,0,0,.343.857,1.073,1.073,0,0,0,.639.276.885.885,0,0,0,.225.358.928.928,0,0,0,.666.246,1.361,1.361,0,0,0,.249-.02,1.634,1.634,0,0,0,.193-.043.417.417,0,0,0,.123.265.51.51,0,0,0,.307.106.621.621,0,0,0-.185.067.447.447,0,0,0-.209.442.8.8,0,0,0-.473.2.266.266,0,0,0-.04.1.361.361,0,0,0-.008.11,2.1,2.1,0,0,0-1.27.311,1.722,1.722,0,0,1-.643-.276,5.174,5.174,0,0,1-.521-.418c-.044-.039-.088-.075-.131-.114a.593.593,0,0,1-.051-.044.527.527,0,0,0-.257-.157.429.429,0,0,0-.339.106l-.016.013a.735.735,0,0,0-.537-.043.718.718,0,0,0-.414.454.036.036,0,0,0,.011.039.03.03,0,0,0,.04,0l.024-.008c.173-.094.532-.292.773.063a.476.476,0,0,0,.043.127c.059.11.249.153.45.2.075.016.153.035.225.056a1,1,0,0,1,.425.457,1.12,1.12,0,0,1-.9-.2l-.019-.011a.657.657,0,0,0-.612,0,.81.81,0,0,0-.6,0,.89.89,0,0,0-.455.6.036.036,0,0,0,.013.04c0,.008.011.011.024.011l.016-.008c.3-.166.588-.3.7-.15a.334.334,0,0,0,.008.115c.032.091.182.174.446.241a.268.268,0,0,0,.027.039.44.44,0,0,0-.264.126.751.751,0,0,0-.15.64.032.032,0,0,0,.027.031h.008a.044.044,0,0,0,.032-.011c.019-.027.043-.056.063-.078a.567.567,0,0,1,.671-.257.273.273,0,0,0,.206.1H15.1a1.077,1.077,0,0,0,.447-.158,3.381,3.381,0,0,1,.773-.3,1.644,1.644,0,0,1,1.076.078.039.039,0,0,0,.032,0,1.347,1.347,0,0,1,.915-.04,3.439,3.439,0,0,0,1.094.41c.032,0,.056-.027.075-.07a.7.7,0,0,1,.829.221l.011.013a.041.041,0,0,0,.027.011l.016,0a.036.036,0,0,0,.02-.04.909.909,0,0,0-.9-.778.311.311,0,0,0-.013-.032c-.07-.146-.169-.146-.394-.142H19a1.616,1.616,0,0,1-.506-.1.137.137,0,0,1,.04-.008l.118-.024a4.355,4.355,0,0,0,2.323-1.3,4.949,4.949,0,0,0,.485-.589,1.343,1.343,0,0,0,.084-.142c.078-.146.2-.363.3-.366a.37.37,0,0,1,.1.023,7.783,7.783,0,0,1,.942.383.215.215,0,0,0,.222,0,.2.2,0,0,0,.051-.206,1.274,1.274,0,0,0-.56-.84,2.052,2.052,0,0,0-.868-.222,1.446,1.446,0,0,1-1.009-.363,1.042,1.042,0,0,1-.288-.808.9.9,0,0,1,.141-.38.871.871,0,0,1,.268-.256,1.952,1.952,0,0,0,.214-.161,1.5,1.5,0,0,0,.225-.284.911.911,0,0,1,.169.11.913.913,0,0,0,.193.118,1.108,1.108,0,0,0,.4.1A1.193,1.193,0,0,0,22.32,20a1.066,1.066,0,0,0,.589.171.494.494,0,0,0,.082,0,1.8,1.8,0,0,0,.482.281,1.693,1.693,0,0,0,.635.165.8.8,0,0,0,.323-.067.789.789,0,0,0,.118-.063,1.353,1.353,0,0,0,.766.26.663.663,0,0,0,.351-.091.375.375,0,0,0,.067-.043.54.54,0,0,0,.2.174.671.671,0,0,0,.281.063.577.577,0,0,0,.193-.032c.016,0,.027-.011.043-.016a.691.691,0,0,0,.153.253.722.722,0,0,0,.249.173,1.821,1.821,0,0,0-.032.434c.011.185.024.438.161.549a1.188,1.188,0,0,0-.031.311.961.961,0,0,0,.047.355.973.973,0,0,0-.24.233.553.553,0,0,0-.142.465.426.426,0,0,0,.106.19,1.189,1.189,0,0,1-1.672.422,2.717,2.717,0,0,1-.576-.481c-.221-.217-.394-.386-.564-.363-.036,0-.142.019-.163.106a.672.672,0,0,0-.493.064.756.756,0,0,0-.315.462.034.034,0,0,0,.019.04.022.022,0,0,0,.016,0A.046.046,0,0,0,23.008,24c.007-.013.221-.249.631-.043-.051.051-.088.1-.072.145s.064.056.1.059a1.716,1.716,0,0,1,.474.2c-.273-.048-.631-.067-.738.107l-.008.016a1.211,1.211,0,0,0-.2.063.9.9,0,0,0-.457.379.841.841,0,0,0-.107.391.034.034,0,0,0,.024.035l.011,0a.048.048,0,0,0,.032-.016.785.785,0,0,1,.391-.273,1.164,1.164,0,0,1,.244-.047H23.4a.1.1,0,0,0,0,.035c.027.063.138.086.342.07a1.921,1.921,0,0,0,.431-.083.6.6,0,0,1,.063-.015,1.072,1.072,0,0,1,.762.114h-.011a1.31,1.31,0,0,0-.71.131c-.064.035-.2.118-.217.2a.943.943,0,0,0-.674.817.034.034,0,0,0,.019.035l.016,0a.025.025,0,0,0,.019-.008,1.944,1.944,0,0,1,1.022-.339.1.1,0,0,0,.04.043.141.141,0,0,0,.07.02.8.8,0,0,0,.324-.15c.166-.1.256-.158.327-.2a.9.9,0,0,1,.193-.111l.016-.007a.643.643,0,0,1,.45-.072.414.414,0,0,1,.134.078.772.772,0,0,0,.232.131.547.547,0,0,0,.38.016.362.362,0,0,0,.157-.118l0-.008a1.153,1.153,0,0,1,1.239-.091,1.721,1.721,0,0,1,.26.213c.146.139.272.253.394.206.024-.013.04-.027.091-.1a.77.77,0,0,1,.867.214.059.059,0,0,0,.027.015l.016,0a.037.037,0,0,0,.024-.035.987.987,0,0,0-.28-.608.615.615,0,0,0-.446-.142,2.542,2.542,0,0,0-.648-.339.551.551,0,0,0-.051-.024c-.134-.059-.225-.1-.272-.193a.326.326,0,0,1-.02-.174c0-.04,0-.086,0-.138a2.2,2.2,0,0,1,.153-.6,6.1,6.1,0,0,0,.351-1.461,5.206,5.206,0,0,0-.292-1.984.866.866,0,0,1,.316.272,1.371,1.371,0,0,0,1.092.367.036.036,0,0,0,.02-.048c-.276-.7-1.622-1.4-2.608-1.91-.091-.047-.182-.094-.268-.138-.217-.115-.388-.209-.525-.3a6.523,6.523,0,0,0,2.009-.58,4.893,4.893,0,0,0,2.2-1.693,2.3,2.3,0,0,0,.088-2.253,6.475,6.475,0,0,0,.332-.859c.063-.206.122-.415.173-.624a4.026,4.026,0,0,0,1.266.928h.008a.045.045,0,0,0,.032-.013A.042.042,0,0,0,32.338,13.48Zm-3.307,1.1a1.966,1.966,0,0,1-.276.177,1.23,1.23,0,0,1-.832.126.58.58,0,0,1-.3-.153.3.3,0,0,1-.08-.3.377.377,0,0,1,.273-.233,1.035,1.035,0,0,1,.28-.035,1.328,1.328,0,0,1,.75.209A.752.752,0,0,1,29.031,14.577Z" transform="translate(-2.207 -6.9)" fill="#d11133"/><path d="M9.238,8.712a.622.622,0,0,1-.474.249h0a.5.5,0,0,1-.374-.153.48.48,0,0,1-.115-.23,1.063,1.063,0,0,1,.158-.016h0a.374.374,0,0,0,.088.19c.193.2.409.078.548-.094l.008,0A1.37,1.37,0,0,0,9.238,8.712Z" transform="translate(-1.377 -6.673)" fill="#fff"/><path d="M11.134,8.975a.337.337,0,0,1-.276-.134.327.327,0,0,1-.04-.308c.043-.115.146-.161.331-.244l.024-.011a5.384,5.384,0,0,0,.584-.284,1.478,1.478,0,0,0,.161-.119.651.651,0,0,0-.193-.015.7.7,0,0,0-.267.078.037.037,0,0,1-.02.008.04.04,0,0,1-.032-.019.039.039,0,0,1,.016-.052.731.731,0,0,1,.3-.086.674.674,0,0,1,.265.027,1.535,1.535,0,0,0,.177-.2A.039.039,0,0,1,12.21,7.6a.039.039,0,0,1,.008.052,1.518,1.518,0,0,1-.426.4,5.409,5.409,0,0,1-.588.289l-.027.011c-.169.078-.257.118-.292.2a.266.266,0,0,0,.032.238.293.293,0,0,0,.323.086.036.036,0,0,1,.048.024.04.04,0,0,1-.024.047A.467.467,0,0,1,11.134,8.975Z" transform="translate(-1.032 -6.805)"/><path d="M8.306,8.587a.48.48,0,0,0,.115.23A.5.5,0,0,0,8.8,8.97h0a.622.622,0,0,0,.474-.249,1.37,1.37,0,0,1-.163-.051l-.008,0c-.139.173-.355.292-.548.094a.374.374,0,0,1-.088-.19h0A1.063,1.063,0,0,0,8.306,8.587ZM8.231,8.6c-.056.013-.115.027-.169.043l-.011,0a.038.038,0,0,1-.036-.027.036.036,0,0,1,.024-.048c.07-.019.142-.04.217-.056a2.022,2.022,0,0,1,.2-.024h0a1.711,1.711,0,0,1,.276,0,1.547,1.547,0,0,1,.406.1c.064.02.131.043.206.064l.13.024a1.512,1.512,0,0,0,.8-.139.041.041,0,0,1,.048.019.04.04,0,0,1-.019.052,1.713,1.713,0,0,1-.667.149,1.163,1.163,0,0,1-.166-.011.877.877,0,0,1-.114-.019.713.713,0,0,1-.552.3H8.792a.592.592,0,0,1-.426-.182A.572.572,0,0,1,8.231,8.6Z" transform="translate(-1.413 -6.682)"/><path d="M23.465,26.228a2.167,2.167,0,0,1,.963-.319.7.7,0,0,0-.056-.1.4.4,0,0,0-.091-.131.369.369,0,0,0-.134-.083.243.243,0,0,1-.063-.039A.9.9,0,0,0,23.465,26.228Zm.1-6.249a.871.871,0,0,1-.458.181,2.052,2.052,0,0,0,.4.222,1.17,1.17,0,0,0,.9.1,1.038,1.038,0,0,0,.13-.07,1.286,1.286,0,0,0,.348-.454,1.589,1.589,0,0,0,.157-.506c-.063-.011-.13-.023-.193-.031a10.073,10.073,0,0,1-1-.2A.9.9,0,0,1,23.56,19.979Zm-.506,3.9a.614.614,0,0,1,.635.027.46.46,0,0,0,.118-.15.309.309,0,0,0-.027-.15.743.743,0,0,1-.028-.078.588.588,0,0,0-.454.047A.646.646,0,0,0,23.055,23.877Zm-.332,1.333A.9.9,0,0,1,23.074,25a1.285,1.285,0,0,1,.257-.055.472.472,0,0,1,.107,0h.016a.4.4,0,0,0,.074,0,.13.13,0,0,0,.127-.142.255.255,0,0,0-.182-.252.041.041,0,0,0-.019,0c-.008,0-.016,0-.024,0h0l-.011,0a.939.939,0,0,0-.185.055.877.877,0,0,0-.423.348A.714.714,0,0,0,22.723,25.21Zm.285-6.328a1.039,1.039,0,0,1-.584.808.9.9,0,0,1-.276.056.9.9,0,0,0,.217.193.967.967,0,0,0,.634.153h.032a.868.868,0,0,0,.482-.169.83.83,0,0,0,.248-.726c-.114-.031-.225-.07-.335-.11A2.369,2.369,0,0,1,23.008,18.882Zm-1.678.473a.931.931,0,0,1,.178.115,1.066,1.066,0,0,0,.177.114,1.036,1.036,0,0,0,.39.088.835.835,0,0,0,.319-.051.971.971,0,0,0,.544-.785,2.412,2.412,0,0,1-.97-1.487,2.482,2.482,0,0,0-2.175,1.3h0l0,0-.008.008h0l-.011,0h0a.258.258,0,0,0-.051,0,1.063,1.063,0,0,0,.311.335.559.559,0,0,0,.118.064,4.451,4.451,0,0,0,.623.138l.171.032a1.485,1.485,0,0,1,.28.067l.043.019ZM20.1,22.247a1.26,1.26,0,0,1-.6.647,1.243,1.243,0,0,1-.265.08,2.653,2.653,0,0,1,.415.075c.063.016.123.027.181.04.131.023.265.047.394.067.028-.028.052-.056.075-.083.41-.5.372-.675.335-.726s-.126-.064-.24-.07h-.024C20.34,22.271,20.238,22.263,20.1,22.247Zm-.612,3.5a.726.726,0,0,1,.3-.072.8.8,0,0,1,.533.233.862.862,0,0,0-.825-.6.251.251,0,0,0-.11.26A.241.241,0,0,0,19.488,25.747ZM18.6,22.59a.356.356,0,0,0,.1.233.418.418,0,0,0,.264.086,1.008,1.008,0,0,0,.115,0,.985.985,0,0,0,.386-.091,1.177,1.177,0,0,0,.552-.588,4.347,4.347,0,0,1-.829-.193.969.969,0,0,1-.169.264A1.079,1.079,0,0,1,18.6,22.59Zm.048.936a.385.385,0,0,0,.336.28.184.184,0,0,0,.07,0,.821.821,0,0,0,.228-.055,2.4,2.4,0,0,0,.88-.533c-.114-.016-.233-.035-.348-.059-.055-.011-.118-.024-.181-.04a2.461,2.461,0,0,0-.5-.075h-.044a.552.552,0,0,0-.272.075.37.37,0,0,0-.169.394h0v0Zm-.086-4.853a2.049,2.049,0,0,1-.123.438c-.024.056-.055.118-.086.177a1.459,1.459,0,0,0,.4.131,1.328,1.328,0,0,0,.455,0,1.409,1.409,0,0,0,.746-.375,1.17,1.17,0,0,1-.316-.371c-.158,0-.311,0-.458,0C18.963,18.661,18.758,18.661,18.561,18.673Zm3.914-1.416a22.561,22.561,0,0,0-5.015-2.115,10.783,10.783,0,0,1,2.313,3.409A2.546,2.546,0,0,1,22,17.268c.07,0,.138,0,.2,0C22.3,17.265,22.387,17.265,22.475,17.257ZM19.91,9.638a10.455,10.455,0,0,0-2.347,2.3c1.164-.525,3.751-1.673,5.231-2.189.3-.107.674-.241,1.1-.4h-.1a.877.877,0,0,1-.742-.3c-.386-.513-.027-1.527.15-1.945a19.419,19.419,0,0,1-2.327,1.838C20.562,9.164,20.23,9.4,19.91,9.638ZM18.123,23.81a.336.336,0,0,0,0,.126.254.254,0,0,0,.059.134.527.527,0,0,0,.548.094.437.437,0,0,0,.276-.284h-.032a.47.47,0,0,1-.394-.316.812.812,0,0,0-.43.178A.175.175,0,0,0,18.123,23.81Zm6.828-8.865c-1.179-.308-4.778-1.1-6.986-.762a18.8,18.8,0,0,1,4.576,3,2.456,2.456,0,0,1,.15-1.234C23.082,15.082,24.057,14.937,24.952,14.945Zm-7.677,7.133a.842.842,0,0,0,.2.3,1,1,0,0,0,.853.206,1.292,1.292,0,0,0,.225-.056.986.986,0,0,0,.417-.276,1.048,1.048,0,0,0,.158-.236l-.07-.027a1.507,1.507,0,0,1-.533-.356,1.668,1.668,0,0,1-.86.415,1.917,1.917,0,0,1-.319.027Zm2.419-3.484a12.456,12.456,0,0,0-2.983-3,10.509,10.509,0,0,1,.473,3.685,1.9,1.9,0,0,1,1.342-.675c.209-.016.425-.011.655-.008.15,0,.307,0,.474,0Zm-2.525.809a2.915,2.915,0,0,1-.34.706l-.019.027-.048.072a1.875,1.875,0,0,0,1.164-.477,1.945,1.945,0,0,0,.339-.442,1.649,1.649,0,0,0,.1-.2,1.875,1.875,0,0,0,.118-.4A1.835,1.835,0,0,0,17.169,19.4Zm-.544,1c.173.011.339.019.508.027.126.008.23.013.316.016a2.038,2.038,0,0,1,.529.056,1.675,1.675,0,0,1,.348.134,3.65,3.65,0,0,1,.366-1.153,1.646,1.646,0,0,1-.379-.126,1.935,1.935,0,0,1-.335.426,2,2,0,0,1-1.27.5C16.679,20.326,16.651,20.361,16.624,20.4Zm.5.1c-.185-.008-.367-.019-.56-.035a1.409,1.409,0,0,1-.264.264,1.139,1.139,0,0,0,.3,1.011.99.99,0,0,0,.62.257,1.81,1.81,0,0,0,.422-.02,1.613,1.613,0,0,0,.829-.4.828.828,0,0,1-.08-.122,1.161,1.161,0,0,1-.09-.671c0-.024,0-.048,0-.072a1.574,1.574,0,0,0-.355-.142,2.292,2.292,0,0,0-.513-.055C17.357,20.516,17.255,20.511,17.129,20.5Zm12.254,4.975a.539.539,0,0,0-.4-.123c-.11.064-.166.273-.185.4a1.054,1.054,0,0,1,.276-.04.8.8,0,0,1,.548.209A.83.83,0,0,0,29.383,25.479ZM28.551,12.34a3.767,3.767,0,0,0,1.768-.115v0a3.5,3.5,0,0,0,.355-1.2.035.035,0,0,1,.035-.035c.02,0,.04.016.036.035a3.476,3.476,0,0,1-.359,1.228l-.008.016c-.032.07-.059.142-.088.209l-.146.366c-.067.178-.138.359-.213.537a2.117,2.117,0,0,1,.551.632,6.757,6.757,0,0,0,.3-.8c.072-.225.134-.458.193-.687h0a10.9,10.9,0,0,0,.268-1.5.036.036,0,0,1,.04-.032.039.039,0,0,1,.035.04,11.409,11.409,0,0,1-.268,1.491,4.309,4.309,0,0,0,1.172.907A14.146,14.146,0,0,1,31.872,9,28.239,28.239,0,0,1,28.551,12.34Zm-.73,1.859a.377.377,0,0,0-.273.233.3.3,0,0,0,.08.3.58.58,0,0,0,.3.153,1.23,1.23,0,0,0,.832-.126,1.966,1.966,0,0,0,.276-.177.752.752,0,0,0-.181-.2,1.328,1.328,0,0,0-.75-.209A1.035,1.035,0,0,0,27.821,14.2Zm-.92,7.457c.008.181.024.425.15.5l.016.008a.4.4,0,0,0,.308-.04.9.9,0,0,0,.249-.146,3.053,3.053,0,0,0-.092-.762.833.833,0,0,1-.335.07h-.027a.837.837,0,0,1-.241-.043A1.6,1.6,0,0,0,26.9,21.656Zm.138,1.286a1.02,1.02,0,0,0-.216.209.493.493,0,0,0-.131.4.354.354,0,0,0,.107.174.369.369,0,0,0,.2.1c.316.035.447-.3.5-.6.008-.035.013-.07.019-.107a.634.634,0,0,1-.1.008.461.461,0,0,1-.3-.1A.329.329,0,0,1,27.039,22.941Zm.123.032a.436.436,0,0,0,.367.067,5.648,5.648,0,0,0,.1-.963.781.781,0,0,1-.226.118.739.739,0,0,1-.248.064.281.281,0,0,1-.1-.016,1.3,1.3,0,0,0-.027.272.958.958,0,0,0,.056.359A.306.306,0,0,0,27.162,22.973Zm-.682-12.9c-.1-.828,1.116-1.857,1.72-2.315-1.622.762-8.23,3.855-9.619,4.608a60.091,60.091,0,0,1,8.632-1.511C26.767,10.664,26.519,10.4,26.479,10.071Zm.04,10.689a.641.641,0,0,0,.146.24.62.62,0,0,0,.249.166.71.71,0,0,0,.256.051.806.806,0,0,0,.347-.067,2.271,2.271,0,0,0-.216-.508,1.914,1.914,0,0,0-.356-.431c-.04.064-.078.123-.118.185A1.479,1.479,0,0,1,26.519,20.76Zm-.375-1.034a1.529,1.529,0,0,1-.115.447,1.151,1.151,0,0,1-.236.39.474.474,0,0,0,.177.155.564.564,0,0,0,.418.027.331.331,0,0,0,.067-.032,1.139,1.139,0,0,0,.308-.359c.043-.063.086-.126.122-.189A2.784,2.784,0,0,0,26.144,19.726Zm-.186.418a1.384,1.384,0,0,0,.115-.446c-.122-.043-.252-.086-.386-.122-.064-.016-.123-.028-.177-.04-.142-.032-.281-.056-.4-.075a1.52,1.52,0,0,1-.166.524,1.221,1.221,0,0,1-.327.45,1.173,1.173,0,0,0,.442.2.8.8,0,0,0,.575-.047.43.43,0,0,0,.088-.064A.955.955,0,0,0,25.958,20.144Zm-1.092-7.1a3.981,3.981,0,0,1,2.167-2.039c-.533.131-1.212.288-1.977.466a57.243,57.243,0,0,0-6.96,1.849,30.415,30.415,0,0,1,3.535.332,8.26,8.26,0,0,1,3.5,1.183A2.271,2.271,0,0,1,24.865,13.046Zm1.266,5.509a6.48,6.48,0,0,0,2.076-.584,4.827,4.827,0,0,0,2.17-1.665,2.219,2.219,0,0,0,.075-2.2,2.071,2.071,0,0,0-.588-.682,2.25,2.25,0,0,0-.434-.249,2.907,2.907,0,0,0-2.285.011,1.567,1.567,0,0,0-.773,1.172,1.044,1.044,0,0,0,.327.959,2.369,2.369,0,0,0,2.233.149c.088-.035.171-.067.246-.106a.162.162,0,0,0,0-.04,1.377,1.377,0,0,0-.118-.682,1.735,1.735,0,0,1-.272.181,1.413,1.413,0,0,1-.627.158,1.133,1.133,0,0,1-.257-.027.635.635,0,0,1-.335-.174.379.379,0,0,1-.094-.371.453.453,0,0,1,.323-.281,1.463,1.463,0,0,1,1.1.185.825.825,0,0,1,.214.253,1.447,1.447,0,0,1,.146.76c0,.02,0,.044,0,.064a.973.973,0,0,1-.394.754,1.541,1.541,0,0,1-.687.228,7.24,7.24,0,0,1-.947.064,5.41,5.41,0,0,1-1.771-.281,10.712,10.712,0,0,0-2.7-.153,2.45,2.45,0,0,0-.126,1.279V17.3l0,.008,0,0h0s0,.008-.013.011h0l-.011,0h0c-.118.011-.252.016-.391.016-.051,0-.1,0-.158,0A2.328,2.328,0,0,0,23,18.787a2.171,2.171,0,0,0,.455.233c.114.04.232.08.355.115a9.838,9.838,0,0,0,1.046.209c.075.011.153.024.228.039.131.02.284.048.438.08.059.011.123.027.185.043.147.04.284.083.419.134a2.851,2.851,0,0,1,.835.489,2.012,2.012,0,0,1,.4.477,2.249,2.249,0,0,1,.233.552,3.282,3.282,0,0,1,.1.845,5.689,5.689,0,0,1-.1,1.073c-.008.056-.019.11-.027.166-.083.434-.264.658-.525.658a.35.35,0,0,1-.059,0,.432.432,0,0,1-.2-.083,1.221,1.221,0,0,1-1.065.62,1.416,1.416,0,0,1-.7-.185,2.9,2.9,0,0,1-.6-.489c-.192-.2-.363-.364-.5-.343-.11.015-.107.051-.1.075a.635.635,0,0,0,.024.09.324.324,0,0,1,.031.19.525.525,0,0,1-.146.2l-.008.008h0a.454.454,0,0,0-.086.1s.011.008.04.011a3.312,3.312,0,0,1,.729.335c.008,0,.013,0,.016,0a2.476,2.476,0,0,1,.6.248.038.038,0,0,1,.013.051.034.034,0,0,1-.032.016.039.039,0,0,1-.019,0A2.505,2.505,0,0,0,24.4,24.5s-.008,0-.016,0v0h0c-.275-.07-.757-.146-.9,0a.328.328,0,0,1,.241.327.209.209,0,0,1-.194.213h-.063s.019.048.268.027a1.98,1.98,0,0,0,.414-.078.648.648,0,0,1,.064-.016,1.132,1.132,0,0,1,.88.161.071.071,0,0,1,.024.056c-.008.048-.051.043-.139.04a1.269,1.269,0,0,0-.671.126c-.134.07-.181.138-.177.158h0a.11.11,0,0,0,.043.019.563.563,0,0,1,.155.1.68.68,0,0,1,.1.146,1.154,1.154,0,0,1,.078.155.068.068,0,0,0,.008.023.14.14,0,0,0,.019.028c.048.027.158-.032.321-.131s.252-.158.319-.2a1.043,1.043,0,0,1,.2-.115l.02-.007a.694.694,0,0,1,.5-.075.572.572,0,0,1,.158.09.649.649,0,0,0,.209.119.477.477,0,0,0,.327.019.378.378,0,0,0,.131-.1l0-.008a1.214,1.214,0,0,1,1.33-.107,1.614,1.614,0,0,1,.276.225c.122.11.236.217.316.185a.283.283,0,0,0,.059-.07.863.863,0,0,1,.193-.485,2.909,2.909,0,0,0-.6-.3.224.224,0,0,0-.051-.024c-.146-.067-.252-.11-.311-.232a.444.444,0,0,1-.028-.206c0-.04,0-.083,0-.138a2.208,2.208,0,0,1,.158-.62,6.026,6.026,0,0,0,.347-1.44,5.261,5.261,0,0,0-.311-2.028.05.05,0,0,1,0-.04.062.062,0,0,1,.035-.011.8.8,0,0,1,.43.323,1.339,1.339,0,0,0,.971.356c-.3-.663-1.6-1.338-2.561-1.835-.09-.048-.181-.091-.264-.139a7.107,7.107,0,0,1-.624-.355,3.729,3.729,0,0,1-.784-.722c-.1-.11-.214-.233-.351-.379-.718-.762-1.132-.7-1.137-.7a.037.037,0,0,1-.043-.027.044.044,0,0,1,.032-.044c.02,0,.457-.067,1.2.723.138.146.252.268.35.379A3.721,3.721,0,0,0,26.132,18.555ZM8.3,11.259l-.051-.145-.064.145Zm-.139-1.148.115.139.032-.2C8.26,10.071,8.212,10.092,8.165,10.111Zm-.193,1.148-.047-.126-.048.123C7.912,11.256,7.94,11.259,7.971,11.259Zm.035-.9.044-.213a2.168,2.168,0,0,1-.209.063Zm-.26,8.945c.217.031.455.051.695.063v0a4.31,4.31,0,0,1-.288-.407,1.054,1.054,0,0,1-.094-.6.438.438,0,0,0-.289.067.5.5,0,0,0-.114.11,1.277,1.277,0,0,1,.07.169v0A1.024,1.024,0,0,1,7.746,19.308Zm-1.132-.332a3.3,3.3,0,0,0,1.057.324.94.94,0,0,0-.015-.56v0a1.807,1.807,0,0,0-.075-.177.572.572,0,0,0-.651-.3.844.844,0,0,1-.075.209C6.78,18.637,6.7,18.807,6.614,18.977ZM6.09,17.75c-.008.027-.016.051-.02.07a1.044,1.044,0,0,1-.209.394c.091.118.2.249.316.4l.035.039a1.257,1.257,0,0,0,.34.289c.083-.171.161-.34.236-.506a.532.532,0,0,0,.07-.213.276.276,0,0,0,0-.051c-.043-.221-.371-.332-.477-.367A1.006,1.006,0,0,0,6.09,17.75Zm-.509,6.5a1.1,1.1,0,0,0,.024.217,1.1,1.1,0,0,1,.544.051,1.288,1.288,0,0,0,.307.051,2.674,2.674,0,0,0,.463-.107c.145-.039.311-.083.473-.118-.2-.039-.379-.086-.517-.122-.055-.016-.1-.028-.138-.036a.943.943,0,0,1-.292-.134.945.945,0,0,0-.466-.161.572.572,0,0,0-.141,0,.421.421,0,0,1,0,.264.271.271,0,0,1-.222.094A.124.124,0,0,1,5.581,24.247ZM5.675,12.9c-.011.178-.059.581-.3.71.13.2.174.217.335.193A.778.778,0,0,0,5.675,12.9Zm-.169,4.123c-.185.356-.048.656.308,1.129A1.022,1.022,0,0,0,6,17.8c0-.024.016-.059.024-.1a.552.552,0,0,0-.1-.556.5.5,0,0,0-.363-.123A.425.425,0,0,1,5.506,17.027ZM4.93,26.2a1.006,1.006,0,0,1,.62-.3.625.625,0,0,0,.094-.019.245.245,0,0,0,.1-.185c-.013-.075-.115-.107-.2-.123a.45.45,0,0,0-.067-.008C5.182,25.565,5,25.98,4.93,26.2Zm.048-11.185a.746.746,0,0,1,.45-.462.552.552,0,0,0,.283-.671.641.641,0,0,1-.086.008c-.126,0-.193-.063-.316-.244a.87.87,0,0,0-.386.331A2.079,2.079,0,0,0,4.977,15.015Zm-.086,9.079a.557.557,0,0,1,.3-.119H5.21a.276.276,0,0,1,.185.091.339.339,0,0,0,.158.1.252.252,0,0,0,.217-.043.354.354,0,0,0-.016-.24.177.177,0,0,0-.118-.091.719.719,0,0,0-.589.035A.415.415,0,0,0,4.891,24.094Zm-.537,1.073c.2-.123.489-.158,1.159-.028a.29.29,0,0,0-.032-.193c-.011-.024-.024-.043-.035-.067l-.016-.027a.131.131,0,0,0-.043-.059.449.449,0,0,0-.308-.1H5.064A.8.8,0,0,0,4.354,25.167Zm.492-12.46a.971.971,0,0,0-.864-.663.85.85,0,0,1,.426.808C4.662,12.873,4.744,12.845,4.847,12.708ZM3.123,9.3a5.2,5.2,0,0,0,2.031,2.323c-.067-.153-.142-.3-.216-.454-.171-.332-.309-.549-.309-.552a.034.034,0,0,1,0-.032.061.061,0,0,1,.027-.024s.107-.024.252-.067h0l0,0a2.883,2.883,0,0,0,.627-.265A5.5,5.5,0,0,1,3.123,9.3Zm.11,8.928a.435.435,0,0,0-.123-.351.1.1,0,0,0-.106-.008.982.982,0,0,1-.565.627A.8.8,0,0,0,3.234,18.231Zm-.08-4.762a.465.465,0,0,0,.285-.091.14.14,0,0,0,.055-.11.834.834,0,0,0-.821-.394,1.587,1.587,0,0,1,.469.552h0ZM15.842,14.51a1.418,1.418,0,0,1-.256.5.609.609,0,0,0,.055-.027,1.93,1.93,0,0,0,.77-.8,5.91,5.91,0,0,0,.371-.853c.067-.173.134-.355.209-.529a6.206,6.206,0,0,1,.439-.8,10.294,10.294,0,0,1,2.438-2.426c.319-.238.65-.474.971-.7a20.444,20.444,0,0,0,2.213-1.728q-.864.537-1.732,1.076L19.412,9.413a22.358,22.358,0,0,0-2.552,1.873c-.047.044-.091.083-.134.123a2.02,2.02,0,0,0-.623.781,3.587,3.587,0,0,0-.147,1.5A2.283,2.283,0,0,1,15.842,14.51Zm-.2,5.03a1.732,1.732,0,0,1-.051.967,1.283,1.283,0,0,1-.142.252.858.858,0,0,0,.379.078.731.731,0,0,0,.418-.158,1.621,1.621,0,0,0,.276-.272c.043-.056.086-.115.134-.182.032-.043.059-.086.086-.13l.02-.028a2.764,2.764,0,0,0,.327-.674,2.447,2.447,0,0,0-1.535-.3A3.465,3.465,0,0,1,15.645,19.54Zm-.825,4.383c.048.08.23.123.4.163.078.015.157.035.228.055.217.067.406.379.477.509a2.07,2.07,0,0,0,.3-.115,4.608,4.608,0,0,0,.426-.24l.032-.02a1.9,1.9,0,0,1-.6-.276,5.43,5.43,0,0,1-.525-.422c-.043-.035-.086-.075-.134-.11l-.048-.048a.534.534,0,0,0-.221-.142.374.374,0,0,0-.276.091.188.188,0,0,1,.059.11.542.542,0,0,1-.153.351A.484.484,0,0,0,14.82,23.924ZM14.774,19.6a1.175,1.175,0,0,1,.725-.567h0a2.4,2.4,0,0,1,1.578.276,19.316,19.316,0,0,0-1.1-3.354c-.043.1-.1.23-.165.372A10.076,10.076,0,0,0,14.774,19.6Zm-.485,5.919a.626.626,0,0,0-.134.489l0-.008a.634.634,0,0,1,.726-.284.283.283,0,0,0-.043-.185.227.227,0,0,0-.241-.118h-.008a.052.052,0,0,0-.024,0A.405.405,0,0,0,14.288,25.518Zm.1-.809a.409.409,0,0,1-.3.257.221.221,0,0,0,.007.07c.02.059.155.126.364.185a.152.152,0,0,1,.094-.114.774.774,0,0,1,.7,0c.115.082.71-.1,1.062-.233a.038.038,0,0,1,.027.07c-.158.059-.955.356-1.132.225a.687.687,0,0,0-.62,0c-.075.04-.059.075-.055.086a.174.174,0,0,0,.07.08.3.3,0,0,1,.3.158.333.333,0,0,1,.048.256.191.191,0,0,0,.142.064.988.988,0,0,0,.426-.147,3.322,3.322,0,0,1,.789-.307,1.74,1.74,0,0,1,1.113.078,1.348,1.348,0,0,1,.958-.027,3.841,3.841,0,0,0,1.046.4l.011-.008a.358.358,0,0,1,.008-.544l-.008-.024c-.047-.1-.1-.1-.323-.1H19a1.893,1.893,0,0,1-.656-.158.033.033,0,0,1-.019-.039.033.033,0,0,1,.027-.032c.056-.008.11-.019.166-.032.04-.008.083-.011.123-.019a4.279,4.279,0,0,0,2.28-1.287,5.122,5.122,0,0,0,.481-.58,1.224,1.224,0,0,0,.08-.134c.094-.177.217-.4.363-.406a.452.452,0,0,1,.13.027,8.683,8.683,0,0,1,.955.386c.059.027.111.035.139.013a.137.137,0,0,0,.027-.134,1.192,1.192,0,0,0-.529-.785,1.958,1.958,0,0,0-.837-.214,1.533,1.533,0,0,1-1.057-.386,1.123,1.123,0,0,1-.3-.867.969.969,0,0,1,.153-.415.881.881,0,0,1,.289-.272,1.966,1.966,0,0,0,.2-.158,1.281,1.281,0,0,0,.209-.26.171.171,0,0,0-.032-.011,1.2,1.2,0,0,0-.268-.067c-.043-.008-.1-.02-.169-.032a5.519,5.519,0,0,1-.64-.139c-.035-.019-.07-.035-.1-.055a1.526,1.526,0,0,1-.8.406,1.509,1.509,0,0,1-.236.02,1.352,1.352,0,0,1-.214-.016,4.477,4.477,0,0,0-.244.6,3.308,3.308,0,0,0-.13.6l-.013.091a1.081,1.081,0,0,0,.086.631.585.585,0,0,0,.091.139,1.262,1.262,0,0,0,.529.363.705.705,0,0,0,.1.043,4.223,4.223,0,0,0,.891.206c.153.019.265.027.3.032H20.4c.131.011.241.015.3.106q.148.22-.343.813c-.027.036-.059.067-.086.1h0a2.487,2.487,0,0,1-.959.6,1.12,1.12,0,0,1-.225.059.522.522,0,0,1-.335.356.762.762,0,0,1-.232.035.487.487,0,0,1-.391-.155.3.3,0,0,1-.07-.138,2,2,0,0,0-1.255.308c-.035.023-.075.047-.11.07-.131.08-.265.161-.434.244a1.771,1.771,0,0,1-.335.126h0a1.218,1.218,0,0,1-.3.04,1.322,1.322,0,0,1-.7-.236l-.02-.013a.567.567,0,0,0-.516-.011A.238.238,0,0,1,14.387,24.709ZM14.3,23.352a.582.582,0,0,0-.324.311.919.919,0,0,1,.379-.106.471.471,0,0,1,.391.2.406.406,0,0,0,.118-.268.107.107,0,0,0-.059-.088A.688.688,0,0,0,14.3,23.352Zm-.348-2.391a1.807,1.807,0,0,1-.173.406,1.238,1.238,0,0,0,.276.028h0a1.538,1.538,0,0,0,.824-.253,1.678,1.678,0,0,0,.477-.39,1.14,1.14,0,0,0,.163-.273,1.689,1.689,0,0,0,.047-.926,3.261,3.261,0,0,0-.09-.439,1.16,1.16,0,0,0-.718.656l-.008.008v0l-.011,0v0h-.028l0,0h0c-.161-.118-.3-.232-.426-.347-.11-.094-.216-.185-.323-.26.032.28.055.564.067.84A2.606,2.606,0,0,1,13.956,20.961Zm-.588,4.024c.292-.153.573-.257.7-.091a.359.359,0,0,0,.249-.209.175.175,0,0,0-.016-.161.819.819,0,0,0-.292-.056.656.656,0,0,0-.26.056A.782.782,0,0,0,13.369,24.985Zm-.28-4.6a2.728,2.728,0,0,1-.155.386.663.663,0,0,0-.09.308.792.792,0,0,0,.1.43,1.362,1.362,0,0,1,.091.241.531.531,0,0,1,.016.078,1.2,1.2,0,0,0,.477-.264,1.138,1.138,0,0,0,.161-.193,1.482,1.482,0,0,0,.193-.434,2.542,2.542,0,0,0,.067-.915c-.011-.3-.035-.6-.072-.9A.852.852,0,0,0,13.2,19a2.763,2.763,0,0,1,.035.394,2.053,2.053,0,0,1,0,.264A3.224,3.224,0,0,1,13.089,20.385Zm-.257-1.33a1.822,1.822,0,0,1,.313-.118.934.934,0,0,1,.792.134,3.3,3.3,0,0,1,.394.311c.11.1.225.194.351.289a9.514,9.514,0,0,1,.056-3.157,7.842,7.842,0,0,0-1.886,2.454l-.013.04C12.837,19.024,12.837,19.039,12.832,19.055Zm-.382.249-.016.019a.571.571,0,0,0-.142.257.038.038,0,0,0,0,.019.329.329,0,0,0,.048.292.269.269,0,0,0,.225.064.494.494,0,0,0,.126-.04.36.36,0,0,0,.142-.153,1.346,1.346,0,0,1,.08-.123,1.529,1.529,0,0,1,.248-.26,2.955,2.955,0,0,0-.035-.359,2.323,2.323,0,0,0-.327.134l-.008,0h-.016l-.013,0h0l0,0-.008-.008h0l0-.013h0l0,0c0-.02,0-.035,0-.051A.939.939,0,0,0,12.45,19.3ZM11.9,20.314a.023.023,0,0,0,.011.015c.04.02.107-.023.158-.055a.5.5,0,0,0,.11-.1.3.3,0,0,1,.107-.1.362.362,0,0,1,.146-.051.292.292,0,0,1-.146-.075.367.367,0,0,1-.08-.308.692.692,0,0,1-.075.032.037.037,0,0,1-.027,0c-.141-.051-.2-.016-.221,0-.032.024-.035.1-.032.214,0,.047,0,.11.008.169A.806.806,0,0,0,11.9,20.314Zm.047-4.707a2.383,2.383,0,0,1-.189.335l-.1.13a.741.741,0,0,0,.131.171c.126-.083.257-.163.386-.238C12.094,15.876,12.016,15.741,11.944,15.607Zm-.169,4.316a.521.521,0,0,0-.3.166c-.039.043-.091.1-.083.165a.234.234,0,0,0,.217.171.152.152,0,0,0,.056,0,.346.346,0,0,0,.153-.107,1.317,1.317,0,0,1-.035-.265A1.239,1.239,0,0,0,11.775,19.923Zm-.335-4.466a.733.733,0,0,0,.035.193v0a2.816,2.816,0,0,0,.147.347c.024-.035.051-.067.075-.1a2.264,2.264,0,0,0,.2-.375l0-.008a4.412,4.412,0,0,1-.185-.438,2.934,2.934,0,0,1-.233.331C11.467,15.425,11.451,15.441,11.44,15.457Zm-.091-3.973c0,.213-.011.45-.008.71a.822.822,0,0,0,0,.106c0,.2.011.41.032.64,0,.035,0,.07.007.106s.008.072.013.111.013.1.016.153c.019.158.043.311.067.465l.011.056c.036.221.075.438.123.647a4.912,4.912,0,0,0,.138.5,4.559,4.559,0,0,0,.214.5l.011.024a4.063,4.063,0,0,0,.268.462,6.529,6.529,0,0,1,.695-.335c.1-.04.193-.075.288-.107a1.889,1.889,0,0,1-.153-.454c-.04-.193-.067-.327.011-.446a.6.6,0,0,1,.71-.1.836.836,0,0,1,.131.094l.008.008a.675.675,0,0,0-.158-.311.5.5,0,0,0-.19-.142,1.213,1.213,0,0,1-.225-.134c-.189-.138-.355-.26-.39-.462a.513.513,0,0,1,.225-.517c.307-.177.753.15.84.217a1.058,1.058,0,0,1,.107.094c.015.013.035.032.047.04a1.023,1.023,0,0,0-.363-.789.724.724,0,0,0-.185-.1.542.542,0,0,1-.249-.181c-.166-.206-.213-.383-.146-.525a.478.478,0,0,1,.374-.221.738.738,0,0,1,.568.161.912.912,0,0,1,.126.126.889.889,0,0,0-.335-.754c-.019-.011-.043-.024-.067-.035a1.46,1.46,0,0,1-.371-.26c-.091-.088-.166-.158-.15-.244a.211.211,0,0,1,.1-.139.764.764,0,0,1,.549-.094.9.9,0,0,1,.161.059l.035.011a.712.712,0,0,0-.094-.118,1.426,1.426,0,0,0-.576-.383L13.479,9.9a.3.3,0,0,1-.142-.059.407.407,0,0,1-.126-.225.552.552,0,0,0-.043-.122,2.739,2.739,0,0,0-.213-.324,1.256,1.256,0,0,1-.939.236.755.755,0,0,1-.115.19c-.016.019-.032.035-.043.051a.245.245,0,0,0-.059.075.3.3,0,0,0,.059,0,.123.123,0,0,1,.04,0c.2.016.449.134.441.244,0,.048-.039.067-.094.094-.016.008-.035.02-.056.032-.07.04-.256.15-.264.19a.284.284,0,0,0,.048.016.86.86,0,0,1,.169.07.532.532,0,0,1,.236.257.077.077,0,0,1-.008.055c-.024.032-.055.028-.11.02-.019,0-.043-.008-.075-.013-.115-.011-.233-.024-.244,0s.024.063.043.1a1.445,1.445,0,0,1,.078.161c.067.161.131.363.059.406-.039.024-.067,0-.185-.09a1.506,1.506,0,0,0-.13-.1c-.131-.1-.185-.138-.209-.13s-.027.024-.064.11l-.019.043A.875.875,0,0,1,11.349,11.484Zm-.078,4.971a1.4,1.4,0,0,0,.067.123c.126-.1.256-.2.39-.292a1.417,1.417,0,0,1-.118-.153A2.441,2.441,0,0,1,11.27,16.455Zm0-4.083a.4.4,0,0,1-.064.051.671.671,0,0,1-.091.067c.024.051.044.1.064.15.008.032.016.055.019.075s.013.047.024.078a.5.5,0,0,0,.072.139l.008,0C11.286,12.731,11.274,12.546,11.27,12.372Zm-.222,1c.013.088.028.174.04.246a2.765,2.765,0,0,0,.249-.316q-.012-.106-.024-.225c0-.019,0-.04,0-.055a.108.108,0,0,0-.023.019,2.042,2.042,0,0,1-.2.153.642.642,0,0,1-.07.04A.468.468,0,0,1,11.048,13.374Zm-.011,6.917a.489.489,0,0,0,.083.228.373.373,0,0,0,.035.048.722.722,0,0,1,.075.114.735.735,0,0,1,.075.209c.011.043.016.064.027.072a.124.124,0,0,0,.059-.008.367.367,0,0,0,.186-.2.378.378,0,0,0,0-.26.307.307,0,0,1-.261-.233.279.279,0,0,1,.08-.2c-.115-.11-.209-.161-.264-.142s-.107.158-.1.3C11.034,20.247,11.037,20.27,11.037,20.291Zm0-4.442a.718.718,0,0,1,.059.181,1.311,1.311,0,0,0,.139.359,2.655,2.655,0,0,0,.335-.323,2.66,2.66,0,0,1-.166-.388v0a.655.655,0,0,1-.032-.139A2.742,2.742,0,0,1,11.037,15.848Zm.153-.766a1.581,1.581,0,0,1,.209.19.222.222,0,0,1,.032.083,2.818,2.818,0,0,0,.244-.371c-.043-.127-.078-.257-.114-.4a2.687,2.687,0,0,1-.257.367v0A1.511,1.511,0,0,1,11.191,15.082Zm-.181-2.758a.875.875,0,0,1,.067.1.709.709,0,0,0,.083-.059c.039-.031.075-.063.11-.094h0c-.008-.236,0-.454,0-.651-.07.171-.134.34-.193.506h0C11.056,12.195,11.034,12.262,11.01,12.324Zm.134,2c-.032.036-.067.072-.1.107.032.059.07.126.11.2s.086.161.126.228a2.736,2.736,0,0,0,.257-.382c-.04-.177-.075-.359-.107-.544A3.871,3.871,0,0,1,11.144,14.328Zm-.19-1.827.064-.035-.036-.055A.9.9,0,0,0,10.954,12.5Zm-.032.1c-.035.106-.066.217-.1.319a1.7,1.7,0,0,1,.161.252.677.677,0,0,1,.059-.035,1.442,1.442,0,0,0,.193-.15.793.793,0,0,1-.086-.166.454.454,0,0,1-.024-.083c-.008-.019-.013-.043-.02-.07-.015-.043-.035-.091-.055-.134A1.093,1.093,0,0,1,10.922,12.6Zm.171,1.124c-.048.051-.1.1-.155.146a.463.463,0,0,1,.083.158,1.06,1.06,0,0,0,.1.214,4.315,4.315,0,0,0,.3-.407l-.007-.043c-.02-.123-.04-.249-.056-.375a2.775,2.775,0,0,1-.233.281l-.008.008Zm-.268,1.688c.008.036.011.059.015.075a.583.583,0,0,0,.1.185c.024.04.043.075.067.111a2.768,2.768,0,0,0,.363-.348.3.3,0,0,0-.024-.122,2.185,2.185,0,0,0-.2-.174,2.508,2.508,0,0,1-.3.256A.06.06,0,0,1,10.825,15.409Zm-.028-2.4c-.016.063-.035.13-.051.193-.007.032-.016.063-.024.094a1.294,1.294,0,0,0,.2-.091A.994.994,0,0,0,10.8,13.008Zm-.016,3.815a.718.718,0,0,0,.111.158c.123-.123.252-.241.386-.356-.016-.031-.043-.07-.067-.122-.051.039-.1.078-.155.118l-.011.011c-.064.048-.131.1-.2.147C10.825,16.8,10.8,16.807,10.78,16.822Zm-.236-2.75a2.394,2.394,0,0,0,.319-.236,1.886,1.886,0,0,0,.163-.155,2.841,2.841,0,0,1-.048-.3.39.39,0,0,0-.027-.11,1.588,1.588,0,0,1-.252.11C10.638,13.611,10.587,13.843,10.544,14.073Zm.241.615c-.04.035-.075.067-.11.1.035.141.094.386.13.548a2.927,2.927,0,0,0,.308-.268c.04-.043.078-.086.118-.134-.04-.075-.091-.166-.142-.257-.035-.063-.067-.126-.1-.177l-.047.048C10.892,14.593,10.839,14.641,10.785,14.688Zm-.072,10.569a.7.7,0,0,0-.051.442l.013-.008a.7.7,0,0,1,.311-.086.674.674,0,0,1,.418.166.773.773,0,0,0-.272-.434A.548.548,0,0,0,10.713,25.257Zm.056-9.215c-.078.051-.161.1-.244.15a1.3,1.3,0,0,0,.122.2c.092.139.147.228.182.292l0,.008c.059-.043.114-.083.165-.123l.017-.011c.055-.043.109-.088.16-.126a1.3,1.3,0,0,1-.153-.4.427.427,0,0,0-.047-.142C10.9,15.954,10.825,16,10.769,16.042Zm-.288.974a.732.732,0,0,0,.07.244.2.2,0,0,0,.04.043c.078-.09.161-.181.248-.272a.808.808,0,0,1-.122-.166C10.643,16.913,10.564,16.965,10.481,17.016Zm.276-1.558a2.48,2.48,0,0,1-.434.241c0,.055-.008.106-.013.153.19.161.206.206.209.221a.089.089,0,0,1,0,.032c.07-.039.138-.083.2-.126a2.345,2.345,0,0,0,.217-.15l-.072-.118a.686.686,0,0,1-.106-.213A.2.2,0,0,0,10.757,15.457Zm.126-1.539a3.877,3.877,0,0,1-.359.257c-.008.032-.013.067-.02.1.036.051.166.233.257.335.043-.04.086-.08.131-.123a.851.851,0,0,0,.078-.078c.035-.035.067-.075.1-.11a.992.992,0,0,1-.118-.257A.522.522,0,0,0,10.884,13.918Zm-.477.971c.07-.047.142-.1.2-.15a1.188,1.188,0,0,0,.094-.078c-.07-.083-.161-.206-.221-.284C10.457,14.546,10.43,14.72,10.406,14.889Zm.011,3.468a2.843,2.843,0,0,0-.2.738.917.917,0,0,0,.126.706.421.421,0,0,0,.07.08,1.262,1.262,0,0,0,.549.3c0-.142.047-.284.146-.324s.236.056.34.153a.664.664,0,0,1,.331-.161c0-.123.008-.2.059-.241a.286.286,0,0,1,.281-.008c.019-.011.063-.027.11-.051a.635.635,0,0,1,.153-.272l.011-.016A1.049,1.049,0,0,1,12.722,19a1.857,1.857,0,0,0-.09-.41,5.2,5.2,0,0,0-.881.715.036.036,0,0,1-.032.015h0a.036.036,0,0,1-.034-.015,2.274,2.274,0,0,1-.107-1.117A5.018,5.018,0,0,1,10.418,18.357Zm.032-2.256c0-.008-.019-.043-.146-.155,0,.088-.013.182-.016.284.051-.024.1-.051.153-.078a.1.1,0,0,1,.008-.043l0,0Zm-.182,1.629c.064-.1.134-.193.206-.284a1.032,1.032,0,0,0,.07-.086.235.235,0,0,1-.055-.059.643.643,0,0,1-.075-.244c-.051.027-.1.059-.155.086C10.256,17.34,10.26,17.536,10.268,17.73Zm.126-2.742c-.016.118-.027.228-.039.339-.008.091-.016.186-.028.289a2.756,2.756,0,0,0,.415-.236c-.036-.15-.091-.391-.131-.544C10.544,14.885,10.469,14.94,10.394,14.988Zm-.4-3.642a1.054,1.054,0,0,0,.177.356,1.142,1.142,0,0,0,.135.142,1.012,1.012,0,0,0,.714.236c.075-.2.153-.406.236-.607a.6.6,0,0,1-.1-.186c-.024-.051-.04-.09-.051-.118s-.013-.031-.016-.043a.346.346,0,0,0-.044.158.217.217,0,0,1-.007.056.754.754,0,0,1-.177.3c-.017.016-.028.032-.044.048a.031.031,0,0,1-.027.016h0a.054.054,0,0,1-.031-.024s-.072-.158-.169-.371A2.837,2.837,0,0,0,9.991,11.346Zm.091,6.826c2.21-1.7,2.963-1.791,3.519-1.862a2.891,2.891,0,0,0,.351-.056.032.032,0,0,1,.035.013.029.029,0,0,1,0,.039,1.156,1.156,0,0,1-.059.11,14.205,14.205,0,0,0-.924,2.04,11.439,11.439,0,0,1,1.855-2.162.036.036,0,0,1,.051,0,.043.043,0,0,1,0,.051c-.308.327-.3,1.835-.193,2.975a11.337,11.337,0,0,1,1.022-3.029c.078-.174.15-.324.2-.438a.031.031,0,0,1,.032-.024.042.042,0,0,1,.035.019,18.2,18.2,0,0,1,1.108,3.294,10.189,10.189,0,0,0-.5-3.61.031.031,0,0,1,.008-.039.035.035,0,0,1,.04-.008c.931.367,2.426,2.205,2.959,2.887a10.012,10.012,0,0,0-2.323-3.266.036.036,0,0,1-.013-.044.045.045,0,0,1,.04-.023,21.367,21.367,0,0,1,5.015,2.047A19.009,19.009,0,0,0,17.815,14.2a.033.033,0,0,1-.02-.035.031.031,0,0,1,.028-.032c2.284-.407,6.205.485,7.267.773-.829-.62-2.738-1.345-7.122-1.515a.039.039,0,0,1-.035-.023.046.046,0,0,1,.011-.044c.584-.418,4.345-1.29,7.09-1.924.75-.174,1.421-.327,1.945-.455a64.018,64.018,0,0,0-8.628,1.55.037.037,0,0,1-.043-.023.038.038,0,0,1,.016-.044c.537-.363,6.4-3.12,8.987-4.335-.891.355-2.068.821-3.106,1.215h0c-.551.209-1.017.383-1.388.513-1.527.533-4.23,1.736-5.33,2.237a5.717,5.717,0,0,0-.431.781c-.075.174-.142.356-.209.53a6.466,6.466,0,0,1-.371.859,1.971,1.971,0,0,1-.8.825,1.848,1.848,0,0,1-.222.1h0a4.194,4.194,0,0,1-.995.19l-.086.011a5.219,5.219,0,0,0-1.081.23c-.1.035-.214.075-.324.118a6.255,6.255,0,0,0-.717.351c-.15.086-.3.177-.442.272a5.59,5.59,0,0,0-.458.343c-.15.123-.3.257-.43.391-.107.106-.206.217-.3.323-.028.032-.056.067-.091.115-.1.118-.185.244-.268.371C10.2,17.966,10.138,18.069,10.082,18.172Zm.2-1.859-.011.249c-.008.161-.013.327-.013.5.056-.032.11-.063.163-.094.1-.059.2-.123.288-.182.024-.016.043-.032.063-.043l-.007-.016c-.036-.059-.091-.15-.182-.284a1.27,1.27,0,0,1-.126-.213C10.4,16.259,10.339,16.286,10.283,16.313Zm3.326.072c-.552.067-1.3.161-3.547,1.894a2.745,2.745,0,0,0,.327,0,4.5,4.5,0,0,0,1.227-.193.038.038,0,0,1,.04.011.03.03,0,0,1,.008.04,2.388,2.388,0,0,0,.059,1.07,6.923,6.923,0,0,1,.9-.71.029.029,0,0,1,.032,0c.007,0,.015.007.023.019a1.735,1.735,0,0,1,.107.41,12.762,12.762,0,0,1,1.081-2.541c.008-.016.011-.028.019-.044C13.8,16.361,13.7,16.372,13.61,16.385ZM9.833,10.849l.1-.024-.07-.106Zm.206,9.26a.7.7,0,0,0-.15.529.509.509,0,0,0,.07.182.639.639,0,0,0,.166.189.889.889,0,0,0,.529.2c.115-.3.222-.612.313-.915a.08.08,0,0,1,0-.032,1.4,1.4,0,0,1-.6-.327l-.059-.059A.829.829,0,0,0,10.039,20.109Zm-.153,1.385a.946.946,0,0,0,.07.088.647.647,0,0,0,.481.161c.052-.115.1-.241.158-.379l.008-.024c.008-.019.016-.04.024-.064a.922.922,0,0,1-.548-.213.758.758,0,0,1-.155-.161.341.341,0,0,0-.051.07.49.49,0,0,0-.075.265A.474.474,0,0,0,9.886,21.493Zm-.119.15c-.185.174-.3.276-.315.426a.477.477,0,0,0,.047.273.431.431,0,0,0,.233.221.41.41,0,0,0,.228.019l.024-.032a3.776,3.776,0,0,0,.423-.733H10.39a.675.675,0,0,1-.481-.185h0a.551.551,0,0,1-.056-.064A.659.659,0,0,0,9.766,21.643ZM9.7,12.518a.338.338,0,0,0,.035.123.8.8,0,0,0,.289.319,1.073,1.073,0,0,0,.655.193c.019-.078.043-.158.067-.236.023-.094.055-.19.083-.284.007-.027.019-.059.027-.086v0c.024-.067.043-.134.067-.2a.708.708,0,0,0,.027-.083c.013-.032.024-.067.035-.1H10.97a1.089,1.089,0,0,1-.714-.257,1.177,1.177,0,0,1-.123-.126,1.264,1.264,0,0,0-.224.217A.753.753,0,0,0,9.7,12.518Zm-.169-1.574c.035-.015.078-.031.118-.043l-.088-.122Zm-.19.075-.1-.114-.027.169C9.262,11.055,9.3,11.034,9.345,11.018ZM9.3,13.646a.924.924,0,0,0,.268.343,1.229,1.229,0,0,0,.864.26c.008-.035.011-.072.019-.107h0c.051-.264.111-.532.178-.8,0-.008,0-.016,0-.024l0,0c.008-.032.016-.059.024-.091a1.172,1.172,0,0,1-.679-.209.975.975,0,0,1-.3-.308,1.008,1.008,0,0,0-.221.214.8.8,0,0,0-.209.552A.675.675,0,0,0,9.3,13.646Zm-.265-2.489-.11-.131-.043.19A1.152,1.152,0,0,0,9.036,11.157Zm.072,11.685A.864.864,0,0,0,9,23.407a.336.336,0,0,0,.056.11.3.3,0,0,0,.248.1c.171-.027.268-.276.308-.383l0-.008a2.583,2.583,0,0,1,.288-.564H9.873a.476.476,0,0,1-.169-.032.5.5,0,0,1-.249-.221A1.178,1.178,0,0,0,9.108,22.843ZM8.8,14.668c.008.024.016.051.027.078a.872.872,0,0,0,.268.324,1.525,1.525,0,0,0,1.188.221c.013-.106.024-.217.04-.327.027-.217.059-.43.1-.639a1.305,1.305,0,0,1-.9-.281,1.02,1.02,0,0,1-.276-.335.916.916,0,0,0-.319.276A.826.826,0,0,0,8.8,14.668Zm0-3.436.063-.3a.035.035,0,0,1,.027-.028.033.033,0,0,1,.036.013l.173.2c.013,0,.024-.011.036-.016l.047-.3a.041.041,0,0,1,.028-.032.039.039,0,0,1,.039.013l.163.193.035-.013.059-.3a.035.035,0,0,1,.032-.027.03.03,0,0,1,.035.016l.146.213.028-.007.059-.249a.035.035,0,0,1,.027-.027.037.037,0,0,1,.04.015l.138.206a1.172,1.172,0,0,1,.324-.011c-.107-.209-.19-.367-.257-.474a14.985,14.985,0,0,1-3.31.3c-.982,0-1.747-.051-1.846-.059-.091.027-.163.047-.206.059.048.075.15.252.273.489.158.016,1.25.1,2.714.134h0s.035,0,.094,0l.091-.241a.041.041,0,0,1,.035-.024h0a.036.036,0,0,1,.032.024l.091.244H8.11L8.22,11a.037.037,0,0,1,.035-.024A.05.05,0,0,1,8.292,11l.086.26a.442.442,0,0,0,.067,0l.086-.273a.036.036,0,0,1,.067-.008l.158.265C8.773,11.235,8.789,11.235,8.8,11.232Zm-.013,5.145a2.389,2.389,0,0,0,.825.165,3.542,3.542,0,0,0,.58-.015c0-.08.008-.158.011-.241l0-.048c.008-.138.016-.256.023-.371,0-.064.008-.131.013-.2.011-.106.019-.209.027-.3a2.483,2.483,0,0,1-.359.027,1.34,1.34,0,0,1-.864-.264,1.011,1.011,0,0,1-.276-.316.821.821,0,0,0-.272.233.984.984,0,0,0-.163.58.76.76,0,0,0,.044.442h0l0,.008A.762.762,0,0,0,8.792,16.377Zm-.268-6.253.013-.182A1.079,1.079,0,0,1,8.417,10ZM8.5,19.674a1.5,1.5,0,0,0,.26.77,1.466,1.466,0,0,0,.584.5c.236-.015.418-.023.477-.027a.674.674,0,0,1,.059-.078.607.607,0,0,1-.067-.182.774.774,0,0,1,.161-.584.929.929,0,0,1,.281-.256,1.053,1.053,0,0,1-.118-.726,2.917,2.917,0,0,1,.2-.73,1.95,1.95,0,0,1-.375-.016h0l-.007,0,0,0h0l0,0,0,0,0-.008,0,0V18.3h0l0,0v0a4.866,4.866,0,0,1,.26-.454l0-.035a1.952,1.952,0,0,1-.647.252,2.321,2.321,0,0,1-.45.055,1.124,1.124,0,0,1-.6-.157.986.986,0,0,1-.138-.1,1,1,0,0,0-.2.367,1.067,1.067,0,0,0-.024.115,1,1,0,0,0,.083.591s.035.064.292.407a.082.082,0,0,1,.008.032.149.149,0,0,0-.008.035v.011a1.016,1.016,0,0,0-.016.193A.465.465,0,0,0,8.5,19.674Zm.036-1.787a1.339,1.339,0,0,0,1,.091,1.931,1.931,0,0,0,.658-.26c-.007-.2-.007-.4-.007-.6,0-.177,0-.351.011-.521-.134.011-.265.019-.394.019-.064,0-.126,0-.19,0a2.436,2.436,0,0,1-.848-.173.876.876,0,0,1-.423-.3.875.875,0,0,0-.208.221,1.012,1.012,0,0,0-.127.778,1.2,1.2,0,0,0,.375.635A1.085,1.085,0,0,0,8.536,17.888Zm.051,7.634a1,1,0,0,1,.379-.2.815.815,0,0,1,.663.233,3.4,3.4,0,0,0,.41.26.411.411,0,0,0,.56-.075.767.767,0,0,1,.047-.516.29.29,0,0,0-.224-.126,7.653,7.653,0,0,1-.9-.2.032.032,0,0,1-.024-.016.039.039,0,0,1,0-.032,4.016,4.016,0,0,1,.7-1.447,6.156,6.156,0,0,1,.5-.477,5.01,5.01,0,0,0,.449-.431A7.919,7.919,0,0,0,12,21.41a.039.039,0,0,1,.044-.011.031.031,0,0,1,.023.04,3.875,3.875,0,0,0,.466,1.594,1.7,1.7,0,0,0,.454-1.153.874.874,0,0,0-.024-.114,1.2,1.2,0,0,0-.086-.225.878.878,0,0,1-.11-.466.789.789,0,0,1,.1-.335,3.091,3.091,0,0,0,.149-.374,2.8,2.8,0,0,0,.134-.715c0-.059.008-.118.008-.173a1.143,1.143,0,0,0-.189.2,1.223,1.223,0,0,0-.083.118.421.421,0,0,1-.169.182.474.474,0,0,1-.131.04l0,.008a.174.174,0,0,1-.127.063.348.348,0,0,0-.138.043.289.289,0,0,0-.086.083.413.413,0,0,1-.126.115.347.347,0,0,1-.174.075.146.146,0,0,1-.056-.013l-.019-.011a.332.332,0,0,1-.177.11.045.045,0,0,1-.024,0,.417.417,0,0,1-.008.284.458.458,0,0,1-.233.24.2.2,0,0,1-.067.013.21.21,0,0,1-.047-.008c-.048-.024-.056-.072-.067-.123a.739.739,0,0,0-.067-.193c-.028-.048-.048-.07-.067-.1a.512.512,0,0,1-.044-.051A.62.62,0,0,1,11,20.436c-.086.276-.177.552-.284.821a.794.794,0,0,1-.043.11l-.008.024c-.055.145-.11.28-.165.4h0a4.06,4.06,0,0,1-.455.8l-.027.043a2.412,2.412,0,0,0-.327.62l0,.008c-.048.118-.155.394-.367.43-.016,0-.028,0-.043,0A.385.385,0,0,1,9,23.564a.316.316,0,0,1-.048-.074c-.315.371-.741.8-1.061.832a2.409,2.409,0,0,0-.289.048h0c-.225.047-.458.11-.663.165a2.937,2.937,0,0,1-.477.107,1.24,1.24,0,0,1-.327-.056.923.923,0,0,0-.537-.039l0,0a.2.2,0,0,0-.067.056.434.434,0,0,0-.07.146.525.525,0,0,1,.043.064l.016.027a.3.3,0,0,0,.032.067.349.349,0,0,1,.039.252.459.459,0,0,1,.3-.174,1.081,1.081,0,0,1,.43.075.893.893,0,0,0,.438.075.038.038,0,0,1,.044.028.041.041,0,0,1-.032.043.967.967,0,0,1-.474-.075.947.947,0,0,0-.4-.072.423.423,0,0,0-.273.174.487.487,0,0,0-.094.257.162.162,0,0,1,.04,0c.157.032.244.091.256.185a.276.276,0,0,1-.1.23c.02.019.04.035.059.051.415.3.9,0,1.252-.217.091-.056.165-.1.232-.134a1.269,1.269,0,0,1,.987.011C8.374,25.675,8.465,25.613,8.587,25.522Zm.019-14.27c.027,0,.048,0,.067,0l-.094-.166-.056.174C8.551,11.256,8.58,11.251,8.607,11.251Zm.032-1.365.134.131,0-.225A1.017,1.017,0,0,1,8.639,9.886Zm-.024,1.9c.067.134.146.288.193.394a1.364,1.364,0,0,1,1.132-.9,2.886,2.886,0,0,1,.6-.047c-.059-.131-.114-.244-.166-.348a.935.935,0,0,0-.374,0h0c-.075.011-.155.032-.233.051l-.051.016c-.056.016-.11.035-.163.055l-.063.024-.075.032h0c-.083.032-.158.067-.233.1l-.07.032,0,0a.976.976,0,0,1-.371.11h0c-.035,0-.078.008-.131.011s-.09,0-.138,0-.083,0-.123,0H8.137c-.1,0-.2,0-.311,0-.032,0-.056,0-.075,0a1.7,1.7,0,0,0,.236.75A.029.029,0,0,1,8,12.1a.235.235,0,0,1,0,.055c-.011.158-.043.485.146.64a3.316,3.316,0,0,0,.4-.995.033.033,0,0,1,.028-.035A.033.033,0,0,1,8.615,11.784ZM12.95,9.043c.064-.418.8-.888,1.081-1.054l-.236-.02a.039.039,0,0,1-.032-.019.038.038,0,0,1,0-.035,2.875,2.875,0,0,0,.086-.754,1.277,1.277,0,0,1-.746.311,2.807,2.807,0,0,0-1.4.612h0a1.161,1.161,0,0,0-.241.426.033.033,0,0,1-.035.027h-.008A.042.042,0,0,1,11.4,8.49a1.345,1.345,0,0,1,.209-.4c-.134-.008-.268-.016-.4-.02-.11,0-.225-.008-.335-.016-.327-.019-.624-.039-.92-.047-.032,0-.063,0-.1,0a2.774,2.774,0,0,0-.746.043,1.01,1.01,0,0,0-.5.268,1.111,1.111,0,0,0-.131.182s-.016.04-.027.067c-.056.134-.056.134-.083.134-.15,0-.292.008-.426.013a1.461,1.461,0,0,1,.26.575.4.4,0,0,1-.161.327.03.03,0,0,1-.019.008A.034.034,0,0,1,7.984,9.6.038.038,0,0,1,8,9.551a.334.334,0,0,0,.131-.268,1.6,1.6,0,0,0-.276-.572,4.649,4.649,0,0,0-2.076.509,1.3,1.3,0,0,0-.477.438,3.6,3.6,0,0,1,1.969.094,1.608,1.608,0,0,0,.257-.189.872.872,0,0,0,.122-.407.038.038,0,0,1,.043-.032.036.036,0,0,1,.032.04.976.976,0,0,1-.146.454,2.112,2.112,0,0,1-.233.177.861.861,0,0,1,.316.364l0,.008a1.691,1.691,0,0,0,.43-.107c.084-.032.171-.067.252-.1s.15-.075.217-.11a.878.878,0,0,0,.225-.166h0l.008-.008h0l.011,0h0a1.777,1.777,0,0,1,1.234.474,1.144,1.144,0,0,1,.091.122c.072.119.174.3.3.568.06.126.127.265.2.423s.127.272.155.339l0,0a.656.656,0,0,0,.166-.273.239.239,0,0,0,.008-.047c.011-.091.027-.23.126-.222.04,0,.051.035.075.091a.738.738,0,0,0,.048.115.853.853,0,0,0,.09.169,1.515,1.515,0,0,0,.139-.265l.019-.043c.044-.094.06-.13.107-.146.064-.024.118.016.276.138l.134.1a.6.6,0,0,0,.1.075,1.121,1.121,0,0,0-.088-.3,1.343,1.343,0,0,0-.078-.153c-.04-.075-.07-.131-.035-.182s.126-.043.316-.019c.027,0,.055.008.07.008s.024,0,.035.008a.532.532,0,0,0-.2-.2.706.706,0,0,0-.155-.064c-.051-.011-.094-.024-.1-.07-.011-.083.111-.158.3-.268l.059-.032a.185.185,0,0,0,.055-.035.513.513,0,0,0-.371-.171h-.04c-.055,0-.106,0-.126-.051s.024-.1.076-.153a.41.41,0,0,1,.043-.048.6.6,0,0,0,.09-.15c-.078-.011-.161-.027-.244-.047a.038.038,0,0,1-.024-.048.033.033,0,0,1,.044-.024A1.764,1.764,0,0,0,12,9.334a1.193,1.193,0,0,0,.916-.221ZM9.207,20.953a1.547,1.547,0,0,1-.782-1.279v-.067a1.144,1.144,0,0,1,.008-.165,7.089,7.089,0,0,1-.741-.064,3.3,3.3,0,0,1-1.145-.355,1.373,1.373,0,0,1-.394-.324l-.035-.04c-.126-.161-.236-.3-.335-.426-.394-.516-.552-.851-.335-1.258a.067.067,0,0,1,.027-.019.238.238,0,0,0,.051,0A3.614,3.614,0,0,0,5,15.2a.435.435,0,0,1-.051-.067h0a1.922,1.922,0,0,1-.107-1.167c.02-.15.048-.3.067-.439a1.9,1.9,0,0,0,.056-.623.492.492,0,0,0-.078-.131.379.379,0,0,1-.348.163c-.048,0-.1,0-.161-.008A2.434,2.434,0,0,0,4.307,14.5a.037.037,0,0,1-.019.04.035.035,0,0,1-.016,0,.032.032,0,0,1-.028-.011,3.926,3.926,0,0,1-.39-.8,2.992,2.992,0,0,0-.163-.371.191.191,0,0,0-.126-.075.208.208,0,0,1-.075.142.517.517,0,0,1-.319.106.232.232,0,0,1-.055,0,.043.043,0,0,1-.032-.032c-.139.131-.094.2,0,.347a1.718,1.718,0,0,1,.111.186.043.043,0,0,1,0,.019.743.743,0,0,0,.576.837.035.035,0,0,1,.032.039c0,.059-.134,1.5-.186,1.708a1.45,1.45,0,0,1-.551.762c-.225.182-.249.273-.241.308s.047.063.122.086a.066.066,0,0,1,.024.008.171.171,0,0,1,.174.013.516.516,0,0,1,.158.41.074.074,0,0,0,.059.027c.078-.016.217-.364.3-.679l0-.013a3.746,3.746,0,0,0,.425-.828.037.037,0,0,1,.044-.024.034.034,0,0,1,.027.039c-.107.991,1.274,2.344,2.1,3.153.182.177.335.331.434.441a4.569,4.569,0,0,1,.663,2.115,3.176,3.176,0,0,0,.687-1.311.042.042,0,0,1,.027-.031A8.213,8.213,0,0,1,9.207,20.953Zm.13.063a9.126,9.126,0,0,0-1.215.171,3.371,3.371,0,0,1-.757,1.388.037.037,0,0,1-.028.013H7.325a.038.038,0,0,1-.024-.032A4.908,4.908,0,0,0,6.646,20.4c-.094-.11-.252-.26-.434-.438-.781-.77-2.055-2.02-2.122-3.013a4.08,4.08,0,0,1-.355.658c-.036.131-.19.691-.356.722a.134.134,0,0,1-.106-.027.821.821,0,0,1-.659.288,1.312,1.312,0,0,1-.383-.059.042.042,0,0,1-.024-.043.035.035,0,0,1,.036-.032c.449,0,.643-.462.687-.588-.1-.027-.158-.075-.171-.138-.019-.1.064-.217.265-.383a1.341,1.341,0,0,0,.529-.722c.043-.185.163-1.448.182-1.665a.819.819,0,0,1-.608-.891.966.966,0,0,0-.1-.169c-.1-.158-.182-.281.04-.469a1.889,1.889,0,0,0-.5-.541.052.052,0,0,1-.016-.04.052.052,0,0,1,.028-.027.876.876,0,0,1,.966.4.271.271,0,0,1,.2.106,2.809,2.809,0,0,1,.174.386c.083.2.186.455.276.624a2.164,2.164,0,0,1,.131-1.464.823.823,0,0,0-.477-.816.039.039,0,0,1,.008-.072,1.011,1.011,0,0,1,1.057.71.51.51,0,0,1,.118.182,1.783,1.783,0,0,1-.048.666c-.016.1-.031.19-.047.289a.885.885,0,0,1,.371-.265h0c.292-.11.288-.73.288-.738a.039.039,0,0,1,.024-.035.036.036,0,0,1,.04.008c.284.225.323.575.114,1.045.072.4-.043.672-.326.782a.68.68,0,0,0-.426.481c.011.013.023.027.035.043a3.733,3.733,0,0,1,.54,1.8.538.538,0,0,1,.379.139.615.615,0,0,1,.127.584,1.262,1.262,0,0,1,.3.059c.118.039.477.161.529.422v.024a.725.725,0,0,1,.371.027.688.688,0,0,1,.316.268.49.49,0,0,1,.115-.107.54.54,0,0,1,.339-.078c.008-.04.016-.07.019-.086a1.026,1.026,0,0,1,.217-.394,1.285,1.285,0,0,1-.371-.651,1.066,1.066,0,0,1,.138-.837.993.993,0,0,1,.233-.244.894.894,0,0,1-.039-.454A1.059,1.059,0,0,1,8.445,15a.913.913,0,0,1,.3-.26.2.2,0,0,1-.019-.056.889.889,0,0,1,.138-.741.906.906,0,0,1,.351-.3.8.8,0,0,1-.032-.161.87.87,0,0,1,.222-.6,1.008,1.008,0,0,1,.252-.233.628.628,0,0,1-.032-.118.79.79,0,0,1,.225-.58,1.074,1.074,0,0,1,.236-.228,1.112,1.112,0,0,1-.169-.359,1.24,1.24,0,0,0-1.07.95v.008l0,0,0,.008,0,0-.008,0,0,0-.011,0a.026.026,0,0,1-.024-.013h0l0-.008,0,0v-.008l0,0a2.071,2.071,0,0,0-.177-.386,5.015,5.015,0,0,1-.41.947c0,.013-.011.016-.024.02H8.157c-.008,0-.016,0-.019,0-.265-.169-.233-.548-.213-.733V12.12a1.84,1.84,0,0,1-.249-.793c-1.354-.032-2.379-.11-2.644-.13q.124.247.238.5a.056.056,0,0,1-.008.043.067.067,0,0,1-.027.008l-.016,0A5.218,5.218,0,0,1,2.989,9.177a.044.044,0,0,1,.019-.052.036.036,0,0,1,.04.013,5.182,5.182,0,0,0,2.6,1.033.046.046,0,0,1,.032.027.036.036,0,0,1-.016.04,2.467,2.467,0,0,1-.548.268,27.709,27.709,0,0,0,2.924.016,11.545,11.545,0,0,0,2-.26.562.562,0,0,0-.051-.067,1.737,1.737,0,0,0-1.137-.458l-.007.367a.034.034,0,0,1-.025.032.031.031,0,0,1-.039-.008L8.61,9.961l-.019.252a.035.035,0,0,1-.063.024l-.147-.166-.04.268a.042.042,0,0,1-.027.032.036.036,0,0,1-.04-.011l-.153-.182-.055.265a.047.047,0,0,1-.024.027H8.03c-.008,0-.019,0-.024-.008l-.256-.233a.6.6,0,0,1-.11.013.042.042,0,0,1-.036-.02l-.015-.027a.74.74,0,0,0-.34-.363v0a3.592,3.592,0,0,0-2.012-.086.035.035,0,0,1-.032-.013A.04.04,0,0,1,5.2,9.693c.016-.043.364-1.038,3.141-1.073.011-.024.027-.063.04-.086.019-.048.027-.067.032-.075a1.053,1.053,0,0,1,.138-.2,1.092,1.092,0,0,1,.537-.288,2.786,2.786,0,0,1,.77-.048.656.656,0,0,0,.094,0c.3.008.6.027.923.047.11.008.225.013.335.016.15.008.308.013.458.028A2.847,2.847,0,0,1,13.1,7.4a1.053,1.053,0,0,0,.765-.364.046.046,0,0,1,.043-.016.04.04,0,0,1,.028.036,4.779,4.779,0,0,1-.083.84l.307.027a.034.034,0,0,1,.032.028.033.033,0,0,1-.019.039c-.008.008-1.108.612-1.148,1.081,0,.008,0,.013,0,.016A.073.073,0,0,1,13,9.113a3.267,3.267,0,0,1,.23.347.685.685,0,0,1,.051.139.365.365,0,0,0,.1.185.27.27,0,0,0,.115.048c.024.008.055.016.094.027a1.5,1.5,0,0,1,.608.4c.138.153.138.2.114.233s-.075.019-.138-.008a.684.684,0,0,0-.15-.051.669.669,0,0,0-.489.078.138.138,0,0,0-.075.091c-.008.048.043.1.13.182a1.373,1.373,0,0,0,.351.244c.028.016.051.027.07.04a.942.942,0,0,1,.375.808c0,.064-.019.094-.043.107-.04.016-.064-.016-.086-.043a.53.53,0,0,0-.115-.123.681.681,0,0,0-.513-.15c-.072.011-.257.043-.319.182-.04.078-.044.221.134.449a.453.453,0,0,0,.221.155.872.872,0,0,1,.206.114,1.091,1.091,0,0,1,.39.825c0,.051-.015.083-.043.094s-.078-.011-.13-.063c-.028-.024-.06-.056-.1-.088s-.485-.371-.757-.213a.453.453,0,0,0-.19.442c.032.173.177.28.363.414a1.23,1.23,0,0,0,.214.126.563.563,0,0,1,.217.161.69.69,0,0,1,.174.4.06.06,0,0,1-.028.048c-.035.023-.07-.008-.106-.04a.5.5,0,0,0-.115-.083.517.517,0,0,0-.612.075c-.059.086-.04.189,0,.386a1.754,1.754,0,0,0,.153.446,5.444,5.444,0,0,1,1.065-.225l.086-.008a4.365,4.365,0,0,0,.971-.185,1.278,1.278,0,0,0,.351-.591,2.151,2.151,0,0,0,.11-.793,3.722,3.722,0,0,1,.153-1.539,2.177,2.177,0,0,1,.64-.8c.043-.039.091-.078.134-.122A22.792,22.792,0,0,1,19.374,9.35l1.905-1.187Q22.292,7.535,23.3,6.9h.008l.008,0h.007l.008,0h0l.008.008h0v0l0,0v.008l0,.013h0l0,.011v0c-.008.013-.691,1.44-.236,2.048.189.244.548.323,1.065.233,1.68-.635,3.732-1.464,4.32-1.705l.028-.011h0a.043.043,0,0,1,.051.016.039.039,0,0,1-.019.051h0c-.072.047-2.143,1.46-2.012,2.474.039.339.327.6.843.785l.013.008h0l.008.008v0l0,.008v0h0v.016l0,.008,0,0,0,.008h0l0,0c-.576.26-2.1.959-2.466,2.154a2.286,2.286,0,0,0,.35,1.9h0l0,.008V15l0,.008v0h0l-.007.008,0,0-.008,0h0l-.011,0h0c-.923-.043-2.028.027-2.466.9a10.472,10.472,0,0,1,2.691.158,5.768,5.768,0,0,0,2.683.213,1.452,1.452,0,0,0,.655-.213.859.859,0,0,0,.356-.635c-.067.032-.139.059-.209.086a2.451,2.451,0,0,1-2.312-.161,1.127,1.127,0,0,1-.351-1.022,1.632,1.632,0,0,1,.813-1.231,2.988,2.988,0,0,1,2.352-.011,2.073,2.073,0,0,1,.406.228c.075-.173.142-.351.209-.521.048-.126.094-.249.142-.367.019-.047.04-.091.059-.138a3.464,3.464,0,0,1-1.819.07.029.029,0,0,1-.024-.031.037.037,0,0,1,.016-.032,26.282,26.282,0,0,0,3.436-3.487.046.046,0,0,1,.048-.02.039.039,0,0,1,.024.04c-.075.687-.083,3.894.379,4.628a.042.042,0,0,1,0,.043.045.045,0,0,1-.032.013H32.3a4.026,4.026,0,0,1-1.266-.928c-.051.209-.11.418-.173.624a6.475,6.475,0,0,1-.332.859,2.3,2.3,0,0,1-.088,2.253,4.893,4.893,0,0,1-2.2,1.693,6.523,6.523,0,0,1-2.009.58c.138.091.308.185.525.3.086.043.177.091.268.138.986.509,2.331,1.207,2.608,1.91a.036.036,0,0,1-.02.048,1.371,1.371,0,0,1-1.092-.367.866.866,0,0,0-.316-.272,5.206,5.206,0,0,1,.292,1.984,6.1,6.1,0,0,1-.351,1.461,2.2,2.2,0,0,0-.153.6c0,.051,0,.1,0,.138a.326.326,0,0,0,.02.174c.047.094.138.134.272.193a.551.551,0,0,1,.051.024,2.542,2.542,0,0,1,.648.339.615.615,0,0,1,.446.142.987.987,0,0,1,.28.608.037.037,0,0,1-.024.035l-.016,0a.059.059,0,0,1-.027-.015.77.77,0,0,0-.867-.214c-.051.072-.067.086-.091.1-.123.048-.249-.067-.394-.206a1.721,1.721,0,0,0-.26-.213,1.153,1.153,0,0,0-1.239.091l0,.008a.362.362,0,0,1-.157.118.547.547,0,0,1-.38-.016.772.772,0,0,1-.232-.131.414.414,0,0,0-.134-.078.643.643,0,0,0-.45.072l-.016.007a.9.9,0,0,0-.193.111c-.072.043-.161.1-.327.2a.8.8,0,0,1-.324.15.141.141,0,0,1-.07-.02.1.1,0,0,1-.04-.043,1.944,1.944,0,0,0-1.022.339.025.025,0,0,1-.019.008l-.016,0a.034.034,0,0,1-.019-.035.943.943,0,0,1,.674-.817c.019-.086.153-.169.217-.2a1.31,1.31,0,0,1,.71-.131H25a1.076,1.076,0,0,0-.762-.114.6.6,0,0,0-.063.015,1.921,1.921,0,0,1-.431.083c-.2.016-.315-.008-.342-.07a.1.1,0,0,1,0-.035h-.059a1.164,1.164,0,0,0-.244.047.785.785,0,0,0-.391.273.048.048,0,0,1-.032.016l-.011,0a.034.034,0,0,1-.024-.035.841.841,0,0,1,.107-.391.9.9,0,0,1,.457-.379,1.211,1.211,0,0,1,.2-.063l.008-.016c.107-.174.465-.155.738-.107a1.716,1.716,0,0,0-.474-.2c-.039,0-.09-.016-.1-.059s.02-.094.072-.145c-.41-.206-.624.031-.631.043a.046.046,0,0,1-.028.011.022.022,0,0,1-.016,0,.034.034,0,0,1-.019-.04.756.756,0,0,1,.315-.462.672.672,0,0,1,.493-.064c.02-.086.126-.1.163-.106.169-.024.343.145.564.363a2.717,2.717,0,0,0,.576.481,1.189,1.189,0,0,0,1.672-.422.426.426,0,0,1-.106-.19.553.553,0,0,1,.142-.465.973.973,0,0,1,.24-.233.961.961,0,0,1-.047-.355,1.188,1.188,0,0,1,.031-.311c-.138-.111-.15-.364-.161-.549a1.821,1.821,0,0,1,.032-.434.722.722,0,0,1-.249-.173.691.691,0,0,1-.153-.253c-.016,0-.027.013-.043.016a.577.577,0,0,1-.193.032.671.671,0,0,1-.281-.063.54.54,0,0,1-.2-.174.375.375,0,0,1-.067.043.663.663,0,0,1-.351.091,1.353,1.353,0,0,1-.766-.26.789.789,0,0,1-.118.063.8.8,0,0,1-.323.067,1.693,1.693,0,0,1-.635-.165,1.8,1.8,0,0,1-.482-.281.494.494,0,0,1-.082,0A1.066,1.066,0,0,1,22.32,20a1.193,1.193,0,0,1-.268-.256,1.108,1.108,0,0,1-.4-.1.913.913,0,0,1-.193-.118.911.911,0,0,0-.169-.11,1.5,1.5,0,0,1-.225.284,1.952,1.952,0,0,1-.214.161.871.871,0,0,0-.268.256.9.9,0,0,0-.141.38,1.042,1.042,0,0,0,.288.808,1.446,1.446,0,0,0,1.009.363,2.052,2.052,0,0,1,.868.222,1.274,1.274,0,0,1,.56.84.2.2,0,0,1-.051.206.215.215,0,0,1-.222,0,7.783,7.783,0,0,0-.942-.383.37.37,0,0,0-.1-.023c-.106,0-.224.221-.3.366a1.343,1.343,0,0,1-.084.142,4.949,4.949,0,0,1-.485.589,4.355,4.355,0,0,1-2.323,1.3l-.118.024a.137.137,0,0,0-.04.008,1.616,1.616,0,0,0,.506.1h.106c.225,0,.324,0,.394.142a.311.311,0,0,1,.013.032.909.909,0,0,1,.9.778.036.036,0,0,1-.02.04l-.016,0a.041.041,0,0,1-.027-.011l-.011-.013a.7.7,0,0,0-.829-.221c-.019.043-.043.067-.075.07a3.439,3.439,0,0,1-1.094-.41,1.347,1.347,0,0,0-.915.04.039.039,0,0,1-.032,0,1.644,1.644,0,0,0-1.076-.078,3.381,3.381,0,0,0-.773.3,1.077,1.077,0,0,1-.447.158h-.011a.273.273,0,0,1-.206-.1.567.567,0,0,0-.671.257c-.019.023-.043.051-.063.078a.044.044,0,0,1-.032.011h-.008a.032.032,0,0,1-.027-.031.751.751,0,0,1,.15-.64.44.44,0,0,1,.264-.126.268.268,0,0,1-.027-.039c-.264-.067-.414-.15-.446-.241a.334.334,0,0,1-.008-.115c-.11-.146-.4-.016-.7.15l-.016.008c-.013,0-.02,0-.024-.011a.036.036,0,0,1-.013-.04.89.89,0,0,1,.455-.6.81.81,0,0,1,.6,0,.657.657,0,0,1,.612,0l.019.011a1.12,1.12,0,0,0,.9.2,1,1,0,0,0-.425-.457c-.072-.02-.15-.04-.225-.056-.2-.043-.391-.086-.45-.2a.476.476,0,0,1-.043-.127c-.241-.355-.6-.157-.773-.063l-.024.008a.03.03,0,0,1-.04,0,.036.036,0,0,1-.011-.039.718.718,0,0,1,.414-.454.735.735,0,0,1,.537.043l.016-.013a.429.429,0,0,1,.339-.106.527.527,0,0,1,.257.157.593.593,0,0,0,.051.044c.043.039.086.075.131.114a5.174,5.174,0,0,0,.521.418,1.722,1.722,0,0,0,.643.276,2.1,2.1,0,0,1,1.27-.311.361.361,0,0,1,.008-.11.266.266,0,0,1,.04-.1.8.8,0,0,1,.473-.2.447.447,0,0,1,.209-.442.621.621,0,0,1,.185-.067.51.51,0,0,1-.307-.106.417.417,0,0,1-.123-.265,1.634,1.634,0,0,1-.193.043,1.361,1.361,0,0,1-.249.02.928.928,0,0,1-.666-.246.885.885,0,0,1-.225-.358,1.073,1.073,0,0,1-.639-.276,1.2,1.2,0,0,1-.343-.857.584.584,0,0,1,.008-.149.81.81,0,0,1-.388.118c-.011,0-.019,0-.031,0a.92.92,0,0,1-.4-.094,1.849,1.849,0,0,1-.477.386,1.625,1.625,0,0,1-.864.264h0a1.443,1.443,0,0,1-.321-.035,1.141,1.141,0,0,1-.157.182,1.261,1.261,0,0,1-.517.284,1.858,1.858,0,0,1-.5,1.223.045.045,0,0,1-.036.016.058.058,0,0,1-.027-.02,4.885,4.885,0,0,1-.509-1.55,8.226,8.226,0,0,1-.792.982,5.274,5.274,0,0,1-.457.434,6.022,6.022,0,0,0-.49.474,3.9,3.9,0,0,0-.675,1.385,7.962,7.962,0,0,0,.857.185.349.349,0,0,1,.275.158.607.607,0,0,1,.469.086.907.907,0,0,1,.324.588.034.034,0,0,1-.019.04l-.016,0a.06.06,0,0,1-.027-.008.567.567,0,0,0-.731-.139.214.214,0,0,1-.043.02.484.484,0,0,1-.658.106,3.6,3.6,0,0,1-.418-.264c-.222-.158-.383-.273-.6-.225a.954.954,0,0,0-.351.185c-.126.091-.244.182-.41.11a1.2,1.2,0,0,0-.928-.011c-.063.032-.138.078-.224.13a1.872,1.872,0,0,1-.9.356.706.706,0,0,1-.431-.142.739.739,0,0,1-.078-.067.621.621,0,0,1-.1.016,1.018,1.018,0,0,0-.674.379l0,0a.035.035,0,0,1-.024.013.036.036,0,0,1-.027-.013.049.049,0,0,1-.008-.039c.011-.059.193-.782.627-.821a.52.52,0,0,1,.091-.268l-.013-.013c-.765-.146-1.017-.086-1.215.072a.028.028,0,0,1-.023.008c-.008,0-.016,0-.019,0a.038.038,0,0,1-.017-.04.86.86,0,0,1,.833-.631.575.575,0,0,1,.307.083.549.549,0,0,1,.075-.138.212.212,0,0,1,.072-.064,1,1,0,0,1-.032-.268.472.472,0,0,1-.166-.118.173.173,0,0,0-.134-.064.62.62,0,0,0-.343.158.033.033,0,0,1-.039.008.036.036,0,0,1-.02-.04A.522.522,0,0,1,5,23.77a.783.783,0,0,1,.651-.048.252.252,0,0,1,.15.1.645.645,0,0,1,.181-.013.991.991,0,0,1,.5.174.834.834,0,0,0,.268.122c.04.013.086.024.142.04a4.59,4.59,0,0,0,.7.147c.11-.02.206-.036.292-.048.241-.027.607-.324,1.041-.84a.951.951,0,0,1,.115-.6,1.289,1.289,0,0,1,.379-.466.542.542,0,0,1-.043-.284c.027-.177.15-.3.339-.473.028-.028.059-.056.091-.083a.508.508,0,0,1-.078-.268.477.477,0,0,1,.051-.244c-.083,0-.241.007-.438.023Z" transform="translate(-2.207 -6.9)"/></g></g></g></svg>