<svg xmlns="http://www.w3.org/2000/svg" width="56.383" height="56.383" viewBox="0 0 56.383 56.383"><g transform="translate(0 0)"><path d="M28.194,0A28.2,28.2,0,0,0,0,28.182V28.2A28.193,28.193,0,0,0,28.182,56.383H28.2A28.191,28.191,0,0,0,28.194,0Zm0,3.591A24.6,24.6,0,0,1,50.618,18.082c-1.992,5.087-4.36,8.1-7.061,9.707-1.1-17.573-14.642-22.872-23.52-22.811A24.594,24.594,0,0,1,28.194,3.591Zm0,49.195A24.58,24.58,0,0,1,5.765,38.307c1.986-5.093,4.36-8.108,7.061-9.713,1.1,17.573,14.642,22.878,23.513,22.817A24.672,24.672,0,0,1,28.194,52.786Zm9.531-1.907c-10.888-2.495-25.379-20-9.707-39.839Q4.947,15.581,5.547,37.823A24.645,24.645,0,0,1,18.657,5.51c10.888,2.495,25.372,20,9.707,39.839Q51.426,40.808,50.83,18.566a24.609,24.609,0,0,1-13.1,32.312Z" transform="translate(0 0)" fill="#cacee6"/></g></svg>