<svg xmlns="http://www.w3.org/2000/svg" width="35.149" height="35.153" viewBox="0 0 35.149 35.153"><g transform="translate(0)"><g transform="translate(0 0)"><path d="M33.73,21.241a17.642,17.642,0,0,1-6.056,7.721,17.546,17.546,0,0,1-12.128,3.184,17.43,17.43,0,0,1-6.494-2.012,17.4,17.4,0,0,1-3.673-2.651c-.131-.123-.26-.249-.391-.379a17.488,17.488,0,0,1-3.874-5.863Z" transform="translate(0.152 2.904)" fill="#fbe019"/><path d="M33.73,11H1.114a17.354,17.354,0,0,1,2.577-4.41.322.322,0,0,1,.023-.032.179.179,0,0,1,.028-.032A.062.062,0,0,1,3.765,6.5.363.363,0,0,0,3.8,6.454a.069.069,0,0,1,.016-.016v0a.356.356,0,0,1,.039-.048.127.127,0,0,1,.02-.024c.008-.011.019-.023.027-.035s0-.008.011-.008a.168.168,0,0,1,.028-.04c.2-.232.4-.462.612-.69,0-.008.011-.011.019-.019v0a.34.34,0,0,0,.043-.039.127.127,0,0,1,.02-.024c.011-.016.027-.028.039-.043A.048.048,0,0,1,4.7,5.44a.8.8,0,0,1,.075-.078A.176.176,0,0,1,4.8,5.33L4.834,5.3a.279.279,0,0,1,.032-.032c.04-.043.078-.082.122-.126.131-.13.26-.256.391-.379.206-.193.414-.379.623-.56a.105.105,0,0,1,.028-.019l.024-.024a.276.276,0,0,0,.023-.016c.2-.173.407-.339.612-.5a.105.105,0,0,1,.028-.019.082.082,0,0,1,.027-.02.157.157,0,0,1,.028-.024c.13-.1.264-.2.4-.3.418-.3.848-.58,1.282-.837a.136.136,0,0,1,.035-.019c.083-.051.169-.1.257-.15.019-.011.035-.019.055-.032.056-.031.11-.063.166-.09A.093.093,0,0,1,9,2.143a.237.237,0,0,1,.055-.032A17.456,17.456,0,0,1,15.546.1,16.709,16.709,0,0,1,17.282,0h.281a17.529,17.529,0,0,1,8.23,2.106,18.357,18.357,0,0,1,1.881,1.18A17.61,17.61,0,0,1,29.856,5.14,17.431,17.431,0,0,1,33.73,11Z" transform="translate(0.152)" fill="#007067"/><path d="M35.149,16.121a17.649,17.649,0,0,1-.867,5.477H.868a17.714,17.714,0,0,1,0-10.957H34.281A17.655,17.655,0,0,1,35.149,16.121Z" transform="translate(0 1.455)"/><path d="M34.177,10.772H.764l.13-.379c.083-.241.174-.477.268-.714H33.778c.1.236.19.473.273.714C34.094,10.52,34.137,10.646,34.177,10.772Z" transform="translate(0.104 1.323)" fill="#fff"/><path d="M34.177,20.28c-.04.126-.083.256-.126.382q-.124.356-.273.71H1.162c-.094-.236-.185-.473-.268-.71-.043-.126-.086-.256-.13-.382Z" transform="translate(0.104 2.773)" fill="#fff"/><path d="M22.35,17,15.158,22.48l-1.432,1.092L5.531,29.814c-.131-.123-.26-.249-.391-.379a17.488,17.488,0,0,1-3.874-5.863c-.094-.236-.185-.473-.268-.71-.043-.126-.086-.256-.13-.382a17.714,17.714,0,0,1,0-10.957L1,11.145c.083-.241.174-.477.268-.714A17.354,17.354,0,0,1,3.843,6.02a.322.322,0,0,1,.023-.032.179.179,0,0,1,.028-.032.062.062,0,0,1,.023-.032.363.363,0,0,0,.036-.043.069.069,0,0,1,.016-.016v0a.356.356,0,0,1,.039-.048.127.127,0,0,1,.02-.024c.008-.011.019-.023.027-.035s0-.008.011-.008a.168.168,0,0,1,.028-.04c.2-.232.4-.462.612-.69,0-.008.011-.011.019-.019v0a.34.34,0,0,0,.043-.039.127.127,0,0,1,.02-.024c.011-.016.027-.028.039-.043a.048.048,0,0,1,.024-.02.8.8,0,0,1,.075-.078.176.176,0,0,1,.027-.032l.032-.032a.279.279,0,0,1,.032-.032c.04-.043.078-.082.122-.126.131-.13.26-.256.391-.379l8.195,6.242,1.432,1.092Z" transform="translate(0 0.573)" fill="#d11133"/><g transform="translate(1.349 11.011)"><path d="M8.087,9.687,9.717,14.7h5.271l-4.265,3.1,1.629,5.011-4.265-3.1-4.265,3.1L5.452,17.8,1.187,14.7H6.458Z" transform="translate(-1.187 -9.687)" fill="#fbe019"/><g transform="translate(3.038 5.587)"><path d="M5.075,14.949l-.627,2.845-.5.675.765-3.188Z" transform="translate(-3.848 -14.555)" fill="#fff"/><path d="M9.939,15.28l.769,3.188-.5-.675-.627-2.845Z" transform="translate(-3.079 -14.555)" fill="#fff"/><path d="M10.467,17.493l.551.742H7.961a1.475,1.475,0,0,0-.627-.446A8.43,8.43,0,0,1,10.467,17.493Z" transform="translate(-3.385 -14.211)" fill="#fff"/><path d="M9.814,14.925l.635,2.888a8.3,8.3,0,0,0-3.165.315V14.914C7.936,14.361,9.624,14.866,9.814,14.925Z" transform="translate(-3.392 -14.594)" fill="#fff"/><path d="M7.359,17.789a1.492,1.492,0,0,1,.632.43.974.974,0,0,1-1.31,0,1.448,1.448,0,0,1,.631-.43l.023-.008Z" transform="translate(-3.474 -14.167)" fill="#fff"/><path d="M4.5,17.493a8.44,8.44,0,0,1,3.133.3A1.5,1.5,0,0,0,7,18.235H3.943Z" transform="translate(-3.849 -14.211)" fill="#fff"/><path d="M7.611,14.914v3.215a6.822,6.822,0,0,0-2.352-.347c-.4,0-.7.024-.813.032l.639-2.888C5.27,14.866,6.959,14.361,7.611,14.914Z" transform="translate(-3.78 -14.594)" fill="#fff"/><path d="M11.411,17.927l-.319-1.333-.313-1.29a.02.02,0,0,0-.008-.016l-.441-.4-.013-.007a6.009,6.009,0,0,0-1.61-.276,1.949,1.949,0,0,0-.217.008,1.566,1.566,0,0,0-.288.043,1.171,1.171,0,0,0-.311.106.832.832,0,0,0-.171.111,1.555,1.555,0,0,0-.986-.268H6.72a6.057,6.057,0,0,0-1.594.276l-.013.007-.442.4a.023.023,0,0,0-.007.016l-.281,1.169-.032.122-.007.043-.147.6L3.86,18.65v.011h0l0,.008v0h0l0,.008h0l.008,0,.008,0H7.008a1.112,1.112,0,0,0,.7.276,1.163,1.163,0,0,0,.722-.276h3.121l.007,0,.008,0h0l0-.008h0v0l0-.008h0V18.65Zm-.687-2.6.311,1.306.288,1.2.166.69-.5-.679-.118-.529-.1-.481L10.357,15Zm-2.971-.406a.854.854,0,0,1,.182-.115A1.546,1.546,0,0,1,8.1,14.74a1.905,1.905,0,0,1,.438-.067,5.641,5.641,0,0,1,1.736.26l.431,1.942.075.343.134.6c-.059,0-.182-.016-.339-.02h-.013a7.6,7.6,0,0,0-2.813.335Zm-2.588.011a6,6,0,0,1,1.483-.264,1.56,1.56,0,0,1,1.042.252v3.215A6.2,6.2,0,0,0,5.738,17.8c-.139,0-.273-.008-.394-.008-.072,0-.139,0-.2,0-.1,0-.194,0-.273.008-.1,0-.177.008-.236.013-.043,0-.083,0-.1.008l.2-.9.013-.047.035-.171.1-.469Zm-.883,2.229.027-.126.1-.4.043-.185.273-1.121L5.087,15,4.8,16.3l-.1.477-.016.056-.031.157-.19.853-.5.679Zm2.726,1.464H3.951l.556-.742c.019,0,.055,0,.106-.008s.139-.011.238-.011.2-.008.324-.013c.173,0,.371,0,.579.008a6.212,6.212,0,0,1,1.887.321A1.5,1.5,0,0,0,7.008,18.626Zm.06.032a1.42,1.42,0,0,1,.631-.434l.023-.008.024.008a1.462,1.462,0,0,1,.632.43A.982.982,0,0,1,7.068,18.658Zm1.369-.032A1.529,1.529,0,0,0,7.8,18.18a7.73,7.73,0,0,1,2.794-.316h.027c.166.008.276.016.316.019l.551.742Z" transform="translate(-3.86 -14.602)"/></g><g transform="translate(1.193 1.456)"><path d="M4.764,17.012l1.913-1.606.064-.126.552-.5.363.4.955-.8-.075-.064-.856.726-.214-.236.991-.9.082.083.758-.741h.477l.588-.541.051-.441.375.272s.308-.272.359-.1a.407.407,0,0,1,0,.276l2.505-1.744L11.427,13.22l-.244-.031L9.845,14.313l-.327-.257-.477.423-.024.126L7.51,15.985l-.321-.339-.027.048.185.28s-.69.206-.272.533a4.439,4.439,0,0,0,1.739.39v.825s-.658.457-2.485-.75a.722.722,0,0,1-.146.123l.181.311-.489.556.217.845L5.7,19.1s-.292-.884-.5-1.022c.43-.394.489-.458.489-.458l.206,0,.189-.222-.11-.157-.166.142.107.082-.032.04-.225.016-.776.714-.064.193L3.289,20.3a.253.253,0,0,1-.134.082h0a.241.241,0,0,1-.236-.075l-.651-.725a.112.112,0,0,1,.008-.161l1.156-1a.411.411,0,0,1,.217-.094l.228-.028.615-.639.19-.008,1.148-1.006.1.035.122-.134.013-.07.7-.612-.812.6-.092-.04L4.619,17.537l-.1,0,.059-.556L4.7,16.94Z" transform="translate(-2.236 -10.968)"/><path d="M12.744,19.641l-5.98-6.8a.536.536,0,0,0-.147-.473l-.386-.383a.535.535,0,0,0-.912.418l-.639-.035a.374.374,0,0,0-.308.146l-1.7,2.352.987,1.18,1.992-2.494.044-.584.161.158a.519.519,0,0,0,.541.131L12.334,20a.272.272,0,0,0,.388.024h0A.27.27,0,0,0,12.744,19.641Z" transform="translate(-2.176 -10.85)"/></g></g></g></g></svg>