<svg xmlns="http://www.w3.org/2000/svg" width="35.168" height="35.169" viewBox="0 0 35.168 35.169"><g transform="translate(0)"><g transform="translate(0 0)"><path d="M32.468,8.707H2.12a17.576,17.576,0,0,1,30.348,0Z" transform="translate(0.29)" fill="#cd1225"/><path d="M32.468,23.279a17.576,17.576,0,0,1-30.348,0Z" transform="translate(0.29 3.183)" fill="#cd1225"/><path d="M35.168,16.537a17.5,17.5,0,0,1-2.41,8.878H2.41a17.556,17.556,0,0,1,0-17.754H32.758A17.488,17.488,0,0,1,35.168,16.537Z" transform="translate(0 1.047)" fill="#032767"/><path d="M23.522,16.333a7.186,7.186,0,1,1-7.189-7.184A7.19,7.19,0,0,1,23.522,16.333Z" transform="translate(1.251 1.251)" fill="#fff"/></g></g></svg>