<svg xmlns="http://www.w3.org/2000/svg" width="50.162" height="8.298" viewBox="0 0 50.162 8.298"><g transform="translate(0 0)"><path d="M41.038,6.466H35.4c-.333,0-.476-.1-.476-.43V.253c0-.237-.09-.25-.267-.25H32.77c-.19,0-.253,0-.253.25V5.837c0,1.859.666,2.462,2.475,2.462h6.073c.223,0,.223-.073.223-.263v-1.3c0-.187,0-.273-.25-.273ZM30.731,0h-6.08c-1.666,0-2.665.53-2.665,2.275V6.027c0,1.746,1,2.272,2.685,2.272h6.06c.24,0,.227-.073.227-.25v-1.3c0-.177,0-.25-.227-.25H24.775c-.267,0-.4-.1-.4-.366V5h6.2c.24,0,.227-.077.227-.25V3.471c0-.187,0-.25-.227-.25h-6.2V2.166c0-.263.137-.363.4-.363h5.956c.24,0,.227-.077.227-.263V.253C30.958.08,30.981,0,30.731,0ZM20.4,0H14.325c-1.666,0-2.688.53-2.688,2.275V6.027c0,1.746,1.029,2.272,2.688,2.272H20.4c.237,0,.237-.073.237-.25v-1.3c0-.177,0-.25-.237-.25H14.455c-.263,0-.4-.1-.4-.366V5h6.183c.24,0,.24-.077.24-.25V3.471c0-.187,0-.25-.24-.25H14.051V2.166c0-.263.14-.363.4-.363H20.4c.237,0,.237-.077.237-.263V.253C20.654.08,20.654,0,20.4,0ZM9.841,0H2.7C1.016,0,0,.533,0,2.279V6.027C0,7.772,1.016,8.3,2.7,8.3H9.841c.24,0,.227-.073.227-.25V3.471c0-.187,0-.25-.227-.25h-5.9c-.237,0-.223.063-.223.25V4.757c0,.173,0,.25.223.25H7.662V6.5H2.8c-.253,0-.4-.1-.4-.366V2.166c0-.263.147-.363.4-.363H9.841c.24,0,.227-.077.227-.263V.253c0-.173.013-.25-.227-.25ZM49.989,0H47.814a.846.846,0,0,0-.706.276l-3,3.281L41.128.28A.876.876,0,0,0,40.409,0H38.237c-.173,0-.253.09-.037.313L42.91,5.5V8.062c0,.237.077.237.267.237h1.882c.177,0,.253,0,.253-.237V5.5L50.036.317C50.239.093,50.176,0,49.989,0Z" transform="translate(0 0)" fill="#cacee6"/></g></svg>