<svg xmlns="http://www.w3.org/2000/svg" width="35.153" height="35.153" viewBox="0 0 35.153 35.153"><g transform="translate(0)"><g transform="translate(0 0)"><path d="M33.826,11.236H1.041a17.576,17.576,0,0,1,32.785,0Z" transform="translate(0.142)" fill="#0398b4"/><path d="M33.826,21.036a17.573,17.573,0,0,1-32.785,0Z" transform="translate(0.142 2.876)" fill="#19b43d"/><path d="M35.153,16.106a17.471,17.471,0,0,1-.845,5.381H.845a17.555,17.555,0,0,1,0-10.759H34.309A17.471,17.471,0,0,1,35.153,16.106Z" transform="translate(0 1.467)" fill="#fff"/><path d="M34.207,10.843H.743c.1-.323.213-.643.339-.958H33.867C33.99,10.2,34.1,10.52,34.207,10.843Z" transform="translate(0.102 1.351)" fill="#cd1225"/><path d="M34.207,20.193c-.1.324-.217.643-.34.958H1.082c-.126-.315-.236-.634-.339-.958Z" transform="translate(0.102 2.761)" fill="#cd1225"/><g transform="translate(8.458 2.833)"><path d="M12.346,9.794a3.549,3.549,0,0,1,0-7.1c.023,0,.051,0,.078,0a3.844,3.844,0,0,0-1.231-.209,3.754,3.754,0,0,0,0,7.508,3.875,3.875,0,0,0,1.231-.209C12.4,9.791,12.369,9.794,12.346,9.794Z" transform="translate(-7.441 -2.492)" fill="#fff"/><path d="M17.8,7.622l.178.552h.58l-.469.339.181.548L17.8,8.723l-.469.339.181-.548-.469-.339h.58Z" transform="translate(-6.128 -1.791)" fill="#fff"/><path d="M15.248,7.622l.177.552h.58l-.469.339.181.548-.469-.339-.466.339.178-.548-.469-.339h.58Z" transform="translate(-6.477 -1.791)" fill="#fff"/><path d="M12.694,7.622l.182.552h.576l-.466.339.178.548-.469-.339-.466.339.178-.548-.469-.339h.58Z" transform="translate(-6.826 -1.791)" fill="#fff"/><path d="M20.357,7.622l.178.552h.58l-.469.339.178.548-.466-.339-.469.339.178-.548L19.6,8.174h.576Z" transform="translate(-5.779 -1.791)" fill="#fff"/><path d="M22.908,7.622l.181.552h.576l-.466.339.178.548-.469-.339-.466.339.178-.548-.466-.339h.576Z" transform="translate(-5.429 -1.791)" fill="#fff"/><path d="M17.8,5.057l.178.552h.58l-.469.339.181.548L17.8,6.158l-.469.339.181-.548-.469-.339h.58Z" transform="translate(-6.128 -2.141)" fill="#fff"/><path d="M15.248,5.057l.177.552h.58l-.469.339.181.548-.469-.339-.466.339.178-.548-.469-.339h.58Z" transform="translate(-6.477 -2.141)" fill="#fff"/><path d="M20.357,5.057l.178.552h.58l-.469.339.178.548-.466-.339-.469.339.178-.548L19.6,5.609h.576Z" transform="translate(-5.779 -2.141)" fill="#fff"/><path d="M22.908,5.057l.181.552h.576l-.466.339.178.548-.469-.339-.466.339.178-.548-.466-.339h.576Z" transform="translate(-5.429 -2.141)" fill="#fff"/><path d="M17.8,2.492l.178.552h.58l-.469.339.181.548L17.8,3.593l-.469.339.181-.548-.469-.339h.58Z" transform="translate(-6.128 -2.492)" fill="#fff"/><path d="M20.357,2.492l.178.552h.58l-.469.339.178.548-.466-.339-.469.339.178-.548L19.6,3.044h.576Z" transform="translate(-5.779 -2.492)" fill="#fff"/><path d="M22.908,2.492l.181.552h.576l-.466.339.178.548-.469-.339-.466.339.178-.548-.466-.339h.576Z" transform="translate(-5.429 -2.492)" fill="#fff"/></g></g></g></svg>