<svg xmlns="http://www.w3.org/2000/svg" width="35.169" height="35.169" viewBox="0 0 35.169 35.169"><g transform="translate(0 0)"><path d="M34.041,20.627a17.6,17.6,0,0,1-33.159,0Z" transform="translate(0.121 2.82)" fill="#00793d"/><path d="M35.169,16.174a17.487,17.487,0,0,1-1.007,5.863H1a17.614,17.614,0,0,1,0-11.725H34.162A17.485,17.485,0,0,1,35.169,16.174Z" transform="translate(0 1.41)" fill="#fff"/><path d="M34.041,11.722H.885a17.584,17.584,0,0,1,33.156,0Z" transform="translate(0.121)"/><g transform="translate(0 6.454)"><path d="M26.245,16.808,14.523,22.671,3.981,27.942a17.544,17.544,0,0,1,0-22.264l10.537,5.268Z" transform="translate(0 -5.678)" fill="#cd1225"/><path d="M8.141,13.324,8.7,14.733l1.448-.442L9.392,15.6l1.25.856-1.5.229.11,1.511-1.113-1.03L7.029,18.2l.11-1.511-1.5-.229L6.891,15.6l-.754-1.314,1.448.442Z" transform="translate(0.771 -4.633)" fill="#fff"/></g></g></svg>