<svg xmlns="http://www.w3.org/2000/svg" width="35.153" height="35.153" viewBox="0 0 35.153 35.153"><g transform="translate(0 0)"><g transform="translate(3.664 3.85)"><path d="M26.337,8.017c5.707,5.709,6.205,14.5,1.107,19.593S13.561,32.209,7.852,26.5,1.646,12,6.743,6.907,20.632,2.307,26.337,8.017Z" transform="translate(-3.223 -3.387)"/></g><path d="M11.2,16.256l-9.911,6.6a17.606,17.606,0,0,1,0-13.209Z" transform="translate(0 1.32)"/><path d="M33.05,20.606a17.6,17.6,0,0,1-16.575,11.73,17.425,17.425,0,0,1-8.427-2.159l14.36-9.571Z" transform="translate(1.1 2.817)" fill="#062493"/><path d="M33.05,11.733H22.409L8.049,2.159A17.413,17.413,0,0,1,16.476,0,17.6,17.6,0,0,1,33.05,11.733Z" transform="translate(1.1)" fill="#dd3831"/><path d="M15.2,16.508l-13.047,8.7a17.943,17.943,0,0,1-1.022-2.095l9.911-6.6L1.131,9.9A17.679,17.679,0,0,1,2.15,7.813Z" transform="translate(0.155 1.068)" fill="#feb51d"/><path d="M33.951,18.579a17.643,17.643,0,0,1-.647,2.3H22.663L8.3,30.454a17.443,17.443,0,0,1-2.114-1.361L21.966,18.579Z" transform="translate(0.846 2.54)" fill="#fff"/><path d="M33.951,13.778H21.966L6.189,3.26A17.307,17.307,0,0,1,8.3,1.9l14.36,9.575H33.3A17.348,17.348,0,0,1,33.951,13.778Z" transform="translate(0.846 0.26)" fill="#fff"/><path d="M34.876,17.153A17.761,17.761,0,0,1,34.52,20.7H22.535L6.758,31.211A17.65,17.65,0,0,1,2.03,25.852l13.047-8.7L2.027,8.458A17.76,17.76,0,0,1,6.758,3.1L22.535,13.614H34.52A17.724,17.724,0,0,1,34.876,17.153Z" transform="translate(0.277 0.423)" fill="#00794d"/></g></svg>