<svg xmlns="http://www.w3.org/2000/svg" width="35.153" height="35.153" viewBox="0 0 35.153 35.153"><g transform="translate(0)"><g transform="translate(0 0)"><path d="M32.513,8.79H2.075a17.57,17.57,0,0,1,30.438,0Z" transform="translate(0.284)" fill="#ec1c24"/><path d="M32.513,23.195a17.573,17.573,0,0,1-30.438,0Z" transform="translate(0.284 3.171)" fill="#ec1c24"/><path d="M35.153,16.519a17.481,17.481,0,0,1-2.356,8.79H2.359a17.55,17.55,0,0,1,0-17.576H32.8A17.454,17.454,0,0,1,35.153,16.519Z" transform="translate(0 1.057)" fill="#fff"/><path d="M25.129,21.81a2.525,2.525,0,0,0-.465-.5,1.64,1.64,0,0,0-.525-.356,4,4,0,0,1-.7-.379c-.23-.138-.455-.284-.675-.434a7.159,7.159,0,0,0-.643-.449c-.165-.091-.462-.281-.31-.5a.492.492,0,0,1,.221-.161,1.069,1.069,0,0,1,.4-.147,1.551,1.551,0,0,1,.583.182c.268.091.537.177.809.257.122.035.307.082.307-.1a.632.632,0,0,0-.394-.557,2.435,2.435,0,0,1-.687-.537c-.334-.335-.618-.9-1.175-.864-.158.013-.316.051-.473.056-.118,0-.276.011-.348-.1a.3.3,0,0,1-.032-.2.388.388,0,0,1,.415-.351,5.153,5.153,0,0,0,1.708-.115c.059-.019.138-.051.161-.115.043-.1-.086-.181-.161-.221a6.118,6.118,0,0,0-1.472-.391,1.184,1.184,0,0,1-.469-.181c-.182-.142-.272-.655.086-.588a1.219,1.219,0,0,1,.23.086,1.981,1.981,0,0,0,.84.169c.209,0,.454-.122.3-.359a.615.615,0,0,0-.177-.169c-.241-.166-.521-.264-.762-.43-.474-.319-.936-.655-1.4-.982a10.8,10.8,0,0,0-1.2-.707.419.419,0,0,1-.158-.114.329.329,0,0,1-.059-.214c.008-.083.028-.3.147-.292a.191.191,0,0,1,.078.024,4.9,4.9,0,0,0,.663.268,2.294,2.294,0,0,0,.517.083c.134.008.343.043.386-.13.086-.348-.379-.514-.616-.627a.851.851,0,0,1-.462-.426.164.164,0,0,1-.008-.118c.024-.059.1-.043.151-.043a1.212,1.212,0,0,0,.519-.032c.225-.1-.027-.276-.125-.375a3.873,3.873,0,0,0-.348-.308,2.869,2.869,0,0,0-1.175-.639,3.894,3.894,0,0,1-1.231-.3,2.463,2.463,0,0,1-.6-.477,2.62,2.62,0,0,1-.238-.311c-.074-.115-.165-.217-.228-.34-.051-.1-.122-.209-.169-.311a.689.689,0,0,0-.118-.236.047.047,0,0,0-.035-.016.039.039,0,0,0-.028.008,1.1,1.1,0,0,0-.189.272,4.382,4.382,0,0,1-.418.6c-.139.142-1.014.915-1.1,1s-.35.321-.283.388.319-.032.406.055a.224.224,0,0,1-.083.359,5.106,5.106,0,0,0-.623.332,5.737,5.737,0,0,0-.643.382.549.549,0,0,0-.146.236.138.138,0,0,0,0,.067.091.091,0,0,0,.056.052,1.866,1.866,0,0,0,.3.023c.047.008.134.016.169.056a.562.562,0,0,1,.063.268.151.151,0,0,1-.063.094.607.607,0,0,1-.268.1c-.1.023-.19.043-.284.075a1.292,1.292,0,0,0-.169.082,1.116,1.116,0,0,0-.2.115.564.564,0,0,0-.158.265.813.813,0,0,1-.19.3,2.078,2.078,0,0,1-.484.313c-.23.122-.463.232-.7.343a1.863,1.863,0,0,0-.556.327c-.142.142-.356.54-.2.607a.605.605,0,0,0,.335-.024,3.5,3.5,0,0,1,.667-.122c.169,0,.433-.08.58.039a.7.7,0,0,1,.142.316.54.54,0,0,1-.056.541,4.1,4.1,0,0,1-1.108.824,2.488,2.488,0,0,0-.8.371c-.131.131-.26.265-.391.394a.883.883,0,0,1-.189.158c-.107.059-.233.083-.292.19-.454.781.055.872.441.679a4.521,4.521,0,0,1,.88-.426.661.661,0,0,1,.45.027c.142.08.311.288.241.458-.107.256-.509.359-.738.477a1.886,1.886,0,0,0-.762.544,3.684,3.684,0,0,1-.643.687,2.812,2.812,0,0,1-.655.481c-.131.064-.489.241-.489.414,0,.214.414.253.552.241a2.9,2.9,0,0,0,.939-.335c.26-.115.521-.221.768-.355.41-.214,1.042-.643,1.5-.375a.3.3,0,0,1,.134.134c.091.193-.252.45-.379.548a3.13,3.13,0,0,1-.9.5,11.139,11.139,0,0,1-1.136.288,1.325,1.325,0,0,0-.292.115c-.19.091-.58.174-.415.442a.646.646,0,0,0,.651.276c.335-.083.671-.158,1.006-.238a4.143,4.143,0,0,0,.876-.236c.327-.153.631-.359.966-.5.394-.166,1.108-.379,1.48-.1a1.051,1.051,0,0,1,.417,1.212,4.567,4.567,0,0,1-1.069,1.546,3.345,3.345,0,0,1-1.258.821,2.644,2.644,0,0,0-.549.166.467.467,0,0,0-.217.56.235.235,0,0,0,.178.11c.039,0,.07-.019.082-.075.048-.189.238-.473.506-.473a2.261,2.261,0,0,0,1.258-.217,4.413,4.413,0,0,0,1.113-.667.785.785,0,0,1,.473-.307.829.829,0,0,1,.351.063.533.533,0,0,0,.142.027c.225,0,.422-.122.659-.122a.737.737,0,0,1,.489.122c.238.214.107.5.627.731.142.059.185.256.315.339.209.134.356-.048.442-.221.059-.123.1-.182.241-.209a1.657,1.657,0,0,1,.722.07,2.111,2.111,0,0,1,.829.426,1.918,1.918,0,0,1,.3.324c.07.1.138.189.276.189h.015a.293.293,0,0,0,.257-.248c.031-.238-.4-.458-.565-.568a5.707,5.707,0,0,1-.762-.56,2.849,2.849,0,0,1-.848-1.894,2.379,2.379,0,0,1,.067-.8,1.392,1.392,0,0,1,.351-.706c.343-.276.75.158,1.046.276a2.671,2.671,0,0,0,.765.161,6.7,6.7,0,0,0,.892-.023c.221-.016.446.011.671-.024A1.03,1.03,0,0,1,22.24,21a4.249,4.249,0,0,1,1.231.489,6.371,6.371,0,0,0,1.2.672.438.438,0,0,0,.4-.028.25.25,0,0,0,.106-.169A.262.262,0,0,0,25.129,21.81ZM12.915,17.194c-.1.122-.209.091-.493.2-.367.139-.4.273-.581.249a.611.611,0,0,1-.394-.324c-.011-.023-.168-.319-.039-.484.059-.08.181-.091.418-.111a3.782,3.782,0,0,1,.567,0c.469.016.541.024.584.088A.357.357,0,0,1,12.915,17.194Zm.181-2.7a.311.311,0,0,1-.158.15c-.221.094-.465-.115-.5-.142a.658.658,0,0,1-.2-.3.376.376,0,0,1,.015-.3.383.383,0,0,1,.321-.13.487.487,0,0,1,.181.043A.579.579,0,0,1,13,14.1C13.084,14.254,13.143,14.377,13.1,14.5Zm3.311-1.121c.047.067-.028.228-.143.308a.308.308,0,0,1-.315.04.252.252,0,0,1-.126-.246.3.3,0,0,1,.308-.2.492.492,0,0,1,.149.036C16.351,13.335,16.39,13.347,16.407,13.375ZM13.924,11.11a.222.222,0,0,1,.228-.019c.107.059.1.216.084.3-.009.019-.052.181-.174.2s-.209-.1-.233-.2A.269.269,0,0,1,13.924,11.11Zm.185,8.292a.312.312,0,0,1-.292.2c-.138-.015-.209-.161-.307-.358a1.282,1.282,0,0,1-.111-.477c-.007-.19.04-.23.056-.241.051-.035.123-.011.185.011a.654.654,0,0,1,.281.182.893.893,0,0,1,.158.383A.512.512,0,0,1,14.109,19.4Zm.024-5.464a.411.411,0,0,1-.241.214.428.428,0,0,1-.4.008.356.356,0,0,1-.134-.257.319.319,0,0,1,.064-.217.4.4,0,0,1,.335-.11.509.509,0,0,1,.213.048.282.282,0,0,1,.169.158A.244.244,0,0,1,14.133,13.938Zm-.166-1.124c-.07-.15.075-.335.107-.379.063-.078.083-.067.45-.288.142-.088.209-.134.26-.1s.059.119.063.2a.7.7,0,0,1-.058.311.634.634,0,0,1-.6.4A.306.306,0,0,1,13.967,12.814Zm.434,3.315c-.15-.056-.146-.268-.146-.3s0-.158.067-.19.161.059.193.091c.063.059.2.228.13.34A.209.209,0,0,1,14.4,16.129Zm.675,3.46c-.072.039-.217-.08-.292-.166a.458.458,0,0,1-.118-.375.114.114,0,0,1,.035-.075.158.158,0,0,1,.138-.011.311.311,0,0,1,.163.1.5.5,0,0,1,.118.332C15.12,19.482,15.123,19.561,15.077,19.589Zm.366-7.848a.964.964,0,0,1,.364-.217.4.4,0,0,1,.083-.035.378.378,0,0,1,.363.059.322.322,0,0,1,.055.332c-.063.165-.252.209-.374.24-.177.044-.506.064-.573-.09C15.309,11.915,15.431,11.757,15.443,11.741Zm.171,4.174A.218.218,0,0,1,15.4,15.7a.19.19,0,0,1,.327-.146.219.219,0,0,1,.063.19A.2.2,0,0,1,15.613,15.915Zm.693,3.42A.317.317,0,0,1,16,19.45a.385.385,0,0,1-.249-.217.454.454,0,0,1,.011-.43c.013-.019.083-.131.178-.126.039,0,.063.019.145.086.131.107.193.158.2.169A.364.364,0,0,1,16.307,19.336Zm.466-2.753a.3.3,0,0,1-.335.122c-.185-.055-.225-.319-.233-.39a.5.5,0,0,1,.024-.185c.011-.048.027-.1.04-.147a.737.737,0,0,1,.051-.153.11.11,0,0,1,.118-.059c.067,0,.1.059.13.11s.06.086.088.131a.94.94,0,0,1,.107.236C16.8,16.4,16.828,16.491,16.773,16.582Zm.016-4.814a.254.254,0,0,1,0-.26.25.25,0,0,1,.252-.122.22.22,0,0,1,.185.153.237.237,0,0,1-.055.19.271.271,0,0,1-.217.138A.228.228,0,0,1,16.789,11.768ZM16.9,13.6a.281.281,0,0,1,.067-.233.286.286,0,0,1,.233-.094.237.237,0,0,1,.192.086c.1.134-.047.34-.059.356-.035.043-.1.138-.2.138C17.009,13.852,16.91,13.718,16.9,13.6Zm.469,3.026c-.011.011-.091.094-.169.067s-.1-.126-.1-.174c-.019-.1-.011-.284.091-.319a.185.185,0,0,1,.171.048.259.259,0,0,1,.058.091A.323.323,0,0,1,17.365,16.626Zm.343-4.726a.268.268,0,0,1-.016-.335.3.3,0,0,1,.161-.064.3.3,0,0,1,.26.028.243.243,0,0,1,.067.177.269.269,0,0,1-.039.193A.306.306,0,0,1,17.708,11.9Zm1.179,2.146a.379.379,0,0,1-.272.185.563.563,0,0,1-.469-.039c-.02-.013-.233-.155-.217-.335.024-.214.351-.3.434-.324a.425.425,0,0,1,.236-.016.441.441,0,0,1,.268.221A.37.37,0,0,1,18.887,14.045Zm.576,1.011a.333.333,0,0,1,.3-.131.338.338,0,0,1,.273.442.324.324,0,0,1-.289.221.349.349,0,0,1-.319-.28A.331.331,0,0,1,19.463,15.056Zm.639,3.278c-.091.1-.193.115-.4.158a.786.786,0,0,1-.434.008c-.075-.024-.236-.072-.276-.209a.322.322,0,0,1,.075-.268c.04-.051.13-.083.3-.147a1.542,1.542,0,0,1,.332-.086c.056,0,.063,0,.126-.008.161-.024.193-.051.244-.04.11.032.15.2.15.222A.441.441,0,0,1,20.1,18.334Zm1.357.513c-.169.146-.311.265-.465.221a.406.406,0,0,1-.238-.252.48.48,0,0,1,0-.347.513.513,0,0,1,.284-.268c.091-.051.351-.185.544-.048a.37.37,0,0,1,.155.316C21.732,18.618,21.625,18.709,21.459,18.847Z" transform="translate(1.071 1.057)" fill="#00a552"/></g></g></svg>