<svg xmlns="http://www.w3.org/2000/svg" width="50.425" height="5.365" viewBox="0 0 50.425 5.365"><g transform="translate(0 0)"><g transform="translate(0 0)"><path d="M0,3.681A1.657,1.657,0,0,0,1.631,5.365H6.712V4.343H3.47a.921.921,0,0,1-.921-.921h0V1.942a.921.921,0,0,1,.921-.921H6.712V0H1.638A1.653,1.653,0,0,0,.163.943,1.971,1.971,0,0,0,0,1.976Z" transform="translate(0)" fill="#cacee6"/><path d="M265.827,1.036V.012H259.2V1.036h1.975v4.34h2.588V1.036Z" transform="translate(-229.869 -0.011)" fill="#cacee6"/><path d="M200.533,3.336,198.118.012h-2.812V5.376h1.481V2.051L199.2,5.376h2.812V.012h-1.481Z" transform="translate(-173.203 -0.011)" fill="#cacee6"/><path d="M134.745,3.376,132.3,0h-2.829V5.368h1.5V2.044l2.415,3.324h2.829V0h-1.464Z" transform="translate(-114.815 -0.004)" fill="#cacee6"/><path d="M67.418,1.035h3.234V.013H65.611A1.684,1.684,0,0,0,63.927,1.7v2a1.684,1.684,0,0,0,1.684,1.684h5.042V4.355l-3.234-.005a.921.921,0,0,1-.921-.92h0l0-.011V3.163h4.155V2.227H66.5V1.971l0-.016h0A.921.921,0,0,1,67.418,1.035Z" transform="translate(-56.692 -0.012)" fill="#cacee6"/><path d="M327.607,1.869a.511.511,0,0,1-.507.514h-.013l-2,0V1.036h2a.515.515,0,0,1,.52.511v.321Zm1.509.02h0V1.538A1.444,1.444,0,0,0,327.672.012H322.5V5.376h2.588V3.3h.46l.969,2.077h2.6l-.994-2.134A1.454,1.454,0,0,0,329.116,1.889Z" transform="translate(-286.002 -0.011)" fill="#cacee6"/><path d="M389.782,3.855a.827.827,0,0,1-.1-.262s-.011-.059-.013-.088-.006-1.042-.006-1.517a.882.882,0,0,1,.143-.5.955.955,0,0,1,.814-.455h.6a.957.957,0,0,1,.957.957h0V3.4a.957.957,0,0,1-.957.957h-.6a.956.956,0,0,1-.841-.5ZM393.7,1.541h0A1.649,1.649,0,0,0,392.055.012h-3.319a1.65,1.65,0,0,0-1.649,1.632s0,2.188,0,2.192a1.647,1.647,0,0,0,1.643,1.54h3.322a1.649,1.649,0,0,0,1.649-1.649Z" transform="translate(-343.281 -0.011)" fill="#cacee6"/></g></g></svg>