<svg xmlns="http://www.w3.org/2000/svg" width="35.169" height="35.172" viewBox="0 0 35.169 35.172"><g transform="translate(0)"><g transform="translate(0 0)"><g transform="translate(3.679 3.85)"><path d="M26.349,8.017c5.709,5.709,6.205,14.5,1.108,19.593S13.573,32.209,7.865,26.5,1.659,12,6.756,6.907,20.644,2.307,26.349,8.017Z" transform="translate(-3.236 -3.387)"/></g><path d="M34.041,20.627a17.6,17.6,0,0,1-33.159,0Z" transform="translate(0.121 2.82)" fill="#cd1225"/><path d="M35.169,16.178a17.48,17.48,0,0,1-1.007,5.859H1a17.6,17.6,0,0,1,0-11.722H34.162A17.487,17.487,0,0,1,35.169,16.178Z" transform="translate(0 1.41)" fill="#fff"/><path d="M34.041,11.725H.885a17.582,17.582,0,0,1,33.156,0Z" transform="translate(0.121)" fill="#00793d"/><path d="M14.693,11.088V22.81l-9.671,6.43a17.548,17.548,0,0,1,0-24.583Z" transform="translate(0 0.637)"/></g></g></svg>