<svg xmlns="http://www.w3.org/2000/svg" width="35.153" height="35.153" viewBox="0 0 35.153 35.153"><g transform="translate(0 0)"><path d="M17.577,35.153A17.577,17.577,0,1,1,35.153,17.576,17.6,17.6,0,0,1,17.577,35.153Z" fill="#254aa3"/><g transform="translate(5.792 6.908)"><g transform="translate(3.902 0.722)"><path d="M10.24,6.716l.4,1.243h1.31l-1.058.769.4,1.247L10.24,9.205l-1.061.769.407-1.247L8.528,7.959H9.834Z" transform="translate(-8.528 -6.712)" fill="#fff"/><path d="M21.1,6.712l.4,1.247h1.31l-1.061.769.406,1.243L21.1,9.2l-1.061.769.406-1.243-1.057-.769H20.69Z" transform="translate(-7.043 -6.712)" fill="#fff"/></g><g transform="translate(0 2.166)"><path d="M24.53,7.983l.4,1.243h1.31l-1.061.769.406,1.243-1.057-.769-1.061.769.406-1.243-1.061-.769h1.31Z" transform="translate(-2.673 -7.983)" fill="#fff"/><path d="M6.807,7.983l.4,1.243H8.52l-1.057.769.4,1.243-1.057-.769-1.057.769.4-1.243L5.1,9.226H6.4Z" transform="translate(-5.095 -7.983)" fill="#fff"/></g><g transform="translate(7.998)"><path d="M13.843,6.077l.406,1.243h1.306L14.5,8.089,14.9,9.336l-1.061-.769-1.057.769.4-1.247L12.131,7.32H13.44Z" transform="translate(-12.131 -6.077)" fill="#fff"/><path d="M17.49,6.077,17.9,7.32H19.2l-1.057.769.4,1.247L17.49,8.567l-1.057.769.4-1.247L15.778,7.32h1.31Z" transform="translate(-11.632 -6.077)" fill="#fff"/></g><path d="M15.274,10.712c.016.016-.138.013-.15.088s-.146.07-.146.134-.185.114-.185.114l-.241-.024s-.024-.07-.059-.035a.214.214,0,0,1-.115.04l-.165-.016s-.163,0-.139.067.1.1.153.153.056.072.056.123-.04.063-.04.091-.007.122.091.122h.214a.333.333,0,0,1,.126.059c.035.04.019.15.019.15s-.123.016-.051.088.134.185.185.185.193.043.217.146a.286.286,0,0,1-.059.249l-.118.118c-.013.011-.193,0-.193.035a.638.638,0,0,0,.063.15s.118.008.118.059-.106.088-.066.126a.391.391,0,0,1,.05.169.2.2,0,0,0-.106.036c-.032.031-.193.008-.193.07a1.031,1.031,0,0,1-.1.26s-.189.04-.189,0,.016-.1-.064-.1-.161,0-.161.067-.146.1-.177.178a1.859,1.859,0,0,1-.131.232s-.225-.07-.252-.07-.035.056-.094.115-.15.142-.15.142-.067,0-.067.063v.123c0,.067.146.059.146.146s-.083.072,0,.158.115.078.151.15.114.078.149.146-.1.139-.1.163-.28-.048-.331,0a.9.9,0,0,0-.139.161c0,.016-.161-.048-.2.048a.419.419,0,0,1-.182.177.679.679,0,0,1-.2-.059c-.024-.024-.111-.083-.174-.051a1.182,1.182,0,0,1-.209.051.555.555,0,0,1-.138.031c-.056,0-.217-.094-.217-.055a1.621,1.621,0,0,1-.139.252.166.166,0,0,1-.11-.019c-.035-.036-.078-.111-.11-.08s-.131.083-.147.1-.023-.016-.09.048-.15.114-.15.193-.142.165-.209.165-.2.008-.134.08-.091.13-.091.177.027.083-.035.083-.126.055-.23.032-.232-.059-.232-.059-.013-.028-.088-.028-.225.067-.288,0-.043-.083-.126-.122-.134-.142-.233-.072a.8.8,0,0,1-.284.158c-.063,0-.15.024-.15.086s-.047.091-.114.115-.15.075-.107.169-.1.155-.086.222a.507.507,0,0,0,.126.2c.047.051-.052.139.09.185s.222,0,.327.036a.568.568,0,0,1,.217.1.743.743,0,0,0,.257.091s.169.134.169.169.013.024-.063.1a1.786,1.786,0,0,0-.19.284s-.032.214.027.273.036.193.036.232-.123.08-.083.118.078.123.118.163-.043.043.055.138a.551.551,0,0,0,.246.147,1.037,1.037,0,0,1,.315.161.352.352,0,0,1,.115.221.469.469,0,0,0,.134.214c.035.035-.032.13.008.169s.153.016.153.051-.165.086-.024.158.123.035.174.091a.189.189,0,0,1,.075.177c-.019.056-.123.115-.123.161a.362.362,0,0,0,.075.193c.04.044.04-.016.092.036s.055.216.055.28-.064.123,0,.185.008.177.051.225,0,.094.118.115a1.08,1.08,0,0,0,.252,0c.075,0,.088.031.15.031a1.31,1.31,0,0,0,.26-.082c.094-.028.123-.123.206,0s.011.153.15.189.264.008.3.072.019.161.063.2.083-.063.217.019.118.028.209.123.442.446.517.521.067.139.158.228.118,0,.086.158-.1.174,0,.276.078.236.123.281.157.3.118.331-.091.043-.064.118-.043.163-.019.249-.019.142.04.2.13.074.213.157.126.075.126.185-.166.186,0,.38.228.307.264.343.024.126.024.126-.094.039-.067.067.075.146.043.177a.957.957,0,0,0-.153.182c0,.019-.083.07-.1.09s-.11.111-.134.131a.3.3,0,0,0,.008.288c.067.107.134.142.166.217s-.056.118.07.118.088-.011.174-.051.118-.11.161-.11a.205.205,0,0,1,.134.07c.035.036.048.091.091.091a.529.529,0,0,0,.233-.039c.122-.052.011-.08.233-.163s.189-.083.221-.165.086-.158.163-.158.05-.174.094-.174.13-.032.047-.075a1.15,1.15,0,0,1-.189-.146,1.326,1.326,0,0,1,.031-.214c.02-.083-.043-.11-.043-.169s-.051-.139-.051-.213V25.1c0-.028-.118-.119-.032-.2a.246.246,0,0,0,.083-.147.667.667,0,0,1,.1-.319c.078-.078,0-.134.141-.185a.479.479,0,0,1,.246-.059.358.358,0,0,0,.244-.131c.059-.059.043-.051.15-.051s.138.032.233,0a.374.374,0,0,0,.185-.189c0-.028.161-.313.335-.289s.114.142.291.024.028-.249.313-.249.268-.008.418-.106.106-.158.209-.206a2.984,2.984,0,0,1,.457-.185c.051,0,.072.078.126.078s.083-.063.209.02.032.134.147.248.213.044.236.194a1.026,1.026,0,0,0,.078.311c.043.106-.083.181,0,.264a.363.363,0,0,0,.217.123,2.3,2.3,0,0,0,.544-.04c.043-.047-.048-.225.064-.11s.15.1.181.067a.72.72,0,0,0-.106-.34.316.316,0,0,1,.043-.283.268.268,0,0,0,.091-.158c0-.032-.111-.257.09-.348s.15-.039.214-.1.043-.13.131-.217.122-.13.122-.13.1-.091.177-.048-.023.15.139.15a.213.213,0,0,0,.2-.257c-.02-.1-.1-.153,0-.2s.067-.07.153-.07.145-.056.2-.008.082.094.153.094.008.158.115.214.256.094.3.051.067.075.134-.028.013-.142.075-.209a.115.115,0,0,0,0-.189.3.3,0,0,1-.055-.185s-.083-.134-.11-.107-.02.1-.088.035-.13-.07-.13-.13-.064-.118-.04-.182a.508.508,0,0,0,.024-.153l.1-.193s.072-.064.107-.032.088.161.139.059.043-.252.15-.213.07.078.15.078.133.035.2-.032-.032-.107.107-.241.2-.106.153-.2-.134-.126-.134-.182-.118-.319-.075-.363.2-.011.288-.1.059-.11.134-.182.151-.153.163-.166.016-.059.047-.091-.063-.224,0-.224-.031-.111.036-.182a.7.7,0,0,1,.209-.115h.149a.876.876,0,0,1,.072-.169.752.752,0,0,0,0-.363.683.683,0,0,1-.083-.139l.15-.086.083-.078.107-.107c.019-.02-.056-.091.031-.091s.171.051.171-.075a.218.218,0,0,0-.075-.2l-.2-.2c-.024-.024-.119-.139-.131-.15a.211.211,0,0,0-.134-.013c-.051.013-.28-.039-.3-.019s-.1.032-.1.1a.166.166,0,0,1-.048.134c-.031.027-.075.091-.13.091s-.15-.024-.169-.072a.9.9,0,0,1-.059-.165c0-.032-.02-.126-.1-.1a.589.589,0,0,1-.209.011s-.142-.027-.166-.078a.717.717,0,0,1-.027-.153l-.139-.139A.09.09,0,0,0,23,16.674c-.075,0-.161.027-.193.027a.552.552,0,0,0-.147,0,.4.4,0,0,1-.221-.11c-.032-.032-.209-.032-.209-.032s-.107-.067-.145-.027-.163.063-.163.011a.1.1,0,0,0-.149-.091.906.906,0,0,1-.249.075c-.059,0-.177-.024-.177-.094s.075-.118.11-.158.08-.035.08-.078-.056-.067-.028-.111a.379.379,0,0,0,.028-.177c0-.043.055-.1.078-.118s.083-.024.083-.024.063-.118,0-.153-.028-.118-.016-.153-.008-.056.039-.107-.015-.064.075-.1.091-.075.059-.146-.2-.131-.24-.131-.126.051-.158.051a.229.229,0,0,1-.147-.035c-.035-.04-.074-.11-.118-.094s-.134,0-.134-.04,0-.139-.043-.139-.351-.114-.394-.07-.078.2-.166.115a1.154,1.154,0,0,1-.153-.206l-.131-.13a.489.489,0,0,1-.075-.139.223.223,0,0,0-.09-.094.773.773,0,0,0,.011-.094c0-.032-.059-.091-.04-.139s.008-.048.016-.142-.035-.11-.035-.177-.011-.131-.011-.2-.088-.134-.107-.153-.1-.059-.126-.036-.075.02-.088.091-.1.126-.13.1-.1-.064-.1-.1a.241.241,0,0,0-.04-.1s.024-.106-.051-.149-.126-.036-.114-.111a.459.459,0,0,0,0-.193c-.016-.059-.083-.122-.083-.166s.032-.063.055-.118.107-.1.04-.161-.094-.11-.126-.146-.146-.067-.174-.044-.13-.051-.15-.1-.075-.118-.114-.059-.032.106-.1.15a1.156,1.156,0,0,1-.206.1c-.019,0-.123-.122-.123-.122A.888.888,0,0,0,18.068,12c-.052-.019-.155-.091-.174-.091s-.276,0-.319.04-.1.094-.1.094-.11-.047-.15-.07-.161-.04-.161-.094-.035-.115-.083-.115-.083-.075-.158-.075a.344.344,0,0,1-.185-.091.945.945,0,0,0-.213,0s-.086-.086-.139-.086-.232,0-.157-.075.075-.123.122-.123.027-.011.048-.083,0-.15.086-.15.059.008.131-.023.166-.15.11-.209-.158-.1-.174-.123-.153-.134-.153-.19-.126-.078-.126-.126-.059-.067-.134-.047-.206-.013-.182.07.091.126.04.15-.155,0-.169.019-.123-.122-.193-.051a.374.374,0,0,1-.174.091s-.1-.063-.11-.051S15.191,10.625,15.274,10.712Z" transform="translate(-4.622 -5.492)" fill="#cfa551"/></g></g></svg>