<svg xmlns="http://www.w3.org/2000/svg" width="35.169" height="35.172" viewBox="0 0 35.169 35.172"><g transform="translate(0 0)"><path d="M17.584,35.172A17.586,17.586,0,1,1,35.169,17.588,17.6,17.6,0,0,1,17.584,35.172Z" fill="#de2910"/><g transform="translate(8.017 7.204)"><g transform="translate(0 4.743)"><path d="M15.07,15.587Z" transform="translate(-5.957 -9.816)" fill="#fff"/><path d="M13.993,17a3.8,3.8,0,0,1-1.432-.284,4.767,4.767,0,0,1-1.705-1.2l.131-.118a3.934,3.934,0,0,0,4.869.947c-2.344.426-2.77-1.6-2.9-2.335a2.8,2.8,0,0,0-3.057-1.981A1.858,1.858,0,0,1,7.478,10.51c-2.2,5.811,4.667,10.087,8.514,5.964A4.332,4.332,0,0,1,13.993,17Zm-3.741-1.511-.122-.624L9.514,14.7l.557-.311-.04-.632.469.431.592-.233-.268.58.4.49-.632-.075Z" transform="translate(-7.053 -10.51)" fill="#fff"/></g><g transform="translate(1.393 10.613)"><path d="M15.466,15.674Z" transform="translate(-7.295 -15.674)" fill="#fff"/><path d="M16.578,15.868a4.283,4.283,0,0,1-.118,2.068,3.867,3.867,0,0,1-.71,1.274,4.751,4.751,0,0,1-1.664,1.25L14.01,20.3a3.938,3.938,0,0,0,2.406-4.34C16.1,18.322,14.038,18.1,13.3,18a2.8,2.8,0,0,0-2.828,2.3,1.858,1.858,0,0,1-2.194,1.827C13.123,26.012,19.313,20.8,16.578,15.868ZM13.238,20.95l-.343.532-.123-.623-.615-.158.556-.311-.04-.635.466.434.591-.233-.264.576.4.493Z" transform="translate(-8.278 -15.648)" fill="#fff"/></g><g transform="translate(9.796 10.055)"><path d="M15.671,15.323Z" transform="translate(-15.671 -15.164)" fill="#fff"/><path d="M15.893,15.288a4.363,4.363,0,0,1,1.929.749,3.8,3.8,0,0,1,.99,1.073,4.773,4.773,0,0,1,.679,1.969l-.177.02a3.93,3.93,0,0,0-3.382-3.63c2.147,1.033,1.3,2.923.975,3.593a2.8,2.8,0,0,0,1.31,3.4,1.859,1.859,0,0,1,1.062,2.652C24.474,21.71,21.429,14.214,15.893,15.288Zm3.57,5.164-.343.537L19,20.365l-.615-.163.556-.311-.04-.631.466.43.592-.232-.265.58.4.489Z" transform="translate(-15.64 -15.183)" fill="#fff"/></g><g transform="translate(9.488 5.17)"><path d="M15.4,15.022Z" transform="translate(-15.4 -10.321)" fill="#fff"/><path d="M15.424,15.326a4.333,4.333,0,0,1,1.31-1.6,3.79,3.79,0,0,1,1.327-.612,4.822,4.822,0,0,1,2.082-.035l-.035.174a3.934,3.934,0,0,0-4.5,2.095c1.646-1.72,3.181-.332,3.72.181a2.8,2.8,0,0,0,3.638-.189,1.862,1.862,0,0,1,2.853-.193C24.182,9.152,16.115,9.732,15.424,15.326Zm5.788-1.38-.343.532-.123-.623-.615-.158.552-.311-.036-.635.466.434.592-.233-.268.576.406.493Z" transform="translate(-15.397 -10.886)" fill="#fff"/></g><path d="M18.214,6.346c-6.205-.3-8.15,7.559-3.042,9.942a4.3,4.3,0,0,1-1.116-1.74,3.792,3.792,0,0,1-.174-1.452,4.783,4.783,0,0,1,.612-1.988l.155.086a3.935,3.935,0,0,0,.6,4.924c-1.132-2.095.666-3.129,1.321-3.484a2.805,2.805,0,0,0,.943-3.519A1.856,1.856,0,0,1,18.214,6.346Zm-2.793,4.426-.343.537-.126-.624-.612-.161.552-.308-.035-.634.465.43.592-.233-.268.58.406.49Z" transform="translate(-6.343 -6.338)" fill="#fff"/></g></g></svg>