<svg xmlns="http://www.w3.org/2000/svg" width="35.153" height="35.153" viewBox="0 0 35.153 35.153"><g transform="translate(0)"><g transform="translate(0 0)"><path d="M35.153,16.167a17.468,17.468,0,0,1-1.006,5.859H1A17.619,17.619,0,0,1,1,10.308H34.147A17.478,17.478,0,0,1,35.153,16.167Z" transform="translate(0 1.409)" fill="#fff"/><path d="M34.027,11.717H.882a17.583,17.583,0,0,1,33.145,0Z" transform="translate(0.121)" fill="#74abde"/><path d="M34.027,20.616a17.584,17.584,0,0,1-33.145,0Z" transform="translate(0.121 2.819)" fill="#74abde"/><g transform="translate(12.632 12.632)"><path d="M16.73,12.764,16.1,14.129l-.1-.036,1.2-2.564a.029.029,0,0,1,.043-.015.033.033,0,0,1,.019.043L16.3,14.22a.675.675,0,0,0-.091-.044Z" transform="translate(-10.445 -11.059)" fill="#f5b31a"/><path d="M15.74,14.048a3.259,3.259,0,0,1,.166-1.092,1.614,1.614,0,0,1,.083-.166,1.709,1.709,0,0,0,.078-.165,1.671,1.671,0,0,0,.11-.415,1.067,1.067,0,0,0,.008-.233,1.6,1.6,0,0,1,0-.181.654.654,0,0,1,.08-.265.477.477,0,0,1,.161-.182h0a.414.414,0,0,1-.055.1.5.5,0,0,0-.083.181,1.246,1.246,0,0,0,.019.327,2.041,2.041,0,0,1,.032.276,2.32,2.32,0,0,1-.185.683,2.094,2.094,0,0,0-.139.588,2.573,2.573,0,0,0-.015.3.867.867,0,0,1-.043.281c-.02,0-.044-.013-.068-.016a1.013,1.013,0,0,0,.016-.142c.008-.067.013-.142.016-.225s0-.169,0-.257a1.3,1.3,0,0,1,.035-.252c.016-.078.04-.153.059-.217s.043-.11.056-.146a.243.243,0,0,0,.019-.056c0,.008-.013.028-.024.051s-.035.088-.063.147-.051.134-.075.213a2.276,2.276,0,0,0-.052.257c-.011.086-.011.177-.019.256s-.016.158-.023.222-.02.1-.025.134A.366.366,0,0,0,15.74,14.048Z" transform="translate(-10.48 -11.081)" fill="#f5b31a"/><path d="M15.317,14.051l.13-2.833a.033.033,0,0,1,.035-.032.031.031,0,0,1,.032.032l.131,2.833c-.036,0-.067,0-.1-.008l-.059-1.5-.059,1.5C15.387,14.047,15.352,14.047,15.317,14.051Z" transform="translate(-10.538 -11.103)" fill="#f5b31a"/><path d="M14.732,12a1.239,1.239,0,0,1-.072-.166.654.654,0,0,1-.027-.276.446.446,0,0,1,.078-.228h0a.57.57,0,0,1-.016.115.7.7,0,0,0-.008.2,1.366,1.366,0,0,0,.147.3,1.763,1.763,0,0,1,.134.244,2.364,2.364,0,0,1,.091.7,2.081,2.081,0,0,0,.094.6c.032.094.063.189.1.288a.974.974,0,0,1,.072.276h0l-.072.011c-.008-.039-.019-.082-.035-.138s-.048-.139-.075-.213-.067-.158-.094-.241a1.493,1.493,0,0,1-.064-.244,1.629,1.629,0,0,1-.027-.225c0-.064,0-.118-.008-.158v0a1.611,1.611,0,0,0,0,.161c0,.064,0,.142.013.225a1.213,1.213,0,0,0,.051.252c.019.088.056.169.078.249s.044.15.059.213.024.1.032.131c-.023,0-.047.011-.07.016a3.152,3.152,0,0,1-.26-1.073,1.244,1.244,0,0,1,.008-.182,1.448,1.448,0,0,0,.011-.185,1.652,1.652,0,0,0-.056-.422A1.287,1.287,0,0,0,14.732,12Z" transform="translate(-10.632 -11.084)" fill="#f5b31a"/><path d="M14.347,12.764l.521,1.412c-.031.013-.063.028-.094.044l-.962-2.663a.03.03,0,0,1,.019-.043s.027-.013.043.015l1.2,2.564-.1.036Z" transform="translate(-10.745 -11.059)" fill="#f5b31a"/><path d="M14.276,13.8c.056.072.115.139.166.2a2.048,2.048,0,0,1,.139.173l.078.111c-.019.016-.04.027-.059.043a3.215,3.215,0,0,1-.651-.892c-.023-.055-.043-.114-.063-.173a1.3,1.3,0,0,0-.059-.174,1.621,1.621,0,0,0-.214-.371,1.2,1.2,0,0,0-.161-.169,1.361,1.361,0,0,1-.126-.131.6.6,0,0,1-.131-.241.429.429,0,0,1-.015-.24c.011.035.019.07.031.11a.523.523,0,0,0,.067.189,1.252,1.252,0,0,0,.249.214,2.354,2.354,0,0,1,.214.177,2.23,2.23,0,0,1,.355.612,1.959,1.959,0,0,0,.316.513c.063.075.13.15.2.228a.934.934,0,0,1,.169.225v0a.4.4,0,0,0-.059.035,1.309,1.309,0,0,0-.091-.115,1.7,1.7,0,0,0-.15-.169c-.059-.059-.122-.118-.177-.185a1.452,1.452,0,0,1-.153-.2c-.043-.072-.08-.139-.107-.193s-.051-.11-.067-.147a.275.275,0,0,1-.024-.055.212.212,0,0,0,.02.055,1.353,1.353,0,0,0,.059.15,1.714,1.714,0,0,0,.094.2A1.764,1.764,0,0,0,14.276,13.8Z" transform="translate(-10.832 -11.001)" fill="#f5b31a"/><path d="M13.4,13.4l1.022,1.1c-.024.024-.048.048-.072.075l-1.91-2.09a.035.035,0,0,1,0-.048.03.03,0,0,1,.048,0l2.095,1.913c-.027.024-.056.048-.08.072Z" transform="translate(-10.933 -10.933)" fill="#f5b31a"/><path d="M13.161,14.029a1.045,1.045,0,0,0-.122-.138,1.655,1.655,0,0,0-.34-.26.932.932,0,0,0-.213-.1c-.056-.023-.115-.043-.166-.07a.575.575,0,0,1-.213-.174A.415.415,0,0,1,12,13.074c.024.028.048.059.07.091a.5.5,0,0,0,.134.15,1.2,1.2,0,0,0,.313.1,1.73,1.73,0,0,1,.264.08,2.336,2.336,0,0,1,.565.43,1.935,1.935,0,0,0,.489.355,2.014,2.014,0,0,0,.276.131,1.011,1.011,0,0,1,.241.146h0c-.016.02-.032.04-.043.056-.032-.016-.075-.043-.126-.067a1.954,1.954,0,0,0-.206-.1c-.075-.035-.158-.067-.232-.1a1.673,1.673,0,0,1-.222-.131,1.756,1.756,0,0,1-.174-.138c-.051-.043-.09-.083-.118-.11a.232.232,0,0,0-.035-.032.317.317,0,0,0,.035.035c.024.028.064.067.111.115a2.019,2.019,0,0,0,.165.15,1.762,1.762,0,0,0,.217.145c.075.043.158.08.228.118s.139.075.194.107.086.056.114.075l-.035.059a3.228,3.228,0,0,1-.947-.572C13.241,14.124,13.2,14.077,13.161,14.029Z" transform="translate(-10.991 -10.845)" fill="#f5b31a"/><path d="M14.1,15.074l-2.569-1.2a.037.037,0,0,1,.028-.067l2.663.966c-.016.032-.028.064-.044.094l-1.408-.521,1.362.627A.832.832,0,0,0,14.1,15.074Z" transform="translate(-11.059 -10.745)" fill="#f5b31a"/><path d="M11.531,14.739a.484.484,0,0,1-.182-.158h0c.032.016.063.035.1.055a.5.5,0,0,0,.181.088,1.34,1.34,0,0,0,.327-.024,1.49,1.49,0,0,1,.276-.027,2.188,2.188,0,0,1,.683.181,2.092,2.092,0,0,0,.588.142c.1.008.2.013.3.013a.934.934,0,0,1,.281.043h0c0,.024-.013.043-.016.067-.035,0-.083-.013-.142-.016a1.859,1.859,0,0,0-.225-.013c-.083,0-.169,0-.257,0a1.588,1.588,0,0,1-.251-.04,1.662,1.662,0,0,1-.214-.059,1.368,1.368,0,0,1-.15-.055.237.237,0,0,0-.051-.016l0,0,0,0a.272.272,0,0,1,.047.019c.036.016.088.04.147.064s.134.051.213.075a2.014,2.014,0,0,0,.257.051c.086.011.177.016.256.019s.158.016.222.027.1.016.134.024l-.013.067a3.148,3.148,0,0,1-1.092-.166c-.056-.023-.11-.051-.166-.078a1.064,1.064,0,0,0-.165-.083,1.857,1.857,0,0,0-.41-.11,1.672,1.672,0,0,0-.236-.008.972.972,0,0,1-.182,0A.566.566,0,0,1,11.531,14.739Z" transform="translate(-11.081 -10.639)" fill="#f5b31a"/><path d="M11.222,15.447l2.828-.13c0,.035,0,.07,0,.106l-1.5.059,1.5.056c0,.035,0,.07,0,.107l-2.828-.131a.032.032,0,0,1-.036-.032A.035.035,0,0,1,11.222,15.447Z" transform="translate(-11.103 -10.538)" fill="#f5b31a"/><path d="M11.33,16.293a1.074,1.074,0,0,1,.11.016.515.515,0,0,0,.2.008,1.173,1.173,0,0,0,.292-.147,1.686,1.686,0,0,1,.244-.13,2.221,2.221,0,0,1,.7-.094,2.121,2.121,0,0,0,.6-.1c.09-.027.184-.063.288-.1a.907.907,0,0,1,.272-.07h0l.011.07c-.035.008-.082.024-.138.04a2.017,2.017,0,0,0-.213.075c-.08.031-.158.067-.241.094a1.8,1.8,0,0,1-.244.063c-.083.013-.158.02-.222.024s-.122.008-.161.008h-.059a.349.349,0,0,0,.059,0c.04,0,.1,0,.161,0a2.194,2.194,0,0,0,.225-.016A1.513,1.513,0,0,0,13.471,16c.088-.024.169-.056.249-.083s.15-.043.213-.059.1-.02.131-.028c0,.024.011.044.016.067a3.154,3.154,0,0,1-1.07.265,1.706,1.706,0,0,1-.185-.011l-.185-.013a1.882,1.882,0,0,0-.422.056,1.3,1.3,0,0,0-.222.086,1.37,1.37,0,0,1-.166.067.589.589,0,0,1-.276.027.446.446,0,0,1-.228-.078Z" transform="translate(-11.084 -10.489)" fill="#f5b31a"/><path d="M11.557,17.266a.033.033,0,0,1-.043-.019.029.029,0,0,1,.015-.043L14.1,16a.63.63,0,0,0,.032.1l-1.362.627,1.408-.521c.016.032.028.063.044.094Z" transform="translate(-11.059 -10.445)" fill="#f5b31a"/><path d="M12.624,17.376a2.261,2.261,0,0,1,.612-.351,2.143,2.143,0,0,0,.513-.319,1.975,1.975,0,0,0,.228-.206.976.976,0,0,1,.225-.166l0,0c.011.019.024.043.035.064-.032.019-.067.051-.115.086s-.106.094-.169.15-.118.122-.182.177a1.478,1.478,0,0,1-.2.153c-.067.044-.134.08-.193.111l-.147.067a.174.174,0,0,1-.051.019.443.443,0,0,0,.056-.016c.035-.016.086-.035.146-.059s.131-.059.206-.1a1.922,1.922,0,0,0,.213-.142c.072-.055.139-.118.2-.169s.122-.1.173-.139.083-.055.115-.074c.013.015.024.035.04.055a3.293,3.293,0,0,1-.892.655,1.616,1.616,0,0,1-.173.059c-.056.02-.115.036-.174.059a2.1,2.1,0,0,0-.371.214,1.063,1.063,0,0,0-.169.166c-.04.043-.083.086-.127.126a.7.7,0,0,1-.243.13.5.5,0,0,1-.246.016h0a.5.5,0,0,1,.11-.032.569.569,0,0,0,.189-.07,1.229,1.229,0,0,0,.218-.244A1.764,1.764,0,0,1,12.624,17.376Z" transform="translate(-11.001 -10.4)" fill="#f5b31a"/><path d="M13.4,17.78l1.1-1.017a.637.637,0,0,0,.08.067l-2.095,1.913a.033.033,0,0,1-.048-.047L14.35,16.6c.024.027.048.051.072.078Z" transform="translate(-10.933 -10.363)" fill="#f5b31a"/><path d="M14.739,16.977a3.165,3.165,0,0,1-.572.942,1.6,1.6,0,0,1-.138.123c-.048.04-.1.078-.139.122a2,2,0,0,0-.26.34,1.38,1.38,0,0,0-.1.217,1.576,1.576,0,0,1-.07.166.659.659,0,0,1-.174.213.457.457,0,0,1-.217.107h0a.787.787,0,0,1,.091-.072.557.557,0,0,0,.15-.138,1.15,1.15,0,0,0,.1-.311,1.877,1.877,0,0,1,.08-.265,2.328,2.328,0,0,1,.43-.56,2.043,2.043,0,0,0,.355-.489,2.584,2.584,0,0,0,.131-.276,1.037,1.037,0,0,1,.146-.244h0a.594.594,0,0,1,.056.043c-.016.032-.04.07-.067.122s-.067.131-.1.206-.063.158-.1.236a1.8,1.8,0,0,1-.131.217c-.047.067-.094.126-.138.177s-.083.088-.107.115a.247.247,0,0,0-.039.043.352.352,0,0,1,.039-.04c.028-.027.072-.063.115-.11a1.66,1.66,0,0,0,.15-.169,1.719,1.719,0,0,0,.145-.214c.044-.078.083-.157.118-.232a1.944,1.944,0,0,1,.111-.193c.027-.048.051-.083.07-.115C14.7,16.949,14.72,16.965,14.739,16.977Z" transform="translate(-10.845 -10.328)" fill="#f5b31a"/><path d="M14.347,18.483l.627-1.365.1.036-1.2,2.564a.034.034,0,0,1-.063-.028l.962-2.662c.032.016.064.031.094.043Z" transform="translate(-10.745 -10.304)" fill="#f5b31a"/><path d="M14.581,19.9a.821.821,0,0,1,.055-.1.534.534,0,0,0,.088-.185,1.154,1.154,0,0,0-.024-.327,1.9,1.9,0,0,1-.027-.276,2.434,2.434,0,0,1,.181-.683,1.913,1.913,0,0,0,.142-.588c.008-.094.016-.193.016-.3a.963.963,0,0,1,.04-.28h0c.024,0,.047.011.067.015,0,.04-.013.088-.016.142s-.013.147-.013.23,0,.169,0,.256a2.476,2.476,0,0,1-.035.249c-.02.078-.043.153-.064.217s-.039.11-.055.15a.351.351,0,0,1-.02.051c0-.008.013-.027.024-.051s.04-.088.064-.147a1.752,1.752,0,0,0,.075-.213,1.4,1.4,0,0,0,.051-.252c.011-.091.016-.177.019-.26s.02-.155.027-.222q.012-.077.024-.13l.067.011A3.063,3.063,0,0,1,15.1,18.3a1.162,1.162,0,0,1-.078.166,1.464,1.464,0,0,0-.078.166,1.66,1.66,0,0,0-.115.414,1.265,1.265,0,0,0,0,.236c0,.059,0,.118,0,.178a.6.6,0,0,1-.082.264.492.492,0,0,1-.158.185Z" transform="translate(-10.639 -10.286)" fill="#f5b31a"/><path d="M15.447,20.048l-.13-2.833a.827.827,0,0,0,.106.008l.059,1.5.059-1.5a.793.793,0,0,0,.1-.008l-.131,2.833a.031.031,0,0,1-.032.032A.033.033,0,0,1,15.447,20.048Z" transform="translate(-10.538 -10.279)" fill="#f5b31a"/><path d="M15.748,17.489a1,1,0,0,1-.067-.276h0c.024,0,.043,0,.067-.008.011.035.024.083.04.134s.043.139.075.217.067.153.094.236a1.813,1.813,0,0,1,.063.249,2.1,2.1,0,0,1,.024.221c0,.064.008.118.008.158a.288.288,0,0,0,0,.059V18.42c0-.04,0-.094,0-.158s0-.146-.011-.224A2.443,2.443,0,0,0,16,17.781c-.024-.086-.056-.169-.08-.244s-.047-.15-.063-.214-.02-.1-.028-.134a.29.29,0,0,0,.067-.016,3.1,3.1,0,0,1,.265,1.073,1.818,1.818,0,0,1-.011.186c0,.059-.013.118-.013.181a2.234,2.234,0,0,0,.056.426,1.371,1.371,0,0,0,.086.217,1.449,1.449,0,0,1,.067.166.6.6,0,0,1,.027.276.455.455,0,0,1-.075.232v0a.6.6,0,0,1,.013-.115.5.5,0,0,0,.008-.2,1.044,1.044,0,0,0-.147-.291c-.05-.091-.1-.178-.13-.246a2.242,2.242,0,0,1-.094-.7,1.974,1.974,0,0,0-.1-.6A2.307,2.307,0,0,0,15.748,17.489Z" transform="translate(-10.488 -10.284)" fill="#f5b31a"/><path d="M17.2,19.719,16,17.154l.1-.036.631,1.365-.521-1.412c.032-.013.064-.027.1-.043l.962,2.662a.034.034,0,0,1-.019.044A.03.03,0,0,1,17.2,19.719Z" transform="translate(-10.445 -10.304)" fill="#f5b31a"/><path d="M16.5,17.232a.976.976,0,0,1-.166-.225h0c.024-.011.043-.024.064-.035.019.027.051.067.086.11s.094.11.15.169.122.118.181.185a1.743,1.743,0,0,1,.15.2,2.215,2.215,0,0,1,.111.2c.027.059.051.107.067.142a.2.2,0,0,0,.019.047l0,.008,0-.008a.315.315,0,0,0-.016-.047c-.016-.035-.035-.088-.059-.15a1.8,1.8,0,0,0-.1-.2,1.612,1.612,0,0,0-.142-.217c-.055-.072-.114-.134-.169-.2s-.1-.122-.139-.173-.055-.083-.074-.11a.414.414,0,0,1,.055-.04,3.091,3.091,0,0,1,.655.888,1.1,1.1,0,0,1,.059.173c.02.06.036.119.059.174a1.979,1.979,0,0,0,.214.371,1.26,1.26,0,0,0,.166.174c.043.04.086.083.126.126a.647.647,0,0,1,.131.244.482.482,0,0,1,.015.238.513.513,0,0,1-.032-.111.57.57,0,0,0-.067-.189,1.387,1.387,0,0,0-.248-.214,2.334,2.334,0,0,1-.217-.173,2.228,2.228,0,0,1-.351-.616,2.124,2.124,0,0,0-.319-.513A2.437,2.437,0,0,0,16.5,17.232Z" transform="translate(-10.4 -10.323)" fill="#f5b31a"/><path d="M17.784,17.78l-1.022-1.1a1.027,1.027,0,0,0,.067-.078l1.913,2.09a.03.03,0,0,1,0,.048.026.026,0,0,1-.043,0L16.6,16.829a1.027,1.027,0,0,0,.078-.067Z" transform="translate(-10.363 -10.363)" fill="#f5b31a"/><path d="M17.1,16.709a.933.933,0,0,1-.244-.146h0c.016-.02.027-.036.043-.056l.122.072.206.1c.08.032.158.064.236.1a1.6,1.6,0,0,1,.217.126c.067.047.126.1.178.142s.086.078.114.106a.519.519,0,0,1,.04.036c-.008-.008-.02-.024-.035-.04s-.064-.067-.111-.115a1.675,1.675,0,0,0-.169-.15,1.719,1.719,0,0,0-.214-.146c-.078-.043-.157-.08-.232-.118a1.967,1.967,0,0,1-.193-.107c-.044-.027-.083-.056-.115-.075a.32.32,0,0,0,.04-.055,3.147,3.147,0,0,1,.942.567c.043.044.083.091.123.139s.078.094.122.138a1.618,1.618,0,0,0,.34.26,1.012,1.012,0,0,0,.217.1,1.3,1.3,0,0,1,.166.067.659.659,0,0,1,.213.174.473.473,0,0,1,.107.217.787.787,0,0,1-.072-.091A.561.561,0,0,0,19,17.809a1.073,1.073,0,0,0-.308-.106,1.559,1.559,0,0,1-.268-.08,2.328,2.328,0,0,1-.56-.43,2.077,2.077,0,0,0-.489-.355C17.284,16.8,17.194,16.752,17.1,16.709Z" transform="translate(-10.328 -10.392)" fill="#f5b31a"/><path d="M19.719,17.2a.03.03,0,0,1,.016.043c0,.008-.011.027-.04.019L17.028,16.3l.047-.094,1.408.521L17.119,16.1c.011-.032.023-.067.035-.1Z" transform="translate(-10.304 -10.445)" fill="#f5b31a"/><path d="M19.72,16.265a.42.42,0,0,1,.185.161l0,0a.39.39,0,0,1-.1-.055.593.593,0,0,0-.185-.088,1.321,1.321,0,0,0-.324.024,2.082,2.082,0,0,1-.276.032,2.31,2.31,0,0,1-.687-.185,1.951,1.951,0,0,0-.583-.139A2.665,2.665,0,0,0,17.44,16a.823.823,0,0,1-.276-.044h0c.007-.023.011-.043.019-.067.035,0,.083.013.138.016s.147.013.23.016.169,0,.256,0a1.311,1.311,0,0,1,.252.035,2.088,2.088,0,0,1,.214.059l.15.056c.027.011.043.015.051.019a.5.5,0,0,0-.051-.024c-.036-.016-.083-.04-.147-.063a2.25,2.25,0,0,0-.213-.075,1.771,1.771,0,0,0-.252-.052c-.091-.011-.177-.011-.26-.019s-.155-.016-.222-.027q-.077-.012-.13-.024c0-.019.008-.043.011-.067a3.138,3.138,0,0,1,1.089.166,1.33,1.33,0,0,1,.166.083c.055.027.11.055.166.078a1.65,1.65,0,0,0,.414.11,1.5,1.5,0,0,0,.236.008,1.558,1.558,0,0,1,.178,0A.633.633,0,0,1,19.72,16.265Z" transform="translate(-10.286 -10.48)" fill="#f5b31a"/><path d="M20.047,15.447a.03.03,0,0,1,.032.035.028.028,0,0,1-.032.032l-2.828.131c0-.036,0-.072,0-.107l1.5-.056-1.5-.059c0-.035,0-.07,0-.106Z" transform="translate(-10.278 -10.538)" fill="#f5b31a"/><path d="M19.927,14.712a.618.618,0,0,1-.115-.016.6.6,0,0,0-.2-.008,1.327,1.327,0,0,0-.291.147,2.33,2.33,0,0,1-.246.134,2.4,2.4,0,0,1-.7.091,2.1,2.1,0,0,0-.6.094c-.094.027-.185.063-.288.1a.986.986,0,0,1-.272.072h0a.384.384,0,0,0-.008-.072,1.074,1.074,0,0,0,.139-.04c.063-.019.134-.043.213-.074s.158-.064.236-.091a1.179,1.179,0,0,1,.249-.064,1.494,1.494,0,0,1,.221-.027c.067,0,.118,0,.158-.008h.06a.6.6,0,0,1-.06,0h-.158c-.067,0-.142,0-.224.013a1.517,1.517,0,0,0-.257.048c-.086.023-.169.055-.244.082s-.15.044-.214.059-.1.024-.134.028c0-.02-.008-.043-.011-.067a3.229,3.229,0,0,1,1.069-.265c.064,0,.123.008.186.013a1.378,1.378,0,0,0,.181.011,1.661,1.661,0,0,0,.426-.056,1.138,1.138,0,0,0,.221-.086c.052-.024.111-.048.167-.067a.639.639,0,0,1,.272-.027.449.449,0,0,1,.232.078Z" transform="translate(-10.284 -10.632)" fill="#f5b31a"/><path d="M19.69,13.807a.034.034,0,0,1,.044.019.035.035,0,0,1-.016.048l-2.564,1.2c-.013-.032-.024-.067-.035-.1l1.364-.627-1.408.521-.047-.094Z" transform="translate(-10.304 -10.745)" fill="#f5b31a"/><path d="M17.007,14.786h0l-.035-.059c.027-.024.067-.056.11-.091a1.7,1.7,0,0,0,.169-.15c.059-.059.118-.122.185-.177a1.523,1.523,0,0,1,.2-.153,2.084,2.084,0,0,1,.2-.107c.059-.032.11-.051.142-.067a.5.5,0,0,0,.051-.024.208.208,0,0,0-.051.02,1.188,1.188,0,0,0-.147.059,1.52,1.52,0,0,0-.2.094,1.766,1.766,0,0,0-.217.145c-.072.052-.134.115-.2.166a2.2,2.2,0,0,1-.173.139c-.043.031-.08.059-.11.078l-.04-.059a3.19,3.19,0,0,1,.888-.651,1.121,1.121,0,0,1,.177-.063,1.361,1.361,0,0,0,.169-.059,1.676,1.676,0,0,0,.375-.214,1.268,1.268,0,0,0,.169-.161,1.211,1.211,0,0,1,.127-.126.586.586,0,0,1,.243-.131.459.459,0,0,1,.241-.019v0a.977.977,0,0,1-.11.027.59.59,0,0,0-.193.07,1.252,1.252,0,0,0-.214.249,1.79,1.79,0,0,1-.173.213,2.31,2.31,0,0,1-.616.356,2.063,2.063,0,0,0-.513.315c-.075.064-.15.131-.225.206A1.054,1.054,0,0,1,17.007,14.786Z" transform="translate(-10.323 -10.832)" fill="#f5b31a"/><path d="M17.784,13.4l-1.1,1.022c-.027-.024-.051-.048-.078-.072l2.09-1.91c.024-.024.043-.008.048,0a.03.03,0,0,1,0,.048l-1.913,2.09c-.019-.023-.043-.051-.067-.075Z" transform="translate(-10.363 -10.933)" fill="#f5b31a"/><path d="M16.516,14.153c-.027.047-.051.086-.07.114l-.059-.035a3.185,3.185,0,0,1,.572-.947,1.121,1.121,0,0,1,.138-.123c.043-.039.091-.078.134-.122a1.775,1.775,0,0,0,.265-.34,1.41,1.41,0,0,0,.094-.213,1.484,1.484,0,0,1,.067-.166.6.6,0,0,1,.177-.213A.414.414,0,0,1,18.05,12l0,0a.561.561,0,0,1-.091.07.543.543,0,0,0-.147.134,1.171,1.171,0,0,0-.106.313,2.135,2.135,0,0,1-.075.264,2.173,2.173,0,0,1-.434.56,2.067,2.067,0,0,0-.351.489c-.047.088-.091.178-.134.276a1.042,1.042,0,0,1-.142.246h0a.537.537,0,0,0-.056-.04c.019-.035.043-.075.072-.126s.063-.131.1-.206.064-.158.1-.232a1.366,1.366,0,0,1,.13-.222,1.275,1.275,0,0,1,.139-.174c.043-.051.078-.09.106-.118a.353.353,0,0,1,.04-.039.3.3,0,0,0-.043.035c-.027.027-.067.067-.115.11s-.1.107-.15.169a1.537,1.537,0,0,0-.146.217c-.043.075-.08.158-.115.228S16.551,14.1,16.516,14.153Z" transform="translate(-10.392 -10.992)" fill="#f5b31a"/><path d="M17.059,17.888l0,.008Z" transform="translate(-10.3 -10.187)" fill="#83330b"/><path d="M16.108,15.126a.463.463,0,0,1,.206.142.363.363,0,0,1-.241.11.14.14,0,0,0,.1-.134A.136.136,0,0,0,16.108,15.126Z" transform="translate(-10.435 -10.564)" fill="#f5b31a"/><path d="M15.837,15.257a.314.314,0,0,1,.185-.138.137.137,0,0,0-.091.126.134.134,0,0,0,.072.118A.334.334,0,0,1,15.837,15.257Z" transform="translate(-10.467 -10.565)" fill="#f5b31a"/><path d="M15.9,16.233h0Z" transform="translate(-10.46 -10.413)" fill="#83330b"/><path d="M16.083,15.077a.46.46,0,0,0-.34.185.507.507,0,0,0,.718.024A.567.567,0,0,0,16.083,15.077Zm-.067.292a.334.334,0,0,1-.166-.107.333.333,0,0,1,.185-.142.14.14,0,0,0-.086.131A.137.137,0,0,0,16.016,15.369Zm.1.011a.135.135,0,0,0,.035-.248.427.427,0,0,1,.206.142A.338.338,0,0,1,16.118,15.381Z" transform="translate(-10.48 -10.571)" fill="#83330b"/><path d="M15.678,15.317c0-.027.047-.035.067-.027a.379.379,0,0,1,.039.027c.013.011.028.019.04.032a.525.525,0,0,0,.623-.02.367.367,0,0,1-.371.147.7.7,0,0,1-.343-.1C15.717,15.364,15.673,15.336,15.678,15.317Z" transform="translate(-10.489 -10.542)" fill="#83330b"/><path d="M15.723,15.247a.076.076,0,0,1-.059,0c-.011,0-.032-.008-.035-.024,0-.035.07-.035.091-.043.039-.016.059-.059.091-.086a.411.411,0,0,1,.417-.08.645.645,0,0,1,.249.142c.024.024.048.043.072.067l.023.027s0,.02-.035,0a.656.656,0,0,1-.067-.051c-.019-.016-.04-.027-.063-.043a.708.708,0,0,0-.292-.1.348.348,0,0,0-.155.019,1.133,1.133,0,0,0-.138.1c-.019.016-.043.027-.059.043S15.739,15.239,15.723,15.247Z" transform="translate(-10.496 -10.583)" fill="#83330b"/><path d="M15.544,15.344a.589.589,0,0,0,.019.2.382.382,0,0,0,.056.131.152.152,0,0,0,.039.048c.008.007.036.027.032.039s-.008.013-.011.016a.065.065,0,0,1-.1-.027.894.894,0,0,1-.07-.529.594.594,0,0,1,.063-.244.315.315,0,0,1,.123-.115.643.643,0,0,1,.351-.094.792.792,0,0,1,.442.165.67.67,0,0,1,.189.178c-.023-.013-.047-.032-.067-.044a.72.72,0,0,0-.07-.039c-.04-.024-.08-.043-.122-.064a.716.716,0,0,0-.787.083.224.224,0,0,0-.07.1A.791.791,0,0,0,15.544,15.344Z" transform="translate(-10.513 -10.613)" fill="#83330b"/><path d="M15.494,16.525a.27.27,0,0,0-.268.238V16.73a.268.268,0,0,1,.537,0c0,.011,0,.024,0,.032A.266.266,0,0,0,15.494,16.525Z" transform="translate(-10.551 -10.382)" fill="#83330b"/><path d="M15.269,16.3a.287.287,0,0,0-.147-.059v-.008a.722.722,0,0,1,.327.019.18.18,0,0,0,.115,0,.741.741,0,0,1,.331-.019v.008a.272.272,0,0,0-.146.059c-.024.019-.043.043-.07.063a.292.292,0,0,1-.171.059.3.3,0,0,1-.173-.059C15.312,16.344,15.291,16.32,15.269,16.3Z" transform="translate(-10.565 -10.414)" fill="#f5b31a"/><path d="M15.167,15.97c-.1-.013-.126-.177,0-.268,0,0-.059.13.032.169s.123-.078.123-.078a.274.274,0,0,0,.2.106.277.277,0,0,0,.2-.106s.032.118.122.078.032-.169.032-.169c.123.091.1.256,0,.268-.131.016-.142-.043-.166-.107l-.008.016-.011.011-.024.024a.322.322,0,0,1-.056.028.216.216,0,0,1-.083.019H15.5a.368.368,0,0,1-.094-.027.164.164,0,0,1-.075-.072C15.31,15.927,15.3,15.986,15.167,15.97Z" transform="translate(-10.571 -10.486)" fill="#83330b"/><path d="M15.122,16.238a.571.571,0,0,1,.34-.027.2.2,0,0,0,.09,0,.577.577,0,0,1,.343.027.741.741,0,0,0-.331.019.18.18,0,0,1-.115,0A.722.722,0,0,0,15.122,16.238Z" transform="translate(-10.565 -10.418)" fill="#83330b"/><path d="M15.133,16.259a.392.392,0,0,0-.094-.008.339.339,0,0,0,.177-.094.207.207,0,0,1,.11-.052c.083,0,.142.04.193.04s.11-.043.19-.04a.18.18,0,0,1,.11.052.347.347,0,0,0,.182.094.387.387,0,0,0-.1.008v-.008a.577.577,0,0,0-.343-.027.2.2,0,0,1-.09,0,.571.571,0,0,0-.34.027Z" transform="translate(-10.576 -10.431)" fill="#f5b31a"/><path d="M15.022,16.233h.019a.392.392,0,0,1,.094.008.287.287,0,0,1,.147.059c.023.019.043.043.067.063a.3.3,0,0,0,.173.059.292.292,0,0,0,.171-.059c.027-.019.047-.043.07-.063a.272.272,0,0,1,.146-.059.387.387,0,0,1,.1-.008h.019a.425.425,0,0,0-.26.146.324.324,0,0,1-.481,0A.428.428,0,0,0,15.022,16.233Z" transform="translate(-10.579 -10.413)" fill="#83330b"/><path d="M15.022,16.261a.164.164,0,0,0,.126-.091.279.279,0,0,1,.221-.142.254.254,0,0,1,.1.032c.028.016.051.032.051.032a.342.342,0,0,1,.155-.064.288.288,0,0,1,.221.142.164.164,0,0,0,.126.091H16a.347.347,0,0,1-.182-.094.18.18,0,0,0-.11-.052c-.08,0-.142.04-.19.04s-.11-.043-.193-.04a.207.207,0,0,0-.11.052.339.339,0,0,1-.177.094h-.019Z" transform="translate(-10.579 -10.441)" fill="#83330b"/><path d="M15.037,16.233h0Z" transform="translate(-10.579 -10.413)" fill="#83330b"/><path d="M15.012,15.245a.132.132,0,0,0-.091-.126.322.322,0,0,1,.189.138.327.327,0,0,1-.165.107A.14.14,0,0,0,15.012,15.245Z" transform="translate(-10.592 -10.565)" fill="#f5b31a"/><path d="M14.942,15.475c-.288.019-.372-.147-.372-.147a.519.519,0,0,0,.62.02l.043-.032a.4.4,0,0,1,.04-.027c.019-.008.064,0,.067.027s-.04.048-.055.059A.7.7,0,0,1,14.942,15.475Z" transform="translate(-10.64 -10.542)" fill="#83330b"/><path d="M14.64,15.268a.464.464,0,0,1,.2-.142.138.138,0,0,0-.067.118.141.141,0,0,0,.1.134A.362.362,0,0,1,14.64,15.268Z" transform="translate(-10.631 -10.564)" fill="#f5b31a"/><path d="M14.925,15.077a.577.577,0,0,0-.379.209.51.51,0,0,0,.722-.024A.459.459,0,0,0,14.925,15.077Zm-.272.2a.428.428,0,0,1,.2-.142.138.138,0,0,0-.067.118.136.136,0,0,0,.1.13A.336.336,0,0,1,14.653,15.275Zm.343.094a.14.14,0,0,0-.02-.249.328.328,0,0,1,.185.142A.327.327,0,0,1,15,15.369Z" transform="translate(-10.644 -10.571)" fill="#83330b"/><path d="M14.386,15.115a.631.631,0,0,1,.19-.178.787.787,0,0,1,.438-.165.65.65,0,0,1,.356.094.337.337,0,0,1,.122.115.59.59,0,0,1,.059.244.868.868,0,0,1-.07.529.06.06,0,0,1-.091.027.031.031,0,0,1-.016-.016c0-.011.027-.032.035-.039a.228.228,0,0,0,.04-.048.406.406,0,0,0,.056-.131.939.939,0,0,0,.019-.2.856.856,0,0,0-.024-.193.208.208,0,0,0-.067-.1.714.714,0,0,0-.785-.083,1.366,1.366,0,0,0-.122.064.735.735,0,0,0-.072.039C14.43,15.084,14.41,15.1,14.386,15.115Z" transform="translate(-10.666 -10.613)" fill="#83330b"/><path d="M15.69,13.8a1.892,1.892,0,1,0,1.89,1.894A1.9,1.9,0,0,0,15.69,13.8Zm.2,2.258s.032.118.122.078.04-.153.032-.169c.118.094.1.256,0,.268-.131.016-.142-.043-.166-.107l-.008.016-.011.011a.2.2,0,0,1-.027.024.379.379,0,0,1-.052.032.3.3,0,0,1-.083.016h-.016a.3.3,0,0,1-.09-.027.164.164,0,0,1-.075-.072c-.024.064-.036.123-.166.107-.1-.013-.126-.174-.008-.268,0,.016-.048.134.035.169s.123-.078.123-.078a.274.274,0,0,0,.2.106A.287.287,0,0,0,15.888,16.054Zm-1.421-.8a.631.631,0,0,1,.19-.178.787.787,0,0,1,.438-.165A.692.692,0,0,1,15.45,15a.3.3,0,0,1,.122.115.59.59,0,0,1,.059.244.84.84,0,0,1-.07.529.064.064,0,0,1-.1.027.072.072,0,0,1-.011-.016c0-.011.027-.032.035-.039a.228.228,0,0,0,.04-.048.5.5,0,0,0,.056-.131.96.96,0,0,0,.019-.2.856.856,0,0,0-.024-.193.208.208,0,0,0-.067-.1.708.708,0,0,0-.785-.083,1.366,1.366,0,0,0-.122.064.735.735,0,0,0-.072.039C14.511,15.217,14.491,15.236,14.467,15.249Zm.091.165s.02-.019.024-.027l.067-.067a.719.719,0,0,1,.249-.142.438.438,0,0,1,.422.08c.027.027.051.07.091.082.02.013.094.013.091.048,0,.016-.024.024-.036.027a.1.1,0,0,1-.059,0c-.015-.008-.023-.024-.039-.032a.666.666,0,0,1-.059-.043.96.96,0,0,0-.142-.1.332.332,0,0,0-.155-.019.683.683,0,0,0-.288.1l-.067.043a.282.282,0,0,1-.067.051C14.558,15.434,14.558,15.414,14.558,15.414Zm.469-.161a.459.459,0,0,1,.343.185.51.51,0,0,1-.722.024A.577.577,0,0,1,15.027,15.252Zm-.351.284a.53.53,0,0,0,.62.016l.043-.032a.4.4,0,0,1,.04-.027c.019-.008.064,0,.067.027s-.04.048-.055.059a.7.7,0,0,1-.343.1A.38.38,0,0,1,14.676,15.536Zm1.279,1.59a.266.266,0,0,0-.265-.238.263.263,0,0,0-.264.238.07.07,0,0,1,0-.032.268.268,0,0,1,.537,0C15.958,17.106,15.955,17.119,15.955,17.127Zm-.024-.418a.317.317,0,0,1-.481,0,.436.436,0,0,0-.26-.142.163.163,0,0,0,.126-.094.283.283,0,0,1,.221-.139.342.342,0,0,1,.1.027l.051.036a.342.342,0,0,1,.155-.064.292.292,0,0,1,.221.139.163.163,0,0,0,.126.094A.433.433,0,0,0,15.931,16.708Zm.4-1.03a.7.7,0,0,1-.343-.1c-.016-.011-.059-.04-.055-.059s.047-.035.067-.027.023.019.039.027.028.019.04.032a.53.53,0,0,0,.62-.016A.363.363,0,0,1,16.333,15.678Zm-.324-.241a.46.46,0,0,1,.34-.185.567.567,0,0,1,.379.209A.507.507,0,0,1,16.009,15.437Zm.778-.024a.656.656,0,0,1-.067-.051c-.019-.016-.04-.027-.063-.043a.686.686,0,0,0-.292-.1.313.313,0,0,0-.15.019.9.9,0,0,0-.142.1c-.019.016-.043.027-.059.043s-.024.024-.04.032a.1.1,0,0,1-.059,0c-.011,0-.032-.011-.035-.027,0-.035.07-.035.091-.048.039-.011.059-.055.086-.082a.447.447,0,0,1,.426-.08.661.661,0,0,1,.244.142c.024.024.048.043.072.067,0,.008.023.024.023.027S16.822,15.434,16.787,15.414Zm.059-.209a.72.72,0,0,0-.07-.039c-.04-.024-.08-.043-.122-.064a.709.709,0,0,0-.787.083.224.224,0,0,0-.07.1.775.775,0,0,0-.019.193.829.829,0,0,0,.016.2.389.389,0,0,0,.059.131.223.223,0,0,0,.039.048c.008.007.036.027.032.039s-.008.013-.011.016a.065.065,0,0,1-.1-.027.9.9,0,0,1-.07-.529.653.653,0,0,1,.063-.244A.315.315,0,0,1,15.931,15a.673.673,0,0,1,.351-.094.792.792,0,0,1,.442.165.67.67,0,0,1,.189.178C16.89,15.236,16.866,15.217,16.846,15.2Z" transform="translate(-10.746 -10.746)" fill="#f5b31a"/><path d="M14.565,15.2a.373.373,0,0,1-.067.051c-.032.02-.032,0-.032,0l.024-.027c.02-.024.043-.043.067-.067a.719.719,0,0,1,.249-.142.417.417,0,0,1,.422.08c.027.027.051.07.086.086s.1.008.1.043c0,.016-.024.019-.036.024a.076.076,0,0,1-.059,0c-.015-.008-.023-.024-.039-.032s-.04-.027-.059-.043a.96.96,0,0,0-.142-.1.34.34,0,0,0-.155-.019.683.683,0,0,0-.288.1Z" transform="translate(-10.655 -10.583)" fill="#83330b"/><path d="M12.609,14.872l0,0Z" transform="translate(-10.908 -10.599)" fill="#83330b"/><path d="M20.887,15.935l-2.55-.115.013,0c.1-.04.189-.072.28-.1a1.949,1.949,0,0,1,.573-.094,2.435,2.435,0,0,0,.733-.1c.075-.032.166-.086.257-.138a1.253,1.253,0,0,1,.264-.139.5.5,0,0,1,.169.008.746.746,0,0,0,.131.016.077.077,0,0,0,.086-.059.078.078,0,0,0-.016-.07.442.442,0,0,0-.288-.115.686.686,0,0,0-.311.032,1,1,0,0,0-.174.07,1.183,1.183,0,0,1-.2.08,1.787,1.787,0,0,1-.407.055c-.055,0-.118-.008-.173-.011a1.594,1.594,0,0,0-.194-.013,2.949,2.949,0,0,0-.9.193l2.394-1.12a.122.122,0,0,0,.056-.155.114.114,0,0,0-.146-.067l-2.4.868.013-.008a2.971,2.971,0,0,1,.221-.2,1.927,1.927,0,0,1,.493-.3,2.456,2.456,0,0,0,.634-.371,1.98,1.98,0,0,0,.185-.228,1.274,1.274,0,0,1,.193-.225.533.533,0,0,1,.163-.059.821.821,0,0,0,.126-.032.1.1,0,0,0,.059-.091.082.082,0,0,0-.043-.059.439.439,0,0,0-.311,0,.664.664,0,0,0-.276.149c-.048.04-.091.088-.134.131a1.534,1.534,0,0,1-.158.153,1.716,1.716,0,0,1-.356.2c-.051.024-.11.04-.161.059a1.285,1.285,0,0,0-.19.064,2.905,2.905,0,0,0-.76.529l1.787-1.956a.113.113,0,0,0-.008-.163.112.112,0,0,0-.161,0L17.5,14.274l0-.013c.043-.094.082-.182.13-.264a1.727,1.727,0,0,1,.335-.469,2.614,2.614,0,0,0,.45-.589,1.838,1.838,0,0,0,.083-.28,1.151,1.151,0,0,1,.094-.284.4.4,0,0,1,.126-.115.746.746,0,0,0,.1-.078.088.088,0,0,0,.024-.107.091.091,0,0,0-.064-.039.473.473,0,0,0-.288.122.765.765,0,0,0-.2.244,1.358,1.358,0,0,0-.07.174,1.752,1.752,0,0,1-.088.2,1.785,1.785,0,0,1-.252.324,1.1,1.1,0,0,1-.13.114c-.051.044-.1.088-.147.131a3.035,3.035,0,0,0-.5.781l.9-2.489a.119.119,0,0,0-.067-.15.122.122,0,0,0-.155.059l-1.081,2.312v-.016c0-.107.008-.2.016-.3a1.918,1.918,0,0,1,.135-.564,2.5,2.5,0,0,0,.189-.715,1.386,1.386,0,0,0-.031-.288,1.266,1.266,0,0,1-.025-.3.5.5,0,0,1,.08-.153,1.131,1.131,0,0,0,.059-.11.084.084,0,0,0-.02-.107.074.074,0,0,0-.07-.011.455.455,0,0,0-.217.224.708.708,0,0,0-.091.3,1.74,1.74,0,0,0,0,.189,2.028,2.028,0,0,1,0,.222,1.72,1.72,0,0,1-.11.394,1.43,1.43,0,0,1-.075.158,1.157,1.157,0,0,0-.083.177,2.937,2.937,0,0,0-.169.907l-.119-2.643a.12.12,0,0,0-.24,0l-.115,2.552,0-.016a2.755,2.755,0,0,1-.1-.28,1.9,1.9,0,0,1-.091-.572,2.381,2.381,0,0,0-.1-.73,2.734,2.734,0,0,0-.138-.261,1.152,1.152,0,0,1-.139-.264.418.418,0,0,1,.013-.169c0-.04.011-.083.011-.126a.081.081,0,0,0-.055-.091.087.087,0,0,0-.075.016.473.473,0,0,0-.115.288.707.707,0,0,0,.032.316,1.279,1.279,0,0,0,.07.173,1.416,1.416,0,0,1,.083.206,1.912,1.912,0,0,1,.051.4c0,.059-.008.118-.011.177a1.535,1.535,0,0,0-.011.193,2.93,2.93,0,0,0,.192.9l-1.12-2.392a.12.12,0,0,0-.155-.059.114.114,0,0,0-.063.15l.868,2.4-.013-.008c-.075-.075-.139-.15-.2-.225a1.946,1.946,0,0,1-.3-.489,2.445,2.445,0,0,0-.372-.639,2.339,2.339,0,0,0-.225-.185,1.2,1.2,0,0,1-.228-.193.43.43,0,0,1-.056-.163,1.225,1.225,0,0,0-.035-.122.1.1,0,0,0-.086-.064A.08.08,0,0,0,13.39,12a.428.428,0,0,0,0,.308.67.67,0,0,0,.149.276,1.625,1.625,0,0,0,.131.134,1.168,1.168,0,0,1,.153.157,1.821,1.821,0,0,1,.206.356c.019.055.035.11.055.166s.04.126.064.185a2.964,2.964,0,0,0,.525.757l-1.953-1.779a.112.112,0,0,0-.161,0,.116.116,0,0,0,0,.163l1.72,1.886-.011,0c-.1-.043-.186-.086-.268-.13a2.014,2.014,0,0,1-.469-.34,2.517,2.517,0,0,0-.589-.45c-.07-.027-.177-.055-.28-.083a1.235,1.235,0,0,1-.284-.09.457.457,0,0,1-.115-.126.564.564,0,0,0-.078-.1.087.087,0,0,0-.1-.023.073.073,0,0,0-.04.063.426.426,0,0,0,.123.288.688.688,0,0,0,.241.2c.055.027.118.051.173.075a1.042,1.042,0,0,1,.2.086,1.9,1.9,0,0,1,.327.249c.04.04.075.086.115.134a1.393,1.393,0,0,0,.131.142,2.925,2.925,0,0,0,.776.5l-2.489-.9a.122.122,0,0,0-.15.067.12.12,0,0,0,.059.155L13.859,15.4h-.011a2.506,2.506,0,0,1-.3-.016,1.931,1.931,0,0,1-.56-.134,2.513,2.513,0,0,0-.718-.19,2.109,2.109,0,0,0-.288.032,1.315,1.315,0,0,1-.3.024.516.516,0,0,1-.153-.075.591.591,0,0,0-.11-.064.093.093,0,0,0-.107.02.081.081,0,0,0-.011.075.469.469,0,0,0,.224.217.691.691,0,0,0,.3.09c.064,0,.126,0,.19,0a.98.98,0,0,1,.217,0,1.606,1.606,0,0,1,.394.107c.056.023.106.051.158.074a1.17,1.17,0,0,0,.177.088,2.863,2.863,0,0,0,.9.166l-2.636.118a.123.123,0,0,0-.115.122.12.12,0,0,0,.115.118l2.549.115-.011,0c-.1.039-.19.07-.284.1a1.916,1.916,0,0,1-.572.1,2.383,2.383,0,0,0-.73.1,2.183,2.183,0,0,0-.257.134,1.164,1.164,0,0,1-.268.139.509.509,0,0,1-.169-.008.649.649,0,0,0-.126-.016.088.088,0,0,0-.091.059.072.072,0,0,0,.019.072.421.421,0,0,0,.289.114.454.454,0,0,0,.082.008.937.937,0,0,0,.23-.035,1.3,1.3,0,0,0,.173-.075,1.385,1.385,0,0,1,.206-.078,1.528,1.528,0,0,1,.4-.052c.059,0,.118,0,.177.008a1.111,1.111,0,0,0,.193.013,2.923,2.923,0,0,0,.9-.193l-2.4,1.12a.121.121,0,0,0,.048.23.154.154,0,0,0,.043-.008l2.4-.868-.008.008a2.527,2.527,0,0,1-.221.2,2.238,2.238,0,0,1-.493.3,2.347,2.347,0,0,0-.639.372,2.206,2.206,0,0,0-.185.225,1.008,1.008,0,0,1-.193.224.415.415,0,0,1-.163.059.85.85,0,0,0-.122.036.091.091,0,0,0-.064.086A.075.075,0,0,0,12,18.72a.264.264,0,0,0,.122.027.721.721,0,0,0,.186-.031.658.658,0,0,0,.28-.147c.048-.043.091-.091.131-.134a1.456,1.456,0,0,1,.161-.153,1.775,1.775,0,0,1,.351-.2c.055-.024.114-.04.166-.059a.992.992,0,0,0,.185-.064,2.868,2.868,0,0,0,.762-.524l-1.784,1.953a.115.115,0,0,0,0,.161.108.108,0,0,0,.082.04.114.114,0,0,0,.08-.036l1.886-1.715,0,.011c-.043.094-.086.182-.13.268a2.014,2.014,0,0,1-.34.469,2.307,2.307,0,0,0-.446.588,2.225,2.225,0,0,0-.088.276,1.307,1.307,0,0,1-.09.289.527.527,0,0,1-.126.11c-.035.027-.072.051-.1.078a.094.094,0,0,0-.023.107.107.107,0,0,0,.067.04h.015a.506.506,0,0,0,.268-.123.72.72,0,0,0,.2-.244c.024-.056.048-.115.072-.174a1.6,1.6,0,0,1,.086-.2,1.873,1.873,0,0,1,.249-.324,1.145,1.145,0,0,1,.134-.114c.048-.043.1-.083.146-.131a2.9,2.9,0,0,0,.5-.776l-.9,2.485a.12.12,0,0,0,.067.15.1.1,0,0,0,.048.008.114.114,0,0,0,.107-.067L15.4,18.25v.016a2.442,2.442,0,0,1-.016.3,1.937,1.937,0,0,1-.131.565,2.241,2.241,0,0,0-.189.714,1.532,1.532,0,0,0,.027.288,1.253,1.253,0,0,1,.024.3.479.479,0,0,1-.075.153c-.02.036-.043.075-.059.11A.088.088,0,0,0,15,20.8a.063.063,0,0,0,.047.016.081.081,0,0,0,.028,0,.453.453,0,0,0,.217-.222.72.72,0,0,0,.09-.3,1.307,1.307,0,0,0,0-.189,1.422,1.422,0,0,1,0-.222,1.964,1.964,0,0,1,.107-.394c.023-.055.051-.106.078-.157s.059-.115.083-.174a2.89,2.89,0,0,0,.166-.907l.118,2.639a.12.12,0,0,0,.122.11.118.118,0,0,0,.08-.028.132.132,0,0,0,.039-.082l.115-2.55,0,.013a1.754,1.754,0,0,1,.1.28,1.831,1.831,0,0,1,.1.573,2.4,2.4,0,0,0,.1.733,1.769,1.769,0,0,0,.138.257,1.189,1.189,0,0,1,.134.264.509.509,0,0,1-.008.169c0,.044-.011.083-.016.127a.085.085,0,0,0,.059.09.027.027,0,0,0,.019,0,.092.092,0,0,0,.052-.02.448.448,0,0,0,.118-.288.768.768,0,0,0-.032-.311,1.688,1.688,0,0,0-.075-.177,1.336,1.336,0,0,1-.078-.2,2.079,2.079,0,0,1-.052-.407c0-.059.008-.118.013-.173a1.617,1.617,0,0,0,.008-.2,2.888,2.888,0,0,0-.193-.9l1.12,2.391a.117.117,0,0,0,.107.067.1.1,0,0,0,.048-.008.119.119,0,0,0,.067-.15l-.868-2.4.008.011a2.124,2.124,0,0,1,.2.222,1.945,1.945,0,0,1,.3.493,2.364,2.364,0,0,0,.372.634,1.922,1.922,0,0,0,.225.185,1.371,1.371,0,0,1,.228.193.527.527,0,0,1,.055.163c.013.04.02.083.036.122a.087.087,0,0,0,.078.064h.008a.092.092,0,0,0,.064-.043.481.481,0,0,0,0-.311.708.708,0,0,0-.15-.276,1.358,1.358,0,0,0-.134-.134,1.615,1.615,0,0,1-.15-.158,1.784,1.784,0,0,1-.2-.356,1.34,1.34,0,0,1-.056-.165,1.6,1.6,0,0,0-.067-.186,2.862,2.862,0,0,0-.521-.757l1.949,1.779a.118.118,0,0,0,.078.036.11.11,0,0,0,.083-.04.112.112,0,0,0,.008-.161L17.837,17.5l.011,0a2.936,2.936,0,0,1,.268.126,1.979,1.979,0,0,1,.469.339,2.467,2.467,0,0,0,.588.45,2.486,2.486,0,0,0,.276.083,1.308,1.308,0,0,1,.289.09.609.609,0,0,1,.11.127c.027.035.051.07.078.1a.108.108,0,0,0,.072.032.142.142,0,0,0,.035-.008.082.082,0,0,0,.04-.064.456.456,0,0,0-.123-.288.752.752,0,0,0-.244-.2,1.358,1.358,0,0,0-.174-.07,1.368,1.368,0,0,1-.525-.34c-.039-.039-.078-.086-.114-.13a1.482,1.482,0,0,0-.131-.147,2.911,2.911,0,0,0-.776-.5l2.489.9a.122.122,0,0,0,.039.008.113.113,0,0,0,.107-.075.122.122,0,0,0-.059-.155l-2.308-1.081h.011a2.519,2.519,0,0,1,.3.016,1.977,1.977,0,0,1,.56.134,2.506,2.506,0,0,0,.714.19,2.248,2.248,0,0,0,.292-.032,1.28,1.28,0,0,1,.3-.024.606.606,0,0,1,.158.075.5.5,0,0,0,.11.064.07.07,0,0,0,.04.008.075.075,0,0,0,.075-.1c-.02-.075-.1-.146-.222-.217a.78.78,0,0,0-.3-.094c-.063,0-.126,0-.189,0a1.022,1.022,0,0,1-.222,0,1.7,1.7,0,0,1-.394-.106,1.639,1.639,0,0,1-.157-.075.973.973,0,0,0-.174-.083,2.832,2.832,0,0,0-.907-.169l2.639-.119a.116.116,0,0,0,.11-.118A.12.12,0,0,0,20.887,15.935Zm-1.812-.608a1.467,1.467,0,0,1,.186.013c.059,0,.122.011.181.011a1.849,1.849,0,0,0,.426-.056,1.138,1.138,0,0,0,.221-.086c.052-.024.111-.048.163-.067a.6.6,0,0,1,.276-.027.475.475,0,0,1,.232.078h0a.618.618,0,0,1-.115-.016.6.6,0,0,0-.2-.008,1.257,1.257,0,0,0-.291.147,1.64,1.64,0,0,1-.246.13,2.237,2.237,0,0,1-.7.1,2.1,2.1,0,0,0-.6.094c-.094.027-.185.063-.288.1a.974.974,0,0,1-.276.072c0-.024,0-.048-.008-.072a.867.867,0,0,0,.134-.04c.067-.019.139-.043.217-.074s.153-.067.236-.091a1.43,1.43,0,0,1,.249-.064,1.494,1.494,0,0,1,.221-.027c.067,0,.118-.008.158-.008h.064a.376.376,0,0,0-.064,0h-.158a1.436,1.436,0,0,0-.224.013,1.517,1.517,0,0,0-.257.048c-.086.023-.169.055-.244.082s-.15.044-.214.059-.1.024-.13.028a.3.3,0,0,1-.016-.067A3.25,3.25,0,0,1,19.075,15.327ZM20.5,14.175a.034.034,0,0,1,.044.019.035.035,0,0,1-.016.048l-2.564,1.2c-.013-.032-.024-.067-.035-.1l1.364-.627-1.408.521-.047-.094Zm-1.932.055a1.248,1.248,0,0,1,.173-.063,1.491,1.491,0,0,0,.178-.059,1.751,1.751,0,0,0,.371-.214,1.268,1.268,0,0,0,.169-.161.888.888,0,0,1,.127-.126.637.637,0,0,1,.243-.134.486.486,0,0,1,.241-.016.5.5,0,0,1-.11.032.546.546,0,0,0-.19.07,1.132,1.132,0,0,0-.217.244,1.553,1.553,0,0,1-.173.217,2.31,2.31,0,0,1-.616.356,2.063,2.063,0,0,0-.513.315,2.639,2.639,0,0,0-.225.206,1.054,1.054,0,0,1-.228.169l-.035-.059c.031-.024.067-.051.11-.091s.11-.091.169-.15.118-.122.185-.177a1.523,1.523,0,0,1,.2-.153,2.084,2.084,0,0,1,.2-.107c.059-.032.107-.055.142-.07a.239.239,0,0,0,.043-.016l-.043.016a1.447,1.447,0,0,0-.15.059,2.142,2.142,0,0,0-.2.094,2.261,2.261,0,0,0-.217.146c-.067.052-.134.115-.193.166s-.123.1-.177.139-.08.059-.11.078l-.04-.059A3.19,3.19,0,0,1,18.566,14.23Zm.875-1.61a.035.035,0,0,1,.048,0,.03.03,0,0,1,0,.048l-1.913,2.09c-.024-.027-.043-.051-.067-.075l1.017-1.1L17.43,14.6c-.024-.024-.051-.048-.078-.072Zm-1.768.785c.044-.043.091-.083.139-.123s.094-.078.138-.122a1.676,1.676,0,0,0,.265-.34,1.41,1.41,0,0,0,.094-.213,1.484,1.484,0,0,1,.067-.166.6.6,0,0,1,.177-.213.472.472,0,0,1,.217-.111l0,0a.837.837,0,0,1-.088.067.574.574,0,0,0-.15.138,1.36,1.36,0,0,0-.106.313,1.926,1.926,0,0,1-.075.264,2.281,2.281,0,0,1-.434.56,2.326,2.326,0,0,0-.355.489c-.043.088-.088.178-.131.281a1.105,1.105,0,0,1-.142.241h0a.538.538,0,0,0-.056-.04c.019-.035.043-.075.072-.126s.063-.131.1-.206.064-.158.1-.232a1.669,1.669,0,0,1,.13-.222,1.274,1.274,0,0,1,.139-.174,1.418,1.418,0,0,1,.106-.118.353.353,0,0,1,.04-.039.3.3,0,0,0-.043.035c-.027.027-.067.067-.115.11a1.809,1.809,0,0,0-.15.169,1.537,1.537,0,0,0-.146.217c-.043.075-.08.158-.118.228a2.137,2.137,0,0,1-.107.194c-.027.047-.051.086-.07.114l-.059-.035A3.191,3.191,0,0,1,17.674,13.406Zm.2-1.823a.029.029,0,0,1,.043-.015c.008,0,.027.011.019.043l-.962,2.663a.87.87,0,0,0-.1-.044l.524-1.412-.631,1.365-.1-.036Zm-1.333,1.4a1.614,1.614,0,0,1,.083-.166c.027-.055.055-.106.078-.165a1.856,1.856,0,0,0,.115-.415,1.456,1.456,0,0,0,0-.233,1.6,1.6,0,0,1,0-.181.654.654,0,0,1,.08-.265.484.484,0,0,1,.161-.185v0a.686.686,0,0,1-.059.1.471.471,0,0,0-.083.181,1.105,1.105,0,0,0,.024.327c.011.1.027.206.027.276a2.32,2.32,0,0,1-.185.683,1.982,1.982,0,0,0-.139.588,2.573,2.573,0,0,0-.015.3,1.223,1.223,0,0,1-.04.284.419.419,0,0,0-.072-.019c0-.04.013-.083.016-.142s.013-.142.016-.225,0-.174,0-.257a1.3,1.3,0,0,1,.035-.252c.019-.078.04-.153.059-.217s.043-.11.056-.15c0-.011.011-.019.011-.031a.271.271,0,0,1-.016.031c-.016.036-.04.088-.063.147s-.051.134-.075.213-.04.171-.052.257-.011.177-.019.256-.016.158-.023.222-.02.1-.025.134c-.023,0-.047-.013-.07-.016A3.142,3.142,0,0,1,16.539,12.987Zm-.517-1.76a.036.036,0,0,1,.035-.032.031.031,0,0,1,.032.032l.131,2.833c-.036,0-.067,0-.1-.008l-.059-1.5L16,14.053c-.035,0-.07,0-.1.008Zm-.69,1.807a1.244,1.244,0,0,1,.008-.182c0-.063.011-.123.011-.185a1.819,1.819,0,0,0-.056-.422,1.287,1.287,0,0,0-.082-.222,1.239,1.239,0,0,1-.072-.166.654.654,0,0,1-.027-.276.475.475,0,0,1,.078-.232v0c0,.04-.008.075-.011.115a.587.587,0,0,0-.013.2,1.437,1.437,0,0,0,.147.292,2.217,2.217,0,0,1,.134.244,2.364,2.364,0,0,1,.091.7,2.081,2.081,0,0,0,.094.6c.032.094.063.189.1.288a.983.983,0,0,1,.072.273v0c-.024,0-.048,0-.072.008a1.043,1.043,0,0,0-.04-.134,1.93,1.93,0,0,0-.07-.213c-.032-.08-.067-.158-.094-.241a1.493,1.493,0,0,1-.064-.244c-.016-.083-.019-.158-.027-.225s0-.118,0-.158,0-.059,0-.059v.059c0,.04,0,.094,0,.158s0,.146.013.225a1.456,1.456,0,0,0,.051.256c.019.088.056.169.078.249s.044.15.059.213.024.1.032.131c-.023,0-.047.011-.07.016A3.172,3.172,0,0,1,15.331,13.035ZM14.18,11.611c-.013-.032.011-.043.015-.043a.034.034,0,0,1,.048.015l1.2,2.564c-.035.013-.07.024-.1.036l-.627-1.365.521,1.412c-.031.013-.063.028-.094.044Zm.05,1.932a1.106,1.106,0,0,1-.063-.173,1.494,1.494,0,0,0-.059-.174,1.7,1.7,0,0,0-.214-.371,1.556,1.556,0,0,0-.161-.174.736.736,0,0,1-.126-.126.6.6,0,0,1-.134-.241.455.455,0,0,1-.011-.24.978.978,0,0,1,.027.11.605.605,0,0,0,.07.189,1.252,1.252,0,0,0,.249.214,2.3,2.3,0,0,1,.217.177,2.408,2.408,0,0,1,.351.612,1.959,1.959,0,0,0,.316.513c.063.075.13.15.2.228a.934.934,0,0,1,.169.225v0a.4.4,0,0,0-.059.035,1.308,1.308,0,0,0-.091-.115c-.043-.051-.091-.106-.15-.169s-.122-.118-.177-.182a2.181,2.181,0,0,1-.153-.2,2.057,2.057,0,0,1-.107-.193c-.031-.059-.051-.11-.067-.147a.25.25,0,0,0-.024-.047c0,.008.013.027.02.047.016.036.031.091.059.15a1.714,1.714,0,0,0,.094.2,1.764,1.764,0,0,0,.146.217c.056.072.115.134.166.2a2.048,2.048,0,0,1,.139.173l.078.111c-.019.016-.04.027-.059.043A3.214,3.214,0,0,1,14.23,13.543Zm-1.61-.875a.035.035,0,0,1,0-.048.036.036,0,0,1,.048,0l2.09,1.91c-.023.024-.051.048-.075.072l-1.1-1.022,1.022,1.1c-.024.024-.048.048-.072.075Zm.785,1.768c-.043-.043-.078-.091-.123-.139a1.368,1.368,0,0,0-.122-.138,1.467,1.467,0,0,0-.34-.26,1.385,1.385,0,0,0-.213-.1,1.178,1.178,0,0,1-.166-.067.615.615,0,0,1-.213-.174.415.415,0,0,1-.107-.217.507.507,0,0,1,.067.091.642.642,0,0,0,.138.15,1.268,1.268,0,0,0,.313.1,1.73,1.73,0,0,1,.264.08,2.244,2.244,0,0,1,.56.43,2.114,2.114,0,0,0,.489.355c.091.048.178.088.281.131a1.011,1.011,0,0,1,.241.146h0a.572.572,0,0,0-.043.056l-.126-.067a1.954,1.954,0,0,0-.206-.1c-.075-.035-.158-.067-.232-.106a1.357,1.357,0,0,1-.222-.127c-.067-.047-.126-.1-.174-.138s-.09-.083-.118-.107a.1.1,0,0,0-.019-.024.073.073,0,0,0,.016.024c.027.028.067.067.11.115s.107.1.169.15a1.536,1.536,0,0,0,.217.145c.08.043.158.08.228.118s.139.075.194.107.086.056.114.075a.676.676,0,0,0-.035.059A3.228,3.228,0,0,1,13.406,14.436Zm-1.819-.193a.042.042,0,0,1-.019-.048.038.038,0,0,1,.043-.019l2.667.966-.048.094-1.408-.521,1.362.627c-.013.032-.02.067-.032.1Zm1.4,1.329c-.06-.023-.115-.051-.171-.078a1.064,1.064,0,0,0-.165-.083,1.808,1.808,0,0,0-.41-.11,1.273,1.273,0,0,0-.236,0c-.06,0-.123,0-.182,0a.612.612,0,0,1-.265-.082.484.484,0,0,1-.182-.158.757.757,0,0,1,.1.055.5.5,0,0,0,.181.088,1.34,1.34,0,0,0,.327-.024,1.455,1.455,0,0,1,.276-.027,2.188,2.188,0,0,1,.683.181,2.092,2.092,0,0,0,.588.142c.1.008.2.013.3.013a1.1,1.1,0,0,1,.281.043h0c-.008.019-.011.043-.019.067-.04,0-.083-.013-.142-.016s-.142-.013-.225-.016-.169,0-.257,0a1.743,1.743,0,0,1-.251-.032c-.08-.02-.155-.043-.218-.064s-.11-.039-.146-.055a.237.237,0,0,0-.051-.016c.008,0,.027.011.051.019s.083.04.142.064a1.841,1.841,0,0,0,.217.075,1.906,1.906,0,0,0,.252.051c.086.011.177.016.256.019s.158.016.222.027.1.016.134.024l-.013.067A3.124,3.124,0,0,1,12.992,15.571Zm-1.76.517a.028.028,0,0,1-.032-.032.03.03,0,0,1,.032-.035l2.828-.13c0,.035,0,.07-.008.106l-1.5.059,1.5.059c0,.032,0,.067.008.1Zm1.806.695a1.706,1.706,0,0,1-.185-.011c-.059,0-.123-.013-.185-.013a1.708,1.708,0,0,0-.422.059,1.163,1.163,0,0,0-.222.083c-.055.024-.11.048-.166.067a.576.576,0,0,1-.272.027.449.449,0,0,1-.228-.075.619.619,0,0,1,.114.013.592.592,0,0,0,.2.008,1.173,1.173,0,0,0,.292-.147,1.686,1.686,0,0,1,.244-.13,2.221,2.221,0,0,1,.7-.094,2.067,2.067,0,0,0,.6-.1c.094-.027.189-.063.292-.1a.942.942,0,0,1,.272-.07h0l.011.07a1.065,1.065,0,0,0-.138.04c-.064.019-.134.043-.213.075s-.158.067-.241.094a1.8,1.8,0,0,1-.244.063c-.083.013-.158.02-.222.024s-.122.008-.158.008H12.8a.369.369,0,0,0,.063,0c.036,0,.092,0,.158,0a1.493,1.493,0,0,0,.225-.016,1.513,1.513,0,0,0,.252-.047c.088-.024.169-.056.249-.083s.15-.043.213-.059.1-.02.131-.028c0,.024.011.044.016.067A3.154,3.154,0,0,1,13.039,16.783Zm-1.428,1.151a.033.033,0,0,1-.043-.019c0-.008-.008-.032.015-.043l2.569-1.2c.011.036.019.067.032.1l-1.362.627,1.408-.521a1.036,1.036,0,0,0,.048.094Zm1.932-.051a1.616,1.616,0,0,1-.173.059c-.056.02-.115.036-.174.059a1.847,1.847,0,0,0-.371.214,1.271,1.271,0,0,0-.169.161.76.76,0,0,1-.131.126.569.569,0,0,1-.24.134.486.486,0,0,1-.241.016.433.433,0,0,1,.11-.032.613.613,0,0,0,.189-.067,1.1,1.1,0,0,0,.214-.248,1.83,1.83,0,0,1,.177-.217,2.261,2.261,0,0,1,.612-.351,2.058,2.058,0,0,0,.513-.319,2.437,2.437,0,0,0,.228-.206.859.859,0,0,1,.225-.166h0c.011.02.024.036.035.06a1.16,1.16,0,0,0-.115.086c-.051.043-.106.094-.169.15s-.118.122-.182.181a1.776,1.776,0,0,1-.2.15,1.366,1.366,0,0,1-.193.107c-.059.032-.11.056-.147.072a.26.26,0,0,0-.031.015.183.183,0,0,1,.035-.011c.032-.016.086-.035.146-.059s.131-.059.206-.1a1.478,1.478,0,0,0,.217-.146c.067-.051.134-.115.193-.166s.122-.1.173-.139a.93.93,0,0,1,.115-.074c.013.015.024.035.04.055A3.2,3.2,0,0,1,13.543,17.883Zm-.875,1.61a.031.031,0,0,1-.048,0,.035.035,0,0,1,0-.048l1.91-2.09c.024.027.048.051.072.078l-1.022,1.1,1.1-1.017a.815.815,0,0,1,.075.067Zm1.768-.789a1.212,1.212,0,0,1-.138.123c-.048.04-.1.078-.139.122a1.787,1.787,0,0,0-.26.34,1.059,1.059,0,0,0-.1.217,1.2,1.2,0,0,1-.07.161.544.544,0,0,1-.174.213.434.434,0,0,1-.217.111h0a.787.787,0,0,1,.091-.072.557.557,0,0,0,.15-.138,1.15,1.15,0,0,0,.1-.311,2.027,2.027,0,0,1,.08-.265,2.328,2.328,0,0,1,.43-.56,2.043,2.043,0,0,0,.355-.489c.048-.088.088-.177.131-.276a1.037,1.037,0,0,1,.146-.244c.02.016.04.027.056.039a1.294,1.294,0,0,1-.067.126c-.032.059-.067.131-.1.206s-.067.158-.1.233a1.611,1.611,0,0,1-.131.221,1.756,1.756,0,0,1-.138.174c-.043.051-.078.091-.107.118a.247.247,0,0,0-.039.043.352.352,0,0,1,.039-.04,1.215,1.215,0,0,0,.115-.11,2.192,2.192,0,0,0,.153-.169,1.887,1.887,0,0,0,.142-.217c.044-.075.083-.153.118-.228s.075-.139.107-.193.056-.083.075-.115a.358.358,0,0,0,.059.04A3.165,3.165,0,0,1,14.436,18.7Zm-.193,1.823a.035.035,0,0,1-.048.016s-.027-.013-.015-.044l.962-2.662.094.047-.521,1.408.627-1.365c.032.013.067.024.1.036Zm1.329-1.4a1.367,1.367,0,0,1-.078.166,1.291,1.291,0,0,0-.078.166,1.66,1.66,0,0,0-.115.414,1.265,1.265,0,0,0,0,.236c0,.059,0,.118,0,.178a.648.648,0,0,1-.078.264.525.525,0,0,1-.161.185v0a.821.821,0,0,1,.055-.1.507.507,0,0,0,.088-.185,1.154,1.154,0,0,0-.024-.327,1.964,1.964,0,0,1-.027-.273,2.21,2.21,0,0,1,.185-.687,2.062,2.062,0,0,0,.138-.583c.008-.1.013-.2.016-.308a.963.963,0,0,1,.04-.28.473.473,0,0,0,.067.015c0,.04-.013.088-.016.142s-.008.147-.013.225,0,.174,0,.257a1.607,1.607,0,0,1-.035.252c-.02.078-.043.153-.064.217s-.039.11-.055.15c-.008.019-.013.035-.016.043a.472.472,0,0,0,.019-.043c.016-.036.04-.083.064-.147a1.752,1.752,0,0,0,.075-.213,1.371,1.371,0,0,0,.051-.257c.011-.086.016-.173.019-.256s.02-.155.027-.222q.012-.077.024-.13l.067.011A3.063,3.063,0,0,1,15.571,19.122Zm.517,1.76a.028.028,0,0,1-.032.032.032.032,0,0,1-.035-.032L15.9,18.049a.732.732,0,0,0,.1.008l.059,1.5.059-1.5a.793.793,0,0,0,.1-.008Zm-.032-2.935a1.892,1.892,0,1,1,1.89-1.89A1.894,1.894,0,0,1,16.057,17.947Zm.726,1.128a1.818,1.818,0,0,1-.011.186c0,.059-.013.118-.013.181a2,2,0,0,0,.059.426,1.678,1.678,0,0,0,.083.221c.024.052.051.107.072.163a.658.658,0,0,1,.023.276.506.506,0,0,1-.075.232v0a.563.563,0,0,1,.013-.115.566.566,0,0,0,.011-.2,1.356,1.356,0,0,0-.15-.3,1.992,1.992,0,0,1-.13-.241,2.242,2.242,0,0,1-.094-.7,1.99,1.99,0,0,0-.1-.6,3.029,3.029,0,0,0-.1-.288,1.19,1.19,0,0,1-.07-.276c.027,0,.051,0,.07-.008.011.035.024.083.04.134a2.166,2.166,0,0,0,.075.217c.027.078.067.153.094.236a1.9,1.9,0,0,1,.063.246c.013.082.02.157.024.224s.008.118.008.158a.288.288,0,0,0,0,.059v-.059c0-.04,0-.091,0-.158s0-.146-.011-.224a2.443,2.443,0,0,0-.051-.257c-.024-.086-.056-.169-.08-.249a2,2,0,0,1-.059-.209c-.015-.051-.024-.1-.032-.134.024,0,.048-.011.067-.016A3.174,3.174,0,0,1,16.783,19.075ZM17.934,20.5c.008.032-.011.044-.019.044a.03.03,0,0,1-.043-.016l-1.2-2.564.1-.036.631,1.365-.524-1.408.1-.047Zm-.051-1.932c.024.055.04.114.059.173a1.759,1.759,0,0,0,.064.178,1.891,1.891,0,0,0,.209.371,1.549,1.549,0,0,0,.166.169,1.468,1.468,0,0,1,.126.126.647.647,0,0,1,.131.244.481.481,0,0,1,.015.238.513.513,0,0,1-.032-.111.484.484,0,0,0-.067-.189,1.387,1.387,0,0,0-.248-.214,1.878,1.878,0,0,1-.217-.173,2.228,2.228,0,0,1-.351-.616,2.146,2.146,0,0,0-.316-.513c-.063-.075-.13-.15-.209-.228a.976.976,0,0,1-.166-.225.414.414,0,0,1,.06-.035c.019.027.051.067.086.11s.094.11.15.169.122.118.181.185a1.743,1.743,0,0,1,.15.2,2.215,2.215,0,0,1,.111.2c.027.059.051.107.067.142a.408.408,0,0,1,.019.051.22.22,0,0,0-.016-.051c-.016-.035-.035-.088-.059-.15a1.8,1.8,0,0,0-.1-.2,1.423,1.423,0,0,0-.142-.217c-.055-.072-.114-.134-.169-.2s-.1-.122-.139-.173-.055-.083-.074-.11a.414.414,0,0,1,.055-.04A3.091,3.091,0,0,1,17.883,18.566Zm1.61.875a.037.037,0,0,1-.051.051l-2.09-1.913c.027-.024.055-.048.078-.067l1.1,1.017-1.017-1.1a1.027,1.027,0,0,0,.067-.078ZM18.7,17.674c.043.044.083.091.126.139a1.484,1.484,0,0,0,.118.138,1.811,1.811,0,0,0,.34.265,1.279,1.279,0,0,0,.217.094,1.5,1.5,0,0,1,.161.067.6.6,0,0,1,.217.177.432.432,0,0,1,.107.214.787.787,0,0,1-.072-.091.544.544,0,0,0-.138-.147,1.189,1.189,0,0,0-.308-.106,1.937,1.937,0,0,1-.268-.08,2.3,2.3,0,0,1-.56-.43,1.956,1.956,0,0,0-.489-.355c-.088-.043-.177-.088-.276-.131a1.033,1.033,0,0,1-.244-.142v0c.016-.02.031-.036.043-.056l.122.072.206.1c.08.032.158.064.236.1a1.233,1.233,0,0,1,.217.126c.067.047.126.1.178.142a1.108,1.108,0,0,1,.114.106.173.173,0,0,1,.024.02c0-.008-.013-.013-.019-.024-.028-.027-.064-.067-.111-.115s-.1-.1-.165-.15a2.206,2.206,0,0,0-.218-.146c-.078-.043-.157-.08-.232-.118s-.134-.072-.193-.107-.083-.051-.115-.075a.32.32,0,0,0,.04-.055A3.147,3.147,0,0,1,18.7,17.674Zm1.823.2a.03.03,0,0,1,.016.043c0,.008-.011.027-.044.019l-2.662-.966a1.045,1.045,0,0,0,.047-.094l1.408.521-1.364-.627c.011-.032.023-.063.035-.1Zm-1.4-1.333c.059.024.11.051.169.078a1.215,1.215,0,0,0,.163.083,2.168,2.168,0,0,0,.414.115,1.493,1.493,0,0,0,.236,0,1.557,1.557,0,0,1,.178,0,.633.633,0,0,1,.264.08.42.42,0,0,1,.185.161h0a.649.649,0,0,1-.1-.059.593.593,0,0,0-.185-.088,1.321,1.321,0,0,0-.324.024,1.589,1.589,0,0,1-.276.028,2.136,2.136,0,0,1-.682-.182,2.017,2.017,0,0,0-.588-.139,2.665,2.665,0,0,0-.308-.015,1.128,1.128,0,0,1-.276-.04l0,0c.007-.019.011-.043.019-.067.035,0,.083.013.138.016s.147.013.23.016.169,0,.252,0a1.239,1.239,0,0,1,.252.035,1.942,1.942,0,0,1,.217.059c.063.024.11.043.15.056s.043.015.051.019a.5.5,0,0,0-.051-.024c-.036-.016-.083-.04-.147-.063a2.25,2.25,0,0,0-.213-.075,1.71,1.71,0,0,0-.257-.052c-.086-.011-.173-.015-.252-.019l-.225-.024-.13-.027c0-.019.008-.043.011-.067A3.126,3.126,0,0,1,19.122,16.539Zm1.76-.45-2.833.131a.857.857,0,0,0,.008-.1l1.5-.059L18.057,16a.827.827,0,0,0-.008-.106l2.833.13a.03.03,0,0,1,.032.035A.028.028,0,0,1,20.882,16.088Z" transform="translate(-11.113 -11.113)" fill="#83330b"/></g></g></g></svg>