<svg xmlns="http://www.w3.org/2000/svg" width="35.168" height="35.168" viewBox="0 0 35.168 35.168"><g transform="translate(0 0)"><circle cx="17.584" cy="17.584" r="17.584" fill="#dd2911"/><g transform="translate(5.76 4.971)"><path d="M9.364,5.564l1.018,3.125h3.282l-2.655,1.929,1.014,3.125L9.364,11.809,6.709,13.742l1.014-3.125L5.067,8.688H8.35Z" transform="translate(-5.067 -4.21)" fill="#fedd19"/><path d="M16.163,4.373l-.1,1.085,1,.426-1.062.245-.1,1.085-.556-.935-1.061.241L15,5.7l-.556-.935,1,.43Z" transform="translate(-3.807 -4.373)" fill="#fedd19"/><path d="M19.317,7.346l-.513.963.757.785L18.489,8.9l-.513.959-.15-1.077L16.757,8.6l.978-.477-.154-1.077.757.781Z" transform="translate(-3.469 -4.008)" fill="#fedd19"/><path d="M19.64,11.851l-.86.667.367,1.022-.9-.612-.864.667.308-1.046-.9-.612,1.089-.036.3-1.046.367,1.026Z" transform="translate(-3.464 -3.487)" fill="#fedd19"/><path d="M17.077,15.06l-1.049.288-.051,1.085-.6-.907-1.049.288.679-.852-.6-.907,1.018.383.679-.848-.047,1.085Z" transform="translate(-3.801 -3.113)" fill="#fedd19"/></g></g></svg>