<svg xmlns="http://www.w3.org/2000/svg" width="35.153" height="35.153" viewBox="0 0 35.153 35.153"><g transform="translate(0 0)"><path d="M32.334,17.455A17.609,17.609,0,0,0,20.616.885V34.026A17.609,17.609,0,0,0,32.334,17.455Z" transform="translate(2.819 0.121)" fill="#ff883e"/><path d="M16.167,35.153a17.508,17.508,0,0,0,5.859-1.006V1.006a17.563,17.563,0,0,0-11.717,0V34.147A17.473,17.473,0,0,0,16.167,35.153Z" transform="translate(1.409 0)" fill="#fff"/><path d="M11.717.885a17.576,17.576,0,0,0,0,33.141Z" transform="translate(0 0.121)" fill="#169b62"/></g></svg>