<svg xmlns="http://www.w3.org/2000/svg" width="35.156" height="35.156" viewBox="0 0 35.156 35.156"><g transform="translate(0)"><g transform="translate(0 0)"><path d="M35.157,17.581c0,.588-.032,1.167-.086,1.744A17.276,17.276,0,0,1,33.3,25.435,17.564,17.564,0,0,1,3.409,27.968,17.592,17.592,0,0,1,.091,19.324a16.763,16.763,0,0,1,0-3.487A17.587,17.587,0,0,1,3.409,7.189a17.557,17.557,0,0,1,28.338,0A17.764,17.764,0,0,1,33.3,9.721a17.327,17.327,0,0,1,1.772,6.116C35.125,16.409,35.157,16.993,35.157,17.581Z" fill="#d10201"/><g transform="translate(1.862 7.189)"><path d="M12.491,19.1,3.185,25.516a17.257,17.257,0,0,1-1.547-2.533L11.73,17.937A6.208,6.208,0,0,0,12.491,19.1Z" transform="translate(-1.638 -4.736)" fill="#fee51b"/><path d="M30.6,22.983a17.576,17.576,0,0,1-1.55,2.533l-9.3-6.411a6.365,6.365,0,0,0,.758-1.167Z" transform="translate(0.838 -4.736)" fill="#fee51b"/><path d="M30.6,8.857l-10.1,5.05a6.4,6.4,0,0,0-.758-1.172l9.3-6.411A17.764,17.764,0,0,1,30.6,8.857Z" transform="translate(0.838 -6.324)" fill="#fee51b"/><path d="M12.491,12.735a6.242,6.242,0,0,0-.762,1.172L1.638,8.857A17.257,17.257,0,0,1,3.185,6.324Z" transform="translate(-1.638 -6.324)" fill="#fee51b"/></g><g transform="translate(14.144)"><path d="M19.316,31.955a17.6,17.6,0,0,1-6.873,0l2.564-11.016a6,6,0,0,0,1.744,0Z" transform="translate(-12.443 2.863)" fill="#fee51b"/><path d="M19.316.339,16.751,11.355a6.46,6.46,0,0,0-1.744,0L12.443.339a17.6,17.6,0,0,1,6.873,0Z" transform="translate(-12.443)" fill="#fee51b"/></g><g transform="translate(0 15.837)"><path d="M11.291,15.676c0,.2.013.414.032.615L.091,17.419a16.763,16.763,0,0,1,0-3.487l11.232,1.124C11.3,15.261,11.291,15.467,11.291,15.676Z" transform="translate(0 -13.932)" fill="#fee51b"/><path d="M32.29,15.676c0,.588-.032,1.167-.086,1.744L20.967,16.291c.019-.2.032-.41.032-.615s-.013-.415-.032-.62L32.2,13.932C32.258,14.5,32.29,15.088,32.29,15.676Z" transform="translate(2.867 -13.932)" fill="#fee51b"/></g><path d="M21.084,16.07a4.63,4.63,0,0,1-.024.489,4.96,4.96,0,0,1-.5,1.752,4.857,4.857,0,0,1-.671,1.014,5,5,0,0,1-3.235,1.724,4.63,4.63,0,0,1-.58.035,4.7,4.7,0,0,1-.584-.035,4.982,4.982,0,0,1-3.231-1.724,4.877,4.877,0,0,1-.675-1.014,4.96,4.96,0,0,1-.5-1.752c-.016-.161-.024-.323-.024-.489s.008-.332.024-.493a5.022,5.022,0,0,1,4.41-4.49,4.743,4.743,0,0,1,.584-.035,4.63,4.63,0,0,1,.58.035,5.012,5.012,0,0,1,4.41,4.49A4.717,4.717,0,0,1,21.084,16.07Z" transform="translate(1.511 1.511)" fill="#fee51b"/></g></g></svg>