<svg xmlns="http://www.w3.org/2000/svg" width="35.153" height="35.153" viewBox="0 0 35.153 35.153"><g transform="translate(0 0)"><path d="M32.485,8.281,1.188,23.928A17.556,17.556,0,0,1,2.916,7.891,17.81,17.81,0,0,1,4.584,5.752a17.556,17.556,0,0,1,27.9,2.529Z" fill="#0951b8"/><path d="M34.832,16.226a17.573,17.573,0,0,1-32.486,9.3l31.3-15.652A17.512,17.512,0,0,1,34.832,16.226Z" transform="translate(0.321 1.35)" fill="#1f5a33"/><path d="M33.822,10.228,2.524,25.879a17.345,17.345,0,0,1-1.479-2.948l31.3-15.647A17.265,17.265,0,0,1,33.822,10.228Z" transform="translate(0.143 0.996)" fill="#fbd023"/><g transform="translate(1.898 4.261)"><path d="M7.838,7.139l.521,1.6h1.681l-1.361.99.521,1.6-1.361-.99-1.357.99L7,9.728,5.64,8.737H7.321Z" transform="translate(-1.127 -3.285)" fill="#fff"/><g transform="translate(0.841)"><path d="M4.606,6.154l.521,1.6L3.766,6.765l-1.357.986L2.586,7.2A17.81,17.81,0,0,1,4.255,5.06l.032.1H5.964Z" transform="translate(-2.409 -3.569)" fill="#fff"/><path d="M11.808,3.748l.521,1.6H14.01l-1.361.986.521,1.6-1.361-.986-1.357.986.517-1.6L9.611,5.346h1.681Z" transform="translate(-1.424 -3.748)" fill="#fff"/></g><path d="M3.867,10.534l.521,1.6H6.068l-1.361.986.521,1.6L3.867,13.73l-1.357.986.521-1.6-1.361-.986H3.35Z" transform="translate(-1.669 -2.821)" fill="#fff"/><path d="M11.808,10.534l.521,1.6H14.01l-1.361.986.521,1.6-1.361-.986-1.357.986.517-1.6-1.358-.986h1.681Z" transform="translate(-0.584 -2.821)" fill="#fff"/></g></g></svg>