<svg xmlns="http://www.w3.org/2000/svg" width="35.153" height="35.153" viewBox="0 0 35.153 35.153"><g transform="translate(0)"><g transform="translate(0 0)"><circle cx="17.576" cy="17.576" r="17.576" fill="#c0262c"/><path d="M21.531,14.863H17.392l-1.279-3.934-1.278,3.934H10.7l3.35,2.434-1.279,3.934,3.345-2.43,3.347,2.43L18.181,17.3Zm-3.615,1.613-.256-.792h1.345Zm-1.8,1.311h0l-1.1-.8.423-1.3H16.8l.422,1.3-1.1.8Zm.418-2.924H15.7l.414-1.279Zm-3.31.821h1.346l-.257.792ZM14.745,17.8l.671.489-1.089.793Zm2.068.489.674-.489.415,1.282Z" transform="translate(1.463 1.494)" fill="#006133"/></g></g></svg>