<svg xmlns="http://www.w3.org/2000/svg" width="51.444" height="25.398" viewBox="0 0 51.444 25.398"><g transform="translate(0 0)"><g transform="translate(0 0)"><path d="M25.722,0C11.517,0,0,5.686,0,12.7S11.517,25.4,25.722,25.4s25.722-5.686,25.722-12.7S39.927,0,25.722,0Zm-2.44,2.826c2.936-1.037,11.658,0,15.046,1.627,1.085,1.04-4.835,4.381-11.883,5.829-10.076,2.032-5.287-5.739-3.163-7.457ZM5.977,17.872c-2.215-1.579-6.552-6.1.633-10.8a24.082,24.082,0,0,1,8.539-3.253c1.266-.272,2.169.045,1.039.994C13.794,7.3,8.823,15.523,8.372,17.331c-.362,1.221-1.085,1.536-2.395.542Zm20.693,5.243c-4.247.451-13.69-.949-13.871-2.168.181-2.939,15-7.819,17.667-5.107,1.13,2.124-1.039,7.14-3.8,7.275Zm21.6-8.541c-1.085,2.485-4.745,5.288-12.425,7.186-1.176.269-1.582-.453-.814-1.131,1.266-.768,7.365-10.978,8.134-13.013.451-1.04,1.31-.632,1.852-.226,2.44,1.581,4.293,4.157,3.253,7.184Z" fill="#cacee6" fill-rule="evenodd"/></g></g></svg>