<svg xmlns="http://www.w3.org/2000/svg" width="35.153" height="35.153" viewBox="0 0 35.153 35.153"><g transform="translate(0 0)"><path d="M17.576,33.039A17.6,17.6,0,0,0,35.153,15.462H0A17.6,17.6,0,0,0,17.576,33.039Z" transform="translate(0 2.114)" fill="#0bac2f"/><path d="M17.576,0A17.6,17.6,0,0,0,0,17.576H35.153A17.594,17.594,0,0,0,17.576,0Z" fill="#6ab2e6"/><path d="M21.194,16.931,13.4,22.79l-8.45,6.352a17.533,17.533,0,0,1,0-24.425l8.45,6.355Z" transform="translate(0 0.645)" fill="#fff"/><path d="M8.165,11.561l1.1,3.385h3.563L9.945,17.041l1.1,3.389-2.88-2.095L5.281,20.43l1.1-3.389L3.5,14.946H7.065Z" transform="translate(0.479 1.581)" fill="#d6141a"/></g></svg>