<svg xmlns="http://www.w3.org/2000/svg" width="35.156" height="35.153" viewBox="0 0 35.156 35.153"><g transform="translate(0)"><g transform="translate(0 0)"><path d="M34.089,17.576a17.518,17.518,0,0,1-1.207,6.4L7.809,2.312a17.568,17.568,0,0,1,26.28,15.264Z" transform="translate(1.068)" fill="#d91b34"/><path d="M26.28,31.5A17.575,17.575,0,0,1,1.207,9.829Z" transform="translate(0 1.344)" fill="#d91b34"/><path d="M33.084,23.7a17.746,17.746,0,0,1-.845,1.827L6.327,3.126A17.075,17.075,0,0,1,8.012,2.034Z" transform="translate(0.865 0.278)" fill="#fff"/><path d="M27.819,30.62a16.584,16.584,0,0,1-1.685,1.1L1.062,10.049a17.857,17.857,0,0,1,.845-1.827Z" transform="translate(0.145 1.124)" fill="#fff"/><path d="M32.858,25.4a17.65,17.65,0,0,1-5.14,5.938L1.8,8.937a17.718,17.718,0,0,1,5.14-5.942Z" transform="translate(0.247 0.409)"/></g></g></svg>