<svg xmlns="http://www.w3.org/2000/svg" width="35.153" height="35.153" viewBox="0 0 35.153 35.153"><g transform="translate(0)"><g transform="translate(0 0)"><g transform="translate(3.664 3.85)"><path d="M26.337,8.017c5.707,5.709,6.205,14.5,1.107,19.593S13.561,32.209,7.852,26.5,1.646,12,6.743,6.907,20.632,2.307,26.337,8.017Z" transform="translate(-3.223 -3.387)"/></g><g transform="translate(5.311)"><path d="M32.817,22.091c-.2.426-.423.845-.659,1.255a17.564,17.564,0,0,1-1.507,2.2,17.271,17.271,0,0,1-1.424,1.571H4.706l6.668-5.023Z" transform="translate(-4.667 3.02)" fill="#fed117"/><path d="M33.526,17.673c-.008.064-.016.131-.027.2q-.048.338-.118.663a.9.9,0,0,1-.02.1v0a.709.709,0,0,1-.019.1A17.35,17.35,0,0,1,32.015,22.7H10.572l6.668-5.022Z" transform="translate(-3.865 2.416)" fill="#d30201"/><path d="M29.23,26.51a17.562,17.562,0,0,1-24.555.027l.035-.027Z" transform="translate(-4.672 3.624)" fill="#006306"/><path d="M32.817,9.441H11.374L4.706,4.418H29.231a17.391,17.391,0,0,1,1.42,1.571,16.969,16.969,0,0,1,1.507,2.2C32.394,8.592,32.616,9.01,32.817,9.441Z" transform="translate(-4.667 0.604)" fill="#fed117"/><path d="M33.529,13.859H17.24L10.572,8.837H32.015a17.166,17.166,0,0,1,1.234,3.534l.013.052c0,.015.007.027.011.043.091.4.169.808.233,1.223a.148.148,0,0,0,0,.039.392.392,0,0,1,.008.044Z" transform="translate(-3.865 1.208)" fill="#d30201"/><path d="M29.235,5.022H4.711l-.039-.027a17.563,17.563,0,0,1,24.563.027Z" transform="translate(-4.672)" fill="#006306"/><path d="M32.906,15.764c0,.088,0,.177,0,.265a.1.1,0,0,1,0,.051v.126a17.4,17.4,0,0,1-.174,2.047.058.058,0,0,1,0,.024H16.438l3.333-2.513-3.333-2.509H32.727a17.727,17.727,0,0,1,.174,2.071v.083C32.906,15.527,32.906,15.646,32.906,15.764Z" transform="translate(-3.063 1.812)"/></g><g transform="translate(0 4.995)"><path d="M21.454,16.975l-3.333,2.513-6.668,5.022L4.785,29.534l-.035.027h0c-.214-.2-.418-.418-.62-.635l5.867-4.415,6.667-5.022,3.334-2.513L16.66,14.466,9.994,9.444,4.127,5.029c.2-.217.406-.431.62-.635l.039.027,6.668,5.023,6.668,5.022Z" transform="translate(0.564 -4.394)"/><path d="M20.559,16.9l-3.334,2.513-6.667,5.022L4.691,28.849c-.289-.307-.565-.631-.833-.963a17.677,17.677,0,0,1-1.506-2.2A17.423,17.423,0,0,1,.414,20.7l-.023-.107a.844.844,0,0,1-.02-.1,16.55,16.55,0,0,1-.292-1.948c-.008-.059-.011-.115-.015-.174h0c-.028-.34-.048-.687-.056-1.03a.138.138,0,0,1,0-.043.119.119,0,0,1,0-.04c0-.086,0-.169,0-.256a.144.144,0,0,1,0-.04V16.9c0-.118,0-.236,0-.355a.14.14,0,0,1,0-.043.116.116,0,0,1,0-.04c.008-.355.027-.706.056-1.057,0-.016,0-.032,0-.048s0-.032,0-.047c.013-.119.024-.233.036-.348,0-.019,0-.035.008-.051h0a.225.225,0,0,1,0-.048c.016-.114.028-.232.048-.347.039-.319.094-.639.153-.95a17.436,17.436,0,0,1,3.539-7.65c.265-.332.541-.655.833-.963l5.867,4.415,6.667,5.022Z" transform="translate(0 -4.318)" fill="#fff"/></g><g transform="translate(0.166 8.774)"><path d="M9.358,16.963l1.649,5.066-2.75-2h0l-.1-.07h0L7.105,19.2h0l-.078-.056-.394-.288-.043-.032-.115-.083L6.4,18.687l-.043-.035-.048.035h0l-.078.059-.131.091-.043.031-.339.249-.158.115h0l-.544.394-.047.04-.447.323-.078.059-2.73,1.981,1.776-5.465L.146,14.138c.039-.319.094-.639.153-.95H4.58l.086-.265v0l.056-.173v0l.62-1.905.019-.051.995-3.066,1.776,5.469H13.88l-3.757,2.726-.047.035-.383.28h0l-.059.04-.4.3.106.324h0Z" transform="translate(-0.146 -7.719)" fill="#d30201"/><g transform="translate(3.589 3.002)"><path d="M9.968,15.773l-.276-.221c-.626-.493-2.079-1.626-2.308-1.8-.327-.257-1.681-1.3-1.681-1.3a.017.017,0,0,0-.023,0,.126.126,0,0,0-.044.019l-.027-.15c-.07-.438-.142-.891-.236-1.337a.67.67,0,0,0-.39-.533.268.268,0,0,0-.052-.019,1.049,1.049,0,0,0-.607-.035,1.018,1.018,0,0,0-.163.067.877.877,0,0,1-.185.067c-.583.082-.615.228-.627.481a.05.05,0,0,0,.008.024.074.074,0,0,0,.024.008c.434-.091.6-.035.656.008.011.011.019.024.027.031-.131.013-.4.048-.45.111a.04.04,0,0,0-.008.035c.011.051.091.083.233.134a1.315,1.315,0,0,1,.3.138c.106.088.114.474.1,1.065v0c0,.118-.008.249-.011.383l0,.165c-.011.313-.011.62-.011.9-.051.131-.1.257-.134.379A1.757,1.757,0,0,0,4.259,15.5c-.051.064-.272.327-.4.482a1.454,1.454,0,0,0-.335.631.628.628,0,0,1-.078.268c-.013.024-.024.051-.036.078A.285.285,0,0,0,3.392,17c-.056.131-.174.4.015.509.044.134.509,1.669.589,2.165a.019.019,0,0,0,.011.016h0l.019.008c.185-.035.38-.063.581-.083v0a10.638,10.638,0,0,1,3.219.063h0c.13.028.26.059.386.1H8.22l.016,0a.033.033,0,0,0,.011-.024c0-.114.019-.43.075-.848.016-.13.035-.272.059-.422l.008-.028c.008-.063.019-.122.032-.189.032-.155.063-.3.1-.446a6.31,6.31,0,0,1,.343-1.065c.019-.048.043-.1.063-.139a3.287,3.287,0,0,1,.407-.663c.339.075.626.13.671.134a.083.083,0,0,0,.082-.051C10.094,15.995,10.122,15.9,9.968,15.773Z" transform="translate(-3.304 -10.36)" fill="#fed117"/><path d="M4.337,10.589a.156.156,0,1,0,.157.158A.158.158,0,0,0,4.337,10.589Zm0,.257a.1.1,0,0,1-.1-.1.1.1,0,1,1,.2,0A.1.1,0,0,1,4.337,10.846Z" transform="translate(-3.184 -10.328)"/><path d="M9.968,15.773l-.276-.221c-.626-.493-2.079-1.626-2.308-1.8-.327-.257-1.681-1.3-1.681-1.3a.017.017,0,0,0-.023,0,.126.126,0,0,0-.044.019l-.027-.15c-.07-.438-.142-.891-.236-1.337a.67.67,0,0,0-.39-.533.268.268,0,0,0-.052-.019,1.049,1.049,0,0,0-.607-.035,1.018,1.018,0,0,0-.163.067.877.877,0,0,1-.185.067c-.583.082-.615.228-.627.481a.05.05,0,0,0,.008.024.074.074,0,0,0,.024.008c.434-.091.6-.035.656.008.011.011.019.024.027.031-.131.013-.4.048-.45.111a.04.04,0,0,0-.008.035c.011.051.091.083.233.134a1.315,1.315,0,0,1,.3.138c.106.088.114.474.1,1.065v0c0,.118-.008.249-.011.383l0,.165c-.011.313-.011.62-.011.9-.051.131-.1.257-.134.379A1.757,1.757,0,0,0,4.259,15.5c-.051.064-.272.327-.4.482a1.454,1.454,0,0,0-.335.631.628.628,0,0,1-.078.268c-.013.024-.024.051-.036.078A.285.285,0,0,0,3.392,17c-.056.131-.174.4.015.509.044.134.509,1.669.589,2.165a.019.019,0,0,0,.011.016h0l.019.008c.185-.035.38-.063.581-.083v0a10.638,10.638,0,0,1,3.219.063h0c.13.028.26.059.386.1H8.22l.016,0a.033.033,0,0,0,.011-.024c0-.114.019-.43.075-.848.016-.13.035-.272.059-.422l.008-.028c.008-.063.019-.122.032-.189.032-.155.063-.3.1-.446a6.31,6.31,0,0,1,.343-1.065c.019-.048.043-.1.063-.139a3.287,3.287,0,0,1,.407-.663c.339.075.626.13.671.134a.083.083,0,0,0,.082-.051C10.094,15.995,10.122,15.9,9.968,15.773Zm-5.8-4.324a1.288,1.288,0,0,0-.316-.146.773.773,0,0,1-.193-.091,1.464,1.464,0,0,1,.438-.086.035.035,0,0,0,.028-.032A.136.136,0,0,0,4.07,11c-.075-.059-.253-.11-.664-.032.008-.2.044-.319.576-.394a.737.737,0,0,0,.2-.075,1.418,1.418,0,0,1,.153-.059.991.991,0,0,1,.576.032c.016,0,.032.011.047.016a.632.632,0,0,1,.364.5c.091.442.161.9.236,1.333l.024.169c-.094.064-.265.178-.549.4A2.918,2.918,0,0,0,4.263,13.9c0-.249,0-.513.011-.785l0-.165c0-.209.013-.394.013-.56v0C4.3,11.864,4.283,11.54,4.173,11.449Zm-.088,8.179c-.015,0-.027,0-.039,0-.088-.485-.482-1.8-.573-2.092h.009l.086.048.047.024h0c.008,0,.094.047.158.075a.427.427,0,0,0,.059.019.579.579,0,0,1,.1.035.343.343,0,0,1,.078.043.1.1,0,0,0,.036.008.125.125,0,0,0,.059-.016c0,.016.011.036.019.064.051.15.1.3.139.438.019.059.035.118.055.182.043.153.083.3.118.446s.067.276.088.4c.016.09.031.177.039.252C4.4,19.58,4.24,19.6,4.085,19.628Zm3.966-1.436c-.209-.016-.418-.028-.632-.04l.332-.367Zm-.241-.423c.2.016.407.032.623.052l-.323.358Zm-.446.364L7.1,17.739c.193,0,.39.011.6.027Zm-.056.016c-.2-.008-.386-.016-.576-.02l.311-.374Zm-.635-.04-.3-.383c.209,0,.415,0,.612.008Zm-.055.019c-.222,0-.442,0-.656,0l.351-.391Zm-.71-.016-.3-.371c.209-.008.43-.016.65-.016Zm-.056.02c-.213.008-.422.016-.631.027l.327-.4Zm-.69.016-.308-.367c.19-.016.4-.027.635-.04Zm-.059.019q-.35.024-.674.059L4.8,17.8Zm-.754.067c-.011,0-.019,0-.032,0-.04-.126-.078-.252-.122-.386.122-.016.3-.035.54-.059Zm3.05.548-.327-.4c.2.008.4.016.612.027Zm.335-.343.241.4c-.171-.013-.343-.024-.522-.032Zm-.394.359c-.209-.008-.415-.016-.62-.019l.292-.379Zm-.675-.035-.323-.391c.209,0,.414,0,.615.008Zm-.055.016H6.595c-.209,0-.418,0-.624,0l.23-.291.083-.1Zm-.454-.319-.238.3-.252-.288-.075-.088c.067,0,.134,0,.206,0s.165-.008.244-.008h.182Zm-.533.047.241.276c-.209.008-.415.013-.62.024l.04-.051.252-.347ZM5.19,18.8l-.284-.367.573-.035Zm-.051.019c-.221.016-.426.032-.62.051l.335-.418Zm-.655.013c-.032-.115-.064-.23-.094-.348.13-.016.264-.032.4-.04Zm3.708.875a3.7,3.7,0,0,0-.469-.1h0a10.666,10.666,0,0,0-3.1-.048,2.289,2.289,0,0,0-.048-.288c-.019-.107-.043-.222-.07-.343.189-.019.4-.035.615-.051h0a.356.356,0,0,0,.067,0c.477-.027.971-.039,1.479-.031h0c.241,0,.482.007.726.019.213.011.423.024.623.04.08.008.163.011.241.019C8.217,19.281,8.2,19.569,8.192,19.7Zm.08-.845c-.064,0-.126-.011-.19-.016l.233-.283C8.3,18.665,8.283,18.764,8.272,18.858Zm-.244-.039-.238-.4c.174.011.351.024.537.04Zm.311-.415c-.2-.016-.407-.032-.6-.043-.248-.016-.5-.027-.725-.035s-.477-.008-.73,0h0c-.1,0-.2,0-.311,0H5.876c-.115,0-.228,0-.342.011h0c-.23.008-.455.024-.68.04h0l-.481.048c-.013-.044-.028-.091-.04-.131a.124.124,0,0,1,.035,0q.379-.048.793-.072A21.27,21.27,0,0,1,7.356,18.2v0l0,0c.249.013.5.027.746.048h.027c.075.008.155.011.233.019C8.355,18.318,8.347,18.361,8.339,18.4Zm.035-.189c-.07,0-.138-.008-.209-.016l.276-.308C8.417,18,8.393,18.109,8.374,18.216Zm.1-.447c-.252-.023-.493-.043-.718-.055h0c-.244-.016-.481-.027-.7-.035h0c-.236-.008-.473-.008-.725-.008h0c-.26,0-.516,0-.765.016-.28.011-.533.027-.749.047h0c-.276.02-.484.048-.62.067-.008-.027-.011-.047-.016-.059a.623.623,0,0,0,.147-.272c.078-.249.114-.273.225-.343l.016-.013c.055-.035.272-.169.524-.319.221-.138.474-.292.663-.41a14.671,14.671,0,0,1,3.069.363A6.2,6.2,0,0,0,8.473,17.769Zm.43-1.242h0c-.027.056-.055.11-.078.166a14.693,14.693,0,0,0-3.007-.359c.04-.024.078-.048.107-.067a4.613,4.613,0,0,1,.457-.249,2.419,2.419,0,0,0,.3-.165c.072,0,.169,0,.273.008h.083c.059,0,.118,0,.169,0a.832.832,0,0,0,.094,0h.123c.07,0,.126-.008.158-.013l.007,0a.348.348,0,0,0,.166-.091h0a.984.984,0,0,0,.131-.147c.011-.019.024-.039.039-.059.372.115.664.2.793.233.158.048.34.091.482.126.027,0,.051.013.074.016A3.121,3.121,0,0,0,8.9,16.527ZM7.486,15.521l.075.078c-.024.036-.048.067-.07.1l-.083-.07C7.435,15.592,7.462,15.556,7.486,15.521Zm-.04-.115.048.013-.011.019Zm.376.19c-.033.04-.06.07-.088.1l-.1-.1c.024-.032.043-.064.067-.094Zm-.017-.083c.02.008.044.013.064.019,0,0-.008.013-.016.02Zm-.11.221a.312.312,0,0,1-.107.056l-.059-.056.072-.094Zm-.1-.177-.075-.078c.013-.013.02-.027.032-.04.035.008.072.02.107.032C7.641,15.5,7.62,15.525,7.6,15.556Zm-.078.241c-.011,0-.024,0-.04,0,.008-.007.013-.015.02-.023Zm-.379-.158a1.078,1.078,0,0,0,.078-.107l.115.1-.088.11Zm.07.147L7.2,15.8h-.15l-.019-.019c.023-.032.051-.067.075-.1Zm.166-.115.078.07c-.015.02-.031.044-.047.064h-.1l-.027-.024C7.317,15.746,7.344,15.711,7.376,15.671Zm-.008-.078-.115-.1c.028-.043.059-.083.083-.118h0l.11.115C7.424,15.521,7.4,15.553,7.368,15.592Zm-.158-.139-.106-.1a.365.365,0,0,1,.031-.047c.043.016.088.031.135.043l.011,0C7.258,15.387,7.234,15.418,7.21,15.454Zm-.032.043c-.023.035-.051.072-.078.107l-.11-.107c.027-.027.055-.063.083-.094ZM7.06,15.32l-.055-.048.075.02A.142.142,0,0,1,7.06,15.32Zm-.031.043c-.028.035-.052.067-.08.1l-.027-.027a.651.651,0,0,0-.013-.174Zm-.075.174.114.11c-.027.035-.055.067-.078.1l-.114-.11c0-.013.011-.024.015-.036A.8.8,0,0,0,6.954,15.537Zm0,.252a.065.065,0,0,0-.013.016c-.07,0-.138,0-.2-.008a.6.6,0,0,0,.1-.115ZM10.035,16c-.008.016-.016.024-.027.019-.035,0-.331-.059-.679-.138l-.067-.013h0c-.155-.039-.351-.086-.529-.138-.131-.035-.426-.123-.809-.241-.048-.011-.094-.027-.142-.043l-.094-.027h0c-.043-.013-.091-.024-.134-.04l-.19-.059-.027-.008L7.285,15.3l-.153-.048-.228-.07,0,0a.039.039,0,0,1-.019,0c-.407-.123-.742-.23-.987-.308s-.4-.131-.446-.15a.611.611,0,0,1-.327-.41.425.425,0,0,1,.177-.379.026.026,0,0,0,0-.04.034.034,0,0,0-.039,0,.459.459,0,0,0-.193.426.638.638,0,0,0,.358.454c.127.056.94.308,1.421.454a.881.881,0,0,1,.019.222.43.43,0,0,1-.024.13v0a.224.224,0,0,1-.027.051.51.51,0,0,1-.134.153.129.129,0,0,1-.027.019,1.825,1.825,0,0,1-.3.166,4.59,4.59,0,0,0-.463.252c-.051.032-.11.072-.185.118-.189.119-.441.273-.666.41l-.529.324-.013.008c-.118.078-.165.107-.248.371a.527.527,0,0,1-.147.265.091.091,0,0,1-.059.027.539.539,0,0,0-.075-.048,1.905,1.905,0,0,1,.15-.386.026.026,0,0,0-.011-.035.031.031,0,0,0-.04.011,1.53,1.53,0,0,0-.15.391.636.636,0,0,0-.075-.024.127.127,0,0,1-.04-.011,1.862,1.862,0,0,1,.131-.4c.008-.011,0-.027-.011-.035a.029.029,0,0,0-.036.016,1.689,1.689,0,0,0-.138.4l-.1-.056a.984.984,0,0,1,.09-.26,1.29,1.29,0,0,0,.119-.367c0-.107.221-.335.339-.458a.9.9,0,0,0,.094-.1c.072-.091.88-1.022.888-1.033l.008-.016v-.469a.027.027,0,0,0-.055,0v.458c-.083.1-.813.939-.884,1.025a1.215,1.215,0,0,1-.091.1c-.142.147-.351.364-.351.493a1.293,1.293,0,0,1-.118.347,2.358,2.358,0,0,0-.094.257l0,0-.08-.04c-.043-.075.032-.288.088-.41a.029.029,0,0,0-.013-.04.03.03,0,0,0-.035.016.97.97,0,0,0-.1.4l-.008,0c-.139-.072-.083-.252,0-.442,0-.011.011-.024.016-.035a.37.37,0,0,1,.031-.075.648.648,0,0,0,.088-.292,1.381,1.381,0,0,1,.323-.6c.147-.174.411-.5.411-.5a.02.02,0,0,0,0-.028,1.808,1.808,0,0,1-.19-1.089,3.368,3.368,0,0,1,.139-.379h0a2.9,2.9,0,0,1,.8-1.1,5.113,5.113,0,0,1,.559-.4.4.4,0,0,0,.056-.032c.139.111,1.357,1.054,1.665,1.295.228.177,1.664,1.294,2.3,1.795l.288.228C10.031,15.9,10.047,15.966,10.035,16Z" transform="translate(-3.304 -10.36)"/><path d="M5.615,15.917a.4.4,0,1,0,.4.4A.4.4,0,0,0,5.615,15.917Zm0,.741a.343.343,0,1,1,.343-.342A.343.343,0,0,1,5.615,16.658Z" transform="translate(-3.043 -9.6)"/><path d="M7.066,15.969a.4.4,0,1,0,0,.8.4.4,0,0,0,0-.8Zm0,.746a.348.348,0,0,1-.348-.347.346.346,0,0,1,.691,0A.35.35,0,0,1,7.066,16.715Z" transform="translate(-2.844 -9.593)"/></g></g></g></g></svg>