<svg xmlns="http://www.w3.org/2000/svg" width="35.153" height="35.153" viewBox="0 0 35.153 35.153"><g transform="translate(0)"><g transform="translate(0 0)"><path d="M20.8,16.584,2.683,25.911c-.11-.177-.221-.355-.323-.54A17.537,17.537,0,0,1,2.36,7.8c.1-.185.213-.363.323-.541Z" transform="translate(0 0.992)" fill="#fff"/><path d="M34.223,18.253A17.565,17.565,0,0,1,4.692,27.679l18.3-9.426Z" transform="translate(0.641 2.496)" fill="#009444"/><path d="M34.223,14.4H22.994L4.692,4.979A17.579,17.579,0,0,1,34.223,14.4Z" transform="translate(0.641 0)" fill="#d11133"/><path d="M20.8,16.584,2.683,25.911c-.11-.177-.221-.355-.323-.54A17.537,17.537,0,0,1,2.36,7.8c.1-.185.213-.363.323-.541Z" transform="translate(0 0.992)" fill="#fff"/><path d="M22.637,16.281H34.675a17.448,17.448,0,0,1-.265,2.242H23.181l-18.3,9.426a17.558,17.558,0,0,1-1.554-1.724l18.353-9.45Z" transform="translate(0.455 2.226)"/><path d="M21.678,15.553,3.325,6.1A17.429,17.429,0,0,1,4.879,4.38l18.3,9.426H34.41a17.431,17.431,0,0,1,.265,2.24H22.637Z" transform="translate(0.455 0.599)"/><path d="M34.83,16.77c0,.313-.008.624-.024.931H22.769l-.958.493L3.457,27.644A16.392,16.392,0,0,1,2.36,26.1L20.477,16.77,2.36,7.443A16.375,16.375,0,0,1,3.457,5.9L21.81,15.345l.958.493H34.807C34.822,16.147,34.83,16.458,34.83,16.77Z" transform="translate(0.323 0.806)" fill="#fccd1f"/><path d="M20.8,16.584,2.683,25.911c-.11-.177-.221-.355-.323-.54A17.537,17.537,0,0,1,2.36,7.8c.1-.185.213-.363.323-.541Z" transform="translate(0 0.992)" fill="#fff"/><path d="M20.8,16.584,2.683,25.911c-.11-.177-.221-.355-.323-.54A17.537,17.537,0,0,1,2.36,7.8c.1-.185.213-.363.323-.541Z" transform="translate(0 0.992)"/><g transform="translate(1.827 12.214)"><path d="M5.679,19.484V21.5a10.374,10.374,0,0,0,1.365-.252A5.39,5.39,0,0,0,9.5,19.69a5.92,5.92,0,0,0,.928-6.056A4.764,4.764,0,0,0,7.8,11.074a4.516,4.516,0,0,0-3.24-.056,4.439,4.439,0,0,0-2.79,2.836A3.983,3.983,0,0,0,2.7,17.725a3.226,3.226,0,0,0,.471.4c1.444,1.034,4.051,1.054,4.927-.738A2.775,2.775,0,0,0,8.412,16.2v-.457a2.277,2.277,0,0,1-.671,1.388,2.735,2.735,0,0,1-2.261.856A2.85,2.85,0,0,1,3.012,16a3.044,3.044,0,0,1,1.857-3.476,3.191,3.191,0,0,1,3.42.966c.02.024.04.051.06.075a3.575,3.575,0,0,1,.738,2.2,3.817,3.817,0,0,1-3.224,3.7C5.8,19.473,5.741,19.481,5.679,19.484Z" transform="translate(-1.608 -10.745)" fill="#fccd1f"/><g transform="translate(2.473 2.687)"><path d="M7.387,16.55s-.091-.147-.241-.364a.132.132,0,0,1,.013-.023,1.007,1.007,0,0,0,.078-.525.255.255,0,0,0-.051-.158c-.075-.07-.123.056-.134.11a2.4,2.4,0,0,0-.024.415v.008c-.032-.04-.059-.083-.091-.126a.048.048,0,0,0,.013-.024,1,1,0,0,0,.078-.525.234.234,0,0,0-.051-.153c-.075-.075-.123.055-.134.11a2.479,2.479,0,0,0-.024.41.035.035,0,0,1,0,.016L6.728,15.6l.013-.04a.9.9,0,0,0,.011-.489.223.223,0,0,0-.067-.134c-.075-.059-.107.064-.11.115a2.463,2.463,0,0,0,.027.379v.008l0,0c-.043-.055-.083-.11-.131-.161a.11.11,0,0,0,.013-.032.892.892,0,0,0,.011-.489.251.251,0,0,0-.067-.134c-.075-.059-.107.063-.11.115a2.539,2.539,0,0,0,.027.382h0c-.048-.055-.1-.11-.146-.165A.876.876,0,0,0,6.2,14.5a.22.22,0,0,0-.064-.126c-.07-.055-.094.059-.1.107a1.659,1.659,0,0,0,.02.319c-.032-.032-.059-.063-.091-.094-.016-.016-.032-.032-.051-.048a.854.854,0,0,0,0-.422.24.24,0,0,0-.063-.123c-.072-.055-.1.056-.1.107a1.2,1.2,0,0,0,.016.3h0l-.193-.171a.85.85,0,0,0,0-.382.227.227,0,0,0-.056-.115c-.067-.051-.091.051-.094.1a1.44,1.44,0,0,0,.019.288c-.031-.024-.059-.047-.086-.07a.164.164,0,0,1,0-.028.816.816,0,0,0-.066-.409.232.232,0,0,0-.08-.1c-.072-.035-.075.072-.072.115a2.275,2.275,0,0,0,.08.311l0,.013c-.05-.04-.1-.075-.15-.115a.783.783,0,0,0-.067-.4.2.2,0,0,0-.075-.1c-.074-.04-.078.067-.074.11a1.373,1.373,0,0,0,.074.284l-.114-.078a.276.276,0,0,1,0-.028.708.708,0,0,0-.082-.355.2.2,0,0,0-.076-.086c-.067-.028-.063.067-.059.1a1.622,1.622,0,0,0,.091.272l0,.013c-.067-.043-.123-.083-.174-.118v-.024a.657.657,0,0,0-.107-.351.169.169,0,0,0-.078-.078c-.067-.024-.059.067-.051.106a1.214,1.214,0,0,0,.063.166c-.059-.051-.181-.153-.248-.213-.091-.083-.171-.083-.153-.013s.094.139.145.19a.7.7,0,0,0,.153.114c.011.008.024.013.035.02-.083-.008-.193-.016-.26-.024-.122-.016-.185.032-.134.083a.476.476,0,0,0,.228.067,1.01,1.01,0,0,0,.194,0l.1-.011.067-.016a1.673,1.673,0,0,0,.15.107c.008.008.016.011.024.019-.078-.011-.2-.024-.272-.035-.111-.016-.171.027-.119.078a.411.411,0,0,0,.214.075.612.612,0,0,0,.177.008l.091-.011a.5.5,0,0,1,.051-.008c.032.024.067.048.1.075-.083-.008-.19-.02-.257-.032-.13-.016-.193.032-.138.091a.433.433,0,0,0,.241.083.9.9,0,0,0,.2.008.831.831,0,0,0,.107-.013h.008c.04.032.08.067.119.1-.084-.013-.182-.024-.25-.032-.126-.02-.193.032-.134.091a.5.5,0,0,0,.241.082.79.79,0,0,0,.2.008l.1-.011c.051.048.1.1.158.145-.043-.015-.088-.031-.123-.047-.13-.051-.213-.016-.169.063a.521.521,0,0,0,.236.15.825.825,0,0,0,.217.064l.091.011c.04.035.075.072.115.11L5.7,14.707c-.131-.056-.217-.02-.169.059a.455.455,0,0,0,.236.15.8.8,0,0,0,.213.063,1,1,0,0,0,.115.016c.016.016.032.032.051.048.035.04.075.083.118.13-.091-.035-.2-.083-.276-.114-.13-.059-.217-.028-.173.051a.489.489,0,0,0,.232.161.947.947,0,0,0,.209.072c.04.008.075.011.115.019h.043c.04.056.078.107.118.166-.086-.036-.185-.08-.252-.107-.126-.059-.213-.027-.169.051s.153.126.228.161a.964.964,0,0,0,.214.072c.035.008.074.011.114.019.032.048.064.1.1.147-.091-.036-.246-.1-.336-.142-.13-.056-.213-.024-.169.055s.155.123.23.163a.934.934,0,0,0,.213.07c.035.008.075.013.11.019h.056c.019.036.043.072.063.1-.091-.036-.244-.1-.331-.139-.131-.055-.214-.024-.171.056s.155.122.23.161a.716.716,0,0,0,.213.067.934.934,0,0,0,.11.019.134.134,0,0,0,.048,0c.118.2.193.343.193.343Z" transform="translate(-3.769 -13.109)" fill="#fccd1f"/><path d="M3.783,16.55s.091-.147.241-.364a.132.132,0,0,0-.013-.023,1.007,1.007,0,0,1-.078-.525.255.255,0,0,1,.051-.158c.075-.07.123.056.134.11a2.4,2.4,0,0,1,.024.415l0,.008c.028-.04.056-.083.088-.126a.048.048,0,0,1-.013-.024,1,1,0,0,1-.078-.525.234.234,0,0,1,.051-.153c.075-.075.123.055.134.11a2.479,2.479,0,0,1,.024.41.035.035,0,0,0,0,.016l.088-.123a.28.28,0,0,0-.013-.04.9.9,0,0,1-.011-.489.223.223,0,0,1,.067-.134c.075-.059.107.064.11.115a2.463,2.463,0,0,1-.027.379v.008l0,0c.043-.055.088-.11.131-.161,0-.016-.013-.027-.013-.032a.9.9,0,0,1-.011-.489.251.251,0,0,1,.067-.134c.075-.059.107.063.11.115a2.057,2.057,0,0,1-.027.382h0c.048-.055.1-.11.145-.165a.876.876,0,0,1-.008-.447.22.22,0,0,1,.064-.126c.07-.055.094.059.1.107a1.425,1.425,0,0,1-.02.319c.032-.032.059-.063.092-.094a.508.508,0,0,1,.05-.048.854.854,0,0,1,0-.422.24.24,0,0,1,.063-.123c.072-.055.1.056.1.107a1.2,1.2,0,0,1-.016.3h0c.063-.059.126-.115.193-.171a.79.79,0,0,1,0-.382.207.207,0,0,1,.059-.115c.064-.051.088.051.091.1a1.44,1.44,0,0,1-.019.288c.032-.024.059-.047.086-.07a.164.164,0,0,0,0-.028.8.8,0,0,1,.067-.409.222.222,0,0,1,.078-.1c.072-.035.075.072.072.115a2.275,2.275,0,0,1-.08.311l0,.013.15-.115a.783.783,0,0,1,.067-.4.226.226,0,0,1,.075-.1c.075-.04.078.067.075.11a1.732,1.732,0,0,1-.072.284c.036-.027.075-.055.11-.078a.276.276,0,0,0,0-.028.712.712,0,0,1,.086-.355.167.167,0,0,1,.072-.086c.067-.028.063.067.059.1a1.525,1.525,0,0,1-.091.272v.013l.169-.118v-.024a.657.657,0,0,1,.107-.351c.019-.027.043-.067.08-.078.066-.024.058.067.05.106a1.214,1.214,0,0,1-.063.166l.249-.213c.09-.083.169-.083.153-.013s-.1.139-.147.19a.7.7,0,0,1-.153.114c-.011.008-.024.013-.035.02.083-.008.193-.016.26-.024.122-.016.185.032.134.083a.476.476,0,0,1-.228.067,1.01,1.01,0,0,1-.194,0l-.1-.011c-.008,0-.048-.011-.067-.016a1.673,1.673,0,0,1-.15.107c-.008.008-.016.011-.024.019.078-.011.2-.024.273-.035.11-.016.169.027.118.078a.4.4,0,0,1-.214.075.612.612,0,0,1-.177.008l-.091-.011a.45.45,0,0,0-.051-.008l-.1.075c.086-.008.189-.02.259-.032.126-.016.193.032.135.091a.439.439,0,0,1-.241.083.91.91,0,0,1-.2.008.831.831,0,0,1-.107-.013H6.1c-.04.032-.078.067-.118.1.083-.013.181-.024.249-.032.126-.02.193.032.134.091a.5.5,0,0,1-.241.082.79.79,0,0,1-.2.008l-.094-.011c-.056.048-.107.1-.163.145a1.041,1.041,0,0,0,.123-.047c.13-.051.213-.016.169.063a.521.521,0,0,1-.236.15.825.825,0,0,1-.217.064l-.091.011c-.04.035-.075.072-.115.11l.166-.063c.131-.056.217-.02.169.059s-.157.118-.236.15a.8.8,0,0,1-.213.063,1,1,0,0,1-.115.016l-.048.048c-.039.04-.078.083-.118.13.088-.035.2-.083.273-.114.13-.059.217-.028.174.051a.5.5,0,0,1-.23.161,1.04,1.04,0,0,1-.213.072c-.04.008-.075.011-.115.019H4.754c-.04.056-.078.107-.118.166.086-.036.185-.08.252-.107.126-.059.213-.027.169.051s-.153.126-.228.161a.964.964,0,0,1-.214.072c-.035.008-.074.011-.114.019-.032.048-.064.1-.094.147.09-.036.248-.1.335-.142.13-.056.213-.024.173.055s-.158.123-.233.163a.934.934,0,0,1-.213.07c-.035.008-.075.013-.11.019H4.3c-.019.036-.043.072-.063.1.091-.036.244-.1.331-.139.131-.055.214-.024.171.056s-.155.122-.23.161a.716.716,0,0,1-.213.067.934.934,0,0,1-.11.019.134.134,0,0,1-.048,0c-.118.2-.193.343-.193.343Z" transform="translate(-3.783 -13.109)" fill="#fccd1f"/></g></g></g></g></svg>