<svg xmlns="http://www.w3.org/2000/svg" xmlns:xlink="http://www.w3.org/1999/xlink" width="50.425" height="27.796" viewBox="0 0 50.425 27.796"><defs><clipPath id="a"><rect width="50.425" height="27.796" transform="translate(0 0)" fill="#cacee6"/></clipPath></defs><g transform="translate(0 0)" clip-path="url(#a)"><path d="M.283.772C.875-.294,2.249-.012,3.161.423c6.623,2.841,13.22,5.753,19.808,8.67,1.68.481.922,2.512.9,3.779-3.633.038-7.269-.013-10.9.03-1.006-.043-2.2.179-2.955-.661C7.025,9.4,4.138,6.452,1.216,3.54.53,2.832-.476,1.787.283.772M43.554,1.924A30.575,30.575,0,0,1,48.381.03C49.444-.2,49.9.908,50.424,1.591,48.181,4.914,44.948,7.4,42.215,10.3c-1.19,1.053-2.234,2.8-4.047,2.593-3.922-.005-7.846-.022-11.774-.005-.251-1.176-.874-3.031.58-3.667,5.506-2.478,11.049-4.879,16.581-7.3M9.933,15.58c.78-.862,2.012-.636,3.044-.679,3.655.06,7.31-.047,10.96.069.033,1.163.665,3-.741,3.586-5.716,2.566-11.463,5.061-17.2,7.574A19.4,19.4,0,0,1,1.408,27.8,1.817,1.817,0,0,1,.023,25.86a10.468,10.468,0,0,1,2.366-2.874c2.537-2.444,4.942-5.028,7.544-7.406m16.358-.628c3.808-.072,7.621-.008,11.43-.047.793.059,1.747-.107,2.361.524,2.793,2.611,5.46,5.352,8.184,8.03a8.4,8.4,0,0,1,1.911,2.435,1.716,1.716,0,0,1-2.55,1.651c-6.892-2.841-13.685-5.931-20.5-8.943-1.565-.537-.994-2.427-.836-3.65" transform="translate(0 0)" fill="#cacee6"/></g></svg>