<svg xmlns="http://www.w3.org/2000/svg" width="59.305" height="47.958" viewBox="0 0 59.305 47.958"><g transform="translate(0 0)"><g transform="translate(0 0)"><path d="M54.577,8.706c-.217-.255-.439-.509-.662-.757C47.863,1.419,37.929,0,29.611,0c-8.419,0-18.64,1.419-24.6,8.324-.1.127-.191.255-.28.382C1.8,12.206,0,17.214,0,23.934,0,44.649,16.839,47.958,29.611,47.958c12.861,0,29.694-3.309,29.694-24.023C59.3,17.214,57.51,12.206,54.577,8.706ZM10.31,12.015c3.977-6.147,11.544-7.662,19.3-7.662s15.133,1.419,19.2,7.471c.083.14.166.274.255.413-6.892,4.048-14.726,4.187-19.455,14.344-5.155-9.858-12.9-9.927-19.728-13.829C10.03,12.505,10.169,12.263,10.31,12.015Zm19.3,31.59c-11.448.1-22.229-3.213-22.229-19.671a21.06,21.06,0,0,1,.184-3.5c.058-.235.115-.464.172-.7q5.776,1.957,11.557,3.914c4.544,1.89,7.566,4.537,10.315,10.5,2.743-5.963,5.67-8.985,10.31-10.876q5.822-2.09,11.652-4.175c.025.1.05.2.076.293a34.24,34.24,0,0,1,.28,4.544C51.929,40.391,41.053,43.7,29.611,43.6Z" transform="translate(0 0)" fill="#cacee6" fill-rule="evenodd"/></g></g></svg>