<svg xmlns="http://www.w3.org/2000/svg" width="35.157" height="35.149" viewBox="0 0 35.157 35.149"><g transform="translate(0)"><g transform="translate(0 0)"><path d="M8.79,2.072V32.507A17.706,17.706,0,0,1,2.36,26.08,17.545,17.545,0,0,1,2.36,8.5,17.759,17.759,0,0,1,8.79,2.072Z" transform="translate(0 0.283)" fill="#085eb6"/><path d="M31.985,17.289a17.494,17.494,0,0,1-2.359,8.79,17.718,17.718,0,0,1-6.432,6.427V2.076A17.723,17.723,0,0,1,29.627,8.5,17.484,17.484,0,0,1,31.985,17.289Z" transform="translate(3.171 0.284)" fill="#085eb6"/><path d="M25.309,2.36V32.79a17.55,17.55,0,0,1-17.576,0V2.355a17.558,17.558,0,0,1,17.576,0Z" transform="translate(1.057)" fill="#fee81b"/><g transform="translate(10.542 10.538)"><path d="M21.56,18.057l1.787,1.767V12.79L21.56,14.557h-3.5v-3.5L19.828,9.27H12.793l1.767,1.787v3.5h-3.5L9.274,12.79v7.034l1.787-1.767h3.5v3.5l-1.767,1.787h7.035L18.06,21.556v-3.5Z" transform="translate(-9.274 -9.27)" fill="#d9291c"/><path d="M21.371,15.5H16.7V10.822H15.5V15.5H10.825v1.2H15.5v4.675h1.2V16.692h4.675Z" transform="translate(-9.062 -9.058)" fill="#fff"/></g></g></g></svg>