<svg xmlns="http://www.w3.org/2000/svg" width="61.297" height="39.055" viewBox="0 0 61.297 39.055"><g transform="translate(0 0)"><g transform="translate(0 0)"><path d="M30.648,0C13.722,0,0,8.743,0,19.528S13.722,39.055,30.648,39.055,61.3,30.313,61.3,19.528,47.575,0,30.648,0ZM7.94,11.8c.844,3.528,6.979,6.458,15.281,7.572,0,.165,0,.332,0,.5,0,8.367,2.408,15.387,5.653,17.3C15.4,36.521,4.779,29.091,4.779,20.02A12.858,12.858,0,0,1,7.94,11.8Zm18.328,7.89c1.418.108,2.882.164,4.381.164s2.963-.057,4.381-.164c-.2,6.206-2.085,11.07-4.381,11.07s-4.179-4.864-4.381-11.07Zm11.808-.318c8.491-1.14,14.715-4.178,15.331-7.812a12.955,12.955,0,0,1,3.362,8.462c0,9.132-10.767,16.6-24.364,17.157,3.256-1.89,5.674-8.922,5.674-17.307,0-.167,0-.333,0-.5ZM33.3,3.233c8.488.432,15,2.9,15,5.886,0,2.437-4.34,4.531-10.555,5.453-.677-5.214-2.327-9.4-4.44-11.339ZM34.842,14.9c-1.344.111-2.748.169-4.193.169s-2.849-.058-4.193-.169c.564-4.92,2.228-8.487,4.193-8.487s3.629,3.566,4.193,8.487Zm-11.289-.332C17.337,13.651,13,11.556,13,9.119c0-1.007.741-1.955,2.049-2.786a30.789,30.789,0,0,1,4.978-1.968,41.322,41.322,0,0,1,7.969-1.132c-2.113,1.939-3.764,6.125-4.44,11.339Z" fill="#cacee6" fill-rule="evenodd"/></g></g></svg>