<svg xmlns="http://www.w3.org/2000/svg" width="35.153" height="35.153" viewBox="0 0 35.153 35.153"><g transform="translate(0 0)"><path d="M15.463,0h0Z" transform="translate(2.114)" fill="#231f20"/><path d="M15.464,30.925h0Z" transform="translate(2.112 4.228)" fill="#231f20"/><path d="M34.685,15.462H19.961L3.426,26.486a17.549,17.549,0,0,0,13.666,6.553h.028A17.6,17.6,0,0,0,34.685,15.462Z" transform="translate(0.468 2.114)" fill="#d7141a"/><path d="M3.426,6.557,19.961,17.576H34.685A17.6,17.6,0,0,0,17.108,0h0A17.562,17.562,0,0,0,3.426,6.557Z" transform="translate(0.468)" fill="#fff"/><path d="M20.429,16.787,3.894,5.768A17.483,17.483,0,0,0,0,16.787H0A17.5,17.5,0,0,0,3.894,27.811L20.429,16.787Z" transform="translate(0 0.789)" fill="#11457e"/></g></svg>