<svg xmlns="http://www.w3.org/2000/svg" width="35.153" height="35.149" viewBox="0 0 35.153 35.149"><g transform="translate(0 0)"><path d="M35.153,17.576a17.367,17.367,0,0,1-.348,3.476A17.574,17.574,0,0,1,0,17.576,17.551,17.551,0,0,1,17.576,0,17.545,17.545,0,0,1,34.805,14.1,17.376,17.376,0,0,1,35.153,17.576Z" fill="#fff"/><path d="M35.153,17.576a17.367,17.367,0,0,1-.348,3.476H21.057V34.805a17.811,17.811,0,0,1-6.96,0V21.052H.343a17.788,17.788,0,0,1,0-6.956H14.1V.343a17.811,17.811,0,0,1,6.96,0V14.1H34.805A17.376,17.376,0,0,1,35.153,17.576Z" fill="#cd1223"/></g></svg>