<svg xmlns="http://www.w3.org/2000/svg" width="35.153" height="35.153" viewBox="0 0 35.153 35.153"><g transform="translate(0 0)"><path d="M34.026,20.616a17.577,17.577,0,0,1-33.145,0Z" transform="translate(0.12 2.819)"/><path d="M34.025,11.717H.885a17.575,17.575,0,0,1,33.14,0Z" transform="translate(0.121)" fill="#cd1225"/><path d="M35.153,16.167a17.44,17.44,0,0,1-1.007,5.859H1a17.6,17.6,0,0,1,0-11.717h33.14A17.485,17.485,0,0,1,35.153,16.167Z" transform="translate(0 1.409)" fill="#fff"/><g transform="translate(7.128 14.091)"><g transform="translate(0 0.365)"><path d="M8.509,18a.3.3,0,1,0,.3.3A.3.3,0,0,0,8.509,18Z" transform="translate(-6.007 -11.995)" fill="#00793d"/><path d="M15.507,15.254a2.062,2.062,0,0,1-.193-.1l-.055.035c-.118.086-.265.123-.386.206a.867.867,0,0,0-.182.161,1.053,1.053,0,0,0-.2.363,1.087,1.087,0,0,0-.064.332H11.29l.15-.139c.126-.122.252-.244.383-.367.173-.169.351-.339.529-.508.2-.19.39-.379.588-.565s.375-.358.56-.537c.146-.142.3-.283.442-.425.055-.052.106-.115.161-.166a.525.525,0,0,1,.221-.11c.04-.013.08-.02.118-.036a.4.4,0,0,1-.091-.051,4.147,4.147,0,0,1-.469-.631c.008.008-.039.083-.043.094a.892.892,0,0,1-.248.308c-.115.115-.233.225-.348.335-.153.15-.308.3-.465.446-.174.166-.351.335-.525.5s-.359.343-.54.517c-.163.158-.329.316-.493.474-.134.13-.268.26-.4.386l-.26.248a.841.841,0,0,0-.064.064l.075.659h4.5v-.5c0-.1,0-.206,0-.308,0-.2.284-.28.418-.161a.315.315,0,0,1,.083.24c-.008.289,0,.576,0,.865v.319H9.53V15.874a2.124,2.124,0,0,1-.706.422,1.492,1.492,0,0,1,.15.544v.367H7.6a6.024,6.024,0,0,0-.252-.955,3.091,3.091,0,0,1-.848.588c-.059.024,1.491,1.629-.233,2.478a1.118,1.118,0,0,0,1.378-1h8.565V15.874a.34.34,0,0,0-.051-.111.762.762,0,0,0-.072-.11,1.054,1.054,0,0,0-.181-.189,1.194,1.194,0,0,0-.289-.158C15.582,15.285,15.543,15.27,15.507,15.254Z" transform="translate(-6.271 -12.717)" fill="#00793d"/></g><path d="M16.92,17.01a1.1,1.1,0,0,1-.236.236,1.431,1.431,0,0,1-.418,0V13.553a.411.411,0,0,1,.122-.228c-.114-.04-.8-.521-.8-.521v5.484h1.831C17.188,18.232,16.92,17.01,16.92,17.01Z" transform="translate(-4.997 -12.341)" fill="#00793d"/><path d="M24.364,17.01a1.153,1.153,0,0,1-.233.236,1.429,1.429,0,0,1-.418,0V13.553a.429.429,0,0,1,.118-.228c-.11-.04-.792-.521-.792-.521v5.484h1.827C24.636,18.232,24.364,17.01,24.364,17.01Z" transform="translate(-3.978 -12.341)" fill="#00793d"/><path d="M22.688,13.11l-.264.241c-.059.056-.123.107-.182.161l-.008.008c-.011.013-.027.016-.027.035a.082.082,0,0,0,.008.032.445.445,0,0,1,.019.177v3.181h-.485V13.954a.512.512,0,0,1-.043.04c-.032.031-.07.063-.107.094s-.09.083-.138.126-.094.086-.139.131-.074.063-.11.1a.292.292,0,0,1-.075.056c-.008,0-.016,0-.016.011l.013.036a.577.577,0,0,1,.019.094.378.378,0,0,1,.008.094v2.21h-.489V14.92l-.588.533-.032.035.032.19v.575c-.265-.035-.947-.094-1.239.206-.371.367-.5.808-.233,1.8h4.214V12.988C22.779,13.027,22.736,13.071,22.688,13.11Zm-3.124,4.044a.221.221,0,1,1,.26-.217A.243.243,0,0,1,19.565,17.154Z" transform="translate(-4.603 -12.315)" fill="#00793d"/><path d="M20.532,12.986c-.047-.131-.11-.182-.11-.343s.091-.3.158-.228.063.371.063.481S20.575,13.108,20.532,12.986Z" transform="translate(-4.336 -12.396)" fill="#00793d"/><path d="M19.819,13.51c.024-.02.106.011.138.015a.774.774,0,0,0,.218.013.645.645,0,0,0,.342-.139c.072-.055.131-.185.228-.189a.17.17,0,0,1,.115.059.738.738,0,0,0,.1.091.324.324,0,0,0,.281-.024.516.516,0,0,1,.276-.075.093.093,0,0,1,.034.008.057.057,0,0,1,.02.059c-.027.244-.3.311-.5.26a.544.544,0,0,1-.316-.236c.027.043-.08.161-.107.193a.392.392,0,0,1-.2.13.829.829,0,0,1-.5,0c-.043-.016-.155-.1-.134-.158Z" transform="translate(-4.42 -12.285)" fill="#00793d"/></g></g></svg>