<svg xmlns="http://www.w3.org/2000/svg" width="35" height="35" viewBox="0 0 35 35">
  <g id="Denmark" transform="translate(-344.958 -855.123)">
    <path id="Path_10250" data-name="Path 10250" d="M72.395,87.123a17.5,17.5,0,1,1-17.5,17.5,17.5,17.5,0,0,1,17.5-17.5" transform="translate(290.063 768)" fill="#efefef"/>
    <path id="Path_10251" data-name="Path 10251" d="M68.591,102.34H89.747a17.513,17.513,0,0,0-21.156-14.8Z" transform="translate(290.063 768)" fill="#d70e29"/>
    <path id="Path_10252" data-name="Path 10252" d="M64.026,102.34V89.25a17.511,17.511,0,0,0-8.982,13.09Z" transform="translate(290.063 768)" fill="#d70e29"/>
    <path id="Path_10253" data-name="Path 10253" d="M64.026,106.9H55.044A17.511,17.511,0,0,0,64.026,120Z" transform="translate(290.063 768)" fill="#d70e29"/>
    <path id="Path_10254" data-name="Path 10254" d="M68.591,106.9v14.8a17.513,17.513,0,0,0,21.156-14.8Z" transform="translate(290.063 768)" fill="#d70e29"/>
  </g>
</svg>
