<svg xmlns="http://www.w3.org/2000/svg" width="35.153" height="35.153" viewBox="0 0 35.153 35.153"><g transform="translate(0)"><g transform="translate(0 0)"><path d="M34.03,20.616A17.575,17.575,0,0,1,2.239,23.548,17.24,17.24,0,0,1,.885,20.616Z" transform="translate(0.121 2.819)" fill="#007835"/><path d="M35.153,16.167a17.472,17.472,0,0,1-1,5.859H1.006a17.563,17.563,0,0,1,0-11.717H34.151A17.482,17.482,0,0,1,35.153,16.167Z" transform="translate(0 1.409)" fill="#fedf19"/><path d="M34.03,11.717H.885A17.075,17.075,0,0,1,2.239,8.79,17.6,17.6,0,0,1,34.03,11.717Z" transform="translate(0.121)" fill="#d42b1e"/></g></g></svg>