<svg xmlns="http://www.w3.org/2000/svg" width="35.172" height="35.172" viewBox="0 0 35.172 35.172"><g transform="translate(0)"><g transform="translate(0 0)"><path d="M31.627,6.935H2.783a17.614,17.614,0,0,1,2.13-2.513H29.5A17.467,17.467,0,0,1,31.627,6.935Z" transform="translate(0.38 0.605)" fill="#cb0202"/><path d="M35.172,15.473a17.642,17.642,0,0,1-.182,2.513H.181A17.642,17.642,0,0,1,0,15.473Z" transform="translate(0 2.115)" fill="#fff"/><path d="M34.969,17.684a17.2,17.2,0,0,1-.552,2.509H.711a17.2,17.2,0,0,1-.552-2.509Z" transform="translate(0.022 2.418)" fill="#cb0202"/><path d="M34.35,19.891a17.747,17.747,0,0,1-.966,2.513H1.612a17.218,17.218,0,0,1-.967-2.513Z" transform="translate(0.088 2.72)" fill="#fff"/><path d="M25.608,28.731a17.546,17.546,0,0,1-18.1,0Z" transform="translate(1.027 3.928)" fill="#fff"/><path d="M29.241,26.52A17.6,17.6,0,0,1,26,29.033H7.9A17.671,17.671,0,0,1,4.657,26.52Z" transform="translate(0.637 3.626)" fill="#cb0202"/><path d="M31.627,24.309a17.467,17.467,0,0,1-2.13,2.513H4.913a17.614,17.614,0,0,1-2.13-2.513Z" transform="translate(0.38 3.324)" fill="#fff"/><path d="M33.267,22.1A17.115,17.115,0,0,1,31.8,24.611H2.959A17.007,17.007,0,0,1,1.5,22.1Z" transform="translate(0.205 3.022)" fill="#cb0202"/><path d="M25.608,2.513H7.51a17.535,17.535,0,0,1,18.1,0Z" transform="translate(1.027)" fill="#cb0202"/><path d="M29.241,4.724H4.657A17.671,17.671,0,0,1,7.9,2.211H26A17.6,17.6,0,0,1,29.241,4.724Z" transform="translate(0.637 0.302)" fill="#fff"/><path d="M33.267,9.142H1.5A17.007,17.007,0,0,1,2.959,6.633H31.8A17.115,17.115,0,0,1,33.267,9.142Z" transform="translate(0.205 0.907)" fill="#fff"/><path d="M34.35,11.353H.645A17.419,17.419,0,0,1,1.612,8.84H33.384A17.961,17.961,0,0,1,34.35,11.353Z" transform="translate(0.088 1.209)" fill="#cb0202"/><path d="M34.969,13.564H.159a17.226,17.226,0,0,1,.552-2.513h33.7A17.226,17.226,0,0,1,34.969,13.564Z" transform="translate(0.022 1.511)" fill="#fff"/><path d="M35.172,15.775H0a17.594,17.594,0,0,1,.181-2.513h34.81A17.593,17.593,0,0,1,35.172,15.775Z" transform="translate(0 1.813)" fill="#cb0202"/><path d="M24.113,1.258V20.1H.181a17.565,17.565,0,0,1,0-5.027,17.226,17.226,0,0,1,.552-2.513A17.419,17.419,0,0,1,1.7,10.049,17.007,17.007,0,0,1,3.163,7.54a17.562,17.562,0,0,1,20.95-6.282Z" fill="#040264"/><g transform="translate(5.14 3.823)"><path d="M12.3,15.1a5.51,5.51,0,0,1,0-11.019,5.44,5.44,0,0,1,1.953.359,6.227,6.227,0,1,0,0,10.3A5.44,5.44,0,0,1,12.3,15.1Z" transform="translate(-4.522 -3.363)" fill="#fecb17"/><path d="M16.08,4.283l.552,2.777,1.7-2.265-.71,2.738,2.513-1.3L18.3,8.394l2.829-.083L18.55,9.467l2.584,1.152L18.3,10.536,20.132,12.7l-2.513-1.3.71,2.738-1.7-2.265-.552,2.777-.548-2.777-1.7,2.265.71-2.738-2.513,1.3,1.831-2.162-2.829.083,2.584-1.152L11.03,8.311l2.829.083L12.028,6.236l2.513,1.3L13.831,4.8l1.7,2.265Z" transform="translate(-3.632 -3.237)" fill="#fecb17"/></g></g></g></svg>