<svg xmlns="http://www.w3.org/2000/svg" width="35.157" height="35.153" viewBox="0 0 35.157 35.153"><g transform="translate(0)"><g transform="translate(0 0)"><path d="M29.23,26.506a17.541,17.541,0,0,1-24.576,0Z" transform="translate(0.636 3.624)" fill="#009840"/><path d="M34.953,17.67a17.279,17.279,0,0,1-1.519,5.022H1.674A17.413,17.413,0,0,1,.16,17.67Z" transform="translate(0.022 2.416)" fill="#009840"/><path d="M33.252,22.088a17.655,17.655,0,0,1-3.59,5.022H5.086a17.692,17.692,0,0,1-3.594-5.022Z" transform="translate(0.204 3.02)" fill="#fff"/><path d="M35.157,15.764a17.382,17.382,0,0,1-.182,2.51H.182a17.433,17.433,0,0,1,0-5.023H34.975A17.477,17.477,0,0,1,35.157,15.764Z" transform="translate(0 1.812)" fill="#fff"/><path d="M34.953,13.854H.16A17.293,17.293,0,0,1,1.679,8.837H33.434A17.4,17.4,0,0,1,34.953,13.854Z" transform="translate(0.022 1.208)" fill="#009840"/><path d="M29.225,5.022H4.658a17.528,17.528,0,0,1,24.567,0Z" transform="translate(0.637 0)" fill="#009840"/><path d="M33.251,9.441H1.5A17.539,17.539,0,0,1,5.09,4.418H29.657A17.539,17.539,0,0,1,33.251,9.441Z" transform="translate(0.205 0.604)" fill="#fff"/><g transform="translate(0.182)"><path d="M26.558,2.486V15.063H.16a17.293,17.293,0,0,1,1.519-5.017A17.562,17.562,0,0,1,26.558,2.486Z" transform="translate(-0.16 0)" fill="#c7312a"/><g transform="translate(2.734 1.464)"><path d="M10.717,13.014h2.15a2.478,2.478,0,0,1,.4-.979,7.013,7.013,0,0,0,1.3-1.68,4.954,4.954,0,0,1,.588-1.472c.49-.564.442-.682.4-.864-.035-.15-.414-.158-.773.2s-.439.853-.774,1.065l-.331.214a11.34,11.34,0,0,1-.462-1.594c-.11-.643.024-2.644-.15-2.963s-.588-.556-.588.414-.118,2.131-.118,2.131c.011-.351.011-.7.011-1.05a11.176,11.176,0,0,0-.11-1.744c-.02-.134-.1-.355-.273-.382-.236-.04-.292.284-.327.438a6.009,6.009,0,0,0-.114.958c-.032.552-.028,1.1-.028,1.662,0,.835-.134-2.36-.134-2.36s-.086-.754-.508-.332-.067,2.916-.142,2.916.015-2.4-.627-2.075c-.407.2-.225,2.675-.225,3.751a10.072,10.072,0,0,0,.525,2.577C10.531,12.45,10.717,13.014,10.717,13.014Z" transform="translate(-1.571 -0.875)" fill="#fff"/><path d="M11.823,1.288l.264.809h.852l-.69.5.264.813-.69-.5-.686.5L11.4,2.6l-.69-.5h.852Z" transform="translate(-1.451 -1.288)" fill="#fff"/><path d="M3.681,7.3l.264.813H4.8l-.69.5.265.809-.691-.5-.69.5.264-.809-.69-.5h.852Z" transform="translate(-2.565 -0.466)" fill="#fff"/><path d="M19.97,7.3l.264.813h.852l-.69.5.264.809-.69-.5-.69.5.265-.809-.691-.5h.852Z" transform="translate(-0.338 -0.466)" fill="#fff"/><path d="M5.437,4.2l.264.813h.852l-.69.5.264.809-.69-.5-.686.5.26-.809-.686-.5h.852Z" transform="translate(-2.324 -0.889)" fill="#fff"/><path d="M18.214,4.2l.26.813h.852l-.686.5.26.809-.686-.5-.69.5.264-.809-.69-.5h.852Z" transform="translate(-0.578 -0.889)" fill="#fff"/><path d="M8.4,2.048l.264.813h.852l-.69.5.264.809-.69-.5-.686.5.26-.809-.686-.5h.852Z" transform="translate(-1.92 -1.184)" fill="#fff"/><path d="M15.253,2.048l.26.813h.852l-.686.5.26.809-.686-.5-.69.5.264-.809-.69-.5h.852Z" transform="translate(-0.983 -1.184)" fill="#fff"/></g></g></g></g></svg>