<svg xmlns="http://www.w3.org/2000/svg" width="35.153" height="35.153" viewBox="0 0 35.153 35.153"><g transform="translate(0 0)"><path d="M14.022.312V14.019H.312A17.629,17.629,0,0,1,14.022.312Z" transform="translate(0.043 0.043)" fill="#022d61"/><path d="M14.022,18.555v13.71A17.628,17.628,0,0,1,.312,18.555Z" transform="translate(0.043 2.537)" fill="#cd1225"/><path d="M32.265,14.019H18.555V.312A17.629,17.629,0,0,1,32.265,14.019Z" transform="translate(2.537 0.043)" fill="#cd1225"/><path d="M32.265,18.555a17.634,17.634,0,0,1-13.71,13.71V18.555Z" transform="translate(2.537 2.537)" fill="#022d61"/><path d="M35.153,17.576a17.826,17.826,0,0,1-.351,3.516H21.092V34.8a17.749,17.749,0,0,1-7.027,0V21.092H.355a17.6,17.6,0,0,1,0-7.031h13.71V.355a17.582,17.582,0,0,1,7.027,0V14.061H34.8A17.814,17.814,0,0,1,35.153,17.576Z" fill="#fff"/><g transform="translate(14.247 14.331)"><g transform="translate(0.102 1.608)"><g transform="translate(0 0.201)"><g transform="translate(0.075 2.163)"><path d="M13.174,16.2a.361.361,0,0,1-.485-.008A.384.384,0,0,1,13.174,16.2Z" transform="translate(-12.689 -16.102)" fill="#006206"/><path d="M13.113,16.192a.331.331,0,0,1-.379,0c.118-.043.276-.1.383-.016l-.26.016Z" transform="translate(-12.683 -16.099)" fill="#00853e"/></g><g transform="translate(1.246 2.991)"><path d="M13.757,17.292a.357.357,0,0,1,.13-.462A.378.378,0,0,1,13.757,17.292Z" transform="translate(-13.719 -16.83)" fill="#006206"/><path d="M13.767,17.235a.331.331,0,0,1,.1-.364c.011.127.032.292-.08.375.044-.248.048-.256.048-.256Z" transform="translate(-13.715 -16.824)" fill="#00853e"/></g><path d="M13.43,14.565c-.024.1-.059.238-.1.41a5.058,5.058,0,0,0-.118.718,2.982,2.982,0,0,0,.059.824,3.278,3.278,0,0,0,.332.853,1.008,1.008,0,0,0,.161.252,1.225,1.225,0,0,0,.521.319c.174.059.356.064.529.107a3.213,3.213,0,0,1,.509.2c.139.059.268.126.407.181a5.469,5.469,0,0,1,.639.276c.019.008.059.028.063.064a.056.056,0,0,1-.031.055c-.059.04-.166-.035-.2-.055-.2-.134-.442-.2-.655-.319a5.014,5.014,0,0,0-.664-.289c-.13-.047-.259-.075-.394-.11s-.252-.056-.374-.1a.956.956,0,0,1-.474-.433,3.232,3.232,0,0,1-.379-.88,2.914,2.914,0,0,1-.094-.506,3.134,3.134,0,0,1,.035-.738,5.269,5.269,0,0,1,.174-.789S13.446,14.514,13.43,14.565Z" transform="translate(-12.55 -14.151)" fill="#006206"/><g transform="translate(0.359 3.21)"><path d="M13.535,17.217a.35.35,0,0,1-.351.016,1.01,1.01,0,0,1-.244-.189A.577.577,0,0,1,13.535,17.217Z" transform="translate(-12.939 -17.023)" fill="#006206"/><path d="M13.46,17.188a.221.221,0,0,0-.107-.094.443.443,0,0,0-.193-.019.81.81,0,0,1-.138,0,.064.064,0,0,1-.027,0h0a1.187,1.187,0,0,0,.244.153.276.276,0,0,0,.228-.016h0l-.174-.035-.083.008.04-.016-.086-.04.3.067" transform="translate(-12.931 -17.017)" fill="#00853e"/></g><g transform="translate(0.985 0.995)"><path d="M13.582,15.689a.342.342,0,0,1-.07-.343.919.919,0,0,1,.146-.272A.567.567,0,0,1,13.582,15.689Z" transform="translate(-13.49 -15.074)" fill="#006206"/><path d="M13.594,15.61a.226.226,0,0,0,.07-.123.384.384,0,0,0-.008-.19.854.854,0,0,1-.019-.142v-.023h0a1.027,1.027,0,0,0-.115.264.308.308,0,0,0,.056.225h0l.008-.177-.024-.08.024.032.027-.091-.019.3" transform="translate(-13.486 -15.066)" fill="#00853e"/></g><g transform="translate(0.62 1.333)"><path d="M13.168,15.774a.349.349,0,0,1,.182-.3.929.929,0,0,1,.292-.1S13.516,15.763,13.168,15.774Z" transform="translate(-13.168 -15.372)" fill="#006206"/><path d="M13.219,15.726a.209.209,0,0,0,.138-.04.369.369,0,0,0,.123-.146.8.8,0,0,1,.083-.115l.016-.019h0a1.1,1.1,0,0,0-.261.114.33.33,0,0,0-.118.2h0l.126-.122.04-.075-.008.04.083-.048-.225.209" transform="translate(-13.164 -15.367)" fill="#00853e"/></g><g transform="translate(0.726 0.619)"><path d="M13.262,15.079a.348.348,0,0,1,.221-.276.848.848,0,0,1,.3-.059A.574.574,0,0,1,13.262,15.079Z" transform="translate(-13.262 -14.744)" fill="#006206"/><path d="M13.319,15.041a.22.22,0,0,0,.142-.02.4.4,0,0,0,.139-.13.527.527,0,0,1,.1-.1l.015-.02h0a1.183,1.183,0,0,0-.272.083.321.321,0,0,0-.142.185h0l.142-.107.044-.067-.013.04.088-.04-.246.178" transform="translate(-13.257 -14.74)" fill="#00853e"/></g><g transform="translate(0.92 2.031)"><path d="M13.443,16.492a.441.441,0,0,1,.107-.308c.115-.094.3-.161.316-.2a.832.832,0,0,1-.1.313.465.465,0,0,1-.224.173.347.347,0,0,0-.115.056Z" transform="translate(-13.432 -15.986)" fill="#006206"/><path d="M13.467,16.43a.26.26,0,0,1,.039-.139.226.226,0,0,1,.158-.142.36.36,0,0,0,.147-.086.346.346,0,0,1-.04.15.774.774,0,0,1-.225.217.523.523,0,0,0-.078.031s.161-.169.185-.2a.569.569,0,0,0,.047-.075l-.059.051L13.62,16.2s.013.059-.011.086A.714.714,0,0,1,13.467,16.43Z" transform="translate(-13.427 -15.975)" fill="#00853e"/></g><g transform="translate(0.067 1.681)"><path d="M13.108,16.183A.435.435,0,0,0,13,15.875c-.118-.094-.3-.166-.319-.2a.847.847,0,0,0,.1.307.486.486,0,0,0,.228.177.4.4,0,0,1,.11.052Z" transform="translate(-12.682 -15.678)" fill="#006206"/><path d="M13.07,16.122a.275.275,0,0,0-.035-.139c-.043-.07-.04-.1-.158-.146a.353.353,0,0,1-.15-.088.42.42,0,0,0,.04.15.793.793,0,0,0,.225.222.284.284,0,0,1,.078.031s-.161-.169-.185-.2a.394.394,0,0,1-.043-.078l.059.056.016-.04a.136.136,0,0,0,.016.086A.956.956,0,0,0,13.07,16.122Z" transform="translate(-12.676 -15.668)" fill="#00853e"/></g><g transform="translate(0.667 0.912)"><path d="M13.218,15.415a.345.345,0,0,1,.1-.252c.1-.078.265-.138.276-.161a.627.627,0,0,1-.078.252.436.436,0,0,1-.2.146.335.335,0,0,0-.1.043Z" transform="translate(-13.21 -15.001)" fill="#006206"/><path d="M13.241,15.364a.224.224,0,0,1,.035-.11.192.192,0,0,1,.139-.123.273.273,0,0,0,.131-.07.246.246,0,0,1-.036.122.633.633,0,0,1-.2.182.479.479,0,0,0-.07.027s.142-.138.166-.166a.366.366,0,0,0,.039-.063l-.051.043-.016-.032a.1.1,0,0,1-.011.072A.916.916,0,0,1,13.241,15.364Z" transform="translate(-13.206 -14.993)" fill="#00853e"/></g><g transform="translate(1.898 3.393)"><path d="M14.525,17.728a.28.28,0,0,1-.2-.155.5.5,0,0,1,.032-.39c.031.055.043.15.091.181A.267.267,0,0,1,14.525,17.728Z" transform="translate(-14.293 -17.184)" fill="#006206"/><path d="M14.5,17.673a.172.172,0,0,1-.147-.088.871.871,0,0,1-.011-.315s.024.11.1.138.075.276.075.276l-.059-.193-.008.035-.043-.051.035.083h-.019l.035.016Z" transform="translate(-14.288 -17.172)" fill="#00853e"/></g><g transform="translate(0.584 3.273)"><path d="M13.638,17.092a.274.274,0,0,1-.111.228.537.537,0,0,1-.39.048c.051-.043.138-.07.161-.126A.263.263,0,0,1,13.638,17.092Z" transform="translate(-13.137 -17.078)" fill="#006206"/><path d="M13.587,17.116a.179.179,0,0,1-.056.163.932.932,0,0,1-.307.075s.1-.048.114-.131.257-.122.257-.122l-.177.09.035,0-.043.051.078-.051v.019l.013-.04Z" transform="translate(-13.125 -17.075)" fill="#00853e"/></g><g transform="translate(0.336 2.756)"><path d="M13.416,16.637a.263.263,0,0,1-.107.23.5.5,0,0,1-.39.047c.047-.039.138-.07.161-.126A.26.26,0,0,1,13.416,16.637Z" transform="translate(-12.919 -16.624)" fill="#006206"/><path d="M13.368,16.665a.168.168,0,0,1-.055.158.835.835,0,0,1-.308.075s.1-.048.115-.126.256-.126.256-.126l-.177.094h.035l-.043.051.075-.047,0,.016.011-.04Z" transform="translate(-12.907 -16.62)" fill="#00853e"/></g><g transform="translate(1.116 3.717)"><path d="M14.173,17.551a.264.264,0,0,1-.2.158.516.516,0,0,1-.372-.13c.064-.016.155,0,.2-.04A.26.26,0,0,1,14.173,17.551Z" transform="translate(-13.605 -17.469)" fill="#006206"/><path d="M14.119,17.557a.168.168,0,0,1-.122.118.889.889,0,0,1-.308-.067.212.212,0,0,0,.158-.067c.047-.067.288,0,.288,0l-.2,0,.027.016-.059.027.091-.011-.008.019.027-.032Z" transform="translate(-13.594 -17.463)" fill="#00853e"/></g><g transform="translate(1.176 3.152)"><path d="M13.89,17.516a.273.273,0,0,1-.2-.153.525.525,0,0,1,.027-.391c.032.056.043.15.094.182A.268.268,0,0,1,13.89,17.516Z" transform="translate(-13.658 -16.972)" fill="#006206"/><path d="M13.861,17.461a.173.173,0,0,1-.146-.086.831.831,0,0,1-.016-.316s.027.11.107.138.072.276.072.276l-.056-.193-.008.032-.043-.051.031.086h-.015l.035.016Z" transform="translate(-13.653 -16.96)" fill="#00853e"/></g><g transform="translate(1.073 1.455)"><path d="M13.567,15.606a.273.273,0,0,0,.23.11.522.522,0,0,0,.331-.206c-.063,0-.15.028-.2,0A.26.26,0,0,0,13.567,15.606Z" transform="translate(-13.567 -15.479)" fill="#006206"/><path d="M13.611,15.6a.17.17,0,0,0,.146.091.866.866,0,0,0,.284-.134.209.209,0,0,1-.169-.028c-.059-.055-.28.064-.28.064l.2-.04-.024.024.064.011-.091.013.011.016-.035-.024Z" transform="translate(-13.564 -15.474)" fill="#00853e"/></g><g transform="translate(0.866 1.819)"><path d="M13.478,16.351a.269.269,0,0,1-.091-.236.525.525,0,0,1,.236-.316c0,.067-.043.15-.024.2A.258.258,0,0,1,13.478,16.351Z" transform="translate(-13.385 -15.799)" fill="#006206"/><path d="M13.479,16.294a.167.167,0,0,1-.075-.15.835.835,0,0,1,.155-.272.208.208,0,0,0,.015.169c.048.064-.086.273-.086.273l.056-.193-.024.023-.008-.067-.02.091-.011-.011.019.035Z" transform="translate(-13.383 -15.789)" fill="#00853e"/></g><g transform="translate(0.433 1.791)"><path d="M13.234,16.315a.26.26,0,0,1-.2-.15.5.5,0,0,1,.028-.39c.031.055.043.146.09.181A.262.262,0,0,1,13.234,16.315Z" transform="translate(-13.004 -15.775)" fill="#006206"/><path d="M13.2,16.263a.162.162,0,0,1-.141-.086.831.831,0,0,1-.016-.316s.027.111.1.139.075.276.075.276l-.059-.193-.008.032-.04-.052.032.088-.019,0,.039.02Z" transform="translate(-12.999 -15.763)" fill="#00853e"/></g><g transform="translate(0.597 0.438)"><path d="M13.289,14.97a.18.18,0,0,1-.13-.118.352.352,0,0,1,.047-.268c.016.04.02.1.051.131A.186.186,0,0,1,13.289,14.97Z" transform="translate(-13.148 -14.584)" fill="#006206"/><path d="M13.27,14.935a.121.121,0,0,1-.094-.07.691.691,0,0,1,.011-.222s.013.08.064.1.032.2.032.2l-.024-.138-.008.023-.027-.039.016.059h-.013l.024.016Z" transform="translate(-13.145 -14.576)" fill="#00853e"/></g><g transform="translate(0.465 0.923)"><path d="M13.21,15.426a.218.218,0,0,1-.158-.115.391.391,0,0,1,.024-.3c.024.043.032.115.07.142A.2.2,0,0,1,13.21,15.426Z" transform="translate(-13.032 -15.011)" fill="#006206"/><path d="M13.187,15.385a.13.13,0,0,1-.111-.067.654.654,0,0,1-.011-.236s.019.082.078.1.059.209.059.209l-.043-.147-.008.028-.031-.04.023.063h-.011l.027.013Z" transform="translate(-13.028 -15.001)" fill="#00853e"/></g><g transform="translate(0.464 0.493)"><path d="M13.262,15.173a.273.273,0,0,1-.2-.15.5.5,0,0,1,.027-.39c.032.055.044.146.092.181A.264.264,0,0,1,13.262,15.173Z" transform="translate(-13.032 -14.633)" fill="#006206"/><path d="M13.233,15.118a.164.164,0,0,1-.142-.086.807.807,0,0,1-.016-.311s.028.11.1.138.075.273.075.273l-.059-.194-.008.036-.04-.051.032.082h-.02l.04.02Z" transform="translate(-13.027 -14.621)" fill="#00853e"/></g><g transform="translate(0.477 2.406)"><path d="M13.422,16.7a.336.336,0,0,0-.078-.241.609.609,0,0,0-.3-.142.681.681,0,0,0,.115.273A.453.453,0,0,0,13.422,16.7Z" transform="translate(-13.043 -16.316)" fill="#006206"/><path d="M13.393,16.653a.308.308,0,0,0-.3-.292c.016.1.139.311.289.3a1.071,1.071,0,0,1-.2-.213c.074.064.118.1.118.1v-.064S13.353,16.642,13.393,16.653Z" transform="translate(-13.037 -16.31)" fill="#00853e"/></g><g transform="translate(0.721 2.106)"><path d="M13.349,16.589a.311.311,0,0,1-.091-.232.646.646,0,0,1,.134-.3.708.708,0,0,1,.091.281A.447.447,0,0,1,13.349,16.589Z" transform="translate(-13.258 -16.052)" fill="#006206"/><path d="M13.339,16.533a.305.305,0,0,1,.048-.418c.048.083.094.331-.027.418a1.023,1.023,0,0,0,.024-.292c-.02.094-.028.15-.028.15l-.043-.048S13.367,16.5,13.339,16.533Z" transform="translate(-13.255 -16.043)" fill="#00853e"/></g><g transform="translate(1.561 3.358)"><path d="M14.128,17.63a.371.371,0,0,1-.083-.477A.378.378,0,0,1,14.128,17.63Z" transform="translate(-13.996 -17.153)" fill="#006206"/><path d="M14.117,17.568a.328.328,0,0,1-.07-.367c.067.1.158.249.094.367-.067-.241-.07-.249-.07-.249Z" transform="translate(-13.993 -17.146)" fill="#00853e"/></g><g transform="translate(1.391 3.254)"><path d="M13.885,17.528a.362.362,0,0,1,.131-.466C14.054,17.153,14.089,17.426,13.885,17.528Z" transform="translate(-13.847 -17.062)" fill="#006206"/><path d="M13.9,17.471a.332.332,0,0,1,.1-.364c.013.123.032.292-.078.372.043-.244.048-.257.048-.257Z" transform="translate(-13.843 -17.056)" fill="#00853e"/></g><g transform="translate(1.024 2.916)"><path d="M13.66,17.237a.358.358,0,0,1-.088-.473A.378.378,0,0,1,13.66,17.237Z" transform="translate(-13.524 -16.764)" fill="#006206"/><path d="M13.649,17.18a.326.326,0,0,1-.072-.371c.067.107.155.249.091.371l-.07-.252Z" transform="translate(-13.521 -16.758)" fill="#00853e"/></g><g transform="translate(0.604 2.976)"><path d="M13.58,17.049a.365.365,0,0,1-.426-.225A.371.371,0,0,1,13.58,17.049Z" transform="translate(-13.154 -16.817)" fill="#006206"/><path d="M13.527,17.017a.327.327,0,0,1-.335-.173c.126.016.292.035.348.158-.228-.1-.241-.1-.241-.1Z" transform="translate(-13.149 -16.813)" fill="#00853e"/></g><g transform="translate(0.833 0.333)"><path d="M13.356,14.625a.358.358,0,0,1,.473-.083A.373.373,0,0,1,13.356,14.625Z" transform="translate(-13.355 -14.492)" fill="#006206"/><path d="M13.4,14.614a.335.335,0,0,1,.371-.072c-.107.067-.248.153-.371.091.241-.067.252-.067.252-.067Z" transform="translate(-13.349 -14.489)" fill="#00853e"/></g><g transform="translate(0.946 2.444)"><path d="M13.456,16.485a.364.364,0,0,1,.477-.088A.38.38,0,0,1,13.456,16.485Z" transform="translate(-13.456 -16.349)" fill="#006206"/><path d="M13.5,16.474a.328.328,0,0,1,.367-.072c-.1.067-.249.155-.367.091.241-.067.248-.067.248-.067Z" transform="translate(-13.449 -16.346)" fill="#00853e"/></g><g transform="translate(0.817 0.118)"><path d="M13.342,14.694a.343.343,0,0,1,.19-.3.936.936,0,0,1,.291-.094S13.689,14.689,13.342,14.694Z" transform="translate(-13.342 -14.303)" fill="#006206"/><path d="M13.4,14.65a.223.223,0,0,0,.138-.04.355.355,0,0,0,.123-.142.807.807,0,0,1,.086-.114l.016-.02h0a1.094,1.094,0,0,0-.265.115.3.3,0,0,0-.118.2h0l.131-.123.04-.072-.008.04.083-.048-.225.206" transform="translate(-13.337 -14.299)" fill="#00853e"/></g><g transform="translate(0.702)"><path d="M13.335,14.736a.331.331,0,0,1-.094-.233.621.621,0,0,1,.138-.3.708.708,0,0,1,.091.28A.452.452,0,0,1,13.335,14.736Z" transform="translate(-13.241 -14.199)" fill="#006206"/><path d="M13.325,14.684a.311.311,0,0,1,.048-.423c.048.083.094.332-.027.423a.958.958,0,0,0,.019-.3c-.016.1-.024.15-.024.15l-.043-.047S13.348,14.649,13.325,14.684Z" transform="translate(-13.238 -14.191)" fill="#00853e"/></g><g transform="translate(1.716 3.329)"><path d="M14.227,17.665a.33.33,0,0,1-.094-.232.6.6,0,0,1,.138-.3.7.7,0,0,1,.088.281A.45.45,0,0,1,14.227,17.665Z" transform="translate(-14.133 -17.128)" fill="#006206"/><path d="M14.217,17.609a.306.306,0,0,1,.048-.418c.048.083.091.331-.027.418a1.078,1.078,0,0,0,.019-.3c-.016.1-.027.155-.027.155l-.04-.048S14.24,17.577,14.217,17.609Z" transform="translate(-14.13 -17.119)" fill="#00853e"/></g><g transform="translate(0.371 1.472)"><path d="M13.191,15.991a1.789,1.789,0,0,0-.068-.257.663.663,0,0,0-.174-.2l.028-.035a.619.619,0,0,1,.189.221,1.363,1.363,0,0,1,.072.268Z" transform="translate(-12.949 -15.494)" fill="#006206"/></g><g transform="translate(0.284 1.006)"><path d="M13.058,15.688a.35.35,0,0,1-.185-.3.844.844,0,0,1,.048-.3A.575.575,0,0,1,13.058,15.688Z" transform="translate(-12.873 -15.084)" fill="#006206"/><path d="M13.043,15.609a.209.209,0,0,0,.027-.139A.368.368,0,0,0,13,15.293a1.184,1.184,0,0,1-.063-.126.043.043,0,0,1-.011-.024h0a1.483,1.483,0,0,0-.017.288.3.3,0,0,0,.126.193h0l-.051-.169-.047-.067.031.024,0-.094.083.292" transform="translate(-12.869 -15.076)" fill="#00853e"/></g><g transform="translate(0.052 0.824)"><path d="M12.9,15.468a.273.273,0,0,1-.2-.153.509.509,0,0,1,.031-.391c.028.059.044.15.091.185A.263.263,0,0,1,12.9,15.468Z" transform="translate(-12.669 -14.924)" fill="#006206"/><path d="M12.872,15.413a.172.172,0,0,1-.146-.086.884.884,0,0,1-.016-.311.209.209,0,0,0,.107.134c.075.027.07.276.07.276l-.055-.194-.008.036-.044-.051.036.082H12.8l.036.02Z" transform="translate(-12.664 -14.912)" fill="#00853e"/></g><g transform="translate(0 1.293)"><path d="M13.025,15.61a.367.367,0,0,1-.4-.273C12.722,15.329,12.99,15.385,13.025,15.61Z" transform="translate(-12.623 -15.336)" fill="#006206"/><path d="M12.974,15.574a.333.333,0,0,1-.313-.209c.123.027.289.064.327.193-.216-.118-.228-.126-.228-.126Z" transform="translate(-12.618 -15.332)" fill="#00853e"/></g><path d="M13.224,16.4c0-.011,0-.023.008-.039a.12.12,0,0,1,0-.035.745.745,0,0,1,.016-.075c0-.024.011-.048.016-.072l.011-.035.013-.035a.58.58,0,0,1,.023-.072,935922660642.314,935922660642.314,0,0,1,.032-.07c.013-.024.024-.043.035-.067l0-.008.008-.008,0-.008,0-.008.008-.008.008-.008a.064.064,0,0,1,.011-.016v0h0l0,0,0-.008.007,0,0,0v0l.027-.027.024-.028.024-.027c.032-.04.063-.075.094-.115.059-.078.123-.158.182-.232l0,0c-.051.083-.106.166-.165.244-.028.043-.056.083-.088.123l-.019.032-.024.027a.2.2,0,0,1-.024.027l0,0,0,0,0,.008-.008.008,0,0h0v0l-.011.011,0,.008,0,.008,0,0-.008.008,0,.008,0,.008c-.008.023-.02.043-.028.067-.019.043-.035.09-.055.138l-.024.067c-.011.024-.019.048-.027.067-.019.048-.04.094-.059.138Z" transform="translate(-12.541 -14.038)" fill="#006206"/><g transform="translate(0.636 1.645)"><path d="M13.217,16.187a.278.278,0,0,0,.206-.15.528.528,0,0,0-.027-.391c-.032.056-.044.147-.091.182A.262.262,0,0,0,13.217,16.187Z" transform="translate(-13.182 -15.646)" fill="#006206"/><path d="M13.236,16.132a.167.167,0,0,0,.146-.088.785.785,0,0,0,.016-.311s-.027.11-.106.139-.072.272-.072.272l.056-.193.008.035.043-.051-.032.083h.016l-.035.019Z" transform="translate(-13.177 -15.634)" fill="#00853e"/></g><g transform="translate(0.817 2.375)"><path d="M13.436,16.825a.321.321,0,0,1-.094-.232.627.627,0,0,1,.138-.3.727.727,0,0,1,.088.281A.45.45,0,0,1,13.436,16.825Z" transform="translate(-13.342 -16.288)" fill="#006206"/><path d="M13.426,16.769a.306.306,0,0,1,.048-.418c.047.083.091.331-.028.418a1.069,1.069,0,0,0,.02-.292c-.016.094-.028.15-.028.15l-.039-.048S13.449,16.737,13.426,16.769Z" transform="translate(-13.339 -16.279)" fill="#00853e"/></g><g transform="translate(1.157 1.097)"><path d="M13.648,15.574a.369.369,0,0,1,.26-.41C13.921,15.263,13.873,15.531,13.648,15.574Z" transform="translate(-13.64 -15.164)" fill="#006206"/><path d="M13.675,15.521a.333.333,0,0,1,.2-.319c-.023.123-.051.288-.181.335l.118-.233Z" transform="translate(-13.636 -15.159)" fill="#00853e"/></g><path d="M16.027,18.269c0,.008,0,.024,0,.035a.072.072,0,0,1-.088,0s-.023-.024-.019-.048a.064.064,0,0,1,.051-.035A.067.067,0,0,1,16.027,18.269Z" transform="translate(-12.173 -13.65)" fill="#e9c015"/></g><path d="M16.535,18.073a.1.1,0,0,0,.043.04.872.872,0,0,0,.063-.122.221.221,0,0,0,.028.027l-.013,0a.107.107,0,0,0,.043.083h.02a.147.147,0,0,0,.047.051.419.419,0,0,0,.028-.059,1.966,1.966,0,0,1,.564.024,1,1,0,0,0-.292-.083,1.45,1.45,0,0,1,.4.027,1.217,1.217,0,0,0-.386-.09,1.66,1.66,0,0,1,.466.023,1,1,0,0,0-.241-.07,2.473,2.473,0,0,1,.714.043,1.953,1.953,0,0,0-.655-.15,2.557,2.557,0,0,1,.8.04,1.954,1.954,0,0,0-.687-.158,2.617,2.617,0,0,1,.746-.276,1.43,1.43,0,0,0-.41.048l.008-.016a3.352,3.352,0,0,0,1.025-.517,4.2,4.2,0,0,1-.947.356.2.2,0,0,0,.008-.024,5.645,5.645,0,0,0,.62-.4c.008.016.02.04.032.059,0-.031,0-.063.008-.09a1.479,1.479,0,0,0,.327-.313,1.91,1.91,0,0,1-.331.238c-.02-.178-.142-.134-.348-.028-.008,0-.011,0-.016.008V16.7l0,0v0a1.077,1.077,0,0,1,.169-.2c.233-.209.272-.091.359.067.04-.363-.091-.323-.343-.193a.6.6,0,0,0-.166.126.726.726,0,0,1,.035-.134,2.42,2.42,0,0,1,.509-.284,1.872,1.872,0,0,0-.462.177,1.418,1.418,0,0,1,.481-.5.659.659,0,0,0-.331.139,1.661,1.661,0,0,1,.331-.276.633.633,0,0,0-.417.217,1.852,1.852,0,0,0-.177.189.052.052,0,0,0-.009-.024,4.188,4.188,0,0,1,.375-.56.474.474,0,0,1,.123.171c.035-.364-.094-.324-.348-.193a.524.524,0,0,0-.118.083,2.492,2.492,0,0,1,.319-.415,2.023,2.023,0,0,0-.457.474,1.153,1.153,0,0,1-.028-.166,2.682,2.682,0,0,1,.4-.544.993.993,0,0,0-.2.169,2.418,2.418,0,0,1,.316-.406,1.235,1.235,0,0,0-.313.3c-.047-.075-.083-.1-.114-.091a.8.8,0,0,1,.106-.2,1.651,1.651,0,0,0-.224.347l0,.011-.011.02c-.043.086-.083.169-.115.244a.246.246,0,0,0-.035-.027,3.7,3.7,0,0,1,.3-.722,1.888,1.888,0,0,0-.252.406,2.229,2.229,0,0,1,.213-.521,2.183,2.183,0,0,0-.272.469,2.3,2.3,0,0,1,.086-.549,1.889,1.889,0,0,0-.153.522,2.169,2.169,0,0,1-.115-.544,2.32,2.32,0,0,0,.056.623c-.019-.048-.04-.1-.051-.13a2.055,2.055,0,0,1-.115-.552,1.411,1.411,0,0,0,0,.315,2.5,2.5,0,0,0-.308-.5,2.983,2.983,0,0,1,.3.695,1.665,1.665,0,0,0-.174-.252,1.325,1.325,0,0,1,.07.122,1.3,1.3,0,0,0-.209-.284,1.654,1.654,0,0,1,.206.394,1.5,1.5,0,0,0-.166-.232,1.913,1.913,0,0,1,.177.351,2.43,2.43,0,0,0-.493-.284,2.809,2.809,0,0,1,.549.426h0a1.361,1.361,0,0,0-.28-.139,1.745,1.745,0,0,1,.3.206.719.719,0,0,0,.024.07,2.207,2.207,0,0,0-.49-.276,2.091,2.091,0,0,1,.386.276,3.214,3.214,0,0,0-.469-.217,3.468,3.468,0,0,1,.664.537h.007a.506.506,0,0,0,.008.075l-.059-.024a2.35,2.35,0,0,0-.462-.371,1.966,1.966,0,0,1,.327.319,2.175,2.175,0,0,0-.418-.11,2.446,2.446,0,0,1,.506.213c.047.064.091.118.118.158,0,.072,0,.142,0,.206a1.928,1.928,0,0,0-.252-.391,2.362,2.362,0,0,1,.209.426.05.05,0,0,0-.024-.008,2.126,2.126,0,0,0-.268-.418,2.027,2.027,0,0,1,.2.394,1.577,1.577,0,0,0-.315-.063,2.247,2.247,0,0,1,.335.114,3.45,3.45,0,0,1,.11.343s.027.016.075.048c-.016.035-.028.067-.04.091a.364.364,0,0,0-.016-.075c-.091-.268-.15-.391-.383-.107.174-.051.284-.107.3.206a1.142,1.142,0,0,1-.04.311,2.394,2.394,0,0,0-.288-.462,2.72,2.72,0,0,1,.26.575c-.011.04-.024.075-.036.111a1.011,1.011,0,0,0-.031-.186c-.11-.425-.356-.07-.375-.043a.277.277,0,0,0-.027-.047,1.68,1.68,0,0,1,.1.529,5.572,5.572,0,0,1-.224.575s-.008,0-.016,0a2.589,2.589,0,0,0,.2-.832,2.167,2.167,0,0,1-.149.484,1.394,1.394,0,0,0,.011-.157v-.02a1.045,1.045,0,0,1-.123.324.879.879,0,0,0,.043-.257,1.686,1.686,0,0,1-.181.439,1.081,1.081,0,0,0,.07-.356,1.391,1.391,0,0,1-.174.423,1.351,1.351,0,0,0,.107-.5,2.781,2.781,0,0,1-.327.741,5.407,5.407,0,0,0-.537.222c-.134.059-.268.126-.406.181a5.486,5.486,0,0,0-.64.276c-.019.008-.059.028-.063.064a.061.061,0,0,0,.035.055c.056.04.166-.035.2-.055.2-.134.446-.2.658-.319a7.737,7.737,0,0,1,.746-.321S16.514,18.14,16.535,18.073Zm1.782-2.536c.107-.1.174-.123.222-.11a3,3,0,0,0-.394.465c-.013-.027-.024-.056-.036-.086A1.205,1.205,0,0,1,18.317,15.537ZM18.2,16.866c.166-.15.233-.13.289-.055-.147.086-.3.169-.447.236A1.088,1.088,0,0,1,18.2,16.866Zm-.15-1.83c.044-.174.1-.158.186-.115a3.059,3.059,0,0,0-.2.252A1.308,1.308,0,0,1,18.049,15.036Zm-.757,2.383a2.48,2.48,0,0,0-.2-.671C17.509,16.4,17.351,17.171,17.292,17.419Z" transform="translate(-12.332 -14.022)" fill="#006106"/><path d="M17.7,17.318a6.042,6.042,0,0,0,.529-.343l.027.051c0-.028,0-.056,0-.08a1.13,1.13,0,0,0,.284-.268,1.947,1.947,0,0,1-.284.206c-.019-.155-.126-.115-.3-.024l-.013,0v-.035l0,0v0a.793.793,0,0,1,.142-.174c.2-.177.236-.078.311.056.032-.308-.078-.276-.3-.166a.566.566,0,0,0-.146.11A.758.758,0,0,1,18,16.536a1.912,1.912,0,0,1,.433-.244,1.581,1.581,0,0,0-.394.15,1.182,1.182,0,0,1,.41-.43.537.537,0,0,0-.284.118,1.831,1.831,0,0,1,.284-.241.542.542,0,0,0-.355.19,1.19,1.19,0,0,0-.155.161c0-.008,0-.011,0-.019a2.953,2.953,0,0,1,.319-.482.386.386,0,0,1,.1.147c.031-.313-.08-.276-.3-.166a.551.551,0,0,0-.1.07,2.042,2.042,0,0,1,.272-.355,1.758,1.758,0,0,0-.39.406c0-.023-.016-.078-.024-.142a2.428,2.428,0,0,1,.343-.469.807.807,0,0,0-.174.147,1.962,1.962,0,0,1,.273-.348,1.05,1.05,0,0,0-.268.253c-.04-.064-.072-.083-.1-.075a.6.6,0,0,1,.094-.178,1.366,1.366,0,0,0-.193.3l-.008.011a.037.037,0,0,0-.008.02c-.04.07-.07.141-.1.2a.24.24,0,0,0-.031-.024,3.3,3.3,0,0,1,.256-.62,1.644,1.644,0,0,0-.221.351,1.958,1.958,0,0,1,.185-.446,1.759,1.759,0,0,0-.233.4,1.766,1.766,0,0,1,.075-.469,1.615,1.615,0,0,0-.134.446,1.947,1.947,0,0,1-.094-.469,1.937,1.937,0,0,0,.043.537c-.016-.04-.032-.083-.043-.11a1.97,1.97,0,0,1-.1-.473,1.026,1.026,0,0,0,0,.268,1.977,1.977,0,0,0-.265-.423,2.386,2.386,0,0,1,.257.592,1.531,1.531,0,0,0-.147-.217c.02.032.04.067.06.1a1.237,1.237,0,0,0-.178-.241,1.475,1.475,0,0,1,.174.34,1.217,1.217,0,0,0-.142-.2,1.457,1.457,0,0,1,.153.3,1.993,1.993,0,0,0-.422-.244,2.367,2.367,0,0,1,.469.367h0a1.146,1.146,0,0,0-.241-.123,1.678,1.678,0,0,1,.26.177c.008.024.016.043.02.064a1.971,1.971,0,0,0-.418-.241,2.048,2.048,0,0,1,.331.236,2.782,2.782,0,0,0-.4-.185,2.972,2.972,0,0,1,.567.462h0a.3.3,0,0,1,.008.064.324.324,0,0,1-.047-.02,2.324,2.324,0,0,0-.4-.319,2.091,2.091,0,0,1,.284.276,1.694,1.694,0,0,0-.363-.094,1.885,1.885,0,0,1,.434.182c.043.055.078.1.1.134a1.537,1.537,0,0,1,0,.177,1.556,1.556,0,0,0-.217-.335,1.855,1.855,0,0,1,.177.363l-.016,0a1.787,1.787,0,0,0-.233-.359,1.925,1.925,0,0,1,.171.339,1.634,1.634,0,0,0-.273-.055,1.38,1.38,0,0,1,.289.1c.059.157.1.291.1.291l.059.044c-.011.031-.023.055-.031.078a.363.363,0,0,0-.016-.067c-.075-.228-.126-.335-.327-.091.15-.043.244-.091.26.177a.934.934,0,0,1-.032.268,1.709,1.709,0,0,0-.249-.4,2.3,2.3,0,0,1,.225.493.911.911,0,0,1-.032.094.782.782,0,0,0-.027-.158c-.091-.363-.3-.059-.319-.04-.008-.011-.016-.027-.024-.039a1.423,1.423,0,0,1,.083.454,4.73,4.73,0,0,1-.19.5h-.015a2.177,2.177,0,0,0,.166-.714,1.5,1.5,0,0,1-.127.414.708.708,0,0,0,.013-.13v-.02a.9.9,0,0,1-.107.281.636.636,0,0,0,.035-.221,1.313,1.313,0,0,1-.153.374.951.951,0,0,0,.064-.3,1.4,1.4,0,0,1-.151.363,1.276,1.276,0,0,0,.091-.43,3.043,3.043,0,0,1-.3.679.112.112,0,0,0,.064.086,1.259,1.259,0,0,0,.078-.15.088.088,0,0,0,.035.032.518.518,0,0,0,.056-.107c.008.008.016.02.024.028h-.011c.007.059.039.07.039.07h.016a.135.135,0,0,0,.04.048c.007-.013.015-.032.024-.051a1.561,1.561,0,0,1,.484.019.774.774,0,0,0-.248-.07,1.205,1.205,0,0,1,.343.023,1.045,1.045,0,0,0-.332-.078,1.35,1.35,0,0,1,.4.024.75.75,0,0,0-.209-.064,2.06,2.06,0,0,1,.612.036,1.792,1.792,0,0,0-.56-.131,2.358,2.358,0,0,1,.683.035,1.769,1.769,0,0,0-.592-.134,2.391,2.391,0,0,1,.643-.236,1.117,1.117,0,0,0-.351.043c0-.008,0-.011,0-.016a2.939,2.939,0,0,0,.88-.441,3.477,3.477,0,0,1-.812.3Zm.351-1.491c.086-.08.146-.1.185-.091a2.532,2.532,0,0,0-.335.394c-.013-.02-.02-.048-.032-.072A.991.991,0,0,1,18.055,15.827Zm-.107,1.14c.142-.126.2-.111.249-.044-.123.072-.26.142-.383.2A1.03,1.03,0,0,1,17.948,16.967ZM17.822,15.4c.04-.15.086-.139.158-.1-.059.072-.118.147-.169.217A.528.528,0,0,1,17.822,15.4Zm-.647,2.039A2.141,2.141,0,0,0,17,16.868C17.356,16.568,17.222,17.227,17.175,17.44Z" transform="translate(-12.109 -13.952)" fill="#0c750e"/><path d="M17.563,17.33a4.613,4.613,0,0,0,.481-.249c.008.013.013.028.02.044,0-.024.008-.044.011-.064a1.017,1.017,0,0,0,.26-.2,1.8,1.8,0,0,1-.256.149c0-.134-.1-.106-.253-.047l-.011,0a.075.075,0,0,1,0-.027v0h0v0a.9.9,0,0,1,.138-.134c.186-.134.206-.048.257.075.056-.26-.043-.241-.236-.166a.43.43,0,0,0-.13.08.459.459,0,0,1,.034-.1,1.692,1.692,0,0,1,.4-.169,1.433,1.433,0,0,0-.351.094.968.968,0,0,1,.386-.331.438.438,0,0,0-.252.075,1.162,1.162,0,0,1,.264-.177.484.484,0,0,0-.323.126,1.543,1.543,0,0,0-.142.126l0-.016a2.994,2.994,0,0,1,.311-.383c.036.024.051.075.08.134.055-.264-.043-.244-.236-.169a.379.379,0,0,0-.1.056,1.525,1.525,0,0,1,.265-.281,1.36,1.36,0,0,0-.371.311c0-.019-.008-.067-.008-.126a2.207,2.207,0,0,1,.331-.367.639.639,0,0,0-.158.111,1.635,1.635,0,0,1,.26-.276,1.057,1.057,0,0,0-.252.193c-.027-.056-.051-.08-.075-.072a.524.524,0,0,1,.1-.146,1.239,1.239,0,0,0-.19.236l-.008.011s-.008.008-.008.016a1.533,1.533,0,0,0-.1.166c0-.008-.016-.016-.024-.024a2.717,2.717,0,0,1,.268-.5,1.565,1.565,0,0,0-.213.28,1.645,1.645,0,0,1,.193-.363,1.408,1.408,0,0,0-.233.319,1.652,1.652,0,0,1,.1-.39,1.44,1.44,0,0,0-.15.366,1.765,1.765,0,0,1-.043-.406,1.76,1.76,0,0,0-.008.458c-.008-.032-.019-.072-.027-.1a1.747,1.747,0,0,1-.043-.414,1.155,1.155,0,0,0-.02.233,1.709,1.709,0,0,0-.185-.386,2.168,2.168,0,0,1,.166.529,1.046,1.046,0,0,0-.107-.2c.016.027.028.059.044.094a.908.908,0,0,0-.135-.221,1.187,1.187,0,0,1,.123.3.773.773,0,0,0-.1-.181,1.535,1.535,0,0,1,.1.268,1.75,1.75,0,0,0-.339-.246,2.334,2.334,0,0,1,.371.351h0a1.013,1.013,0,0,0-.2-.122,1.155,1.155,0,0,1,.209.173l.013.056a1.747,1.747,0,0,0-.34-.241,1.363,1.363,0,0,1,.265.233,1.9,1.9,0,0,0-.327-.193,2.44,2.44,0,0,1,.441.438l.008,0v.055c-.011-.008-.027-.016-.039-.023a1.81,1.81,0,0,0-.313-.3,1.515,1.515,0,0,1,.217.257,1.241,1.241,0,0,0-.3-.11,1.673,1.673,0,0,1,.356.193,1.3,1.3,0,0,1,.075.122c0,.051-.008.1-.013.15a1.433,1.433,0,0,0-.157-.3,1.648,1.648,0,0,1,.118.324s-.008,0-.016,0a1.552,1.552,0,0,0-.163-.327,1.911,1.911,0,0,1,.115.308,1.215,1.215,0,0,0-.228-.072,1.386,1.386,0,0,1,.236.107c.04.142.059.257.059.257l.048.043a.586.586,0,0,1-.035.063.208.208,0,0,0,0-.055c-.047-.206-.083-.3-.272-.107.13-.024.216-.056.2.174a1.013,1.013,0,0,1-.048.225,1.628,1.628,0,0,0-.181-.364,2.093,2.093,0,0,1,.15.442c-.013.027-.024.056-.032.078a.847.847,0,0,0-.013-.138c-.047-.319-.251-.08-.268-.059a.35.35,0,0,0-.019-.035,1.15,1.15,0,0,1,.036.39c-.06.147-.174.348-.206.407H16.8a1.862,1.862,0,0,0,.2-.592,1.548,1.548,0,0,1-.141.343c.007-.043.015-.078.019-.115v-.015a.769.769,0,0,1-.11.228.593.593,0,0,0,.047-.185,1.171,1.171,0,0,1-.161.307.814.814,0,0,0,.075-.252,1.04,1.04,0,0,1-.153.3,1.182,1.182,0,0,0,.114-.359,2.5,2.5,0,0,1-.319.552.1.1,0,0,0,.048.078.911.911,0,0,0,.078-.123.127.127,0,0,0,.027.036.838.838,0,0,0,.06-.088.068.068,0,0,0,.015.024H16.6a.075.075,0,0,0,.024.064h.016a.152.152,0,0,0,.027.043c.008-.008.016-.024.028-.04a1.536,1.536,0,0,1,.41.056.638.638,0,0,0-.209-.08,1.053,1.053,0,0,1,.292.048.824.824,0,0,0-.276-.094,1.373,1.373,0,0,1,.343.051.752.752,0,0,0-.174-.067,1.712,1.712,0,0,1,.521.083,1.4,1.4,0,0,0-.469-.158,1.834,1.834,0,0,1,.58.086,1.432,1.432,0,0,0-.493-.166,1.9,1.9,0,0,1,.568-.146.98.98,0,0,0-.3,0l.008-.013a2.525,2.525,0,0,0,.785-.3,2.887,2.887,0,0,1-.718.189Zm.426-1.242c.083-.059.134-.075.169-.064a2.131,2.131,0,0,0-.319.311c-.008-.019-.016-.043-.024-.063A1.1,1.1,0,0,1,17.989,16.087Zm-.185.963c.134-.1.181-.08.216-.016-.11.051-.232.1-.343.138A.708.708,0,0,1,17.8,17.05Zm.027-1.346c.043-.123.083-.11.142-.07-.056.051-.11.11-.166.169A.549.549,0,0,1,17.831,15.7ZM17.1,17.389a1.872,1.872,0,0,0-.1-.5C17.334,16.659,17.164,17.212,17.1,17.389Z" transform="translate(-12.11 -13.901)" fill="#00853e"/><path d="M14.775,18.269a.043.043,0,0,0,.008.035c.016.02.059.016.083,0a.059.059,0,0,0,.019-.048.062.062,0,0,0-.05-.035A.068.068,0,0,0,14.775,18.269Z" transform="translate(-12.329 -13.448)" fill="#e9c015"/></g><g transform="translate(1.428 1.422)"><g transform="translate(0.04 0.016)"><path d="M15.862,15.3V13.873H15.27V15.3H14.154v.592H15.27v1.455a.584.584,0,0,1,.3.194.571.571,0,0,1,.206-.158.354.354,0,0,1,.091-.036V15.893h1.116V15.3Z" transform="translate(-13.779 -13.873)" fill="#fff"/><g transform="translate(2.084)"><path d="M17.148,13.873l-.174.158a.627.627,0,0,0-.2.465v.8H15.657V13.873Z" transform="translate(-15.657 -13.873)" fill="#cd1225"/></g><g transform="translate(0.375 2.02)"><path d="M15.27,15.65v1.455a.589.589,0,0,0-.161-.023h-.394a.563.563,0,0,1-.56-.56V15.65Z" transform="translate(-14.154 -15.65)" fill="#cd1225"/></g><g transform="translate(2.084 2.02)"><path d="M16.773,15.65v.872a.564.564,0,0,1-.564.56h-.391a.583.583,0,0,0-.161.023V15.65Z" transform="translate(-15.657 -15.65)" fill="#022d61"/></g><path d="M15.315,13.873V15.3H14.2v-.8a.627.627,0,0,0-.206-.465l-.169-.158Z" transform="translate(-13.824 -13.873)" fill="#022d61"/></g><path d="M15.912,13.859H13.789l.2.185a.612.612,0,0,1,.2.454v2.269a.559.559,0,0,0,.169.406.568.568,0,0,0,.407.171h.394a.548.548,0,0,1,.158.023h0a.574.574,0,0,1,.288.19l.011.016.013-.016a.541.541,0,0,1,.2-.158.713.713,0,0,1,.091-.032l-.008-.031a.332.332,0,0,0-.094.035.605.605,0,0,0-.2.15.606.606,0,0,0-.291-.185l0,.015,0-.015a.6.6,0,0,0-.166-.024h-.394a.545.545,0,0,1-.544-.544V14.5a.645.645,0,0,0-.209-.477l-.142-.13h3.5l-.142.13a.645.645,0,0,0-.209.477v2.269a.546.546,0,0,1-.548.544h-.391a.558.558,0,0,0-.166.024l.008.031a.521.521,0,0,1,.158-.023h.391a.58.58,0,0,0,.41-.171.569.569,0,0,0,.165-.406V14.5a.615.615,0,0,1,.2-.454l.2-.185Z" transform="translate(-13.789 -13.859)"/><g transform="translate(0.493 0.083)"><g transform="translate(0.234 0.41)"><g transform="translate(0.016 0.039)"><path d="M15.14,15.961l-.013,0,.064-.939L15,14.789l-.07,1.022c-.166-.158-.364-.391-.442-.482,0,.1-.011.194-.016.284.088.111.182.214.276.316a1.483,1.483,0,0,0,.166.161c0,.08.011.23.122.281a.314.314,0,0,0,.265-.032c.011-.024.024-.048.035-.067l0-.011c-.214.059-.225-.083-.225-.1a.644.644,0,0,0,.339-.213l.008-.123C15.341,15.937,15.278,16,15.14,15.961Z" transform="translate(-14.439 -14.264)" fill="#fff"/><g transform="translate(0 1.349)"><path d="M15.306,16.24a.756.756,0,0,1-.142.2.436.436,0,0,1-.406.082.48.48,0,0,1-.311-.417.234.234,0,0,1,0-.08c0-.027.015-.236.031-.509.088.111.182.214.276.316a1.483,1.483,0,0,0,.166.161c0,.08.011.23.122.281A.314.314,0,0,0,15.306,16.24Z" transform="translate(-14.443 -15.514)" fill="#cd1225"/></g><g transform="translate(0.689 0.754)"><path d="M15.416,15.349l-.032.446c-.122.115-.185.174-.323.139l-.013,0,.064-.939Z" transform="translate(-15.049 -14.99)" fill="#cd1225"/></g><g transform="translate(0.677 1.681)"><path d="M15.378,15.806v.024a1.916,1.916,0,0,1-.114.292c-.214.059-.225-.083-.225-.1A.644.644,0,0,0,15.378,15.806Z" transform="translate(-15.039 -15.806)" fill="#022d61"/></g><g transform="translate(0.05)"><path d="M15,14.852l-.07,1.022c-.166-.158-.364-.391-.442-.482.035-.5.067-1.065.067-1.065Z" transform="translate(-14.487 -14.327)" fill="#022d61"/></g></g><path d="M14.854,16.723a.466.466,0,0,1-.1-.024.489.489,0,0,1-.324-.43.31.31,0,0,1,0-.08c0-.032.017-.3.032-.509,0-.09.013-.185.016-.284h0c.035-.5.072-1.065.072-1.065v-.039l.966,1.144-.04.6v0a2.345,2.345,0,0,1-.114.3l-.008.007a.657.657,0,0,1-.032.072.714.714,0,0,1-.15.2A.455.455,0,0,1,14.854,16.723Zm-.276-2.352c-.008.134-.04.6-.067,1.03h0c0,.094-.013.193-.016.28-.016.217-.032.477-.032.509a.311.311,0,0,0,0,.08.466.466,0,0,0,.3.4.48.48,0,0,0,.094.019.413.413,0,0,0,.3-.1A.679.679,0,0,0,15.3,16.4c.011-.024.023-.048.031-.067l0-.008a1.882,1.882,0,0,0,.114-.292l.04-.583Z" transform="translate(-14.429 -14.293)"/></g><g transform="translate(0.091 0.078)"><path d="M14.5,14.216l.868,1.03-.032.027-.867-1.025.019-.011Z" transform="translate(-14.28 -13.972)" fill="#e8c015"/><path d="M14.5,14.192s0,.011,0,.019a.091.091,0,0,1-.015.024c-.016.013-.036.016-.043.008s0-.027.011-.043a.041.041,0,0,1,.027-.011h.008Z" transform="translate(-14.284 -13.975)" fill="#e8c015"/><path d="M14.5,14.146c-.024.011-.016.051-.016.067l-.008.007-.163-.2C14.353,14.042,14.468,14.125,14.5,14.146Z" transform="translate(-14.302 -13.999)" fill="#e8c015"/><path d="M14.313,14.018l.158.206,0,0a.1.1,0,0,0-.075,0Z" transform="translate(-14.302 -13.999)" fill="#e8c015"/><path d="M15.36,15.3l.032-.027-.868-1.03-.011.02-.019.011ZM14.5,14.148c-.032-.02-.147-.1-.186-.131l.163.2.008-.007C14.485,14.2,14.477,14.159,14.5,14.148Zm-.032.082,0,0-.158-.206.08.209A.1.1,0,0,1,14.469,14.229Zm0,.048-.011,0c-.008-.008-.008-.024,0-.04a.1.1,0,0,0-.072,0h0L14.3,14l0,0s.169.122.2.142h0c-.019.011-.016.047-.016.067a.028.028,0,0,1,.016,0,.016.016,0,0,1,.019,0,.018.018,0,0,1,0,.023v0l.872,1.033-.04.035-.872-1.033Zm-.007-.008c.007.008.027,0,.043-.008a.091.091,0,0,0,.015-.024c0-.008,0-.016,0-.019l-.011,0H14.5a.041.041,0,0,0-.027.011C14.461,14.242,14.453,14.261,14.466,14.269Z" transform="translate(-14.303 -14.001)"/></g><g transform="translate(0.402)"><path d="M14.737,14.178l.687,1.161-.039.023L14.7,14.2l.02-.008C14.73,14.191,14.734,14.183,14.737,14.178Z" transform="translate(-14.56 -13.898)" fill="#e8c015"/><path d="M14.745,14.15a.022.022,0,0,1,0,.02.119.119,0,0,1-.019.024c-.02.007-.04.011-.048,0s0-.028.024-.04a.033.033,0,0,1,.027-.008h0A.02.02,0,0,1,14.745,14.15Z" transform="translate(-14.563 -13.903)" fill="#e8c015"/><path d="M14.746,14.107c-.02.008-.024.048-.024.063l-.008.008-.126-.228C14.619,13.981,14.722,14.08,14.746,14.107Z" transform="translate(-14.575 -13.93)" fill="#e8c015"/><path d="M14.585,13.949l.125.228-.007,0a.088.088,0,0,0-.072-.013Z" transform="translate(-14.576 -13.93)" fill="#e8c015"/><path d="M15.4,15.395l.039-.023-.687-1.161s-.007.013-.015.016l-.02.008Zm-.655-1.286c-.024-.027-.127-.126-.158-.158l.126.228.008-.008C14.724,14.157,14.727,14.117,14.748,14.109Zm-.043.075.007,0-.125-.228.047.221A.088.088,0,0,1,14.7,14.184Zm0,.051s-.008,0-.013-.011a.038.038,0,0,1,.013-.036.086.086,0,0,0-.072-.011h0l-.051-.244,0,0s.146.147.169.174h0c-.019.008-.024.043-.024.063l.016,0a.02.02,0,0,1,.019.011.023.023,0,0,1,0,.024l0,0,.687,1.164L15.4,15.4l-.687-1.164Zm-.008-.011c.008.011.027.007.048,0a.119.119,0,0,0,.019-.024.022.022,0,0,0,0-.02.02.02,0,0,0-.011,0h0a.033.033,0,0,0-.027.008C14.7,14.2,14.684,14.212,14.692,14.224Z" transform="translate(-14.577 -13.932)"/></g><g transform="translate(0.217 0.591)"><g transform="translate(0.016 0.04)"><path d="M15.122,16.08h-.013v-.947l-.2-.213v1.025c-.174-.146-.391-.367-.469-.449v.284c.094.1.193.2.3.3a1.719,1.719,0,0,0,.177.15c0,.078.028.225.142.272a.3.3,0,0,0,.26-.051c.013-.024.02-.048.032-.07l0-.008c-.209.07-.233-.072-.238-.091a.639.639,0,0,0,.329-.236v-.123C15.323,16.042,15.264,16.109,15.122,16.08Z" transform="translate(-14.427 -14.428)" fill="#fff"/><g transform="translate(0.008 1.354)"><path d="M15.31,16.344a.648.648,0,0,1-.13.209.439.439,0,0,1-.4.107.481.481,0,0,1-.339-.394.523.523,0,0,1-.008-.08v-.508c.094.1.193.2.3.3a1.719,1.719,0,0,0,.177.15c0,.078.028.225.142.272A.3.3,0,0,0,15.31,16.344Z" transform="translate(-14.435 -15.678)" fill="#cd1225"/></g><g transform="translate(0.682 0.706)"><path d="M15.357,15.448v.446c-.115.123-.174.19-.316.161h-.013v-.947Z" transform="translate(-15.028 -15.108)" fill="#cd1225"/></g><g transform="translate(0.682 1.614)"><path d="M15.357,15.907v.023a2.183,2.183,0,0,1-.091.3c-.209.07-.233-.072-.238-.091A.639.639,0,0,0,15.357,15.907Z" transform="translate(-15.028 -15.907)" fill="#022d61"/></g><path d="M14.905,14.98v1.025c-.174-.145-.391-.367-.469-.449,0-.509-.008-1.07-.008-1.07Z" transform="translate(-14.428 -14.487)" fill="#022d61"/></g><path d="M14.885,16.855a.431.431,0,0,1-.1-.011.5.5,0,0,1-.351-.41.554.554,0,0,1-.008-.08v-.792h0c0-.509-.008-1.07-.008-1.07v-.04l1.041,1.078v.6h0a1.532,1.532,0,0,1-.094.3l0,.013c-.008.019-.02.043-.028.067a.705.705,0,0,1-.134.213A.448.448,0,0,1,14.885,16.855Zm-.439-2.323c0,.134,0,.6,0,1.03h0c0,.1,0,.193,0,.284v.508a.42.42,0,0,0,.008.075.463.463,0,0,0,.327.383.385.385,0,0,0,.1.011.416.416,0,0,0,.288-.114A.611.611,0,0,0,15.3,16.5c.011-.024.023-.048.031-.067l0-.011a2.068,2.068,0,0,0,.091-.3v-.588Z" transform="translate(-14.414 -14.452)"/></g><g transform="translate(0 0.351)"><path d="M14.435,14.442l.94.966-.032.032-.939-.966c.008,0,.016-.008.019-.016A.044.044,0,0,0,14.435,14.442Z" transform="translate(-14.198 -14.214)" fill="#e8c015"/><path d="M14.435,14.414a.017.017,0,0,1,0,.019.085.085,0,0,1-.015.028c-.016.016-.036.019-.044.011a.039.039,0,0,1,.013-.047.035.035,0,0,1,.024-.013l.008,0Z" transform="translate(-14.202 -14.218)" fill="#e8c015"/><path d="M14.427,14.369c-.02.016-.013.051-.008.067l-.008.008-.174-.193Z" transform="translate(-14.221 -14.24)" fill="#e8c015"/><path d="M14.234,14.254l.173.194-.008.007a.08.08,0,0,0-.07,0Z" transform="translate(-14.221 -14.239)" fill="#e8c015"/><path d="M15.368,15.468l.032-.032-.94-.966a.044.044,0,0,1-.011.016c0,.008-.011.011-.019.016Zm-.939-1.1-.19-.118.174.193.008-.008C14.416,14.422,14.408,14.387,14.429,14.371Zm-.028.086.008-.007-.173-.194.094.206A.08.08,0,0,1,14.4,14.457Zm.013.048L14.4,14.5c-.008-.008,0-.024,0-.035a.086.086,0,0,0-.07,0h0l-.1-.224h0s.177.11.2.126l0,0h0c-.019.013-.011.048-.008.067l.013,0c.011,0,.019,0,.023,0a.023.023,0,0,1,0,.024v0l.939.971-.035.035-.943-.97ZM14.4,14.5c.008.008.028,0,.044-.011a.085.085,0,0,0,.015-.028.017.017,0,0,0,0-.019l-.011,0-.008,0a.035.035,0,0,0-.024.013A.039.039,0,0,0,14.4,14.5Z" transform="translate(-14.223 -14.241)"/></g><g transform="translate(1.346)"><g transform="translate(0 0.41)"><g transform="translate(0.016 0.039)"><path d="M15.772,15.961l.011,0-.063-.939.19-.228.067,1.022c.165-.158.366-.391.441-.482.008.1.013.194.02.284-.091.111-.182.214-.276.316a1.483,1.483,0,0,1-.166.161c0,.08-.016.23-.123.281a.31.31,0,0,1-.264-.032c-.013-.024-.024-.048-.036-.067l0-.011c.213.059.225-.083.225-.1a.634.634,0,0,1-.34-.213l-.011-.123C15.568,15.937,15.63,16,15.772,15.961Z" transform="translate(-15.418 -14.264)" fill="#fff"/><g transform="translate(0.193 1.349)"><path d="M15.591,16.24a.665.665,0,0,0,.142.2.433.433,0,0,0,.406.082.489.489,0,0,0,.311-.417.465.465,0,0,0,0-.08c0-.027-.016-.236-.031-.509-.091.111-.182.214-.276.316a1.483,1.483,0,0,1-.166.161c0,.08-.016.23-.123.281A.31.31,0,0,1,15.591,16.24Z" transform="translate(-15.591 -15.514)" fill="#cd1225"/></g><g transform="translate(0 0.754)"><path d="M15.421,15.349l.027.446c.123.115.185.174.327.139l.011,0-.063-.939Z" transform="translate(-15.421 -14.99)" fill="#cd1225"/></g><g transform="translate(0.039 1.681)"><path d="M15.455,15.806v.024a2.048,2.048,0,0,0,.115.292c.213.059.225-.083.225-.1A.634.634,0,0,1,15.455,15.806Z" transform="translate(-15.455 -15.806)" fill="#022d61"/></g><g transform="translate(0.493)"><path d="M15.855,14.852l.067,1.022c.165-.158.366-.391.441-.482L16.3,14.327Z" transform="translate(-15.855 -14.327)" fill="#022d61"/></g></g><path d="M15.75,16.616a.714.714,0,0,1-.15-.2c-.013-.024-.024-.048-.035-.072l0-.007a2.529,2.529,0,0,1-.115-.3v0l-.039-.6.966-1.144v.039L16.44,15.4h0c.008.1.013.194.019.284.013.214.028.477.032.509v.08a.5.5,0,0,1-.323.43.466.466,0,0,1-.1.024A.455.455,0,0,1,15.75,16.616Zm-.311-1.167.039.583a2,2,0,0,0,.11.292l0,.008c.011.019.024.043.035.067a.6.6,0,0,0,.142.193.407.407,0,0,0,.3.1.379.379,0,0,0,.091-.019.46.46,0,0,0,.3-.4.234.234,0,0,0,0-.08c0-.032-.019-.292-.031-.509-.008-.086-.013-.185-.02-.28h0c-.023-.43-.055-.9-.063-1.03Z" transform="translate(-15.407 -14.293)"/></g><g transform="translate(0.134 0.078)"><path d="M16.4,14.216l-.872,1.03.035.027.868-1.025-.019-.011Z" transform="translate(-15.525 -13.972)" fill="#e8c015"/><path d="M16.3,14.192a.019.019,0,0,0,0,.019c0,.008.008.016.016.024s.035.016.043.008,0-.027-.016-.043a.03.03,0,0,0-.023-.011h-.008Z" transform="translate(-15.42 -13.975)" fill="#e8c015"/><path d="M16.316,14.146c.019.011.016.051.013.067l.011.007.158-.2C16.463,14.042,16.348,14.125,16.316,14.146Z" transform="translate(-15.417 -13.999)" fill="#e8c015"/><path d="M16.5,14.018l-.161.206.008,0a.1.1,0,0,1,.075,0Z" transform="translate(-15.414 -13.999)" fill="#e8c015"/><path d="M16.432,14.277l-.019-.011-.013-.02-.872,1.03.035.027Zm0-.063.011.007.158-.2c-.035.027-.15.11-.182.131C16.443,14.159,16.44,14.2,16.437,14.215Zm.094.015.078-.209-.161.206.008,0A.1.1,0,0,1,16.531,14.229Zm-.094.048-.873,1.033-.039-.035.872-1.033v0a.021.021,0,0,1,0-.023.027.027,0,0,1,.024,0l.011,0c0-.02.008-.056-.011-.067h0c.027-.02.193-.142.2-.142l0,0-.091.233h0a.1.1,0,0,0-.072,0c.009.016.013.032,0,.04a.022.022,0,0,1-.016,0Zm.007-.051a.03.03,0,0,0-.023-.011h-.008l-.013,0a.019.019,0,0,0,0,.019c0,.008.008.016.016.024s.035.016.043.008S16.464,14.242,16.443,14.226Z" transform="translate(-15.525 -14.001)"/></g><g transform="translate(0.051)"><path d="M16.138,14.178l-.683,1.161.036.023.687-1.159-.02-.008C16.15,14.191,16.146,14.183,16.138,14.178Z" transform="translate(-15.452 -13.898)" fill="#e8c015"/><path d="M16.056,14.15a.017.017,0,0,0,0,.02.089.089,0,0,0,.019.024c.02.007.04.011.048,0s0-.028-.024-.04a.037.037,0,0,0-.027-.008h-.008Z" transform="translate(-15.37 -13.903)" fill="#e8c015"/><path d="M16.066,14.107c.02.008.024.048.024.063l.008.008.123-.228C16.189,13.981,16.09,14.08,16.066,14.107Z" transform="translate(-15.368 -13.93)" fill="#e8c015"/><path d="M16.22,13.949l-.123.228.008,0a.087.087,0,0,1,.072-.013Z" transform="translate(-15.364 -13.93)" fill="#e8c015"/><path d="M16.178,14.236l-.02-.008c-.008,0-.011-.011-.019-.016l-.683,1.161.036.023Zm0-.064.008.008.123-.228c-.032.032-.131.131-.155.158C16.17,14.117,16.174,14.157,16.174,14.172Zm.091,0,.043-.221-.123.228.008,0A.087.087,0,0,1,16.265,14.172Zm-.083.064L15.5,15.4l-.043-.027.687-1.164,0,0a.029.029,0,0,1,0-.024.023.023,0,0,1,.02-.011l.011,0c0-.019,0-.055-.024-.063h0c.024-.027.171-.169.171-.174l.008,0-.052.244h0a.076.076,0,0,0-.067.011.037.037,0,0,1,.011.036c0,.007-.007.007-.016.011Zm0-.051a.037.037,0,0,0-.027-.008h-.008l-.008,0a.017.017,0,0,0,0,.02.089.089,0,0,0,.019.024c.02.007.04.011.048,0S16.2,14.2,16.182,14.184Z" transform="translate(-15.452 -13.932)"/></g><g transform="translate(0.063 0.591)"><g transform="translate(0.013 0.04)"><path d="M15.792,16.08H15.8v-.947l.2-.213v1.025c.177-.146.391-.367.474-.449v.284c-.1.1-.193.2-.3.3a1.242,1.242,0,0,1-.174.15c0,.078-.027.225-.142.272a.305.305,0,0,1-.26-.051c-.011-.024-.019-.048-.032-.07l0-.008c.209.07.233-.072.233-.091a.655.655,0,0,1-.327-.236v-.123C15.587,16.042,15.647,16.109,15.792,16.08Z" transform="translate(-15.473 -14.428)" fill="#fff"/><g transform="translate(0.13 1.354)"><path d="M15.587,16.344a.614.614,0,0,0,.131.209.437.437,0,0,0,.4.107.486.486,0,0,0,.34-.394.494.494,0,0,0,0-.08c0-.027,0-.24,0-.508-.1.1-.193.2-.3.3a1.242,1.242,0,0,1-.174.15c0,.078-.027.225-.142.272A.305.305,0,0,1,15.587,16.344Z" transform="translate(-15.587 -15.678)" fill="#cd1225"/></g><g transform="translate(0 0.706)"><path d="M15.473,15.448v.446c.114.123.174.19.319.161H15.8v-.947Z" transform="translate(-15.473 -15.108)" fill="#cd1225"/></g><g transform="translate(0 1.614)"><path d="M15.473,15.907v.023a2.78,2.78,0,0,0,.094.3c.209.07.233-.072.233-.091A.655.655,0,0,1,15.473,15.907Z" transform="translate(-15.473 -15.907)" fill="#022d61"/></g><g transform="translate(0.532)"><path d="M15.941,14.98v1.025c.177-.145.391-.367.474-.449,0-.509,0-1.07,0-1.07Z" transform="translate(-15.941 -14.487)" fill="#022d61"/></g></g><path d="M15.722,16.729a.663.663,0,0,1-.134-.213c-.011-.024-.019-.048-.027-.067l0-.013a1.611,1.611,0,0,1-.1-.3h0v-.6L16.5,14.452v.04s0,.56,0,1.07h0v.284c0,.213,0,.476,0,.508a.587.587,0,0,1,0,.08.505.505,0,0,1-.351.41.428.428,0,0,1-.1.011A.453.453,0,0,1,15.722,16.729Zm-.232-1.188v.588a2.6,2.6,0,0,0,.094.3l0,.011c.008.019.02.043.028.067a.743.743,0,0,0,.126.206.429.429,0,0,0,.292.114.389.389,0,0,0,.094-.011.468.468,0,0,0,.327-.383.552.552,0,0,0,0-.075c0-.032,0-.3,0-.508v-.284h0c0-.431,0-.9,0-1.03Z" transform="translate(-15.462 -14.452)"/></g><g transform="translate(0.142 0.351)"><path d="M16.474,14.442l-.939.966.032.032.936-.966s-.013-.008-.016-.016S16.474,14.45,16.474,14.442Z" transform="translate(-15.532 -14.214)" fill="#e8c015"/><path d="M16.366,14.414a.014.014,0,0,0,0,.019.052.052,0,0,0,.016.028.033.033,0,0,0,.043.011.038.038,0,0,0-.011-.047.036.036,0,0,0-.027-.013l-.008,0Z" transform="translate(-15.419 -14.218)" fill="#e8c015"/><path d="M16.389,14.369c.019.016.011.051.008.067l.008.008.174-.193C16.539,14.275,16.416,14.35,16.389,14.369Z" transform="translate(-15.415 -14.24)" fill="#e8c015"/><path d="M16.58,14.254l-.174.194,0,.007a.088.088,0,0,1,.075,0Z" transform="translate(-15.413 -14.239)" fill="#e8c015"/><path d="M16.5,14.5s-.013-.008-.016-.016-.013-.008-.013-.016l-.939.966.032.032Zm.011-.064.008.008.174-.193c-.04.024-.163.1-.19.118C16.525,14.387,16.518,14.422,16.514,14.438Zm.091.024.094-.206-.174.194,0,.007A.088.088,0,0,1,16.605,14.462Zm-.1.04-.939.97-.035-.035.939-.971v0c0-.011,0-.019,0-.024s.013-.008.024,0l.011,0c0-.019.013-.055-.007-.067h0l0,0c.027-.016.2-.123.2-.126h0l-.106.224h0a.088.088,0,0,0-.072,0c.008.011.013.027,0,.035l-.011.008S16.514,14.5,16.506,14.5Zm.016-.051a.036.036,0,0,0-.027-.013l-.008,0-.008,0a.014.014,0,0,0,0,.019.052.052,0,0,0,.016.028.033.033,0,0,0,.043.011A.038.038,0,0,0,16.522,14.45Z" transform="translate(-15.532 -14.241)"/></g></g></g><g transform="translate(1.519 1.798)"><path d="M15.285,15.466l-.048.7-.011-.008a.305.305,0,0,1-.024-.182l.064-.513Z" transform="translate(-15.115 -15.438)" fill="#022d61"/><path d="M15.451,16.53a.147.147,0,0,1-.019.094.151.151,0,0,1-.08.059.1.1,0,0,1-.078-.016.14.14,0,0,1-.048-.067v-.016h0c0-.008,0-.011.008-.019a.149.149,0,0,1,.142-.051l.051.011C15.435,16.526,15.444,16.53,15.451,16.53Z" transform="translate(-15.112 -15.295)" fill="#022d61"/><path d="M15.482,16.452l.016.2-.032-.007a.119.119,0,0,1-.032-.008l-.055-.013a.257.257,0,0,0-.094.008.222.222,0,0,0-.056.032l.083-1.2h.027l-.043.9a.106.106,0,0,0,.027.075.1.1,0,0,0,.075.032A.238.238,0,0,0,15.482,16.452Z" transform="translate(-15.111 -15.438)" fill="#022d61"/><path d="M15.241,16.117l-.02.327a.059.059,0,0,1-.047-.019.1.1,0,0,1-.02-.067l.036-.292a.075.075,0,0,0,.019.032A.052.052,0,0,0,15.241,16.117Z" transform="translate(-15.122 -15.356)" fill="#cd1225"/><path d="M15.458,16.2l.013.123c-.043.016-.1.035-.134,0a.059.059,0,0,1-.016-.064.133.133,0,0,1,.126-.059Z" transform="translate(-15.099 -15.338)" fill="#cd1225"/><path d="M15.4,15.466l.055.8h-.011a.2.2,0,0,0-.126.04l.04-.84Z" transform="translate(-15.099 -15.438)" fill="#cd1225"/><path d="M15.656,16.127c0,.024-.024.051-.067.075l-.059-.462a.842.842,0,0,0-.016-.123C15.578,15.824,15.656,16.092,15.656,16.127Z" transform="translate(-15.072 -15.417)" fill="#cd1225"/><path d="M15.6,16.488c0,.051.013.1-.027.138a.1.1,0,0,1-.07.027l-.028-.358v-.032l-.055-.8h.051c.016.091.027.189.043.3.02.157.04.315.059.469l0,.035c0,.016,0,.035,0,.055.008.044.011.1.016.142C15.6,16.475,15.6,16.48,15.6,16.488Z" transform="translate(-15.085 -15.438)" fill="#fff"/><path d="M15.741,16.151c0,.035-.035.075-.094.107,0,.024,0,.043.008.067,0,.043.011.094.016.146a.033.033,0,0,0,0,.016.184.184,0,0,1-.04.166.146.146,0,0,1-.138.032.184.184,0,0,1-.027.1.143.143,0,0,1-.1.07.083.083,0,0,1-.031,0,.139.139,0,0,1-.072-.019.144.144,0,0,1-.059-.088.039.039,0,0,1,0-.019v0l.011-.169a.083.083,0,0,1-.067-.032.113.113,0,0,1-.027-.09l.059-.462v-.024l.063-.514h.292l0,.013C15.556,15.493,15.738,16.089,15.741,16.151Zm-.1.075c.043-.024.067-.051.067-.075s-.078-.3-.142-.509a.842.842,0,0,1,.016.123Zm-.027.4c.04-.035.032-.086.027-.138,0-.008,0-.013,0-.02,0-.047-.008-.1-.016-.142,0-.019,0-.039,0-.055l0-.035c-.019-.155-.039-.313-.059-.469-.016-.111-.027-.209-.043-.3h-.051l.055.8V16.3l.028.358A.1.1,0,0,0,15.615,16.629Zm-.1.027-.016-.2a.238.238,0,0,1-.083.02.1.1,0,0,1-.075-.032.106.106,0,0,1-.027-.075l.043-.9h-.027l-.083,1.2a.222.222,0,0,1,.056-.032.257.257,0,0,1,.094-.008l.055.013a.119.119,0,0,0,.032.008Zm-.016-.232-.013-.123h-.011a.133.133,0,0,0-.126.059.059.059,0,0,0,.016.064C15.394,16.46,15.453,16.44,15.5,16.424Zm-.013-.155-.055-.8h-.043l-.04.84a.2.2,0,0,1,.126-.04Zm-.039.5a.147.147,0,0,0,.019-.094c-.007,0-.016,0-.024,0l-.051-.011a.149.149,0,0,0-.142.051c0,.008-.008.011-.008.019h0v.016a.14.14,0,0,0,.048.067.1.1,0,0,0,.078.016A.151.151,0,0,0,15.446,16.771Zm-.2-.6.048-.7h-.019l-.064.513a.305.305,0,0,0,.024.182Zm-.024.358.02-.327a.052.052,0,0,1-.032-.019.075.075,0,0,1-.019-.032l-.036.292a.1.1,0,0,0,.02.067A.059.059,0,0,0,15.224,16.53Z" transform="translate(-15.125 -15.441)"/></g><g transform="translate(1.587 0.347)"><path d="M15.508,15.229h-.166V14.5h-.157V14.33h.157v-.166h.166v.166h.158V14.5h-.158Z" transform="translate(-15.185 -14.164)" fill="#e8c015"/><path d="M15.508,15.229h-.166V14.5h-.157V14.33h.157v-.166h.166v.166h.158V14.5h-.158Zm-.134-.031h.1v-.734h.158v-.1h-.158V14.2h-.1v.166h-.161v.1h.161Z" transform="translate(-15.185 -14.164)" fill="#020202"/></g><g transform="translate(1.196 1.065)"><g transform="translate(0 0.032)"><path d="M15.646,14.855l.414.643-.809.529-.379-.671Z" transform="translate(-14.837 -14.82)" fill="#fff"/><path d="M15.657,14.824l.447.687-.86.559-.4-.722Zm.407.679-.414-.643-.774.5.379.671Z" transform="translate(-14.841 -14.824)"/></g><g transform="translate(0.04)"><path d="M15.247,15.859v.056l-.35-.62v-.051C14.964,15.362,15.228,15.827,15.247,15.859Z" transform="translate(-14.873 -14.735)" fill="#fff"/><path d="M15.524,14.827l.39.6a.145.145,0,0,1-.091.091.282.282,0,0,0-.2.169l-.347-.591a.144.144,0,0,1,.024-.064.26.26,0,0,1,.153-.114.1.1,0,0,0,.059-.06Z" transform="translate(-14.821 -14.792)" fill="#fff"/><path d="M15.313,15.067l.343.591a.293.293,0,0,0-.224.107c-.008.008-.013.019-.02.027a.1.1,0,0,1-.032.04.139.139,0,0,1-.059.035.16.16,0,0,1-.047.008h-.016c-.024-.043-.3-.537-.355-.631a.127.127,0,0,0,.051,0,.236.236,0,0,0,.142-.088.244.244,0,0,1,.216-.09Z" transform="translate(-14.872 -14.759)" fill="#fff"/><path d="M15.989,15.427l.031.1-.754.482-.008.008-.374-.659-.008-.1v0l.019.008a.31.31,0,0,0,.064,0,.2.2,0,0,0,.13-.083.258.258,0,0,1,.155-.091.228.228,0,0,1,.07,0,.242.242,0,0,1,.024-.064A.312.312,0,0,1,15.5,14.9a.1.1,0,0,0,.051-.051l.019-.056.415.627Zm-.02,0-.39-.6-.013.027a.1.1,0,0,1-.059.06.26.26,0,0,0-.153.114.144.144,0,0,0-.024.064l.347.591a.282.282,0,0,1,.2-.169A.145.145,0,0,0,15.968,15.427Zm-.308.268-.343-.591a.244.244,0,0,0-.216.09.236.236,0,0,1-.142.088.127.127,0,0,1-.051,0c.051.094.331.588.355.631h.016a.16.16,0,0,0,.047-.008.139.139,0,0,0,.059-.035.1.1,0,0,0,.032-.04c.008-.008.013-.019.02-.027A.293.293,0,0,1,15.66,15.7Zm-.41.281V15.92c-.019-.032-.283-.5-.35-.615v.051Z" transform="translate(-14.876 -14.796)"/></g></g></g><g transform="translate(0.221)"><path d="M17.2,13.63a.027.027,0,0,1-.028.024.057.057,0,0,1-.047-.011.4.4,0,0,1-.1-.067A.258.258,0,0,0,17,13.551a.269.269,0,0,0-.134-.067l.024-.059c.043.019.091.04.134.063a.791.791,0,0,1,.161.115C17.193,13.61,17.2,13.618,17.2,13.63Z" transform="translate(-12.162 -12.496)" fill="#032344"/><path d="M13.933,13.428l.035.056a.283.283,0,0,0-.13.067l-.036.024a.325.325,0,0,1-.094.067.064.064,0,0,1-.051.011c-.011,0-.027-.011-.024-.024a.04.04,0,0,1,.016-.027.842.842,0,0,1,.166-.115Z" transform="translate(-12.603 -12.496)" fill="#032344"/><path d="M15.111,13.272a.479.479,0,0,0,.189-.039.174.174,0,0,1,.028-.013c.035-.019.082-.047.122-.024l-.027-.146c0-.008-.043,0-.048,0a.464.464,0,0,0-.323.11A.069.069,0,0,0,15.111,13.272Zm.351-.008s0-.015-.016-.035-.064-.008-.107.016l-.027.013a.571.571,0,0,1-.206.043c-.063,0-.086-.051-.1-.1l-.011-.027h0c0-.02-.013-.044-.02-.072l-.011-.04a.844.844,0,0,1-.032-.118c-.078,0-.161,0-.248,0a2.373,2.373,0,0,0-.7.161l-.059.024a.684.684,0,0,0-.383.244.175.175,0,0,0,.024.182.8.8,0,0,0,.169.174.1.1,0,0,1,.027-.04.728.728,0,0,1,.169-.118,1.711,1.711,0,0,1,.506-.182,2.119,2.119,0,0,1,.548-.024,1.316,1.316,0,0,0,.332-.019C15.359,13.344,15.449,13.3,15.462,13.264Zm.76-.031a.489.489,0,0,0,.19.039.069.069,0,0,0,.059-.11.464.464,0,0,0-.323-.11s-.048-.008-.048,0l-.032.146c.04-.023.091,0,.126.024Zm-3.412.695c.083,0,.222-.013.3-.013l.032,0-.019.019a2.44,2.44,0,0,0-.139.209,1.962,1.962,0,0,1,.268-.115,3.885,3.885,0,0,1,.383-.114,1.344,1.344,0,0,0,.3-.111c.111-.059.174-.114.174-.157a.038.038,0,0,0-.008-.028c-.024-.011-.083.024-.13.059a.1.1,0,0,0-.032.028.907.907,0,0,1-.1.07.118.118,0,0,1-.067.013l-.016,0h0l-.008,0v0h0a.906.906,0,0,1-.2-.2A2.109,2.109,0,0,0,12.81,13.928Zm4.96-.142-.008,0h0l-.016,0a.112.112,0,0,1-.066-.013.635.635,0,0,1-.1-.07.147.147,0,0,0-.032-.028c-.047-.035-.11-.07-.13-.059s-.011.013-.011.028c0,.043.063.1.173.157a1.378,1.378,0,0,0,.308.111,3.882,3.882,0,0,1,.382.114,1.8,1.8,0,0,1,.265.115c-.048-.078-.11-.182-.134-.209l-.02-.019.032,0c.083,0,.222.008.3.013a2.121,2.121,0,0,0-.734-.343.9.9,0,0,1-.209.2h0Zm.024-.051a.826.826,0,0,0,.169-.174.166.166,0,0,0,.019-.182.658.658,0,0,0-.379-.244c-.024-.008-.043-.016-.063-.024a2.382,2.382,0,0,0-.7-.161c-.083,0-.166-.008-.249,0a.669.669,0,0,1-.027.118l-.011.04q-.012.041-.024.072h0l-.008.027c-.016.048-.04.094-.107.1a.553.553,0,0,1-.2-.043l-.027-.013c-.048-.024-.083-.04-.107-.016s-.019.032-.016.035c.008.04.1.08.147.088a1.346,1.346,0,0,0,.335.019,2.119,2.119,0,0,1,.548.024,1.716,1.716,0,0,1,.5.182.843.843,0,0,1,.171.118A.1.1,0,0,1,17.793,13.735Zm-1.705-.71c.206.008.332.039.38.094l.035.048c0-.02.011-.043.019-.072,0-.011.008-.027.013-.039a.584.584,0,0,0,.031-.123.213.213,0,0,0-.1-.241l-.063-.024a1.427,1.427,0,0,0-.174-.019l-.027,0c-.064,0-.134-.008-.2-.008-.083,0-.158,0-.225,0h-.027c-.068,0-.139,0-.222,0s-.138,0-.2.008c-.011,0-.019,0-.027,0a1.427,1.427,0,0,0-.174.019c-.024.008-.043.016-.063.024a.213.213,0,0,0-.1.241.85.85,0,0,0,.027.123c0,.011.011.027.016.039a.576.576,0,0,0,.019.072.428.428,0,0,1,.035-.048c.048-.056.174-.086.379-.094.139-.008.273,0,.313,0h.027C15.817,13.024,15.951,13.016,16.088,13.024Zm2.707.939-.043,0c-.055-.008-.213-.016-.315-.016.039.06.118.19.15.249l.051.094-.072-.078a2.283,2.283,0,0,0-.69-.26,1.362,1.362,0,0,1-.311-.115c-.083-.043-.186-.114-.186-.181,0-.016,0-.028.008-.036s.017-.035.024-.051l.013-.039a1.783,1.783,0,0,0-.34-.107,2.326,2.326,0,0,0-.54-.02,1.387,1.387,0,0,1-.34-.019c-.04-.008-.153-.048-.169-.107a.036.036,0,0,1,0-.031l.04-.193c-.134,0-.261,0-.3,0h-.027c-.04,0-.163-.008-.3,0l.04.193a.092.092,0,0,1,0,.031c-.019.059-.131.1-.169.107a1.39,1.39,0,0,1-.34.019,2.372,2.372,0,0,0-.544.02,1.687,1.687,0,0,0-.351.114l.048.08a.052.052,0,0,1,.011.04c0,.067-.1.138-.185.181a1.493,1.493,0,0,1-.315.115,2.238,2.238,0,0,0-.687.26l-.072.078.048-.094c.035-.059.11-.189.153-.249-.1,0-.26.008-.315.016l-.044,0,.032-.027a2.024,2.024,0,0,1,.77-.375.191.191,0,0,1-.016-.2.706.706,0,0,1,.394-.256l.064-.024a2.388,2.388,0,0,1,.71-.161c.082,0,.165,0,.244,0a.237.237,0,0,1,.122-.249.3.3,0,0,1,.068-.023.823.823,0,0,1,.176-.024.054.054,0,0,0,.028,0c.067,0,.134,0,.2-.008.086,0,.166,0,.236,0s.15,0,.238,0c.07,0,.138,0,.2.008a.065.065,0,0,0,.027,0,.876.876,0,0,1,.182.024.31.31,0,0,1,.067.023.23.23,0,0,1,.118.249c.083,0,.165,0,.248,0a2.388,2.388,0,0,1,.71.161l.059.024a.7.7,0,0,1,.394.256.19.19,0,0,1-.011.2,2.067,2.067,0,0,1,.77.375Zm-1.057-.2a.027.027,0,0,0,.028-.024c0-.011-.008-.019-.02-.027a.791.791,0,0,0-.161-.115c-.043-.023-.091-.043-.134-.063l-.024.059a.269.269,0,0,1,.134.067.258.258,0,0,1,.032.024.4.4,0,0,0,.1.067A.057.057,0,0,0,17.738,13.765ZM14.092,13.6l-.035-.056-.118.059a.842.842,0,0,0-.166.115.04.04,0,0,0-.016.027c0,.013.013.024.024.024a.064.064,0,0,0,.051-.011.324.324,0,0,0,.094-.067l.036-.024A.283.283,0,0,1,14.092,13.6Z" transform="translate(-12.727 -12.608)"/><path d="M17.581,13.338a.166.166,0,0,1-.019.182.826.826,0,0,1-.169.174.1.1,0,0,0-.027-.04.843.843,0,0,0-.171-.118,1.716,1.716,0,0,0-.5-.182,2.119,2.119,0,0,0-.548-.024,1.346,1.346,0,0,1-.335-.019c-.044-.008-.139-.048-.147-.088,0,0-.008-.015.016-.035s.059-.008.107.016l.027.013a.553.553,0,0,0,.2.043c.067,0,.091-.051.107-.1l.008-.027h0q.012-.031.024-.072l.011-.04a.669.669,0,0,0,.027-.118c.083,0,.166,0,.249,0a2.382,2.382,0,0,1,.7.161c.019.008.039.016.063.024A.658.658,0,0,1,17.581,13.338Z" transform="translate(-12.326 -12.567)" fill="#022d61"/><path d="M16.852,13.506c.019-.011.083.024.13.059a.147.147,0,0,1,.032.028.635.635,0,0,0,.1.07.112.112,0,0,0,.066.013l.016,0h0l.008,0v0h0a.9.9,0,0,0,.209-.2,2.121,2.121,0,0,1,.734.343c-.083,0-.222-.013-.3-.013l-.032,0,.02.019c.024.027.086.131.134.209a1.8,1.8,0,0,0-.265-.115,3.882,3.882,0,0,0-.382-.114,1.378,1.378,0,0,1-.308-.111c-.11-.059-.173-.114-.173-.157C16.841,13.518,16.844,13.51,16.852,13.506Z" transform="translate(-12.165 -12.49)" fill="#022d61"/><path d="M15.747,13a.464.464,0,0,1,.323.11.069.069,0,0,1-.059.11.489.489,0,0,1-.19-.039l-.027-.013c-.035-.019-.086-.047-.126-.024L15.7,13C15.7,12.99,15.742,13,15.747,13Z" transform="translate(-12.325 -12.555)" fill="#032344"/><path d="M15.959,12.646a1.427,1.427,0,0,1,.174.019l.063.024a.213.213,0,0,1,.1.241.584.584,0,0,1-.031.123c0,.011-.008.027-.013.039-.008.028-.016.051-.019.072l-.035-.048c-.048-.056-.174-.086-.38-.094-.138-.008-.272,0-.315,0h-.027c-.04,0-.174-.008-.313,0-.2.008-.331.039-.379.094a.428.428,0,0,0-.035.048.576.576,0,0,1-.019-.072c0-.011-.013-.027-.016-.039a.85.85,0,0,1-.027-.123.213.213,0,0,1,.1-.241c.019-.008.039-.016.063-.024a1.427,1.427,0,0,1,.174-.019c.008,0,.016,0,.027,0,.064,0,.131-.008.2-.008s.153,0,.222,0h.027c.067,0,.142,0,.225,0,.067,0,.138,0,.2.008Z" transform="translate(-12.459 -12.605)" fill="#022d61"/><path d="M15.144,13l.027.146c-.04-.023-.086,0-.122.024a.174.174,0,0,0-.028.013.479.479,0,0,1-.189.039.069.069,0,0,1-.059-.11A.464.464,0,0,1,15.1,13S15.144,12.99,15.144,13Z" transform="translate(-12.449 -12.555)" fill="#032344"/><path d="M13.534,13.467a.906.906,0,0,0,.2.2h0v0l.008,0h0l.016,0a.118.118,0,0,0,.067-.013.907.907,0,0,0,.1-.07.1.1,0,0,1,.032-.028c.047-.035.106-.07.13-.059a.038.038,0,0,1,.008.028c0,.043-.063.1-.174.157a1.344,1.344,0,0,1-.3.111,3.885,3.885,0,0,0-.383.114,1.962,1.962,0,0,0-.268.115,2.44,2.44,0,0,1,.139-.209l.019-.019-.032,0c-.082,0-.221.008-.3.013A2.109,2.109,0,0,1,13.534,13.467Z" transform="translate(-12.717 -12.49)" fill="#022d61"/><path d="M14.877,13.062c.008.027.016.051.02.072h0l.011.027c.016.048.04.094.1.1a.571.571,0,0,0,.206-.043l.027-.013c.043-.024.083-.04.107-.016s.016.032.016.035c-.013.04-.1.08-.15.088a1.316,1.316,0,0,1-.332.019,2.119,2.119,0,0,0-.548.024,1.711,1.711,0,0,0-.506.182.728.728,0,0,0-.169.118.1.1,0,0,0-.027.04.8.8,0,0,1-.169-.174.175.175,0,0,1-.024-.182.684.684,0,0,1,.383-.244l.059-.024a2.373,2.373,0,0,1,.7-.161c.086,0,.169-.008.248,0a.844.844,0,0,0,.032.118Z" transform="translate(-12.632 -12.567)" fill="#022d61"/><g transform="translate(1.274 0.428)"><path d="M14.078,13.168c.027.075,0,.126-.083.153l-.072.024,0-.008.024-.008-.072-.2-.019.007,0-.011.072-.024C14,13.069,14.054,13.093,14.078,13.168Zm-.04.011a.139.139,0,0,0-.043-.07.085.085,0,0,0-.072,0l-.016.008.072.206.011,0c.032-.011.051-.027.056-.048A.114.114,0,0,0,14.038,13.179Z" transform="translate(-13.848 -12.97)" fill="#e8c015"/><path d="M14.185,13.261l-.078.019v-.008l.019,0-.056-.213-.019.008,0-.008.08-.02,0,.008-.023,0,.055.213.024-.008Z" transform="translate(-13.821 -12.977)" fill="#e8c015"/><path d="M14.373,13.112a.132.132,0,0,1-.016.091.1.1,0,0,1-.067.043.086.086,0,0,1-.082-.02.137.137,0,0,1-.044-.083.134.134,0,0,1,.016-.09.1.1,0,0,1,.072-.048.1.1,0,0,1,.078.024A.131.131,0,0,1,14.373,13.112Zm-.043,0a.27.27,0,0,0-.027-.083.05.05,0,0,0-.051-.019c-.04.008-.056.048-.043.123a.241.241,0,0,0,.027.086.052.052,0,0,0,.051.019.05.05,0,0,0,.043-.035A.171.171,0,0,0,14.33,13.115Z" transform="translate(-13.805 -12.981)" fill="#e8c015"/><path d="M14.553,13.153a.065.065,0,0,1-.024.052.114.114,0,0,1-.07.023.092.092,0,0,1-.072-.016l0-.07h.008a.228.228,0,0,0,.027.067.051.051,0,0,0,.043.016.069.069,0,0,0,.04-.019.037.037,0,0,0,.016-.036.035.035,0,0,0-.016-.031.078.078,0,0,0-.04-.016.234.234,0,0,1-.059-.028.048.048,0,0,1-.024-.043.053.053,0,0,1,.024-.043.1.1,0,0,1,.064-.024.175.175,0,0,1,.063.013l0,.067h-.008a.374.374,0,0,0-.024-.056.048.048,0,0,0-.04-.016.073.073,0,0,0-.043.016.031.031,0,0,0-.016.027.039.039,0,0,0,.02.032.228.228,0,0,0,.051.019.245.245,0,0,1,.055.028A.043.043,0,0,1,14.553,13.153Z" transform="translate(-13.775 -12.984)" fill="#e8c015"/></g><g transform="translate(2.526 0.113)"><path d="M15.13,12.768a.058.058,0,0,1-.024.048.155.155,0,0,1-.074.016l-.02,0,.008.1h.028l0,.008-.086,0v-.008h.019l-.016-.2h-.019v-.008l.083-.008a.279.279,0,0,1,.063,0A.057.057,0,0,1,15.13,12.768Zm-.039,0a.049.049,0,0,0-.016-.035.113.113,0,0,0-.043-.008l-.028,0,.008.1h.013a.073.073,0,0,0,.051-.013A.051.051,0,0,0,15.091,12.768Z" transform="translate(-14.949 -12.706)" fill="#e8c015"/><path d="M15.328,12.935h-.08l0-.008h.024l-.024-.08h-.072l-.027.083.032,0v.008l-.059,0v-.008h.019l.072-.221.019,0,.078.221h.02Zm-.088-.094-.031-.1-.032.1Z" transform="translate(-14.926 -12.707)" fill="#e8c015"/><path d="M15.467,12.787h-.008c-.007-.031-.015-.051-.015-.055a.023.023,0,0,0-.02-.013H15.4v.209h.024v.008l-.083,0v-.008l.024,0V12.72h-.02a.018.018,0,0,0-.019.013.317.317,0,0,0-.016.055h-.008v-.07h.161Z" transform="translate(-14.9 -12.706)" fill="#e8c015"/><path d="M15.652,12.935H15.6l-.075-.107-.008-.008v.107h.019v.008h-.078v-.008h.019l0-.206h-.024V12.71l.091,0c.055,0,.086.016.083.052a.043.043,0,0,1-.02.039.1.1,0,0,1-.055.016l.078.107h.016Zm-.056-.169c0-.032-.019-.044-.055-.044h-.024v.1h.008C15.573,12.817,15.6,12.8,15.6,12.766Z" transform="translate(-14.879 -12.707)" fill="#e8c015"/><path d="M15.712,12.938l-.08,0v-.008h.02l.008-.206h-.02v-.008h.08l0,.008H15.7l-.008.209h.024Z" transform="translate(-14.856 -12.706)" fill="#e8c015"/><path d="M15.911,12.958l-.083-.013,0-.008.02,0-.016-.083-.072-.008-.035.078.032,0,0,.008-.055-.008v-.008l.019,0,.094-.213.024,0,.052.225.019,0Zm-.075-.107-.024-.1-.043.094Z" transform="translate(-14.846 -12.706)" fill="#e8c015"/></g><g transform="translate(3.883 0.463)"><path d="M16.3,13.224l-.146,0v0l.015,0,0-.193h-.019v0l.078,0v.008h-.027l.008.193h.043a.037.037,0,0,0,.016,0l.008-.008a.213.213,0,0,0,.016-.067h.007Z" transform="translate(-16.143 -13.014)" fill="#e8c015"/><path d="M16.364,13.224h-.072v-.008h.019v-.193h-.019v-.008h.072v.008h-.02v.193h.02Z" transform="translate(-16.123 -13.015)" fill="#e8c015"/><path d="M16.542,13.178c0,.035-.027.051-.08.051h-.027l-.07,0v-.008h.019l.016-.193h-.019v-.008l.067,0a.1.1,0,0,1,.059.011.057.057,0,0,1,.031.043c0,.028-.023.044-.066.044a.138.138,0,0,1,.055.019A.052.052,0,0,1,16.542,13.178Zm-.035,0a.044.044,0,0,0-.016-.039.1.1,0,0,0-.056-.013h-.011l0,.1h.02c.019,0,.039,0,.047-.008S16.5,13.193,16.507,13.173Zm0-.1c0-.019,0-.031-.016-.035s-.019-.011-.043-.011h-.011l0,.086h.008C16.479,13.118,16.5,13.1,16.5,13.074Z" transform="translate(-16.113 -13.015)" fill="#e8c015"/><path d="M16.687,13.262l-.163-.027v-.008l.02,0,.035-.189-.016,0v-.008l.153.028-.011.067-.011,0a.132.132,0,0,0,0-.051l0-.008s-.008,0-.016,0l-.056-.013-.016.088.016,0a.024.024,0,0,0,.024,0s.008-.013.016-.032l.008,0-.016.088h-.008a.208.208,0,0,1,0-.036.019.019,0,0,0-.02-.011l-.019,0-.016.1.059.011.016,0,.008-.008c0-.008.016-.028.027-.056H16.7Z" transform="translate(-16.091 -13.013)" fill="#e8c015"/><path d="M16.854,13.316l-.047-.016-.04-.114,0-.013-.031.1.019,0v.008l-.07-.019v-.008l.019,0,.056-.186-.016,0v-.008l.078.024c.051.016.072.04.064.07a.042.042,0,0,1-.028.028.065.065,0,0,1-.055,0l.039.118.016,0Zm0-.169c.008-.027-.008-.043-.04-.056l-.019,0-.028.083h0l0,0C16.815,13.187,16.838,13.179,16.85,13.147Z" transform="translate(-16.069 -13.008)" fill="#e8c015"/><path d="M17.015,13.231h-.008c0-.032.008-.048.008-.051s0-.016-.011-.016l-.019-.008-.072.181.02.008,0,.008-.07-.031v-.008l.023.008.072-.178-.016-.008c-.008,0-.016,0-.019,0s-.016.016-.032.04l-.008,0,.024-.063.142.059Z" transform="translate(-16.045 -13.002)" fill="#e8c015"/><path d="M17.122,13.439l-.067-.035,0,0,.019.008.013-.075-.059-.031-.056.055.024.013,0,0-.047-.024,0,0,.016.008.158-.15.016.008-.032.213.016.008Zm-.028-.115.016-.1-.07.067Z" transform="translate(-16.033 -12.989)" fill="#e8c015"/><path d="M17.317,13.44a.1.1,0,0,1-.15.035l-.06-.035,0-.008.019.011.1-.169-.02-.008,0-.008.059.036A.094.094,0,0,1,17.317,13.44Zm-.032-.019a.112.112,0,0,0,.019-.072c0-.019-.016-.035-.04-.051l-.011,0-.094.165.011.008a.072.072,0,0,0,.064.008A.126.126,0,0,0,17.285,13.421Z" transform="translate(-16.011 -12.982)" fill="#e8c015"/></g></g><g transform="translate(2.387 5.857)"><path d="M15.534,18.015a.111.111,0,0,1,0,.048h0a.039.039,0,0,1-.011.024h0c-.011.011-.043.011-.094.011s-.1,0-.107-.011h0a.034.034,0,0,1,0-.028l0-.011.011-.035a.27.27,0,0,0,0-.052h0a.25.25,0,0,0-.024-.047c-.008-.016-.016-.024-.016-.035v-.008l.008-.016a.055.055,0,0,1,.02-.024c.008-.008.019-.011.07-.019a.651.651,0,0,1,.075-.008c.011,0,.016,0,.019,0a.066.066,0,0,1,.032.048l0,.011v.008a.028.028,0,0,0,0,.016.089.089,0,0,0,0,.056l.008.015v0l.008.011Z" transform="translate(-14.544 -17.754)" fill="#b21229"/><path d="M16.014,18.04a.123.123,0,0,1,0,.052c.126.047.225.078.276.094-.027-.048-.078-.134-.078-.139l-.008-.011.011,0a.321.321,0,0,0,.094-.047,2.058,2.058,0,0,1-.283-.083.077.077,0,0,1-.013.043l0,.013a.035.035,0,0,0-.013.031A.1.1,0,0,0,16,18.02Zm-.367.024a.991.991,0,0,0,.158.051.146.146,0,0,0,.043.008s0-.008-.013-.016a.27.27,0,0,0-.13-.059l-.013,0-.047-.013Zm-.016-.1a.2.2,0,0,0,.055.016.328.328,0,0,0,.052.016.475.475,0,0,1,.114.04.226.226,0,0,1,.064.059l-.016.016a.38.38,0,0,0-.059-.056.327.327,0,0,0-.11-.039A.465.465,0,0,0,15.682,18l-.043-.011,0,.016a.275.275,0,0,1,.058.016h.008a.3.3,0,0,1,.142.067c.013.011.028.031.02.043s-.013.011-.028.011a.222.222,0,0,1-.043-.008,1.235,1.235,0,0,1-.157-.051l-.009.011c.016.008.032.013.051.02.127.043.182.063.23.04a.147.147,0,0,0,.067-.067.065.065,0,0,0,.008-.044l-.008-.016a.12.12,0,0,1-.013-.047.109.109,0,0,1,.013-.04l.008-.008c0-.016.008-.032.011-.051a.1.1,0,0,0-.024-.07.121.121,0,0,0-.11-.032.188.188,0,0,0-.086.024.631.631,0,0,1-.072.031l-.083.024v.008h.056a.777.777,0,0,0,.182-.011.319.319,0,0,0,.075-.024l.008.019a.439.439,0,0,1-.08.028.888.888,0,0,1-.185.008h-.059l0,.011a.053.053,0,0,0,0,.04c0,.008,0,.011,0,.016h0ZM15,18.02a.051.051,0,0,0,.013-.032A.042.042,0,0,0,15,17.958l0-.013a.077.077,0,0,1-.013-.043,2.208,2.208,0,0,1-.283.083.333.333,0,0,0,.09.047l.016,0-.008.011s-.051.091-.078.139c.051-.016.146-.048.276-.094a.086.086,0,0,1,0-.052Zm0-.134a.109.109,0,0,0,.011.051l0,.008a.069.069,0,0,1,.013.04.062.062,0,0,1-.013.047l0,.016a.065.065,0,0,0,.008.044.142.142,0,0,0,.067.067c.048.023.1,0,.228-.04a.554.554,0,0,0,.067-.027l0-.013a1.525,1.525,0,0,1-.177.059.256.256,0,0,1-.048.008.025.025,0,0,1-.024-.011c-.008-.013,0-.032.019-.043a.317.317,0,0,1,.139-.067H15.3a.41.41,0,0,1,.1-.02v-.019c-.024.008-.051.011-.075.019l-.051.013a.334.334,0,0,0-.107.039.2.2,0,0,0-.059.056l-.02-.016a.358.358,0,0,1,.067-.059.436.436,0,0,1,.115-.04.287.287,0,0,0,.051-.016.418.418,0,0,0,.072-.019.093.093,0,0,0-.016-.032.069.069,0,0,1-.016-.039H15.32a.972.972,0,0,1-.19-.008.744.744,0,0,1-.078-.028l.011-.019a.276.276,0,0,0,.075.024.77.77,0,0,0,.182.011h.035v-.011c-.019-.008-.04-.013-.064-.02s-.055-.023-.075-.031a.161.161,0,0,0-.082-.024.123.123,0,0,0-.111.032A.1.1,0,0,0,15,17.886Zm1.364.078-.023.02a.326.326,0,0,1-.111.063c.02.036.072.123.088.15l.016.02-.028,0c-.047-.008-.209-.067-.307-.1a.171.171,0,0,1-.072.07.136.136,0,0,1-.055.013.662.662,0,0,1-.193-.056l-.064-.024a.211.211,0,0,1-.1.013h-.02a.194.194,0,0,1-.1-.016.615.615,0,0,1-.072.027.662.662,0,0,1-.193.056.124.124,0,0,1-.055-.013.171.171,0,0,1-.072-.07c-.1.035-.26.094-.307.1l-.028,0,.016-.02c.016-.027.067-.114.083-.15a.354.354,0,0,1-.107-.063l-.027-.02h.032a1.6,1.6,0,0,0,.311-.086A.147.147,0,0,1,15,17.8a.164.164,0,0,1,.131-.04.213.213,0,0,1,.094.027c.016.008.04.016.07.028l.068.023a.045.045,0,0,1,.019-.019c.016-.016.031-.019.083-.027s.09-.013.11,0a.073.073,0,0,1,.039.051.708.708,0,0,0,.083-.027l.072-.028a.2.2,0,0,1,.091-.027.156.156,0,0,1,.13.04.1.1,0,0,1,.028.078,1.528,1.528,0,0,0,.315.086Zm-.741.1a.111.111,0,0,0,0-.048l-.011-.04-.008-.011v0L15.6,17.95a.089.089,0,0,1,0-.056.028.028,0,0,1,0-.016V17.87l0-.011a.066.066,0,0,0-.032-.048s-.008,0-.019,0a.651.651,0,0,0-.075.008c-.051.008-.063.011-.07.019a.055.055,0,0,0-.02.024l-.008.016v.008c0,.011.008.019.016.035a.25.25,0,0,1,.024.047h0a.27.27,0,0,1,0,.052l-.011.035,0,.011a.034.034,0,0,0,0,.028h0c.011.011.048.011.107.011s.083,0,.094-.011h0a.039.039,0,0,0,.011-.024Zm-.236-.024,0-.016a.576.576,0,0,0-.086.016l-.008,0a.28.28,0,0,0-.131.059c-.008.008-.011.013-.011.016a.123.123,0,0,0,.04-.008,1.094,1.094,0,0,0,.189-.063Z" transform="translate(-14.633 -17.76)"/><path d="M15.858,17.885a2.058,2.058,0,0,0,.283.083.321.321,0,0,1-.094.047l-.011,0,.008.011s.051.091.078.139c-.051-.016-.15-.048-.276-.094a.123.123,0,0,0,0-.052L15.838,18a.1.1,0,0,1-.008-.032.035.035,0,0,1,.013-.031l0-.013A.077.077,0,0,0,15.858,17.885Z" transform="translate(-14.469 -17.743)" fill="#cd1225"/><path d="M15.525,18.085a1.235,1.235,0,0,0,.157.051.222.222,0,0,0,.043.008c.016,0,.024,0,.028-.011s-.008-.032-.02-.043a.3.3,0,0,0-.142-.067h-.008a.275.275,0,0,0-.058-.016l0-.016.043.011a.465.465,0,0,1,.048.013.327.327,0,0,1,.11.039.38.38,0,0,1,.059.056l.016-.016a.226.226,0,0,0-.064-.059.475.475,0,0,0-.114-.04.328.328,0,0,1-.052-.016.2.2,0,0,1-.055-.016l0-.007h0s0-.008,0-.016a.053.053,0,0,1,0-.04l0-.011h.059a.888.888,0,0,0,.185-.008.439.439,0,0,0,.08-.028l-.008-.019a.319.319,0,0,1-.075.024.777.777,0,0,1-.182.011h-.056V17.86l.083-.024a.631.631,0,0,0,.072-.031.188.188,0,0,1,.086-.024.121.121,0,0,1,.11.032.1.1,0,0,1,.024.07c0,.019-.008.035-.011.051l-.008.008a.109.109,0,0,0-.013.04.12.12,0,0,0,.013.047l.008.016a.065.065,0,0,1-.008.044.147.147,0,0,1-.067.067c-.048.023-.1,0-.23-.04-.019-.008-.035-.013-.051-.02Z" transform="translate(-14.515 -17.757)" fill="#cd1225"/><path d="M15.584,18.015a.27.27,0,0,1,.13.059c.008.008.013.013.013.016a.146.146,0,0,1-.043-.008.991.991,0,0,1-.158-.051V18l.047.013Z" transform="translate(-14.511 -17.727)" fill="#cd1225"/><path d="M14.971,18.029a.062.062,0,0,0,.013-.047.069.069,0,0,0-.013-.04l0-.008a.109.109,0,0,1-.011-.051.1.1,0,0,1,.023-.07.123.123,0,0,1,.111-.032.161.161,0,0,1,.082.024c.02.008.044.019.075.031s.044.013.064.02v.011h-.035a.77.77,0,0,1-.182-.011.276.276,0,0,1-.075-.024l-.011.019a.744.744,0,0,0,.078.028.972.972,0,0,0,.19.008h.035a.069.069,0,0,0,.016.039.093.093,0,0,1,.016.032.418.418,0,0,1-.072.019.287.287,0,0,1-.051.016.436.436,0,0,0-.115.04.358.358,0,0,0-.067.059l.02.016a.2.2,0,0,1,.059-.056.334.334,0,0,1,.107-.039L15.275,18c.024-.008.051-.011.075-.019V18a.41.41,0,0,0-.1.02h-.011a.317.317,0,0,0-.139.067c-.015.011-.027.031-.019.043a.025.025,0,0,0,.024.011.256.256,0,0,0,.048-.008,1.525,1.525,0,0,0,.177-.059l0,.013a.554.554,0,0,1-.067.027c-.126.043-.181.063-.228.04a.142.142,0,0,1-.067-.067.065.065,0,0,1-.008-.044Z" transform="translate(-14.589 -17.757)" fill="#cd1225"/><path d="M15.241,18.012A.576.576,0,0,1,15.327,18l0,.016,0,.008a1.094,1.094,0,0,1-.189.063.123.123,0,0,1-.04.008s0-.008.011-.016a.28.28,0,0,1,.131-.059Z" transform="translate(-14.57 -17.728)" fill="#cd1225"/><path d="M15,17.971a.051.051,0,0,1-.013.032l-.008.019a.086.086,0,0,0,0,.052c-.131.047-.225.078-.276.094.027-.048.075-.134.078-.139l.008-.011-.016,0a.333.333,0,0,1-.09-.047,2.208,2.208,0,0,0,.283-.083.077.077,0,0,0,.013.043l0,.013A.042.042,0,0,1,15,17.971Z" transform="translate(-14.625 -17.743)" fill="#cd1225"/></g><g transform="translate(0 4.712)"><path d="M18.2,17.078a.782.782,0,0,0-.141.206,3.793,3.793,0,0,0-.15.351.57.57,0,0,1-.206.264.034.034,0,0,1-.019.016.331.331,0,0,1-.163.091.055.055,0,0,1-.023,0l0,0v0c-.016-.028.016-.08.04-.1s.043-.035.067-.051a.836.836,0,0,0,.138-.11.163.163,0,0,0,.036-.056.068.068,0,0,0,0-.063,1.308,1.308,0,0,0-.166-.252,1.533,1.533,0,0,1,.355-.482,1.916,1.916,0,0,0-.067.313l-.008.043.028-.032A.794.794,0,0,1,18.2,17.078Z" transform="translate(-11.855 -16.735)" fill="#cd1225"/><path d="M17.756,17.542c.008.008.013.02,0,.043a.209.209,0,0,1-.032.044,1.636,1.636,0,0,1-.134.11l-.067.047a.159.159,0,0,0-.056.1l-.035-.032.024-.059a.45.45,0,0,1,.174-.228C17.662,17.542,17.733,17.523,17.756,17.542Z" transform="translate(-11.863 -16.646)" fill="#b21229"/><path d="M17.874,17.546a.217.217,0,0,0-.122.027.489.489,0,0,0-.182.241,1.572,1.572,0,0,1-.185.339c-.027.04-.051.067-.075.1a.473.473,0,0,1-.359.177.514.514,0,0,1-.481-.2.071.071,0,0,1,0-.067.052.052,0,0,1,.043,0,.374.374,0,0,1,.115.07c.131.11.214.158.281.158a.168.168,0,0,0,.106-.043,1.025,1.025,0,0,0,.177-.233.4.4,0,0,0,.08-.276.188.188,0,0,0-.075-.094c.268-.469.4-.482.485-.442a.2.2,0,0,1,.043.027A.949.949,0,0,1,17.874,17.546Z" transform="translate(-11.996 -16.681)" fill="#cd1225"/><path d="M17,18.206a.03.03,0,0,1,0,.027.13.13,0,0,1-.126.032.659.659,0,0,1-.225-.146.482.482,0,0,0-.126-.08.162.162,0,0,0-.039,0l.039-.1a1.6,1.6,0,0,1,.4.181C16.945,18.131,17,18.17,17,18.206Z" transform="translate(-11.993 -16.592)" fill="#b21229"/><path d="M14.33,17.934l.043.1a.222.222,0,0,0-.043,0,.564.564,0,0,0-.123.08.68.68,0,0,1-.225.146.126.126,0,0,1-.125-.032.065.065,0,0,1-.009-.027c.009-.035.064-.075.088-.091A1.611,1.611,0,0,1,14.33,17.934Z" transform="translate(-12.353 -16.592)" fill="#b21229"/><path d="M17.638,17.83a.382.382,0,0,1-.078.256,1.069,1.069,0,0,1-.139.19.193.193,0,0,0-.094-.1,2.241,2.241,0,0,0-.856-.3,4.219,4.219,0,0,0-1.665,0,2.215,2.215,0,0,0-.856.3.193.193,0,0,0-.094.1.883.883,0,0,1-.139-.19.382.382,0,0,1-.078-.256.189.189,0,0,1,.075-.088.849.849,0,0,1,.118-.055l.032-.013c.11-.047.224-.09.339-.126a4.563,4.563,0,0,1,1.436-.185,4.585,4.585,0,0,1,1.437.185c.114.036.228.08.339.126l.032.013a.95.95,0,0,1,.115.055A.206.206,0,0,1,17.638,17.83Z" transform="translate(-12.383 -16.669)" fill="#cd1225"/><path d="M13.4,17.85l-.036.032a.152.152,0,0,0-.055-.1c-.024-.015-.043-.031-.067-.047a.845.845,0,0,1-.134-.11.108.108,0,0,1-.032-.044c-.008-.023-.008-.035,0-.043s.091,0,.123.02a.424.424,0,0,1,.169.228A.351.351,0,0,1,13.4,17.85Z" transform="translate(-12.46 -16.646)" fill="#b21229"/><path d="M14.488,18.157a.058.058,0,0,1,0,.067.507.507,0,0,1-.477.2.464.464,0,0,1-.358-.177c-.024-.032-.048-.059-.08-.1a1.806,1.806,0,0,1-.181-.339.479.479,0,0,0-.186-.241.194.194,0,0,0-.118-.027.994.994,0,0,1,.147-.222.19.19,0,0,1,.039-.027c.088-.04.222-.027.49.442a.182.182,0,0,0-.075.094.391.391,0,0,0,.078.276,1.061,1.061,0,0,0,.174.233.178.178,0,0,0,.11.043c.068,0,.15-.048.281-.158a.326.326,0,0,1,.114-.07A.052.052,0,0,1,14.488,18.157Z" transform="translate(-12.457 -16.681)" fill="#cd1225"/><path d="M13.342,17.9c.024.016.055.067.04.1l0,0,0,0a.037.037,0,0,1-.02,0,.358.358,0,0,1-.165-.091.146.146,0,0,1-.02-.016.616.616,0,0,1-.2-.264,2.7,2.7,0,0,0-.15-.351.707.707,0,0,0-.138-.206.752.752,0,0,1,.28.131l.031.032L12.98,17.2a2.046,2.046,0,0,0-.067-.313,1.61,1.61,0,0,1,.355.482,1.114,1.114,0,0,0-.166.252.077.077,0,0,0,0,.063.17.17,0,0,0,.039.056,1.016,1.016,0,0,0,.139.11C13.3,17.864,13.318,17.88,13.342,17.9Z" transform="translate(-12.513 -16.735)" fill="#cd1225"/><path d="M19.043,17.029l-.091.052c-.146.074-.26.382-.335.583a.655.655,0,0,1-.217.276s-.011.008-.016.016a.408.408,0,0,1-.177.094.077.077,0,0,1-.043-.011h0l0,0-.063-.055a1.593,1.593,0,0,1-.15.26,1.2,1.2,0,0,1-.08.1.484.484,0,0,1-.379.189h-.027a.7.7,0,0,1-.252-.039.473.473,0,0,1-.222-.178.084.084,0,0,1,0-.09l.056-.139a4.233,4.233,0,0,0-.423-.094,4.066,4.066,0,0,0-.829-.083h0a5.293,5.293,0,0,0-1.25.177l.056.139a.092.092,0,0,1,0,.09.485.485,0,0,1-.226.178.732.732,0,0,1-.276.039.486.486,0,0,1-.379-.189.751.751,0,0,1-.078-.1,1.32,1.32,0,0,1-.15-.26l-.064.055,0,0h0a.077.077,0,0,1-.043.011.4.4,0,0,1-.177-.094.083.083,0,0,0-.02-.016.67.67,0,0,1-.213-.276c-.075-.2-.193-.509-.335-.583l-.091-.052.1.024a1.17,1.17,0,0,1,.332.131,1.05,1.05,0,0,0-.091-.332l-.063-.1.082.083a1.586,1.586,0,0,1,.41.529l.032-.019a.182.182,0,0,1,.2.027,1.449,1.449,0,0,1,.324.423c.035-.02.075-.036.106-.051L14,17.732a3.327,3.327,0,0,1,.343-.126,4.561,4.561,0,0,1,1.4-.185h.047a4.638,4.638,0,0,1,1.445.185c.114.035.232.08.343.126l.027.013a.956.956,0,0,1,.11.051,1.449,1.449,0,0,1,.324-.423.174.174,0,0,1,.2-.027.088.088,0,0,1,.032.019,1.7,1.7,0,0,1,.41-.529l.086-.083-.063.1a.938.938,0,0,0-.091.332,1.17,1.17,0,0,1,.332-.131Zm-.3.273a.782.782,0,0,1,.141-.206.794.794,0,0,0-.283.131l-.028.032.008-.043a1.916,1.916,0,0,1,.067-.313,1.533,1.533,0,0,0-.355.482,1.308,1.308,0,0,1,.166.252.068.068,0,0,1,0,.063.163.163,0,0,1-.036.056.836.836,0,0,1-.138.11c-.024.016-.043.032-.067.051s-.056.067-.04.1v0l0,0a.055.055,0,0,0,.023,0,.331.331,0,0,0,.163-.091.034.034,0,0,0,.019-.016.57.57,0,0,0,.206-.264A3.793,3.793,0,0,1,18.739,17.3Zm-.308.39c.008-.023,0-.035,0-.043-.024-.019-.094,0-.122.02a.45.45,0,0,0-.174.228l-.024.059.035.032a.159.159,0,0,1,.056-.1l.067-.047a1.636,1.636,0,0,0,.134-.11A.209.209,0,0,0,18.431,17.692Zm-.142-.047a.217.217,0,0,1,.122-.027.949.949,0,0,0-.146-.222.2.2,0,0,0-.043-.027c-.083-.04-.217-.027-.485.442a.188.188,0,0,1,.075.094.4.4,0,0,1-.08.276,1.025,1.025,0,0,1-.177.233.168.168,0,0,1-.106.043c-.067,0-.15-.048-.281-.158a.374.374,0,0,0-.115-.07.052.052,0,0,0-.043,0,.071.071,0,0,0,0,.067.514.514,0,0,0,.481.2.473.473,0,0,0,.359-.177c.024-.032.048-.059.075-.1a1.572,1.572,0,0,0,.185-.339A.489.489,0,0,1,18.289,17.645Zm-.58.524a.382.382,0,0,0,.078-.256.206.206,0,0,0-.078-.088.95.95,0,0,0-.115-.055l-.032-.013c-.11-.047-.225-.09-.339-.126a4.585,4.585,0,0,0-1.437-.185,4.563,4.563,0,0,0-1.436.185c-.115.036-.228.08-.339.126l-.032.013a.849.849,0,0,0-.118.055.189.189,0,0,0-.075.088.382.382,0,0,0,.078.256.883.883,0,0,0,.139.19.193.193,0,0,1,.094-.1,2.215,2.215,0,0,1,.856-.3,4.219,4.219,0,0,1,1.665,0,2.241,2.241,0,0,1,.856.3.193.193,0,0,1,.094.1A1.069,1.069,0,0,0,17.71,18.169Zm-.171.225a.03.03,0,0,0,0-.027c0-.035-.059-.075-.083-.091a1.6,1.6,0,0,0-.4-.181l-.039.1a.162.162,0,0,1,.039,0,.482.482,0,0,1,.126.08.659.659,0,0,0,.225.146A.13.13,0,0,0,17.539,18.394Zm-2.975-.1a.058.058,0,0,0,0-.067.052.052,0,0,0-.043,0,.326.326,0,0,0-.114.07c-.131.11-.213.158-.281.158a.178.178,0,0,1-.11-.043,1.062,1.062,0,0,1-.174-.233.391.391,0,0,1-.078-.276.182.182,0,0,1,.075-.094c-.268-.469-.4-.482-.49-.442a.19.19,0,0,0-.039.027.994.994,0,0,0-.147.222.194.194,0,0,1,.118.027.479.479,0,0,1,.186.241,1.806,1.806,0,0,0,.181.339c.032.04.056.067.08.1a.464.464,0,0,0,.358.177A.507.507,0,0,0,14.564,18.3Zm-.011-.1-.043-.1a1.611,1.611,0,0,0-.394.181c-.024.016-.078.056-.088.091a.065.065,0,0,0,.009.027.126.126,0,0,0,.125.032.68.68,0,0,0,.225-.146.564.564,0,0,1,.123-.08A.222.222,0,0,1,14.553,18.2Zm-1.121-.209.036-.032a.351.351,0,0,0-.028-.059.424.424,0,0,0-.169-.228c-.032-.02-.1-.04-.123-.02s-.011.02,0,.043a.108.108,0,0,0,.032.044.845.845,0,0,0,.134.11c.024.016.043.032.067.047A.152.152,0,0,1,13.432,17.989Zm-.031.024c.015-.028-.016-.08-.04-.1s-.043-.035-.067-.051a1.016,1.016,0,0,1-.139-.11.17.17,0,0,1-.039-.056.077.077,0,0,1,0-.063,1.114,1.114,0,0,1,.166-.252,1.61,1.61,0,0,0-.355-.482,2.046,2.046,0,0,1,.067.313l.007.043-.031-.032a.752.752,0,0,0-.28-.131.707.707,0,0,1,.138.206,2.7,2.7,0,0,1,.15.351.616.616,0,0,0,.2.264.146.146,0,0,0,.02.016.358.358,0,0,0,.165.091.037.037,0,0,0,.02,0l0,0Z" transform="translate(-12.533 -16.753)"/><g transform="translate(1.55 0.809)"><g transform="translate(0 0.272)"><path d="M14.141,17.87l-.043.016-.1-.063-.013,0,.04.094.019-.008v0l-.067.027v0l.016-.008-.075-.177-.016.008,0-.008.075-.032c.048-.02.078-.016.091.016a.046.046,0,0,1,0,.039.093.093,0,0,1-.043.032l.1.067.016-.008Zm-.11-.126c-.008-.027-.032-.032-.063-.016l-.02.008.032.08h.008v0C14.031,17.795,14.042,17.771,14.031,17.744Z" transform="translate(-13.897 -17.704)" fill="#e8c015"/></g><g transform="translate(0.182 0.193)"><path d="M14.274,17.833l-.155.047,0-.008.019,0-.059-.185-.019.008v-.008l.15-.048.019.064-.013,0c-.015-.024-.023-.04-.031-.043l-.008,0h-.013l-.055.02.027.083.016,0a.04.04,0,0,0,.019-.011V17.7h.008l.028.083-.013,0a.145.145,0,0,0-.019-.031.051.051,0,0,0-.02,0l-.019,0,.032.09.056-.015.015-.008s0,0,0-.013a.394.394,0,0,0,0-.059l.013,0Z" transform="translate(-14.057 -17.635)" fill="#e8c015"/></g><g transform="translate(0.367 0.156)"><path d="M14.389,17.639a.038.038,0,0,1-.011.048.172.172,0,0,1-.067.027l-.016,0,.024.091.027,0v0l-.075.02,0-.008.02,0-.048-.185-.019,0v-.008l.075-.02a.138.138,0,0,1,.055,0A.042.042,0,0,1,14.389,17.639Zm-.035.008a.045.045,0,0,0-.02-.032.049.049,0,0,0-.039,0l-.024,0,.024.086.011,0a.085.085,0,0,0,.043-.019C14.359,17.679,14.362,17.667,14.354,17.647Z" transform="translate(-14.22 -17.602)" fill="#e8c015"/></g><g transform="translate(0.544 0.102)"><path d="M14.55,17.563l-.02,0,.028.142c.008.039-.008.063-.052.07-.027,0-.047,0-.059-.008a.077.077,0,0,1-.023-.051l-.028-.126-.016,0,0-.008.075-.015v.007l-.019,0,.027.134a.086.086,0,0,0,.016.043c.008.008.019.008.039.008a.038.038,0,0,0,.032-.024.064.064,0,0,0,0-.055l-.024-.123-.023,0,0-.008.051-.013Z" transform="translate(-14.376 -17.555)" fill="#e8c015"/></g><g transform="translate(0.734 0.083)"><path d="M14.736,17.672c.008.035-.013.055-.059.067-.008,0-.02,0-.032.008l-.067.011v-.008l.019,0-.035-.19-.019,0v-.008l.067-.013a.442.442,0,0,1,.059,0,.055.055,0,0,1,.04.035c0,.027-.013.048-.052.059a.083.083,0,0,1,.056.008C14.728,17.648,14.736,17.656,14.736,17.672Zm-.064-.091c0-.016-.008-.027-.019-.032a.089.089,0,0,0-.043,0l-.016,0,.016.083h.011C14.661,17.629,14.681,17.613,14.673,17.581Zm.032.094a.041.041,0,0,0-.024-.031.114.114,0,0,0-.056,0h-.011l.016.1.019,0a.134.134,0,0,0,.048-.02C14.7,17.712,14.7,17.7,14.7,17.676Z" transform="translate(-14.543 -17.538)" fill="#e8c015"/></g><g transform="translate(0.923 0.056)"><path d="M14.883,17.707l-.142.023,0-.008.02,0-.027-.19-.02,0v-.008l.08-.011v.007l-.028,0,.032.19.043-.008c.009,0,.013,0,.016,0l0-.008a.282.282,0,0,0,.008-.067h.007Z" transform="translate(-14.709 -17.514)" fill="#e8c015"/></g><g transform="translate(1.089 0.032)"><path d="M14.954,17.7l-.075.013V17.7l.019,0-.024-.189h-.019v0l.07-.011V17.5l-.019,0,.024.19h.019Z" transform="translate(-14.855 -17.493)" fill="#e8c015"/></g><g transform="translate(1.195 0.014)"><path d="M15.114,17.672a.125.125,0,0,1-.055.019.084.084,0,0,1-.075-.024.077.077,0,0,1-.035-.07.115.115,0,0,1,.019-.083.1.1,0,0,1,.07-.035.087.087,0,0,1,.056.008l0,.055h-.013a.151.151,0,0,0-.019-.047.037.037,0,0,0-.028-.013.067.067,0,0,0-.047.032.139.139,0,0,0-.008.075c0,.07.027.1.07.1.016,0,.024-.008.028-.02s.008-.027.016-.059h.007Z" transform="translate(-14.948 -17.477)" fill="#e8c015"/></g><g transform="translate(1.373)"><path d="M15.3,17.674l-.075,0V17.67l.024,0-.028-.072-.067,0-.019.075h.024l0,.008H15.1v-.008h.016l.059-.206.019,0,.083.2H15.3Zm-.083-.086L15.18,17.5l-.024.094Z" transform="translate(-15.105 -17.465)" fill="#e8c015"/></g><g transform="translate(1.673)"><path d="M15.55,17.567c0,.072-.039.107-.114.1h-.067v-.008h.019l0-.189h-.019v-.008h.067C15.514,17.465,15.55,17.5,15.55,17.567Zm-.035,0a.118.118,0,0,0-.019-.07.07.07,0,0,0-.059-.024h-.011v.189h.011a.058.058,0,0,0,.059-.019A.127.127,0,0,0,15.514,17.567Z" transform="translate(-15.369 -17.465)" fill="#e8c015"/></g><g transform="translate(1.878 0.003)"><path d="M15.734,17.583a.1.1,0,0,1-.032.075.069.069,0,0,1-.066.024.078.078,0,0,1-.064-.032.133.133,0,0,1-.024-.078.151.151,0,0,1,.032-.08.092.092,0,0,1,.07-.024.078.078,0,0,1,.064.032A.111.111,0,0,1,15.734,17.583Zm-.035,0a.222.222,0,0,0-.008-.08.055.055,0,0,0-.04-.027c-.035,0-.059.032-.063.1a.206.206,0,0,0,.008.078.042.042,0,0,0,.04.027.047.047,0,0,0,.043-.023A.158.158,0,0,0,15.7,17.579Z" transform="translate(-15.549 -17.467)" fill="#e8c015"/></g><g transform="translate(2.076 0.016)"><path d="M15.944,17.712l-.078-.013v-.008l.027,0,.019-.182-.086.182h-.013l-.042-.2-.02.185.024,0v.008l-.051-.008v-.008l.019,0,.019-.193h-.019l0-.008.056.008.035.166.075-.155.056,0v.008h-.02l-.023.189.023,0Z" transform="translate(-15.723 -17.479)" fill="#e8c015"/></g><g transform="translate(2.312 0.043)"><path d="M16,17.72l-.07-.008,0-.008h.016l.028-.189-.016,0V17.5l.07.013v.007l-.019,0-.028.193h.02Z" transform="translate(-15.931 -17.503)" fill="#e8c015"/></g><g transform="translate(2.4 0.059)"><path d="M16.229,17.557l-.02,0-.035.2-.024,0-.078-.221-.035.193.031,0,0,.008-.055-.008v-.007h.019l.031-.186-.019,0,0-.008.06.008.07.182.024-.155-.027-.008v-.008l.059.013Z" transform="translate(-16.008 -17.517)" fill="#e8c015"/></g><g transform="translate(2.6 0.094)"><path d="M16.256,17.765l-.072-.016v0l.02,0,.035-.189-.019,0v-.008l.074.013,0,.008-.019,0-.036.19.02,0Z" transform="translate(-16.184 -17.548)" fill="#e8c015"/></g><g transform="translate(2.706 0.126)"><path d="M16.416,17.785a.08.08,0,0,1-.055,0,.1.1,0,0,1-.067-.043.092.092,0,0,1-.013-.078.114.114,0,0,1,.044-.075.1.1,0,0,1,.078-.013.141.141,0,0,1,.051.024l-.011.056-.013,0c0-.027,0-.047,0-.051a.032.032,0,0,0-.024-.019.059.059,0,0,0-.056.016.123.123,0,0,0-.031.07c-.016.067,0,.1.039.11a.031.031,0,0,0,.032-.007c.008,0,.016-.024.032-.052l.011,0Z" transform="translate(-16.278 -17.576)" fill="#e8c015"/></g><g transform="translate(2.857 0.166)"><path d="M16.6,17.844l-.072-.02v-.008l.02.008,0-.078-.063-.016-.043.063.027.008,0,.008L16.41,17.8v-.008l.016,0,.118-.181.019.008.016.213.016,0Zm-.056-.107,0-.1-.051.083Z" transform="translate(-16.41 -17.611)" fill="#e8c015"/></g><g transform="translate(3.042 0.205)"><path d="M16.817,17.712l-.016,0-.067.185-.019-.008-.048-.228-.063.185.027.008,0,.008-.056-.019,0-.008.02.008.063-.182-.019-.008,0,0,.059.02.036.189.055-.15-.031-.011,0-.008.056.019Z" transform="translate(-16.573 -17.645)" fill="#e8c015"/></g><g transform="translate(3.224 0.308)"><path d="M16.906,17.972l-.067-.032,0-.008.019.008.008-.075-.059-.027-.051.056.024.011,0,.008-.047-.024,0-.008.013.008.149-.153.02.008-.024.213.016.008Zm-.031-.115.011-.1-.067.072Z" transform="translate(-16.733 -17.736)" fill="#e8c015"/></g></g></g></g></g></svg>