<svg xmlns="http://www.w3.org/2000/svg" width="35.172" height="35.169" viewBox="0 0 35.172 35.169"><g transform="translate(0)"><g transform="translate(0 0)"><path d="M4.486,5.165V28.592a17.537,17.537,0,0,1,0-23.427Z" transform="translate(0 0.706)" fill="#d42b1e"/><path d="M30.151,5.875V29.3a17.556,17.556,0,0,1-26.2,0V5.871a17.552,17.552,0,0,1,26.2,0Z" transform="translate(0.54)" fill="#fff"/><path d="M31.481,16.877A17.5,17.5,0,0,1,27,28.591V5.168A17.5,17.5,0,0,1,31.481,16.877Z" transform="translate(3.691 0.707)" fill="#d42b1e"/><path d="M22,20.87l4.958-4.029-1.155-.5a.349.349,0,0,1-.2-.415l.92-3.294-2.978.639a.354.354,0,0,1-.418-.264l-.324-1.4-2.411,2.678a.429.429,0,0,1-.738-.374l1.109-5.434-1.61.825A.491.491,0,0,1,18.5,9.1l-1.79-3.318L14.915,9.1a.5.5,0,0,1-.659.206l-1.61-.825,1.109,5.434a.427.427,0,0,1-.734.374L10.607,11.61l-.324,1.4a.351.351,0,0,1-.414.264l-2.983-.639.92,3.294a.35.35,0,0,1-.2.415l-1.159.5,4.958,4.029a.688.688,0,0,1,.217.76l-.446,1.279,4.806-.635a.382.382,0,0,1,.433.391l-.142,5.14h.857l-.142-5.14a.384.384,0,0,1,.433-.391l4.809.635-.446-1.279A.681.681,0,0,1,22,20.87Z" transform="translate(0.882 0.791)" fill="#d42b1e"/></g></g></svg>