<svg xmlns="http://www.w3.org/2000/svg" width="35.169" height="35.169" viewBox="0 0 35.169 35.169"><g transform="translate(0 0)"><path d="M35.169,17.584A17.6,17.6,0,0,1,17.584,35.169a17.4,17.4,0,0,1-5.349-.833A17.585,17.585,0,1,1,35.169,17.584Z" fill="#8c1b3c"/><path d="M16.334,5.763,9.185,7.716l7.149,1.953L9.185,11.622l7.149,1.956L9.185,15.531l7.149,1.953L9.185,19.441l7.149,1.953L9.185,23.347,16.334,25.3,9.185,27.256l7.149,1.953L9.185,31.162l7.149,1.953-4.1,1.121a17.586,17.586,0,0,1,0-33.5l4.1,1.121L9.185,3.81Z" transform="translate(0 0.1)" fill="#fff"/></g></svg>