<svg xmlns="http://www.w3.org/2000/svg" width="35.153" height="35.153" viewBox="0 0 35.153 35.153"><g transform="translate(0)"><g transform="translate(0 0)"><path d="M34.03,11.717H.882a17.583,17.583,0,0,1,33.148,0Z" transform="translate(0.121)" fill="#0836ab"/><path d="M34.03,20.616A17.574,17.574,0,0,1,2.239,23.544,17.362,17.362,0,0,1,.882,20.616Z" transform="translate(0.121 2.819)" fill="#009444"/><path d="M35.153,16.167a17.472,17.472,0,0,1-1,5.859H1A17.619,17.619,0,0,1,1,10.308H34.151A17.482,17.482,0,0,1,35.153,16.167Z" transform="translate(0 1.409)" fill="#ec4035"/><g transform="translate(5.756 5.756)"><path d="M16.912,19.267A2.267,2.267,0,0,0,15.881,19c-.027,0-.067,0-.106,0v-.163h1.618v-.607H15.775v-.214c.687-.1,1.2-.484,1.2-.947s-.513-.848-1.2-.947v-.213h1.618V15.3H15.775v-.182h.032a2.308,2.308,0,0,0,1.455-.4,1.429,1.429,0,0,0,.386-.549,2.7,2.7,0,0,0,.123-.559c.035-.241.055-.482.088-.723a3.739,3.739,0,0,1,.109-.6.991.991,0,0,1,.1-.335,3.111,3.111,0,0,1-.3.351,8.531,8.531,0,0,0-.709,1.247A1.544,1.544,0,0,1,16,14.379a1.578,1.578,0,0,1-.228.032V14a1.551,1.551,0,0,0,0-3.021V9.156q.326-.268.663-.6a2.73,2.73,0,0,0,.789-1.874c-.086.252-.8.635-1.258.966-.056.04-.122.08-.193.123V5.584a11.233,11.233,0,0,1,4.079,21.55c-.489-.5-1.728-1.764-2.271-2.205a3.573,3.573,0,0,0-1.807-.552v-.485a1.859,1.859,0,0,0,.982-1.787,1.86,1.86,0,0,0-.982-1.788v-.272a2.053,2.053,0,0,1,1.27,1.073A8.763,8.763,0,0,0,18.1,23.09a.912.912,0,0,1-.063-.248c-.027-.126-.051-.252-.075-.38-.051-.311-.094-.626-.134-.939C17.723,20.718,17.72,19.72,16.912,19.267Z" transform="translate(-3.6 -4.993)" fill="#f9e51b"/><path d="M14.841,18.832h1.621V19c-.039,0-.075,0-.1,0a2.259,2.259,0,0,0-1.03.268c-.808.454-.812,1.452-.918,2.256-.04.313-.083.627-.134.939-.024.127-.048.253-.075.38a1.058,1.058,0,0,1-.064.248A8.673,8.673,0,0,0,15.2,21.117a2.023,2.023,0,0,1,1.266-1.07v.268a1.856,1.856,0,0,0-.986,1.788,1.856,1.856,0,0,0,.986,1.787v.485a3.566,3.566,0,0,0-1.806.552c-.544.441-1.784,1.7-2.272,2.205a11.233,11.233,0,0,1,4.079-21.55V8.113a3.581,3.581,0,0,0-1.132.73,1.518,1.518,0,0,0-.146,1.37c.158-.158.284-.131.821-.335a2.918,2.918,0,0,0,.457-.225v1.322a1.551,1.551,0,0,0,0,3.021v.415a1.578,1.578,0,0,1-.228-.032,1.539,1.539,0,0,1-1.045-.829,8.52,8.52,0,0,0-.71-1.247,3.5,3.5,0,0,1-.3-.351.942.942,0,0,1,.1.335,3.4,3.4,0,0,1,.11.6c.032.241.051.482.086.723a3.032,3.032,0,0,0,.123.559,1.429,1.429,0,0,0,.386.549,2.309,2.309,0,0,0,1.456.4h.031V15.3H14.841v.607h1.621v.213c-.687.1-1.2.485-1.2.947s.513.849,1.2.947v.214H14.841Z" transform="translate(-4.993 -4.993)" fill="#f9e51b"/><path d="M16.888,5.064A11.82,11.82,0,1,1,5.064,16.884,11.833,11.833,0,0,1,16.888,5.064Zm4.43,22.141a11.233,11.233,0,0,0-4.079-21.55V7.838c.072-.043.138-.083.193-.123C17.89,7.384,18.6,7,18.691,6.749A2.73,2.73,0,0,1,17.9,8.623q-.338.336-.663.6v1.819a1.551,1.551,0,0,1,0,3.021v.415a1.578,1.578,0,0,0,.228-.032,1.544,1.544,0,0,0,1.046-.829,8.531,8.531,0,0,1,.709-1.247,3.111,3.111,0,0,0,.3-.351.991.991,0,0,0-.1.335,3.739,3.739,0,0,0-.109.6c-.033.241-.052.482-.088.723a2.7,2.7,0,0,1-.123.559,1.429,1.429,0,0,1-.386.549,2.308,2.308,0,0,1-1.455.4h-.032v.182h1.618v.607H17.239v.213c.687.1,1.2.485,1.2.947s-.513.849-1.2.947V18.3h1.618V18.9H17.239v.163c.039,0,.078,0,.106,0a2.267,2.267,0,0,1,1.031.268c.808.454.812,1.452.918,2.256.04.313.083.627.134.939.024.127.048.253.075.38a.912.912,0,0,0,.063.248,8.763,8.763,0,0,1-1.057-1.972,2.053,2.053,0,0,0-1.27-1.073v.272a1.86,1.86,0,0,1,.982,1.788,1.859,1.859,0,0,1-.982,1.787v.485A3.573,3.573,0,0,1,19.047,25C19.59,25.441,20.829,26.7,21.318,27.205Zm-4.786-2.758v-.485a1.856,1.856,0,0,1-.986-1.787,1.856,1.856,0,0,1,.986-1.788v-.268a2.023,2.023,0,0,0-1.266,1.07,8.673,8.673,0,0,1-1.057,1.972,1.058,1.058,0,0,0,.064-.248c.027-.126.051-.252.075-.38.051-.311.094-.626.134-.939.107-.8.11-1.8.918-2.256a2.259,2.259,0,0,1,1.03-.268c.027,0,.064,0,.1,0V18.9H14.911V18.3h1.621v-.214c-.687-.1-1.2-.484-1.2-.947s.513-.848,1.2-.947v-.213H14.911V15.37h1.621v-.182H16.5a2.309,2.309,0,0,1-1.456-.4,1.429,1.429,0,0,1-.386-.549,3.032,3.032,0,0,1-.123-.559c-.035-.241-.055-.482-.086-.723a3.4,3.4,0,0,0-.11-.6.942.942,0,0,0-.1-.335,3.5,3.5,0,0,0,.3.351,8.52,8.52,0,0,1,.71,1.247,1.539,1.539,0,0,0,1.045.829,1.578,1.578,0,0,0,.228.032v-.415a1.551,1.551,0,0,1,0-3.021V9.723a2.918,2.918,0,0,1-.457.225c-.537.2-.663.177-.821.335a1.518,1.518,0,0,1,.146-1.37,3.581,3.581,0,0,1,1.132-.73V5.655a11.233,11.233,0,0,0-4.079,21.55c.489-.5,1.728-1.764,2.272-2.205A3.566,3.566,0,0,1,16.532,24.447Z" transform="translate(-5.064 -5.064)"/></g></g></g></svg>