<svg xmlns="http://www.w3.org/2000/svg" width="35.153" height="35.153" viewBox="0 0 35.153 35.153"><g transform="translate(0)"><g transform="translate(0 0)"><path d="M17.455,32.334A17.6,17.6,0,0,0,34.026,20.616H.885A17.6,17.6,0,0,0,17.455,32.334Z" transform="translate(0.121 2.819)"/><path d="M17.455,0A17.6,17.6,0,0,0,.885,11.717H34.026A17.61,17.61,0,0,0,17.455,0Z" transform="translate(0.121)" fill="#ce1126"/><path d="M34.147,10.308H1.006a17.563,17.563,0,0,0,0,11.717H34.147a17.563,17.563,0,0,0,0-11.717Z" transform="translate(0 1.409)" fill="#fff"/></g></g></svg>