<svg xmlns="http://www.w3.org/2000/svg" width="35.153" height="35.153" viewBox="0 0 35.153 35.153"><g transform="translate(0 0)"><path d="M34.03,20.616c-.019.056-.04.111-.063.163-.052.145-.107.288-.163.434l-.082.2c-.048.118-.1.232-.151.35s-.1.233-.157.351c-.02.048-.044.1-.072.155a2.053,2.053,0,0,1-.1.2,17.569,17.569,0,0,1-31.582-.008c-.035-.067-.067-.134-.1-.2-.019-.036-.035-.075-.051-.107-.059-.131-.118-.26-.174-.391s-.1-.232-.15-.35c-.027-.067-.055-.134-.083-.2-.055-.147-.11-.289-.161-.434a1.712,1.712,0,0,1-.059-.163Z" transform="translate(0.121 2.819)" fill="#d90201"/><path d="M35.153,16.167a17.465,17.465,0,0,1-.991,5.82l-.011.039H1.006a.185.185,0,0,1-.016-.039,17.56,17.56,0,0,1,0-11.639.068.068,0,0,1,.011-.04H34.147a.068.068,0,0,1,.011.04A17.34,17.34,0,0,1,35.153,16.167Z" transform="translate(0 1.409)" fill="#fff"/><path d="M34.026,11.717H.885c.019-.055.035-.11.059-.166.111-.307.23-.607.359-.907.035-.078.067-.153.1-.233.051-.114.107-.232.163-.347.031-.067.063-.139.1-.206a17.573,17.573,0,0,1,31.578,0c.036.067.067.139.1.206.056.115.11.233.161.347.04.083.072.166.107.246.131.3.249.6.356.895A1.713,1.713,0,0,1,34.026,11.717Z" transform="translate(0.121)" fill="#1f9e42"/><g transform="translate(13.048 13.241)"><path d="M18.591,15.082a4.824,4.824,0,0,0-.241-.7,4.373,4.373,0,0,0-.8-1.279,12.842,12.842,0,0,1,.3,1.421,6.8,6.8,0,0,1,.083,1.4,3.383,3.383,0,0,1-.115.746,2.742,2.742,0,0,1-.264.7,3.09,3.09,0,0,1-.426.612,3.972,3.972,0,0,1-.552.509c-.1.075-.213.15-.319.221.016-1.223.118-5.148.118-5.823l-.572-.379-.564.379c0,.675.1,4.6.118,5.823-.107-.07-.217-.146-.324-.221a4.247,4.247,0,0,1-.552-.509,3.217,3.217,0,0,1-.422-.612,2.936,2.936,0,0,1-.268-.7,3.669,3.669,0,0,1-.11-.746,6.9,6.9,0,0,1,.078-1.4,13.076,13.076,0,0,1,.308-1.421,4.373,4.373,0,0,0-.8,1.279,4.568,4.568,0,0,0-.241.7,3.868,3.868,0,0,0-.134.835,3.565,3.565,0,0,0,.051.932,3.36,3.36,0,0,0,.319.931,3.527,3.527,0,0,0,.588.8,3.972,3.972,0,0,0,.746.564,3.537,3.537,0,0,0,.418.213c-.241.107-.45.194-.615.257-.241.094-.379.158-.379.158s.149.011.414.016a3.555,3.555,0,0,0,.474-.016,4.272,4.272,0,0,0,.61-.083.261.261,0,0,0,.032-.008c.028.067.059.131.083.182.1.217.169.339.169.339s.067-.122.171-.339c.023-.051.051-.115.082-.182.013,0,.02,0,.032.008a4.308,4.308,0,0,0,.612.083,3.549,3.549,0,0,0,.474.016c.264,0,.41-.016.41-.016s-.139-.064-.375-.158c-.166-.063-.375-.15-.616-.257a3.37,3.37,0,0,0,.418-.213,4.01,4.01,0,0,0,.746-.564,3.382,3.382,0,0,0,.584-.8,3.264,3.264,0,0,0,.324-.931,3.565,3.565,0,0,0,.051-.932A3.938,3.938,0,0,0,18.591,15.082Z" transform="translate(-11.286 -11.531)" fill="#d90201"/><path d="M12.811,18.032a2.632,2.632,0,0,1-.146-.407c-.044-.15-.107-.3-.15-.473s-.072-.343-.115-.522c-.011-.181-.04-.363-.043-.548a3.222,3.222,0,0,1,.035-.552c.016-.091.024-.185.043-.276s.051-.181.075-.268a3.837,3.837,0,0,1,.19-.521c.086-.161.15-.332.244-.477s.174-.292.26-.426c.174-.26.332-.481.447-.631s.189-.244.189-.244a1.858,1.858,0,0,0-.3.1,3.263,3.263,0,0,0-.71.422,3.567,3.567,0,0,0-.821.868,3.2,3.2,0,0,0-.169.3,1.444,1.444,0,0,0-.15.319c-.04.114-.083.228-.118.343s-.048.24-.067.363a3.314,3.314,0,0,0-.02.734,5.4,5.4,0,0,0,.147.687c.075.208.177.4.26.583a3.663,3.663,0,0,0,.319.466,1.832,1.832,0,0,0,.311.347c.1.094.193.174.268.236.153.127.244.19.244.19s-.035-.115-.1-.3C12.9,18.26,12.862,18.15,12.811,18.032Z" transform="translate(-11.479 -11.506)" fill="#d90201"/><path d="M19.7,15.4c-.024-.123-.04-.244-.067-.363s-.078-.23-.118-.343a1.444,1.444,0,0,0-.15-.319c-.059-.1-.107-.206-.169-.3a3.588,3.588,0,0,0-.821-.868,3.4,3.4,0,0,0-.71-.422,1.858,1.858,0,0,0-.3-.1s.07.091.185.244.276.371.45.631c.086.134.173.273.26.426s.153.316.244.477a4.354,4.354,0,0,1,.189.521c.024.088.048.177.075.268s.028.185.044.276a3.341,3.341,0,0,1,.035.552c0,.185-.032.367-.043.548-.043.178-.08.351-.115.522s-.11.323-.15.473a3.4,3.4,0,0,1-.146.407,2.957,2.957,0,0,0-.126.319c-.067.181-.1.3-.1.3s.091-.063.246-.19c.075-.063.169-.142.268-.236a1.832,1.832,0,0,0,.311-.347,3.653,3.653,0,0,0,.315-.466,6.034,6.034,0,0,0,.265-.583,5.206,5.206,0,0,0,.146-.687A3.246,3.246,0,0,0,19.7,15.4Z" transform="translate(-10.674 -11.506)" fill="#d90201"/><path d="M14.934,12.622a.738.738,0,0,0,.7-.509.741.741,0,0,0,1.445-.232.754.754,0,0,0-.04-.233.738.738,0,0,1-1.4,0v0a.738.738,0,0,1-1.4,0,.754.754,0,0,0-.04.233A.741.741,0,0,0,14.934,12.622Z" transform="translate(-11.108 -11.648)" fill="#d90201"/></g><g transform="translate(0.99 9.859)"><g transform="translate(0.005)"><g transform="translate(19.41 0.001)"><rect width="3.503" height="0.205" fill="#fff"/><rect width="2.446" height="0.201" transform="translate(0 1.693)" fill="#fff"/><rect width="2.446" height="0.201" transform="translate(2.777 1.693)" fill="#fff"/><path d="M19.6,9.159v.205h.592v.3h-.951v-.5h-1.29v.71h.205v-.5h.884v.5H20.4v-.71h-.8Z" transform="translate(-17.951 -8.607)" fill="#fff"/><path d="M21.719,9.924h1.113V8.673h-.2V9.723h-.355V8.673h-.2V9.723h-.355V8.673h-.205v.552H20.4v.7h.715v-.2H20.6V9.431h.911v.493Z" transform="translate(-17.616 -8.673)" fill="#fff"/><rect width="0.201" height="0.213" transform="translate(0.544 1.049)" fill="#fff"/></g><g transform="translate(30.291)"><path d="M29.7,8.879H27.523V8.673H29.6C29.638,8.74,29.669,8.812,29.7,8.879Z" transform="translate(-27.523 -8.673)" fill="#fff"/><rect width="2.446" height="0.201" transform="translate(0 1.693)" fill="#fff"/><path d="M30.061,10.368h-.094v-.206h.024a1.713,1.713,0,0,1,.059.166A.068.068,0,0,1,30.061,10.368Z" transform="translate(-27.189 -8.469)" fill="#fff"/><path d="M29.969,9.4v.465H28.612v-.5h-.883v.5h-.206v-.71h1.29v.506h.955v-.3h-.6V9.159h.69C29.9,9.242,29.934,9.325,29.969,9.4Z" transform="translate(-27.523 -8.607)" fill="#fff"/><rect width="0.205" height="0.213" transform="translate(0.545 1.05)" fill="#fff"/></g><g transform="translate(24.851 0.001)"><rect width="3.507" height="0.205" fill="#fff"/><rect width="2.446" height="0.201" transform="translate(0 1.693)" fill="#fff"/><rect width="2.446" height="0.201" transform="translate(2.777 1.693)" fill="#fff"/><path d="M24.386,9.159v.205h.6v.3h-.954v-.5H22.737v.71h.205v-.5h.884v.5h1.357v-.71h-.8Z" transform="translate(-22.737 -8.607)" fill="#fff"/><path d="M26.505,9.924h1.113V8.673h-.2V9.723h-.355V8.673h-.2V9.723h-.355V8.673H26.3v.552H25.187v.7h.71v-.2h-.509V9.431H26.3v.493Z" transform="translate(-22.402 -8.673)" fill="#fff"/><rect width="0.205" height="0.213" transform="translate(0.544 1.049)" fill="#fff"/></g><g transform="translate(13.97 0.001)"><rect width="3.503" height="0.205" fill="#fff"/><rect width="2.446" height="0.201" transform="translate(0 1.693)" fill="#fff"/><rect width="2.446" height="0.201" transform="translate(2.777 1.693)" fill="#fff"/><path d="M14.814,9.159v.205h.592v.3h-.951v-.5h-1.29v.71h.205v-.5h.884v.5h1.357v-.71h-.8Z" transform="translate(-13.165 -8.607)" fill="#fff"/><path d="M16.933,9.924h1.113V8.673h-.2V9.723h-.355V8.673h-.205V9.723h-.351V8.673h-.205v.552H15.612v.7h.714v-.2h-.509V9.431h.911v.493Z" transform="translate(-12.83 -8.673)" fill="#fff"/><rect width="0.201" height="0.213" transform="translate(0.544 1.049)" fill="#fff"/></g><g transform="translate(8.529 0.001)"><rect width="3.503" height="0.205" fill="#fff"/><rect width="2.446" height="0.201" transform="translate(0 1.693)" fill="#fff"/><rect width="2.446" height="0.201" transform="translate(2.778 1.693)" fill="#fff"/><path d="M10.028,9.159v.205h.592v.3H9.669v-.5H8.378v.71h.205v-.5h.88v.5h1.361v-.71h-.8Z" transform="translate(-8.378 -8.607)" fill="#fff"/><path d="M12.147,9.924H13.26V8.673h-.2V9.723H12.7V8.673H12.5V9.723h-.351V8.673h-.205v.552H10.825v.7h.714v-.2h-.509V9.431h.911v.493Z" transform="translate(-8.044 -8.673)" fill="#fff"/><rect width="0.201" height="0.213" transform="translate(0.544 1.049)" fill="#fff"/></g><g transform="translate(3.089 0.001)"><rect width="3.503" height="0.205" fill="#fff"/><rect width="2.446" height="0.201" transform="translate(0 1.693)" fill="#fff"/><rect width="2.446" height="0.201" transform="translate(2.777 1.693)" fill="#fff"/><path d="M5.241,9.159v.205h.592v.3H4.882v-.5H3.592v.71H3.8v-.5h.88v.5H6.038v-.71h-.8Z" transform="translate(-3.592 -8.607)" fill="#fff"/><path d="M7.361,9.924H8.473V8.673h-.2V9.723H7.917V8.673H7.712V9.723H7.361V8.673H7.156v.552H6.039v.7h.714v-.2H6.244V9.431h.911v.493Z" transform="translate(-3.258 -8.673)" fill="#fff"/><rect width="0.201" height="0.213" transform="translate(0.544 1.049)" fill="#fff"/></g><path d="M1.943,8.673v.206H1.486c.031-.067.063-.139.1-.206Z" transform="translate(-0.791 -8.673)" fill="#fff"/><path d="M.969,10.162v.206H.875a.068.068,0,0,1,.011-.04c.019-.055.035-.11.059-.166Z" transform="translate(-0.875 -8.469)" fill="#fff"/><rect width="2.446" height="0.201" transform="translate(0.426 1.693)" fill="#fff"/><path d="M3.688,8.673V9.925H2.369V9.431H1.458v.292h.506v.2h-.71V9.458c.035-.078.067-.153.1-.233H2.369V8.673h.206v1.05h.351V8.673h.2v1.05h.351V8.673Z" transform="translate(-0.823 -8.673)" fill="#fff"/></g><g transform="translate(0 13.537)"><g transform="translate(8.534)"><rect width="3.503" height="0.201" transform="translate(10.889 0.635)" fill="#fff"/><rect width="2.446" height="0.201" transform="translate(2.778)" fill="#fff"/><rect width="2.446" height="0.201" fill="#fff"/><path d="M19.607,21.626v.2H20.2v.3h-.951v-.5h-1.29v.706h.2v-.505h.884v.505H20.4v-.706h-.8Z" transform="translate(-7.069 -20.439)" fill="#fff"/><path d="M21.722,22.391h1.117V21.141h-.205v1.046h-.351V21.141h-.205v1.046h-.355V21.141h-.2v.552H20.4v.7h.71v-.205h-.5v-.292h.911v.5Z" transform="translate(-6.734 -20.505)" fill="#fff"/><rect width="0.205" height="0.213" transform="translate(11.43 1.681)" fill="#fff"/></g><path d="M30.162,21.141l-.082.2H27.53v-.2Z" transform="translate(2.774 -20.505)" fill="#fff"/><rect width="2.446" height="0.201" transform="translate(0.43)" fill="#fff"/><path d="M.97,20.582v.2H.946a1.712,1.712,0,0,1-.059-.163.185.185,0,0,1-.016-.039Z" transform="translate(-0.871 -20.582)" fill="#fff"/><path d="M28.82,22.132h.88a2.053,2.053,0,0,1-.1.2h-.986v-.506h-.884v.506h-.2v-.707h1.29Z" transform="translate(2.774 -20.439)" fill="#fff"/><path d="M29.573,21.977v-.15h-.592v-.2h.749C29.683,21.745,29.628,21.859,29.573,21.977Z" transform="translate(2.972 -20.439)" fill="#fff"/><rect width="0.201" height="0.213" transform="translate(30.849 1.681)" fill="#fff"/><g transform="translate(3.093)"><rect width="3.503" height="0.201" transform="translate(21.77 0.635)" fill="#fff"/><rect width="2.446" height="0.201" transform="translate(2.777)" fill="#fff"/><rect width="2.446" height="0.201" fill="#fff"/><path d="M24.393,21.626v.2h.592v.3h-.951v-.5h-1.29v.706h.2v-.505h.884v.505H25.19v-.706h-.8Z" transform="translate(-0.974 -20.439)" fill="#fff"/><path d="M26.509,22.391h1.117V21.141H27.42v1.046h-.351V21.141h-.205v1.046h-.355V21.141h-.2v.552H25.191v.7h.71v-.205H25.4v-.292h.911v.5Z" transform="translate(-0.639 -20.505)" fill="#fff"/><rect width="0.205" height="0.213" transform="translate(22.311 1.681)" fill="#fff"/></g><g transform="translate(13.974)"><rect width="3.503" height="0.201" transform="translate(0.008 0.635)" fill="#fff"/><rect width="2.446" height="0.201" transform="translate(2.777)" fill="#fff"/><rect width="2.446" height="0.201" fill="#fff"/><path d="M14.821,21.626v.2h.592v.3h-.951v-.5h-1.29v.706h.2v-.505h.884v.505h1.357v-.706h-.793Z" transform="translate(-13.164 -20.439)" fill="#fff"/><path d="M16.936,22.391h1.117V21.141h-.205v1.046H17.5V21.141h-.205v1.046h-.355V21.141h-.2v.552H15.618v.7h.71v-.205H15.82v-.292h.915v.5Z" transform="translate(-12.829 -20.505)" fill="#fff"/><rect width="0.205" height="0.213" transform="translate(0.548 1.681)" fill="#fff"/></g><g transform="translate(8.542)"><rect width="3.503" height="0.201" transform="translate(0 0.635)" fill="#fff"/><rect width="2.446" height="0.201" transform="translate(13.651)" fill="#fff"/><rect width="2.446" height="0.201" transform="translate(10.873)" fill="#fff"/><path d="M10.035,21.626v.2h.592v.3H9.676v-.5H8.385v.706h.2v-.505H9.47v.505h1.357v-.706h-.793Z" transform="translate(-8.385 -20.439)" fill="#fff"/><path d="M12.15,22.391h1.117V21.141h-.206v1.046h-.355V21.141h-.2v1.046H12.15V21.141h-.2v.552H10.832v.7h.71v-.205h-.509v-.292h.915v.5Z" transform="translate(-8.051 -20.505)" fill="#fff"/><rect width="0.205" height="0.213" transform="translate(0.541 1.681)" fill="#fff"/></g><g transform="translate(3.097)"><rect width="3.507" height="0.201" transform="translate(0 0.635)" fill="#fff"/><rect width="2.446" height="0.201" transform="translate(24.536)" fill="#fff"/><rect width="2.446" height="0.201" transform="translate(21.758)" fill="#fff"/><path d="M5.249,21.626v.2h.592v.3H4.89v-.5H3.6v.706H3.8v-.505h.883v.505H6.042v-.706H5.249Z" transform="translate(-3.596 -20.439)" fill="#fff"/><path d="M7.364,22.391H8.48V21.141H8.275v1.046H7.92V21.141h-.2v1.046H7.364V21.141h-.2v.552H6.046v.7h.71v-.205H6.247v-.292h.915v.5Z" transform="translate(-3.261 -20.505)" fill="#fff"/><rect width="0.205" height="0.213" transform="translate(0.544 1.681)" fill="#fff"/></g><g transform="translate(0.236)"><path d="M2.007,21.141v.2H1.162c-.027-.067-.055-.134-.083-.2Z" transform="translate(-1.079 -20.505)" fill="#fff"/><path d="M30.065,20.582l-.011.039c-.019.056-.04.111-.063.163h-.024v-.2Z" transform="translate(2.871 -20.582)" fill="#fff"/><rect width="2.446" height="0.201" transform="translate(30.06)" fill="#fff"/><path d="M1.482,22.064H1.94v.2H1.581C1.546,22.2,1.514,22.131,1.482,22.064Z" transform="translate(-1.024 -20.379)" fill="#fff"/><path d="M3.687,21.141v1.25H2.373v-.5H1.458v.19c-.059-.131-.118-.26-.174-.391H2.373v-.551h.2V22.19H2.93V21.141h.2V22.19h.355V21.141Z" transform="translate(-1.051 -20.505)" fill="#fff"/></g></g></g></g></svg>