<svg xmlns="http://www.w3.org/2000/svg" xmlns:xlink="http://www.w3.org/1999/xlink" width="50.425" height="46.924" viewBox="0 0 50.425 46.924"><defs><clipPath id="a"><rect width="50.425" height="46.924" fill="#cacee6"/></clipPath></defs><g transform="translate(0 0)" clip-path="url(#a)"><path d="M47.8,36.607l-9.316-9.316c-1.946-1.947-1.781-1.878-4.538-1.878H16.477c-2.759,0-2.593-.067-4.538,1.878L2.623,36.607a25.216,25.216,0,0,0,9.444,10.318L22.8,36.193c.977-.977,1.409-1.355,1.939-1.518a1.536,1.536,0,0,1,.47-.087,1.5,1.5,0,0,1,.469.087c.531.156.962.541,1.939,1.518L38.346,46.924A25.212,25.212,0,0,0,47.8,36.607M13.287,24.5c.7-.759.606-1.408,1.294-3.189a11.4,11.4,0,0,1,21.263,0c.688,1.787.59,2.43,1.292,3.189s1.408.914,3.643.914h9.644A25.213,25.213,0,0,0,0,25.014c0,.133,0,.265,0,.4H9.64C11.883,25.411,12.6,25.236,13.287,24.5Z" transform="translate(0 0)" fill="#cacee6"/></g></svg>