<svg xmlns="http://www.w3.org/2000/svg" width="35.153" height="35.153" viewBox="0 0 35.153 35.153"><g transform="translate(0)"><g transform="translate(0 0)"><path d="M33.517,21.63a16.818,16.818,0,0,1-.9,1.779,17.569,17.569,0,0,1-30.433,0,17.045,17.045,0,0,1-.9-1.779Z" transform="translate(0.176 2.957)" fill="#009444"/><path d="M35.153,16.305a17.465,17.465,0,0,1-1.461,7.011H1.46a17.567,17.567,0,0,1,0-14.021H33.692A17.472,17.472,0,0,1,35.153,16.305Z" transform="translate(0 1.271)" fill="#fff"/><path d="M33.517,10.566H1.284a16.993,16.993,0,0,1,.9-1.776,17.589,17.589,0,0,1,31.333,1.776Z" transform="translate(0.176)" fill="#07219d"/><path d="M20.835,19.082l-.313.158c-.086.047-.169.086-.256.126l-2.644-3.6A9.485,9.485,0,0,0,18.4,13.42a3.1,3.1,0,0,0-.41-2.485,2.138,2.138,0,0,0-1.424-.853.432.432,0,0,0-.41-.288.44.44,0,0,0-.414.288,2.151,2.151,0,0,0-1.421.853,3.125,3.125,0,0,0-.41,2.485,9.507,9.507,0,0,0,.779,2.344l-2.644,3.6c-.088-.04-.169-.08-.257-.126l-.311-.158-1.084,2.13.311.158a12,12,0,0,0,10.9,0l.316-.158Zm-4.241-8.407a1.552,1.552,0,0,1,.931.6,2.468,2.468,0,0,1,.315,2.02.511.511,0,0,0-.019.094,9.455,9.455,0,0,1-.588,1.847l-.485-.667v-1.25h.671l-.824-.824Zm-2.1,2.713c-.008-.035-.016-.067-.024-.094a2.489,2.489,0,0,1,.316-2.02,1.552,1.552,0,0,1,.931-.6v1.819l-.824.824h.671v1.25l-.485.667A8.838,8.838,0,0,1,14.494,13.388Zm-2.7,6.652.185.525-.552.169Zm-.185.982.481-.146.138.4C12.016,21.2,11.812,21.113,11.607,21.022Zm.69-1.037c.272.114.54.213.813.3l.169.382-.671.2Zm.525,1.491-.1-.289.695-.213.329.741C13.433,21.65,13.126,21.567,12.822,21.477Zm.911-1.007c.26.067.525.127.789.171l.206.335-.679.209Zm.6,1.357-.146-.339.722-.221.415.674C14.988,21.918,14.66,21.883,14.328,21.827Zm.825-1.1a9.648,9.648,0,0,0,1.215.051l.138.214-1,.315Zm.762,1.247-.23-.379,1.006-.316.423.655A11.1,11.1,0,0,1,15.915,21.974Zm1.022-1.228a9.591,9.591,0,0,0,.954-.122l.186.248-.809.391Zm.725,1.129-.213-.331.829-.4.406.549C18.346,21.768,18.006,21.827,17.662,21.875Zm.762-1.365c.284-.07.565-.15.845-.244l.2.284-.671.457Zm.778,1.049-.209-.284.655-.449.331.485C19.722,21.405,19.465,21.488,19.2,21.559Zm.548-1.468c.217-.083.434-.177.651-.28l.177.339-.43.529Zm.7,1.038-.11-.161.4-.5.228.434C20.8,20.984,20.629,21.059,20.452,21.129Z" transform="translate(1.421 1.339)"/></g></g></svg>