<svg xmlns="http://www.w3.org/2000/svg" width="35.153" height="35.153" viewBox="0 0 35.153 35.153"><g transform="translate(0)"><g transform="translate(0 0)"><path d="M31.519,6.885a17.556,17.556,0,0,0-27.881,0C3.417,7.168,3.2,7.46,3,7.76s-.39.6-.572.907c-.123.206-.241.415-.351.627-.059.1-.11.206-.166.311-.142.276-.276.557-.4.845-.106.233-.2.469-.3.71A16.794,16.794,0,0,0,.529,13.3q-.089.35-.166.71a17.025,17.025,0,0,0-.268,1.752Q.03,16.37.011,16.993C0,17.186,0,17.379,0,17.576A17.569,17.569,0,0,0,31.516,28.268a17.538,17.538,0,0,0,0-21.383Z" fill="#032774"/><g transform="translate(0 6.881)"><path d="M3.586,12.325l-3.5,1.752a17.025,17.025,0,0,1,.268-1.752Z" transform="translate(0.011 -5.196)" fill="#032774"/><path d="M7.4,6.057V9.315L2.641,6.932c.2-.3.415-.592.635-.875Z" transform="translate(0.361 -6.052)" fill="#032774"/><path d="M3.416,9.3H1.329c.126-.288.26-.568.4-.845Z" transform="translate(0.182 -5.725)" fill="#032774"/><path d="M18.369,9.48V7.1L13.623,9.48Z" transform="translate(1.863 -5.91)" fill="#032774"/><path d="M16.471,6.053H9.958V9.316Z" transform="translate(1.361 -6.053)" fill="#032774"/><path d="M18.369,14.7V12.325H13.623Z" transform="translate(1.863 -5.196)" fill="#032774"/><path d="M1.1,15.855H7.611V12.592Z" transform="translate(0.15 -5.159)" fill="#032774"/><path d="M9.958,15.855h6.514L9.958,12.592Z" transform="translate(1.361 -5.159)" fill="#032774"/><path d="M20.235,7.244l-4.75,2.379h4.75v3.559h-4.75l4.75,2.375v.4l-5.555-2.777H13.086l7.125,3.566H17.832l-6.513-3.262v3.262H7.759V13.485L1.246,16.748h-.8l7.13-3.566h-1.6L.01,16.165q.019-.622.083-1.231l3.5-1.752H.361q.077-.361.166-.71a16.794,16.794,0,0,1,.683-2.138c.094-.241.193-.477.3-.71H3.6L1.912,8.778c.056-.106.107-.209.166-.311L4.386,9.623h1.6L2.429,7.839c.182-.307.371-.612.572-.907L7.759,9.315V6.057h3.559V9.315l6.513-3.258h.793L11.5,9.623h1.6l7.128-3.566h.013Z" transform="translate(0.001 -6.052)" fill="#fff"/><path d="M5.736,9.409h-1.6L1.829,8.252c.11-.213.228-.422.351-.627Z" transform="translate(0.25 -5.838)" fill="#df0333"/><path d="M11.513,12.325l7.125,3.567h.02V15.1L13.11,12.325Z" transform="translate(1.574 -5.196)" fill="#df0333"/><path d="M10.114,9.624h1.6l7.129-3.571h-1.6Z" transform="translate(1.383 -6.053)" fill="#df0333"/><path d="M7.575,12.325.446,15.891H0c0-.2,0-.39.011-.583l5.966-2.983Z" transform="translate(0 -5.196)" fill="#df0333"/><path d="M20.172,10.333v2.138H10.545v4.276H8.407V12.472H.465a16.794,16.794,0,0,1,.683-2.138H8.407V6.057h2.138v4.276Z" transform="translate(0.064 -6.052)" fill="#df0333"/></g><path d="M8.765,22.01,7.375,23.442l.252-1.981-1.984-.2,1.7-1.034L6.259,18.554l1.874.686.631-1.894L9.4,19.241l1.87-.686-1.085,1.677,1.7,1.034-1.984.2.252,1.981Z" transform="translate(0.772 2.372)" fill="#fff"/><path d="M23.982,22.62l-.667.686.122-.951-.951-.091.817-.5-.521-.8.9.327.3-.907.3.907.9-.327-.521.8.817.5-.951.091.123.951Z" transform="translate(3.074 2.787)" fill="#fff"/><path d="M20.644,15.172l-.666.683.118-.947-.951-.095.817-.493-.517-.8.9.331.3-.907.3.907.9-.331-.521.8.817.493-.951.095.118.947Z" transform="translate(2.617 1.769)" fill="#fff"/><path d="M23.982,10.077l-.667.683.118-.947-.947-.095.813-.493-.517-.8.9.331.3-.907.3.907.9-.331-.521.8.817.493-.951.095.118.947Z" transform="translate(3.074 1.072)" fill="#fff"/><path d="M28.154,13.916l-.663.686.118-.951-.951-.091.817-.5-.521-.8.9.327.3-.907.3.907.9-.327-.517.8.817.5-.951.091.118.951Z" transform="translate(3.645 1.597)" fill="#fff"/><path d="M25.789,16.74l-.541.363.178-.627-.513-.4.651-.028.225-.608.225.608.651.028-.509.4.174.627Z" transform="translate(3.406 2.111)" fill="#fff"/></g></g></svg>