<svg xmlns="http://www.w3.org/2000/svg" width="35" height="34.972" viewBox="0 0 35 34.972">
  <g id="Panama" transform="translate(-349.579 -926.725)">
    <path id="Path_10255" data-name="Path 10255" d="M76.957,193.7h1.071a17.5,17.5,0,0,0,16.489-17.471v-.017H76.957Z" transform="translate(290.063 768)" fill="#fff"/>
    <path id="Path_10256" data-name="Path 10256" d="M76.957,158.726a17.5,17.5,0,0,0-17.439,17.482H76.957Z" transform="translate(290.063 768)" fill="#fff"/>
    <path id="Path_10257" data-name="Path 10257" d="M76.957,176.208H59.518v.017A17.5,17.5,0,0,0,76.007,193.7h.95Z" transform="translate(290.063 768)" fill="#094b89"/>
    <path id="Path_10258" data-name="Path 10258" d="M94.517,176.208a17.5,17.5,0,0,0-17.5-17.483h-.06v17.482Z" transform="translate(290.063 768)" fill="#cf152b"/>
    <path id="Path_10259" data-name="Path 10259" d="M85.753,187.133l-2.4,1.774.048-.156.82-2.747.025-.092-2.538-1.78-.133-.09,3.239-.016.033-.118.82-2.749.054-.161.9,2.9.034.118L89.9,184l-.132.092-2.52,1.8.026.092.847,2.739.05.156-2.4-1.742Z" transform="translate(290.063 768)" fill="#cf152b"/>
    <path id="Path_10260" data-name="Path 10260" d="M68.253,169.648l-2.4,1.774.048-.156.82-2.747.025-.092-2.538-1.78-.133-.09,3.239-.016.033-.118.82-2.749.054-.161.9,2.9.034.118,3.239-.016-.132.092-2.52,1.8.026.092.847,2.739.05.156-2.4-1.742Z" transform="translate(290.063 768)" fill="#094b89"/>
  </g>
</svg>
