<svg xmlns="http://www.w3.org/2000/svg" width="35.153" height="35.153" viewBox="0 0 35.153 35.153"><g transform="translate(0)"><g transform="translate(0 0)"><path d="M33.756,10.7a17.071,17.071,0,0,0-.849-1.716,17.589,17.589,0,0,0-30.666,0A17.037,17.037,0,0,0,1.4,10.7,17.6,17.6,0,0,0,2.24,26.178a17.691,17.691,0,0,0,4.4,5.156,17.586,17.586,0,0,0,26.267-5.156,18.448,18.448,0,0,0,.849-1.721,17.642,17.642,0,0,0,0-13.761Z" fill="#3f5eb7"/><path d="M33.588,21.515a18.448,18.448,0,0,1-.849,1.721H2.073a17.6,17.6,0,0,1-.845-1.721Z" transform="translate(0.168 2.942)" fill="#fed818"/><path d="M33.588,9.615H1.228A17.037,17.037,0,0,1,2.073,7.9H32.739A17.071,17.071,0,0,1,33.588,9.615Z" transform="translate(0.168 1.08)" fill="#fed818"/><path d="M35.153,16.29a17.533,17.533,0,0,1-1.4,6.881H1.4a17.656,17.656,0,0,1,0-13.761h32.36A17.541,17.541,0,0,1,35.153,16.29Z" transform="translate(0 1.286)" fill="#b00d0c"/><g transform="translate(0.848 11.633)"><g transform="translate(2.903 2.767)"><g transform="translate(0 1.172)"><g transform="translate(23.72)"><path d="M25.919,13.73l-1.669.6,1.669.6,1.668-.6Z" transform="translate(-24.156 -13.695)" fill="#fff"/><path d="M25.93,13.7l-1.113.4-.09.031-.088.032-.008,0-.07.024-.091.035-.064.019-.114.043-.064.02-.063.023.063.024.064.024.114.04.064.024.086.031h0l.072.028h.008l.086.031.094.032,1.113.4,1.764-.632Zm-1.1.8-.158-.056-.06-.024-.114-.039-.067-.024-.072-.028.072-.027.067-.019.114-.043.06-.02.165-.059.059-.024h0l.048-.015.986-.351,1.57.559-1.57.565-.99-.356-.048-.015Z" transform="translate(-24.167 -13.699)"/></g><g transform="translate(0 0.399)"><path d="M27.69,14.479H3.529a.2.2,0,0,1-.2-.2h0a.2.2,0,0,1,.2-.2H27.69a.2.2,0,0,1,.2.2h0A.2.2,0,0,1,27.69,14.479Z" transform="translate(-3.296 -14.046)" fill="#fed818"/><path d="M15.346,14.081a.067.067,0,0,0-.013.032h.327v-.032Zm-1.109,0v.032H14.4a.258.258,0,0,0-.024-.032ZM27.8,14.074a.2.2,0,0,0-.048-.016h0a.106.106,0,0,0-.051-.008H3.533a.232.232,0,1,0,0,.465H27.694a.236.236,0,0,0,.051,0,.288.288,0,0,0,.048-.02.232.232,0,0,0,.134-.209A.24.24,0,0,0,27.8,14.074Zm-24.264.379a.17.17,0,0,1,0-.34H27.694a.17.17,0,0,1,0,.34Zm10.845-.372h-.142v.032H14.4A.258.258,0,0,0,14.378,14.081Zm.967,0a.067.067,0,0,0-.013.032h.327v-.032Z" transform="translate(-3.3 -14.05)"/></g><g transform="translate(24.019 0.399)"><path d="M24.43,14.515v-.063a.17.17,0,1,0,0-.34V14.05a.232.232,0,1,1,0,.465Z" transform="translate(-24.43 -14.05)"/></g><g transform="translate(23.818 0.399)"><path d="M24.253,14.515v-.063a.17.17,0,0,0,0-.34V14.05a.232.232,0,1,1,0,.465Z" transform="translate(-24.253 -14.05)"/></g><g transform="translate(23.613 0.399)"><path d="M24.073,14.515v-.063a.17.17,0,0,0,0-.34V14.05a.232.232,0,1,1,0,.465Z" transform="translate(-24.073 -14.05)"/></g></g><g transform="translate(1.614)"><g transform="translate(23.715)"><path d="M27.335,12.7l-1.669.6,1.669.6L29,13.3Z" transform="translate(-25.572 -12.664)" fill="#fff"/><path d="M27.346,12.668l-1.108.4-.091.032-.086.031-.013,0-.067.024-.094.035-.059.019-.118.043-.064.02-.063.024.063.023.064.024.118.04.059.024.091.032h0l.07.027h.008l.091.032.086.031,1.113.4,1.768-.631Zm-1.03.829h0l-.067-.027-.158-.056-.059-.024h0l-.114-.039-.059-.024-.075-.027.075-.024.059-.024.114-.04h0l.059-.024.166-.059.059-.023h0l.043-.016.987-.351,1.574.56-1.574.564-.987-.355Z" transform="translate(-25.583 -12.668)"/></g><g transform="translate(0 0.399)"><path d="M29.106,13.449H4.949a.2.2,0,0,1-.2-.2h0a.2.2,0,0,1,.2-.2H29.106a.2.2,0,0,1,.2.2h0A.2.2,0,0,1,29.106,13.449Z" transform="translate(-4.716 -13.015)" fill="#fed818"/><path d="M29.212,13.043a.152.152,0,0,0-.043-.016h0a.125.125,0,0,0-.056-.008H4.953a.232.232,0,1,0,0,.465H29.109a.282.282,0,0,0,.056,0,.237.237,0,0,0,.047-.019.233.233,0,0,0,0-.418Zm-24.259.379a.169.169,0,0,1-.171-.169.172.172,0,0,1,.171-.171H29.109a.171.171,0,0,1,.169.171.168.168,0,0,1-.169.169Z" transform="translate(-4.72 -13.019)"/></g><g transform="translate(24.016 0.399)"><path d="M25.847,13.484v-.063a.168.168,0,0,0,.169-.169.172.172,0,0,0-.169-.171v-.063a.237.237,0,0,1,.236.233A.234.234,0,0,1,25.847,13.484Z" transform="translate(-25.847 -13.019)"/></g><g transform="translate(23.814 0.399)"><path d="M25.67,13.484v-.063a.168.168,0,0,0,.169-.169.172.172,0,0,0-.169-.171v-.063a.233.233,0,0,1,.232.233A.23.23,0,0,1,25.67,13.484Z" transform="translate(-25.67 -13.019)"/></g><g transform="translate(23.613 0.399)"><path d="M25.493,13.484v-.063a.168.168,0,0,0,.169-.169.172.172,0,0,0-.169-.171v-.063a.233.233,0,0,1,.232.233A.23.23,0,0,1,25.493,13.484Z" transform="translate(-25.493 -13.019)"/></g></g></g><g transform="translate(0 5.6)"><path d="M33.851,15.812H1.088A.311.311,0,0,1,.777,15.5h0a.31.31,0,0,1,.311-.311H33.851a.313.313,0,0,1,.311.311h0A.313.313,0,0,1,33.851,15.812Z" transform="translate(-0.742 -15.156)" fill="#fed818"/><path d="M2.324,15.784l.027,0v0Zm31.532-.624H1.089a.343.343,0,1,0,0,.687H33.855a.343.343,0,0,0,0-.687Zm0,.624H1.089a.28.28,0,0,1,0-.56H33.855a.28.28,0,0,1,0,.56Zm-31.532,0,.027,0v0Z" transform="translate(-0.746 -15.16)"/></g><g transform="translate(6.841)"><g transform="translate(0.04 0.033)"><path d="M17.006,20.6c-.221-.052-.584-.111-.663-.324a.249.249,0,0,1,0-.177c.051-.088.181-.1.26-.11.228-.028.449-.111.674-.163.356-.083.592-.138.616-.256.016-.091-.1-.182-.193-.26a2.818,2.818,0,0,0-.809-.356c-.288-.11-.367-.153-.4-.241a.39.39,0,0,1,.067-.355c.08-.11.166-.11.3-.193a1.065,1.065,0,0,0,.4-.45c.123-.244.024-.3.147-.647a1,1,0,0,1,.26-.465c.185-.166.371-.142.45-.324a.32.32,0,0,0,.015-.225c-.035-.122-.142-.169-.24-.244a1.354,1.354,0,0,1-.356-.4c-.142-.252-.059-.477-.1-1.175a.449.449,0,0,0-.083-.265c-.088-.094-.171-.063-.238-.15-.09-.11.016-.221-.067-.367a.808.808,0,0,0-.385-.3c-.269-.134-.344-.088-.45-.193s-.091-.222-.15-.493c-.1-.442-.225-.466-.26-.734a1.382,1.382,0,0,1,.26-.856,2.922,2.922,0,0,1,.426-.612c-5.327.11-9.694,5.91-9.694,5.91s4.45,5.911,9.847,5.911a7.982,7.982,0,0,0,2.012-.265,1.28,1.28,0,0,0-.249-.477A2.8,2.8,0,0,0,17.006,20.6Z" transform="translate(-6.799 -10.263)"/><path d="M25.408,16.173s-4.45-5.91-9.844-5.91H15.41a2.922,2.922,0,0,0-.426.612,1.382,1.382,0,0,0-.26.856c.035.268.161.292.26.734.059.272.039.382.15.493s.181.059.45.193a.808.808,0,0,1,.385.3c.083.147-.023.257.067.367.067.088.15.056.238.15a.449.449,0,0,1,.083.265c.039.7-.044.923.1,1.175a1.354,1.354,0,0,0,.356.4c.1.075.2.123.24.244a.32.32,0,0,1-.015.225c-.08.182-.265.158-.45.324a1,1,0,0,0-.26.465c-.123.343-.024.4-.147.647a1.065,1.065,0,0,1-.4.45c-.138.083-.224.083-.3.193a.39.39,0,0,0-.067.355c.035.088.115.131.4.241a2.818,2.818,0,0,1,.809.356c.1.078.209.169.193.26-.024.118-.26.173-.616.256-.225.051-.446.134-.674.163-.08.007-.209.023-.26.11a.249.249,0,0,0,0,.177c.078.213.442.272.663.324a2.8,2.8,0,0,1,1.4.741,1.28,1.28,0,0,1,.249.477C22.023,20.671,25.408,16.173,25.408,16.173Z" transform="translate(-5.716 -10.263)" fill="#fff"/></g><path d="M26.522,16.158s-.075-.1-.206-.26a.206.206,0,0,1-.031-.032.258.258,0,0,0-.024-.032c-.161-.2-.4-.473-.7-.8A.2.2,0,0,1,25.532,15a.092.092,0,0,1-.028-.031c-.106-.107-.213-.222-.327-.34a.207.207,0,0,1-.031-.032l-.032-.031c-.222-.225-.466-.462-.73-.707a.29.29,0,0,1-.036-.031.207.207,0,0,0-.035-.032c-.122-.11-.248-.225-.382-.34a.29.29,0,0,1-.036-.031.3.3,0,0,1-.035-.032c-.083-.067-.161-.134-.241-.2a15.1,15.1,0,0,0-3.14-2.04,8.912,8.912,0,0,0-3.981-.923,9.075,9.075,0,0,0-3.776.975,15.053,15.053,0,0,0-3.09,2.028c-.063.055-.126.106-.189.161-.013.008-.024.019-.04.032a.2.2,0,0,0-.031.031c-.135.115-.261.23-.388.34a.3.3,0,0,1-.035.032.283.283,0,0,1-.035.031c-.265.246-.509.482-.726.707a.283.283,0,0,0-.035.031.21.21,0,0,1-.032.032c-.115.118-.221.233-.323.34A.189.189,0,0,1,7.77,15l-.032.032c-.3.324-.535.6-.7.8-.008.013-.016.02-.024.032s-.02.019-.027.032c-.134.161-.2.256-.206.26l-.016.019.016.02s.072.094.206.26a.278.278,0,0,1,.027.032.24.24,0,0,0,.024.031,20.781,20.781,0,0,0,2.647,2.636A14.932,14.932,0,0,0,12.82,21.2a9.06,9.06,0,0,0,3.831.928,8.04,8.04,0,0,0,2.02-.268,14.13,14.13,0,0,0,5.6-3.259,21.668,21.668,0,0,0,1.993-2.076.221.221,0,0,1,.027-.031.107.107,0,0,1,.027-.032c.131-.166.2-.257.206-.26l.013-.02Zm-.319.332a.24.24,0,0,1-.024.031,20.178,20.178,0,0,1-1.953,2.024,13.961,13.961,0,0,1-5.571,3.246h0a7.893,7.893,0,0,1-2,.265c-2.777,0-5.3-1.6-6.928-2.948a20.637,20.637,0,0,1-2.6-2.588c-.008-.011-.019-.019-.027-.031a.147.147,0,0,0-.028-.032c-.118-.142-.193-.241-.224-.281.031-.039.106-.138.224-.28a.179.179,0,0,0,.028-.032.264.264,0,0,1,.027-.032c.166-.2.407-.477.706-.8.008-.011.02-.019.028-.032a.2.2,0,0,0,.031-.031c.1-.107.209-.222.324-.34l.032-.032a.283.283,0,0,1,.035-.031q.331-.338.734-.707a.2.2,0,0,1,.031-.031.3.3,0,0,0,.036-.032c.126-.11.252-.225.386-.34a.26.26,0,0,0,.031-.031.158.158,0,0,0,.04-.032c.048-.035.091-.075.139-.115A11.669,11.669,0,0,1,16.469,10.3H16.5c.048,0,.1,0,.15,0,2.777,0,5.3,1.6,6.925,2.948.063.051.122.1.181.153a.257.257,0,0,0,.04.032.22.22,0,0,0,.035.031c.134.115.26.23.386.34a.3.3,0,0,0,.035.032l.032.031c.268.246.517.482.738.707l.032.031a.206.206,0,0,0,.031.032c.115.118.226.233.329.34.011.011.019.024.027.031l.032.032c.3.319.537.6.706.8.008.013.019.02.027.032s.016.019.024.032c.118.142.2.241.225.28-.032.04-.107.139-.225.281A.316.316,0,0,1,26.2,16.489Z" transform="translate(-6.764 -10.234)"/><g transform="translate(3.658 3.837)"><rect width="0.485" height="1.578" fill="#fff"/><rect width="0.482" height="1.578" transform="translate(0.955)" fill="#fff"/><rect width="0.485" height="1.578" transform="translate(1.906)" fill="#fff"/><rect width="0.481" height="1.578" transform="translate(2.86)" fill="#fff"/><rect width="0.485" height="1.578" transform="translate(3.811)" fill="#fff"/><rect width="0.481" height="1.578" transform="translate(4.766)" fill="#fff"/><g transform="translate(0 2.635)"><rect width="0.485" height="1.578" fill="#fff"/><rect width="0.482" height="1.578" transform="translate(0.955)" fill="#fff"/><rect width="0.485" height="1.578" transform="translate(1.906)" fill="#fff"/><rect width="0.481" height="1.578" transform="translate(2.86)" fill="#fff"/><rect width="0.485" height="1.578" transform="translate(3.811)" fill="#fff"/><rect width="0.481" height="1.578" transform="translate(4.766)" fill="#fff"/></g></g><g transform="translate(10.866 3.837)"><rect width="0.485" height="1.578"/><rect width="0.485" height="1.578" transform="translate(0.951)"/><rect width="0.485" height="1.578" transform="translate(1.906)"/><rect width="0.486" height="1.578" transform="translate(2.856)"/><rect width="0.485" height="1.578" transform="translate(3.811)"/><rect width="0.481" height="1.578" transform="translate(4.766)"/><g transform="translate(0 2.635)"><rect width="0.485" height="1.578"/><rect width="0.485" height="1.578" transform="translate(0.951)"/><rect width="0.485" height="1.578" transform="translate(1.906)"/><rect width="0.486" height="1.578" transform="translate(2.856)"/><rect width="0.485" height="1.578" transform="translate(3.811)"/><rect width="0.481" height="1.578" transform="translate(4.766)"/></g></g><path d="M12.744,11.266a3.019,3.019,0,0,0-1.322,1.779c.276-.161.228-.161.324-.2a1.25,1.25,0,0,0-.1.912c.111-.161.257-.272.233-.272a1.474,1.474,0,0,0,.458.789.983.983,0,0,1,.161-.292,1.5,1.5,0,0,0,.517.58,1.2,1.2,0,0,1,.2-.177,1.352,1.352,0,0,0,.934.608,1.428,1.428,0,0,1,.147-.671.7.7,0,0,0,0-.391l.331.15a.7.7,0,0,1-.122-.469,1.142,1.142,0,0,1,.288.161,1.726,1.726,0,0,0-.45-1.065,4.231,4.231,0,0,1,.6.3s.016-1.622-2.142-1.563A.341.341,0,0,1,12.744,11.266Z" transform="translate(-6.127 -10.092)" fill="#3d5da5"/><g transform="translate(6.076 1.887)"><path d="M12.382,12.2a.71.71,0,0,1,.15.347.533.533,0,0,1,0,.19c-.013.063-.032.122-.048.181s-.04.119-.064.178-.051.11-.078.165a1.436,1.436,0,0,1-.213.292.01.01,0,0,1-.016,0l0-.016a2.318,2.318,0,0,0,.11-.332c.013-.055.024-.11.036-.165s.016-.111.019-.166a1.293,1.293,0,0,0,0-.163,1.287,1.287,0,0,1,.007-.161,1.638,1.638,0,0,1,.08-.351c0-.008.011-.011.019-.008Z" transform="translate(-12.109 -11.853)" fill="#b00d0c"/><path d="M12.93,11.894a1.309,1.309,0,0,1,.19.051c.055.024.11.048.166.075a1.369,1.369,0,0,1,.146.088c.048.032.091.067.139.1s.1.055.153.082.1.052.158.075c.11.048.221.088.339.126a.01.01,0,0,1,.008.016l-.011.008a1.927,1.927,0,0,1-.371-.016c-.064-.011-.123-.023-.185-.039a1.732,1.732,0,0,1-.182-.051,1.376,1.376,0,0,1-.182-.072.758.758,0,0,1-.153-.11.907.907,0,0,1-.23-.311.016.016,0,0,1,.008-.02Z" transform="translate(-11.999 -11.894)" fill="#b00d0c"/><path d="M12.764,12.949a.342.342,0,0,1,.118.088.354.354,0,0,1,.08.11.293.293,0,0,1,.027.131,1.233,1.233,0,0,1,0,.13c0,.043,0,.086-.008.131s-.013.086-.02.126a1.154,1.154,0,0,1-.086.24.016.016,0,0,1-.016.008l-.008-.011a2.376,2.376,0,0,0-.019-.241,1.123,1.123,0,0,0-.02-.114.849.849,0,0,0-.027-.115.672.672,0,0,0-.039-.107.338.338,0,0,1-.028-.107.682.682,0,0,1,0-.118.69.69,0,0,1,.028-.138h0c0-.008.011-.016.019-.013Z" transform="translate(-12.027 -11.75)" fill="#b00d0c"/><path d="M13.264,13.651a.367.367,0,0,1,.115.063.548.548,0,0,1,.078.075.26.26,0,0,1,.044.086.574.574,0,0,0,.027.1l.074.193.08.2c0,.008,0,.016-.008.016h-.011a1.332,1.332,0,0,1-.166-.142c-.024-.027-.051-.051-.075-.078l-.072-.083c-.023-.027-.051-.056-.075-.083a.279.279,0,0,1-.05-.094.474.474,0,0,1-.013-.115.309.309,0,0,1,.027-.126A.018.018,0,0,1,13.264,13.651Z" transform="translate(-11.958 -11.654)" fill="#b00d0c"/><path d="M13.376,12.7a.82.82,0,0,1,.134.067.7.7,0,0,1,.106.067.451.451,0,0,1,.088.086.555.555,0,0,0,.078.1l.1.083c.035.023.066.051.106.075a1.5,1.5,0,0,0,.233.122.017.017,0,0,1,0,.019l-.008.008a1.351,1.351,0,0,1-.28-.031c-.048-.013-.091-.028-.139-.044s-.086-.039-.13-.063l-.131-.072a.363.363,0,0,1-.106-.1.6.6,0,0,1-.064-.138.43.43,0,0,1-.011-.158c0-.011.011-.016.019-.016Z" transform="translate(-11.939 -11.783)" fill="#b00d0c"/></g></g><g transform="translate(0.462 5.763)"><path d="M2.254,15.488v.233a.609.609,0,0,0-.556.311,3.044,3.044,0,0,0-.5,1.084C1.331,17,1.394,17,1.394,17a2.728,2.728,0,0,0,.067.679l.244-.28a7.1,7.1,0,0,0,.193.851l.1-.465s.224.024.256.41a.869.869,0,0,0,.423.666l.149-.142a1.032,1.032,0,0,0,.407.142c.011-.15.485-.537.635-.58l.075.169a1.84,1.84,0,0,1,.331-.837l.043.225a3.068,3.068,0,0,0,0-1.278l.142.094a1.271,1.271,0,0,0-.1-.891.853.853,0,0,0-.892-.193,1.348,1.348,0,0,1-.891-.206l.011.292L2.428,15.6Z" transform="translate(-1.145 -15.295)" fill="#3d5da5"/><path d="M4.443,15.827a.239.239,0,0,1-.02-.031.193.193,0,0,0-.024-.032l0-.013a.889.889,0,0,0-.928-.2,1.326,1.326,0,0,1-.863-.2L2.549,15.3l.011.315-.114-.035-.218-.15V15.7a.6.6,0,0,0-.272.067c-.016.008-.035.019-.056.032a.187.187,0,0,0-.043.031.734.734,0,0,0-.181.2,3.013,3.013,0,0,0-.5,1.1l-.024.1.078-.07a.814.814,0,0,1,.139-.1,2.456,2.456,0,0,0,.067.647l.019.052.236-.273a5.675,5.675,0,0,0,.186.793l.039.091.11-.53c.056.024.178.1.2.372a.853.853,0,0,0,.4.663c.011.008.019.019.032.027l.024.016.153-.142a1.079,1.079,0,0,0,.4.134l.035,0v-.031c.011-.131.422-.474.583-.544l.111.244.015-.107a2.03,2.03,0,0,1,.281-.778l.063.321.032-.155a3.2,3.2,0,0,0,.024-1.211l.107.075.013-.048A1.409,1.409,0,0,0,4.443,15.827Zm-.174.663.024.088a2.767,2.767,0,0,1,.031,1.089L4.3,17.559l-.043.035a1.579,1.579,0,0,0-.324.754l-.043-.1-.027.008a1.563,1.563,0,0,0-.651.576,1.239,1.239,0,0,1-.367-.131l-.019-.015-.15.138-.011-.011A.791.791,0,0,1,2.3,18.2c-.035-.406-.28-.438-.288-.438H1.976l-.075.371c-.07-.248-.153-.725-.157-.73l-.013-.067-.252.288a2.919,2.919,0,0,1-.043-.615v-.032H1.4a.28.28,0,0,0-.139.064,3.059,3.059,0,0,1,.466-.979.735.735,0,0,1,.244-.233.53.53,0,0,1,.07-.031.385.385,0,0,1,.118-.032.464.464,0,0,1,.1,0l.011,0,.027,0v-.213l.119.083.213.075-.008-.273a1.433,1.433,0,0,0,.86.169h.008l0,0a.834.834,0,0,1,.825.158.206.206,0,0,1,.027.027v0c.008.011.016.019.024.031a1.269,1.269,0,0,1,.075.785Z" transform="translate(-1.152 -15.303)"/><g transform="translate(0.647 0.762)"><path d="M2.281,16.087a.428.428,0,0,1,.043.166.545.545,0,0,1-.011.161.419.419,0,0,1-.059.15c-.028.043-.059.086-.088.131s-.059.086-.09.13-.067.08-.1.118a2.109,2.109,0,0,1-.233.206l-.02-.02a2.846,2.846,0,0,0,.147-.26.888.888,0,0,0,.059-.134,1.435,1.435,0,0,0,.055-.134,1.287,1.287,0,0,0,.04-.138.5.5,0,0,1,.048-.131c.024-.043.051-.083.078-.126a.768.768,0,0,1,.11-.122Z" transform="translate(-1.721 -15.958)" fill="#b00d0c"/><path d="M2.453,16.807a.412.412,0,0,1,.064.134.566.566,0,0,1,.019.138.311.311,0,0,1-.032.131c-.015.039-.039.078-.055.122s-.04.08-.059.118-.043.075-.067.11a1.577,1.577,0,0,1-.163.209l-.023-.016c.023-.082.047-.161.067-.244l.023-.118c.008-.04.016-.078.024-.122s0-.08.008-.119a.374.374,0,0,1,.02-.118c.015-.035.035-.075.055-.11a.589.589,0,0,1,.091-.118Z" transform="translate(-1.664 -15.86)" fill="#b00d0c"/><path d="M2.762,17.312a.348.348,0,0,1,.083.11.46.46,0,0,1,.04.115.242.242,0,0,1-.008.118c-.013.04-.028.08-.036.115s-.023.075-.035.11-.032.075-.047.11a1.263,1.263,0,0,1-.115.2L2.62,18.18c0-.075.011-.15.011-.222a.913.913,0,0,0,0-.11v-.106c0-.036-.008-.072-.011-.107a.223.223,0,0,1,0-.1.535.535,0,0,1,.035-.107.75.75,0,0,1,.072-.11Z" transform="translate(-1.598 -15.79)" fill="#b00d0c"/><path d="M3,16.726a.705.705,0,0,1,.1.094.672.672,0,0,1,.07.086.305.305,0,0,1,.043.1.5.5,0,0,0,.036.1,1.023,1.023,0,0,0,.051.1.967.967,0,0,0,.063.094,1.081,1.081,0,0,0,.155.178l-.016.023a.945.945,0,0,1-.225-.106c-.035-.024-.072-.051-.107-.08a.981.981,0,0,1-.091-.091c-.027-.035-.063-.067-.09-.1a.307.307,0,0,1-.06-.118.532.532,0,0,1-.007-.134.387.387,0,0,1,.047-.142Z" transform="translate(-1.556 -15.87)" fill="#b00d0c"/><path d="M2.82,15.973a.608.608,0,0,1,.15.063.927.927,0,0,1,.118.078.339.339,0,0,1,.094.1,1.2,1.2,0,0,0,.088.11c.031.036.063.072.094.1s.067.067.1.1c.067.067.142.13.213.193l-.011.024a2.439,2.439,0,0,1-.276-.115,1.051,1.051,0,0,1-.131-.07c-.04-.024-.083-.051-.126-.08s-.082-.055-.126-.086a.454.454,0,0,1-.107-.107.549.549,0,0,1-.067-.134.45.45,0,0,1-.031-.166Z" transform="translate(-1.573 -15.973)" fill="#b00d0c"/></g></g><g transform="translate(29.625 5.656)"><path d="M28.36,15.247a2.83,2.83,0,0,0-1.5,1.894,3.511,3.511,0,0,1,.355-.26,1.192,1.192,0,0,0,.008.86,1.61,1.61,0,0,1,.193.623.609.609,0,0,0,.41-.394,7.971,7.971,0,0,0,1.073,1.2,3.259,3.259,0,0,1,.43-.774l.118.2a2.856,2.856,0,0,1,.185-.537.749.749,0,0,0,.246.206,2.244,2.244,0,0,0,0-.687l.173.256a2.5,2.5,0,0,1,0-.722,1.111,1.111,0,0,0,.257.206,2.81,2.81,0,0,1-.118-.71.677.677,0,0,1,.185.217s.107-1.354-1.98-1.385C28.384,15.378,28.36,15.247,28.36,15.247Z" transform="translate(-26.801 -15.204)" fill="#3d5da5"/><path d="M30.086,16a1.406,1.406,0,0,0-.169-.158.4.4,0,0,0-.04-.031c-.016-.013-.032-.02-.047-.032a2.617,2.617,0,0,0-1.4-.364c-.011-.067-.027-.165-.027-.165l0-.032,0-.008-.019.008-.017.008a2.686,2.686,0,0,0-.765.552.279.279,0,0,0-.032.032.26.26,0,0,1-.031.031,2.842,2.842,0,0,0-.695,1.3l-.024.091.07-.059c.139-.107.225-.169.281-.206a1.132,1.132,0,0,0,.04.8,1.643,1.643,0,0,1,.189.607v.043l.04-.008a.634.634,0,0,0,.406-.351,9.582,9.582,0,0,0,.987,1.086l.107.1.008-.059a2.94,2.94,0,0,1,.394-.718l.134.23.019-.075a3.882,3.882,0,0,1,.153-.49.71.71,0,0,0,.234.174l.039.019,0-.043a2.711,2.711,0,0,0,.024-.548l.171.244-.02-.134a2.835,2.835,0,0,1-.011-.655.9.9,0,0,0,.225.174l.063.023-.019-.063a3.865,3.865,0,0,1-.123-.632.621.621,0,0,1,.126.158l.051.118.013-.13A1.193,1.193,0,0,0,30.086,16Zm.131.6-.044-.035-.011.056a2.362,2.362,0,0,0,.1.642,2.012,2.012,0,0,1-.185-.153l-.04-.04-.011.051a2.023,2.023,0,0,0-.016.6l-.225-.339.067.217a2.084,2.084,0,0,1,.008.627.593.593,0,0,1-.193-.171l-.02-.031-.031.023a1.736,1.736,0,0,0-.171.477l-.106-.177-.028.04a3.791,3.791,0,0,0-.422.73l-.024-.019a7.5,7.5,0,0,1-1-1.137l-.036-.083-.024.088a.553.553,0,0,1-.347.363,1.9,1.9,0,0,0-.193-.592,1.186,1.186,0,0,1-.013-.837l.032-.075-.075.036a2.964,2.964,0,0,0-.284.2,2.819,2.819,0,0,1,.7-1.223.206.206,0,0,0,.032-.031.287.287,0,0,1,.035-.032,2.666,2.666,0,0,1,.659-.477c.008.043.019.11.024.153l0,.027H28.4a2.653,2.653,0,0,1,1.3.3.222.222,0,0,1,.056.032c.019.011.035.023.048.031a1.277,1.277,0,0,1,.232.2,1.206,1.206,0,0,1,.3.683A1.307,1.307,0,0,0,30.217,16.594Z" transform="translate(-26.808 -15.209)"/><g transform="translate(0.56 1.294)"><path d="M27.825,16.649a.392.392,0,0,1,.036.142.411.411,0,0,1-.013.139.307.307,0,0,1-.055.122c-.024.036-.056.072-.083.107a1.05,1.05,0,0,1-.083.1,1.065,1.065,0,0,1-.1.091,1.238,1.238,0,0,1-.213.142l-.016-.016c.051-.067.1-.134.146-.2l.059-.107a.609.609,0,0,0,.051-.106.843.843,0,0,0,.04-.11.406.406,0,0,1,.043-.107c.02-.032.043-.067.067-.1a.786.786,0,0,1,.1-.1Z" transform="translate(-27.301 -16.306)" fill="#b00d0c"/><path d="M28.078,17.337a.212.212,0,0,1,.075.074.21.21,0,0,1,.04.08.159.159,0,0,1,0,.086c-.008.028-.019.056-.027.083l-.024.083c-.013.027-.019.051-.032.078a.8.8,0,0,1-.086.142l-.02,0c0-.056,0-.11,0-.161,0-.028,0-.052-.008-.08a.469.469,0,0,0-.008-.075.287.287,0,0,0-.016-.075.107.107,0,0,1,0-.07.405.405,0,0,1,.027-.075.469.469,0,0,1,.06-.083Z" transform="translate(-27.211 -16.212)" fill="#b00d0c"/><path d="M28.478,17.354a.463.463,0,0,1,.1.1.547.547,0,0,1,.059.118.332.332,0,0,1,.02.123c0,.043,0,.086,0,.13a1.088,1.088,0,0,1-.008.126l-.011.127c-.016.082-.028.165-.048.244h-.019c-.019-.083-.032-.163-.048-.241a1.02,1.02,0,0,0-.024-.123.874.874,0,0,0-.024-.114.481.481,0,0,0-.035-.115.405.405,0,0,1-.019-.115.631.631,0,0,1,.008-.122.433.433,0,0,1,.032-.134Z" transform="translate(-27.149 -16.209)" fill="#b00d0c"/><path d="M28.664,16.935c.027.027.048.056.067.078s.032.044.043.064a.206.206,0,0,1,.016.067.3.3,0,0,0,.013.07c.011.02.019.044.031.067a.61.61,0,0,0,.043.067.549.549,0,0,0,.115.123l-.011.019a.51.51,0,0,1-.177-.059.561.561,0,0,1-.08-.051.846.846,0,0,1-.072-.07.971.971,0,0,1-.067-.083.178.178,0,0,1-.031-.1.236.236,0,0,1,.016-.107.253.253,0,0,1,.07-.091Z" transform="translate(-27.13 -16.267)" fill="#b00d0c"/><path d="M28.545,16.347a.606.606,0,0,1,.11.024.443.443,0,0,1,.083.035.229.229,0,0,1,.068.048.315.315,0,0,0,.058.064c.024.015.048.035.072.051a.845.845,0,0,0,.075.043.854.854,0,0,0,.174.075l0,.024a.629.629,0,0,1-.2.011.7.7,0,0,1-.1-.016.616.616,0,0,1-.1-.032.926.926,0,0,1-.1-.035.227.227,0,0,1-.086-.063.365.365,0,0,1-.051-.1.226.226,0,0,1-.011-.118Z" transform="translate(-27.133 -16.347)" fill="#b00d0c"/></g></g></g></g></g></svg>