<svg xmlns="http://www.w3.org/2000/svg" width="35.156" height="35.153" viewBox="0 0 35.156 35.153"><g transform="translate(0)"><g transform="translate(0 0)"><path d="M34.03,11.717H.885a17.581,17.581,0,0,1,33.145,0Z" transform="translate(0.121)" fill="#cd1225"/><path d="M34.03,20.616a17.586,17.586,0,0,1-33.145,0Z" transform="translate(0.121 2.819)"/><path d="M35.157,16.167a17.44,17.44,0,0,1-1.006,5.859H1.006a17.563,17.563,0,0,1,0-11.717H34.151A17.45,17.45,0,0,1,35.157,16.167Z" transform="translate(0 1.409)" fill="#fff"/><g transform="translate(13.467 12.006)"><path d="M13.758,19.474a.053.053,0,0,0-.048-.008l-.07.024a.042.042,0,0,0-.027.055.041.041,0,0,0,.047.032l-.035.126-.19-.051.072-.2a.052.052,0,0,0-.013-.048.049.049,0,0,0-.047-.011l-.067.019a.047.047,0,0,0-.032.059.042.042,0,0,0,.04.032l-.04.13-.131-.035.139-.462a.039.039,0,0,0-.019-.051.047.047,0,0,0-.056,0,.3.3,0,0,1-.161.016.05.05,0,0,0-.051.043.048.048,0,0,0,.043.052.79.79,0,0,0,.13,0l-.067.221a.253.253,0,0,0-.217.142.066.066,0,0,0,0,.036.055.055,0,0,0,.028.027l.158.051h0v0l.2.052a.048.048,0,0,0,.016.011h.019l.261.07h.011a.045.045,0,0,0,.047-.035l.067-.248A.052.052,0,0,0,13.758,19.474Zm-.627.091-.055-.02a.129.129,0,0,1,.07-.035Z" transform="translate(-11.696 -9.399)" fill="#bf920d"/><path d="M14.628,19.324a.041.041,0,0,0-.064,0l-.035.032a.043.043,0,0,0-.011.031v.206a.813.813,0,0,1-.075.351.059.059,0,0,1-.035.016.383.383,0,0,1,.007-.08.058.058,0,0,0,0-.024.1.1,0,0,0-.1-.055H14.3a.214.214,0,0,0-.027-.067l.11-.032a.061.061,0,0,0,.027-.035.059.059,0,0,0-.008-.043l-.07-.075-.075-.1a.05.05,0,0,0-.032-.019.038.038,0,0,0-.035.015l-.051.048a.81.81,0,0,1-.115.067A.042.042,0,0,0,14,19.6a.049.049,0,0,0,.011.04l.1.083a.157.157,0,0,1-.072.048.774.774,0,0,1-.169-.024.358.358,0,0,0-.028-.171.046.046,0,0,0-.083.04.234.234,0,0,1,.008.161.216.216,0,0,1-.158.1.051.051,0,0,0-.035.056.048.048,0,0,0,.048.035l.008,0a.3.3,0,0,0,.213-.131.706.706,0,0,0,.209.027.206.206,0,0,0,.134-.086.141.141,0,0,1,.024.043c0,.083.059.083.1.083h0c-.008.059,0,.126.043.145a.107.107,0,0,0,.048.013.145.145,0,0,0,.1-.043.792.792,0,0,0,.1-.418v-.185l.019-.02A.041.041,0,0,0,14.628,19.324Zm-.438.343-.067-.056a.442.442,0,0,0,.078-.051l.016-.011.043.055v0l.024.027Z" transform="translate(-11.611 -9.366)" fill="#bf920d"/><path d="M14.626,19.9l.032-.43a.053.053,0,0,0,.048-.013.046.046,0,0,0,0-.067l-.051-.051a.047.047,0,0,0-.08.027l-.039.525a.045.045,0,0,0,.043.051h0A.044.044,0,0,0,14.626,19.9Z" transform="translate(-11.48 -9.364)" fill="#bf920d"/><path d="M15.988,19.912l-.048-.2a.039.039,0,0,0-.024-.027.047.047,0,0,0-.039,0c-.008,0-.163.064-.186.2h-.067l-.011-.123a.046.046,0,0,0-.043-.043L15.1,19.7v-.056a.048.048,0,0,0-.019-.035.045.045,0,0,0-.043-.008l-.056.019a.047.047,0,0,0-.027.059.043.043,0,0,0,.051.028v.153l-.078,0a.355.355,0,0,0-.075-.147.049.049,0,0,0-.067,0,.048.048,0,0,0,0,.067c.016.019.07.094.051.15s-.091.086-.209.1a.045.045,0,0,0-.04.051.043.043,0,0,0,.043.04h.009c.157-.024.256-.08.283-.163l0-.008.433.032a.176.176,0,0,0,.048.11.1.1,0,0,0,.075.032.158.158,0,0,0,.019,0,.145.145,0,0,0,.123-.142h.316a.039.039,0,0,0,.035-.016A.057.057,0,0,0,15.988,19.912Zm-.493.11c-.016,0-.019,0-.019,0-.016-.011-.024-.059-.024-.083a.042.042,0,0,0-.043-.047l-.3-.024v-.078l.418.019.016.126C15.538,19.94,15.546,20.015,15.495,20.023Zm.292-.142a.171.171,0,0,1,.075-.086l.024.086Z" transform="translate(-11.472 -9.327)" fill="#bf920d"/><path d="M16.394,19.633a.048.048,0,0,0-.043,0c-.024.013-.051.024-.059.028a.043.043,0,0,0-.043.043.046.046,0,0,0,.047.048.076.076,0,0,0,.032-.008v.126l-.134.019-.056-.5a.047.047,0,0,0-.027-.04.066.066,0,0,0-.051.011l-.043.044a.04.04,0,0,0,0,.063.039.039,0,0,0,.043.016l.028.236a.243.243,0,0,0-.161.222v0c0,.008,0,.019,0,.032s.016.024.051.024.083,0,.182-.016l.221-.032a.051.051,0,0,0,.04-.048v-.236A.044.044,0,0,0,16.394,19.633Zm-.375.276a.126.126,0,0,1,.075-.086l.008.078A.612.612,0,0,1,16.019,19.909Z" transform="translate(-11.291 -9.36)" fill="#bf920d"/><path d="M16.519,19.632a.043.043,0,0,0-.063.008.05.05,0,0,0,.007.067s.123.1.088.193a.172.172,0,0,1-.142.106.046.046,0,0,0-.043.052.045.045,0,0,0,.048.043h0a.259.259,0,0,0,.221-.171C16.692,19.774,16.526,19.64,16.519,19.632Z" transform="translate(-11.23 -9.323)" fill="#bf920d"/><path d="M18.144,19.559l-.185.032a2.309,2.309,0,0,0-.126-.351.183.183,0,0,0-.142-.118.191.191,0,0,0-.147.039.046.046,0,0,0,0,.067.044.044,0,0,0,.064,0,.1.1,0,0,1,.07-.016.113.113,0,0,1,.072.064,3,3,0,0,1,.118.339l-.091.04,0,0c-.169-.08-.189-.059-.2-.04a.985.985,0,0,0-.078.1l-.048.016c-.016-.067-.059-.169-.146-.169a.387.387,0,0,0-.094.008c-.009-.04-.017-.08-.028-.115a.042.042,0,0,0-.056-.035.041.041,0,0,0-.031.055c.008.032.011.075.023.119a.075.075,0,0,0-.035.019c-.035.019-.075.063-.078.193l-.067.011c-.013-.114-.028-.138-.056-.146a.042.042,0,0,0-.043,0l-.158.119a.045.045,0,0,0-.019.047l.016.067a.049.049,0,0,0,.055.035l.118-.019a.151.151,0,0,1-.11.115.044.044,0,0,0-.043.047.045.045,0,0,0,.048.044.251.251,0,0,0,.138-.075.228.228,0,0,0,.064-.147l.248-.043a.342.342,0,0,0,.051.11.1.1,0,0,0,.08.032.253.253,0,0,0,.075-.016c.019-.008.078-.035.078-.086v-.088l.04-.011.011.008a.424.424,0,0,0,.2.035.121.121,0,0,0,.072-.1l.146-.056.222-.039a.048.048,0,0,0,.039-.056A.045.045,0,0,0,18.144,19.559Zm-1.385.284.074-.056c0,.011,0,.024,0,.04Zm.331-.056c0-.083.027-.1.035-.1l.008-.008c.008.035.016.067.024.1Zm.131-.134c.023,0,.051,0,.075,0s.039.043.055.09l-.1.02C17.241,19.728,17.233,19.693,17.221,19.653Zm.157.236a.154.154,0,0,1-.058.024.03.03,0,0,1-.017,0,.357.357,0,0,1-.027-.064l.1-.016Zm.313-.134a.267.267,0,0,1-.107-.019.267.267,0,0,0,.035-.048c.019,0,.051.02.083.032A.063.063,0,0,1,17.691,19.756Z" transform="translate(-11.19 -9.392)" fill="#bf920d"/><path d="M15.976,19.478a.06.06,0,0,0-.055-.059.057.057,0,1,0,0,.115A.06.06,0,0,0,15.976,19.478Z" transform="translate(-11.298 -9.351)" fill="#bf920d"/><path d="M13.068,19.328a.055.055,0,1,0-.056-.056A.054.054,0,0,0,13.068,19.328Z" transform="translate(-11.688 -9.379)" fill="#bf920d"/><circle cx="0.055" cy="0.055" r="0.055" transform="translate(1.348 10.305)" fill="#bf920d"/><circle cx="0.055" cy="0.055" r="0.055" transform="translate(1.505 10.356)" fill="#bf920d"/><circle cx="0.055" cy="0.055" r="0.055" transform="translate(1.746 10.423)" fill="#bf920d"/><path d="M15.993,19.61a.059.059,0,0,0-.055-.056.057.057,0,1,0,0,.115A.059.059,0,0,0,15.993,19.61Z" transform="translate(-11.296 -9.333)" fill="#bf920d"/><path d="M16.087,19.964a.055.055,0,1,0,.056.056A.057.057,0,0,0,16.087,19.964Z" transform="translate(-11.276 -9.277)" fill="#bf920d"/><path d="M16.209,19.953a.056.056,0,1,0,0,.111.056.056,0,0,0,0-.111Z" transform="translate(-11.259 -9.278)" fill="#bf920d"/><path d="M17.829,19.693a.06.06,0,0,0-.055.059.059.059,0,0,0,.055.056.057.057,0,1,0,0-.115Z" transform="translate(-11.037 -9.314)" fill="#bf920d"/><path d="M20.068,20.022V20c0-.086-.008-.169-.008-.256l-.024-.485c-.007-.217-.019-.434-.027-.651l-.15-3.361c-.008-.26-.019-.521-.032-.785l-.059-1.306c-.011-.228-.142-.612-.446-.671a1.941,1.941,0,0,0-1.287.343c-.082.043-.161.088-.236.123a2.668,2.668,0,0,1-.808.146,1.371,1.371,0,0,1-.126-.252,1.738,1.738,0,0,1-.1-.339,3.337,3.337,0,0,1-.032-.766c0-.07,0-.134,0-.2a1.226,1.226,0,0,0-.123-.6.119.119,0,0,0-.016-.028.545.545,0,0,0-.351-.252c-.13-.023-.225-.047-.292-.059-.173-.039-.209-.051-.26-.024a.116.116,0,0,0-.063.06,1.184,1.184,0,0,0-.474-.052.3.3,0,0,0-.252.186l-.007.019a.03.03,0,0,0,0,.019.613.613,0,0,0-.013.249v.011l0,0,0,0v0l0,0,.008,0h0l.008,0h.023l.008,0h0l0,0,0,0,0,0v0c.008,0,.019-.008.051-.02a.166.166,0,0,1,.048-.019.188.188,0,0,1,.1-.008.428.428,0,0,1,.225.2.413.413,0,0,1,.063.161.809.809,0,0,1,.019.15,1.155,1.155,0,0,1-.027.364l-.008.039A3.422,3.422,0,0,1,14.95,13.1a2.557,2.557,0,0,1-.832-.146c-.078-.035-.153-.08-.236-.123a1.941,1.941,0,0,0-1.287-.343c-.308.059-.438.442-.449.671l-.056,1.306c-.011.265-.024.525-.035.785l-.147,3.361c-.007.217-.019.434-.027.651l-.024.485c0,.086,0,.169-.008.256v.019a.04.04,0,0,0,.008.04.045.045,0,0,0,.027.013.034.034,0,0,0,.024-.008l0,0,.477-.43c.055-.043.106-.094.166-.147l.027-.023.623-.56,0,0,.023-.023.316-.281c.072-.063.139-.126.209-.19a.07.07,0,0,0,.027-.027c.08-.067.155-.134.23-.2l-.426,1.507-.214-.078a.177.177,0,0,0-.161.019l0,0,0,0a.5.5,0,0,0-.327.2.329.329,0,0,0-.027.261.485.485,0,0,0-.032.122c-.075.008-.209.064-.332.288h-.094a.053.053,0,0,0-.051.048.056.056,0,0,0,.04.056l.075.024a.506.506,0,0,0,.193.374c0,.016.008.043.011.072a.333.333,0,0,0,.214.311,12.129,12.129,0,0,0,2.8.319h.651a12.014,12.014,0,0,0,2.719-.319.338.338,0,0,0,.213-.311c0-.028.008-.056.011-.072a.518.518,0,0,0,.193-.374l.075-.024a.053.053,0,0,0-.016-.1h-.094c-.122-.224-.256-.28-.327-.288a.7.7,0,0,0-.032-.122.32.32,0,0,0-.027-.261.5.5,0,0,0-.332-.2v0l-.007,0a.17.17,0,0,0-.158-.019l-.214.078L17.9,18.176c.083.075.171.15.257.228.059.056.118.111.177.163a.176.176,0,0,1,.032.027l.339.3,0,0,.182.161.469.422c.055.052.11.1.161.147l.481.43v0a.065.065,0,0,0,.028.008.043.043,0,0,0,.027-.013A.04.04,0,0,0,20.068,20.022Zm-4.179-9.207a.083.083,0,0,1,.083.078.084.084,0,0,1-.083.08.08.08,0,0,1-.078-.08A.079.079,0,0,1,15.889,10.814Zm-.9,2.367c.019-.024.039-.051.055-.075s.035-.051.051-.078.032-.051.048-.08c.008-.011.016-.027.024-.039a.327.327,0,0,1,.019-.04c.016-.032.027-.059.043-.086a.174.174,0,0,1,.013-.028l.023-.047a.477.477,0,0,1,.02-.051l0,0c0-.008,0-.019.009-.027s.015-.04.023-.064a.161.161,0,0,0,.016-.035c.008-.019.016-.04.024-.056.011-.043.027-.086.039-.122a.1.1,0,0,0,.008-.027c0-.016.009-.028.013-.04a.142.142,0,0,0,.008-.035c.035-.115.063-.214.083-.284l.008-.04a1.309,1.309,0,0,0,.027-.386,1.375,1.375,0,0,0-.019-.166.118.118,0,0,1-.008-.04c.039-.035.118-.016.24-.016-.26-.39-.414-.425-.548-.457a.18.18,0,0,0-.2.107.213.213,0,0,1-.032.015c-.008,0-.011,0-.016.008a.659.659,0,0,1,0-.126l.008-.035v-.011a.2.2,0,0,1,.023-.04.211.211,0,0,1,.1-.048.7.7,0,0,1,.161-.011.158.158,0,0,1,.115.04,1.472,1.472,0,0,0,.217.161.4.4,0,0,0,.181.075c.016,0,.036.035.048.048a.1.1,0,0,0,.067.031.106.106,0,0,0,.107-.059c.011-.024.055-.039.078-.051a.785.785,0,0,1,.131-.04.746.746,0,0,1,.158-.023.22.22,0,0,1,.169.047.106.106,0,0,1,.015.02.5.5,0,0,1,.036.078,1.087,1.087,0,0,1,.039.126,1.473,1.473,0,0,1,.04.332v.043c0,.059,0,.122,0,.193a3.244,3.244,0,0,0,.035.781,1.71,1.71,0,0,0,.213.584c.016.027.028.055.043.078s.04.056.056.075a.589.589,0,0,1-.252-.067.346.346,0,0,1-.091-.059l-.008-.016c-.011-.027-.024-.059-.035-.091-.04-.1-.086-.213-.123-.319a4.264,4.264,0,0,1-.106-.746.039.039,0,0,0-.04-.039.037.037,0,0,0-.035.043,3.72,3.72,0,0,0,.11.762,2.987,2.987,0,0,0,.122.331c.008.019.016.043.024.064s.02.055.032.078c.024.067.043.126.056.174a1.009,1.009,0,0,1-.364-.169.518.518,0,0,1-.075-.067v-.013a8.827,8.827,0,0,1-.063-1.2.037.037,0,0,0-.04-.039.04.04,0,0,0-.04.039,10.143,10.143,0,0,0,.059,1.2c0,.008,0,.013,0,.019a.407.407,0,0,1-.043.06c-.02.023-.051.055-.1.1a.375.375,0,0,1-.048.051.241.241,0,0,0-.031-.024.985.985,0,0,1-.126-.13c-.024-.028-.044-.056-.064-.08h0a2.494,2.494,0,0,0,.249-1.219.04.04,0,1,0-.08,0,2.232,2.232,0,0,1-.268,1.223.637.637,0,0,1-.067.08.873.873,0,0,1-.221.165c.008-.047.019-.106.032-.169,0-.024.011-.051.016-.078,0-.008,0-.016,0-.024a2.586,2.586,0,0,0,.375-1.156.039.039,0,0,0-.032-.048.043.043,0,0,0-.043.035,2.2,2.2,0,0,1-.423,1.188.564.564,0,0,1-.09.08.509.509,0,0,1-.147.07,1.1,1.1,0,0,1-.13.024A1.133,1.133,0,0,0,14.987,13.181Zm-.552,4.845.173.45a.028.028,0,0,0,.024.016.023.023,0,0,0,.027-.013l.284-.386.142.718c-.142.209-.264.386-.323.466-.028-.083-.083-.249-.171-.49a.036.036,0,0,0-.023-.019.029.029,0,0,0-.028.016l-.3.449L14,18.444ZM17.5,19.865l-.244-.335a.037.037,0,0,0-.028-.013.024.024,0,0,0-.023.02l-.142.366a2.566,2.566,0,0,1-.265,0L16.7,19.47l.114-.576c.336.481.336.481.364.473a.028.028,0,0,0,.019-.027c0-.027.094-.288.166-.477l.3.442Zm.206-.5.283.418a3.952,3.952,0,0,1-.43.08Zm-.269.514c-.11.011-.217.019-.311.023l.115-.3Zm-1.183.1a.224.224,0,0,0-.2.083.2.2,0,0,0-.04.1H15.9a.208.208,0,0,0-.036-.1.227.227,0,0,0-.2-.083A.213.213,0,0,0,15.5,19.9a.958.958,0,0,0-.185,0c-.04,0-.083,0-.134.008l.067-.315.139.217a.024.024,0,0,0,.039.008l.222-.2.008-.011.169-1.335-.083,1.342a.035.035,0,0,0,0,.019l.19.225a.032.032,0,0,0,.043,0l.19-.225a.035.035,0,0,0,0-.019L16.09,18.27l.171,1.335.008.011.221.2a.026.026,0,0,0,.04-.008l.134-.217.067.315c-.048,0-.091,0-.134-.008a.927.927,0,0,0-.182,0A.234.234,0,0,0,16.248,19.983Zm.035.189h0a.075.075,0,0,0,.019.032.175.175,0,0,0,.048.056.123.123,0,0,0,0,.019c-.011.043-.055.067-.1.094a.177.177,0,0,0-.043.032.148.148,0,0,0-.075.08,1.108,1.108,0,0,1-.059-.209.417.417,0,0,1,0-.107A.131.131,0,0,1,16.1,20.1a.155.155,0,0,1,.131-.059.088.088,0,0,0,.019.078A.448.448,0,0,1,16.284,20.172Zm-.438.1a1.107,1.107,0,0,1-.059.209.168.168,0,0,0-.075-.08.387.387,0,0,0-.048-.032c-.043-.027-.086-.051-.1-.094a.038.038,0,0,1,0-.019.232.232,0,0,0,.048-.056.075.075,0,0,0,.019-.032h0c.011-.019.019-.035.031-.051a.09.09,0,0,0,.025-.078.158.158,0,0,1,.13.059.189.189,0,0,1,.027.067A.417.417,0,0,1,15.846,20.275Zm-1.129-.738a.024.024,0,0,0-.023-.02.037.037,0,0,0-.028.013l-.244.335-.166-.56.3-.442c.068.19.158.45.161.477a.043.043,0,0,0,.025.027c.023.008.027.008.363-.473l.114.576-.094.433a2.547,2.547,0,0,1-.264,0Zm.08.366c-.094,0-.206-.011-.316-.023l.2-.273Zm-.434-.039a3.952,3.952,0,0,1-.43-.08l.284-.418Zm.785-1.042.008-.008c.11-.157.221-.315.292-.422l-.2.931Zm.3-1.511c.064.064.127.126.193.185l-.138.647-.2-.647Zm-.434.438-.043-.426c.091-.086.182-.165.268-.24.056.063.11.126.169.185Zm1.614-.252-.206.647L16.28,17.5c.067-.059.13-.122.19-.185Zm-.11-.225c.059-.063.114-.126.169-.189.086.075.174.153.268.24l-.043.426Zm-.043,1.121c.07.107.181.265.291.422l.008.008-.1.5Zm.315.355c-.118-.169-.236-.347-.343-.5l.23-.7.236.292a.025.025,0,0,0,.027.008.036.036,0,0,0,.024-.024l.048-.454c.189.174.4.359.612.549a.7.7,0,0,0,.074.067c.024.019.048.043.072.063l.024.024a.246.246,0,0,0,.035.027l.064.236-.4-.382a.021.021,0,0,0-.026-.008.025.025,0,0,0-.02.016l-.169.441-.3-.4A.02.02,0,0,0,16.951,18a.037.037,0,0,0-.024.023Zm.959-.82c-.024-.024-.048-.044-.072-.067-.011,0-.019-.016-.032-.024L17.546,15.5a5.541,5.541,0,0,0,.139-.615l.126,3.1A.9.9,0,0,1,17.744,17.928Zm-.206-2.612a4.282,4.282,0,0,1-1.306,2.142v0a.248.248,0,0,1-.031.027c-.013.013-.024.02-.032.028s-.04.035-.059.051c-.051.043-.1.083-.155.126-.051-.043-.1-.083-.149-.126-.02-.016-.04-.032-.06-.051s-.019-.016-.031-.028a.2.2,0,0,1-.032-.027l0,0a4.443,4.443,0,0,1-.4-.414,4.26,4.26,0,0,1-.9-1.728,4.556,4.556,0,0,1-.131-.809l.016-.358a3.037,3.037,0,0,0,1.654-.466.178.178,0,0,0,.039-.032c.013.008.024.02.04.032a3.053,3.053,0,0,0,1.657.466l.016.358A4.888,4.888,0,0,1,17.539,15.316ZM14.37,15.5l-.1,2.333a.171.171,0,0,1-.027.024c-.024.023-.048.043-.07.067a.9.9,0,0,0-.067.063l.126-3.1A4.5,4.5,0,0,0,14.37,15.5Zm-.244,2.569.027-.024c.024-.019.048-.043.072-.063s.047-.044.07-.067l.616-.549.047.454a.024.024,0,0,0,.02.024.028.028,0,0,0,.031-.008l.238-.292.228.7c-.107.15-.228.327-.343.5l-.146-.73a.024.024,0,0,0-.02-.023.02.02,0,0,0-.027.011l-.3.4-.171-.441a.025.025,0,0,0-.019-.016.023.023,0,0,0-.027.008l-.4.382.067-.236A.107.107,0,0,0,14.126,18.073Zm-.153.469.221.749-.319.477c-.075-.019-.15-.039-.23-.067Zm-.739,1.144.009-.007.007-.008a.1.1,0,0,1,.107-.013c.072.032.146.056.217.08a4.391,4.391,0,0,0,.8.189c.11.013.221.024.324.027a1.175,1.175,0,0,0,.126.008h.351c.055,0,.106,0,.15-.008a1.627,1.627,0,0,1,.173,0,.154.154,0,0,1,.131.075c.011.027.008.051,0,.056a.239.239,0,0,0-.043.063.339.339,0,0,0-.02.027v0a.155.155,0,0,1-.047.043.218.218,0,0,1-.088.032c-.15.011-.319.011-.493.008-.13,0-.264-.016-.406-.032l0,0a.235.235,0,0,0,.008-.107.259.259,0,0,0-.1-.155l-.016-.008a.137.137,0,0,0-.059-.023h-.016a.138.138,0,0,0-.043.008h0a.2.2,0,0,0-.13.13.05.05,0,0,0-.008.024.3.3,0,0,0-.008.078v.008c-.118-.019-.23-.043-.332-.063a4.3,4.3,0,0,1-.583-.155l-.009-.015,0-.008c0-.02-.011-.044-.016-.075s-.008-.083-.008-.123A.085.085,0,0,1,13.234,19.686Zm1.239.53a.318.318,0,0,1-.035.082v0a.376.376,0,0,0-.032.035.457.457,0,0,0-.075.091.4.4,0,0,0-.035-.059.373.373,0,0,1-.078-.185.159.159,0,0,1,.008-.075.066.066,0,0,1,.008-.032.134.134,0,0,1,.09-.083.069.069,0,0,1,.028,0,.1.1,0,0,1,.043.011.173.173,0,0,1,.083.107A.192.192,0,0,1,14.473,20.216Zm-1.546-.359a.422.422,0,0,1,.228-.155.222.222,0,0,0-.008.04c0,.032,0,.072.008.107a.72.72,0,0,0,.016.091l-.04.011a.585.585,0,0,0-.091.04.417.417,0,0,0-.134.086.3.3,0,0,1-.011-.083A.239.239,0,0,1,12.927,19.857Zm5.835-.155a.434.434,0,0,1,.228.155.231.231,0,0,1,.032.138.3.3,0,0,1-.011.083.515.515,0,0,0-.134-.086.585.585,0,0,0-.091-.04l-.04-.011a.561.561,0,0,0,.016-.091.894.894,0,0,0,.008-.107A.153.153,0,0,0,18.762,19.7Zm-.04.289a.611.611,0,0,1,.238.122.5.5,0,0,1,.039.158.053.053,0,0,0,.02.035c.016.008.027.013.039.008s.15-.016.289.26a.048.048,0,0,0,.011.016c-.008.083-.048.281-.15.319a.048.048,0,0,0-.027.028.3.3,0,0,0-.027.122c-.016.091-.028.177-.15.225a12.054,12.054,0,0,1-2.761.311h-.569a12.044,12.044,0,0,1-2.758-.311c-.122-.048-.134-.134-.15-.225a.374.374,0,0,0-.027-.122.06.06,0,0,0-.027-.028c-.1-.039-.142-.236-.15-.319a.07.07,0,0,0,.013-.016c.138-.276.283-.26.283-.26a.046.046,0,0,0,.04-.008.061.061,0,0,0,.024-.035.632.632,0,0,1,.035-.158.642.642,0,0,1,.236-.122L13.2,20a4.364,4.364,0,0,0,.963.236.5.5,0,0,0,.078.163c.032.043.056.078.051.114a.034.034,0,0,0,.027.032h0a.033.033,0,0,0,.027-.024.323.323,0,0,1,.091-.146.135.135,0,0,0,.04-.048l0,0a.265.265,0,0,0,.02-.04,5.3,5.3,0,0,0,.6.032c.115,0,.221,0,.327-.008.024,0,.048-.013.072-.019a.254.254,0,0,0,.13.134c.016.007.027.015.043.023a.155.155,0,0,1,.059.075c.008.013.016.028.024.043a.024.024,0,0,0,.024.016h0a.024.024,0,0,0,.023-.019.935.935,0,0,0,.088-.288h.11a1.064,1.064,0,0,0,.091.288c0,.011.011.019.019.019h0a.02.02,0,0,0,.023-.016.349.349,0,0,0,.028-.043.155.155,0,0,1,.059-.075.254.254,0,0,1,.043-.023.254.254,0,0,0,.13-.134c.024.007.048.015.072.019.1,0,.213.008.327.008a5.255,5.255,0,0,0,.6-.032c.008.011.016.027.024.04v0a.164.164,0,0,0,.043.048.355.355,0,0,1,.091.146.033.033,0,0,0,.027.024h0a.033.033,0,0,0,.027-.032c-.008-.035.016-.07.048-.114a.447.447,0,0,0,.083-.163A4.429,4.429,0,0,0,18.714,20Zm-1.286.118A.208.208,0,0,1,17.519,20a.1.1,0,0,1,.047-.011.069.069,0,0,1,.028,0,.138.138,0,0,1,.091.083.083.083,0,0,1,.007.032.222.222,0,0,1,.009.075.385.385,0,0,1-.08.185.54.54,0,0,0-.035.059.694.694,0,0,0-.075-.091c-.013-.016-.027-.027-.032-.035v0a.423.423,0,0,1-.035-.082A.194.194,0,0,1,17.436,20.109Zm.9-.371a1.715,1.715,0,0,0,.221-.08.1.1,0,0,1,.107.013l.008.008.008.007a.1.1,0,0,1,.027.056.714.714,0,0,1-.011.123c0,.031-.008.055-.013.075l0,.008-.008.015a4.4,4.4,0,0,1-.584.155c-.1.019-.213.043-.332.063v-.008a.786.786,0,0,0-.007-.078.066.066,0,0,0-.008-.024.2.2,0,0,0-.131-.13h0a.145.145,0,0,0-.044-.008h-.019a.141.141,0,0,0-.056.023l-.015.008a.228.228,0,0,0-.1.155.235.235,0,0,0,.008.107v0c-.139.016-.273.027-.4.032-.174,0-.343,0-.5-.008a.212.212,0,0,1-.082-.032.147.147,0,0,1-.048-.043l0,0a.07.07,0,0,0-.015-.027.269.269,0,0,0-.044-.063c-.008,0-.011-.028,0-.056a.156.156,0,0,1,.131-.075,1.651,1.651,0,0,1,.174,0c.043,0,.094,0,.146.008H17.1a1.233,1.233,0,0,0,.126-.008c.1,0,.209-.015.324-.027A4.36,4.36,0,0,0,18.34,19.739Zm-.072-.036a2.111,2.111,0,0,1-.225.067l-.319-.477.222-.749Zm-.355-1.258-.233.789-.3-.449a.029.029,0,0,0-.028-.016.036.036,0,0,0-.023.019c-.088.241-.147.407-.171.49-.059-.08-.185-.257-.327-.466l.142-.718.289.386a.023.023,0,0,0,.027.013.027.027,0,0,0,.024-.016l.174-.45Zm1.633,1.1c-.04-.04-.088-.078-.134-.123l-.024-.023-.265-6.285a4.68,4.68,0,0,1-.41.382l.23,5.5-.177-.161h0l-.027-.028-.217-5.16c-.094.07-.2.146-.319.217l.193,4.636c-.059-.056-.123-.107-.182-.163a.121.121,0,0,0-.027-.023L18,13.982c-.083.043-.169.086-.264.126a.028.028,0,0,0-.024-.016A2.985,2.985,0,0,1,16,13.607c-.011-.008-.016-.016-.019-.016a.031.031,0,0,0-.036,0s-.008.008-.023.016a2.946,2.946,0,0,1-1.713.485.028.028,0,0,0-.024.016c-.094-.04-.181-.083-.264-.126l-.182,4.34a.121.121,0,0,0-.027.023c-.059.056-.123.107-.182.163l.193-4.636c-.118-.072-.224-.147-.318-.217l-.218,5.16-.027.028h0L12.973,19l.23-5.5a3.857,3.857,0,0,1-.41-.382L12.528,19.4l-.027.023c-.043.044-.091.083-.134.123L12.643,13a2.277,2.277,0,0,0-.418.208l0-.047c.008-.222.134-.552.38-.6a1.167,1.167,0,0,1,.2-.02,2.209,2.209,0,0,1,1.03.356c.083.043.161.083.241.122a2.545,2.545,0,0,0,.808.155.843.843,0,0,1-.122.134.047.047,0,0,0,0,.051.042.042,0,0,0,.035.019l.008,0c.02,0,.048-.008.08-.013a.621.621,0,0,0,.4-.158,2.2,2.2,0,0,0-.035.225.041.041,0,0,0,.019.036.044.044,0,0,0,.02.007l.015,0a.948.948,0,0,0,.359-.272l.011-.013.009.013a.99.99,0,0,0,.228.224l.027.013.011,0a.044.044,0,0,0,.032-.011L16,13.417a1.916,1.916,0,0,0,.19-.2.974.974,0,0,0,.513.241.045.045,0,0,0,.04-.044.488.488,0,0,0-.036-.153.841.841,0,0,0,.379.083.044.044,0,0,0,.036-.019.045.045,0,0,0,0-.044l0-.007a1.058,1.058,0,0,1-.067-.091c.158-.016.315-.032.454-.056a1.492,1.492,0,0,0,.339-.1c.08-.039.155-.078.241-.122a2.2,2.2,0,0,1,1.03-.356,1.1,1.1,0,0,1,.2.02c.249.043.375.374.383.6l0,.047A2.277,2.277,0,0,0,19.274,13Z" transform="translate(-11.847 -10.562)" fill="#bf920d"/><path d="M13.125,18.694a.884.884,0,0,1,.265.094l.015,0c.013,0,.02,0,.024-.011a.027.027,0,0,0,0-.04.92.92,0,0,0-.289-.1.025.025,0,0,0-.031.024A.024.024,0,0,0,13.125,18.694Z" transform="translate(-11.675 -9.458)" fill="#bf920d"/><path d="M13.543,18.822a1.553,1.553,0,0,1,.291.078l.013,0a.04.04,0,0,0,.027-.016.031.031,0,0,0-.011-.04,1.822,1.822,0,0,0-.308-.086.03.03,0,1,0-.011.059Z" transform="translate(-11.619 -9.441)" fill="#bf920d"/><path d="M14.293,18.977a.118.118,0,0,1,.031,0,.827.827,0,0,1,.276,0l.008,0a.034.034,0,0,0,.027-.024.058.058,0,0,0,0-.024l-.02-.011a.8.8,0,0,0-.11-.016c-.075,0-.146.008-.185.011a.058.058,0,0,1-.023,0,.027.027,0,0,0-.028.027A.03.03,0,0,0,14.293,18.977Z" transform="translate(-11.517 -9.422)" fill="#bf920d"/><path d="M14.74,19h0a2.874,2.874,0,0,1,.307-.027.03.03,0,0,0,.027-.032.026.026,0,0,0-.027-.027,2.375,2.375,0,0,0-.3.027.045.045,0,0,0-.016,0,.022.022,0,0,0-.019.011s0,.011,0,.019A.026.026,0,0,0,14.74,19Z" transform="translate(-11.455 -9.42)" fill="#bf920d"/><path d="M17.558,18.792a.043.043,0,0,0,.02,0,.892.892,0,0,1,.26-.094c.016,0,.027-.016.023-.032a.026.026,0,0,0-.031-.024.884.884,0,0,0-.289.1.032.032,0,0,0-.008.04A.034.034,0,0,0,17.558,18.792Z" transform="translate(-11.07 -9.458)" fill="#bf920d"/><path d="M17.125,18.905l.013,0a1.541,1.541,0,0,1,.292-.078.034.034,0,0,0,.023-.035.033.033,0,0,0-.034-.024,1.719,1.719,0,0,0-.309.086.028.028,0,0,0-.011.04A.034.034,0,0,0,17.125,18.905Z" transform="translate(-11.13 -9.441)" fill="#bf920d"/><path d="M16.68,18.918a.059.059,0,0,1-.024,0c-.04,0-.11-.011-.182-.011h0a.9.9,0,0,0-.115.016l-.016.011a.058.058,0,0,0,0,.024.034.034,0,0,0,.027.024l.008,0a.826.826,0,0,1,.276,0,.3.3,0,0,1,.032,0,.03.03,0,0,0,.027-.032A.026.026,0,0,0,16.68,18.918Z" transform="translate(-11.233 -9.422)" fill="#bf920d"/><path d="M16.236,18.948a.044.044,0,0,0-.02,0,2.27,2.27,0,0,0-.3-.027.026.026,0,0,0-.027.027.03.03,0,0,0,.027.032,3.047,3.047,0,0,1,.308.027h0a.028.028,0,0,0,.027-.024c0-.008,0-.016,0-.019A.02.02,0,0,0,16.236,18.948Z" transform="translate(-11.294 -9.42)" fill="#bf920d"/><path d="M17.251,13.855c-.02,0-.036,0-.056,0a.519.519,0,0,1-.086-.008,3.423,3.423,0,0,1-.837-.165,1.1,1.1,0,0,1-.131-.044,2.267,2.267,0,0,1-.446-.221s-.011-.008-.019-.016a.066.066,0,0,0-.036,0,.069.069,0,0,1-.023.016,2.308,2.308,0,0,1-.573.265,3.419,3.419,0,0,1-.84.165.467.467,0,0,1-.083.008c-.019,0-.04,0-.059,0s-.024.016-.024.032a4.871,4.871,0,0,0,.056.634,4.123,4.123,0,0,0,.939,2.04.1.1,0,0,0,.019.027c.06.072.126.142.19.209s.107.107.161.158a3.111,3.111,0,0,0,.236.2.017.017,0,0,0,.016.008c.009,0,.016,0,.02-.008.083-.063.157-.134.236-.2.126-.118.241-.244.351-.371a.1.1,0,0,0,.019-.027,4.093,4.093,0,0,0,.726-1.236,4.227,4.227,0,0,0,.209-.8,4.343,4.343,0,0,0,.059-.634A.031.031,0,0,0,17.251,13.855ZM16.265,16.5a.157.157,0,0,1-.024.028c-.008.007-.011.015-.019.023-.08.1-.166.185-.257.276a.875.875,0,0,1-.067.064c-.078.075-.158.146-.241.213-.078-.067-.161-.138-.236-.209-.048-.043-.091-.091-.134-.134-.067-.07-.13-.138-.19-.209a.186.186,0,0,0-.019-.023.157.157,0,0,1-.024-.028V13.737l.013,0a2.779,2.779,0,0,0,.552-.248.38.38,0,0,0,.039-.028.3.3,0,0,1,.04.028,2.863,2.863,0,0,0,.426.2c.043.016.086.032.13.043l.013,0Z" transform="translate(-11.548 -10.175)" fill="#bf920d"/></g></g></g></svg>