<svg xmlns="http://www.w3.org/2000/svg" width="35.172" height="35.169" viewBox="0 0 35.172 35.169"><g transform="translate(0)"><g transform="translate(0 0)"><path d="M17.164,0A17.549,17.549,0,0,0,3.56,6.454c-.157.19-.307.383-.454.58H31.221A17.565,17.565,0,0,0,17.164,0Z" transform="translate(0.425)" fill="#052a8d"/><path d="M3.56,25.33a17.562,17.562,0,0,0,27.661-.58H3.1C3.253,24.948,3.4,25.141,3.56,25.33Z" transform="translate(0.424 3.384)" fill="#052a8d"/><path d="M.963,20.909A17.549,17.549,0,0,0,3.484,25.6H31.6a17.646,17.646,0,0,0,2.521-4.687,17.282,17.282,0,0,0,.647-2.347H.316A17.282,17.282,0,0,0,.963,20.909Z" transform="translate(0.043 2.538)" fill="#fff"/><path d="M.967,10.876a17.232,17.232,0,0,0-.651,2.343H34.77a16.6,16.6,0,0,0-.651-2.343A17.511,17.511,0,0,0,31.6,6.188H3.487A17.425,17.425,0,0,0,.967,10.876Z" transform="translate(0.043 0.846)" fill="#fff"/><path d="M0,15.892a17.49,17.49,0,0,0,.359,3.516H34.813a17.4,17.4,0,0,0,0-7.035H.359A17.558,17.558,0,0,0,0,15.892Z" transform="translate(0 1.692)" fill="#052a8d"/><g transform="translate(0 6.454)"><path d="M26.248,16.808,14.526,22.671,3.984,27.937a17.545,17.545,0,0,1,0-22.259l10.539,5.268Z" transform="translate(0 -5.678)" fill="#ce152a"/></g><path d="M7.89,12.054l.963,2.967h3.121L9.449,16.852l.963,2.967L7.89,17.984,5.369,19.818l.963-2.967L3.811,15.021H6.928Z" transform="translate(0.521 1.648)" fill="#fff"/></g></g></svg>