<svg xmlns="http://www.w3.org/2000/svg" width="35.153" height="35.153" viewBox="0 0 35.153 35.153"><g transform="translate(0)"><g transform="translate(0 0)"><path d="M11.717,1.006a17.577,17.577,0,0,0,5.859,34.147V0A17.479,17.479,0,0,0,11.717,1.006Z" fill="#fff"/><path d="M21.321,1.006A17.464,17.464,0,0,0,15.462,0V35.153A17.576,17.576,0,0,0,21.321,1.006Z" transform="translate(2.114 0)" fill="#ce142a"/><g transform="translate(5.918 4.671)"><path d="M14.967,7.644H12.342a1.165,1.165,0,0,0-.911-.918V4.109H8.741V6.726a1.177,1.177,0,0,0-.912.918H5.206v2.691H7.83a1.178,1.178,0,0,0,.912.92V13.87h2.691V11.254a1.166,1.166,0,0,0,.911-.92h2.625Z" transform="translate(-5.206 -4.109)" fill="#e50e2d"/><path d="M8.921,13.641V11.064l-.161-.035a.965.965,0,0,1-.754-.757l-.032-.166H5.386V7.825H7.974l.032-.166A.964.964,0,0,1,8.76,6.9l.161-.036V4.29H11.2V6.866l.166.036a.96.96,0,0,1,.749.757l.032.166h2.588v2.28H12.148l-.032.166a.961.961,0,0,1-.749.757l-.166.035v2.577Z" transform="translate(-5.181 -4.084)" fill="#97867a"/><path d="M9,13.543v-2.56l-.233-.048a.9.9,0,0,1-.683-.69l-.047-.238H5.466V7.9H8.035l.047-.236a.9.9,0,0,1,.683-.691L9,6.927V4.366H11.1V6.927l.233.047a.884.884,0,0,1,.682.691l.048.236h2.572v2.106H12.067l-.048.238a.882.882,0,0,1-.682.69l-.233.048v2.56Z" transform="translate(-5.17 -4.074)" fill="#cbcbcb"/><g transform="translate(3.013 3.011)"><g transform="translate(0.439 0.438)"><path d="M9.683,10.023a1.44,1.44,0,1,1,1.439-1.44A1.444,1.444,0,0,1,9.683,10.023Zm0-2.849a1.408,1.408,0,1,0,1.408,1.408A1.413,1.413,0,0,0,9.683,7.175Z" transform="translate(-8.243 -7.143)" fill="#95877c"/></g><path d="M9.736,10.514a1.878,1.878,0,1,1,1.878-1.878A1.881,1.881,0,0,1,9.736,10.514Zm0-3.728a1.85,1.85,0,1,0,1.846,1.851A1.853,1.853,0,0,0,9.736,6.785Z" transform="translate(-7.857 -6.758)" fill="#95877c"/></g><g transform="translate(2.796 2.797)"><path d="M8.519,6.661a.48.48,0,0,1-.1.663.48.48,0,0,1-.664.1.488.488,0,0,1,.1-.663A.488.488,0,0,1,8.519,6.661Z" transform="translate(-7.665 -6.569)" fill="#97857c"/><g transform="translate(0.072 0.072)"><path d="M7.729,7.059l.083-.083.316.2-.2-.312.083-.083.256.45-.087.087Z" transform="translate(-7.729 -6.613)" fill="#cbcbcb"/><rect width="0.112" height="0.502" transform="translate(0.367 0.079) rotate(-45)" fill="#cbcbcb"/></g><g transform="translate(3.224 0)"><path d="M11.355,7.423a.479.479,0,0,1-.663-.1.488.488,0,0,1-.1-.663.488.488,0,0,1,.663.1A.479.479,0,0,1,11.355,7.423Z" transform="translate(-10.501 -6.569)" fill="#97857c"/><g transform="translate(0.171 0.072)"><path d="M10.908,6.633l.083.083-.2.316.316-.2.079.079-.45.26-.087-.087Z" transform="translate(-10.651 -6.633)" fill="#cbcbcb"/><rect width="0.502" height="0.112" transform="translate(0.268 0.722) rotate(-45)" fill="#cbcbcb"/></g></g><g transform="translate(0 3.22)"><g transform="translate(3.224)"><path d="M10.593,10.258a.488.488,0,0,1,.1-.663.48.48,0,0,1,.663-.1.479.479,0,0,1-.1.663A.486.486,0,0,1,10.593,10.258Z" transform="translate(-10.501 -9.402)" fill="#97857c"/><g transform="translate(0.073 0.174)"><path d="M11.334,9.811l-.083.083-.312-.2.2.312-.083.083-.256-.45.087-.087Z" transform="translate(-10.534 -9.555)" fill="#cbcbcb"/><rect width="0.113" height="0.501" transform="translate(0 0.348) rotate(-45)" fill="#cbcbcb"/></g></g><path d="M7.757,9.5a.481.481,0,0,1,.664.1.48.48,0,0,1,.1.663.562.562,0,0,1-.762-.76Z" transform="translate(-7.665 -9.402)" fill="#97857c"/><g transform="translate(0.077 0.072)"><path d="M8.155,10.238l-.083-.083.2-.316-.311.2-.083-.079.45-.26.091.087Z" transform="translate(-7.714 -9.434)" fill="#cbcbcb"/><rect width="0.501" height="0.113" transform="matrix(0.69, -0.724, 0.724, 0.69, 0, 0.363)" fill="#cbcbcb"/></g></g></g><g transform="translate(3.085 3.09)"><path d="M7.952,8.654l.142-.02V8.619a.054.054,0,0,0-.028-.036A.316.316,0,0,0,8,8.574V8.566l.189-.023v.008l-.039.011-.024.011a.054.054,0,0,0-.019.048l0,.011.1-.011a.118.118,0,0,0,.047-.016.034.034,0,0,0,.008-.035V8.555h.009l.019.161H8.279V8.708a.055.055,0,0,0-.02-.031.085.085,0,0,0-.047,0L8.019,8.7a.1.1,0,0,0-.048.016.036.036,0,0,0-.008.035v.008H7.955L7.92,8.488l.146-.016v0l-.031.011L8.011,8.5a.123.123,0,0,0-.043.027.1.1,0,0,0-.02.032.065.065,0,0,0,0,.04Z" transform="translate(-7.92 -6.602)"/><path d="M7.937,8.171a.23.23,0,0,1,.024-.059.149.149,0,0,1,.051-.039.183.183,0,0,1,.059-.02.21.21,0,0,1,.147.032.19.19,0,0,1,.055.064.137.137,0,0,1,.013.078.211.211,0,0,1-.024.056.233.233,0,0,1-.043.039.16.16,0,0,1-.064.024.166.166,0,0,1-.067,0A.184.184,0,0,1,8,8.313.187.187,0,0,1,7.95,8.25.14.14,0,0,1,7.937,8.171Zm.008,0a.086.086,0,0,0,0,.032.051.051,0,0,0,.019.024A.072.072,0,0,0,8,8.25a.125.125,0,0,0,.043.019l.056.013a.227.227,0,0,0,.067,0,.2.2,0,0,0,.055-.008.07.07,0,0,0,.035-.019.041.041,0,0,0,.016-.032.059.059,0,0,0-.011-.051A.127.127,0,0,0,8.21,8.14a.416.416,0,0,0-.088-.028c-.023,0-.043,0-.063,0A.212.212,0,0,0,8,8.116a.075.075,0,0,0-.035.019c-.008,0-.011.013-.016.016Z" transform="translate(-7.918 -6.66)"/><path d="M8.253,7.792l-.024.048.082.043a.12.12,0,0,0,.048.011.046.046,0,0,0,.027-.024l0-.007.008,0L8.327,8,8.319,8l0,0c0-.016.008-.028,0-.036a.057.057,0,0,0-.035-.031l-.174-.088a.059.059,0,0,0-.048-.011.029.029,0,0,0-.027.024l0,0-.007,0,.082-.171a.26.26,0,0,1,.036-.051.053.053,0,0,1,.039-.019h.028a.051.051,0,0,1,.027.008.076.076,0,0,1,.043.055.113.113,0,0,1,0,.032.122.122,0,0,1-.008.035c0,.008-.008.024-.016.04h0l.032-.011c.008-.008.016-.013.019-.016a.127.127,0,0,0,.024-.02h.086a.139.139,0,0,0,.024,0,.036.036,0,0,0,.024-.024l0-.008.008,0-.039.083Zm-.036.043.032-.063a.079.079,0,0,0,.011-.04A.046.046,0,0,0,8.249,7.7a.088.088,0,0,0-.035-.027.064.064,0,0,0-.1.032l-.032.063Z" transform="translate(-7.905 -6.719)"/><path d="M8.649,7.087l.008,0,.088.115,0,0c-.017-.011-.025-.019-.036-.027s-.016-.013-.024-.016a.141.141,0,0,0-.067-.016.072.072,0,0,0-.055.016.127.127,0,0,0-.02.024.1.1,0,0,0-.008.031.167.167,0,0,0,.016.056.686.686,0,0,0,.051.075.189.189,0,0,0,.02.027l.019.02.019.019a.048.048,0,0,1,.016.011.05.05,0,0,0,.024.008.045.045,0,0,0,.024,0,.029.029,0,0,0,.02,0l.019-.011A.121.121,0,0,0,8.783,7.4.174.174,0,0,1,8.8,7.372a.06.06,0,0,0-.016-.043l-.008-.016c-.027-.032-.051-.04-.075-.019L8.681,7.3l0-.008.134-.1,0,.008,0,0a.041.041,0,0,0-.02.032.075.075,0,0,0,.02.043l.048.064,0,0H8.835l-.013,0-.011.011L8.8,7.38a.11.11,0,0,1-.02.032.041.041,0,0,1-.019.016.091.091,0,0,1-.051.027.13.13,0,0,1-.059,0,.457.457,0,0,1-.059-.027.2.2,0,0,1-.051-.048.131.131,0,0,1-.02-.04A.106.106,0,0,1,8.508,7.3c0-.016,0-.027-.008-.043a.176.176,0,0,1,.008-.043.106.106,0,0,1,.015-.035.157.157,0,0,1,.024-.028.166.166,0,0,1,.032-.016.158.158,0,0,1,.044-.007c.015,0,.023,0,.023,0l.008-.011A.073.073,0,0,0,8.649,7.087Z" transform="translate(-7.841 -6.792)"/><path d="M8.958,6.917h0l.2.241c0,.008.013.011.016.016s.013.008.02.008h.015l.008,0,0,.008-.134.051,0-.008L9.1,7.222l.02-.013V7.193l-.008-.016S9.1,7.161,9.088,7.15l0,0,0-.008-.008-.008-.1.035v.027a.2.2,0,0,1,.008.024c0,.008,0,.011.011.019l.016.013h.02l0,.008-.094.035,0-.011a.021.021,0,0,0,.016-.008l.009-.016a.265.265,0,0,0,.011-.083ZM8.965,7l.008.158.091-.035Z" transform="translate(-7.782 -6.815)"/><path d="M9.26,6.838l.169-.011v.008l-.019,0a.037.037,0,0,0-.032.016A.139.139,0,0,0,9.37,6.9l.024.257.063,0a.048.048,0,0,0,.032-.016.107.107,0,0,0,.027-.032.21.21,0,0,1,.013-.027c0-.008,0-.019.008-.032s0-.027.008-.043h0l.011.15-.272.019V7.167H9.3c.032,0,.043-.024.04-.064l-.016-.2c0-.039-.02-.059-.048-.055H9.26Z" transform="translate(-7.737 -6.827)"/><path d="M9.691,6.83l.166.032,0,.008-.015,0a.036.036,0,0,0-.036.008.081.081,0,0,0-.019.043l-.048.252.064.011a.054.054,0,0,0,.035,0,.082.082,0,0,0,.035-.027.116.116,0,0,0,.02-.02A.085.085,0,0,1,9.9,7.1a.222.222,0,0,1,.015-.04h.009L9.9,7.21l-.272-.048,0-.011.008,0c.027,0,.048-.011.056-.055l.035-.19c.008-.04,0-.064-.032-.072H9.691Z" transform="translate(-7.686 -6.827)"/><path d="M10.245,6.983h.008l-.044.308v.027l.008.016.013.013.008,0,0,.008-.13-.064,0-.008.016.008a.051.051,0,0,0,.024,0s.008,0,.013-.013,0-.007,0-.015,0-.02.008-.036V7.208l-.091-.043-.019.019a.075.075,0,0,0-.016.02.039.039,0,0,0,0,.019c0,.008,0,.016,0,.019l0,.013.008,0,0,.008-.091-.043.008-.008.016,0a.158.158,0,0,1,.019,0,.2.2,0,0,0,.063-.051Zm-.051.059-.111.115.091.043Z" transform="translate(-7.641 -6.806)"/><path d="M10.516,7.153l.072.067-.04.3.1-.107a.207.207,0,0,0,.027-.04.055.055,0,0,0,0-.035.026.026,0,0,0,0-.016s0-.008-.011-.016l.008,0,.086.083,0,.008,0,0a.043.043,0,0,0-.043-.011.177.177,0,0,0-.056.039l-.165.178,0,0,.048-.363-.134.146a.169.169,0,0,0-.028.035.054.054,0,0,0-.008.032.066.066,0,0,0,.008.024s.008.011.016.016l-.008.008-.09-.088,0-.007a.116.116,0,0,0,.032.015.075.075,0,0,0,.027,0,.316.316,0,0,0,.032-.027l.131-.139a.091.091,0,0,0,.015-.024.029.029,0,0,0,0-.027.033.033,0,0,0-.011-.024h0Z" transform="translate(-7.597 -6.782)"/><path d="M10.848,7.5l.146.249-.15.086v0a.294.294,0,0,0,.08-.08.079.079,0,0,0,.007-.086l0-.011-.221.13c-.036.02-.048.043-.032.067l.019.032-.008,0-.11-.185.008,0,.019.032c.016.027.04.027.075.008l.222-.131L10.891,7.6a.081.081,0,0,0-.083-.032.2.2,0,0,0-.067.011.263.263,0,0,1-.04.016v0Z" transform="translate(-7.557 -6.735)"/><path d="M10.929,8.1l-.016-.051-.091.019a.063.063,0,0,0-.04.024c-.011.008-.011.019-.008.035v.008h-.007l-.036-.15.008,0v.008a.035.035,0,0,0,.024.027.05.05,0,0,0,.048,0L11,7.97a.054.054,0,0,0,.042-.024.034.034,0,0,0,.008-.035l0,0,.011,0,.044.185a.615.615,0,0,1,.007.064.063.063,0,0,1-.019.039.034.034,0,0,1-.019.016.037.037,0,0,1-.028.013.069.069,0,0,1-.067-.013.211.211,0,0,0-.019-.027.084.084,0,0,1-.016-.032.223.223,0,0,1-.011-.043h0a.165.165,0,0,0-.016.032.2.2,0,0,0-.008.024c0,.011,0,.019,0,.031l-.008.008a.065.065,0,0,0-.016.013l-.013.008c-.011.011-.023.019-.031.027s-.013.016-.016.019a.081.081,0,0,0,0,.036l0,0-.008,0-.024-.09Zm0-.056.016.067a.077.077,0,0,0,.016.04.048.048,0,0,0,.032.016.07.07,0,0,0,.043,0c.051-.011.072-.043.059-.086l-.016-.072Z" transform="translate(-7.536 -6.68)"/><path d="M11.141,8.385l-.011.158h-.008l0-.019a.032.032,0,0,0-.008-.019l-.011,0h-.011l-.02.008-.122.051.094.064a.274.274,0,0,0,.032.016.064.064,0,0,0,.027-.008.036.036,0,0,0,.011-.028V8.586h.008l-.008.126h-.007c0-.007,0-.015,0-.023l-.011-.016a.048.048,0,0,0-.016-.02.074.074,0,0,0-.028-.019l-.106-.07-.08-.008a.1.1,0,0,0-.047.008.04.04,0,0,0-.02.035v.016H10.79l.013-.177.008,0v.016a.047.047,0,0,0,.011.035.063.063,0,0,0,.043.013l.075.007.142-.063a.085.085,0,0,0,.04-.027.046.046,0,0,0,.011-.032v0Z" transform="translate(-7.528 -6.614)"/></g><g transform="translate(4.237 6.349)"><path d="M9.763,9.824H9.594V9.745a.052.052,0,0,0-.1,0v.078H9.321a.052.052,0,0,0,0,.1h.169v.078a.052.052,0,0,0,.1,0V9.927h.169a.052.052,0,0,0,0-.1Z" transform="translate(-8.887 -9.694)"/><g transform="translate(0 0.016)"><path d="M10.1,9.794a.083.083,0,1,1-.166,0,.083.083,0,1,1,.166,0Z" transform="translate(-8.796 -9.708)"/><path d="M9.1,9.794a.084.084,0,0,1-.088.083.083.083,0,0,1-.083-.083.085.085,0,1,1,.171,0Z" transform="translate(-8.933 -9.708)"/></g></g><path d="M10.375,8.394a.312.312,0,0,0,.13-.173c.013,0,.02,0,.032,0a.778.778,0,0,1,.241.048A.206.206,0,0,1,10.8,8.3c.032.027.064.059.126.013l0-.008c0-.016-.04-.147-.142-.147a.143.143,0,0,1-.04-.019c-.114-.051-.236-.11-.276-.088a.692.692,0,0,0-.072.067c-.035.04-.086.1-.106.088a1.359,1.359,0,0,1-.217-.3.627.627,0,0,0,.048-.048.656.656,0,0,0,.055-.086l.013,0a.2.2,0,0,1,.051-.013.264.264,0,0,0,.051-.011.056.056,0,0,0,.035-.064c0-.032-.032-.134-.347-.122l-.013-.072,0,0h0a.183.183,0,0,0-.068.07l0,0a.1.1,0,0,1-.024-.02s0,0-.011,0l0,0a.2.2,0,1,0-.383-.094H9.447a.849.849,0,0,0-.107,0,.379.379,0,0,0-.13.043.3.3,0,0,0-.059.035.672.672,0,0,1-.059.035l0,.013.008,0a.228.228,0,0,1,.064.011l.011,0c.016,0,.027.008.04.011a.062.062,0,0,0,.027.008A.224.224,0,0,1,9.1,7.6c-.024-.008-.043-.016-.059-.023a.167.167,0,0,0-.134-.02.136.136,0,0,0-.075.072c0,.008-.008.016-.011.016l-.028.007a.16.16,0,0,0-.074.024c-.008.008-.008.02-.013.028s0,.027-.024.031-.027,0-.043-.011S8.6,7.7,8.591,7.709s-.016.035-.011.082a.233.233,0,0,1-.044.19.178.178,0,0,0-.07.094.083.083,0,0,0,.019.056l.024.024c.032.039.032.039.016.083a.038.038,0,0,0,.016.051.138.138,0,0,0,.091.024.2.2,0,0,0,.126-.04,1.36,1.36,0,0,1,.118-.08.152.152,0,0,0,.059.2l0,0a.021.021,0,0,0,.024.008c.013,0,.013-.023.016-.047l.145.153a.364.364,0,0,0-.134.209A.329.329,0,0,1,8.927,8.7c-.035-.013-.056-.024-.075-.032a.526.526,0,0,0-.078-.035c-.059-.016-.1-.032-.142-.008a.123.123,0,0,0-.056.122.1.1,0,0,0,.032.072.116.116,0,0,1,.035.07.118.118,0,0,1-.019.088.061.061,0,0,1-.028.019.19.19,0,0,0-.039.027.118.118,0,0,0-.02.107.074.074,0,0,0,.02.024.065.065,0,0,1,.016.024.08.08,0,0,1,0,.043.078.078,0,0,0,0,.04.136.136,0,0,0,.067.09c.008,0,.011,0,.016,0l.008,0c.011-.008.008-.023,0-.051s-.019-.055,0-.067.024-.008.04,0a.054.054,0,0,0,.048-.008c.016-.016.008-.043,0-.075s-.025-.067-.009-.091a.057.057,0,0,1,.04-.024c.016-.008.032-.011.043-.032.032-.051-.008-.126-.032-.165a.154.154,0,0,0-.035-.04c-.016-.019-.024-.027-.019-.035s.019-.02.04-.02.035.016.051.036a.1.1,0,0,0,.027.027.2.2,0,0,0,.158.024.357.357,0,0,0,.315.221.664.664,0,0,1-.059.15.061.061,0,0,0-.011.064c.011.023.044.031.091.031a.417.417,0,0,1,.138.024.233.233,0,0,0-.031.051l-.1.028,0,0-.075.078-.438-.007h0l-.008.007,0,.008.3.072-.257-.019-.008,0v.008l.1.107,0,0h1.5l.114-.11,0-.008,0,0s-.086-.064-.15-.107a.236.236,0,0,0,.067-.035.67.67,0,0,0,.163.059h0a.1.1,0,0,0,.059-.032.151.151,0,0,0,.043-.088C10.758,9.3,10.718,9.3,10.7,9.3l0,0a.066.066,0,0,1-.118.027,1.234,1.234,0,0,0,.217-.193l.008-.008a.039.039,0,0,0,.008-.035L10.8,9.081l0-.011c0-.011-.008-.024-.013-.04a.033.033,0,0,0-.023-.011c-.028,0-.068.043-.08.075s-.027.039-.072.075l-.059.047a.2.2,0,0,0-.051-.122.252.252,0,0,1-.035-.056.138.138,0,0,0,.064.024.273.273,0,0,0,.193-.07.109.109,0,0,0,.031-.036l.131.013h0l.008-.008,0-.008-.047-.02.011,0,0-.008,0-.008-.039-.024.023-.016V8.864l0-.007-.08-.013a.242.242,0,0,0-.059-.094.1.1,0,0,0-.055-.024.059.059,0,0,1-.035-.008.194.194,0,0,1-.02-.032c-.008-.016-.016-.035-.027-.039a.023.023,0,0,0-.024,0,.078.078,0,0,0-.043.078c0,.011.016.032.04.056-.043-.013-.088-.028-.088-.028l-.008,0v.008a.187.187,0,0,0,.056.07h-.027l0,0,0,0c0,.032.039.043.075.056a.272.272,0,0,1,.055.027c.016.011.027.024.024.035s-.019.016-.04.016a.125.125,0,0,1-.07-.04c-.027-.023-.059-.051-.094-.039a.076.076,0,0,0-.056.047c-.011.04.02.091.04.123l.011.019s-.008.013-.043.028a.408.408,0,0,0-.059-.075,1.92,1.92,0,0,1,.153-.364V8.67h-.008a.613.613,0,0,0-.217.166c-.019-.011-.039-.027-.07-.043h0a.129.129,0,0,1-.019-.027.668.668,0,0,1-.1-.147l0,0c.024,0,.051,0,.083-.008a1.245,1.245,0,0,0,.339-.051.447.447,0,0,1,.15.1.454.454,0,0,0,.118.082l0,0c.027.048.047.086.09.086a.1.1,0,0,0,.044-.011l0-.008a.2.2,0,0,0-.115-.177.8.8,0,0,1-.109-.1c-.056-.051-.1-.1-.131-.1s-.072,0-.11,0a.325.325,0,0,0-.06,0A.176.176,0,0,1,10.375,8.394Zm-.257-.548a.234.234,0,0,1-.043.048.651.651,0,0,1-.027-.075l.023,0c.028-.011.064-.024.091-.032A.449.449,0,0,1,10.118,7.846Zm-.635-.3a.158.158,0,0,0,.02.035c0,.013-.008.028-.013.04-.024,0-.047,0-.07-.008l.011-.008a.083.083,0,0,0,.035-.039A.063.063,0,0,0,9.482,7.546Zm.15.225a.113.113,0,0,0,.04-.035h0L9.68,7.72s.019-.011.035-.016a.616.616,0,0,0-.043.107Zm-.62.474a.111.111,0,0,1,0-.048.433.433,0,0,1,.051-.107A.8.8,0,0,1,9.25,8.04.715.715,0,0,0,9.3,8.17a.941.941,0,0,1,.05.126.168.168,0,0,0,.064.086.334.334,0,0,1-.107.035.22.22,0,0,0-.059.016l-.182-.122c.013,0,.016-.013.016-.016C9.085,8.276,9.033,8.253,9.013,8.245Zm1.026.612v.007h0a.492.492,0,0,0-.292-.007l0,.007,0,.008a.247.247,0,0,0,.055.016c.04.013.064.016.056.064l0,0,0,0c.075,0,.115.016.131.035a.058.058,0,0,1,0,.024v.008h0c.075.016.1.035.1.075v0l.008,0c.056,0,.091.011.1.043a.455.455,0,0,0-.165-.027A.26.26,0,0,0,10,9.058c-.031-.036-.086-.067-.2-.02H9.795a.538.538,0,0,1-.111.016l.028-.086a.285.285,0,0,0-.04-.185,1.065,1.065,0,0,0,.252-.1A.375.375,0,0,0,10,8.758c.007.008.011.011.015.011l0,.008C10.031,8.8,10.059,8.821,10.039,8.857Zm-.616.283a.505.505,0,0,0,.123-.181.279.279,0,0,1,0,.114v0l-.008.011a.08.08,0,0,0-.023.059.018.018,0,0,0,.008.016c.008.008.015.008.027.008a.37.37,0,0,0,.067-.008.506.506,0,0,1,.059-.008.8.8,0,0,0,.11-.016A.324.324,0,0,1,9.9,9.125a.074.074,0,0,0,.032.015.4.4,0,0,0-.118.052.265.265,0,0,0-.206,0,.393.393,0,0,0-.043.035C9.5,9.2,9.431,9.168,9.423,9.14Z" transform="translate(-4.76 -3.676)" fill="#95867c"/><path d="M10.375,8.394a.312.312,0,0,0,.13-.173c.013,0,.02,0,.032,0a.778.778,0,0,1,.241.048A.206.206,0,0,1,10.8,8.3c.032.027.064.059.126.013l0-.008c0-.016-.04-.147-.142-.147a.143.143,0,0,1-.04-.019c-.114-.051-.236-.11-.276-.088a.692.692,0,0,0-.072.067c-.035.04-.086.1-.106.088a1.359,1.359,0,0,1-.217-.3.627.627,0,0,0,.048-.048.656.656,0,0,0,.055-.086l.013,0a.2.2,0,0,1,.051-.013.264.264,0,0,0,.051-.011.056.056,0,0,0,.035-.064c0-.032-.032-.134-.347-.122l-.013-.072,0,0h0a.183.183,0,0,0-.068.07l0,0a.1.1,0,0,1-.024-.02s0,0-.011,0l0,0a.2.2,0,1,0-.383-.094H9.447a.849.849,0,0,0-.107,0,.379.379,0,0,0-.13.043.3.3,0,0,0-.059.035.672.672,0,0,1-.059.035l0,.013.008,0a.228.228,0,0,1,.064.011l.011,0c.016,0,.027.008.04.011a.062.062,0,0,0,.027.008A.224.224,0,0,1,9.1,7.6c-.024-.008-.043-.016-.059-.023a.167.167,0,0,0-.134-.02.136.136,0,0,0-.075.072c0,.008-.008.016-.011.016l-.028.007a.16.16,0,0,0-.074.024c-.008.008-.008.02-.013.028s0,.027-.024.031-.027,0-.043-.011S8.6,7.7,8.591,7.709s-.016.035-.011.082a.233.233,0,0,1-.044.19.178.178,0,0,0-.07.094.083.083,0,0,0,.019.056l.024.024c.032.039.032.039.016.083a.038.038,0,0,0,.016.051.138.138,0,0,0,.091.024.2.2,0,0,0,.126-.04,1.36,1.36,0,0,1,.118-.08.152.152,0,0,0,.059.2l0,0a.021.021,0,0,0,.024.008c.013,0,.013-.023.016-.047l.145.153a.364.364,0,0,0-.134.209A.329.329,0,0,1,8.927,8.7c-.035-.013-.056-.024-.075-.032a.526.526,0,0,0-.078-.035c-.059-.016-.1-.032-.142-.008a.123.123,0,0,0-.056.122.1.1,0,0,0,.032.072.116.116,0,0,1,.035.07.118.118,0,0,1-.019.088.061.061,0,0,1-.028.019.19.19,0,0,0-.039.027.118.118,0,0,0-.02.107.074.074,0,0,0,.02.024.065.065,0,0,1,.016.024.08.08,0,0,1,0,.043.078.078,0,0,0,0,.04.136.136,0,0,0,.067.09c.008,0,.011,0,.016,0l.008,0c.011-.008.008-.023,0-.051s-.019-.055,0-.067.024-.008.04,0a.054.054,0,0,0,.048-.008c.016-.016.008-.043,0-.075s-.025-.067-.009-.091a.057.057,0,0,1,.04-.024c.016-.008.032-.011.043-.032.032-.051-.008-.126-.032-.165a.154.154,0,0,0-.035-.04c-.016-.019-.024-.027-.019-.035s.019-.02.04-.02.035.016.051.036a.1.1,0,0,0,.027.027.2.2,0,0,0,.158.024.357.357,0,0,0,.315.221.664.664,0,0,1-.059.15.061.061,0,0,0-.011.064c.011.023.044.031.091.031a.417.417,0,0,1,.138.024.233.233,0,0,0-.031.051l-.1.028,0,0-.075.078-.438-.007h0l-.008.007,0,.008.3.072-.257-.019-.008,0v.008l.1.107,0,0h1.5l.114-.11,0-.008,0,0s-.086-.064-.15-.107a.236.236,0,0,0,.067-.035.67.67,0,0,0,.163.059h0a.1.1,0,0,0,.059-.032.151.151,0,0,0,.043-.088C10.758,9.3,10.718,9.3,10.7,9.3l0,0a.066.066,0,0,1-.118.027,1.234,1.234,0,0,0,.217-.193l.008-.008a.039.039,0,0,0,.008-.035L10.8,9.081l0-.011c0-.011-.008-.024-.013-.04a.033.033,0,0,0-.023-.011c-.028,0-.068.043-.08.075s-.027.039-.072.075l-.059.047a.2.2,0,0,0-.051-.122.252.252,0,0,1-.035-.056.138.138,0,0,0,.064.024.273.273,0,0,0,.193-.07.109.109,0,0,0,.031-.036l.131.013h0l.008-.008,0-.008-.047-.02.011,0,0-.008,0-.008-.039-.024.023-.016V8.864l0-.007-.08-.013a.242.242,0,0,0-.059-.094.1.1,0,0,0-.055-.024.059.059,0,0,1-.035-.008.194.194,0,0,1-.02-.032c-.008-.016-.016-.035-.027-.039a.023.023,0,0,0-.024,0,.078.078,0,0,0-.043.078c0,.011.016.032.04.056-.043-.013-.088-.028-.088-.028l-.008,0v.008a.187.187,0,0,0,.056.07h-.027l0,0,0,0c0,.032.039.043.075.056a.272.272,0,0,1,.055.027c.016.011.027.024.024.035s-.019.016-.04.016a.125.125,0,0,1-.07-.04c-.027-.023-.059-.051-.094-.039a.076.076,0,0,0-.056.047c-.011.04.02.091.04.123l.011.019s-.008.013-.043.028a.408.408,0,0,0-.059-.075,1.92,1.92,0,0,1,.153-.364V8.67h-.008a.613.613,0,0,0-.217.166c-.019-.011-.039-.027-.07-.043h0a.129.129,0,0,1-.019-.027.668.668,0,0,1-.1-.147l0,0c.024,0,.051,0,.083-.008a1.245,1.245,0,0,0,.339-.051.447.447,0,0,1,.15.1.454.454,0,0,0,.118.082l0,0c.027.048.047.086.09.086a.1.1,0,0,0,.044-.011l0-.008a.2.2,0,0,0-.115-.177.8.8,0,0,1-.109-.1c-.056-.051-.1-.1-.131-.1s-.072,0-.11,0a.325.325,0,0,0-.06,0A.176.176,0,0,1,10.375,8.394Zm-.257-.548a.234.234,0,0,1-.043.048.651.651,0,0,1-.027-.075l.023,0c.028-.011.064-.024.091-.032A.449.449,0,0,1,10.118,7.846ZM9.964,7.5l.011.064,0,.008c.248-.013.339.047.343.106,0,.028-.008.04-.032.048a.1.1,0,0,1-.047.011l-.048.013c.008-.02.019-.04.027-.059l0-.013-.008,0a.425.425,0,0,1-.039.075.793.793,0,0,1-.107.039l-.027.008-.008.008a.342.342,0,0,0,.035.091A.736.736,0,0,1,9.9,8.02a1.043,1.043,0,0,1-.15.059.522.522,0,0,1,.126-.438c.019-.02.032-.036.032-.052a.049.049,0,0,1,0-.019A.2.2,0,0,1,9.964,7.5Zm-.225.651a.581.581,0,0,1-.047.043c0-.027,0-.064-.009-.1.009,0,.013,0,.02,0l.027,0C9.735,8.115,9.735,8.134,9.739,8.154Zm-.276-.5h0c.032,0,.142.107.209.174a2.051,2.051,0,0,0,0,.244l-.011-.008a.1.1,0,0,1-.011-.047.349.349,0,0,0-.008-.08.553.553,0,0,0-.043-.126H9.586l0,.008a.47.47,0,0,1,.04.123c.008.032.008.059.011.075s0,.043.016.059l.019.011a.333.333,0,0,1,0,.067c-.15-.027-.19-.193-.213-.3,0-.016,0-.027-.008-.04l0,0a.524.524,0,0,1-.1-.139A.406.406,0,0,1,9.463,7.657Zm.182-.209a.1.1,0,0,1,.067.02.118.118,0,0,1,.031.027.084.084,0,0,1,.016.04v.008c-.055-.008-.106-.02-.153-.032A.221.221,0,0,0,9.557,7.5c0-.008.013-.016.017-.024a.044.044,0,0,1,.011-.016L9.6,7.455c.008,0,.016,0,.024,0A.045.045,0,0,1,9.645,7.447Zm-.134.119a.082.082,0,0,1-.016-.032.048.048,0,0,1,.016-.013c.008,0,.011,0,.019,0A.116.116,0,0,0,9.511,7.567Zm-.028-.02a.158.158,0,0,0,.02.035c0,.013-.008.028-.013.04-.024,0-.047,0-.07-.008l.011-.008a.083.083,0,0,0,.035-.039A.063.063,0,0,0,9.482,7.546Zm.067-.027a.225.225,0,0,1,.051.008c.048.011.1.024.158.032a.994.994,0,0,1-.035.13c-.016,0-.051.013-.059.027a.076.076,0,0,1-.043.044.682.682,0,0,0-.123-.1A.356.356,0,0,1,9.549,7.519Zm.083.252a.113.113,0,0,0,.04-.035h0L9.68,7.72s.019-.011.035-.016a.616.616,0,0,0-.043.107Zm.233-.228.019.019.008.008c0,.008,0,.011,0,.019s-.013.024-.027.044a.535.535,0,0,0-.131.446.111.111,0,0,1-.048,0c0-.083,0-.177,0-.249l0-.008h0a1.418,1.418,0,0,1,.091-.189.4.4,0,0,1,.078-.083h0Zm-.2-.249a.182.182,0,0,1,.182.185.149.149,0,0,1-.008.059.472.472,0,0,0-.083.088h0a.759.759,0,0,0,.016-.075h0V7.535a.128.128,0,0,0-.126-.1h0a.684.684,0,0,0-.126,0H9.49A.182.182,0,0,1,9.668,7.294Zm-.492.281-.013-.008-.04-.013L9.16,7.53A.491.491,0,0,1,9.214,7.5a.441.441,0,0,1,.131-.04.992.992,0,0,1,.1,0,.379.379,0,0,0,.072,0h.07a.028.028,0,0,0-.024.016L9.541,7.5v0a.129.129,0,0,0-.039.008c-.02.008-.032.027-.048.048a.134.134,0,0,1-.032.035.191.191,0,0,1-.161,0l-.048-.011A.1.1,0,0,0,9.175,7.575Zm-.43.69a.187.187,0,0,1-.2.011.026.026,0,0,1-.013-.031c.02-.052.02-.06-.019-.1A.321.321,0,0,0,8.5,8.118a.056.056,0,0,1-.016-.043.173.173,0,0,1,.063-.083s.059-.055.048-.2c0-.051,0-.067.008-.067s.016,0,.032.008.031.02.047.016a.043.043,0,0,0,.04-.043.025.025,0,0,1,.008-.019.182.182,0,0,1,.063-.02.2.2,0,0,0,.036-.011s.008-.008.016-.019a.113.113,0,0,1,.067-.064c.043-.016.07,0,.126.016a.452.452,0,0,0,.059.024.209.209,0,0,0,.169,0,.331.331,0,0,0,.091.016c.011,0,.019,0,.032,0h0l.1.011,0,.011-.019-.007a.573.573,0,0,0-.161.035c-.111.019-.193.13-.276.256a.6.6,0,0,0-.139.238A1.482,1.482,0,0,0,8.746,8.265Zm.267-.019a.111.111,0,0,1,0-.048.433.433,0,0,1,.051-.107A.8.8,0,0,1,9.25,8.04.715.715,0,0,0,9.3,8.17a.941.941,0,0,1,.05.126.168.168,0,0,0,.064.086.334.334,0,0,1-.107.035.22.22,0,0,0-.059.016l-.182-.122c.013,0,.016-.013.016-.016C9.085,8.276,9.033,8.253,9.013,8.245Zm.233-.222a.778.778,0,0,0-.166.048.211.211,0,0,1,.064-.059c.035-.02.047-.028.07-.043s.024-.013.04-.02A.132.132,0,0,0,9.246,8.024Zm-.2.289.26.177.07.13-.161-.043-.233-.241c0-.008,0-.011,0-.015s.011-.013.035-.008Zm-.182.477-.024-.024a.087.087,0,0,0-.063-.043.059.059,0,0,0-.056.031c0,.016.008.032.024.048a.312.312,0,0,1,.035.04c.019.035.056.106.032.15a.053.053,0,0,1-.04.023.068.068,0,0,0-.043.032.116.116,0,0,0,.008.107c.008.024.016.047,0,.059a.058.058,0,0,1-.035,0,.048.048,0,0,0-.051.008c-.019.019-.008.055,0,.083,0,.011.011.031.008.035a.035.035,0,0,1-.016-.008.126.126,0,0,1-.055-.07V9.22a.083.083,0,0,0,0-.051.049.049,0,0,0-.019-.028.04.04,0,0,1-.013-.019.1.1,0,0,1,.016-.091A.075.075,0,0,1,8.6,9.01a.108.108,0,0,0,.035-.024.138.138,0,0,0,.024-.1.128.128,0,0,0-.04-.078.112.112,0,0,1-.031-.064.124.124,0,0,1,.051-.11c.035-.019.075-.008.13.013a.277.277,0,0,1,.075.031.4.4,0,0,0,.078.036.32.32,0,0,0,.067.015v.024A.167.167,0,0,0,9,8.809.172.172,0,0,1,8.859,8.79Zm.485.484c-.043,0-.067-.008-.075-.023A.042.042,0,0,1,9.278,9.2a.654.654,0,0,0,.067-.166l0,0,0,0a.332.332,0,0,1-.315-.217A.161.161,0,0,1,9,8.75a.058.058,0,0,1,0-.024.318.318,0,0,1,.134-.2l.067.067,0,0,.182.048h0l0,0,0-.008-.083-.146v0l-.051-.031a.119.119,0,0,1,.048-.013.367.367,0,0,0,.118-.04.762.762,0,0,0,.394.072.354.354,0,0,0,.094.209.935.935,0,0,1-.26.091.432.432,0,0,1-.094.011l-.008,0v0a.24.24,0,0,1-.016.15h0a.443.443,0,0,1-.126.193l0,.008c0,.043.091.083.2.13a.218.218,0,0,1,.035.016h0c.086-.023.122.044.153.1l.013.019,0,.011a.356.356,0,0,1-.056.008.192.192,0,0,1-.11-.031A.449.449,0,0,0,9.345,9.274Zm.695-.417v.007h0a.492.492,0,0,0-.292-.007l0,.007,0,.008a.247.247,0,0,0,.055.016c.04.013.064.016.056.064l0,0,0,0c.075,0,.115.016.131.035a.058.058,0,0,1,0,.024v.008h0c.075.016.1.035.1.075v0l.008,0c.056,0,.091.011.1.043a.455.455,0,0,0-.165-.027A.26.26,0,0,0,10,9.058c-.031-.036-.086-.067-.2-.02H9.795a.538.538,0,0,1-.111.016l.028-.086a.285.285,0,0,0-.04-.185,1.065,1.065,0,0,0,.252-.1A.375.375,0,0,0,10,8.758c.007.008.011.011.015.011l0,.008C10.031,8.8,10.059,8.821,10.039,8.857Zm-.616.283a.505.505,0,0,0,.123-.181.279.279,0,0,1,0,.114v0l-.008.011a.08.08,0,0,0-.023.059.018.018,0,0,0,.008.016c.008.008.015.008.027.008a.37.37,0,0,0,.067-.008.506.506,0,0,1,.059-.008.8.8,0,0,0,.11-.016A.324.324,0,0,1,9.9,9.125a.074.074,0,0,0,.032.015.4.4,0,0,0-.118.052.265.265,0,0,0-.206,0,.393.393,0,0,0-.043.035C9.5,9.2,9.431,9.168,9.423,9.14Zm.482-.027c-.008-.008-.04,0-.118.013a.961.961,0,0,1-.107.015.506.506,0,0,0-.059.008.178.178,0,0,1-.086.008V9.148A.056.056,0,0,1,9.554,9.1l.011-.02v0h0a.275.275,0,0,0-.011-.139.264.264,0,0,0,.016-.146.347.347,0,0,0,.086-.011.273.273,0,0,1,.04.181l-.028.1v.007l.008,0c.02,0,.119-.011.123-.016l.008,0c.083-.032.15-.028.185.015s.04.064.04.067a.03.03,0,0,1-.02.008A.2.2,0,0,1,9.905,9.113Zm-.094.265A.3.3,0,0,0,9.759,9.3l.02-.013a.037.037,0,0,1,.008.02.276.276,0,0,0,.039.059.03.03,0,0,0-.008.019Zm-.23-.016a.381.381,0,0,1-.122.024A.193.193,0,0,1,9.5,9.322.375.375,0,0,1,9.581,9.362Zm.982.181-.106.1H8.974l-.08-.091.335.024.008-.008L9.23,9.558,8.9,9.483l.375,0h.008l.07-.08.091-.027,0,.013,0,0,0,0H9.46A.557.557,0,0,0,9.6,9.373l.035.027a.16.16,0,0,0,.115.036h.019a.062.062,0,0,0,.028,0,.174.174,0,0,1-.013.028.268.268,0,0,0-.016.027v0c0,.02.059.024.126.024.091,0,.206-.011.206-.011a.059.059,0,0,0,.047-.051v0a.51.51,0,0,0,.111.008.49.49,0,0,0,.153-.019C10.466,9.472,10.54,9.523,10.563,9.542Zm.246-.674-.016.011,0,.008,0,0,.035.027-.016,0,0,.007,0,.008.019.008-.078-.008a.094.094,0,0,0,.008-.031.114.114,0,0,0,0-.048Zm-.359-.094a.918.918,0,0,0,.094.027l0,0a.186.186,0,0,1,.02.016.2.2,0,0,1-.059.016A.226.226,0,0,1,10.45,8.774Zm-.044.311a.052.052,0,0,0-.011-.024c-.019-.027-.048-.075-.035-.11a.064.064,0,0,1,.043-.04c.027-.008.056.016.083.04a.147.147,0,0,0,.078.043c.028,0,.048-.011.051-.027s0-.04-.027-.056a.452.452,0,0,0-.059-.024.146.146,0,0,1-.063-.035.132.132,0,0,0,.039,0h0a.161.161,0,0,0,.075-.02l0,0c0-.008,0-.013-.028-.032s-.059-.056-.059-.067a.068.068,0,0,1,.04-.067h.008c.008,0,.016.019.024.035s.011.028.019.035a.16.16,0,0,0,.043.013.117.117,0,0,1,.048.016.231.231,0,0,1,.07.146.113.113,0,0,1-.039.075.251.251,0,0,1-.185.067.1.1,0,0,1-.072-.035l-.008,0-.008.008a.181.181,0,0,0,.048.088.171.171,0,0,1,.048.13l0,.008h.008a.568.568,0,0,0,.07-.059c.048-.04.067-.051.075-.083s.048-.063.068-.063l.007,0a.066.066,0,0,1,.013.035c0,.013.008.02.016.024l0,0c0,.008,0,.011-.008.019l0,0a1.444,1.444,0,0,1-.222.2.3.3,0,0,1-.039-.04h-.008l0,.013s.072.083.118.078.067-.047.075-.059.04,0,.043.024-.015.048-.035.07-.04.032-.055.028a.537.537,0,0,1-.193-.083l-.013,0v.013a.272.272,0,0,0,.028.024.5.5,0,0,1-.336.051.049.049,0,0,0-.035-.04.127.127,0,0,0-.083,0,.032.032,0,0,1-.019-.015H10a.234.234,0,0,1-.043.008A.255.255,0,0,0,10,9.3l0-.008L9.988,9.3a.416.416,0,0,1-.083.134V9.44l.008,0c.063,0,.083-.008.083-.008h0a.112.112,0,0,1,.1-.028.04.04,0,0,1-.008.08.916.916,0,0,1-.311,0l.013-.019c.007-.013.011-.024.019-.04l.016-.008V9.413l0-.008c.024-.051.04-.107.013-.131H9.826v.013c.016.011.013.035,0,.067A.383.383,0,0,1,9.8,9.3a.085.085,0,0,0-.015-.028H9.779c-.013,0-.02.013-.032.016a.1.1,0,0,0-.1-.024l-.032-.011a.189.189,0,0,0-.035-.016c.016-.016.031-.027.035-.032a.279.279,0,0,1,.2,0h0a.476.476,0,0,1,.142-.059.3.3,0,0,0,.055.008c.013,0,.028,0,.032-.016a.634.634,0,0,1,.177.028l0,.016v.008c.078.055.091.059.094.059h0l.008,0,0-.008-.088-.059a.1.1,0,0,0-.118-.086c0-.051-.051-.067-.1-.08a.064.064,0,0,0-.008-.027c-.016-.024-.059-.035-.134-.04,0-.055-.032-.063-.067-.07a.312.312,0,0,1-.032-.013.451.451,0,0,1,.268.02c.013.027.044.04.088.043a.562.562,0,0,1,.149.123h0a.717.717,0,0,1,.064.078.164.164,0,0,1,.024.04l.008,0h0l0-.008a.415.415,0,0,1-.024-.035C10.394,9.113,10.41,9.1,10.405,9.085Zm-.462.323A.263.263,0,0,0,10,9.4l.011.008c-.008,0-.019.013-.019.016a.486.486,0,0,1-.063,0A.106.106,0,0,0,9.944,9.408Zm.477-.717a1.778,1.778,0,0,0-.142.339.621.621,0,0,0-.122-.1c.024,0,.048,0,.075,0s.024,0,.039,0l0-.008c0-.027-.011-.048-.043-.067A.709.709,0,0,1,10.421,8.691Zm-.284.11v0h0c.083.048.118.067.123.1h-.036c-.11.008-.165.008-.177-.044a.076.076,0,0,0-.024-.094l-.008-.008s0-.008-.011-.011a.45.45,0,0,1-.169-.292l-.008,0h0c-.1,0-.414,0-.466-.163a1.058,1.058,0,0,0-.055-.13c-.04-.088-.072-.158-.036-.23V7.925l-.008,0c-.027.016-.043.027-.055.035A.643.643,0,0,1,9.136,8a.45.45,0,0,0-.139.2.1.1,0,0,0,0,.06l0,0c.036.011.064.032.064.04H9.061a.092.092,0,0,1-.043,0c-.02,0-.043,0-.051.019a.1.1,0,0,0,0,.04c0,.008,0,.032,0,.032s0,0-.013,0l0,0a.135.135,0,0,1-.048-.19.613.613,0,0,1,.142-.249h0c.083-.122.161-.228.268-.248a.2.2,0,0,1,.024-.008.629.629,0,0,0,.107.142c0,.011.008.023.011.039.024.107.064.281.228.308,0,.011,0,.024,0,.035v0c.008.032.013.051.024.059h0a.058.058,0,0,0,.024,0c.086.016.19.032.221.185a1.037,1.037,0,0,0,.059.163h0a.863.863,0,0,0,.1.153A.2.2,0,0,0,10.137,8.8Zm.182-.363.008,0H10.4a.991.991,0,0,0,.11,0c.024,0,.075.051.122.1a.733.733,0,0,0,.111.1.2.2,0,0,1,.106.161c-.055.024-.075-.011-.106-.07l-.008-.008,0,0a.371.371,0,0,1-.118-.08.433.433,0,0,0-.153-.1H10.45a1.071,1.071,0,0,1-.34.055c-.032,0-.059,0-.083,0l0,0,0,0a.726.726,0,0,1-.05-.15.231.231,0,0,0-.234-.193.039.039,0,0,0-.023,0A.08.08,0,0,1,9.7,8.214a.388.388,0,0,0,.055-.051l0,0a.337.337,0,0,1-.008-.067A.568.568,0,0,0,9.9,8.032a.65.65,0,0,0,.169-.115,1.509,1.509,0,0,0,.222.3c.027.02.075-.035.126-.086a.448.448,0,0,1,.067-.064c.036-.023.161.04.264.088a.437.437,0,0,0,.04.019h0c.07,0,.11.08.126.131-.051.035-.072.011-.1-.016-.007-.008-.019-.016-.027-.024a.649.649,0,0,0-.249-.056.136.136,0,0,1-.039,0l-.008.008a.3.3,0,0,1-.126.169.107.107,0,0,0-.048.048Z" transform="translate(-4.76 -3.676)" fill="#231f20"/></g></g></g></svg>