<svg xmlns="http://www.w3.org/2000/svg" width="35.153" height="35.153" viewBox="0 0 35.153 35.153"><g transform="translate(0)"><g transform="translate(0 0)"><path d="M35.153,17.576a17.513,17.513,0,0,1-.506,4.2,1.062,1.062,0,0,0-.027.115c-.126.5-.276.987-.446,1.468-.016.048-.027.091-.048.138A17.574,17.574,0,1,1,7.875,2.932a17.523,17.523,0,0,1,19.406,0,17.665,17.665,0,0,1,5.256,5.432c.023.032.043.067.063.1.206.335.4.679.58,1.025.028.051.051.1.08.155.13.256.256.521.374.784.016.036.032.075.048.11.091.206.177.41.26.62.016.044.032.091.051.134.064.171.126.34.185.514q.026.065.044.13c.165.469.3.955.422,1.444.011.04.024.083.032.123a17.917,17.917,0,0,1,.386,2.256c0,.04.008.08.008.118C35.125,16.436,35.153,17,35.153,17.576Z" transform="translate(0 0)" fill="#feb613"/><path d="M3.12,6.678V26.649a17.538,17.538,0,0,1,0-19.971Z" transform="translate(0 0.913)" fill="#005540"/><path d="M9.993,2.579v29.29H7.5a17.645,17.645,0,0,1-4.755-4.659V7.238A17.612,17.612,0,0,1,7.5,2.579Z" transform="translate(0.375 0.353)" fill="#ff5a06"/><g transform="translate(12.136 2.932)"><path d="M33.693,17.223a17.513,17.513,0,0,1-.506,4.2,1.062,1.062,0,0,0-.027.115c-.126.5-.276.987-.446,1.468-.016.048-.027.091-.048.138a17.617,17.617,0,0,1-6.845,8.728H10.676V2.579H25.822a17.665,17.665,0,0,1,5.256,5.432c.023.032.043.067.063.1.206.335.4.679.58,1.025.028.051.051.1.08.155.13.256.256.521.374.784.016.036.032.075.048.11.091.206.177.41.26.62.016.044.032.091.051.134.064.171.126.34.185.514q.026.065.044.13c.165.469.3.955.422,1.444.011.04.024.083.032.123A17.917,17.917,0,0,1,33.6,15.4c0,.04.008.08.008.118C33.665,16.083,33.693,16.648,33.693,17.223Z" transform="translate(-10.676 -2.579)" fill="#8c1f28"/><g transform="translate(0.303 0.256)"><g transform="translate(0 24.138)"><path d="M11.287,27.835a.9.9,0,0,1,.016.1c0,.032-.016.343-.008.343a2.754,2.754,0,0,1,.762.11,1.7,1.7,0,0,0,1.271.142,1.4,1.4,0,0,0,.843-.993,3.48,3.48,0,0,0,.024-.738,4.3,4.3,0,0,1,.123-.924,6.207,6.207,0,0,0,.308-1.179,1.5,1.5,0,0,0-.016-.576c-.1.078-.158.276-.238.386a2.97,2.97,0,0,1-1.586,1.011,4.4,4.4,0,0,0-1.4.551,1.071,1.071,0,0,0-.347.474,1.2,1.2,0,0,0,.067.8A3.56,3.56,0,0,1,11.287,27.835Z" transform="translate(-10.935 -24.028)" fill="#feb613"/><path d="M14.668,24.106l-.035-.067-.056.047a.806.806,0,0,0-.158.249.841.841,0,0,1-.086.15,2.973,2.973,0,0,1-1.558.99c-.1.032-.209.059-.319.094a3.038,3.038,0,0,0-1.1.469,1.108,1.108,0,0,0-.367.5,1.218,1.218,0,0,0,.067.843c.02.051.043.107.067.158a2.16,2.16,0,0,1,.115.319.448.448,0,0,1,.011.1v.115c-.011.264-.011.272.048.28l.177.013a1.882,1.882,0,0,1,.564.09,2.436,2.436,0,0,0,.884.225,1.159,1.159,0,0,0,.433-.078,1.451,1.451,0,0,0,.88-1.038,2.121,2.121,0,0,0,.028-.521c0-.075,0-.153,0-.228a3.932,3.932,0,0,1,.118-.908c.032-.134.08-.272.126-.406a2.842,2.842,0,0,0,.186-.789c0-.032,0-.072.008-.115A1.051,1.051,0,0,0,14.668,24.106Zm-.525,2.7c0,.083,0,.161,0,.236a1.874,1.874,0,0,1-.024.493,1.338,1.338,0,0,1-.809.951,1.669,1.669,0,0,1-1.231-.142,2.011,2.011,0,0,0-.6-.1c-.04,0-.083,0-.123-.007,0-.044,0-.115,0-.163,0-.083,0-.114,0-.13,0-.036-.008-.072-.015-.111a2.067,2.067,0,0,0-.123-.339c-.024-.056-.043-.1-.064-.153a1.1,1.1,0,0,1-.067-.766.978.978,0,0,1,.327-.446,3.033,3.033,0,0,1,1.057-.45c.111-.031.222-.059.329-.094a3.067,3.067,0,0,0,1.613-1.03,1.535,1.535,0,0,0,.1-.173,1.041,1.041,0,0,1,.064-.123,1.516,1.516,0,0,1-.009.327.879.879,0,0,1-.008.118,2.71,2.71,0,0,1-.177.758c-.047.134-.094.276-.13.41A4.387,4.387,0,0,0,14.143,26.808Z" transform="translate(-10.942 -24.039)" fill="#000101"/></g><path d="M11.287,3.63a.813.813,0,0,0,.016-.1c0-.031-.016-.342-.008-.342a2.713,2.713,0,0,0,.762-.111,1.7,1.7,0,0,1,1.271-.142,1.4,1.4,0,0,1,.843.995,3.475,3.475,0,0,1,.024.738,4.264,4.264,0,0,0,.123.923,6.218,6.218,0,0,1,.308,1.18,1.52,1.52,0,0,1-.016.58,2.5,2.5,0,0,1-.238-.39,2.964,2.964,0,0,0-1.586-1.011,4.225,4.225,0,0,1-1.4-.552,1.044,1.044,0,0,1-.347-.473,1.2,1.2,0,0,1,.067-.8A3.617,3.617,0,0,0,11.287,3.63Z" transform="translate(-10.935 -2.797)" fill="#feb613"/><path d="M14.7,6.888c0-.044-.008-.083-.008-.115a2.871,2.871,0,0,0-.186-.789c-.047-.134-.094-.273-.126-.407a3.915,3.915,0,0,1-.118-.907c0-.075,0-.153,0-.228a2.118,2.118,0,0,0-.028-.521,1.451,1.451,0,0,0-.88-1.038,1.161,1.161,0,0,0-.433-.08,2.391,2.391,0,0,0-.884.225,1.883,1.883,0,0,1-.564.091l-.177.011c-.059.008-.059.02-.048.281V3.53a.432.432,0,0,1-.011.094,1.951,1.951,0,0,1-.115.319c-.024.052-.047.107-.067.158a1.22,1.22,0,0,0-.067.845,1.142,1.142,0,0,0,.367.5,3.161,3.161,0,0,0,1.1.469c.11.032.217.059.319.091A2.994,2.994,0,0,1,14.333,7a.769.769,0,0,1,.086.153.824.824,0,0,0,.158.244l.056.048.035-.067A1.052,1.052,0,0,0,14.7,6.888Zm-.11.339c-.024-.04-.044-.086-.064-.126a1.555,1.555,0,0,0-.1-.174A3.1,3.1,0,0,0,12.814,5.9c-.107-.035-.217-.063-.329-.094a2.969,2.969,0,0,1-1.057-.449.964.964,0,0,1-.327-.447,1.094,1.094,0,0,1,.067-.765c.02-.051.04-.1.064-.15a2.241,2.241,0,0,0,.123-.343h0c.007-.04.011-.075.015-.11,0-.016,0-.048,0-.131,0-.047,0-.118,0-.161.04,0,.083,0,.123-.008a1.874,1.874,0,0,0,.6-.1,1.663,1.663,0,0,1,1.231-.142,1.337,1.337,0,0,1,.809.95,1.878,1.878,0,0,1,.024.493c0,.08,0,.155,0,.233a4.313,4.313,0,0,0,.123.936c.035.138.083.28.13.418a2.637,2.637,0,0,1,.177.753.884.884,0,0,1,.008.119A1.54,1.54,0,0,1,14.59,7.227Z" transform="translate(-10.942 -2.804)" fill="#000101"/></g><g transform="translate(3.955 3.393)"><path d="M32.709,12.617c-.118-.489-.257-.974-.422-1.444q-.019-.065-.044-.13a.728.728,0,0,0-.153.224.563.563,0,0,1-.161-.35.8.8,0,0,1,.13-.388c-.019-.043-.035-.09-.051-.134-.083-.209-.169-.414-.26-.62-.016-.035-.032-.074-.048-.11a2.11,2.11,0,0,0-.808.513,1.1,1.1,0,0,1-.41-.469.635.635,0,0,1,.011-.583.564.564,0,0,1,.49-.316.806.806,0,0,1,.343.072c-.028-.052-.051-.1-.08-.155-.181-.347-.374-.69-.58-1.025-.019-.032-.04-.067-.063-.1a2.547,2.547,0,0,0-1.247,1.555,2.118,2.118,0,0,0,.741,1.956.889.889,0,0,0-.252.765l.024.1c.1.449.222.955.509.955.177,0,.209-.174.24-.327s.059-.316.2-.372a2.261,2.261,0,0,1,1.1.265c.182.07.351.134.493.177a2.123,2.123,0,0,0,.327.067C32.732,12.7,32.72,12.657,32.709,12.617Zm.426,2.5c0-.039,0-.078-.008-.118-.131.008-.265.013-.394.013-.391,0-.785.008-1.169.016-.138,0-.272,0-.406.008-.166,0-.335.007-.5.015a10.959,10.959,0,0,1-1.267-.008.889.889,0,0,1-.319-.07l.059-.024a.062.062,0,0,0,.036-.055l0-.013a.057.057,0,0,0-.035-.043,3.235,3.235,0,0,1-.225-.386,1.867,1.867,0,0,1-.123-.386c0-.008,0-.016,0-.032a.338.338,0,0,1-.019-.086c.016.008.031.011.047.019h0c.059.019.114.043.158.063.075.04.13.064.181.028s.048-.1.032-.217a3.822,3.822,0,0,0-.123-.489,2.6,2.6,0,0,1-.11-.477.137.137,0,0,1,.072,0c.067.007.193.027.228-.119,0-.031.3-2.86-.41-3.3.024-.024.048-.051.075-.08A2.065,2.065,0,0,0,29.6,7.84a.1.1,0,0,0-.055-.094c-.035-.016-.134-.059-.62.426-.185.185-.3.284-.5.086a4.729,4.729,0,0,0-.821-.627l-.016,0c-.139-.059-.418-.185-.572-.035a.47.47,0,0,0-.1.288.434.434,0,0,1-.094.276.12.12,0,0,1-.123.027.511.511,0,0,1-.288-.217,1.769,1.769,0,0,0-.824-.489.32.32,0,0,0-.313.051.646.646,0,0,0-.122.509.44.44,0,0,1-.013.189,1.024,1.024,0,0,1-.28-.142,1.72,1.72,0,0,0-.643-.288A4.437,4.437,0,0,0,23,7.872c-.048.051-.024.142.051.34.013.031.024.063.027.074a.219.219,0,0,1-.059.206.978.978,0,0,1-.264.2,1.043,1.043,0,0,0-.131.086.986.986,0,0,1-.6.122,1.734,1.734,0,0,0-.351.024,4.723,4.723,0,0,0-.469.118,2.945,2.945,0,0,1-.612.139c-.013,0-.032,0-.052.008a.413.413,0,0,1-.118.011h0c0-.011,0-.024,0-.039a.434.434,0,0,1,0-.127c0-.031,0-.059,0-.09a.618.618,0,0,0-.489-.635.957.957,0,0,0-.714.063c-.5.276-.418.92-.359,1.18a2.831,2.831,0,0,0,.73,1.22l.094.106a7.076,7.076,0,0,0,1.279,1.148.059.059,0,0,0,.094-.047l-.032-.442c.525.414.549.414.573.414.047,0,.07,0,.185-.469.174.214.6.75.784,1.019a5.934,5.934,0,0,1-1.924-.466c-.3-.15-.537-.26-.762-.351-.024-.011-.051-.019-.075-.031a.864.864,0,0,0-.765-.08.337.337,0,0,0-.186.308c.02.244.281.43.477.556a.7.7,0,0,0-.311.469c-.078.359-.259.912-.259.916a.053.053,0,0,0,.007.055.065.065,0,0,0,.051.024c.147-.008.754-.051,1.07-.1-.169.174-.3.324-.257.434.008.035.043.078.126.091a2.468,2.468,0,0,0,.959-.182.386.386,0,0,0,.221.257.376.376,0,0,0,.308-.032.568.568,0,0,0,.221-.19.168.168,0,0,1,.019.032c.024.051.056.115.1.182.106.173.339.454.513.39.07-.027.094-.1.115-.177a.3.3,0,0,1,.189-.233c.15-.051.244-.027.284.013a.083.083,0,0,1,.019.091,1.281,1.281,0,0,1-.441.567,1.566,1.566,0,0,1-.244.131c-.067.032-.139.064-.2.1a3.027,3.027,0,0,0-.431.315,7.6,7.6,0,0,0-1.1,1.177,4.013,4.013,0,0,0-.824,2.686,3.25,3.25,0,0,0,.067.439c-.537-.45-1.8-1.721-2.071-1.993a.909.909,0,0,0,.228-.228,1,1,0,0,0,.1-.884.684.684,0,0,0-.778-.383c.016-.631.147-5.2.222-6.21q.022-.367.047-.733c.028-.41.056-.832.091-1.25a6.467,6.467,0,0,1,.41-2.025.5.5,0,0,0,.032-.063c.094-.186.181-.372.142-.477a.1.1,0,0,0-.064-.064.2.2,0,0,0-.146.008,3.54,3.54,0,0,0-1.859,2.138,7.6,7.6,0,0,0-.3.947,36.673,36.673,0,0,0-.423,7.781.333.333,0,0,0-.094-.036.7.7,0,0,0-.853.367.989.989,0,0,0,.1.884,1.307,1.307,0,0,0,.915.484.229.229,0,0,0-.063.163.418.418,0,0,0,.048.236.3.3,0,0,0-.281.292.411.411,0,0,0,.142.371,1.223,1.223,0,0,0,.15.107.274.274,0,0,0-.11.359.546.546,0,0,0,.252.228.176.176,0,0,0-.064.043.2.2,0,0,0-.039.161.544.544,0,0,0,.339.447.049.049,0,0,0-.027.063.267.267,0,0,1-.064.252.291.291,0,0,1-.1-.047l-.024-.013a.522.522,0,0,0-.051-.027.6.6,0,0,0-.2-.083.32.32,0,0,0-.335.166.448.448,0,0,0,.083.457.455.455,0,0,0,.383.193H15.3c.047,0,.161,0,.193.028a.021.021,0,0,1,.008.016c0,.067-.072.15-.123.209l-.019.023c-.075.088-.153.171-.252.268a.06.06,0,0,0-.008.072l.035.067a3.733,3.733,0,0,1,.273.58c.043.126-.02.311-.178.544l-.019-.019-.15-.15a.3.3,0,0,0-.442.008.468.468,0,0,0-.1.233.635.635,0,0,0,.158.607.772.772,0,0,0,.308.158.658.658,0,0,1,.067.016c.031.008.078.016.114.027a.73.73,0,0,1-.086.094c-.027.028-.056.056-.078.083-.064.072-.123.142-.186.209a.055.055,0,0,0-.007.064c.027.067.283.126.7.161a.832.832,0,0,0,.474.62h.04a.842.842,0,0,0,.473-.62c.418-.035.675-.094.7-.161a.075.075,0,0,0-.008-.064c-.064-.067-.123-.138-.185-.209-.024-.027-.051-.055-.08-.083s-.063-.063-.09-.094c.043-.011.086-.019.118-.027l.063-.016A.765.765,0,0,0,17.325,24a.641.641,0,0,0,.158-.607.468.468,0,0,0-.1-.233.3.3,0,0,0-.213-.1.3.3,0,0,0-.23.094l-.15.15c-.008.008-.011.016-.019.019a.7.7,0,0,1-.182-.544,4.223,4.223,0,0,1,.276-.58l.035-.067a.068.068,0,0,0-.007-.072,3.538,3.538,0,0,1-.253-.268l-.019-.023c-.051-.059-.123-.142-.123-.209a.021.021,0,0,1,.008-.016c.032-.032.147-.028.193-.028h.032a.459.459,0,0,0,.391-.193.453.453,0,0,0,.078-.457.3.3,0,0,0-.248-.166.4.4,0,0,0,.055-.019c.056-.024.1-.044.126-.059a.59.59,0,0,1,.3.5,3.406,3.406,0,0,0,.311,1.327c.11.11.273-.024.379-.115a.659.659,0,0,1,.064-.051c.035.027.107.1.174.161.367.359,1.041,1.022,1.444,1.022a1.781,1.781,0,0,0,1.59-.872c.225.145.462.276.695.4a4.128,4.128,0,0,0,.835.323,5.149,5.149,0,0,0,.348.959,1.919,1.919,0,0,1,.134,1.909.852.852,0,0,1-.62.423,3.609,3.609,0,0,1-.458-.04,3.454,3.454,0,0,0-.4-.043,1.453,1.453,0,0,0-.88.28,1.2,1.2,0,0,0-.521.939.391.391,0,0,0,.059.206.245.245,0,0,0,.217.118,1.087,1.087,0,0,0,.477-.185l0,0c.035,0,.039.013.055.036.04.07.1.138.351.138a1.045,1.045,0,0,0,.773-.241h0a.241.241,0,0,1,.052.044.252.252,0,0,0,.1.082.747.747,0,0,0,.311.032.771.771,0,0,1,.086,0c.04,0,.088,0,.139.008a.908.908,0,0,0,.584-.091.708.708,0,0,0,.425.122l.118.013A1.05,1.05,0,0,0,25,27.929a.762.762,0,0,0,.292-.5,1.342,1.342,0,0,0-.2-.931.09.09,0,0,1-.024-.07c.013-.04.107-.08.163-.1l.059-.023c.591-.233,1.325-.525,1.527-1.2a.228.228,0,0,0-.024-.2.235.235,0,0,0-.174-.082,1.382,1.382,0,0,0-.146,0c-.4,0-.765-.032-.765-.335a1.321,1.321,0,0,1,.166-.544c.011-.027.023-.056.032-.083.055-.118.118-.236.176-.355s.139-.26.2-.4c.02-.043.048-.1.086-.169.075-.032.155-.06.233-.091.6-.238,1.18-.509,1.744-.77.2-.094.4-.185.6-.276a7.542,7.542,0,0,1,2.8-.675,1.923,1.923,0,0,0,.149,1.074,2.839,2.839,0,0,0,.3.543c.02-.047.032-.09.048-.138.169-.481.319-.971.446-1.468a1.062,1.062,0,0,1,.027-.115,17.513,17.513,0,0,0,.506-4.2C33.218,16.24,33.189,15.675,33.135,15.115Zm-16.72,5.547h.106a.2.2,0,0,0,.126-.039.044.044,0,0,0,.036.019.276.276,0,0,1,.023.016.406.406,0,0,0,.142.047.666.666,0,0,0-.185.08c-.019.008-.035.019-.055.027l-.02.013a.274.274,0,0,1-.106.047A.29.29,0,0,1,16.415,20.662Z" transform="translate(-14.155 -5.564)" fill="#feb613"/><path d="M32.243,11.044a.728.728,0,0,0-.153.224.563.563,0,0,1-.161-.35.8.8,0,0,1,.13-.388c-.019-.043-.035-.09-.051-.134a.911.911,0,0,0-.2.522c0,.213.185.484.3.484a.076.076,0,0,0,.083-.067.572.572,0,0,1,.1-.161Q32.268,11.109,32.243,11.044Zm-1.353-.865a1.1,1.1,0,0,1-.41-.469.635.635,0,0,1,.011-.583.564.564,0,0,1,.49-.316.806.806,0,0,1,.343.072c-.028-.052-.051-.1-.08-.155a.888.888,0,0,0-.268-.035.672.672,0,0,0-.588.379.948.948,0,0,0,.363,1.161c.1.075.163.09.2.051l0,0a1.976,1.976,0,0,1,.789-.5c-.016-.035-.032-.074-.048-.11A2.11,2.11,0,0,0,30.89,10.179Zm1.819,2.438a1.735,1.735,0,0,1-.265-.055c-.134-.043-.3-.107-.481-.177a2.147,2.147,0,0,0-1.183-.26c-.206.075-.246.283-.281.454s-.051.232-.122.232c-.2,0-.316-.516-.4-.864l-.019-.094a.811.811,0,0,1,.264-.695.05.05,0,0,0,.016-.047.052.052,0,0,0-.019-.044,2.061,2.061,0,0,1-.75-1.881,2.432,2.432,0,0,1,1.2-1.483c-.019-.032-.04-.067-.063-.1a2.547,2.547,0,0,0-1.247,1.555,2.118,2.118,0,0,0,.741,1.956.889.889,0,0,0-.252.765l.024.1c.1.449.222.955.509.955.177,0,.209-.174.24-.327s.059-.316.2-.372a2.261,2.261,0,0,1,1.1.265c.182.07.351.134.493.177a2.123,2.123,0,0,0,.327.067C32.732,12.7,32.72,12.657,32.709,12.617Zm-2.044,2.55c.161-.008.332-.016.493-.016.134,0,.273-.008.406-.008.383-.008.778-.016,1.169-.016.134,0,.272,0,.4-.013,0-.039,0-.078-.008-.118-.131.008-.265.013-.394.013-.391,0-.785.008-1.169.016-.138,0-.272,0-.406.008-.166,0-.335.007-.5.015a10.959,10.959,0,0,1-1.267-.008.889.889,0,0,1-.319-.07l.059-.024a.062.062,0,0,0,.036-.055l0-.013a.057.057,0,0,0-.035-.043,3.235,3.235,0,0,1-.225-.386,1.867,1.867,0,0,1-.123-.386c0-.008,0-.016,0-.032a.338.338,0,0,1-.019-.086c.016.008.031.011.047.019h0c.059.019.114.043.158.063.075.04.13.064.181.028s.048-.1.032-.217a3.822,3.822,0,0,0-.123-.489,2.6,2.6,0,0,1-.11-.477.137.137,0,0,1,.072,0c.067.007.193.027.228-.119,0-.031.3-2.86-.41-3.3.024-.024.048-.051.075-.08A2.065,2.065,0,0,0,29.6,7.84a.1.1,0,0,0-.055-.094c-.035-.016-.134-.059-.62.426-.185.185-.3.284-.5.086a4.729,4.729,0,0,0-.821-.627l-.016,0c-.139-.059-.418-.185-.572-.035a.47.47,0,0,0-.1.288.434.434,0,0,1-.094.276.12.12,0,0,1-.123.027.511.511,0,0,1-.288-.217,1.769,1.769,0,0,0-.824-.489.32.32,0,0,0-.313.051.646.646,0,0,0-.122.509.44.44,0,0,1-.013.189,1.024,1.024,0,0,1-.28-.142,1.72,1.72,0,0,0-.643-.288A4.437,4.437,0,0,0,23,7.872c-.048.051-.024.142.051.34.013.031.024.063.027.074a.219.219,0,0,1-.059.206.978.978,0,0,1-.264.2,1.043,1.043,0,0,0-.131.086.986.986,0,0,1-.6.122,1.734,1.734,0,0,0-.351.024,4.723,4.723,0,0,0-.469.118,2.945,2.945,0,0,1-.612.139c-.013,0-.032,0-.052.008a.413.413,0,0,1-.118.011h0c0-.011,0-.024,0-.039a.434.434,0,0,1,0-.127c0-.031,0-.059,0-.09a.618.618,0,0,0-.489-.635.957.957,0,0,0-.714.063c-.5.276-.418.92-.359,1.18a2.831,2.831,0,0,0,.73,1.22l.094.106a7.076,7.076,0,0,0,1.279,1.148.059.059,0,0,0,.094-.047l-.032-.442c.525.414.549.414.573.414.047,0,.07,0,.185-.469.174.214.6.75.784,1.019a5.934,5.934,0,0,1-1.924-.466c-.3-.15-.537-.26-.762-.351-.024-.011-.051-.019-.075-.031a.864.864,0,0,0-.765-.08.337.337,0,0,0-.186.308c.02.244.281.43.477.556a.7.7,0,0,0-.311.469c-.078.359-.259.912-.259.916a.053.053,0,0,0,.007.055.065.065,0,0,0,.051.024c.147-.008.754-.051,1.07-.1-.169.174-.3.324-.257.434.008.035.043.078.126.091a2.468,2.468,0,0,0,.959-.182.386.386,0,0,0,.221.257.376.376,0,0,0,.308-.032.568.568,0,0,0,.221-.19.168.168,0,0,1,.019.032c.024.051.056.115.1.182.106.173.339.454.513.39.07-.027.094-.1.115-.177a.3.3,0,0,1,.189-.233c.15-.051.244-.027.284.013a.083.083,0,0,1,.019.091,1.281,1.281,0,0,1-.441.567,1.566,1.566,0,0,1-.244.131c-.067.032-.139.064-.2.1a3.027,3.027,0,0,0-.431.315,7.6,7.6,0,0,0-1.1,1.177,4.013,4.013,0,0,0-.824,2.686,3.25,3.25,0,0,0,.067.439c-.537-.45-1.8-1.721-2.071-1.993a.909.909,0,0,0,.228-.228,1,1,0,0,0,.1-.884.684.684,0,0,0-.778-.383c.016-.631.147-5.2.222-6.21q.022-.367.047-.733c.028-.41.056-.832.091-1.25a6.467,6.467,0,0,1,.41-2.025.5.5,0,0,0,.032-.063c.094-.186.181-.372.142-.477a.1.1,0,0,0-.064-.064.2.2,0,0,0-.146.008,3.54,3.54,0,0,0-1.859,2.138,7.6,7.6,0,0,0-.3.947,36.673,36.673,0,0,0-.423,7.781.333.333,0,0,0-.094-.036.7.7,0,0,0-.853.367.989.989,0,0,0,.1.884,1.307,1.307,0,0,0,.915.484.229.229,0,0,0-.063.163.418.418,0,0,0,.048.236.3.3,0,0,0-.281.292.411.411,0,0,0,.142.371,1.223,1.223,0,0,0,.15.107.274.274,0,0,0-.11.359.546.546,0,0,0,.252.228.176.176,0,0,0-.064.043.2.2,0,0,0-.039.161.544.544,0,0,0,.339.447.049.049,0,0,0-.027.063.267.267,0,0,1-.064.252.291.291,0,0,1-.1-.047l-.024-.013a.522.522,0,0,0-.051-.027.6.6,0,0,0-.2-.083.32.32,0,0,0-.335.166.448.448,0,0,0,.083.457.455.455,0,0,0,.383.193H15.3c.047,0,.161,0,.193.028a.021.021,0,0,1,.008.016c0,.067-.072.15-.123.209l-.019.023c-.075.088-.153.171-.252.268a.06.06,0,0,0-.008.072l.035.067a3.733,3.733,0,0,1,.273.58c.043.126-.02.311-.178.544l-.019-.019-.15-.15a.3.3,0,0,0-.442.008.468.468,0,0,0-.1.233.635.635,0,0,0,.158.607.772.772,0,0,0,.308.158.658.658,0,0,1,.067.016c.031.008.078.016.114.027a.73.73,0,0,1-.086.094c-.027.028-.056.056-.078.083-.064.072-.123.142-.186.209a.055.055,0,0,0-.007.064c.027.067.283.126.7.161a.832.832,0,0,0,.474.62h.04a.842.842,0,0,0,.473-.62c.418-.035.675-.094.7-.161a.075.075,0,0,0-.008-.064c-.064-.067-.123-.138-.185-.209-.024-.027-.051-.055-.08-.083s-.063-.063-.09-.094c.043-.011.086-.019.118-.027l.063-.016A.765.765,0,0,0,17.325,24a.641.641,0,0,0,.158-.607.468.468,0,0,0-.1-.233.3.3,0,0,0-.213-.1.3.3,0,0,0-.23.094l-.15.15c-.008.008-.011.016-.019.019a.7.7,0,0,1-.182-.544,4.223,4.223,0,0,1,.276-.58l.035-.067a.068.068,0,0,0-.007-.072,3.538,3.538,0,0,1-.253-.268l-.019-.023c-.051-.059-.123-.142-.123-.209a.021.021,0,0,1,.008-.016c.032-.032.147-.028.193-.028h.032a.459.459,0,0,0,.391-.193.453.453,0,0,0,.078-.457.3.3,0,0,0-.248-.166.4.4,0,0,0,.055-.019c.056-.024.1-.044.126-.059a.59.59,0,0,1,.3.5,3.406,3.406,0,0,0,.311,1.327c.11.11.273-.024.379-.115a.659.659,0,0,1,.064-.051c.035.027.107.1.174.161.367.359,1.041,1.022,1.444,1.022a1.781,1.781,0,0,0,1.59-.872c.225.145.462.276.695.4a4.128,4.128,0,0,0,.835.323,5.149,5.149,0,0,0,.348.959,1.919,1.919,0,0,1,.134,1.909.852.852,0,0,1-.62.423,3.609,3.609,0,0,1-.458-.04,3.454,3.454,0,0,0-.4-.043,1.453,1.453,0,0,0-.88.28,1.2,1.2,0,0,0-.521.939.391.391,0,0,0,.059.206.245.245,0,0,0,.217.118,1.087,1.087,0,0,0,.477-.185l0,0c.035,0,.039.013.055.036.04.07.1.138.351.138a1.045,1.045,0,0,0,.773-.241h0a.241.241,0,0,1,.052.044.252.252,0,0,0,.1.082.747.747,0,0,0,.311.032.771.771,0,0,1,.086,0c.04,0,.088,0,.139.008a.908.908,0,0,0,.584-.091.708.708,0,0,0,.425.122l.118.013A1.05,1.05,0,0,0,25,27.929a.762.762,0,0,0,.292-.5,1.342,1.342,0,0,0-.2-.931.09.09,0,0,1-.024-.07c.013-.04.107-.08.163-.1l.059-.023c.591-.233,1.325-.525,1.527-1.2a.228.228,0,0,0-.024-.2.235.235,0,0,0-.174-.082,1.382,1.382,0,0,0-.146,0c-.4,0-.765-.032-.765-.335a1.321,1.321,0,0,1,.166-.544c.011-.027.023-.056.032-.083.055-.118.118-.236.176-.355s.139-.26.2-.4c.02-.043.048-.1.086-.169.075-.032.155-.06.233-.091.6-.238,1.18-.509,1.744-.77.2-.094.4-.185.6-.276a7.542,7.542,0,0,1,2.8-.675,1.923,1.923,0,0,0,.149,1.074,2.839,2.839,0,0,0,.3.543c.02-.047.032-.09.048-.138a3.048,3.048,0,0,1-.241-.45,1.814,1.814,0,0,1-.134-1.033c.048,0,.1,0,.147,0l.043,0a4.956,4.956,0,0,1,.631.024,1.062,1.062,0,0,1,.027-.115,4.16,4.16,0,0,0-.658-.024h-.048a7.8,7.8,0,0,0-3.112.695c-.2.091-.4.182-.6.276-.565.26-1.148.533-1.74.766-.035.015-.072.031-.107.043.016-.032.035-.064.051-.1a6.177,6.177,0,0,0,.947-2.855c0-.1,0-.19-.011-.284a.055.055,0,0,0-.064-.051.059.059,0,0,0-.055.055l0,.008c.008.091.013.182.013.273a6.074,6.074,0,0,1-.936,2.8c-.048.086-.091.161-.13.233s-.075.149-.1.2c-.055.134-.126.264-.193.394s-.126.236-.181.359c-.013.027-.02.051-.032.078a1.437,1.437,0,0,0-.174.6c0,.446.549.45.88.454a1.358,1.358,0,0,1,.142,0,.111.111,0,0,1,.083.035.109.109,0,0,1,.008.094c-.185.612-.892.9-1.46,1.121l-.056.024c-.094.035-.209.083-.236.177a.2.2,0,0,0,.04.169,1.239,1.239,0,0,1,.181.845.649.649,0,0,1-.244.426.961.961,0,0,1-.639.07c-.04,0-.083-.011-.123-.011-.327-.028-.359-.1-.359-.1a.061.061,0,0,0-.031-.064.059.059,0,0,0-.075.02s-.013.016-.028.032c-.1.1-.343.086-.521.075-.051,0-.1-.008-.138-.008s-.064,0-.1,0a.708.708,0,0,1-.264-.019.244.244,0,0,1-.064-.056.194.194,0,0,0-.134-.083.116.116,0,0,0-.083.035.94.94,0,0,1-.69.206c-.2,0-.228-.043-.252-.078a.168.168,0,0,0-.169-.1.051.051,0,0,0-.032.013l-.016.011c-.217.131-.45.244-.537.107a.379.379,0,0,1-.043-.155,1.08,1.08,0,0,1,.477-.835,1.293,1.293,0,0,1,.8-.257c.126,0,.26.024.39.04a3.1,3.1,0,0,0,.474.043.959.959,0,0,0,.718-.477,2.042,2.042,0,0,0-.126-2.025,4.954,4.954,0,0,1-.351-.97,6.145,6.145,0,0,1-.182-1.52,5.86,5.86,0,0,1,.094-1.089l0-.011a.064.064,0,0,0-.048-.059.058.058,0,0,0-.07.043,5.94,5.94,0,0,0-.1,1.116,6.311,6.311,0,0,0,.166,1.453,3.76,3.76,0,0,1-.75-.3,4.8,4.8,0,0,1-1.266-.853,4.526,4.526,0,0,1-1.3-2.6,3.894,3.894,0,0,1,.8-2.608,7.094,7.094,0,0,1,1.084-1.159,2.887,2.887,0,0,1,.418-.3,1.658,1.658,0,0,1,.185-.094,1.348,1.348,0,0,0,.265-.142,1.377,1.377,0,0,0,.485-.624.2.2,0,0,0-.048-.213.387.387,0,0,0-.4-.04.4.4,0,0,0-.265.311c-.015.048-.027.091-.047.1-.059.024-.233-.118-.367-.343a1.855,1.855,0,0,1-.094-.169c-.048-.1-.075-.15-.134-.146s-.067.059-.075.078a.374.374,0,0,1-.185.169.275.275,0,0,1-.214.028.3.3,0,0,1-.158-.2c-.015-.043-.027-.075-.067-.083a.063.063,0,0,0-.051.013,2.5,2.5,0,0,1-.931.185.181.181,0,0,1-.032-.008c-.011-.032.032-.115.281-.364.086-.09.114-.118.083-.165a.065.065,0,0,0-.088-.016,9.546,9.546,0,0,1-1.124.122c.056-.169.177-.567.241-.843a.528.528,0,0,1,.335-.431v0h.008a2.935,2.935,0,0,1,.651.2,7.406,7.406,0,0,0,1.187.209c.225.027.434.055.49.07l-.016.013c-.02.019-.139.181-.1.284a.128.128,0,0,0,.126.075c.052,0,.186.011.336.031.6.064.824.08.887.016.08-.083,0-.268-.2-.651-.035-.067-.067-.126-.091-.177-.115-.228-.92-1.215-.95-1.254a.052.052,0,0,0-.059-.02.064.064,0,0,0-.048.04c-.04.182-.091.383-.123.473-.1-.075-.351-.268-.575-.446a.053.053,0,0,0-.064,0,.06.06,0,0,0-.032.055l.032.447A6.776,6.776,0,0,1,19.779,10.8c-.032-.039-.063-.07-.094-.11a2.653,2.653,0,0,1-.706-1.167c-.056-.233-.134-.809.3-1.049a.84.84,0,0,1,.623-.052.581.581,0,0,1,.355.265.532.532,0,0,1,.051.257.713.713,0,0,1,0,.083.63.63,0,0,0,0,.153.085.085,0,0,1,0,.027c0,.051.02.072.064.094a.341.341,0,0,0,.193,0,.176.176,0,0,1,.043-.008,3.368,3.368,0,0,0,.635-.142,3.362,3.362,0,0,1,.454-.118,1.888,1.888,0,0,1,.335-.019A1.082,1.082,0,0,0,22.7,8.87c.035-.024.078-.051.126-.078a1.26,1.26,0,0,0,.292-.225.346.346,0,0,0,.083-.308c0-.016-.016-.043-.032-.091a.958.958,0,0,1-.067-.209,5.886,5.886,0,0,1,1.113-.043,1.694,1.694,0,0,1,.6.268c.2.126.339.209.418.131.059-.059.055-.163.051-.284a.541.541,0,0,1,.086-.418.2.2,0,0,1,.158-.027,1.848,1.848,0,0,1,.785.422.612.612,0,0,0,.371.292.233.233,0,0,0,.233-.059.528.528,0,0,0,.126-.348.378.378,0,0,1,.063-.213c.1-.1.34.008.442.056l.013,0a4.333,4.333,0,0,1,.789.6.367.367,0,0,0,.374.131A.853.853,0,0,0,29,8.255a2.332,2.332,0,0,1,.473-.394,1.962,1.962,0,0,1-.647,1.432,1.389,1.389,0,0,0-.134.146.048.048,0,0,0-.008.051.065.065,0,0,0,.035.04c.664.225.466,2.927.41,3.2-.008.035-.016.043-.1.032a.147.147,0,0,0-.044,0,.811.811,0,0,1-.193-.169c-.086-.091-.181-.2-.252-.28-.091-.1-.177-.2-.236-.265a1.122,1.122,0,0,1-.244-.529c-.024-.086-.048-.174-.08-.268-.083-.241-.217-.4-.3-.414a.072.072,0,0,0-.075.023.147.147,0,0,0,0,.147,3,3,0,0,1-.013.9c-.1-.086-.319-.292-.516-.481A.059.059,0,1,0,27,11.5c.564.549.6.549.627.549a.068.068,0,0,0,.051-.028,2.9,2.9,0,0,0,.056-1.009.957.957,0,0,1,.138.268c.027.091.051.174.08.26a1.182,1.182,0,0,0,.272.58c.059.059.142.158.233.257a4.281,4.281,0,0,0,.4.422.081.081,0,0,0-.015.027,1.267,1.267,0,0,0,.1.557,3.319,3.319,0,0,1,.118.469.525.525,0,0,1,.008.094.388.388,0,0,0-.056-.024,1.061,1.061,0,0,0-.169-.07l-.019-.013c-.016,0-.032-.011-.048-.016a4.656,4.656,0,0,1-.785-.65c-.35-.335-.449-.418-.524-.4a.081.081,0,0,0-.051.056c-.024.078-.139.166-.209.217-.375-.375-.4-.351-.447-.324s-.031.064,0,.11a.219.219,0,0,1-.019.139,1,1,0,0,1-.265.363c-.107-.115-.521-.56-.525-.568a.059.059,0,0,0-.082,0,.057.057,0,0,0,0,.083c.019.024.493.54.549.591.023.024.067.04.138-.011a1.024,1.024,0,0,0,.332-.529c.075.067.185.169.276.264a.053.053,0,0,0,.07.008.8.8,0,0,0,.284-.264,3.468,3.468,0,0,1,.4.355,6.01,6.01,0,0,0,.726.62.567.567,0,0,0,.027.177.211.211,0,0,0,0,.028,1.825,1.825,0,0,0,.13.409c.013.02.068.131.126.233a1.37,1.37,0,0,0,.083.142c-.019.008-.043.02-.067.032a3.632,3.632,0,0,1-.477-.04c-.2-.027-.529-.39-.746-.631s-.288-.311-.35-.3a.065.065,0,0,0-.056.051.669.669,0,0,0-.027.134c-.02.118-.052.288-.123.339a.08.08,0,0,1-.067.008,1.87,1.87,0,0,1-.477-.394c-.252-.256-.406-.41-.5-.316l-.028.024a1.112,1.112,0,0,1-.165.147v-.016c0-.209-.482-.655-.612-.655a.08.08,0,0,0-.083.083,1.508,1.508,0,0,1-.265.5,6.026,6.026,0,0,1-.615-.8.059.059,0,0,0-.083-.016.057.057,0,0,0-.013.08c.261.386.6.851.715.864a.087.087,0,0,0,.059-.024,1.7,1.7,0,0,0,.311-.56c.134.067.466.4.466.525a.131.131,0,0,0,.067.134c.082.032.177-.056.3-.182l.016-.011a1.965,1.965,0,0,1,.343.3,1.645,1.645,0,0,0,.537.43.2.2,0,0,0,.158-.027c.11-.075.142-.265.169-.415l.013-.063c.051.047.142.149.221.232.257.284.576.635.816.667a4.028,4.028,0,0,0,.474.043h.016a.617.617,0,0,0,.217.1c.2.174.359.292.465.375l.134.1a.458.458,0,0,1-.075.016c-.051.011-.122.024-.2.043a1.749,1.749,0,0,1-.473.027.6.6,0,0,0-.45.088.472.472,0,0,0-.11.355,3.735,3.735,0,0,0,.032.446,1.437,1.437,0,0,1,.008.206.784.784,0,0,1-.147-.072,3.1,3.1,0,0,1-.343-.241c-.244-.185-.457-.35-.612-.311a.194.194,0,0,0-.122.11c-.134.3-.537.785-.627.762,0,0-.016-.016-.016-.094a1.84,1.84,0,0,0-.77-1.263.135.135,0,0,0-.161.08,2.867,2.867,0,0,1-.462.647c-.048-.185-.264-.584-.4-.6-.024,0-.094,0-.115.107a2.409,2.409,0,0,1-.367.658c-.142-.859-.177-.859-.236-.856s-.063.078-.063.142c0,.3-.525.778-.718.9,0-.8-.107-.84-.142-.856a.09.09,0,0,0-.1.027,1.393,1.393,0,0,1-.659.222c.027-.123.177-.56.324-.955a.062.062,0,0,0-.036-.075.061.061,0,0,0-.078.035c-.051.15-.331.912-.331,1.019a.087.087,0,0,0,.059.078,1.281,1.281,0,0,0,.784-.225,3.072,3.072,0,0,1,.067.8.059.059,0,0,0,.02.051.064.064,0,0,0,.047.016,1.994,1.994,0,0,0,.848-.872c.036.185.083.45.123.7a.06.06,0,0,0,.044.047.056.056,0,0,0,.063-.019,3.022,3.022,0,0,0,.469-.817v-.008a1.218,1.218,0,0,1,.292.537.083.083,0,0,0,.059.083c.146.032.544-.575.62-.746.008-.016.011-.016.027-.011A1.751,1.751,0,0,1,26.5,16.93c0,.123.036.193.107.209h.024c.228,0,.651-.643.734-.829a.061.061,0,0,1,.043-.043c.1-.024.319.142.513.292a4.155,4.155,0,0,0,.355.248c.126.072.209.107.273.067s.059-.142.04-.315a3.828,3.828,0,0,1-.028-.434.376.376,0,0,1,.072-.268c.07-.067.2-.064.366-.056a1.886,1.886,0,0,0,.506-.031c.078-.02.146-.032.2-.044.118-.023.182-.035.193-.09s-.035-.107-.2-.233c-.075-.059-.182-.139-.311-.244h0A11.768,11.768,0,0,0,30.665,15.167ZM15.7,8.7a7.343,7.343,0,0,1,.292-.931,3.421,3.421,0,0,1,1.791-2.071c.011,0,.043-.016.056-.011.015.024,0,.11-.134.379l-.036.07a6.53,6.53,0,0,0-.422,2.06c-.035.418-.064.845-.091,1.255-.016.244-.027.489-.047.733-.076,1.03-.21,5.748-.222,6.246a.463.463,0,0,0-.3.339.434.434,0,0,0,.075.423l0,.011a.069.069,0,0,1-.024.067c-.11.126-.5.161-.639.166a1.2,1.2,0,0,1-.639-.166.088.088,0,0,1-.027-.067l.008-.011a.437.437,0,0,0,.074-.423.535.535,0,0,0-.13-.233A36.837,36.837,0,0,1,15.7,8.7Zm-1.29,8.9a.872.872,0,0,1-.086-.774.577.577,0,0,1,.718-.3.348.348,0,0,1,.26.268.329.329,0,0,1-.043.308.127.127,0,0,0-.04.091.2.2,0,0,0,.056.149c.165.182.666.2.725.206s.56-.024.726-.206a.2.2,0,0,0,.055-.149.148.148,0,0,0-.039-.091.325.325,0,0,1-.048-.308.361.361,0,0,1,.265-.268.567.567,0,0,1,.714.3.855.855,0,0,1-.083.774c-.241.347-.778.5-1.594.473-.1,0-.193,0-.284,0-.024,0-.051,0-.083,0A1.493,1.493,0,0,1,14.41,17.6Zm2.245,1.088a.243.243,0,0,1,.028.052v0l-.02.067a1.147,1.147,0,0,1-.114.048.364.364,0,0,0-.056.019.841.841,0,0,1-.347-.051c-.15-.056-.316-.11-.477-.158-.131-.048-.233-.094-.276-.115-.083-.047-.107-.067-.107-.24a.11.11,0,0,1,.032-.083.165.165,0,0,1,.114-.035h.016c.064,0,.123,0,.177,0a.565.565,0,0,1,.088,0A1.056,1.056,0,0,1,16.655,18.685Zm-1.5.434a.3.3,0,0,1-.1-.28c0-.155.155-.174.2-.177.114.031.248.075.394.122s.315.11.469.15a2.831,2.831,0,0,1,.43.19c.043.031.094.075.086.126s-.086.13-.189.166a.582.582,0,0,1-.206.007l-.023,0c-.131-.011-.26-.032-.372-.051-.074-.016-.15-.032-.225-.043-.051-.013-.1-.024-.153-.032A.782.782,0,0,1,15.152,19.119Zm.064.5c-.052-.094.04-.174.074-.2.292.035,1.022.142,1.026.142a.692.692,0,0,1,.386.244c.019.031.04.075.024.106s-.134.072-.273.072a6.525,6.525,0,0,1-.792-.11l-.072-.013A.537.537,0,0,1,15.216,19.621Zm1.589-.888a.188.188,0,0,1,.028-.07,1.755,1.755,0,0,1,.441-.3c.032.008.075.016.083.032s.008.027-.027.1a1.217,1.217,0,0,1-.241.3l-.027.027c-.091.091-.193.194-.308.171a.014.014,0,0,1-.011,0s0-.011,0-.039l.019-.067a.262.262,0,0,0,.04-.06A.159.159,0,0,0,16.8,18.733Zm.024,1.231a.2.2,0,0,0-.027-.221l-.024-.036a.233.233,0,0,0,.032.013.085.085,0,0,0,.031,0,.338.338,0,0,0,.174-.083,1.549,1.549,0,0,0,.257-.24.356.356,0,0,1-.032.438c-.078.075-.134.142-.182.2-.1.123-.142.166-.213.155a.274.274,0,0,1-.158-.123A.238.238,0,0,0,16.829,19.964Zm-1.448.131a.081.081,0,0,1,.013-.067A.087.087,0,0,1,15.455,20a3.7,3.7,0,0,1,.679.091,2.729,2.729,0,0,1,.273.074.337.337,0,0,1,.177.178.18.18,0,0,1,.013.165c0,.008-.02.036-.08.036h-.008a1.109,1.109,0,0,0-.126,0C15.984,20.54,15.444,20.536,15.38,20.095Zm1.266.529a.044.044,0,0,0,.036.019.276.276,0,0,1,.023.016.406.406,0,0,0,.142.047.666.666,0,0,0-.185.08c-.019.008-.035.019-.055.027l-.02.013a.274.274,0,0,1-.106.047.29.29,0,0,1-.067-.209h.106A.2.2,0,0,0,16.647,20.623Zm.447.291a.354.354,0,0,1-.067.34.349.349,0,0,1-.3.15H16.7a.382.382,0,0,0-.28.059.128.128,0,0,0-.04.1.487.487,0,0,0,.146.284l.02.023a2.651,2.651,0,0,0,.228.246l-.016.031a4.089,4.089,0,0,0-.284.6.8.8,0,0,0,.2.651.127.127,0,0,0,.086.063.109.109,0,0,0,.091-.051c.008,0,.011-.011.02-.019l.149-.15a.183.183,0,0,1,.142-.059.166.166,0,0,1,.126.063.293.293,0,0,1,.075.174.509.509,0,0,1-.118.5.656.656,0,0,1-.26.13c-.008,0-.032.008-.064.016-.228.056-.228.056-.24.083a.057.057,0,0,0,0,.056,1.144,1.144,0,0,0,.153.181l.075.075c.044.056.088.1.131.155a3.145,3.145,0,0,1-.6.094.053.053,0,0,0-.051.048.768.768,0,0,1-.391.564.774.774,0,0,1-.39-.564.052.052,0,0,0-.052-.048,3.149,3.149,0,0,1-.607-.094c.048-.052.091-.1.134-.155l.075-.075a1.036,1.036,0,0,0,.153-.181.067.067,0,0,0,0-.056c-.013-.027-.013-.027-.241-.083-.032-.008-.056-.016-.064-.016a.664.664,0,0,1-.26-.13.512.512,0,0,1-.118-.5.36.36,0,0,1,.072-.174.181.181,0,0,1,.13-.063.191.191,0,0,1,.143.059l.149.15c.008.008.013.016.019.019.024.027.048.056.091.051a.132.132,0,0,0,.088-.063c.185-.273.252-.485.193-.651a3.318,3.318,0,0,0-.281-.6l-.016-.031a2.521,2.521,0,0,0,.23-.246l.019-.023a.481.481,0,0,0,.146-.284.131.131,0,0,0-.039-.1A.388.388,0,0,0,15.3,21.4H15.27a.335.335,0,0,1-.3-.15.354.354,0,0,1-.067-.34.2.2,0,0,1,.209-.094.447.447,0,0,1,.165.067.513.513,0,0,0,.056.032l.019.008c.064.04.174.1.238.035a.4.4,0,0,0,.1-.375l0,0a2.136,2.136,0,0,0,.612.078.392.392,0,0,0,.107.3c.063.064.173,0,.24-.035l.016-.008.056-.032a.452.452,0,0,1,.166-.067A.205.205,0,0,1,17.093,20.914Zm-.134-.339a.193.193,0,0,1-.194-.019.1.1,0,0,0-.05-.024.321.321,0,0,0-.028-.241.516.516,0,0,0-.161-.2.123.123,0,0,0,.039,0,.4.4,0,0,0,.261.213.162.162,0,0,0,.048,0c.114,0,.181-.086.275-.2.032-.035.064-.075.1-.114a.464.464,0,0,1,.027.063.69.69,0,0,1-.1.348C17.116,20.5,17.109,20.508,16.959,20.576Zm2.619-.5a5.033,5.033,0,0,0,1.215,2.039,3.417,3.417,0,0,0,.5.414,1.655,1.655,0,0,1-1.491.817c-.355,0-1.033-.667-1.361-.987-.2-.193-.214-.2-.253-.2s-.07.027-.142.086c-.051.043-.189.158-.216.126a3.48,3.48,0,0,1-.284-1.247.714.714,0,0,0-.319-.583c.015-.02.027-.043.047-.075a.747.747,0,0,0,.111-.442.766.766,0,0,0-.052-.118.481.481,0,0,0,.028-.584.1.1,0,0,0-.024-.016.154.154,0,0,0,.027-.063c.048-.166.094-.343.011-.426a.056.056,0,0,0-.082,0,.057.057,0,0,0,0,.083c.011.011.031.063-.04.311a1.082,1.082,0,0,1-.311.335c-.075.056-.1.064-.1.059s-.011,0-.035-.051a.449.449,0,0,1,.059-.327l.394-.4a.049.049,0,0,0,.016-.059,1.025,1.025,0,0,0,.158-.221.235.235,0,0,0,.032-.209.212.212,0,0,0-.161-.094c-.139-.032-.549.331-.552.331l-.013.02a1.064,1.064,0,0,0-.485-.4,2.33,2.33,0,0,0,1.1-.238C17.6,18.208,19.113,19.728,19.578,20.079Zm3.165-7.28a2.012,2.012,0,0,1,.221.513,4.941,4.941,0,0,1-.789-.051c-.158-.016-.288-.032-.348-.032h-.015c-.013-.031.039-.13.067-.157l.015-.008c.028-.02.075-.052.068-.107s-.08-.083-.107-.091a4.566,4.566,0,0,0-.517-.078,7.5,7.5,0,0,1-1.156-.2,2.789,2.789,0,0,0-.7-.209h-.008l0,0c-.177-.11-.473-.3-.492-.514a.228.228,0,0,1,.126-.2c.193-.11.454,0,.658.086.028.013.056.024.08.032.221.091.454.2.754.351a6.294,6.294,0,0,0,2.051.485C22.676,12.673,22.707,12.732,22.743,12.8Z" transform="translate(-14.155 -5.564)" fill="#000101"/><path d="M22.307,10.107a.362.362,0,0,0,.28-.126.349.349,0,0,0,.075-.3.343.343,0,0,0-.213-.236.056.056,0,0,0-.075.031.055.055,0,0,0,.031.075.22.22,0,0,1,.091.356.282.282,0,0,1-.307.063c-.075-.027-.253-.1-.253-.241a.576.576,0,0,1,.142-.379.345.345,0,0,1,.4-.075,1.81,1.81,0,0,1,.3.142c.048.024.1.051.142.075.174.088.311.15.447.206a2.739,2.739,0,0,0,1.045.252h.131a.071.071,0,0,0,.051-.04.055.055,0,0,0-.016-.063l-.04-.04a1.886,1.886,0,0,1-.339-.4,2.548,2.548,0,0,0,1.857.264.061.061,0,0,0,.044-.039.059.059,0,0,0-.008-.056,1.775,1.775,0,0,0-.26-.256,1.275,1.275,0,0,1-.253-.253,3.128,3.128,0,0,0,2-.583.058.058,0,0,0,0-.083.061.061,0,0,0-.083-.008,3.077,3.077,0,0,1-2.028.56.048.048,0,0,0-.048.027.057.057,0,0,0,0,.056,1.284,1.284,0,0,0,.331.374,1.471,1.471,0,0,1,.182.166,2.322,2.322,0,0,1-1.815-.367.058.058,0,0,0-.067,0,.059.059,0,0,0-.027.059,1.151,1.151,0,0,0,.375.568,2.673,2.673,0,0,1-.99-.241c-.131-.056-.268-.118-.434-.2-.048-.024-.1-.051-.142-.075a1.709,1.709,0,0,0-.311-.15.467.467,0,0,0-.525.107.7.7,0,0,0-.174.457c0,.155.123.281.332.351A.573.573,0,0,0,22.307,10.107Z" transform="translate(-13.107 -5.18)" fill="#000101"/><path d="M25.648,10.523a.061.061,0,0,0-.059.059,1.191,1.191,0,0,1-.241.576A2.382,2.382,0,0,1,25,10.74a.059.059,0,0,0-.067-.024.057.057,0,0,0-.04.056.728.728,0,0,1-.185.458l-.193-.193a.061.061,0,0,0-.064-.013.062.062,0,0,0-.035.056,1.316,1.316,0,0,1-.086.583,2.07,2.07,0,0,1-.572-.54A.057.057,0,0,0,23.7,11.1a.061.061,0,0,0-.04.051,2.4,2.4,0,0,1-.288.5,1.108,1.108,0,0,1-.6-.667.063.063,0,0,0-.074-.043.061.061,0,0,0-.04.072,1.2,1.2,0,0,0,.717.765.034.034,0,0,0,.02,0,.05.05,0,0,0,.047-.024,4.349,4.349,0,0,0,.292-.485c.158.182.463.509.6.509s.189-.308.2-.565l.138.139a.057.057,0,0,0,.08,0,.9.9,0,0,0,.244-.423,2.742,2.742,0,0,0,.324.359.058.058,0,0,0,.043.013.046.046,0,0,0,.039-.02,1.411,1.411,0,0,0,.308-.7A.061.061,0,0,0,25.648,10.523Z" transform="translate(-12.993 -4.886)" fill="#000101"/><path d="M22.825,13.106c-.016,0-.059-.008-.088.055a3.563,3.563,0,0,1-.41.5l-.142-.568a.059.059,0,1,0-.114.028l.165.674a.067.067,0,0,0,.044.04.048.048,0,0,0,.055-.016,5.29,5.29,0,0,0,.462-.533,4.784,4.784,0,0,1,.043.493.065.065,0,0,0,.06.067c.1.024.438-.233.54-.462.048,0,.185.1.612.695.048.067.067.094.075.1a.08.08,0,0,0,.048.02.051.051,0,0,0,.027,0,1.823,1.823,0,0,0,.323-.733,5.125,5.125,0,0,1,.718.639.135.135,0,0,0,.147.04c.094-.04.146-.186.146-.4v-.359a.055.055,0,0,0-.056-.059.055.055,0,0,0-.059.059v.359c0,.2-.051.283-.075.291-.007,0-.015-.008-.019-.011-.741-.738-.821-.7-.864-.687a.075.075,0,0,0-.048.075,2.378,2.378,0,0,1-.236.643c-.011-.013-.019-.028-.032-.043-.4-.552-.6-.754-.725-.739a.106.106,0,0,0-.091.072,1.034,1.034,0,0,1-.371.375C22.951,13.552,22.927,13.125,22.825,13.106Z" transform="translate(-13.073 -4.541)" fill="#000101"/></g></g></g></g></svg>