<svg xmlns="http://www.w3.org/2000/svg" width="35.153" height="35.153" viewBox="0 0 35.153 35.153"><g transform="translate(0 0)"><path d="M35.153,17.576c0,.088,0,.174,0,.26v.115a.058.058,0,0,1,0,.024.182.182,0,0,1,0,.043c-.008.343-.028.687-.056,1.03s-.067.682-.115,1.017c-.007.075-.019.147-.031.222-.036.225-.072.446-.118.663,0,.035-.013.067-.02.1v0a.81.81,0,0,1-.019.1c-.059.28-.123.552-.193.824a17.47,17.47,0,0,1-3.3,6.58,17.542,17.542,0,0,1-9.311,6.029,17.28,17.28,0,0,1-2.94.5q-.726.058-1.468.059c-.493,0-.986-.02-1.471-.059a17.318,17.318,0,0,1-2.936-.5,17.619,17.619,0,0,1-10.817-8.23A17.283,17.283,0,0,1,.56,21.983c-.056-.2-.1-.406-.147-.612a.473.473,0,0,1-.023-.1c-.008-.032-.016-.064-.024-.1a17.408,17.408,0,0,1-.289-1.948c-.008-.059-.011-.115-.015-.174h0c-.032-.34-.048-.687-.056-1.03a.137.137,0,0,1,0-.043.13.13,0,0,1,0-.04c0-.086,0-.169,0-.256a.144.144,0,0,1,0-.04v-.064c0-.118,0-.236,0-.355a.14.14,0,0,1,0-.043.117.117,0,0,1,0-.04c.008-.347.024-.69.056-1.03v-.027c0-.016,0-.032,0-.048s0-.032,0-.047c.013-.119.024-.238.036-.351,0-.016,0-.032.008-.048h0a.225.225,0,0,1,0-.048A17.545,17.545,0,0,1,.56,13.169,17.327,17.327,0,0,1,2.352,8.79a16.842,16.842,0,0,1,1.506-2.2A17.582,17.582,0,0,1,16.105.059C16.59.024,17.083,0,17.576,0s.983.024,1.468.059a17.578,17.578,0,0,1,12.25,6.534A17.076,17.076,0,0,1,32.8,8.79,17.409,17.409,0,0,1,34.6,13.169c.035.139.067.273.1.41l.011.048.013.048c.091.4.166.808.233,1.219a.185.185,0,0,0,0,.043.392.392,0,0,1,.008.044c.051.371.1.746.126,1.128.027.34.048.683.056,1.03a.155.155,0,0,1,0,.04.185.185,0,0,1,0,.043C35.149,17.34,35.153,17.458,35.153,17.576Z" fill="#006a3f"/><g transform="translate(0 13.169)"><path d="M35.082,14.525H.056V14.5c0-.016,0-.032,0-.048s0-.032,0-.047c.013-.119.024-.238.036-.351,0-.016,0-.032.008-.048h0a.225.225,0,0,1,0-.048,17.545,17.545,0,0,1,.442-2.371H34.588c.035.139.067.273.1.41l.011.048.013.048c.091.4.166.808.233,1.219a.185.185,0,0,0,0,.043.392.392,0,0,1,.008.044C35.007,13.768,35.055,14.143,35.082,14.525Z" transform="translate(0.008 -11.585)" fill="#fbd022"/><path d="M35.153,15.639c0,.088,0,.174,0,.26v.115a.058.058,0,0,1,0,.024.182.182,0,0,1,0,.043c-.008.343-.028.687-.056,1.03H.064c-.032-.34-.048-.687-.056-1.03a.137.137,0,0,1,0-.043A.13.13,0,0,1,0,16c0-.086,0-.169,0-.256a.144.144,0,0,1,0-.04v-.064c0-.118,0-.236,0-.355a.14.14,0,0,1,0-.043.117.117,0,0,1,0-.04c.008-.347.024-.69.056-1.03H35.089c.027.34.048.683.056,1.03a.155.155,0,0,1,0,.04.185.185,0,0,1,0,.043C35.149,15.4,35.153,15.52,35.153,15.639Z" transform="translate(0 -11.231)"/><path d="M35.082,16.757c-.027.343-.067.682-.115,1.017-.007.075-.019.147-.031.222-.036.225-.072.446-.118.663,0,.035-.013.067-.02.1v0a.81.81,0,0,1-.019.1c-.059.28-.123.552-.193.824H.553c-.056-.2-.1-.406-.147-.612a.473.473,0,0,1-.023-.1c-.008-.032-.016-.064-.024-.1a17.408,17.408,0,0,1-.289-1.948c-.008-.059-.011-.115-.015-.174H35.082Z" transform="translate(0.008 -10.878)" fill="#fff"/></g><g transform="translate(13.169)"><path d="M19.693.553V34.586a17.28,17.28,0,0,1-2.94.5V.052A17.508,17.508,0,0,1,19.693.553Z" transform="translate(-10.878 0.007)" fill="#fff"/><path d="M17.106.059V35.094q-.726.058-1.468.059c-.493,0-.986-.02-1.471-.059V.059C14.653.024,15.146,0,15.639,0S16.622.024,17.106.059Z" transform="translate(-11.232)"/><path d="M14.521.052V35.087a17.318,17.318,0,0,1-2.936-.5V.553A17.547,17.547,0,0,1,14.521.052Z" transform="translate(-11.585 0.007)" fill="#fbd022"/></g><circle cx="8.755" cy="8.755" r="8.755" transform="translate(8.822 8.822)" fill="#d31c2f"/><g transform="translate(10.053 9.67)"><g transform="translate(6.261)"><path d="M15.611,8.59l.28.856h.9l-.73.533.28.856-.73-.529-.73.529.281-.856-.73-.533h.9Z" transform="translate(-14.341 -8.496)" fill="#006a3f"/><path d="M16.893,9.43h-.971l-.3-.923-.3.923h-.97l.784.568-.3.923.784-.568.785.568-.3-.923Zm-1.271.848-.671.493.257-.793-.675-.489h.833l.256-.793.257.793h.833l-.671.489.256.793Z" transform="translate(-14.352 -8.507)"/></g><g transform="translate(2.398 1.503)"><path d="M11.484,9.9l.729.529.73-.529-.281.856.73.529h-.9l-.276.86-.28-.86h-.9l.73-.529Z" transform="translate(-10.943 -9.819)" fill="#006a3f"/><path d="M12.709,10.752l.3-.923-.785.573-.552-.4-.232-.169.232.718.067.2-.067.052-.717.521h.971l.165.5.134.423.134-.423.166-.5h.966Zm-.485,1.3-.075-.23-.181-.559h-.833l.537-.391.134-.1-.134-.418-.122-.374.122.09.552.4.675-.489-.26.792.674.49h-.832l-.182.559Z" transform="translate(-10.954 -9.829)"/></g><g transform="translate(0.007 4.533)"><path d="M8.927,13.434h.9l.276-.856.28.856h.9l-.726.529.276.86-.73-.533-.726.533.276-.86Z" transform="translate(-8.839 -12.484)" fill="#006a3f"/><path d="M10.117,14.266l-.186.134h.052l.134-.1.134.1H10.3Zm0,0-.186.134h.052l.134-.1.134.1H10.3Zm0,0-.186.134h.052l.134-.1.134.1H10.3Zm0,0-.186.134h.052l.134-.1.134.1H10.3Zm.489-.28.782-.568h-.972l-.3-.923-.3.923H8.85l.782.568L9.5,14.4l-.161.509.7-.509.083-.059.082.059.7.509L10.74,14.4Zm-.3.414-.185-.134-.186.134-.484.356L9.56,14.4l.142-.434-.674-.492h.832l.257-.79.26.79h.829l-.671.492.142.434.114.356Zm-.185-.134-.186.134h.052l.134-.1.134.1H10.3Zm0,0-.186.134h.052l.134-.1.134.1H10.3Zm0,0-.186.134h.052l.134-.1.134.1H10.3Z" transform="translate(-8.85 -12.495)"/></g><g transform="translate(0 8.849)"><path d="M8.923,17.747l.73-.533-.28-.856.73.533.73-.533-.28.856.73.533h-.9L10.1,18.6l-.28-.856Z" transform="translate(-8.833 -16.283)" fill="#006a3f"/><path d="M10.6,17.215l.126-.394.174-.529-.73.529-.056.043-.059-.043-.726-.529.171.529.13.394-.784.568h.97l.3.923.3-.923h.971Zm-.485,1.3-.256-.792H9.025l.671-.49-.134-.414-.122-.375.516.375.158.115.158-.115.513-.375-.118.375-.138.414.674.49h-.832Z" transform="translate(-8.844 -16.292)"/></g><g transform="translate(2.383 11.883)"><path d="M11.469,21.289l.28-.86-.73-.529h.9l.28-.856.276.856h.9l-.73.529.28.86-.73-.533Z" transform="translate(-10.929 -18.95)" fill="#006a3f"/><path d="M13.481,19.884H12.51l-.161-.493-.139-.43-.141.43-.158.493H10.94l.733.533.052.035-.052.158-.248.765.248-.182.537-.386.787.568-.3-.923Zm-1.271.848-.537.391-.138.1.138-.423.119-.367-.119-.086-.551-.4h.832l.177-.552.078-.241.08.241.177.552H13.3l-.674.489.26.79Z" transform="translate(-10.94 -18.961)"/></g><g transform="translate(6.241 13.399)"><path d="M15.594,22.6l-.276-.856h-.9l.729-.529-.28-.856.73.529.73-.529-.28.856.73.529h-.9Z" transform="translate(-14.323 -20.285)" fill="#006a3f"/><path d="M16.09,21.217l.3-.923-.785.572-.784-.572.3.923-.789.572H15.3l.3.92.3-.92h.97Zm-.485,1.3-.257-.792h-.832l.674-.485-.26-.793.675.489.675-.489-.257.793.671.485h-.832Z" transform="translate(-14.334 -20.294)"/></g><g transform="translate(10.108 11.895)"><path d="M19.725,21.3,19,20.767l-.73.533.28-.86-.729-.529h.9l.28-.856.276.856h.9l-.73.529Z" transform="translate(-17.725 -18.96)" fill="#006a3f"/><path d="M19.491,20.462l.067-.047.718-.522h-.971l-.166-.5-.134-.418-.134.418-.166.5h-.97l.784.568-.3.923.784-.567.552.4.233.169-.233-.717Zm.067.683-.552-.4-.674.489.256-.789-.671-.493h.833l.182-.56.074-.228.075.228.182.56h.832l-.537.394-.138.1.138.414.123.375Z" transform="translate(-17.736 -18.971)"/></g><g transform="translate(12.498 8.865)"><path d="M22.278,17.76h-.9l-.28.86-.276-.86h-.9l.73-.529-.28-.856.729.529.73-.529-.281.856Z" transform="translate(-19.828 -16.297)" fill="#006a3f"/><path d="M21.244,16.819l-.134.094-.134-.094h-.048l.182.13.181-.13Zm.35.41.134-.41.166-.513-.7.513-.082.059-.083-.059-.7-.513.166.513.134.41-.785.572h.971l.3.923.3-.923h.971Zm-.484,1.306-.257-.793h-.832l.674-.489-.142-.434-.114-.359.489.359.182.13.181-.13.493-.359-.118.359-.142.434.674.489h-.831Zm.134-1.716-.134.094-.134-.094h-.048l.182.13.181-.13Z" transform="translate(-19.839 -16.306)"/></g><g transform="translate(12.506 4.549)"><path d="M22.285,13.452l-.73.529.276.856-.726-.529-.73.529.276-.856-.726-.529h.9l.28-.86.276.86Z" transform="translate(-19.835 -12.498)" fill="#006a3f"/><path d="M21.6,14l.781-.572h-.971l-.3-.923-.3.923h-.971l.785.572L20.5,14.4l-.169.529.725-.529.059-.043.056.043.726.529-.171-.529Zm-.329.394-.158-.114-.157.114-.517.375.123-.375.134-.418-.675-.489h.832l.26-.789.257.789H22.2l-.674.489.134.418.123.375Z" transform="translate(-19.846 -12.509)"/></g><g transform="translate(10.124 1.515)"><path d="M19.739,9.909l-.28.856.73.529h-.9l-.276.86-.28-.86h-.9l.73-.529-.28-.856.73.529Z" transform="translate(-17.739 -9.831)" fill="#006a3f"/><path d="M19.556,10.8l-.051-.04.051-.155.249-.768-.249.181-.537.391-.785-.572.3.923-.785.572h.97l.163.489.138.434.139-.434.161-.489h.966Zm-.537,1.262-.078-.241-.177-.548h-.833l.671-.489-.256-.793.674.489.537-.386.139-.1-.139.422-.122.372.122.086.552.4h-.832l-.177.548Z" transform="translate(-17.75 -9.84)"/></g></g><g transform="translate(14.959 12.541)"><path d="M17.429,18.951a.675.675,0,0,1-.083,0,.375.375,0,0,1,0-.529h.051a.2.2,0,0,1,.078.02.254.254,0,0,1,.131.256C17.6,18.908,17.52,18.943,17.429,18.951Z" transform="translate(-12.602 -10.022)" fill="#9b4903"/><path d="M17.429,18.955H16.236a.43.43,0,0,1-.118-.213.512.512,0,0,1,.131-.316h1.172A.428.428,0,0,0,17.429,18.955Z" transform="translate(-12.755 -10.022)" fill="#9b4903"/><path d="M13.516,18.287c.056-.122.127-.272.455-.256a.446.446,0,0,1,.441.335.161.161,0,0,0,.155.114h.741a.644.644,0,0,0-.07.265.808.808,0,0,0,.032.264H13.722c-.016,0-.335,0-.5-.537a.524.524,0,0,1,.07-.011.3.3,0,0,0,.155-.064A.275.275,0,0,0,13.516,18.287Z" transform="translate(-13.152 -10.076)" fill="#9b4903"/><path d="M17.438,17.9c0,.13.013.319.02.537V18.5a.122.122,0,0,0-.059-.008h-.206c.013-.335.016-.679.013-.947A3.428,3.428,0,0,1,17.438,17.9Z" transform="translate(-12.608 -10.142)" fill="#006a3f"/><path d="M17.4,16.031a2.629,2.629,0,0,0-.3-.41l.008-.011a.8.8,0,0,0,.048-.265A1.484,1.484,0,0,1,17.4,16.031Z" transform="translate(-12.62 -10.443)" fill="#006a3f"/><path d="M17.24,19.469c-.048.064-.094.091-.15.083.032-.166.056-.371.08-.612h.181v0l0,0h.008a.091.091,0,0,0,.035,0c.008,0,.011,0,.019,0A1.559,1.559,0,0,1,17.24,19.469Z" transform="translate(-12.622 -9.951)" fill="#006a3f"/><path d="M16.923,19.965c-.023-.008-.086-.059-.173-.366-.048-.171-.1-.394-.142-.659h.567c-.023.249-.051.462-.082.627a.722.722,0,0,1-.139.386A.046.046,0,0,1,16.923,19.965Z" transform="translate(-12.688 -9.951)" fill="#006a3f"/><path d="M17.452,16.141a5.826,5.826,0,0,1,.323.71c0,.11.008.221.013.335a6.288,6.288,0,0,0-.975-1.353.97.97,0,0,0,.013-.313.327.327,0,0,0,.217.139h.008a.1.1,0,0,0,.059-.02A2.96,2.96,0,0,1,17.452,16.141Z" transform="translate(-12.66 -10.419)" fill="#006a3f"/><path d="M17.8,17.753a2.194,2.194,0,0,0-.311-.556c-.222-.292-.434-.6-.624-.88-.078-.115-.153-.222-.221-.321a.183.183,0,0,0,.118-.055.3.3,0,0,0,.056-.091,6.469,6.469,0,0,1,.99,1.421C17.813,17.445,17.81,17.611,17.8,17.753Z" transform="translate(-12.683 -10.374)" fill="#006a3f"/><path d="M16.645,17.9a.347.347,0,0,1-.072-.238.459.459,0,0,0,.11-.15.981.981,0,0,0,.1-.323c.075.051.155.1.238.153v.016c-.059.379-.155.572-.289.576A.125.125,0,0,1,16.645,17.9Z" transform="translate(-12.693 -10.191)" fill="#006a3f"/><path d="M16.74,17.974h.008c.244-.008.315-.462.34-.62.011,0,.019.011.031.016l.008.008.011.011a1.133,1.133,0,0,1,.1.107c.008.276,0,.655-.008,1.022h-.706c0-.04-.008-.072-.013-.1l-.007-.052a1.385,1.385,0,0,0,.224-.394Z" transform="translate(-12.702 -10.168)" fill="#006a3f"/><path d="M15.758,12.307a1.134,1.134,0,0,0,.726.343.488.488,0,0,0,.07,0A1.052,1.052,0,0,0,16.8,12.6a1.483,1.483,0,0,0,.537.228.666.666,0,0,1-.3.2.948.948,0,0,1-.438.011,1.854,1.854,0,0,1-.931-.7A.838.838,0,0,0,15.758,12.307Z" transform="translate(-12.817 -10.858)" fill="#9461c7"/><path d="M16.626,14.485a.914.914,0,0,0-.016-.244,2.754,2.754,0,0,1,.418.647,1.4,1.4,0,0,1,.142.509h0a.78.78,0,0,1-.04.339c0,.008,0,.011-.008.019h0a.063.063,0,0,1-.047.02c-.064,0-.238-.075-.482-.671a.207.207,0,0,0,.055.019h.008A.049.049,0,0,0,16.7,15.1c.02-.028.024-.083.016-.2A1.757,1.757,0,0,0,16.626,14.485Z" transform="translate(-12.69 -10.594)" fill="#006a3f"/><path d="M16.407,17.665a.555.555,0,0,1-.094-.375,1.183,1.183,0,0,0,.146-.363,3.369,3.369,0,0,0,.311.26,1.089,1.089,0,0,1-.1.34.4.4,0,0,1-.106.134.121.121,0,0,1-.127.019.1.1,0,0,1-.024-.016Z" transform="translate(-12.729 -10.227)" fill="#006a3f"/><path d="M16.465,18.988a.3.3,0,0,0-.047-.04l-.008-.008h.166c.043.244.091.462.134.627a.519.519,0,0,1-.23-.284c.008,0,.02-.011.032-.016a.15.15,0,0,0,.056-.094A.267.267,0,0,0,16.465,18.988Z" transform="translate(-12.715 -9.951)" fill="#006a3f"/><path d="M16.613,14.209a3.026,3.026,0,0,0-.217-.572.821.821,0,0,0,.134.078,6.076,6.076,0,0,1,.667,1.073,5.746,5.746,0,0,1,.5,1.322c.011.048.024.091.035.13a4.718,4.718,0,0,1,.078.675,4.373,4.373,0,0,0-.252-.537,1.555,1.555,0,0,0-.307-.907,1.527,1.527,0,0,0-.15-.525A2.674,2.674,0,0,0,16.613,14.209Z" transform="translate(-12.717 -10.676)" fill="#006a3f"/><path d="M17.052,12.206a4.447,4.447,0,0,1-.722-.552l-.036-.031c-.07-.059-.142-.123-.213-.185a1.462,1.462,0,0,0-.588-.332,1.346,1.346,0,0,0-.9.158.53.53,0,0,0-.252.39.132.132,0,0,1,0,.036.339.339,0,0,1,.091.008.461.461,0,0,1,.094.043.276.276,0,0,1,.123.177.184.184,0,0,1-.013.1.28.28,0,0,1,.091.222.258.258,0,0,1-.075.157.13.13,0,0,0,.051.024,1.958,1.958,0,0,0,.876.083v0a1.739,1.739,0,0,0,.5-.147,1.63,1.63,0,0,0,.233-.134.412.412,0,0,1,.043-.032c.091-.078.094-.078.107-.078l.015,0a.719.719,0,0,0,.485.106h.118A.132.132,0,0,0,17.052,12.206Zm-1.87-.351c-.134,0-.241-.074-.241-.165a.132.132,0,0,1,0-.036.237.237,0,0,1,.238-.134.242.242,0,0,1,.24.134c0,.013,0,.024,0,.036C15.427,11.781,15.32,11.855,15.183,11.855Z" transform="translate(-12.999 -11.026)" fill="#9461c7"/><path d="M16.35,14.678l-.027-.04h0l.016-.008a.09.09,0,0,0,.059-.056.219.219,0,0,0-.011-.153.326.326,0,0,0,.193.094.07.07,0,0,0,.035-.008,1.46,1.46,0,0,1,.078.383c.008.123,0,.15,0,.15-.04,0-.091-.056-.115-.078A2.331,2.331,0,0,1,16.35,14.678Z" transform="translate(-12.727 -10.569)" fill="#006a3f"/><path d="M16.493,16.619a1.886,1.886,0,0,1-.142-.324l.011,0h.024a.13.13,0,0,0,.107-.051c.016-.02.064-.075-.024-.442.1.134.236.331.391.548.189.276.4.592.623.884a2.013,2.013,0,0,1,.347.671v.008a2.063,2.063,0,0,1,.056.784,3.762,3.762,0,0,0-.635-1.092,1.226,1.226,0,0,0-.067-.107c-.043-.063-.138-.177-.248-.311A6.92,6.92,0,0,1,16.493,16.619Z" transform="translate(-12.723 -10.38)" fill="#006a3f"/><path d="M16.316,18.392c-.051-.027-.091-.126-.114-.283.011-.032.023-.064.035-.091s.032-.1.043-.155a.53.53,0,0,0,.142-.228l0,0a.232.232,0,0,0,.072.016.219.219,0,0,0,.07-.016.383.383,0,0,0,.088.246.166.166,0,0,0,.055.035.9.9,0,0,1-.335.469A.06.06,0,0,1,16.316,18.392Z" transform="translate(-12.744 -10.13)" fill="#006a3f"/><path d="M16.449,15.815c-.048-.166-.108-.363-.175-.544a.3.3,0,0,0,.056.019c.008,0,.011,0,.019,0a.078.078,0,0,0,.056-.024c.067-.078.016-.335-.027-.513a1.929,1.929,0,0,0,.161.2l.008,0a2.711,2.711,0,0,0,.28.572.7.7,0,0,1-.055.521.146.146,0,0,1-.115.04C16.574,15.977,16.5,15.878,16.449,15.815Z" transform="translate(-12.734 -10.523)" fill="#006a3f"/><path d="M16.268,12.044a.712.712,0,0,0,.236.094,1.969,1.969,0,0,0,.549.249.569.569,0,0,1-.276.185,1.078,1.078,0,0,1-.244.051,1.008,1.008,0,0,1-.73-.3c.035-.016.066-.032.1-.048a1.532,1.532,0,0,0,.24-.134l.048-.039C16.217,12.087,16.249,12.059,16.268,12.044Z" transform="translate(-12.798 -10.894)" fill="#9461c7"/><path d="M16.2,16.635a3.147,3.147,0,0,0,.249.281.977.977,0,0,1-.15.39c-.032.048-.094.123-.158.111a.107.107,0,0,1-.067-.051.566.566,0,0,1-.07-.257A1.112,1.112,0,0,0,16.2,16.635Z" transform="translate(-12.771 -10.267)" fill="#006a3f"/><path d="M16.3,17.309a.545.545,0,0,0,.1.335.462.462,0,0,1-.138.225.085.085,0,0,1-.091,0c-.107-.056-.134-.23-.142-.364a1.067,1.067,0,0,0,.035-.153.159.159,0,0,0,.067.032h.024A.2.2,0,0,0,16.3,17.309Z" transform="translate(-12.768 -10.174)" fill="#006a3f"/><path d="M16.309,14.66a1.152,1.152,0,0,1,.088.615s-.008,0-.02,0c-.106-.024-.213-.163-.256-.225-.019-.091-.043-.19-.07-.276a.949.949,0,0,0-.028-.34.51.51,0,0,0,.281.2Z" transform="translate(-12.768 -10.567)" fill="#006a3f"/><path d="M16.18,14.107c.064.1.115.193.155.268.074.153.066.213.058.236a.037.037,0,0,1-.023.024c-.088.032-.222-.067-.375-.273-.013-.051-.027-.094-.04-.138a.065.065,0,0,0,.013-.016.328.328,0,0,0-.008-.2.334.334,0,0,0,.2.1h.016Z" transform="translate(-12.777 -10.626)" fill="#006a3f"/><path d="M16.357,13.613a2.927,2.927,0,0,1,.268.666l0,0a.948.948,0,0,1,.031.327c-.039.019-.126-.016-.272-.166a2.368,2.368,0,0,0-.158-.272c.059-.134-.244-.71-.3-.825a.031.031,0,0,0-.027-.016l.075-.07A4.188,4.188,0,0,0,16.357,13.613Z" transform="translate(-12.785 -10.728)" fill="#006a3f"/><path d="M16.239,19.042a.15.15,0,0,0,.126.04.113.113,0,0,1,.083.011l.013.013a.21.21,0,0,1,.043.035c.059.055.086.1.083.138a.066.066,0,0,1-.032.051.146.146,0,0,1-.04.016H16.5a.705.705,0,0,1-.241-.035.5.5,0,0,1-.221-.134.7.7,0,0,1-.123-.166.639.639,0,0,1-.059-.4.722.722,0,0,1,.064-.163A1.7,1.7,0,0,1,16,18.285h.016a.19.19,0,0,0,.115-.043.352.352,0,0,0,.078-.107.444.444,0,0,0,.1.217.737.737,0,0,0-.055.07.392.392,0,0,0-.013.62Z" transform="translate(-12.793 -10.062)" fill="#fbd022"/><path d="M15.845,17.776a.357.357,0,0,0,.161-.19.388.388,0,0,0,.163.3.119.119,0,0,0,.07.019.058.058,0,0,0,.024,0c-.011.039-.024.078-.031.106s-.025.064-.036.1a.494.494,0,0,1-.107.169.1.1,0,0,1-.083.028.044.044,0,0,1-.031-.013h0a.281.281,0,0,1-.083-.1A.81.81,0,0,1,15.845,17.776Z" transform="translate(-12.794 -10.137)" fill="#006a3f"/><path d="M16.268,13.225a1.71,1.71,0,0,0,.726.217.716.716,0,0,0,.158-.019.6.6,0,0,0,.107.086,1.084,1.084,0,0,0,.244.088.248.248,0,0,1,.055.016.707.707,0,0,1-.291.185.811.811,0,0,1-.616-.02,3.268,3.268,0,0,1-.821-.717.433.433,0,0,0,.035-.166A1.536,1.536,0,0,0,16.268,13.225Z" transform="translate(-12.795 -10.778)" fill="#9461c7"/><path d="M15.868,16.132a3.648,3.648,0,0,0,.323.513,1.1,1.1,0,0,1-.2.506.312.312,0,0,1-.1.078.105.105,0,0,1-.09,0,.19.19,0,0,1-.08-.139,1.565,1.565,0,0,1,0-.5A1.514,1.514,0,0,1,15.868,16.132Z" transform="translate(-12.812 -10.335)" fill="#006a3f"/><path d="M16.445,16.339c-.1-.013-.28-.174-.462-.576a2.024,2.024,0,0,1-.181-.682c.106.161.228.291.342.3h0c.008,0,.016,0,.02-.008s.047-.043.011-.273a.5.5,0,0,0,.083.08c.075.2.146.426.2.615.086.335.09.49.063.521A.077.077,0,0,1,16.445,16.339Z" transform="translate(-12.798 -10.479)" fill="#006a3f"/><path d="M15.789,12.547a1.611,1.611,0,0,0,.793.513,1.032,1.032,0,0,0,.217.024.853.853,0,0,0,.228-.032,1.2,1.2,0,0,0,.359.169c.019,0,.04.013.055.016a.47.47,0,0,1-.268.174h0a1.29,1.29,0,0,1-.859-.19,1.6,1.6,0,0,1-.434-.371,2.05,2.05,0,0,1-.146-.177c-.013-.019-.024-.035-.04-.056A.232.232,0,0,0,15.789,12.547Z" transform="translate(-12.813 -10.826)" fill="#9461c7"/><path d="M15.7,18.091a1.934,1.934,0,0,1-.035-.276.2.2,0,0,0,.09-.083.119.119,0,0,0,.056.032.771.771,0,0,0,.052.434.4.4,0,0,0,.07.1.169.169,0,0,1-.1.027.119.119,0,0,1-.075-.059A.615.615,0,0,1,15.7,18.091Z" transform="translate(-12.817 -10.117)" fill="#006a3f"/><path d="M15.961,18.284c-.024.043-.048.09-.064.126-.027.067-.063.15-.067.173a.714.714,0,0,0,.067.434.727.727,0,0,0,.131.182.508.508,0,0,0,.2.13.225.225,0,0,1-.114.028A.665.665,0,0,1,16,19.334a.555.555,0,0,1-.359-.34.823.823,0,0,1-.064-.228.59.59,0,0,1,.059-.332.842.842,0,0,1,.119-.177.144.144,0,0,0,.09.056h.024A.2.2,0,0,0,15.961,18.284Z" transform="translate(-12.83 -10.045)" fill="#fbd022"/><path d="M15.675,13.1c-.024-.013-.043-.02-.067-.032a.414.414,0,0,0,.118-.118.4.4,0,0,0,.048-.115.371.371,0,0,0,0-.064.515.515,0,0,0,.064.075.442.442,0,0,1-.04.222C15.785,13.1,15.755,13.131,15.675,13.1Z" transform="translate(-12.825 -10.795)" fill="#006a3f"/><path d="M15.92,17.156A.521.521,0,0,0,16,17.1a.546.546,0,0,0,.067.224.9.9,0,0,1-.048.2c-.048.15-.123.26-.182.268a.035.035,0,0,1-.039-.016.043.043,0,0,1-.016-.016l-.008-.008a.45.45,0,0,1-.107-.228.876.876,0,0,1,0-.244c.008-.067.024-.139.036-.206a.189.189,0,0,0,.078.08.1.1,0,0,0,.059.016A.206.206,0,0,0,15.92,17.156Z" transform="translate(-12.818 -10.206)" fill="#006a3f"/><path d="M15.781,12.526a.183.183,0,0,1-.107.08.476.476,0,0,1-.233,0,.407.407,0,0,0,.02-.217,1.347,1.347,0,0,0,.174-.035A2.083,2.083,0,0,0,15.781,12.526Z" transform="translate(-12.848 -10.853)" fill="#006a3f"/><path d="M15.521,18.259a.3.3,0,0,0,.189-.142.414.414,0,0,0,.044.107,1.055,1.055,0,0,0-.135.206.644.644,0,0,0-.067.363,1.09,1.09,0,0,0,.067.244.628.628,0,0,0,.343.351.268.268,0,0,1-.3-.008.947.947,0,0,1-.3-.367l-.013-.035,0,0a.54.54,0,0,1,.04-.517A1.038,1.038,0,0,1,15.521,18.259Z" transform="translate(-12.868 -10.064)" fill="#fbd022"/><path d="M15.972,14.846a1.039,1.039,0,0,1-.374-.529.381.381,0,0,0,.2.11h0a.03.03,0,0,0,.032-.024.6.6,0,0,0-.024-.228.5.5,0,0,0,.134.039,1.4,1.4,0,0,1,.044.142v0c.086.311.078.457.042.489C16.02,14.857,16,14.857,15.972,14.846Z" transform="translate(-12.826 -10.603)" fill="#006a3f"/><path d="M16.568,17.136a3.535,3.535,0,0,1-.283-.319.041.041,0,0,0-.017-.019,4.005,4.005,0,0,1-.343-.537c0-.013,0-.02-.011-.024a4.963,4.963,0,0,1-.457-1.448,8.226,8.226,0,0,0,.753,1.74l.024.031c.329.394.6.718.856.991a3.534,3.534,0,0,1-.508-.4S16.576,17.141,16.568,17.136Z" transform="translate(-12.846 -10.519)" fill="#d31c2f"/><path d="M15.436,12.62a.7.7,0,0,0,.163.019.389.389,0,0,0,.094-.011c.016.024.035.043.051.067a.371.371,0,0,1,.019.15.265.265,0,0,1-.043.094.3.3,0,0,1-.118.115l-.019.007A.308.308,0,0,1,15.275,13a.387.387,0,0,0,.067-.09.129.129,0,0,0-.032-.15c.035-.032.072-.072.107-.11A.3.3,0,0,0,15.436,12.62Z" transform="translate(-12.87 -10.816)" fill="#006a3f"/><path d="M15.24,17.833a.434.434,0,0,0,.166-.2c.048.11.1.182.169.2a.381.381,0,0,0,.068.008h.019a2.018,2.018,0,0,0,.035.26c-.083.15-.177.2-.281.146a.157.157,0,0,1-.047-.035A.6.6,0,0,1,15.24,17.833Z" transform="translate(-12.875 -10.13)" fill="#006a3f"/><path d="M15.371,14.135c-.016-.268-.019-.525-.016-.765a.4.4,0,0,0,.067-.036.481.481,0,0,0,.2-.252.617.617,0,0,0,.067.032.176.176,0,0,0,.078.016.115.115,0,0,0,.1-.043c.051.059.114.13.185.2l-.075.07a.026.026,0,0,0-.016,0,.035.035,0,0,0-.013.039,1.878,1.878,0,0,1,.3.778c-.044,0-.123-.027-.246-.158a1.4,1.4,0,0,0-.244-.481.026.026,0,0,0-.039,0,.032.032,0,0,0,0,.044,1.425,1.425,0,0,1,.225.462h0l0,0a.674.674,0,0,1,.051.252.372.372,0,0,1-.185-.059,1.03,1.03,0,0,0-.3-.457.031.031,0,0,0-.04,0,.032.032,0,0,0,0,.043.985.985,0,0,1,.331.679.521.521,0,0,1-.24-.2h0a1.673,1.673,0,0,1-.134-.193.028.028,0,0,0-.04-.011.026.026,0,0,0-.015.027Z" transform="translate(-12.86 -10.753)" fill="#006a3f"/><path d="M17.129,17.6c-.257-.264-.522-.583-.837-.97l-.028-.032a8.462,8.462,0,0,1-.753-1.756l-.008-.011-.016-.051c-.016-.043-.036-.11-.072-.228-.024-.182-.035-.364-.047-.541h.008l0,.011a1.536,1.536,0,0,0,.138.2,1.3,1.3,0,0,0,.463.7.191.191,0,0,0,.063.013.077.077,0,0,0,.056-.02h0c.02.072.036.147.051.217a1.022,1.022,0,0,1,.036.332c-.2-.04-.482-.6-.576-.813a.029.029,0,0,0-.04-.016.033.033,0,0,0-.016.035,4.71,4.71,0,0,0,.236.458,2.168,2.168,0,0,0,.194.8,1.276,1.276,0,0,0,.43.583,1.57,1.57,0,0,0,.161.38,6.562,6.562,0,0,0,.446.575Z" transform="translate(-12.858 -10.626)" fill="#006a3f"/><path d="M15.352,17.309c.1.07.2.142.3.209a.554.554,0,0,0,.1.225.165.165,0,0,1-.091.082.148.148,0,0,1-.091,0c-.056-.016-.11-.094-.153-.225A1.611,1.611,0,0,1,15.352,17.309Z" transform="translate(-12.86 -10.174)" fill="#006a3f"/><path d="M15.132,18.446a.814.814,0,0,1,.241-.249c.016.013.032.02.043.028a.24.24,0,0,0,.064.023,1.191,1.191,0,0,0-.115.166.608.608,0,0,0-.043.568l0,.008c0,.011.013.024.016.035a1.162,1.162,0,0,0,.249.34.534.534,0,0,1-.5-.359.728.728,0,0,1-.04-.284A.523.523,0,0,1,15.132,18.446Z" transform="translate(-12.902 -10.053)" fill="#fbd022"/><path d="M15.256,13.322a.393.393,0,0,1-.13-.265.387.387,0,0,0,.122-.063.462.462,0,0,0,.26.094.331.331,0,0,0,.091-.016.421.421,0,0,1-.177.221.255.255,0,0,1-.075.04h0A.11.11,0,0,1,15.256,13.322Z" transform="translate(-12.891 -10.764)" fill="#006a3f"/><path d="M15.005,11.624c0-.032.039-.059.086-.059s.09.027.09.059-.039.055-.09.055S15.005,11.655,15.005,11.624Z" transform="translate(-12.907 -10.96)"/><path d="M15.117,13.049a.354.354,0,0,1-.217-.023.228.228,0,0,0,.056-.178.278.278,0,0,0,.094-.134.292.292,0,0,1,.177.008.558.558,0,0,1,.072.048c.067.056.047.091.039.107a.394.394,0,0,1-.078.1A.312.312,0,0,1,15.117,13.049Z" transform="translate(-12.922 -10.804)" fill="#006a3f"/><path d="M15.236,12.714a.338.338,0,0,0-.194-.019v-.024c0-.008.013-.011.016-.016a.486.486,0,0,0,.134-.252h.032a1.469,1.469,0,0,0,.233-.016.317.317,0,0,1-.056.257.738.738,0,0,1-.1.11A.39.39,0,0,0,15.236,12.714Z" transform="translate(-12.902 -10.847)" fill="#006a3f"/><path d="M15.28,11.594a.21.21,0,0,0-.177-.074.2.2,0,0,0-.174.074.1.1,0,0,0-.008.036c0,.055.083.106.182.106s.185-.051.185-.106A.139.139,0,0,0,15.28,11.594Zm-.177.091c-.048,0-.086-.024-.086-.055,0-.008,0-.013,0-.016l0,0V11.6l.008,0,0,0a.06.06,0,0,1,.015-.011l.013-.008a.153.153,0,0,1,.04,0,.136.136,0,0,1,.039,0l.016.008a.072.072,0,0,1,.016.011.064.064,0,0,1,.011.016.03.03,0,0,1,.008.02C15.193,11.661,15.154,11.685,15.1,11.685Z" transform="translate(-12.919 -10.966)" fill="#d31c2f"/><path d="M14.991,17.122a.857.857,0,0,1-.032-.146c.064.059.126.118.19.173.047.04.094.08.146.118a.368.368,0,0,1-.257-.07A.173.173,0,0,1,14.991,17.122Z" transform="translate(-12.914 -10.22)" fill="#006a3f"/><path d="M14.953,17.41a.588.588,0,0,1,.016-.233.223.223,0,0,0,.032.035.45.45,0,0,0,.3.086h.048a2.026,2.026,0,0,0,.075.324c-.056.126-.118.206-.185.228a.09.09,0,0,1-.083-.016A.633.633,0,0,1,14.953,17.41Z" transform="translate(-12.915 -10.192)" fill="#006a3f"/><path d="M15.35,11.6a.242.242,0,0,0-.24-.134.237.237,0,0,0-.238.134.132.132,0,0,0,0,.036c0,.091.107.165.241.165s.244-.074.244-.165C15.354,11.625,15.35,11.614,15.35,11.6Zm-.24.142c-.1,0-.182-.051-.182-.106a.1.1,0,0,1,.008-.036.2.2,0,0,1,.174-.074.21.21,0,0,1,.177.074.139.139,0,0,1,.008.036C15.3,11.692,15.208,11.743,15.11,11.743Z" transform="translate(-12.926 -10.973)"/><path d="M14.629,12.476a.483.483,0,0,1,.044-.158,2,2,0,0,0,.516.091.435.435,0,0,1-.114.213l-.024.024a.233.233,0,0,1-.209.032.308.308,0,0,1-.206-.142A.1.1,0,0,1,14.629,12.476Z" transform="translate(-12.959 -10.857)" fill="#006a3f"/><path d="M14.717,12.933c.019,0,.04,0,.056,0a.4.4,0,0,0,.193-.051.164.164,0,0,1-.067.13.439.439,0,0,1-.268.091.246.246,0,0,1-.222-.161.178.178,0,0,1-.016-.075c0-.048.036-.11.11-.177A.273.273,0,0,0,14.717,12.933Z" transform="translate(-12.991 -10.806)" fill="#006a3f"/><path d="M14.6,12.533a.385.385,0,0,0,.244.177.347.347,0,0,0,.086.011.292.292,0,0,0,.123-.027V12.7h0v0a.237.237,0,0,1-.091.134.361.361,0,0,1-.252.059.229.229,0,0,1-.169-.225V12.66a.187.187,0,0,1,.051-.155A.124.124,0,0,0,14.6,12.533Z" transform="translate(-12.972 -10.831)" fill="#006a3f"/><path d="M14.679,13.126a.49.49,0,0,0,.291-.094.446.446,0,0,0,.193.047.325.325,0,0,0,.056,0,.459.459,0,0,0,.155.3.149.149,0,0,0,.082.024h.02a6.852,6.852,0,0,0,.583,3.1,1.675,1.675,0,0,0-.173.513,1.73,1.73,0,0,0,0,.517c-.024.1-.043.2-.059.3a.824.824,0,0,0,0,.2,4.812,4.812,0,0,1-.514-.379,3.89,3.89,0,0,1-1.234-3.46,4.542,4.542,0,0,1,.355-1.207A.285.285,0,0,0,14.679,13.126Z" transform="translate(-13.04 -10.766)" fill="#9461c7"/><path d="M14.379,12.379a.209.209,0,0,1-.2-.04.954.954,0,0,1,.169-.161.473.473,0,0,1,.1-.07.844.844,0,0,0,.174-.142l0-.008a.194.194,0,0,1,.064.161.218.218,0,0,1-.083.147A.548.548,0,0,1,14.379,12.379Z" transform="translate(-13.02 -10.906)" fill="#fbd022"/><path d="M14.545,11.708a.188.188,0,0,0-.075-.031.231.231,0,0,0-.075-.013.658.658,0,0,0-.193.04c-.008,0-.013.008-.02.008a.383.383,0,0,0-.221.2,1.043,1.043,0,0,0,.059.7.8.8,0,0,1,.123-.24l.008-.008L14.2,12.3a1.262,1.262,0,0,1,.145-.13.554.554,0,0,1,.1-.072.726.726,0,0,0,.158-.134.133.133,0,0,0,.035-.118A.21.21,0,0,0,14.545,11.708Zm-.139.19c-.027.027-.059.032-.078.011s0-.051.024-.074.059-.032.075-.013S14.434,11.879,14.407,11.9Z" transform="translate(-13.056 -10.946)" fill="#fbd022"/><path d="M14.28,11.892c-.016-.015,0-.051.019-.074a.068.068,0,0,1,.083-.013c.016.019,0,.056-.024.08S14.3,11.912,14.28,11.892Z" transform="translate(-13.007 -10.928)"/><path d="M18.325,18.557a6.181,6.181,0,0,0,.02-.634v0c0-.122,0-.252-.011-.379a.508.508,0,0,0,0-.083c-.008-.193-.024-.375-.04-.529a2.539,2.539,0,0,0-.055-.347c-.013-.04-.019-.083-.032-.127a5.7,5.7,0,0,0-.513-1.333,5.487,5.487,0,0,0-.284-.521c-.056-.094-.11-.177-.163-.252s-.11-.161-.161-.228a.626.626,0,0,0,.161.035c.032,0,.064.008.091.008a.968.968,0,0,0,.311-.056.619.619,0,0,0,.348-.248.029.029,0,0,0,0-.024.031.031,0,0,0-.016-.016c-.032-.008-.064-.019-.094-.027a.973.973,0,0,1-.233-.08.661.661,0,0,1-.067-.051.548.548,0,0,0,.276-.213.081.081,0,0,0,0-.028.045.045,0,0,0-.019-.019l-.091-.027a1.227,1.227,0,0,1-.308-.139.737.737,0,0,0,.289-.209A.167.167,0,0,1,17.754,13a.03.03,0,0,0,.008-.032c0-.008-.008-.016-.019-.02a1.688,1.688,0,0,1-.5-.181l-.035-.024c.013,0,.024-.011.035-.016a.461.461,0,0,0,.241-.217c0-.008,0-.016,0-.024a.031.031,0,0,0-.02-.016,1.713,1.713,0,0,1-.217-.067A1.739,1.739,0,0,1,17,12.293c.039,0,.078,0,.13,0h.257a.025.025,0,0,0,.027-.024.023.023,0,0,0-.016-.031.88.88,0,0,1-.15-.072h0a4.126,4.126,0,0,1-.663-.5.76.76,0,0,1-.086-.074c-.07-.064-.142-.123-.213-.186a1.492,1.492,0,0,0-.616-.343,1.382,1.382,0,0,0-.939.163.568.568,0,0,0-.28.441.122.122,0,0,0,0,.04.563.563,0,0,0-.138.032l-.04.011a.435.435,0,0,0-.257.233,1.174,1.174,0,0,0,.091.825.035.035,0,0,0,.028.019h0c.011,0,.02-.013.024-.019a.922.922,0,0,1,.122-.292.153.153,0,0,1,.028.019.271.271,0,0,0,.15.043.626.626,0,0,0,.078-.008.742.742,0,0,0,.228-.114l.056.023a.636.636,0,0,0-.048.163.241.241,0,0,0-.106.213c-.08.067-.166.161-.163.249a.25.25,0,0,0,.016.086,5.131,5.131,0,0,0-.213.549,4.578,4.578,0,0,0-.166.717c-.008.051-.011.1-.016.15a4.034,4.034,0,0,0,.182,1.708,3.876,3.876,0,0,0,.675,1.231c.05.063.106.123.161.182a.656.656,0,0,0,.039.221.533.533,0,0,0-.039.316.7.7,0,0,0,.221.469.183.183,0,0,0,.086.027h.016a.69.69,0,0,0,.126.379.879.879,0,0,0-.244.244h-.773a.1.1,0,0,1-.1-.07.457.457,0,0,0-.169-.265.544.544,0,0,0-.324-.11.443.443,0,0,0-.513.288.328.328,0,0,1-.051.088.243.243,0,0,1-.131.051.484.484,0,0,0-.106.024c-.008,0-.013.008-.02.011s0,.016,0,.024c.174.592.529.6.568.6H15.3a.613.613,0,0,0,.62.383h.016a.37.37,0,0,0,.185.055.351.351,0,0,0,.169-.051l.036-.024a.975.975,0,0,0,.118.02.277.277,0,0,0,.181-.064.776.776,0,0,0,.221.035h.024a.808.808,0,0,0,.051.1c.08.142.163.222.252.236a2.163,2.163,0,0,0,.075.217c.056.134.1.166.134.174a.061.061,0,0,0,.024,0,.092.092,0,0,0,.064-.023.812.812,0,0,0,.153-.394c.008,0,.016,0,.027,0a.226.226,0,0,0,.178-.107,1.059,1.059,0,0,0,.059-.11,2.028,2.028,0,0,0,.13-.457c.139-.024.206-.119.206-.3a.316.316,0,0,0-.15-.3v-.078c0-.158-.011-.3-.016-.423a2.637,2.637,0,0,1,.249.6.032.032,0,0,0,.032.027c.011,0,.023-.011.027-.027A2.312,2.312,0,0,0,18.325,18.557Zm-.572-.122a3.446,3.446,0,0,1,.236.359c0,.13.013.323.02.537v.059a.179.179,0,0,0-.059-.013h-.206C17.758,19.047,17.761,18.7,17.754,18.435Zm.072,1.006a.416.416,0,0,0,.008.521H16.641a.409.409,0,0,1-.118-.209.493.493,0,0,1,.131-.311ZM16.535,17.6a.329.329,0,0,0,.019-.063.994.994,0,0,0,.035-.139c.036.048.075.091.115.139s.091.094.134.142a.977.977,0,0,1-.15.39c-.032.048-.094.123-.158.111a.091.091,0,0,1-.067-.051.566.566,0,0,1-.07-.257c.019-.027.039-.051.059-.083.008-.016.016-.032.024-.051a.54.54,0,0,0,.039-.086A.332.332,0,0,0,16.535,17.6Zm-.075.608a.11.11,0,0,0,.063.032h.024a.213.213,0,0,0,.142-.072.542.542,0,0,0,.1.332.462.462,0,0,1-.138.225.079.079,0,0,1-.091,0c-.1-.059-.134-.23-.142-.364C16.436,18.313,16.447,18.261,16.46,18.21Zm.284-.115a1.169,1.169,0,0,0,.146-.366,2.932,2.932,0,0,0,.311.264,1.089,1.089,0,0,1-.1.34.369.369,0,0,1-.106.134.121.121,0,0,1-.127.019.1.1,0,0,1-.024-.016h0A.536.536,0,0,1,16.744,18.1Zm.343-.264-.04-.032,0,0c-.05-.044-.1-.088-.149-.134,0,0,0-.008-.013-.013a1.35,1.35,0,0,1-.1-.11c-.027-.027-.051-.056-.075-.083a1.381,1.381,0,0,1-.106-.126.041.041,0,0,0-.017-.019,4.005,4.005,0,0,1-.343-.537c0-.013,0-.02-.011-.024a5.067,5.067,0,0,1-.462-1.448,8.6,8.6,0,0,0,.757,1.74l.024.031c.035.04.067.083.1.123s.068.078.1.118l.035.043.111.131c.015.016.027.035.043.051.106.126.209.244.307.355l.158.171c-.051-.036-.106-.072-.158-.111l-.015-.011A1.305,1.305,0,0,1,17.087,17.832Zm-.549-.49a1.452,1.452,0,0,1-.043.2c-.016.048-.032.094-.051.142a.215.215,0,0,1-.032.055.222.222,0,0,1-.032.056l0,.011c-.013.016-.024.028-.035.044a.312.312,0,0,1-.1.078.094.094,0,0,1-.09,0,.206.206,0,0,1-.08-.139,1.059,1.059,0,0,1-.023-.252c0-.051,0-.1.007-.15,0-.035.008-.07.013-.1a1.514,1.514,0,0,1,.15-.458A4.118,4.118,0,0,0,16.538,17.342Zm-.418.64a.123.123,0,0,0,.064.016.217.217,0,0,0,.078-.02.414.414,0,0,0,.08-.047.546.546,0,0,0,.067.224.9.9,0,0,1-.048.2c-.048.15-.123.26-.182.272a.055.055,0,0,1-.043-.019l-.011-.016-.008-.008a.45.45,0,0,1-.107-.228.874.874,0,0,1,0-.244c.008-.067.024-.139.036-.206A.181.181,0,0,0,16.12,17.982Zm-.063.62a.165.165,0,0,1-.091.082.133.133,0,0,1-.086,0c-.06-.016-.115-.094-.158-.225a1.611,1.611,0,0,1-.07-.288c.1.07.2.142.3.209A.554.554,0,0,0,16.058,18.6Zm.043.047a.126.126,0,0,0,.051.032.771.771,0,0,0,.052.434.4.4,0,0,0,.07.1.146.146,0,0,1-.1.027.119.119,0,0,1-.075-.059.657.657,0,0,1-.063-.174,1.446,1.446,0,0,1-.035-.276A.231.231,0,0,0,16.1,18.648Zm.153.438a.761.761,0,0,1-.039-.414.352.352,0,0,0,.157-.19.388.388,0,0,0,.163.3.164.164,0,0,0,.07.019.058.058,0,0,0,.024,0c-.011.039-.024.078-.035.106s-.02.064-.032.1a.494.494,0,0,1-.107.169.114.114,0,0,1-.083.032l-.031-.011,0,0A.281.281,0,0,1,16.254,19.086Zm.4-.165a.893.893,0,0,0,.043-.155.51.51,0,0,0,.142-.228l0,0a.226.226,0,0,0,.072.013.156.156,0,0,0,.07-.016.385.385,0,0,0,.088.249.166.166,0,0,0,.055.035.886.886,0,0,1-.335.469.06.06,0,0,1-.059,0c-.047-.027-.091-.126-.114-.283C16.629,18.983,16.641,18.951,16.653,18.921Zm.268.457H16.7c.008-.008.013-.016.02-.024a.094.094,0,0,0,.035,0,.182.182,0,0,0,.059-.011.451.451,0,0,0,.094-.067v.007C16.913,19.315,16.917,19.347,16.921,19.378Zm.765,0h-.706l-.013-.1-.007-.052a1.327,1.327,0,0,0,.224-.394l.013,0h0a.154.154,0,0,0,.043-.008h.008a.084.084,0,0,0,.032-.016.128.128,0,0,0,.04-.024.211.211,0,0,0,.032-.032.307.307,0,0,0,.032-.035.682.682,0,0,0,.047-.091l.024-.047c.008-.02.011-.036.016-.051l.024-.072.011-.048c0-.011,0-.023.008-.035s0-.032.008-.047v-.008c.008-.04.016-.08.02-.107.011,0,.019.011.031.016l.008.008.011.011a1.133,1.133,0,0,1,.1.107C17.707,18.637,17.7,19.015,17.686,19.378Zm-.2-1.175a1.874,1.874,0,0,1-.075.319l-.013.04a.215.215,0,0,1-.015.04.182.182,0,0,1-.028.051v0l0,.008a.42.42,0,0,1-.04.056.143.143,0,0,1-.072.051.154.154,0,0,1-.043.008.125.125,0,0,1-.09-.035.347.347,0,0,1-.072-.238.459.459,0,0,0,.11-.15.507.507,0,0,0,.04-.09.215.215,0,0,0,.019-.056.279.279,0,0,0,.024-.086c0-.016.008-.036.011-.056a.085.085,0,0,0,.008-.035c.075.051.155.1.238.15Zm-.246-.394c-.075-.086-.153-.174-.232-.268-.036-.04-.067-.08-.1-.123-.059-.067-.118-.142-.181-.217-.043-.051-.088-.106-.134-.165l-.024-.028a8.533,8.533,0,0,1-.762-1.76l0-.011-.02-.051c-.011-.043-.032-.11-.067-.228-.008-.067-.016-.134-.019-.2v0c-.008-.052-.013-.1-.016-.155s-.008-.126-.011-.185c-.016-.268-.019-.525-.016-.765.019-.013.043-.02.067-.036a.481.481,0,0,0,.2-.252.2.2,0,0,0,.067.028.137.137,0,0,0,.078.019.14.14,0,0,0,.1-.04c.051.056.114.126.185.2a3.75,3.75,0,0,0,.382.351,3.016,3.016,0,0,1,.268.666l0,0V14.6a.386.386,0,0,1,.016.067.742.742,0,0,1,.015.1.633.633,0,0,1,0,.091v.055c-.043.02-.131-.011-.276-.161a.376.376,0,0,0-.032-.059.406.406,0,0,0-.032-.056.157.157,0,0,0-.019-.035l-.035-.059c-.013-.019-.024-.04-.04-.063.059-.134-.244-.71-.3-.829a.036.036,0,0,0-.027-.013h-.016a.035.035,0,0,0-.013.043,1.888,1.888,0,0,1,.3.774c-.044,0-.123-.024-.246-.155a1.577,1.577,0,0,0-.244-.481.026.026,0,0,0-.039,0c-.013.016-.013.032,0,.04a1.535,1.535,0,0,1,.225.462v0h0a.577.577,0,0,1,.055.256.372.372,0,0,1-.185-.059,1.03,1.03,0,0,0-.3-.457.027.027,0,0,0-.04.008.027.027,0,0,0,0,.039.152.152,0,0,1,.039.032.164.164,0,0,1,.028.027l.035.036a.539.539,0,0,0,.04.059.376.376,0,0,1,.039.059l.008.008c.008.019.02.039.028.059s.024.047.035.067c.019.047.035.094.051.138l0,.016c0,.024.011.043.015.064v.015c0,.016,0,.032.008.044v.055l-.019-.008-.024-.011a.277.277,0,0,1-.047-.027.492.492,0,0,1-.048-.04.9.9,0,0,1-.1-.107l0-.008h0a2.262,2.262,0,0,1-.134-.193.031.031,0,0,0-.043-.011.035.035,0,0,0-.011.027.033.033,0,0,0,0,.016,1.688,1.688,0,0,0,.118.169.129.129,0,0,1,.019.027,1.3,1.3,0,0,0,.463.7.191.191,0,0,0,.063.013.077.077,0,0,0,.056-.02,1.957,1.957,0,0,1,.055.217,1.022,1.022,0,0,1,.036.332c-.2-.04-.482-.6-.576-.817-.008-.011-.024-.019-.035-.011a.025.025,0,0,0-.016.035,3.263,3.263,0,0,0,.232.458,2.2,2.2,0,0,0,.194.8,1.258,1.258,0,0,0,.426.584,1.9,1.9,0,0,0,.165.383,2.345,2.345,0,0,0,.169.236l.193.241c.028.035.056.067.083.1.036.048.072.088.1.126C17.372,17.945,17.308,17.878,17.244,17.808Zm-1.471-5.239c.059-.013.115-.024.174-.04.039.048.086.11.149.177a.209.209,0,0,1-.106.08.494.494,0,0,1-.238,0A.517.517,0,0,0,15.773,12.569Zm.115.288a.417.417,0,0,0,.1-.011.407.407,0,0,0,.048.067.371.371,0,0,1,.019.15.379.379,0,0,1-.043.094.3.3,0,0,1-.118.115.044.044,0,0,0-.019.007.316.316,0,0,1-.313-.059.4.4,0,0,0,.072-.09.129.129,0,0,0-.032-.15.7.7,0,0,0,.107-.11.3.3,0,0,0,.019-.032A.7.7,0,0,0,15.888,12.856Zm.173.332a.322.322,0,0,0,.048-.115.371.371,0,0,0,0-.064.968.968,0,0,0,.064.075.442.442,0,0,1-.04.222c-.019.032-.047.067-.126.032-.024-.013-.043-.02-.067-.032A.414.414,0,0,0,16.061,13.188Zm-.4-.359a.567.567,0,0,1-.1.11.39.39,0,0,0-.063-.04.338.338,0,0,0-.194-.019.058.058,0,0,0,0-.024c.008-.008.016-.011.019-.016a.467.467,0,0,0,.134-.256.1.1,0,0,0,.032,0,2.227,2.227,0,0,0,.233-.016A.317.317,0,0,1,15.659,12.829Zm-.382-.032-.024.024a.233.233,0,0,1-.209.032.336.336,0,0,1-.209-.142.2.2,0,0,1-.008-.059.459.459,0,0,1,.048-.158,2,2,0,0,0,.516.091A.422.422,0,0,1,15.277,12.8Zm.011.142a.316.316,0,0,1,.177.011.354.354,0,0,1,.072.048c.067.056.047.091.039.107a.394.394,0,0,1-.078.1.312.312,0,0,1-.142.074.357.357,0,0,1-.217-.023.228.228,0,0,0,.056-.178A.272.272,0,0,0,15.288,12.939Zm.228.324a.461.461,0,0,0,.257.094.334.334,0,0,0,.094-.016.4.4,0,0,1-.177.221.255.255,0,0,1-.075.04h0a.1.1,0,0,1-.088-.011.379.379,0,0,1-.126-.265A.371.371,0,0,0,15.516,13.263ZM17.6,16.178l-.008.016h0a.072.072,0,0,1-.047.02c-.009,0-.017,0-.025,0l-.008,0s-.007,0-.015,0h0a.09.09,0,0,1-.028-.016.78.78,0,0,1-.225-.264c-.011-.019-.023-.043-.035-.064a.7.7,0,0,1-.055-.114.854.854,0,0,1-.043-.091c-.016-.035-.032-.072-.048-.11a.207.207,0,0,0,.055.019h.008a.049.049,0,0,0,.043-.019c.02-.028.024-.083.016-.2a1.722,1.722,0,0,0-.09-.422.914.914,0,0,0-.016-.244c.051.059.106.13.165.213a.8.8,0,0,1,.064.094c.019.032.043.067.064.1a.805.805,0,0,1,.055.1c.024.048.048.091.072.139a1.4,1.4,0,0,1,.142.509v0A.8.8,0,0,1,17.6,16.178ZM16.412,14.9a.506.506,0,0,0,.284.2l0,.02a1.142,1.142,0,0,1,.088.612.017.017,0,0,1-.02,0c-.106-.019-.213-.158-.256-.221-.019-.091-.043-.19-.07-.276A.876.876,0,0,0,16.412,14.9Zm-.276-.047a.03.03,0,0,0,.032-.024.54.54,0,0,0-.024-.228.464.464,0,0,0,.134.039,1.4,1.4,0,0,1,.044.142v0c.086.311.078.457.039.489-.011.008-.027.008-.056,0a1.02,1.02,0,0,1-.374-.529.381.381,0,0,0,.2.11Zm.241-.088c-.013-.051-.027-.1-.04-.138a.065.065,0,0,0,.013-.016l0-.016,0-.016,0,0a.618.618,0,0,0-.019-.166.342.342,0,0,0,.2.1h.008l.008,0c.019.032.036.059.051.086l.008.013,0,0,.007.016c.008.011.013.024.02.035s.011.024.019.035c.016.028.027.056.04.08.078.153.07.213.063.236a.036.036,0,0,1-.023.019C16.665,15.074,16.53,14.975,16.377,14.769Zm.379.332h0l.016,0a.11.11,0,0,0,.059-.06.249.249,0,0,0-.011-.153.326.326,0,0,0,.193.094.1.1,0,0,0,.039-.008,1.612,1.612,0,0,1,.075.383.391.391,0,0,1,0,.15c-.043,0-.094-.056-.118-.078a2.331,2.331,0,0,1-.225-.284Zm-.41,1.212a2.1,2.1,0,0,1-.181-.679c.106.161.228.291.342.3.008,0,.016,0,.02-.008s.051-.043.011-.276a.41.41,0,0,0,.083.083c.075.2.146.43.2.615.09.335.09.49.063.521a.077.077,0,0,1-.075.028C16.708,16.88,16.527,16.719,16.345,16.313Zm.53.011c-.048-.166-.108-.363-.175-.544a.3.3,0,0,0,.056.019.03.03,0,0,0,.019,0,.068.068,0,0,0,.056-.028c.067-.07.016-.331-.027-.508a2.389,2.389,0,0,0,.161.2l0,0a3.31,3.31,0,0,0,.276.56.042.042,0,0,0,.013.015,1.151,1.151,0,0,1,.013.273v.04a.415.415,0,0,1-.025.11.409.409,0,0,1-.015.048l-.008.011a.214.214,0,0,1-.024.035.146.146,0,0,1-.115.04C17,16.486,16.929,16.387,16.875,16.324Zm.366.276,0-.008a.139.139,0,0,0,.048-.083,6.13,6.13,0,0,1,.778,1.03c.075.123.15.252.217.391,0,.169,0,.339-.008.484a2.156,2.156,0,0,0-.311-.559c-.08-.107-.155-.209-.23-.316-.138-.193-.272-.386-.394-.564-.035-.052-.067-.1-.1-.142s-.082-.118-.122-.174A.194.194,0,0,0,17.241,16.6Zm1.033.939c0,.083.008.174.013.26-.051-.091-.1-.177-.15-.26l-.008-.011,0,0c-.023-.043-.051-.091-.078-.134s-.064-.1-.094-.142a6.345,6.345,0,0,0-.64-.8.934.934,0,0,0,.013-.308.327.327,0,0,0,.217.139h.008a.1.1,0,0,0,.059-.02,2.96,2.96,0,0,1,.343.5,5.358,5.358,0,0,1,.319.71A.528.528,0,0,1,18.274,17.54Zm-.627-1.33a.018.018,0,0,0,.008-.016.74.74,0,0,0,.048-.26,1.465,1.465,0,0,1,.241.687A2.63,2.63,0,0,0,17.647,16.21Zm-.4-1.755a1.567,1.567,0,0,1,.091.145.757.757,0,0,1,.043.067c.024.04.052.083.075.131s.064.11.092.165.063.119.094.182a5.746,5.746,0,0,1,.5,1.322c.011.048.024.086.035.13a4.718,4.718,0,0,1,.078.675,4.373,4.373,0,0,0-.252-.537,1.524,1.524,0,0,0-.307-.907,1.527,1.527,0,0,0-.15-.525,2.561,2.561,0,0,0-.233-.41c-.024-.035-.047-.07-.072-.1a2.039,2.039,0,0,0-.153-.19.257.257,0,0,0-.035-.035,3.026,3.026,0,0,0-.217-.572c.043.031.091.059.13.083a.629.629,0,0,1,.072.086C17.1,14.245,17.169,14.34,17.244,14.455Zm.383-.691a.977.977,0,0,0,.244.088l.051.011a.666.666,0,0,1-.291.19.86.86,0,0,1-.388.043.5.5,0,0,1-.122-.024.2.2,0,0,1-.048-.016c-.024-.008-.04-.016-.059-.024a3.268,3.268,0,0,1-.821-.717.429.429,0,0,0,.035-.163,1.586,1.586,0,0,0,.4.327,1.984,1.984,0,0,0,.612.209h.02a.661.661,0,0,0,.094.008.751.751,0,0,0,.158-.019A.519.519,0,0,0,17.627,13.763Zm.11-.335a.456.456,0,0,0,.051.016.47.47,0,0,1-.268.174h0l-.082.011a.694.694,0,0,1-.182,0h-.013c-.011,0-.027,0-.043-.008a.78.78,0,0,1-.078-.015,1.861,1.861,0,0,1-.363-.131c-.032-.016-.064-.032-.1-.051a1.486,1.486,0,0,1-.434-.371,1.967,1.967,0,0,1-.142-.174c-.016-.019-.027-.035-.043-.056a.185.185,0,0,0,.091-.07,1.677,1.677,0,0,0,.8.517,1.439,1.439,0,0,0,.217.019.944.944,0,0,0,.1-.008.718.718,0,0,0,.134-.024A1.132,1.132,0,0,0,17.738,13.428Zm-.493-.591c.04.019.075.039.119.059s.059.024.094.035h0c.016.008.036.011.056.019a.18.18,0,0,0,.051.016c.04.013.075.024.11.032a.666.666,0,0,1-.3.2l-.07.016-.013,0c-.016,0-.032,0-.048.008a.672.672,0,0,1-.1,0,1.262,1.262,0,0,1-.209-.02,1.854,1.854,0,0,1-.931-.7.838.838,0,0,0,.094-.032,1.134,1.134,0,0,0,.726.343.561.561,0,0,0,.074,0,.944.944,0,0,0,.241-.051A.55.55,0,0,0,17.244,12.837Zm-.173-.442c.027.016.059.027.086.04s.059.024.086.035c.072.027.131.043.166.056a.419.419,0,0,1-.166.138.016.016,0,0,1-.015.008c-.028.011-.06.027-.091.04a1.119,1.119,0,0,1-.244.051.984.984,0,0,1-.73-.3.606.606,0,0,0,.1-.044,1.7,1.7,0,0,0,.24-.134l.048-.039c.024-.02.056-.044.072-.059a.786.786,0,0,0,.24.094.91.91,0,0,0,.123.075A.641.641,0,0,0,17.072,12.395Zm-2.817.056-.008.008a.8.8,0,0,0-.123.24,1.043,1.043,0,0,1-.059-.7.383.383,0,0,1,.221-.2c.008,0,.013,0,.02-.008a.658.658,0,0,1,.193-.04.231.231,0,0,1,.075.013.188.188,0,0,1,.075.031.21.21,0,0,1,.1.139.133.133,0,0,1-.035.118.726.726,0,0,1-.158.134.554.554,0,0,0-.1.072,1.262,1.262,0,0,0-.145.13Zm.489-.059a.548.548,0,0,1-.225.114.2.2,0,0,1-.2-.043,1.059,1.059,0,0,1,.169-.158.473.473,0,0,1,.1-.07.844.844,0,0,0,.174-.142l0-.008a.194.194,0,0,1,.064.161A.225.225,0,0,1,14.743,12.391Zm.067.015a.258.258,0,0,0,.075-.157.28.28,0,0,0-.091-.222.184.184,0,0,0,.013-.1.276.276,0,0,0-.123-.177.461.461,0,0,0-.094-.043A.339.339,0,0,0,14.5,11.7a.132.132,0,0,0,0-.036.53.53,0,0,1,.252-.39,1.346,1.346,0,0,1,.9-.158,1.462,1.462,0,0,1,.588.332c.07.063.142.126.213.185l.036.031a4.447,4.447,0,0,0,.722.552.132.132,0,0,1,.031.016h-.118a.719.719,0,0,1-.485-.106l-.015,0c-.013,0-.016,0-.107.078a.412.412,0,0,0-.043.032,1.63,1.63,0,0,1-.233.134,1.739,1.739,0,0,1-.5.147v0a1.958,1.958,0,0,1-.876-.083A.13.13,0,0,1,14.811,12.406Zm-.035.3a.124.124,0,0,0,.008.028.385.385,0,0,0,.244.177.335.335,0,0,0,.086.008.248.248,0,0,0,.123-.024v.016a.223.223,0,0,1-.091.126.346.346,0,0,1-.252.063.229.229,0,0,1-.169-.225v-.011l0,0A.183.183,0,0,1,14.775,12.706Zm-.1.214a.264.264,0,0,0,.214.24c.019,0,.04,0,.059,0a.409.409,0,0,0,.193-.048.178.178,0,0,1-.07.126.439.439,0,0,1-.268.091.246.246,0,0,1-.222-.161.178.178,0,0,1-.016-.075C14.558,13.05,14.6,12.987,14.672,12.92Zm.388,4.62,0,0-.008-.011a1.366,1.366,0,0,1-.106-.131l-.013-.019c-.019-.024-.04-.051-.059-.078a.583.583,0,0,1-.056-.08c-.019-.027-.035-.055-.055-.083s-.035-.059-.051-.09a.518.518,0,0,1-.051-.088.592.592,0,0,1-.052-.091c-.027-.059-.058-.118-.086-.181-.019-.043-.04-.083-.055-.126l-.008-.016a.621.621,0,0,1-.032-.088.21.21,0,0,0-.013-.027c-.019-.047-.035-.094-.051-.142v0c-.019-.059-.035-.118-.055-.182a1.077,1.077,0,0,1-.032-.126l0-.008c-.02-.086-.036-.174-.052-.26-.008-.048-.016-.091-.023-.134s-.016-.11-.02-.166l-.011-.169v-.008c0-.067-.008-.134-.008-.2h0c0-.072,0-.139.008-.209s.008-.142.016-.214c0-.047.011-.094.019-.142s.019-.126.032-.189l0-.008a1.611,1.611,0,0,1,.04-.19,1.077,1.077,0,0,1,.032-.126v0a4.2,4.2,0,0,1,.248-.691.285.285,0,0,0,.246.142.49.49,0,0,0,.291-.094.446.446,0,0,0,.193.047.325.325,0,0,0,.056,0,.48.48,0,0,0,.155.3.161.161,0,0,0,.082.024h.02c0,.078,0,.173,0,.28v.145c0,.091.008.186.011.289,0,.067.008.145.016.221v.024c.008.07.016.15.024.225s.016.134.024.2a.1.1,0,0,1,0,.032c0,.016,0,.035.008.051.011.078.027.161.043.244s.035.182.056.276c.011.048.024.091.035.138.024.1.051.185.083.281.011.043.028.091.043.134.035.1.072.2.115.3.019.043.039.086.059.126s.04.094.063.139a1.675,1.675,0,0,0-.173.513.33.33,0,0,0-.008.043v.032c0,.016,0,.039,0,.063a.587.587,0,0,0,0,.08.126.126,0,0,0,0,.043,1.376,1.376,0,0,0,.024.257c-.024.1-.043.2-.059.3a.86.86,0,0,0,0,.2,4.541,4.541,0,0,1-.514-.383c-.047-.04-.09-.078-.134-.122a.164.164,0,0,1-.027-.028A2.365,2.365,0,0,1,15.06,17.54Zm.481.54a.392.392,0,0,1-.257-.07.173.173,0,0,1-.047-.075.857.857,0,0,1-.032-.146c.064.059.126.118.19.173A1.833,1.833,0,0,0,15.54,18.08Zm-.146.6a.633.633,0,0,1-.2-.425.6.6,0,0,1,.016-.233.223.223,0,0,0,.032.035.433.433,0,0,0,.292.086h.051a2.026,2.026,0,0,0,.075.324.4.4,0,0,1-.182.228A.1.1,0,0,1,15.395,18.675Zm.13.06a.434.434,0,0,0,.166-.2c.048.115.1.182.169.2a.219.219,0,0,0,.068.011c.007,0,.015,0,.019,0a2.018,2.018,0,0,0,.035.26c-.083.15-.177.2-.281.146a.314.314,0,0,1-.047-.035A.6.6,0,0,1,15.524,18.735Zm-.248,1.227H13.73c-.016,0-.335,0-.5-.533.031,0,.051-.008.07-.011a.3.3,0,0,0,.155-.064.275.275,0,0,0,.074-.11c.056-.122.127-.272.455-.252a.486.486,0,0,1,.327.131.441.441,0,0,1,.114.2.165.165,0,0,0,.155.118h.741a.606.606,0,0,0-.07.26A.765.765,0,0,0,15.277,19.962Zm.067.024a.72.72,0,0,1-.04-.281.525.525,0,0,1,.086-.28.814.814,0,0,1,.241-.249.235.235,0,0,0,.043.028.24.24,0,0,0,.064.023,1.191,1.191,0,0,0-.115.166.618.618,0,0,0-.043.568l0,.008c0,.011.013.024.016.035a1.162,1.162,0,0,0,.249.34A.534.534,0,0,1,15.344,19.986Zm.61.363a.916.916,0,0,1-.3-.367l-.013-.035,0-.008a.54.54,0,0,1,.036-.513,1.259,1.259,0,0,1,.142-.2A.278.278,0,0,0,16,19.086a.5.5,0,0,0,.044.107.882.882,0,0,0-.135.206.644.644,0,0,0-.067.363,1.09,1.09,0,0,0,.067.244.662.662,0,0,0,.343.356A.277.277,0,0,1,15.954,20.348Zm.487,0a.6.6,0,0,1-.115-.024.537.537,0,0,1-.359-.34.823.823,0,0,1-.064-.228.56.56,0,0,1,.064-.332.693.693,0,0,1,.115-.177.156.156,0,0,0,.09.056H16.2a.2.2,0,0,0,.1-.027c-.024.043-.048.09-.064.126a1.614,1.614,0,0,0-.067.177.705.705,0,0,0,.067.43.65.65,0,0,0,.131.182.473.473,0,0,0,.2.13A.225.225,0,0,1,16.441,20.345Zm.441-.032-.007,0h-.013a.691.691,0,0,1-.241-.035.5.5,0,0,1-.221-.134.658.658,0,0,1-.123-.169.649.649,0,0,1-.059-.394,1.268,1.268,0,0,1,.064-.163c.019-.047.051-.11.078-.165h.019a.182.182,0,0,0,.115-.043.585.585,0,0,0,.083-.107.408.408,0,0,0,.094.217c-.019.024-.04.043-.059.07a.548.548,0,0,0-.15.367.535.535,0,0,0,.142.252.15.15,0,0,0,.126.04.113.113,0,0,1,.083.011l.013.013c.015.011.031.019.043.031.059.059.086.107.083.142a.081.081,0,0,1-.032.051A.078.078,0,0,1,16.882,20.313Zm.23.311a.137.137,0,0,1-.04-.032l0,0c-.011-.013-.019-.024-.032-.04s-.019-.024-.027-.035l-.024-.04a.535.535,0,0,1-.059-.11.11.11,0,0,0,.028-.016.142.142,0,0,0,.059-.094.28.28,0,0,0-.1-.185l-.051-.04-.008-.008h.166c.031.166.059.319.091.454.015.064.031.123.043.174A.23.23,0,0,1,17.111,20.625Zm.454.019c-.048.268-.1.359-.139.391a.044.044,0,0,1-.027.011c-.008,0-.011-.008-.024-.015l0,0-.013-.011,0-.008a.153.153,0,0,1-.02-.028.069.069,0,0,0-.016-.023c0-.013-.011-.028-.015-.04a.8.8,0,0,1-.035-.091.5.5,0,0,1-.025-.07c-.007-.02-.015-.048-.023-.075-.016-.059-.032-.131-.052-.206s-.035-.169-.055-.264c0-.028-.013-.059-.016-.091s-.011-.064-.019-.1h.564c0,.059-.008.115-.011.166a.094.094,0,0,0,0,.035c-.008.051-.011.1-.016.142l0,.008c0,.035-.008.07-.013.1C17.584,20.538,17.576,20.593,17.565,20.644Zm.371-.537a.68.68,0,0,1-.02.083,1.266,1.266,0,0,1-.1.284.3.3,0,0,1-.043.075.145.145,0,0,1-.142.083c0-.043.011-.086.019-.131a.078.078,0,0,1,0-.027c.016-.13.036-.284.052-.454h.177l0,0,0,0h0a.13.13,0,0,0,.04,0c.008,0,.011,0,.019,0C17.947,20.053,17.943,20.08,17.935,20.108Zm.225-.394c0,.206-.083.241-.174.249a.337.337,0,0,1-.083,0,.366.366,0,0,1,0-.521h.051a.154.154,0,0,1,.078.016A.254.254,0,0,1,18.16,19.713Zm.161-.359a3.718,3.718,0,0,0-.635-1.092c-.019-.035-.04-.07-.063-.107-.048-.063-.142-.181-.252-.311-.04-.051-.088-.107-.127-.158s-.078-.1-.118-.146c-.024-.032-.047-.059-.067-.086-.031-.044-.063-.083-.086-.115a.721.721,0,0,1-.04-.067,1.639,1.639,0,0,1-.146-.324l.011,0h.024a.134.134,0,0,0,.107-.051c.016-.016.064-.075-.02-.442.032.048.072.1.111.158a.536.536,0,0,1,.039.055c.024.036.048.067.075.1s.067.1.1.153l.007.011a.26.26,0,0,1,.048.067c.115.171.241.351.372.533.086.118.169.236.256.351a2.013,2.013,0,0,1,.347.671v0A2.189,2.189,0,0,1,18.322,19.354Z" transform="translate(-13.16 -11.033)"/></g></g></svg>