<svg xmlns="http://www.w3.org/2000/svg" width="35.153" height="35.153" viewBox="0 0 35.153 35.153"><g transform="translate(0 0)"><path d="M34.307,17.576,6.192,3.519A17.577,17.577,0,0,1,34.307,17.576Z" transform="translate(0.847)" fill="#0bac2f"/><path d="M34.307,15.462A17.567,17.567,0,0,1,6.192,29.52Z" transform="translate(0.847 2.114)" fill="#4289db"/><path d="M35.153,17.153,7.039,31.211a17.728,17.728,0,0,1-4.683-5.268,17.572,17.572,0,0,1,0-17.576A17.783,17.783,0,0,1,7.039,3.1Z" transform="translate(0 0.423)" fill="#e90736"/><path d="M12.327,24.142a1.308,1.308,0,0,0-1.3-1.14,11.951,11.951,0,0,0,4.124-.552,6.96,6.96,0,0,0,1.452-.642,3.773,3.773,0,0,0,.323-.23c.043-.035.281-.193.276-.252a2.733,2.733,0,0,0-1.188-.13c3.271-1.855,3.086-3.227,3.086-3.811a4.217,4.217,0,0,1-1.737,1.846c2.056-2.833,1.59-3.46,1.172-4.245-.209.851-.319,1.006-.62,1.3.995-3.291.131-4.391-.177-4.7.153,1.172-.035,1.5-.177,1.76a7.248,7.248,0,0,0-.529-2.616c-.3-.588-.482-.588-.832-.663a1.877,1.877,0,0,1,.342.706,3.586,3.586,0,0,1,.127,1.282,3.732,3.732,0,0,0-.458-.768,4.731,4.731,0,0,0-.663-.635,6.141,6.141,0,0,1-.62-.872,8.546,8.546,0,0,0-.663-.7,7,7,0,0,0-1.14-.84,2.609,2.609,0,0,0,.2.84,3.111,3.111,0,0,0,.884,1.129c-.324-.032-.738-.462-1.081-.8s-.5-.146-1.1,0a1.329,1.329,0,0,1-.762.035c.118.222.123.19.375.442-.155.075-.394,0-.707-.11.253.612,1.137.77,1.563.77s.6-.06.982-.06.351.06,1.038.391a2.414,2.414,0,0,1-1.164-.04,1.782,1.782,0,0,0,1.52.612c.513,0,.5-.315.784-.146a7.009,7.009,0,0,1,.995,1.5c-.265.118-.648-.228-.817-.6a1.234,1.234,0,0,0-.509-.65c-.055-.032-.063.414-.063.43a2.531,2.531,0,0,0,.078.513,2.357,2.357,0,0,0,.434.923c.206.241.493.391.715.612a3.638,3.638,0,0,0,.259,1.416c.126.332.4.683.5.987a2.79,2.79,0,0,1,.064.888,3.236,3.236,0,0,1-.557-.742,2.252,2.252,0,0,1-.177-1.132c0,.02-.208.2-.236.233a1.224,1.224,0,0,0-.161.272,1.21,1.21,0,0,0-.013.7c.064.241.169.469.217.717a.916.916,0,0,1-.07.6,1.467,1.467,0,0,0-.178.457,4.658,4.658,0,0,0-.09.765c0,.257-.41.64-.41.64a2.911,2.911,0,0,0,0-.809c0,.043-.15.185-.174.217-.1.123-.2.221-.3.332a2.614,2.614,0,0,0-.529.792,6.382,6.382,0,0,1-.316.742,1.524,1.524,0,0,1-1.132.572,5.627,5.627,0,0,0-1.5.544,1.963,1.963,0,0,1-.529.166,2.434,2.434,0,0,1,.206-1.317.916.916,0,0,1,.394-.375c1.8-.332,1.535-1.362,1.4-1.59-.2.383-.331.4-.781.58,1-.883.872-1.514.718-1.768-.091.418-.517.695-.873.936.316-.907,0-.809-.153-.773-.532.3-.765,1.333-.907,1.945a17.147,17.147,0,0,0-.477-2.19c-.091-.513.418-.674.679-.674,1.929.56,1.945-.659,1.913-.95a1.428,1.428,0,0,1-1.42.347c1.282-1.172.6-1.708.4-1.9a1.816,1.816,0,0,1-.971,1.354,3.023,3.023,0,0,1-.043-1.354,3.941,3.941,0,0,0-.643,1.562c.067-2.043.414-1.893.663-1.893,1.665.476,1.934-.576,1.894-.849-.588.442-.655.308-.942.308,1.159-.682.974-1.3.856-1.6-.391.576-.477.517-.856.62a1.347,1.347,0,0,1,.54-.982c-.99-.257-1.2.643-1.416,1.121-.051-.391-.134-.671-.228-1.156.679-1.156-.118-1.488-.418-1.582a1.254,1.254,0,0,0,.019.943c-.853-.439-1.227-.233-1.46,0,.442.473.695.4,1.341.272-.19.41-.588.375-1.081.236a1.094,1.094,0,0,0,1.239.624,2.328,2.328,0,0,1,.153.974c0,.367-.635,1.1-.635,1.1a3.872,3.872,0,0,0-.125-1.034c-.123-.283-.463-.773-.715-.588s.051.62.228.995c-.484-.221-.741-.936-.911-1.258a2.681,2.681,0,0,0,.351,1.91c-.185.185-.525-.292-.648-.415a1.576,1.576,0,0,0,.75,1.472c.268.169.9-.064.9-.064s-.016,1.381.04,2.62a3.318,3.318,0,0,0-1.527-1.385c-.056.4.142.612.521,1.25a6.282,6.282,0,0,1-1.159-.62c0,.552.639,1.092,1.345,1.527a2.655,2.655,0,0,1-1.345-.564c.063,2.1,2.461,1.227,2.461,1.227l.214,2.924c-.623-.138-1.1-.311-1.528-.371-1.372-.276-2.422-2.687-2.422-2.687a2.516,2.516,0,0,1-.13.466,5.04,5.04,0,0,0-.809-1.527A7.627,7.627,0,0,1,5.742,19.4c-.552-.995-.11-1.4.067-2.032A3.27,3.27,0,0,0,5.4,15.625a10.066,10.066,0,0,1-.466,1.46,4,4,0,0,1,.509-2.111,1.484,1.484,0,0,0,.031-.859c-.169.169-.209.406-.462.76,0-1.029.975-1.463,1.314-1.8a1.119,1.119,0,0,0,.332-1.38,9.676,9.676,0,0,0-1.086,1.27c0-.319.166-.552.521-1.1s1.019-.695,2-.808.793-.209,1.033-.446a3.249,3.249,0,0,1-1.076.086s-.142-.316,1.188-.375,1.31-.371,1.412-.583a4.617,4.617,0,0,1-1.693.015,12.271,12.271,0,0,0,2.549-.923c-.934-.647-2.919.514-3.5.829a3.582,3.582,0,0,0,.931-1.164,2.186,2.186,0,0,0-1.385.845,7.381,7.381,0,0,0-1.081,1.436,1.338,1.338,0,0,1-.394.431,2.614,2.614,0,0,0-.647.738A12.551,12.551,0,0,0,5.9,9.754c-.958.426-1.163,1.693-1.163,2.534a7.288,7.288,0,0,1-.194,1.945c0-1.633-.134-1.886-.4-2.355-.722,1.471-.222,3.594.011,4.667a4.2,4.2,0,0,1-.7-1.488c-.663,1.535.817,3.452,1.5,4.337a6.34,6.34,0,0,1-1.961-1.91,2.838,2.838,0,0,0,.926,2.079,12.232,12.232,0,0,0,2.2,1.566c-1.432-.722-1.806-.348-2-.158.04-.04.335.07.383.086a4.517,4.517,0,0,1,.489.19,9.425,9.425,0,0,1,.92.418c.382.2.674.532,1.065.725a3.809,3.809,0,0,0,.65.244,11.063,11.063,0,0,0,2.277.324c.273.016.549.027.824.035A1.337,1.337,0,0,0,9.32,24.142Z" transform="translate(0.409 1.127)" fill="#fec62d"/></g></svg>