<svg xmlns="http://www.w3.org/2000/svg" width="50.425" height="36.236" viewBox="0 0 50.425 36.236"><g transform="translate(0 0)"><path d="M35.285,1.506C12.289,7.94,1.006,23.2,1.006,23.2A13.384,13.384,0,0,1,0,18.12C0,8.111,11.287,0,25.211,0A33.741,33.741,0,0,1,35.285,1.506Z" fill="#cacee6"/><path d="M50.833,54.826A33.192,33.192,0,0,1,39.109,56.9a30.8,30.8,0,0,1-17.749-5.25s12.439-19.5,21.1-19.891c1.034,0-9.173,14.86-5.558,20.544C39.109,55.706,50.833,54.826,50.833,54.826Z" transform="translate(-13.898 -20.665)" fill="#cacee6"/><path d="M81.987,22.492c0,4.485-2.271,8.59-6.029,11.755a.011.011,0,0,0-.007,0c-.2.084-5.425,2.26-9.634-.489-5.037-4.408,4.122-21.176-1.946-21.522S48.172,21.4,48.514,20.77C58.68,9.3,69.034,6.758,69.194,6.72h0C76.834,9.836,81.987,15.729,81.987,22.492Z" transform="translate(-31.561 -4.373)" fill="#cacee6"/></g></svg>