<svg xmlns="http://www.w3.org/2000/svg" width="48.614" height="40.675" viewBox="0 0 48.614 40.675"><path d="M28.329,21.963a2.111,2.111,0,0,1-.26.01H23.091V23.13h5.064c.039,0,.338,0,.4-.01a1.652,1.652,0,0,0,1.5-1.707,1.624,1.624,0,0,0-1.428-1.688,3.756,3.756,0,0,0-.405-.02H24.915a1.7,1.7,0,0,1-.367-.029.485.485,0,0,1-.357-.492.5.5,0,0,1,.367-.482,1.383,1.383,0,0,1,.347-.029h4.775V17.536H24.828a3.191,3.191,0,0,0-.482.029,1.655,1.655,0,0,0-.019,3.27c.173.019.415.019.521.019h3.222a1.653,1.653,0,0,1,.232.01.532.532,0,0,1,.492.559A.54.54,0,0,1,28.329,21.963Zm-9.433,0a2.033,2.033,0,0,1-.251.01H13.658V23.13h5.064c.038,0,.337,0,.4-.01a1.651,1.651,0,0,0,1.5-1.707,1.624,1.624,0,0,0-1.427-1.688,3.763,3.763,0,0,0-.405-.02H15.481a1.692,1.692,0,0,1-.366-.029.485.485,0,0,1-.357-.492.5.5,0,0,1,.366-.482,1.388,1.388,0,0,1,.347-.029h4.775V17.536H15.395a3.191,3.191,0,0,0-.482.029,1.655,1.655,0,0,0-.019,3.27c.173.019.415.019.521.019h3.222a1.653,1.653,0,0,1,.232.01.556.556,0,0,1,.029,1.1ZM9.81,17.5h1.254v5.662H9.81Zm-8.2,0H0v5.662H1.254V18.915l4.205,4.244H7.041V17.5H5.787v4.225Zm39.971,5.662h1.254V18.915l4.2,4.244h1.582V17.5H47.369v4.225L43.193,17.5H41.582ZM35.052,17.5l-3.53,5.662h1.524l.627-1.013h4.119l.627,1.013h1.514L36.4,17.5Zm2.093,3.579H34.319L35.737,18.8ZM6.974,14.285a18.359,18.359,0,0,1,34.686,0l.019.058h5.527v-.665l-2.3-.27a2.241,2.241,0,0,1-2.1-1.582l-.1-.193a20.352,20.352,0,0,0-36.788.019l-.1.193a2.242,2.242,0,0,1-2.1,1.582l-2.3.27v.665H6.945Zm34.7,12.038-.019.058a18.361,18.361,0,0,1-34.686-.01l-.019-.058H1.437v.666l2.3.27a2.241,2.241,0,0,1,2.1,1.582l.1.193a20.348,20.348,0,0,0,36.788.01l.1-.193a2.241,2.241,0,0,1,2.1-1.582l2.3-.27v-.665Z" transform="translate(0 0)" fill="#cacee6"/></svg>