<svg xmlns="http://www.w3.org/2000/svg" width="35.153" height="35.153" viewBox="0 0 35.153 35.153"><g transform="translate(0 0)"><path d="M34.026,11.717H.885A17.666,17.666,0,0,1,11.6,1.006a17.577,17.577,0,0,1,22.43,10.711Z" transform="translate(0.121 0)" fill="#ff0302"/><path d="M34.026,20.616A17.658,17.658,0,0,1,23.314,31.328a17.563,17.563,0,0,1-11.717,0A17.668,17.668,0,0,1,.885,20.616Z" transform="translate(0.121 2.819)" fill="#191994"/><path d="M35.153,16.167a17.39,17.39,0,0,1-1.006,5.859H1.006a17.563,17.563,0,0,1,0-11.717H34.147A17.4,17.4,0,0,1,35.153,16.167Z" transform="translate(0 1.409)" fill="#fff"/><g transform="translate(9.511 4.917)"><g transform="translate(1.232 6.797)"><path d="M9.784,10.638v7.744a6.2,6.2,0,0,0,.048.773,6.323,6.323,0,0,0,.462,1.74,6.523,6.523,0,0,0,.588,1.084l.008.016h1.479V16.319h5.165V13.479H22.7V10.638Zm0,0v7.744a6.2,6.2,0,0,0,.048.773,6.323,6.323,0,0,0,.462,1.74,6.523,6.523,0,0,0,.588,1.084l.008.016a6.692,6.692,0,0,0,.785.951,6.611,6.611,0,0,0,.693.6,6.392,6.392,0,0,0,1.357.782,6.561,6.561,0,0,0,1.223.382V22h-2.58V16.319h5.165V13.479H22.7V10.638Zm6.269,14.2h0Zm-6.269-14.2v7.744a6.2,6.2,0,0,0,.048.773,6.323,6.323,0,0,0,.462,1.74,6.523,6.523,0,0,0,.588,1.084l.008.016a6.692,6.692,0,0,0,.785.951,6.611,6.611,0,0,0,.693.6,6.392,6.392,0,0,0,1.357.782,6.561,6.561,0,0,0,1.223.382,6.811,6.811,0,0,0,1.1.126h.372a6.809,6.809,0,0,0,1.108-.126V22H12.368V16.319h5.165V13.479H22.7V10.638Zm0,0v7.744a6.2,6.2,0,0,0,.048.773,6.323,6.323,0,0,0,.462,1.74,6.523,6.523,0,0,0,.588,1.084l.008.016a6.692,6.692,0,0,0,.785.951,6.611,6.611,0,0,0,.693.6,6.392,6.392,0,0,0,1.357.782,6.561,6.561,0,0,0,1.223.382,6.811,6.811,0,0,0,1.1.126h.372a6.809,6.809,0,0,0,1.108-.126,6.539,6.539,0,0,0,2.58-1.164,6.145,6.145,0,0,0,.69-.6A6.261,6.261,0,0,0,21.589,22l.011-.016a6.441,6.441,0,0,0,.588-1.084,6.323,6.323,0,0,0,.462-1.74,6.2,6.2,0,0,0,.048-.773V10.638Zm0,0v7.744a6.2,6.2,0,0,0,.048.773,6.323,6.323,0,0,0,.462,1.74,6.523,6.523,0,0,0,.588,1.084l.008.016a6.692,6.692,0,0,0,.785.951,6.611,6.611,0,0,0,.693.6,6.392,6.392,0,0,0,1.357.782,6.561,6.561,0,0,0,1.223.382,6.811,6.811,0,0,0,1.1.126h.372a6.809,6.809,0,0,0,1.108-.126,6.539,6.539,0,0,0,2.58-1.164,6.145,6.145,0,0,0,.69-.6A6.261,6.261,0,0,0,21.589,22l.011-.016a6.441,6.441,0,0,0,.588-1.084,6.323,6.323,0,0,0,.462-1.74,6.2,6.2,0,0,0,.048-.773V10.638Zm0,0v7.744a6.2,6.2,0,0,0,.048.773,6.323,6.323,0,0,0,.462,1.74,6.523,6.523,0,0,0,.588,1.084l.008.016a6.692,6.692,0,0,0,.785.951,6.611,6.611,0,0,0,.693.6,6.392,6.392,0,0,0,1.357.782,6.561,6.561,0,0,0,1.223.382,6.811,6.811,0,0,0,1.1.126h.372a6.809,6.809,0,0,0,1.108-.126,6.539,6.539,0,0,0,2.58-1.164,6.145,6.145,0,0,0,.69-.6A6.261,6.261,0,0,0,21.589,22l.011-.016a6.441,6.441,0,0,0,.588-1.084,6.323,6.323,0,0,0,.462-1.74,6.2,6.2,0,0,0,.048-.773V10.638Zm0,0v7.744a6.2,6.2,0,0,0,.048.773,6.323,6.323,0,0,0,.462,1.74,6.523,6.523,0,0,0,.588,1.084l.008.016a6.692,6.692,0,0,0,.785.951,6.611,6.611,0,0,0,.693.6,6.392,6.392,0,0,0,1.357.782,6.561,6.561,0,0,0,1.223.382,6.811,6.811,0,0,0,1.1.126h.372a6.809,6.809,0,0,0,1.108-.126,6.539,6.539,0,0,0,2.58-1.164,6.145,6.145,0,0,0,.69-.6A6.261,6.261,0,0,0,21.589,22l.011-.016a6.441,6.441,0,0,0,.588-1.084,6.323,6.323,0,0,0,.462-1.74,6.2,6.2,0,0,0,.048-.773V10.638Zm0,0v7.744a6.2,6.2,0,0,0,.048.773,6.323,6.323,0,0,0,.462,1.74,6.523,6.523,0,0,0,.588,1.084l.008.016a6.692,6.692,0,0,0,.785.951,6.611,6.611,0,0,0,.693.6,6.392,6.392,0,0,0,1.357.782,6.561,6.561,0,0,0,1.223.382,6.811,6.811,0,0,0,1.1.126h.372a6.809,6.809,0,0,0,1.108-.126,6.539,6.539,0,0,0,2.58-1.164,6.145,6.145,0,0,0,.69-.6A6.261,6.261,0,0,0,21.589,22l.011-.016a6.441,6.441,0,0,0,.588-1.084,6.323,6.323,0,0,0,.462-1.74,6.2,6.2,0,0,0,.048-.773V10.638Zm0,0v7.744a6.2,6.2,0,0,0,.048.773,6.323,6.323,0,0,0,.462,1.74,6.523,6.523,0,0,0,.588,1.084l.008.016a6.692,6.692,0,0,0,.785.951,6.611,6.611,0,0,0,.693.6,6.392,6.392,0,0,0,1.357.782,6.561,6.561,0,0,0,1.223.382,6.811,6.811,0,0,0,1.1.126h.372a6.809,6.809,0,0,0,1.108-.126,6.539,6.539,0,0,0,2.58-1.164,6.145,6.145,0,0,0,.69-.6A6.261,6.261,0,0,0,21.589,22l.011-.016a6.441,6.441,0,0,0,.588-1.084,6.323,6.323,0,0,0,.462-1.74,6.2,6.2,0,0,0,.048-.773V10.638Zm0,0v7.744a6.2,6.2,0,0,0,.048.773,6.323,6.323,0,0,0,.462,1.74,6.523,6.523,0,0,0,.588,1.084l.008.016a6.692,6.692,0,0,0,.785.951,6.611,6.611,0,0,0,.693.6,6.392,6.392,0,0,0,1.357.782,6.561,6.561,0,0,0,1.223.382,6.811,6.811,0,0,0,1.1.126h.372a6.809,6.809,0,0,0,1.108-.126,6.539,6.539,0,0,0,2.58-1.164,6.145,6.145,0,0,0,.69-.6A6.261,6.261,0,0,0,21.589,22l.011-.016a6.441,6.441,0,0,0,.588-1.084,6.323,6.323,0,0,0,.462-1.74,6.2,6.2,0,0,0,.048-.773V10.638Zm0,0v7.744a6.2,6.2,0,0,0,.048.773,6.323,6.323,0,0,0,.462,1.74,6.523,6.523,0,0,0,.588,1.084l.008.016a6.692,6.692,0,0,0,.785.951,6.611,6.611,0,0,0,.693.6,6.392,6.392,0,0,0,1.357.782,6.561,6.561,0,0,0,1.223.382,6.811,6.811,0,0,0,1.1.126h.372a6.809,6.809,0,0,0,1.108-.126,6.539,6.539,0,0,0,2.58-1.164,6.145,6.145,0,0,0,.69-.6A6.261,6.261,0,0,0,21.589,22l.011-.016a6.441,6.441,0,0,0,.588-1.084,6.323,6.323,0,0,0,.462-1.74,6.2,6.2,0,0,0,.048-.773V10.638Zm0,0v7.744a6.2,6.2,0,0,0,.048.773,6.323,6.323,0,0,0,.462,1.74,6.523,6.523,0,0,0,.588,1.084l.008.016a6.692,6.692,0,0,0,.785.951,6.611,6.611,0,0,0,.693.6,6.392,6.392,0,0,0,1.357.782,6.561,6.561,0,0,0,1.223.382,6.811,6.811,0,0,0,1.1.126h.372a6.809,6.809,0,0,0,1.108-.126,6.539,6.539,0,0,0,2.58-1.164,6.145,6.145,0,0,0,.69-.6A6.261,6.261,0,0,0,21.589,22l.011-.016a6.441,6.441,0,0,0,.588-1.084,6.323,6.323,0,0,0,.462-1.74,6.2,6.2,0,0,0,.048-.773V10.638Zm0,0v7.744a6.2,6.2,0,0,0,.048.773,6.323,6.323,0,0,0,.462,1.74,6.523,6.523,0,0,0,.588,1.084l.008.016a6.692,6.692,0,0,0,.785.951,6.611,6.611,0,0,0,.693.6,6.392,6.392,0,0,0,1.357.782,6.561,6.561,0,0,0,1.223.382,6.811,6.811,0,0,0,1.1.126h.372a6.809,6.809,0,0,0,1.108-.126V22H12.368V16.319h5.165V13.479H22.7V10.638Zm0,0v7.744a6.2,6.2,0,0,0,.048.773,6.323,6.323,0,0,0,.462,1.74,6.523,6.523,0,0,0,.588,1.084l.008.016a6.692,6.692,0,0,0,.785.951,6.611,6.611,0,0,0,.693.6V16.319h5.165V13.479H22.7V10.638Zm0,0v7.744a6.2,6.2,0,0,0,.048.773h2.536V16.319h5.165V13.479H22.7V10.638Z" transform="translate(-9.405 -10.259)" fill="#ff0302"/><path d="M9.451,10.3v8.123a6.771,6.771,0,0,0,1.022,3.6.064.064,0,0,1,.011.016,6.833,6.833,0,0,0,11.6,0l.008-.016a6.725,6.725,0,0,0,1.025-3.6V10.3ZM23,18.428a6.788,6.788,0,0,1-.252,1.835,8.132,8.132,0,0,1-.276.778,6.95,6.95,0,0,1-.517.986l-.008.016a6.858,6.858,0,0,1-.915,1.132,7.021,7.021,0,0,1-.867.734,6.806,6.806,0,0,1-1.263.7,7.1,7.1,0,0,1-.768.272,6.841,6.841,0,0,1-3.682,0,7.088,7.088,0,0,1-.773-.272,6.777,6.777,0,0,1-1.259-.7,7.417,7.417,0,0,1-.872-.734,6.716,6.716,0,0,1-.911-1.132l-.008-.016a6.616,6.616,0,0,1-.517-.986,7.554,7.554,0,0,1-.276-.778,6.788,6.788,0,0,1-.252-1.835V10.435H23Z" transform="translate(-9.451 -10.305)" fill="#ff0302"/><path d="M9.562,10.419v7.993a6.788,6.788,0,0,0,.252,1.835,7.554,7.554,0,0,0,.276.778,6.616,6.616,0,0,0,.517.986l.008.016a6.716,6.716,0,0,0,.911,1.132,7.417,7.417,0,0,0,.872.734,6.777,6.777,0,0,0,1.259.7,7.088,7.088,0,0,0,.773.272,6.841,6.841,0,0,0,3.682,0,7.1,7.1,0,0,0,.768-.272,6.806,6.806,0,0,0,1.263-.7,7.021,7.021,0,0,0,.867-.734,6.858,6.858,0,0,0,.915-1.132l.008-.016a6.95,6.95,0,0,0,.517-.986,8.132,8.132,0,0,0,.276-.778,6.788,6.788,0,0,0,.252-1.835V10.419Zm13.166,7.993a6.2,6.2,0,0,1-.048.773,6.323,6.323,0,0,1-.462,1.74,6.44,6.44,0,0,1-.588,1.084l-.011.016a6.261,6.261,0,0,1-.785.951,6.145,6.145,0,0,1-.69.6,6.539,6.539,0,0,1-2.58,1.164,6.809,6.809,0,0,1-1.108.126h-.372a6.811,6.811,0,0,1-1.1-.126,6.561,6.561,0,0,1-1.223-.382,6.392,6.392,0,0,1-1.357-.782,6.611,6.611,0,0,1-.693-.6,6.692,6.692,0,0,1-.785-.951l-.008-.016a6.523,6.523,0,0,1-.588-1.084,6.323,6.323,0,0,1-.462-1.74,6.2,6.2,0,0,1-.048-.773V10.668H22.728Z" transform="translate(-9.436 -10.289)" fill="#fff"/><path d="M22.694,10.638v7.744a6.205,6.205,0,0,1-.044.773,6.323,6.323,0,0,1-.462,1.74,6.712,6.712,0,0,1-.6,1.1,6.493,6.493,0,0,1-.789.951,6.145,6.145,0,0,1-.69.6,6.381,6.381,0,0,1-1.361.785,6.7,6.7,0,0,1-1.22.379,6.809,6.809,0,0,1-1.108.126h-.372a6.753,6.753,0,0,1-1.1-.126,6.576,6.576,0,0,1-1.219-.379,6.279,6.279,0,0,1-1.362-.785,6.611,6.611,0,0,1-.693-.6A6.415,6.415,0,0,1,10.293,20.9a6.323,6.323,0,0,1-.462-1.74,6.2,6.2,0,0,1-.048-.773V10.638Z" transform="translate(-9.405 -10.259)" fill="#fff"/><path d="M22.694,10.638v7.744a6.205,6.205,0,0,1-.044.773,6.323,6.323,0,0,1-.462,1.74,6.712,6.712,0,0,1-.6,1.1,6.493,6.493,0,0,1-.789.951,6.145,6.145,0,0,1-.69.6,6.381,6.381,0,0,1-1.361.785,6.7,6.7,0,0,1-1.22.379,6.809,6.809,0,0,1-1.108.126h-.372a6.753,6.753,0,0,1-1.1-.126,6.576,6.576,0,0,1-1.219-.379,6.279,6.279,0,0,1-1.362-.785,6.611,6.611,0,0,1-.693-.6A6.415,6.415,0,0,1,10.293,20.9a6.323,6.323,0,0,1-.462-1.74,6.2,6.2,0,0,1-.048-.773V10.638Z" transform="translate(-9.405 -10.259)" fill="#fff"/><g transform="translate(0.379 0.378)"><rect width="2.584" height="2.841" fill="#ff0302"/><rect width="2.58" height="2.841" transform="translate(2.584)" fill="#fff"/><rect width="2.584" height="2.841" transform="translate(5.164)" fill="#ff0302"/><rect width="2.58" height="2.841" transform="translate(7.749)" fill="#fff"/><rect width="2.58" height="2.841" transform="translate(10.329)" fill="#ff0302"/></g><g transform="translate(0.379 3.219)"><rect width="2.584" height="2.837" fill="#fff"/><rect width="2.58" height="2.837" transform="translate(2.584)" fill="#ff0302"/><rect width="2.584" height="2.837" transform="translate(5.164)" fill="#fff"/><rect width="2.58" height="2.837" transform="translate(7.749)" fill="#ff0302"/><rect width="2.58" height="2.837" transform="translate(10.329)" fill="#fff"/></g><g transform="translate(0.379 6.055)"><path d="M12.368,15.632v2.841H9.832a6.2,6.2,0,0,1-.048-.773V15.632Z" transform="translate(-9.784 -15.632)" fill="#ff0302"/><rect width="2.58" height="2.841" transform="translate(2.584 0)" fill="#fff"/><rect width="2.584" height="2.841" transform="translate(5.165 0)" fill="#ff0302"/><rect width="2.58" height="2.841" transform="translate(7.749 0)" fill="#fff"/><path d="M21.451,15.632V17.7a6.205,6.205,0,0,1-.044.773H18.871V15.632Z" transform="translate(-8.542 -15.632)" fill="#ff0302"/></g><g transform="translate(0.426 8.896)"><path d="M12.362,18.131v2.841H10.883a6.456,6.456,0,0,1-1.057-2.841Z" transform="translate(-9.826 -18.131)" fill="#fff"/><rect width="2.58" height="2.841" transform="translate(2.537 0)" fill="#ff0302"/><rect width="2.584" height="2.841" transform="translate(5.117 0)" fill="#fff"/><rect width="2.58" height="2.841" transform="translate(7.701 0)" fill="#ff0302"/><path d="M21.407,18.131a6.323,6.323,0,0,1-.462,1.74,6.712,6.712,0,0,1-.6,1.1H18.871V18.131Z" transform="translate(-8.589 -18.131)" fill="#fff"/></g><g transform="translate(1.483 11.737)"><path d="M12.235,20.63v1.55a6.611,6.611,0,0,1-.693-.6,6.4,6.4,0,0,1-.785-.951Z" transform="translate(-10.756 -20.63)" fill="#ff0302"/><path d="M14.637,20.63v2.714a6.576,6.576,0,0,1-1.219-.379,6.279,6.279,0,0,1-1.362-.785V20.63Z" transform="translate(-10.578 -20.63)" fill="#fff"/><path d="M16.912,20.63v2.714a6.809,6.809,0,0,1-1.108.126h-.372a6.753,6.753,0,0,1-1.1-.126V20.63Z" transform="translate(-10.268 -20.63)" fill="#ff0302"/><path d="M19.181,20.63v1.55a6.381,6.381,0,0,1-1.361.785,6.7,6.7,0,0,1-1.22.379V20.63Z" transform="translate(-9.957 -20.63)" fill="#fff"/><path d="M20.35,20.63a6.493,6.493,0,0,1-.789.951,6.145,6.145,0,0,1-.69.6V20.63Z" transform="translate(-9.647 -20.63)" fill="#ff0302"/></g></g><g transform="translate(12.034 1.132)"><path d="M19.6,7.458l-.181-.027-.056.233.15.019a8.68,8.68,0,0,1,2.568.821l.123.064.091-.222-.155-.078A8.58,8.58,0,0,0,19.6,7.458Z" transform="translate(-18.898 -5.033)" fill="#fff"/><path d="M21.763,5.321l-1.965.77-.382,1.629.181.027a8.58,8.58,0,0,1,2.541.809l.155.078.627-1.55Z" transform="translate(-18.891 -5.321)" fill="#0993db"/><path d="M19.235,8.411l-.017,0-.264,1.116c.454.111.883.241,1.294.38q.658.225,1.231.473l.446-1.1h0A8.507,8.507,0,0,0,19.235,8.411Z" transform="translate(-18.954 -4.899)" fill="#0993db"/><path d="M19.535,7.655l-.15-.019-.15.642.051.008a8.535,8.535,0,0,1,2.659.849l.032.019.249-.615L22.1,8.476A8.68,8.68,0,0,0,19.535,7.655Z" transform="translate(-18.916 -5.004)" fill="#ff0302"/><path d="M19.293,8.209,19.242,8.2l-.056.233.017,0a8.507,8.507,0,0,1,2.689.859h0l.091-.221-.032-.019A8.535,8.535,0,0,0,19.293,8.209Z" transform="translate(-18.922 -4.927)" fill="#fff"/></g><g transform="translate(3.193 0.339)"><path d="M12.588,4.623,11.176,6.185l1.645-.256,1.586-.249Z" transform="translate(-11.176 -4.623)" fill="#191994"/><path d="M14.411,5.558l0,0-.46.028a12.032,12.032,0,0,0-2.273.35l-.5.127h0l.225.97,1.589-.248,1.5-.233Z" transform="translate(-11.176 -4.496)" fill="#ff0302"/><path d="M14.462,6.428l-.315.016a12.17,12.17,0,0,0-2.384.363l-.39.1.221.931L13.13,7.6l1.4-.217Z" transform="translate(-11.149 -4.376)" fill="#191994"/><path d="M14.508,7.268l-.158.008a11.868,11.868,0,0,0-2.5.374l-.281.075.217.928,1.483-.228,1.314-.206Z" transform="translate(-11.122 -4.261)" fill="#ff0302"/><path d="M14.556,8.1h0A11.926,11.926,0,0,0,11.92,8.5l-.161.04L12,9.564c.454-.114.923-.213,1.412-.291.4-.064.8-.111,1.223-.147Z" transform="translate(-11.096 -4.147)" fill="#191994"/></g><g transform="translate(0.068 0.07)"><path d="M20.178,6.186l-.907,3.853A16.722,16.722,0,0,0,16.639,9.6l.3-3.917,1.823-1.062Z" transform="translate(-7.304 -4.355)" fill="#191994"/><path d="M17.3,5.717,17,9.634c-.438-.035-.884-.055-1.338-.055s-.9.019-1.333.055l-.3-3.917,1.637-1.33Z" transform="translate(-7.662 -4.387)" fill="#0993db"/><path d="M12.456,9.944a15.749,15.749,0,0,0-2.521.853L8.427,7.084,9.588,5.321l1.964.77Z" transform="translate(-8.427 -4.259)" fill="#0993db"/></g><path d="M24.489,7.18,23.333,5.417a.076.076,0,0,0-.083-.024l-1.921.75L19.948,4.616A.069.069,0,0,0,19.86,4.6L18.078,5.638l-1.6-1.3a.079.079,0,0,0-.091,0l-1.6,1.3L13.008,4.6a.069.069,0,0,0-.088.015l-1.38,1.528-1.922-.75a.075.075,0,0,0-.083.024L8.379,7.18a.071.071,0,0,0-.007.067l1.5,3.709v0h0l0,.013h0l0,.008,0,0,.008.008h0l.008,0,0,0H9.93l.013,0h0l.008,0h.008l0,0h0a15.807,15.807,0,0,1,2.513-.849,16.113,16.113,0,0,1,2.62-.433h0c.441-.04.888-.059,1.329-.059s.884.019,1.333.059a16.492,16.492,0,0,1,2.62.433A16.21,16.21,0,0,1,22.9,11h0l.008,0h.04l0,0h0l0,0,0,0h0l0,0,0,0,0,0,0,0,0,0v-.008l0,0h0L24.5,7.247A.082.082,0,0,0,24.489,7.18ZM23.4,9.575l-.091.222-.422,1.045a16.5,16.5,0,0,0-2.467-.832h0a16.794,16.794,0,0,0-2.644-.438h0c-.449-.04-.9-.056-1.341-.056s-.891.016-1.337.056h0a16.826,16.826,0,0,0-2.639.438h0a15.993,15.993,0,0,0-2.47.829l-1.46-3.61,1.1-1.685,1.91.75a.1.1,0,0,0,.015,0h.028l.008,0,0,0,.013,0v0l.008-.008h0l.064-.067.011-.011,1.3-1.445,1.68.979.02.013.075.043h0l.008,0,.008,0h.039l.008,0,0,0h.008l0,0,0,0,1.589-1.29,1.595,1.29v0h.007l0,0,0,0,.008,0h.032l.013,0,.015,0h0L19.881,4.75l1.377,1.523.008.008,0,0,.013.008h0l.008,0h.028a.1.1,0,0,1,.015,0l1.911-.75,1.1,1.685-.613,1.511-.091.222Z" transform="translate(-8.367 -4.325)" fill="#fff"/><g transform="translate(1.192 2.26)"><path d="M10.607,6.992l-.26-.221.064-.335V6.428H10.4l-.321.115-.256-.225a.012.012,0,0,0-.02,0l-.059.335-.319.11-.008.008,0,.008.256.225-.063.332,0,.011h.008l.319-.114.257.224h.011l.008-.008.06-.331.323-.11L10.612,7Z" transform="translate(-9.416 -6.313)" fill="#f6da24"/><path d="M10.607,6.992l-.26-.221.064-.335V6.428H10.4l-.321.115-.256-.225a.012.012,0,0,0-.02,0l-.059.335-.319.11-.008.008,0,.008.256.225-.063.332,0,.011h.008l.319-.114.257.224h.011l.008-.008.06-.331.323-.11L10.612,7Zm-.28-.221-.3.107.359-.415Zm-.244-.209.3-.107-.355.415Zm-.016,0-.056.311-.181-.517Zm-.249-.2L10,6.873l-.236-.209Zm-.063.319.24.2-.54-.107Zm-.3.11.537.1-.3.1Zm.244.221L10,6.9l-.355.418Zm.244.209h0l-.292.1L10,6.905Zm.013,0,.059-.308.177.517Zm.248.206-.181-.517.236.209Zm.064-.321-.236-.2.537.1Zm-.236-.213.3-.107.241.206Z" transform="translate(-9.416 -6.313)"/><path d="M11.328,7.559A.988.988,0,0,1,9.483,8.2a.99.99,0,0,0,1.964-.185A1.054,1.054,0,0,0,11.328,7.559Z" transform="translate(-9.407 -6.143)" fill="#fff"/></g><g transform="translate(13.797 2.26)"><path d="M21.7,6.775l-.008-.008-.321-.11-.063-.335a.008.008,0,0,0-.016,0l-.256.225-.321-.115H20.7l0,.008.067.335-.26.221V7l0,.008.323.11.059.331.008.008h.013l.252-.224.324.114H21.5V7.339l-.064-.332.257-.225Z" transform="translate(-20.505 -6.313)" fill="#f6da24"/><path d="M21.7,6.775l-.008-.008-.321-.11-.063-.335a.008.008,0,0,0-.016,0l-.256.225-.321-.115H20.7l0,.008.067.335-.26.221V7l0,.008.323.11.059.331.008.008h.013l.252-.224.324.114H21.5V7.339l-.064-.332.257-.225Zm-.04,0-.537.107.236-.2Zm-.367-.417.059.307-.236.209Zm-.008,0L21.1,6.87l-.055-.311Zm-.252.209h0l.063.308-.358-.415Zm-.3-.1.355.415-.292-.107Zm.055.319.3.107-.537.1ZM20.545,7l.537-.1-.241.2Zm.363.423-.055-.308.236-.209Zm.013,0,.177-.517.059.308Zm.248-.209-.059-.311.36.414Zm.308.1L21.117,6.9l.3.11Zm-.059-.324-.3-.1.537-.1Z" transform="translate(-20.505 -6.313)"/></g><g transform="translate(12.893 3.884)"><path d="M19.873,7.779a.449.449,0,0,1-.1.027c-.016,0-.072,0-.059.035a.242.242,0,0,0,.193.094c.031.028.11.123.1.15a.708.708,0,0,1-.185.028c-.036-.008-.083-.028-.091-.008a.1.1,0,0,0,.094.094.411.411,0,0,1,.23-.019.447.447,0,0,1,.193.1c-.067.024-.1.043-.131.019s-.094-.043-.1-.016.047.08.094.083.019.024.048.02.28.023.327-.028.158.051.225.059.035.008.035.008a.071.071,0,0,1-.067.04c-.047,0-.147-.04-.142,0a.105.105,0,0,0,.11.078.173.173,0,0,0,.107-.031.457.457,0,0,0,.134,0,.281.281,0,0,1,.139-.016c.042.013.173.134.259.15.052.032.04.078.017.083s-.088.048,0,.075a.145.145,0,0,0,.106-.048c.013-.019.04-.016.032-.035s-.051-.04-.063-.078.019-.088-.072-.111a.1.1,0,0,1-.059-.094c0-.019,0-.063-.027-.091a.246.246,0,0,1,.169.059.461.461,0,0,0,.268.115c.091-.011.118-.051.1-.091a.352.352,0,0,0-.264-.11.785.785,0,0,1-.319-.091.426.426,0,0,0-.284-.086.958.958,0,0,1-.415-.072,1.438,1.438,0,0,0-.307-.114c-.072-.008-.1-.051-.094-.072s0-.086-.044-.083-.086-.059-.122-.067S19.873,7.779,19.873,7.779Z" transform="translate(-19.709 -7.742)"/><path d="M20.431,8.249a.671.671,0,0,1,.15-.013.35.35,0,0,1,.233.134,1.024,1.024,0,0,1-.249-.043.785.785,0,0,0-.15-.07C20.4,8.257,20.431,8.249,20.431,8.249Z" transform="translate(-19.613 -7.675)" fill="#fff"/></g><g transform="translate(6.728 1.637)"><path d="M15.4,6.739a.19.19,0,0,0-.07-.106c.153-.044.15-.147.15-.15l0-.008-.008,0a.738.738,0,0,1-.118,0,.372.372,0,0,0,.111-.273l0-.008h-.011a.182.182,0,0,1-.08.024,1.047,1.047,0,0,0-.11.024c0-.059.083-.177.139-.252a.765.765,0,0,0,.047-.067.029.029,0,0,0,0-.035c-.013-.013-.036,0-.083.023a.084.084,0,0,0-.032.016.133.133,0,0,0-.118.056c-.056-.024-.1,0-.142.051a.056.056,0,0,0-.019-.048c0-.008-.013-.008-.02-.011a.06.06,0,0,0,0-.059h0l-.134-.147h-.008v0l0,0h0l-.13.147h0a.06.06,0,0,0,0,.059.057.057,0,0,0-.024.011.056.056,0,0,0-.019.048c-.043-.051-.088-.075-.142-.051a.134.134,0,0,0-.118-.056.093.093,0,0,0-.032-.016c-.043-.023-.072-.035-.083-.023s0,.027.008.035a.611.611,0,0,0,.043.067.672.672,0,0,1,.139.252,1.045,1.045,0,0,0-.115-.024c-.032-.008-.064-.011-.075-.024H14.31L14.3,6.2a.4.4,0,0,0,.114.273.748.748,0,0,1-.118,0l-.008,0,0,.008s0,.106.15.15a.177.177,0,0,0-.067.106c-.013.032-.019.048-.04.056s-.016.008-.016.016,0,.011.011.019a.253.253,0,0,0,.19,0,.17.17,0,0,0-.04.141l0,.008h.008l.11-.015a.432.432,0,0,0-.019.082.154.154,0,0,1-.013.044l0,.011.011.008a.348.348,0,0,0,.161-.024.228.228,0,0,0,.009.115l0,.011.008.008h.008a.776.776,0,0,0,.059-.07.138.138,0,0,1,.047.075.013.013,0,0,0,.013.011l.011-.011a.141.141,0,0,1,.048-.075c.011.016.035.047.055.07h.013l.008-.008,0-.011a.265.265,0,0,0,.007-.115.355.355,0,0,0,.166.024l.008-.008,0-.011a.229.229,0,0,1-.011-.044.27.27,0,0,0-.019-.082l.114.015h.008l0-.008a.178.178,0,0,0-.043-.141.25.25,0,0,0,.189,0c.013-.008.013-.016.013-.019s0-.013-.016-.016S15.406,6.771,15.4,6.739Z" transform="translate(-14.286 -5.765)" fill="#f6da24"/><path d="M15.4,6.739a.19.19,0,0,0-.07-.106c.153-.044.15-.147.15-.15l0-.008-.008,0a.738.738,0,0,1-.118,0,.372.372,0,0,0,.111-.273l0-.008h-.011a.182.182,0,0,1-.08.024,1.047,1.047,0,0,0-.11.024c0-.059.083-.177.139-.252a.765.765,0,0,0,.047-.067.029.029,0,0,0,0-.035c-.013-.013-.036,0-.083.023a.084.084,0,0,0-.032.016.133.133,0,0,0-.118.056c-.056-.024-.1,0-.142.051a.056.056,0,0,0-.019-.048c0-.008-.013-.008-.02-.011a.06.06,0,0,0,0-.059h0l-.134-.147h-.008v0l0,0h0l-.13.147h0a.06.06,0,0,0,0,.059.057.057,0,0,0-.024.011.056.056,0,0,0-.019.048c-.043-.051-.088-.075-.142-.051a.134.134,0,0,0-.118-.056.093.093,0,0,0-.032-.016c-.043-.023-.072-.035-.083-.023s0,.027.008.035a.611.611,0,0,0,.043.067.672.672,0,0,1,.139.252,1.045,1.045,0,0,0-.115-.024c-.032-.008-.064-.011-.075-.024H14.31L14.3,6.2a.4.4,0,0,0,.114.273.748.748,0,0,1-.118,0l-.008,0,0,.008s0,.106.15.15a.177.177,0,0,0-.067.106c-.013.032-.019.048-.04.056s-.016.008-.016.016,0,.011.011.019a.253.253,0,0,0,.19,0,.17.17,0,0,0-.04.141l0,.008h.008l.11-.015a.432.432,0,0,0-.019.082.154.154,0,0,1-.013.044l0,.011.011.008a.348.348,0,0,0,.161-.024.228.228,0,0,0,.009.115l0,.011.008.008h.008a.776.776,0,0,0,.059-.07.138.138,0,0,1,.047.075.013.013,0,0,0,.013.011l.011-.011a.141.141,0,0,1,.048-.075c.011.016.035.047.055.07h.013l.008-.008,0-.011a.265.265,0,0,0,.007-.115.355.355,0,0,0,.166.024l.008-.008,0-.011a.229.229,0,0,1-.011-.044.27.27,0,0,0-.019-.082l.114.015h.008l0-.008a.178.178,0,0,0-.043-.141.25.25,0,0,0,.189,0c.013-.008.013-.016.013-.019s0-.013-.016-.016S15.406,6.771,15.4,6.739Zm-.055.091a.212.212,0,0,1-.123-.035h-.011v.016a.071.071,0,0,0,.019.031.151.151,0,0,1,.04.123c-.091-.011-.1-.019-.118-.032h-.011l0,.016a.351.351,0,0,1,.032.107.2.2,0,0,0,.008.04c-.118,0-.147-.028-.153-.036l-.013,0c-.008,0-.008.008-.008.011A.235.235,0,0,1,15,7.2l-.051-.067-.008,0h-.008a.532.532,0,0,0-.051.072.663.663,0,0,0-.051-.072h-.008l-.008,0-.051.067a.235.235,0,0,1,0-.131l-.008-.011-.011,0c0,.008-.036.036-.155.036,0-.008,0-.024.008-.04a.483.483,0,0,1,.032-.107l0-.016h-.013c-.016.013-.024.02-.118.032a.151.151,0,0,1,.039-.123l.02-.031V6.795h-.013a.242.242,0,0,1-.2.019c.032-.011.04-.04.051-.07a.151.151,0,0,1,.08-.107l.007-.011-.007-.008c-.135-.028-.158-.1-.158-.123a1.294,1.294,0,0,0,.134,0s.007,0,.011-.011l-.008-.008a.372.372,0,0,1-.123-.252.266.266,0,0,0,.067.015c.036.008.08.016.126.028h.008l0,0c.016-.067-.075-.193-.139-.284-.019-.027-.039-.051-.047-.063l0-.013c.013,0,.04.016.056.024s.024.013.035.02h0a.124.124,0,0,1,.11.055l.011,0c.048-.028.083-.008.142.063l.013,0,0-.013A.105.105,0,0,1,14.727,6c.008-.008.02-.008.036,0a.011.011,0,0,0,.011-.008l0-.011a.044.044,0,0,1-.016-.056l.126-.134.126.134c0,.008.016.036-.016.056l0,.011C14.988,6,15,6,15,6s.027-.008.035,0,.016.02.013.059c0,0,0,.008.008.013l.011,0c.056-.07.091-.091.138-.063l.013,0a.122.122,0,0,1,.11-.055h0l.036-.02.055-.024,0,.013-.043.063c-.083.115-.158.222-.142.284l0,0h.008c.048-.013.091-.02.123-.028a.228.228,0,0,0,.07-.015.37.37,0,0,1-.122.252l0,.008c0,.008,0,.008.008.011a1.3,1.3,0,0,0,.134,0c0,.024-.024.094-.153.123l-.013.008.009.011a.17.17,0,0,1,.078.107c.011.031.019.059.051.07A.174.174,0,0,1,15.343,6.83Z" transform="translate(-14.286 -5.765)"/><path d="M14.771,6.373l.008,0,.008,0,0-.011a.236.236,0,0,0-.155-.075c-.008,0-.011,0-.011.008l.008.011S14.736,6.317,14.771,6.373Z" transform="translate(-14.24 -5.694)"/><path d="M14.794,6.475a.012.012,0,0,0,0-.016l-.016,0a.1.1,0,0,0-.028.106c0,.008,0,.008.008.008h0s.008,0,.008-.011A.08.08,0,0,1,14.794,6.475Z" transform="translate(-14.222 -5.671)"/><path d="M14.785,6.753l.008,0a.01.01,0,0,0,0-.016c-.016-.008-.094-.055-.1-.055a.01.01,0,0,0-.017,0s0,.013.008.013l.1.059Z" transform="translate(-14.233 -5.641)"/><path d="M14.779,6.785c.008,0,.013,0,.013-.008l0-.011-.086-.04c-.008,0-.011,0-.016,0s0,.011.008.016l.083.035Z" transform="translate(-14.231 -5.634)"/><path d="M14.851,6.373l.008,0,.008,0a.22.22,0,0,1,.139-.067l.008-.011c0-.008,0-.013-.013-.008a.222.222,0,0,0-.15.075Z" transform="translate(-14.209 -5.694)"/><path d="M15.107,6.327c-.019.016-.043.035-.07.055a.383.383,0,0,1-.1.048c-.032,0-.051,0-.064-.008a.089.089,0,0,1-.016-.043.265.265,0,0,1,.035-.115l0-.016c-.008,0-.011,0-.016,0a.336.336,0,0,0-.027.067.434.434,0,0,0-.027-.067l-.013,0c-.008,0-.008.013,0,.016a.257.257,0,0,1,.027.115c0,.024,0,.035-.011.043s-.028.013-.064.008a.383.383,0,0,1-.1-.048.551.551,0,0,1-.072-.055h-.016v.016a.875.875,0,0,0,.075.055l0,.008c.016.032.047.088.083.091h.008c.019,0,.035-.016.051-.048a.063.063,0,0,0,.043-.011c.008,0,.011-.011.016-.019a.034.034,0,0,0,.016.019.077.077,0,0,0,.043.011c.016.032.032.048.051.048h0c.044,0,.075-.059.088-.091l.008-.008a.617.617,0,0,0,.07-.055V6.327Zm-.394.138a.115.115,0,0,1-.039-.047.244.244,0,0,0,.039.019Zm.26,0a.075.075,0,0,0,0-.027.125.125,0,0,0,.043-.019A.1.1,0,0,1,14.973,6.464Z" transform="translate(-14.248 -5.699)"/><path d="M14.913,6.822a.092.092,0,0,1-.07-.013c-.009,0-.009-.011-.009-.019h0V6.715l.013,0h0c.027,0,.067-.013.075-.052a.038.038,0,0,0-.016-.043.068.068,0,0,0-.066,0l0,.013c0,.008.011.008.016,0a.042.042,0,0,1,.043,0c.008,0,.008.013.008.024s-.032.027-.059.035h0c-.033.008-.076.008-.088-.024a.061.061,0,0,1,0-.039c0-.008,0-.013-.008-.013s-.011,0-.011.008a.1.1,0,0,0,0,.056.075.075,0,0,0,.072.04l0,0V6.79h0c0,.008,0,.016-.007.019a.1.1,0,0,1-.072.013.012.012,0,0,0-.011.011s0,.008.011.013h.019a.108.108,0,0,0,.067-.02l0,0,.008,0a.035.035,0,0,0,.024.016h0c0,.013-.024.019-.051.019h0l-.008.008c0,.008,0,.013.008.013h0c.035,0,.059-.013.066-.032v0h.048l.008-.013A.012.012,0,0,0,14.913,6.822Z" transform="translate(-14.227 -5.65)"/><path d="M14.945,6.678s-.084.047-.1.055a.01.01,0,0,0,0,.016l.008,0h0l.1-.059c.008,0,.008-.008.008-.013A.009.009,0,0,0,14.945,6.678Z" transform="translate(-14.21 -5.641)"/><path d="M14.932,6.726l-.083.04c-.008,0-.008.008-.008.011l.011.008,0,0,.088-.035s.007-.008,0-.016A.012.012,0,0,0,14.932,6.726Z" transform="translate(-14.21 -5.634)"/><path d="M15.148,6.187a2.011,2.011,0,0,0-.308-.019,1.878,1.878,0,0,0-.3.031l0,0,0,0h0a1.876,1.876,0,0,1,.3-.027,1.94,1.94,0,0,1,.3.016l.008,0Z" transform="translate(-14.252 -5.71)"/><path d="M15.171,6.173a1.26,1.26,0,0,0-.327-.04,1.3,1.3,0,0,0-.307.043l0,.008,0,0h0a1.19,1.19,0,0,1,.307-.043,1.467,1.467,0,0,1,.324.036l.008,0Z" transform="translate(-14.252 -5.715)"/><path d="M15.214,6.066l0,0a2.049,2.049,0,0,0-.382-.019,2.462,2.462,0,0,0-.34.035l0,0,.007,0h0a2.269,2.269,0,0,1,.336-.035,2.389,2.389,0,0,1,.382.019Z" transform="translate(-14.259 -5.727)"/><path d="M15.159,6.091l.007,0-.007,0a2.487,2.487,0,0,0-.3-.016,2.392,2.392,0,0,0-.339.035l0,.008,0,0h0a2.393,2.393,0,0,1,.339-.036A1.975,1.975,0,0,1,15.159,6.091Z" transform="translate(-14.255 -5.724)"/><path d="M14.81,5.876l-.008,0,0,0-.044.056v.011l.051.051.008,0h0l0,0,.04-.059V5.924Zm0,.094-.039-.035.031-.035.033.032Z" transform="translate(-14.222 -5.75)"/><g transform="translate(0.091 0.489)"><g transform="translate(0.891 0.044)"><path d="M15.153,6.372l0,0v0c.016-.024.035-.043.051-.067a.726.726,0,0,0,.048-.059l.008,0v.007l-.048.06c-.019.023-.035.047-.056.067Z" transform="translate(-15.15 -6.234)"/></g><g transform="translate(0.003 0.005)"><path d="M14.53,6.266h0a.258.258,0,0,0-.032-.024.309.309,0,0,0-.123-.035l0,0,0,0a.275.275,0,0,1,.127.04.059.059,0,0,1,.031.023v0Z" transform="translate(-14.369 -6.199)"/></g><g transform="translate(0.019 0.032)"><path d="M14.5,6.3h0a.405.405,0,0,1-.063-.032l-.059-.035v0l0,0c.02.016.04.027.059.04a.358.358,0,0,0,.064.027V6.3Z" transform="translate(-14.383 -6.223)"/></g><g transform="translate(0.015 0.099)"><path d="M14.5,6.373h0a.136.136,0,0,1-.067-.019.163.163,0,0,1-.056-.067l0,0h0a.126.126,0,0,0,.051.064.115.115,0,0,0,.064.019l0,0Z" transform="translate(-14.379 -6.282)"/></g><g transform="translate(0 0.265)"><path d="M14.369,6.444l0,0,0,0c.04,0,.075,0,.11,0a.306.306,0,0,1,.056,0l0,0,0,0H14.48c-.035,0-.07,0-.11.008Z" transform="translate(-14.366 -6.428)"/></g><g transform="translate(0.067 0.289)"><path d="M14.428,6.48l0,0,0,0a.406.406,0,0,0,.064-.008.328.328,0,0,0,.051-.016h0l0,.008c-.016,0-.032.011-.051.016a.4.4,0,0,1-.064.007Z" transform="translate(-14.425 -6.449)"/></g><g transform="translate(0.094 0.332)"><path d="M14.452,6.617h0l0,0c.011-.019.024-.043.035-.059a.228.228,0,0,1,.048-.064l0,0v.008a.688.688,0,0,0-.047.063.244.244,0,0,0-.032.056Z" transform="translate(-14.449 -6.487)"/></g><g transform="translate(0.019 0.391)"><path d="M14.386,6.665h0l0-.008a.3.3,0,0,0,.123-.067.363.363,0,0,0,.051-.051h0v0a.3.3,0,0,1-.052.056.345.345,0,0,1-.126.067Z" transform="translate(-14.383 -6.539)"/></g><g transform="translate(0.114 0.442)"><path d="M14.466,6.67h0V6.662c.032-.019.064-.035.1-.051a.531.531,0,0,1,.07-.027h0v0c-.023.007-.047.019-.07.027a.758.758,0,0,0-.094.055Z" transform="translate(-14.466 -6.584)"/></g><g transform="translate(0.149 0.529)"><path d="M14.5,6.779h0v0c.02-.024.04-.043.064-.067l.048-.048h0v.008l-.048.048a.833.833,0,0,0-.063.064Z" transform="translate(-14.497 -6.66)"/></g><g transform="translate(0.201 0.541)"><path d="M14.546,6.778h0v0a.181.181,0,0,0,.055-.056.178.178,0,0,0,.027-.047h0v0a.134.134,0,0,1-.024.048.253.253,0,0,1-.059.056Z" transform="translate(-14.543 -6.671)"/></g><g transform="translate(0.256 0.635)"><path d="M14.6,6.872h0l0-.008a.663.663,0,0,1,.027-.075.233.233,0,0,1,.02-.035h0v0a.241.241,0,0,1-.019.031.353.353,0,0,0-.024.08Z" transform="translate(-14.591 -6.754)"/></g><g transform="translate(0.283 0.651)"><path d="M14.62,6.883h0v0c.008-.016.016-.035.024-.051s.013-.04.016-.056l0,0,0,0a.2.2,0,0,1-.019.056.211.211,0,0,1-.024.056Z" transform="translate(-14.615 -6.768)"/></g><g transform="translate(0.28 0.738)"><path d="M14.615,6.911h0l0-.008a.121.121,0,0,0,.052-.023.159.159,0,0,0,.023-.036H14.7v0a.386.386,0,0,1-.028.035.142.142,0,0,1-.056.027Z" transform="translate(-14.612 -6.844)"/></g><g transform="translate(0.828)"><path d="M15.094,6.251V6.243a.266.266,0,0,1,.075-.035A.338.338,0,0,1,15.26,6.2l0,0,0,0a.229.229,0,0,0-.091.013.34.34,0,0,0-.07.031Z" transform="translate(-15.094 -6.195)"/></g><g transform="translate(0.856 0.02)"><path d="M15.122,6.3h0v0a.293.293,0,0,1,.051-.048.3.3,0,0,1,.118-.039l0,0,0,0a.256.256,0,0,0-.115.039.318.318,0,0,0-.051.044Z" transform="translate(-15.119 -6.213)"/></g><g transform="translate(0.867 0.257)"><path d="M15.251,6.425h-.122l0,0h.118l0,0Z" transform="translate(-15.129 -6.421)"/></g><g transform="translate(0.872 0.273)"><path d="M15.136,6.467l0,0,0,0c.016,0,.032,0,.048,0a.417.417,0,0,0,.078-.019h0v.008a.759.759,0,0,1-.083.016c-.016,0-.032,0-.048.008Z" transform="translate(-15.133 -6.435)"/></g><g transform="translate(0.851 0.308)"><path d="M15.12,6.522h0V6.514A.167.167,0,0,0,15.2,6.49a.092.092,0,0,0,.027-.024h.008v0a.316.316,0,0,1-.032.027A.164.164,0,0,1,15.12,6.522Z" transform="translate(-15.115 -6.466)"/></g><g transform="translate(0.84 0.454)"><path d="M15.227,6.669h0a.275.275,0,0,1-.078-.031A.167.167,0,0,1,15.1,6.6V6.594h0a.236.236,0,0,0,.043.04.221.221,0,0,0,.075.027l0,0Z" transform="translate(-15.105 -6.594)"/></g><g transform="translate(0.776 0.49)"><path d="M15.22,6.677h0a.306.306,0,0,1-.083-.016.258.258,0,0,1-.083-.032l0,0h0a.561.561,0,0,0,.083.031.3.3,0,0,0,.083.013l0,0Z" transform="translate(-15.049 -6.626)"/></g><g transform="translate(0.781 0.581)"><path d="M15.123,6.8h0a.149.149,0,0,1-.039-.031.109.109,0,0,1-.032-.056v0l0,0a.218.218,0,0,0,.032.051.124.124,0,0,0,.04.027v0Z" transform="translate(-15.053 -6.706)"/></g><g transform="translate(0.746 0.627)"><path d="M15.108,6.8h0a.2.2,0,0,1-.064-.032.086.086,0,0,1-.023-.019v0h0c.008.008.016.013.024.02a.229.229,0,0,0,.059.027l0,0Z" transform="translate(-15.022 -6.747)"/></g><g transform="translate(0.84 0.407)"><path d="M15.235,6.652h0a.154.154,0,0,0-.056-.059.141.141,0,0,0-.067-.032l0,0,0,0a.226.226,0,0,1,.072.032.207.207,0,0,1,.059.063v0Z" transform="translate(-15.105 -6.553)"/></g><g transform="translate(0.698 0.671)"><path d="M15.05,6.932l0,0c-.013-.019-.019-.043-.032-.063L14.98,6.79v0h.008a.252.252,0,0,0,.035.075.37.37,0,0,0,.032.064l0,0Z" transform="translate(-14.98 -6.785)"/></g><g transform="translate(0.658 0.699)"><path d="M15.028,6.928l0,0a.2.2,0,0,1-.056-.051.215.215,0,0,1-.024-.059l0,0,0,0c0,.019.013.035.019.056a.261.261,0,0,0,.056.051l0,0Z" transform="translate(-14.945 -6.81)"/></g><g transform="translate(0.626 0.75)"><path d="M15,6.922h0L14.961,6.9a.21.21,0,0,1-.044-.04v0h.008a.432.432,0,0,0,.04.039.188.188,0,0,0,.035.02v.008Z" transform="translate(-14.917 -6.855)"/></g><g transform="translate(0.583 0.793)"><path d="M14.907,6.992l0,0c0-.011,0-.019,0-.032s-.013-.039-.02-.059l0,0,0,0a.306.306,0,0,1,.016.059.069.069,0,0,1,.008.032l0,0Z" transform="translate(-14.879 -6.893)"/></g><g transform="translate(0.505 0.789)"><path d="M14.813,6.984h0l0,0a.1.1,0,0,0,.011-.039.175.175,0,0,0-.008-.048v0h.008a.1.1,0,0,1,0,.052.129.129,0,0,1-.008.039Z" transform="translate(-14.81 -6.889)"/></g><g transform="translate(0.402 0.789)"><path d="M14.723,6.98h0l0,0a.128.128,0,0,0,0-.035.17.17,0,0,0,0-.048l0,0h0l0,0c0,.016,0,.032,0,.048s0,.023,0,.035Z" transform="translate(-14.72 -6.889)"/></g><g transform="translate(0.462 0.797)"><path d="M14.8,6.979l0,0a.05.05,0,0,1-.016-.032.092.092,0,0,1,0-.043l0,0V6.9a.1.1,0,0,0,0,.036.072.072,0,0,0,.016.031v.008Z" transform="translate(-14.773 -6.896)"/></g></g><g transform="translate(1.487)"><path d="M16.7,6.739a.2.2,0,0,0-.067-.106c.155-.044.15-.147.15-.15l0-.008-.008,0a.748.748,0,0,1-.118,0,.371.371,0,0,0,.11-.273l0-.008H16.75a.193.193,0,0,1-.078.024,1.045,1.045,0,0,0-.115.024A.686.686,0,0,1,16.7,5.99a.476.476,0,0,0,.043-.067c.008-.008.016-.024.008-.035s-.04,0-.083.023a.161.161,0,0,0-.035.016.138.138,0,0,0-.118.056c-.055-.024-.094,0-.139.051,0-.024-.008-.04-.019-.048a.052.052,0,0,0-.024-.011.071.071,0,0,0,0-.059h0L16.2,5.768H16.19v0l0,0h0l-.135.147h0a.06.06,0,0,0,0,.059.057.057,0,0,0-.024.011c-.011.008-.016.024-.019.048-.04-.051-.083-.075-.139-.051a.136.136,0,0,0-.118-.056.084.084,0,0,0-.032-.016c-.047-.023-.07-.035-.082-.023a.027.027,0,0,0,0,.035.346.346,0,0,0,.048.067.738.738,0,0,1,.138.252,1.045,1.045,0,0,0-.115-.024.221.221,0,0,1-.078-.024s0,0-.011,0l0,.008a.4.4,0,0,0,.115.273.738.738,0,0,1-.118,0l-.008,0,0,.008s0,.106.15.15a.19.19,0,0,0-.07.106c-.008.032-.016.048-.036.056s-.016.008-.016.016,0,.011.009.019a.26.26,0,0,0,.193,0,.178.178,0,0,0-.044.141l0,.008h.008l.115-.015a.43.43,0,0,0-.024.082.154.154,0,0,1-.013.044v.011l.008.008a.373.373,0,0,0,.166-.024.245.245,0,0,0,.008.115l0,.011.009.008h.007a.624.624,0,0,0,.059-.07c.02.023.048.055.048.075a.013.013,0,0,0,.011.011l.013-.011a.161.161,0,0,1,.043-.075c.011.016.04.047.059.07h.011l0-.008,0-.011a.2.2,0,0,0,.008-.115.373.373,0,0,0,.166.024l.011-.008,0-.011a.131.131,0,0,1-.011-.044.538.538,0,0,0-.02-.082l.11.015h.008l0-.008a.166.166,0,0,0-.04-.141.253.253,0,0,0,.19,0,.022.022,0,0,0,.011-.019c0-.008-.008-.013-.019-.016S16.715,6.771,16.7,6.739Z" transform="translate(-15.594 -5.765)" fill="#f6da24"/><path d="M16.7,6.739a.2.2,0,0,0-.067-.106c.155-.044.15-.147.15-.15l0-.008-.008,0a.748.748,0,0,1-.118,0,.371.371,0,0,0,.11-.273l0-.008H16.75a.193.193,0,0,1-.078.024,1.045,1.045,0,0,0-.115.024A.686.686,0,0,1,16.7,5.99a.476.476,0,0,0,.043-.067c.008-.008.016-.024.008-.035s-.04,0-.083.023a.161.161,0,0,0-.035.016.138.138,0,0,0-.118.056c-.055-.024-.094,0-.139.051,0-.024-.008-.04-.019-.048a.052.052,0,0,0-.024-.011.071.071,0,0,0,0-.059h0L16.2,5.768H16.19v0l0,0h0l-.135.147h0a.06.06,0,0,0,0,.059.057.057,0,0,0-.024.011c-.011.008-.016.024-.019.048-.04-.051-.083-.075-.139-.051a.136.136,0,0,0-.118-.056.084.084,0,0,0-.032-.016c-.047-.023-.07-.035-.082-.023a.027.027,0,0,0,0,.035.346.346,0,0,0,.048.067.738.738,0,0,1,.138.252,1.045,1.045,0,0,0-.115-.024.221.221,0,0,1-.078-.024s0,0-.011,0l0,.008a.4.4,0,0,0,.115.273.738.738,0,0,1-.118,0l-.008,0,0,.008s0,.106.15.15a.19.19,0,0,0-.07.106c-.008.032-.016.048-.036.056s-.016.008-.016.016,0,.011.009.019a.26.26,0,0,0,.193,0,.178.178,0,0,0-.044.141l0,.008h.008l.115-.015a.43.43,0,0,0-.024.082.154.154,0,0,1-.013.044v.011l.008.008a.373.373,0,0,0,.166-.024.245.245,0,0,0,.008.115l0,.011.009.008h.007a.624.624,0,0,0,.059-.07c.02.023.048.055.048.075a.013.013,0,0,0,.011.011l.013-.011a.161.161,0,0,1,.043-.075c.011.016.04.047.059.07h.011l0-.008,0-.011a.2.2,0,0,0,.008-.115.373.373,0,0,0,.166.024l.011-.008,0-.011a.131.131,0,0,1-.011-.044.538.538,0,0,0-.02-.082l.11.015h.008l0-.008a.166.166,0,0,0-.04-.141.253.253,0,0,0,.19,0,.022.022,0,0,0,.011-.019c0-.008-.008-.013-.019-.016S16.715,6.771,16.7,6.739Zm-.051.091a.2.2,0,0,1-.122-.035h-.013l0,.016a.18.18,0,0,0,.024.031.168.168,0,0,1,.04.123c-.1-.011-.107-.019-.118-.032h-.017v.016a.317.317,0,0,1,.028.107.256.256,0,0,0,.011.04c-.118,0-.15-.028-.158-.036l-.008,0c-.008,0-.008.008-.008.011a.273.273,0,0,1,0,.131c-.027-.032-.051-.067-.051-.067l-.008,0h-.008a.336.336,0,0,0-.051.072.532.532,0,0,0-.051-.072h-.011l-.008,0s-.024.035-.048.067a.247.247,0,0,1,0-.131l-.007-.011-.013,0c-.008.008-.04.036-.155.036a.2.2,0,0,1,.009-.04.257.257,0,0,1,.031-.107l0-.016h-.013c-.015.013-.027.02-.122.032a.169.169,0,0,1,.043-.123.3.3,0,0,1,.019-.031l0-.016h-.013a.242.242,0,0,1-.2.019.088.088,0,0,0,.051-.07.17.17,0,0,1,.083-.107l0-.011-.008-.008c-.13-.028-.153-.1-.157-.123a1.371,1.371,0,0,0,.138,0s.008,0,.008-.011l0-.008a.337.337,0,0,1-.123-.252.227.227,0,0,0,.067.015l.126.028h.008l0,0c.016-.067-.075-.193-.142-.284l-.043-.063L15.645,5.9l.059.024a.194.194,0,0,1,.032.02h0a.119.119,0,0,1,.11.055s.008,0,.016,0c.047-.028.083-.008.138.063l.013,0,.008-.013c0-.039,0-.055.011-.059s.019-.008.035,0,.008,0,.013-.008l0-.011a.039.039,0,0,1-.015-.056l.125-.134.123.134a.042.042,0,0,1-.011.056l0,.011C16.3,6,16.3,6,16.308,6s.028-.008.033,0,.015.02.011.059l.008.013.011,0c.059-.07.094-.091.142-.063l.011,0a.124.124,0,0,1,.11-.055h0a.258.258,0,0,0,.032-.02l.059-.024,0,.013a.629.629,0,0,0-.047.063c-.083.115-.155.222-.139.284l0,0h.008c.047-.013.09-.02.122-.028a.306.306,0,0,0,.072-.015.362.362,0,0,1-.126.252l0,.008c0,.008,0,.008.008.011.048,0,.111,0,.139,0,0,.024-.027.094-.158.123l-.008.008,0,.011a.156.156,0,0,1,.083.107.087.087,0,0,0,.052.07A.194.194,0,0,1,16.651,6.83Z" transform="translate(-15.594 -5.765)"/><path d="M16.081,6.373l.008,0,.008,0V6.361a.236.236,0,0,0-.155-.075s-.008,0-.011.008a.012.012,0,0,0,.011.011A.228.228,0,0,1,16.081,6.373Z" transform="translate(-15.548 -5.694)"/><path d="M16.1,6.475s0-.008,0-.016l-.011,0a.1.1,0,0,0-.032.106c0,.008.008.008.013.008h0s.008,0,.008-.011C16.072,6.5,16.1,6.475,16.1,6.475Z" transform="translate(-15.531 -5.671)"/><path d="M16.093,6.753l.008,0,0-.016c-.016-.008-.1-.055-.1-.055s-.013,0-.016,0l0,.013s.064.035.1.059Z" transform="translate(-15.541 -5.641)"/><path d="M16.089,6.785l.011-.008-.008-.011-.086-.04-.013,0c0,.008,0,.011,0,.016l.086.035Z" transform="translate(-15.54 -5.634)"/><path d="M16.161,6.373l0,0,.013,0a.209.209,0,0,1,.138-.067l.008-.011c0-.008-.008-.013-.011-.008a.236.236,0,0,0-.155.075Z" transform="translate(-15.517 -5.694)"/><path d="M16.416,6.327c-.02.016-.043.035-.072.055a.4.4,0,0,1-.106.048c-.032,0-.051,0-.064-.008s-.011-.019-.011-.043a.293.293,0,0,1,.031-.115l0-.016-.016,0a.47.47,0,0,0-.024.067c-.011-.035-.027-.064-.027-.067l-.016,0,0,.016a.227.227,0,0,1,.031.115c0,.024,0,.035-.011.043s-.032.013-.064.008a.453.453,0,0,1-.106-.048.471.471,0,0,1-.067-.055h-.016v.016a.617.617,0,0,0,.07.055l0,.008c.016.032.047.088.086.091h.008c.016,0,.035-.016.051-.048a.077.077,0,0,0,.043-.011.03.03,0,0,0,.016-.019l.013.019a.077.077,0,0,0,.043.011c.016.032.035.048.056.048h0c.04,0,.07-.059.086-.091l0-.008a.372.372,0,0,0,.07-.055V6.327Zm-.394.138a.123.123,0,0,1-.043-.047.231.231,0,0,0,.043.019C16.022,6.445,16.017,6.456,16.022,6.464Zm.26,0a.058.058,0,0,0,0-.027.277.277,0,0,0,.044-.019A.127.127,0,0,1,16.282,6.464Z" transform="translate(-15.556 -5.699)"/><path d="M16.218,6.822a.087.087,0,0,1-.067-.013.021.021,0,0,1-.013-.019h0V6.715a.033.033,0,0,0,.016,0h0c.027,0,.072-.013.075-.052s0-.039-.011-.043a.07.07,0,0,0-.067,0l0,.013c0,.008.008.008.016,0a.036.036,0,0,1,.04,0,.019.019,0,0,1,.008.024c0,.024-.028.027-.059.035h0c-.036.008-.075.008-.088-.024a.041.041,0,0,1,0-.039c0-.008,0-.013-.008-.013s-.013,0-.013.008a.091.091,0,0,0,0,.056.073.073,0,0,0,.07.04l0,0V6.79h0a.03.03,0,0,1-.008.019.1.1,0,0,1-.072.013.01.01,0,0,0-.011.011l.008.013h.024a.1.1,0,0,0,.064-.02l.007,0,0,0a.073.073,0,0,0,.024.016h0c0,.013-.024.019-.052.019h0c-.007,0-.011,0-.011.008a.011.011,0,0,0,.011.013h0c.036,0,.064-.013.072-.032v0h.043c.008,0,.013-.008.008-.013S16.226,6.822,16.218,6.822Z" transform="translate(-15.535 -5.65)"/><path d="M16.253,6.678c-.008,0-.088.047-.1.055l0,.016.011,0h0c.035-.024.094-.056.1-.059l0-.013C16.265,6.674,16.256,6.674,16.253,6.678Z" transform="translate(-15.519 -5.641)"/><path d="M16.24,6.726l-.086.04,0,.011.007.008,0,0,.086-.035c.008,0,.008-.008.008-.016Z" transform="translate(-15.518 -5.634)"/><path d="M16.452,6.187a2.011,2.011,0,0,0-.308-.019,1.809,1.809,0,0,0-.3.031l0,0,0,0h0a1.844,1.844,0,0,1,.3-.027,2.006,2.006,0,0,1,.308.016l0,0Z" transform="translate(-15.56 -5.71)"/><path d="M16.476,6.173a1.257,1.257,0,0,0-.326-.04,1.36,1.36,0,0,0-.308.043l0,.008.008,0h0a1.146,1.146,0,0,1,.3-.043,1.487,1.487,0,0,1,.326.036l0,0Z" transform="translate(-15.561 -5.715)"/><path d="M16.522,6.066l0,0a2.061,2.061,0,0,0-.383-.019,2.375,2.375,0,0,0-.339.035l0,0,0,0h0a2.221,2.221,0,0,1,.339-.035,2.347,2.347,0,0,1,.379.019Z" transform="translate(-15.567 -5.727)"/><path d="M16.467,6.091l0,0,0,0a2.53,2.53,0,0,0-.308-.016,2.5,2.5,0,0,0-.339.035l0,.008.008,0h0a2.4,2.4,0,0,1,.335-.036A1.99,1.99,0,0,1,16.467,6.091Z" transform="translate(-15.564 -5.724)"/><path d="M16.119,5.876l-.009,0-.008,0-.043.056v.011l.056.051.008,0,.008,0,.035-.059V5.924Zm0,.094-.04-.035.032-.035.032.032Z" transform="translate(-15.53 -5.75)"/><g transform="translate(0.091 0.489)"><g transform="translate(0.888 0.044)"><path d="M16.46,6.372v0l0,0c.019-.024.04-.043.056-.067l.047-.059,0,0v.007a.737.737,0,0,1-.048.06c-.016.023-.035.047-.051.067Z" transform="translate(-16.455 -6.234)"/></g><g transform="translate(0.005 0.005)"><path d="M15.835,6.266h0a.24.24,0,0,1-.031-.024.338.338,0,0,0-.123-.035l0,0,0,0a.288.288,0,0,1,.126.04.13.13,0,0,1,.032.023v0Z" transform="translate(-15.678 -6.199)"/></g><g transform="translate(0.016 0.032)"><path d="M15.814,6.3h0a.3.3,0,0,1-.064-.032.451.451,0,0,1-.059-.035l0,0,.008,0a.32.32,0,0,0,.055.04l.064.027,0,.008Z" transform="translate(-15.688 -6.223)"/></g><g transform="translate(0.016 0.099)"><path d="M15.811,6.373h0a.148.148,0,0,1-.072-.019.136.136,0,0,1-.051-.067v0h0a.144.144,0,0,0,.052.064.122.122,0,0,0,.067.019l0,0Z" transform="translate(-15.688 -6.282)"/></g><g transform="translate(0 0.265)"><path d="M15.679,6.444l0,0,0,0c.035,0,.074,0,.11,0a.276.276,0,0,1,.055,0v.008h-.055c-.036,0-.075,0-.11.008Z" transform="translate(-15.674 -6.428)"/></g><g transform="translate(0.067 0.289)"><path d="M15.738,6.48l0,0,0,0a.368.368,0,0,0,.059-.008.225.225,0,0,0,.051-.016h.008l0,.008c-.016,0-.035.011-.051.016a.39.39,0,0,1-.063.007Z" transform="translate(-15.733 -6.449)"/></g><g transform="translate(0.094 0.332)"><path d="M15.762,6.617h0v0a.416.416,0,0,1,.032-.059c.016-.024.032-.043.048-.064l.008,0v.008a.223.223,0,0,0-.048.063.241.241,0,0,0-.031.056Z" transform="translate(-15.757 -6.487)"/></g><g transform="translate(0.019 0.391)"><path d="M15.7,6.665h0V6.657a.289.289,0,0,0,.126-.067.731.731,0,0,0,.052-.051h0v0a.324.324,0,0,1-.177.123Z" transform="translate(-15.691 -6.539)"/></g><g transform="translate(0.11 0.442)"><path d="M15.776,6.67h0V6.662a.9.9,0,0,1,.1-.051.688.688,0,0,1,.07-.027h0l0,0c-.023.007-.047.019-.067.027a.805.805,0,0,0-.1.055Z" transform="translate(-15.771 -6.584)"/></g><g transform="translate(0.15 0.529)"><path d="M15.806,6.779h0v0c.019-.024.04-.043.059-.067l.048-.048h0v.008l-.048.048c-.019.019-.039.04-.059.064Z" transform="translate(-15.806 -6.66)"/></g><g transform="translate(0.201 0.541)"><path d="M15.851,6.778h0v0a.323.323,0,0,0,.056-.056.118.118,0,0,0,.023-.047h.008v0a.256.256,0,0,1-.027.048.28.28,0,0,1-.055.056Z" transform="translate(-15.851 -6.671)"/></g><g transform="translate(0.257 0.635)"><path d="M15.9,6.872h0l0-.008a.27.27,0,0,1,.023-.075c.008-.011.013-.023.02-.035h0l0,0c-.008.011-.016.023-.02.031a.3.3,0,0,0-.023.08Z" transform="translate(-15.9 -6.754)"/></g><g transform="translate(0.28 0.651)"><path d="M15.925,6.883h0l0,0a.13.13,0,0,0,.024-.051.325.325,0,0,0,.016-.056l.008,0v0a.2.2,0,0,1-.016.056c-.008.019-.016.035-.024.056Z" transform="translate(-15.92 -6.768)"/></g><g transform="translate(0.28 0.738)"><path d="M15.925,6.911h0V6.9a.105.105,0,0,0,.052-.023A.253.253,0,0,0,16,6.844h0l0,0a.3.3,0,0,1-.032.035.106.106,0,0,1-.051.027Z" transform="translate(-15.92 -6.844)"/></g><g transform="translate(0.824)"><path d="M16.4,6.251l0,0,0,0a.241.241,0,0,1,.07-.035.393.393,0,0,1,.1-.013l0,0,0,0a.218.218,0,0,0-.091.013.227.227,0,0,0-.072.031Z" transform="translate(-16.399 -6.195)"/></g><g transform="translate(0.856 0.02)"><path d="M16.427,6.3h0v0a.229.229,0,0,1,.051-.048.281.281,0,0,1,.115-.039l0,0,0,0a.222.222,0,0,0-.11.039.318.318,0,0,0-.051.044Z" transform="translate(-16.427 -6.213)"/></g><g transform="translate(0.868 0.257)"><path d="M16.556,6.425h-.118l0,0h.114l0,0Z" transform="translate(-16.438 -6.421)"/></g><g transform="translate(0.868 0.273)"><path d="M16.441,6.467l0,0,0,0c.016,0,.035,0,.051,0a.667.667,0,0,0,.08-.019h0l0,.008a.547.547,0,0,1-.08.016c-.016,0-.031,0-.051.008Z" transform="translate(-16.438 -6.435)"/></g><g transform="translate(0.848 0.308)"><path d="M16.428,6.522h0l0,0,0,0a.174.174,0,0,0,.086-.024.171.171,0,0,0,.027-.024h0v0a.123.123,0,0,1-.032.027A.144.144,0,0,1,16.428,6.522Z" transform="translate(-16.42 -6.466)"/></g><g transform="translate(0.837 0.454)"><path d="M16.532,6.669h0a.255.255,0,0,1-.075-.031A.4.4,0,0,1,16.41,6.6V6.594h.008a.18.18,0,0,0,.043.04.2.2,0,0,0,.07.027l0,0Z" transform="translate(-16.41 -6.594)"/></g><g transform="translate(0.778 0.49)"><path d="M16.527,6.677h0a.3.3,0,0,1-.086-.016.337.337,0,0,1-.083-.032v0h0a.48.48,0,0,0,.083.031.306.306,0,0,0,.083.013l0,0Z" transform="translate(-16.358 -6.626)"/></g><g transform="translate(0.778 0.581)"><path d="M16.433,6.8h0a.174.174,0,0,1-.043-.031.159.159,0,0,1-.032-.056l0,0,0,0a.122.122,0,0,0,.031.051.109.109,0,0,0,.036.027l0,0Z" transform="translate(-16.358 -6.706)"/></g><g transform="translate(0.746 0.627)"><path d="M16.416,6.8h0a.163.163,0,0,1-.063-.032.05.05,0,0,1-.024-.019v0h0c.008.008.016.013.025.02a.145.145,0,0,0,.058.027l0,0Z" transform="translate(-16.33 -6.747)"/></g><g transform="translate(0.84 0.407)"><path d="M16.544,6.652h0a.2.2,0,0,0-.059-.059.124.124,0,0,0-.067-.032v0l0,0a.2.2,0,0,1,.067.032.173.173,0,0,1,.059.063v0Z" transform="translate(-16.413 -6.553)"/></g><g transform="translate(0.698 0.671)"><path d="M16.36,6.932l0,0a.529.529,0,0,1-.031-.063.325.325,0,0,1-.036-.075v0h0c.011.028.024.051.035.075s.024.043.032.064v.008Z" transform="translate(-16.288 -6.785)"/></g><g transform="translate(0.656 0.699)"><path d="M16.333,6.928v0a.171.171,0,0,1-.059-.051l-.023-.059,0,0,0,0a.211.211,0,0,0,.024.056.185.185,0,0,0,.056.051v0Z" transform="translate(-16.251 -6.81)"/></g><g transform="translate(0.627 0.75)"><path d="M16.3,6.922h0a.287.287,0,0,1-.039-.024.165.165,0,0,1-.04-.04v0h0l.04.039a.131.131,0,0,0,.04.02v.008Z" transform="translate(-16.226 -6.855)"/></g><g transform="translate(0.584 0.793)"><path d="M16.215,6.992l0,0a.261.261,0,0,1-.008-.032.417.417,0,0,0-.016-.059l0,0,0,0c0,.02.011.04.016.059s0,.02.008.032l0,0Z" transform="translate(-16.188 -6.893)"/></g><g transform="translate(0.505 0.789)"><path d="M16.123,6.984h0v0a.1.1,0,0,0,.008-.039.066.066,0,0,0-.008-.048l0,0h0a.12.12,0,0,1,.008.052.1.1,0,0,1-.008.039Z" transform="translate(-16.118 -6.889)"/></g><g transform="translate(0.402 0.789)"><path d="M16.033,6.98h0v0c0-.013,0-.024,0-.035V6.894l0,0h0l0,0v.048c0,.011,0,.023-.007.035Z" transform="translate(-16.028 -6.889)"/></g><g transform="translate(0.459 0.797)"><path d="M16.1,6.979l0,0A.086.086,0,0,1,16.08,6.9l0,0,0,.008a.064.064,0,0,0,0,.036.087.087,0,0,0,.016.031v0Z" transform="translate(-16.078 -6.896)"/></g></g></g><g transform="translate(0.741 1.701)"><path d="M16.051,8.235a.2.2,0,0,0-.07-.107c.157-.043.149-.146.149-.149l0-.008-.008,0a.748.748,0,0,1-.118,0,.392.392,0,0,0,.115-.273l-.008-.008-.013,0a.32.32,0,0,1-.075.019.682.682,0,0,0-.114.024.686.686,0,0,1,.142-.252c.015-.028.035-.048.043-.064a.036.036,0,0,0,0-.04c-.011-.011-.035,0-.083.024-.011,0-.024.013-.031.016a.138.138,0,0,0-.119.056c-.055-.024-.094,0-.141.051a.073.073,0,0,0-.016-.048.057.057,0,0,0-.024-.011.072.072,0,0,0,0-.056l0,0-.134-.147h0l0,0v0h-.008l-.13.147,0,0a.047.047,0,0,0,0,.056c-.011,0-.016,0-.023.011s-.016.024-.02.048c-.043-.051-.086-.075-.138-.051a.142.142,0,0,0-.118-.056.138.138,0,0,1-.032-.016c-.048-.024-.072-.035-.083-.024a.031.031,0,0,0,0,.04.626.626,0,0,0,.044.064.7.7,0,0,1,.142.252.716.716,0,0,0-.115-.024.38.38,0,0,1-.08-.019l-.011,0,0,.008a.4.4,0,0,0,.11.273.768.768,0,0,1-.118,0l-.008,0,0,.008s0,.106.155.149a.181.181,0,0,0-.072.107c-.011.032-.016.051-.035.056s-.019.008-.019.016a.022.022,0,0,0,.011.019.249.249,0,0,0,.19,0,.181.181,0,0,0-.04.142l0,.008.008,0a.675.675,0,0,0,.11-.02.79.79,0,0,0-.019.083.26.26,0,0,1-.008.048l0,.011.008,0a.3.3,0,0,0,.161-.024A.266.266,0,0,0,15.4,8.7l0,.013.008.008.013,0a.371.371,0,0,0,.055-.07.172.172,0,0,1,.051.075c0,.007,0,.011.008.011a.011.011,0,0,0,.013-.011.2.2,0,0,1,.047-.075c.013.015.036.047.059.07l.013,0,0-.008,0-.013a.224.224,0,0,0,.008-.118.32.32,0,0,0,.166.024l.007,0,0-.011a.191.191,0,0,1-.011-.048.76.76,0,0,0-.016-.083.7.7,0,0,0,.11.02l.008,0,0-.008a.186.186,0,0,0-.039-.142.239.239,0,0,0,.185,0c.011-.008.016-.016.016-.019a.028.028,0,0,0-.02-.016C16.067,8.286,16.059,8.267,16.051,8.235Z" transform="translate(-14.938 -7.261)" fill="#f6da24"/><path d="M16.051,8.235a.2.2,0,0,0-.07-.107c.157-.043.149-.146.149-.149l0-.008-.008,0a.748.748,0,0,1-.118,0,.392.392,0,0,0,.115-.273l-.008-.008-.013,0a.32.32,0,0,1-.075.019.682.682,0,0,0-.114.024.686.686,0,0,1,.142-.252c.015-.028.035-.048.043-.064a.036.036,0,0,0,0-.04c-.011-.011-.035,0-.083.024-.011,0-.024.013-.031.016a.138.138,0,0,0-.119.056c-.055-.024-.094,0-.141.051a.073.073,0,0,0-.016-.048.057.057,0,0,0-.024-.011.072.072,0,0,0,0-.056l0,0-.134-.147h0l0,0v0h-.008l-.13.147,0,0a.047.047,0,0,0,0,.056c-.011,0-.016,0-.023.011s-.016.024-.02.048c-.043-.051-.086-.075-.138-.051a.142.142,0,0,0-.118-.056.138.138,0,0,1-.032-.016c-.048-.024-.072-.035-.083-.024a.031.031,0,0,0,0,.04.626.626,0,0,0,.044.064.7.7,0,0,1,.142.252.716.716,0,0,0-.115-.024.38.38,0,0,1-.08-.019l-.011,0,0,.008a.4.4,0,0,0,.11.273.768.768,0,0,1-.118,0l-.008,0,0,.008s0,.106.155.149a.181.181,0,0,0-.072.107c-.011.032-.016.051-.035.056s-.019.008-.019.016a.022.022,0,0,0,.011.019.249.249,0,0,0,.19,0,.181.181,0,0,0-.04.142l0,.008.008,0a.675.675,0,0,0,.11-.02.79.79,0,0,0-.019.083.26.26,0,0,1-.008.048l0,.011.008,0a.3.3,0,0,0,.161-.024A.266.266,0,0,0,15.4,8.7l0,.013.008.008.013,0a.371.371,0,0,0,.055-.07.172.172,0,0,1,.051.075c0,.007,0,.011.008.011a.011.011,0,0,0,.013-.011.2.2,0,0,1,.047-.075c.013.015.036.047.059.07l.013,0,0-.008,0-.013a.224.224,0,0,0,.008-.118.32.32,0,0,0,.166.024l.007,0,0-.011a.191.191,0,0,1-.011-.048.76.76,0,0,0-.016-.083.7.7,0,0,0,.11.02l.008,0,0-.008a.186.186,0,0,0-.039-.142.239.239,0,0,0,.185,0c.011-.008.016-.016.016-.019a.028.028,0,0,0-.02-.016C16.067,8.286,16.059,8.267,16.051,8.235ZM16,8.326a.19.19,0,0,1-.118-.035h-.017v.016c.008.011.017.023.024.031a.179.179,0,0,1,.04.123c-.094-.011-.107-.019-.118-.032h-.016v.016a.337.337,0,0,1,.027.107.185.185,0,0,1,.008.04c-.115,0-.146-.028-.153-.036l-.013,0,0,.011a.287.287,0,0,1,0,.131c-.027-.032-.055-.067-.055-.067l-.009,0,0,0a.4.4,0,0,0-.056.067.312.312,0,0,0-.05-.067l-.009,0-.008,0a.618.618,0,0,1-.051.067.234.234,0,0,1,0-.131l0-.011a.012.012,0,0,0-.016,0c0,.008-.035.036-.155.036a.2.2,0,0,0,.008-.04.545.545,0,0,1,.032-.107l0-.016h-.013c-.016.013-.027.02-.118.032a.164.164,0,0,1,.04-.123.241.241,0,0,0,.024-.031l0-.016h-.013a.234.234,0,0,1-.2.019c.027-.011.035-.035.047-.067a.171.171,0,0,1,.083-.11l0-.008c0-.008,0-.008-.008-.011-.131-.028-.153-.1-.158-.123.027,0,.088,0,.139,0,0,0,.007,0,.007-.011l0-.008a.329.329,0,0,1-.123-.253.2.2,0,0,0,.068.016,1.155,1.155,0,0,1,.122.032l.008,0,.008,0c.016-.067-.075-.189-.142-.284A.221.221,0,0,1,15,7.411L14.994,7.4c.011,0,.04.02.056.028s.023.011.035.016h0a.12.12,0,0,1,.11.055l.016,0c.043-.028.083-.008.139.067h.011l0-.008c0-.044.007-.059.011-.064s.019-.008.035,0,.013,0,.013-.008V7.478c-.032-.02-.02-.048-.016-.051l.122-.139.126.139s.016.031-.016.051l0,.011c0,.008.008.008.016.008s.027-.008.032,0,.016.019.011.064l.008.008h.013c.055-.075.094-.1.138-.067l.011,0c.048-.048.067-.055.111-.055h.007a.138.138,0,0,1,.036-.016c.016-.008.039-.024.051-.028l0,.013a.329.329,0,0,1-.043.063c-.083.115-.158.225-.142.284l0,0,.011,0a.894.894,0,0,1,.123-.032.223.223,0,0,0,.067-.016.34.34,0,0,1-.123.253l0,.008c0,.007,0,.007.008.011.047,0,.11,0,.138,0,0,.027-.027.094-.158.123-.008,0-.008,0-.011.011l.008.008a.171.171,0,0,1,.083.11.086.086,0,0,0,.047.067A.172.172,0,0,1,16,8.326Z" transform="translate(-14.938 -7.261)"/><path d="M15.428,7.869l.009,0h0l0-.016a.24.24,0,0,0-.153-.075l-.011.008c0,.008,0,.013.007.013A.222.222,0,0,1,15.428,7.869Z" transform="translate(-14.891 -7.19)"/><path d="M15.446,7.971c.008,0,.008-.008,0-.013s-.008-.007-.011,0-.048.027-.032.107c0,0,0,.008.013.008h0c.007,0,.011-.008.007-.016A.083.083,0,0,1,15.446,7.971Z" transform="translate(-14.874 -7.166)"/><path d="M15.437,8.249l.013,0,0-.016c-.015-.008-.094-.055-.1-.055l-.013,0,0,.016.1.056Z" transform="translate(-14.884 -7.136)"/><path d="M15.436,8.281l.008-.008,0-.011-.088-.04a.017.017,0,0,0-.016.008s0,.013.008.013l.088.039Z" transform="translate(-14.883 -7.13)"/><path d="M15.5,7.872h.008l.008,0a.226.226,0,0,1,.138-.067.011.011,0,0,0,.013-.013l-.013-.008a.24.24,0,0,0-.153.075Z" transform="translate(-14.861 -7.19)"/><path d="M15.764,7.825a.535.535,0,0,1-.075.051.383.383,0,0,1-.1.048c-.032,0-.051,0-.059-.008s-.016-.019-.016-.043a.236.236,0,0,1,.032-.115l0-.011h-.015s-.016.032-.028.07a.2.2,0,0,0-.027-.07h-.011a.006.006,0,0,0,0,.011.285.285,0,0,1,.032.115c0,.024,0,.035-.016.043s-.027.011-.059.008a.4.4,0,0,1-.107-.048.54.54,0,0,1-.07-.051h-.016v.013a.612.612,0,0,0,.075.055l0,.008c.016.032.048.086.088.091h0a.06.06,0,0,0,.051-.043.066.066,0,0,0,.048-.016l.011-.019a.052.052,0,0,0,.016.019.062.062,0,0,0,.043.016c.016.027.032.043.056.043h0c.04,0,.072-.059.083-.091l.008-.008a.356.356,0,0,0,.072-.055V7.825Zm-.4.139a.181.181,0,0,1-.04-.051.36.36,0,0,0,.043.019A.1.1,0,0,0,15.366,7.964Zm.264,0c0-.013,0-.02,0-.032l.04-.019A.128.128,0,0,1,15.63,7.964Z" transform="translate(-14.9 -7.195)"/><path d="M15.565,8.321a.171.171,0,0,1-.07-.011.04.04,0,0,1-.008-.024h0V8.211H15.5l0,0c.027,0,.067-.013.075-.052a.043.043,0,0,0-.016-.043.064.064,0,0,0-.064,0c-.008,0-.008.008,0,.016l.011,0c.016-.008.036-.013.043,0s.008.013.008.024-.027.032-.059.035h0c-.032.008-.07.013-.088-.019a.171.171,0,0,1,0-.043c0-.008,0-.013-.008-.013s-.008,0-.011.008a.127.127,0,0,0,0,.056.071.071,0,0,0,.07.039h.008v.072h0a.029.029,0,0,1-.011.024.149.149,0,0,1-.067.011c-.008,0-.011,0-.011.008s0,.013.008.013h.023a.121.121,0,0,0,.064-.016l0-.008.008.008.024.011h0c0,.011-.02.019-.048.019h0l-.007.008c0,.008,0,.013.011.013h0c.035,0,.059-.008.067-.028V8.342h.048l.008-.013C15.577,8.321,15.573,8.318,15.565,8.321Z" transform="translate(-14.878 -7.146)"/><path d="M15.6,8.174s-.083.047-.1.055l0,.016.007,0h.008l.1-.056,0-.016S15.6,8.17,15.6,8.174Z" transform="translate(-14.862 -7.136)"/><path d="M15.588,8.222l-.088.04-.007.011.011.008h0l.088-.039,0-.013C15.6,8.222,15.592,8.222,15.588,8.222Z" transform="translate(-14.862 -7.13)"/><path d="M15.8,7.683a1.994,1.994,0,0,0-.308-.02,2.7,2.7,0,0,0-.3.032l0,.008.008,0h0a1.753,1.753,0,0,1,.3-.032,1.554,1.554,0,0,1,.308.019l0-.008Z" transform="translate(-14.904 -7.206)"/><path d="M15.824,7.667a1.176,1.176,0,0,0-.327-.035,1.338,1.338,0,0,0-.308.04l0,.008,0,0h0a1.367,1.367,0,0,1,.3-.043,1.281,1.281,0,0,1,.323.04l.008,0Z" transform="translate(-14.904 -7.21)"/><path d="M15.865,7.562l0,0a2.377,2.377,0,0,0-.383-.019,2.238,2.238,0,0,0-.335.035l0,0,0,0h0a1.86,1.86,0,0,1,.335-.032,2.379,2.379,0,0,1,.383.016Z" transform="translate(-14.91 -7.223)"/><path d="M15.811,7.59l.008,0,0-.008a2.554,2.554,0,0,0-.308-.016,2.391,2.391,0,0,0-.34.035l0,.008,0,0h0a2.5,2.5,0,0,1,.335-.035A2.064,2.064,0,0,1,15.811,7.59Z" transform="translate(-14.907 -7.22)"/><path d="M15.466,7.373l-.008,0-.008,0-.043.056v.015l.055.048.008,0,.008,0,.035-.056V7.42Zm0,.094-.04-.032.032-.039.035.032Z" transform="translate(-14.874 -7.246)"/><g transform="translate(0.095 0.492)"><g transform="translate(0.887 0.045)"><path d="M15.807,7.867h0V7.859a.67.67,0,0,0,.056-.067l.048-.059h0v0l-.047.059c-.016.024-.036.048-.052.072Z" transform="translate(-15.802 -7.733)"/></g><g transform="translate(0 0.002)"><path d="M15.183,7.765v0l-.035-.024a.3.3,0,0,0-.123-.035l0,0,0,0a.266.266,0,0,1,.126.039l.035.024v0Z" transform="translate(-15.022 -7.695)"/></g><g transform="translate(0.016 0.032)"><path d="M15.161,7.794h0a.6.6,0,0,1-.064-.027.586.586,0,0,1-.058-.04v0h0l.059.036a.4.4,0,0,0,.063.031l0,0Z" transform="translate(-15.036 -7.722)"/></g><g transform="translate(0.011 0.096)"><path d="M15.158,7.869h0a.127.127,0,0,1-.07-.02.156.156,0,0,1-.056-.067l0,0,0,0a.156.156,0,0,0,.051.06.127.127,0,0,0,.067.019v.008Z" transform="translate(-15.032 -7.778)"/></g><g transform="translate(0 0.262)"><path d="M15.025,7.94h0l0,0a1.093,1.093,0,0,1,.11-.008c.016,0,.035,0,.051,0l0,0,0,0a.258.258,0,0,0-.051,0c-.04,0-.075,0-.11,0Z" transform="translate(-15.022 -7.924)"/></g><g transform="translate(0.063 0.286)"><path d="M15.082,7.976l0,0,0,0a.16.16,0,0,0,.063-.008.179.179,0,0,0,.051-.015l0,0v0a.319.319,0,0,1-.051.015.348.348,0,0,1-.067.008Z" transform="translate(-15.077 -7.945)"/></g><g transform="translate(0.094 0.333)"><path d="M15.1,8.112h0v0a.332.332,0,0,1,.032-.059.546.546,0,0,1,.048-.064h0v0a.305.305,0,0,0-.043.063c-.016.02-.024.04-.036.059Z" transform="translate(-15.105 -7.986)"/></g><g transform="translate(0.019 0.388)"><path d="M15.039,8.161h0v0a.361.361,0,0,0,.122-.067.3.3,0,0,0,.052-.055h.008v0a.369.369,0,0,1-.056.056.277.277,0,0,1-.123.067Z" transform="translate(-15.039 -8.035)"/></g><g transform="translate(0.11 0.439)"><path d="M15.122,8.166h0v0a.908.908,0,0,1,.1-.056.436.436,0,0,1,.067-.027h.008l0,.008a.615.615,0,0,0-.072.027c-.031.016-.063.032-.094.051Z" transform="translate(-15.119 -8.08)"/></g><g transform="translate(0.145 0.53)"><path d="M15.153,8.278v0l0,0,.063-.064a.261.261,0,0,1,.048-.047h0v0l-.048.048c-.019.019-.039.043-.059.063Z" transform="translate(-15.15 -8.16)"/></g><g transform="translate(0.197 0.538)"><path d="M15.2,8.277l0,0,0,0a.362.362,0,0,0,.055-.056l.024-.047h0l0,0a.341.341,0,0,1-.027.048.229.229,0,0,1-.056.055Z" transform="translate(-15.195 -8.167)"/></g><g transform="translate(0.256 0.633)"><path d="M15.247,8.368h0v0a.3.3,0,0,1,.024-.08c.008-.011.013-.024.019-.035h0v0c0,.011-.011.023-.016.035a.366.366,0,0,0-.027.075Z" transform="translate(-15.247 -8.25)"/></g><g transform="translate(0.28 0.649)"><path d="M15.271,8.379h0l0,0c.008-.016.016-.032.024-.051a.312.312,0,0,0,.016-.056l0,0,0,0c0,.02-.013.04-.016.059s-.016.036-.024.052Z" transform="translate(-15.268 -8.264)"/></g><g transform="translate(0.28 0.735)"><path d="M15.268,8.407h0v0a.244.244,0,0,0,.051-.027.253.253,0,0,0,.027-.036h0v0a.139.139,0,0,1-.027.035.128.128,0,0,1-.052.027Z" transform="translate(-15.268 -8.34)"/></g><g transform="translate(0.824)"><path d="M15.75,7.746l0,0v0a.266.266,0,0,1,.075-.035.225.225,0,0,1,.091-.008l0,0h0a.387.387,0,0,0-.091.013.3.3,0,0,0-.072.035Z" transform="translate(-15.747 -7.693)"/></g><g transform="translate(0.851 0.018)"><path d="M15.776,7.8l0,0v0a.43.43,0,0,1,.051-.043.309.309,0,0,1,.118-.043l0,0,0,0a.3.3,0,0,0-.114.039.348.348,0,0,0-.048.043Z" transform="translate(-15.771 -7.709)"/></g><g transform="translate(0.867 0.254)"><path d="M15.9,7.925h-.118V7.917H15.9l0,0Z" transform="translate(-15.785 -7.917)"/></g><g transform="translate(0.867 0.27)"><path d="M15.79,7.962l0,0,0,0c.015,0,.031,0,.047,0a.408.408,0,0,0,.08-.019l.008,0,0,0a.493.493,0,0,1-.078.019c-.016,0-.036,0-.051,0Z" transform="translate(-15.785 -7.931)"/></g><g transform="translate(0.848 0.305)"><path d="M15.776,8.018h0l0,0,0,0a.12.12,0,0,0,.083-.02.107.107,0,0,0,.032-.027h0v0a.092.092,0,0,1-.031.028A.164.164,0,0,1,15.776,8.018Z" transform="translate(-15.768 -7.962)"/></g><g transform="translate(0.835 0.455)"><path d="M15.88,8.164h0a.21.21,0,0,1-.075-.027.165.165,0,0,1-.048-.04v0h0c.016.011.027.024.043.035a.167.167,0,0,0,.075.027l0,0Z" transform="translate(-15.757 -8.094)"/></g><g transform="translate(0.776 0.487)"><path d="M15.871,8.173h0a.3.3,0,0,1-.083-.013.4.4,0,0,1-.083-.035v0h0a.536.536,0,0,0,.078.031.5.5,0,0,0,.088.016h0Z" transform="translate(-15.705 -8.122)"/></g><g transform="translate(0.776 0.577)"><path d="M15.78,8.292h0a.126.126,0,0,1-.072-.083l0-.008,0,0a.116.116,0,0,0,.028.051.083.083,0,0,0,.039.027l0,0Z" transform="translate(-15.705 -8.201)"/></g><g transform="translate(0.741 0.625)"><path d="M15.76,8.3h0A.183.183,0,0,1,15.7,8.27l-.024-.023v0h.008a.04.04,0,0,0,.019.019.14.14,0,0,0,.064.028v0Z" transform="translate(-15.674 -8.243)"/></g><g transform="translate(0.835 0.408)"><path d="M15.888,8.147h0a.213.213,0,0,0-.059-.06.239.239,0,0,0-.067-.031l0,0h.009a.224.224,0,0,1,.066.027.31.31,0,0,1,.059.064v0Z" transform="translate(-15.757 -8.052)"/></g><g transform="translate(0.693 0.668)"><path d="M15.7,8.428v0a.533.533,0,0,1-.035-.063c-.013-.024-.024-.048-.036-.075l0,0,0,0c.013.024.024.047.036.075s.019.039.031.063v0Z" transform="translate(-15.632 -8.281)"/></g><g transform="translate(0.655 0.696)"><path d="M15.681,8.424h0a.285.285,0,0,1-.06-.056.181.181,0,0,1-.023-.059l0,0,0,0a.128.128,0,0,0,.024.056.14.14,0,0,0,.055.051v0Z" transform="translate(-15.598 -8.306)"/></g><g transform="translate(0.626 0.747)"><path d="M15.653,8.418h0a.108.108,0,0,1-.035-.024.22.22,0,0,1-.04-.04v0h0a.161.161,0,0,0,.04.039l.035.024,0,0Z" transform="translate(-15.573 -8.351)"/></g><g transform="translate(0.583 0.794)"><path d="M15.562,8.487l0,0c0-.008,0-.019-.008-.032s-.011-.035-.016-.055v0h0c.008.02.011.04.019.059s0,.02,0,.032v0Z" transform="translate(-15.535 -8.392)"/></g><g transform="translate(0.505 0.786)"><path d="M15.466,8.48h0v0a.131.131,0,0,0,.008-.035.108.108,0,0,0-.008-.051l0,0h0a.329.329,0,0,1,.008.056.3.3,0,0,1-.013.04Z" transform="translate(-15.466 -8.385)"/></g><g transform="translate(0.398 0.786)"><path d="M15.377,8.476h0l0,0c0-.013,0-.024.008-.035V8.39l0,0h0l0,0a.225.225,0,0,1,0,.048.1.1,0,0,1,0,.035Z" transform="translate(-15.372 -8.385)"/></g><g transform="translate(0.458 0.799)"><path d="M15.448,8.474h0a.155.155,0,0,1-.015-.035.07.07,0,0,1,0-.043h0l0,0a.049.049,0,0,0,0,.036.046.046,0,0,0,.015.031l0,.008Z" transform="translate(-15.425 -8.396)"/></g></g></g></g><g transform="translate(10.057 2.205)"><path d="M17.384,8.032a.157.157,0,0,0-.047-.008.263.263,0,0,1-.04.016c-.056.024-.083.043-.083.059a.026.026,0,0,0,.016.02.085.085,0,0,0,.027,0h0s0,.008,0,.016a.053.053,0,0,0,.019.035.155.155,0,0,0,.118.02.142.142,0,0,0,.088-.051.085.085,0,0,0,0-.067h0a.388.388,0,0,0-.056-.024C17.408,8.04,17.392,8.037,17.384,8.032Z" transform="translate(-17.215 -6.024)" fill="#ff0302"/><path d="M17.548,8.181l-.013.008c-.072.051-.1.094-.1.126,0,.016.016.027.035.035l.02.008v0c0,.008.008.013.027.024a.113.113,0,0,0,.094-.008.137.137,0,0,0,.075-.083v0a.09.09,0,0,1,0-.056.159.159,0,0,0-.08-.047C17.579,8.181,17.563,8.184,17.548,8.181Z" transform="translate(-17.185 -6.003)" fill="#ff0302"/><path d="M17.994,8.219a.322.322,0,0,1-.043-.031l-.043.011c-.032,0-.064.011-.064.056a.105.105,0,0,0,0,.031.077.077,0,0,0,.008.064.083.083,0,0,0,.059.019c.07,0,.126,0,.15-.027a.047.047,0,0,0,.011-.035c0-.02,0-.024,0-.028l.013,0-.008-.008C18.049,8.239,18.034,8.243,17.994,8.219Z" transform="translate(-17.13 -6.002)" fill="#ff0302"/><path d="M19.43,7.3c-.016-.016-.04-.013-.082,0a.7.7,0,0,1-.076.011.272.272,0,0,1-.055,0c-.013,0-.032,0-.072,0s-.083.013-.107.016a.158.158,0,0,1-.086,0,.087.087,0,0,1-.039-.024.318.318,0,0,0-.056-.027.3.3,0,0,0-.139-.008h-.008a.752.752,0,0,1-.236-.008h-.024l-.019-.008s-.008-.008-.011-.016l0-.007c-.032-.052-.11-.052-.169-.052H18.18a.131.131,0,0,1-.083-.015.057.057,0,0,1-.024-.036.26.26,0,0,0-.035-.051.129.129,0,0,0-.059-.048.1.1,0,0,1-.043-.043.1.1,0,0,1-.013-.027.228.228,0,0,0-.016-.051.369.369,0,0,0-.035-.083.1.1,0,0,1-.019-.067c0-.027.016-.043.019-.043l.008,0a.021.021,0,0,0,.013.016c.043.032.122-.008.149-.019a.209.209,0,0,0,.1-.088V6.614c0-.011-.019-.011-.036-.008h-.035a.15.15,0,0,1-.1-.051c-.008,0-.011,0-.019,0a.113.113,0,0,0-.032,0c-.032,0-.04.016-.083.032A.139.139,0,0,0,17.8,6.6c-.028.013-.032.024-.044.024s-.019-.027-.047-.051-.083-.013-.094-.04c0-.008,0-.011-.008-.019s-.056,0-.064-.02c0,0,0-.011,0-.023V6.444c-.02-.016-.036-.027-.056-.04-.064-.032-.169-.055-.193-.016a.051.051,0,0,0,0,.024.129.129,0,0,0,.051.11.293.293,0,0,0,.063.04.4.4,0,0,1-.078.115.371.371,0,0,0-.059.09l0,.013c-.008,0-.008.011-.008.019a.08.08,0,0,0,.048.067.048.048,0,0,1,.024.035c0,.02.011.048.059.044s.051-.013.055-.028,0-.011.028-.016a.328.328,0,0,1,.043,0l-.008.011a.157.157,0,0,1-.024.024c-.031.032-.07.067-.051.11a.041.041,0,0,1,0,.036c-.008.011-.013.027.011.051a.045.045,0,0,0,.036.016.085.085,0,0,1,0,.027.105.105,0,0,1-.016.078.141.141,0,0,0-.019.056.062.062,0,0,1-.028.043.108.108,0,0,0-.035.056c-.024.067-.019.091.016.118.013.008.019.008.024.011h0c0,.008,0,.024,0,.035a.133.133,0,0,0,.019.091c.009.016.016.028.013.04a.071.071,0,0,0,.011.086c.013.013.013.024.016.048v.016a.091.091,0,0,0,.016.032c.008.008.011.011,0,.031a.5.5,0,0,0-.067.182.159.159,0,0,1-.031.078c0,.008-.013.016-.016.024a.1.1,0,0,1-.051.051.157.157,0,0,1,.047.008c.008,0,.024.008.048.02a.388.388,0,0,1,.056.024.05.05,0,0,1,.019-.016.063.063,0,0,0,.027-.056.167.167,0,0,1,.008-.059.114.114,0,0,0,.013-.024.075.075,0,0,0,.007-.019.148.148,0,0,0,.04-.064c.048-.1.088-.134.1-.126a.062.062,0,0,1,.024.088.332.332,0,0,0-.016.035.254.254,0,0,0-.035.15c0,.091,0,.094-.036.134l0,0a.3.3,0,0,0-.04.067h0l-.011.013c.015,0,.031,0,.066.008a.159.159,0,0,1,.08.047l.013-.019c.007-.008.011-.008.015-.008s.019-.008.027-.043.008-.04.013-.059a.273.273,0,0,1,.032-.1.357.357,0,0,0,.023-.067.14.14,0,0,1,.083-.118.237.237,0,0,1,.126-.028.194.194,0,0,0,.044,0,.061.061,0,0,1,.035,0l0,.011-.011.02c-.008.008-.016.016-.008.024s.016.011.055,0a.21.21,0,0,0,.072-.044l0,.008v0a.653.653,0,0,0,0,.083c0,.016.009.024,0,.039a.092.092,0,0,1-.023.032.3.3,0,0,0-.048.091.131.131,0,0,1-.078.094l-.036.024-.019.013a.322.322,0,0,0,.043.031c.04.024.056.02.08.048l.008.008h0a.03.03,0,0,0,.019,0c.044-.007.051-.039.067-.082l.008-.024a.161.161,0,0,1,.123-.131.241.241,0,0,1,.059-.011c.04-.008.04-.013.075-.072l0,0a.458.458,0,0,0,.023-.051l.013-.02s.015.013.023.02l.016.011c.016.013.036.024.051.035.052.032.075.051.064.1a.407.407,0,0,1-.153.181.174.174,0,0,1-.028.013.074.074,0,0,0-.063.063v.036l0,0c.024,0,.06.008.1.016a.335.335,0,0,1,.09.04.163.163,0,0,1,.048-.08.206.206,0,0,0,.035-.043.641.641,0,0,0,.051-.07.225.225,0,0,1,.04-.048.255.255,0,0,1,.072-.051.063.063,0,0,1,.024-.016c.051-.032.094-.059.11-.11a.074.074,0,0,0,0-.04.065.065,0,0,1,.008-.035.059.059,0,0,1,.019-.032.158.158,0,0,0,.036-.048c.011-.031.015-.055.019-.063a.266.266,0,0,0-.008-.1c-.008-.027-.011-.039-.016-.051a.085.085,0,0,1,0-.031.128.128,0,0,1,.016-.08.092.092,0,0,1,.023-.032c.008-.011.02-.019.02-.039a.072.072,0,0,0-.013-.036c-.008-.007-.008-.011-.008-.015a.108.108,0,0,1,.032-.016.287.287,0,0,0,.067-.028.2.2,0,0,0,.072-.07.093.093,0,0,0,.019-.056.1.1,0,0,1,.016-.031.121.121,0,0,1,.035-.016.064.064,0,0,0,.048-.02A.079.079,0,0,0,19.43,7.3Z" transform="translate(-17.209 -6.251)" fill="#f6da24"/><path d="M18.328,8.316c0,.011,0,.011-.019.024l-.032.011c-.027.013-.051.02-.055.04s.008.032.031.048.017.015.02.015l-.008,0c-.008,0-.02,0-.02.011a.02.02,0,0,0,.013.024.134.134,0,0,0,.083.016.322.322,0,0,0,.086-.011.123.123,0,0,0,.091-.067.1.1,0,0,0,0-.032s0-.013,0-.024v0a.335.335,0,0,0-.09-.04C18.388,8.324,18.352,8.319,18.328,8.316Z" transform="translate(-17.077 -5.984)" fill="#ff0302"/><path d="M17.515,6.482c0,.011-.008.019,0,.023.008.02.048,0,.064.02s0,.011.008.019c.011.027.055.013.094.04s.027.051.047.051.016-.011.044-.024A.139.139,0,0,1,17.8,6.6c.043-.016.051-.028.083-.032a.113.113,0,0,1,.032,0c.008,0,.011,0,.019,0l0,0a.6.6,0,0,1,.5.173.954.954,0,0,0,.273.163.964.964,0,0,0,.244.039.287.287,0,0,0,.221-.078l0-.013-.013,0a.831.831,0,0,1-.687-.276.514.514,0,0,0,.292.035.461.461,0,0,0,.2-.086l0-.013L18.962,6.5a1.231,1.231,0,0,1-.339-.028.508.508,0,0,1-.134-.067.8.8,0,0,0-.458-.138.836.836,0,0,0-.509.2l-.007,0Z" transform="translate(-17.175 -6.265)" fill="#ff0302"/><path d="M17.614,6.525l0,0v.008l.008,0Zm1.822.785c-.016-.02-.04-.013-.082,0a.7.7,0,0,1-.076.011.26.26,0,0,1-.051,0,.374.374,0,0,0-.078.008c-.043,0-.08.008-.1.011a.125.125,0,0,1-.086,0,.071.071,0,0,1-.043-.024.168.168,0,0,0-.051-.027.3.3,0,0,0-.139-.008h-.008a.911.911,0,0,1-.236-.008l-.027,0-.016,0a.048.048,0,0,1-.011-.016l0-.007c-.032-.052-.11-.052-.169-.052h-.067a.148.148,0,0,1-.086-.015.085.085,0,0,1-.02-.036.26.26,0,0,0-.035-.051.129.129,0,0,0-.059-.048A.189.189,0,0,1,17.941,7a.254.254,0,0,1-.013-.032.125.125,0,0,0-.016-.051.864.864,0,0,0-.035-.083.121.121,0,0,1-.023-.067.057.057,0,0,1,.023-.043l.008.008a.03.03,0,0,0,.013.011c.043.035.122-.008.149-.019.044-.024.1-.059.1-.083,0-.008,0-.016,0-.016s-.019-.011-.036-.008h-.035a.153.153,0,0,1-.04-.008L18,6.588a.151.151,0,0,1-.027-.023.593.593,0,0,1,.5.173.954.954,0,0,0,.273.163.964.964,0,0,0,.244.039.294.294,0,0,0,.221-.078l0-.013-.013,0a.823.823,0,0,1-.687-.28.455.455,0,0,0,.292.039.563.563,0,0,0,.2-.086l0-.013L19,6.5a1.231,1.231,0,0,1-.339-.028.564.564,0,0,1-.134-.067.8.8,0,0,0-.458-.138.851.851,0,0,0-.509.2l-.007,0c-.02-.016-.04-.027-.056-.04-.064-.032-.169-.055-.193-.016a.058.058,0,0,0,0,.024.129.129,0,0,0,.051.11.171.171,0,0,0,.063.035.32.32,0,0,1-.078.119.45.45,0,0,0-.059.09l-.008.013s0,.011,0,.019a.08.08,0,0,0,.048.067.048.048,0,0,1,.024.035c0,.02.011.048.059.044s.051-.013.055-.028.009-.011.028-.016.035-.008.043,0l-.008.011-.024.024c-.031.032-.07.072-.051.11a.041.041,0,0,1,0,.036c-.008.015-.013.027.011.051a.045.045,0,0,0,.036.016.085.085,0,0,1,0,.027.105.105,0,0,1-.016.078.141.141,0,0,0-.019.056.062.062,0,0,1-.028.043c-.011,0-.023.016-.039.056-.02.063-.016.091.016.118a.059.059,0,0,0,.027.011v.035a.133.133,0,0,0,.019.091c.009.016.016.028.013.04a.087.087,0,0,0,.011.091c.013.008.013.019.016.043v.011a.084.084,0,0,0,.016.036c.008.008.008.011,0,.031a.5.5,0,0,0-.067.182.133.133,0,0,1-.031.075.149.149,0,0,0-.016.027.119.119,0,0,1-.016.028.135.135,0,0,1-.035.023.427.427,0,0,1-.04.02c-.051.019-.083.039-.083.055a.026.026,0,0,0,.016.02.085.085,0,0,0,.027,0h0v.016a.044.044,0,0,0,.016.035.193.193,0,0,0,.122.02.142.142,0,0,0,.088-.051.085.085,0,0,0,0-.067v0A.055.055,0,0,0,17.5,8.3c.02-.013.028-.02.032-.056s0-.043.008-.059a.055.055,0,0,0,.013-.024c.007-.016.007-.016.007-.019s.017-.013.04-.064c.043-.1.088-.13.1-.126.027.008.043.04.024.088a.332.332,0,0,0-.016.035.254.254,0,0,0-.035.15c0,.091,0,.094-.036.134l0,0c-.032.048-.035.059-.04.064l0,0-.011.013-.013.008c-.072.055-.1.094-.1.126,0,.016.016.027.035.035l.02.008v0c0,.008.008.016.027.024a.105.105,0,0,0,.091-.008.133.133,0,0,0,.078-.083v0a.157.157,0,0,1,0-.056l.013-.019c.007-.008.011-.008.015-.008s.019-.008.027-.043l.013-.059a.273.273,0,0,1,.032-.1.357.357,0,0,0,.023-.067.153.153,0,0,1,.083-.123.315.315,0,0,1,.126-.024.194.194,0,0,0,.044,0,.061.061,0,0,1,.035,0,.089.089,0,0,1,0,.016l-.011.011c-.008.013-.016.02-.008.028s.016.008.055,0a.2.2,0,0,0,.067-.035v.008a.328.328,0,0,0,0,.083.056.056,0,0,1,0,.039.092.092,0,0,1-.023.032.246.246,0,0,0-.044.091.163.163,0,0,1-.082.1.141.141,0,0,0-.036.019.025.025,0,0,1-.019.008.122.122,0,0,1-.043.016c-.027,0-.064.011-.064.059,0,.008,0,.019,0,.027a.077.077,0,0,0,.008.064.083.083,0,0,0,.059.019c.07,0,.126,0,.15-.027a.047.047,0,0,0,.011-.035c0-.02,0-.024,0-.028a.045.045,0,0,0,.016,0h.019c.044-.008.051-.04.067-.091l.008-.019a.161.161,0,0,1,.123-.131.241.241,0,0,1,.059-.011c.04-.008.04-.013.075-.072l0-.008a.24.24,0,0,0,.023-.047l.013-.02s.011.013.023.02l.016.011a.415.415,0,0,0,.051.035c.048.032.075.051.064.1a.407.407,0,0,1-.153.181.174.174,0,0,1-.028.013c-.027.008-.055.016-.063.059a.4.4,0,0,1,0,.04v0c0,.011,0,.016-.024.024l-.023.011c-.032.013-.056.02-.059.04s.008.032.031.048.017.015.02.015l-.008,0c-.008,0-.02,0-.02.011s.008.02.013.024a.134.134,0,0,0,.083.016.305.305,0,0,0,.086-.011.123.123,0,0,0,.091-.067.1.1,0,0,0,0-.032s0-.013,0-.024v0l0,0,0-.016a.268.268,0,0,1,.016-.027.19.19,0,0,1,.024-.032.181.181,0,0,1,.035-.04c.028-.035.04-.059.051-.074a.139.139,0,0,1,.04-.048A.255.255,0,0,1,18.9,8.36a.063.063,0,0,1,.024-.016c.051-.032.094-.059.11-.11a.216.216,0,0,0,0-.04.1.1,0,0,1,0-.032.111.111,0,0,1,.023-.035.158.158,0,0,0,.036-.048.261.261,0,0,0,.019-.063.266.266,0,0,0-.008-.1.169.169,0,0,0-.016-.051.085.085,0,0,1,0-.031.128.128,0,0,1,.016-.08.092.092,0,0,1,.023-.032.042.042,0,0,0,.02-.039.072.072,0,0,0-.013-.036l-.008-.015c0-.008.013-.008.032-.016a.287.287,0,0,0,.067-.028.2.2,0,0,0,.072-.07.092.092,0,0,0,.019-.051.084.084,0,0,1,.016-.035.1.1,0,0,1,.04-.016.062.062,0,0,0,.043-.02A.081.081,0,0,0,19.436,7.311Zm-1.349-.778a.1.1,0,0,0,.027-.083.088.088,0,0,0-.043-.059.662.662,0,0,1,.222.047.085.085,0,0,1,.008.052.192.192,0,0,1-.067.075A.552.552,0,0,0,18.087,6.533Zm.158.035a.144.144,0,0,0,.063-.078.074.074,0,0,0,0-.044.58.58,0,0,1,.111.067l0,0h0a.221.221,0,0,1,.031.027.056.056,0,0,1-.016.043.131.131,0,0,1-.094.036A.526.526,0,0,0,18.245,6.569Zm.928.3a.309.309,0,0,1-.178.051.067.067,0,0,0,.032-.056A.626.626,0,0,0,19.172,6.869Zm-.155,0c0,.028-.027.043-.04.056-.039,0-.082-.008-.134-.016a.1.1,0,0,0,.06-.064A.428.428,0,0,0,19.018,6.864ZM18.9,6.837c-.008.032-.048.051-.067.064-.027-.008-.052-.013-.075-.02a.415.415,0,0,1-.08-.032.121.121,0,0,0,.083-.023.1.1,0,0,0,.024-.036A.671.671,0,0,0,18.9,6.837Zm-.126-.056a.052.052,0,0,1-.016.036.206.206,0,0,1-.1.019c-.043-.024-.082-.056-.122-.083a.1.1,0,0,0,.055-.027.077.077,0,0,0,.024-.051A1.316,1.316,0,0,0,18.77,6.781ZM18.6,6.667a.1.1,0,0,1-.024.051.089.089,0,0,1-.059.027.24.24,0,0,0-.031-.024,1.42,1.42,0,0,0-.123-.09.105.105,0,0,0,.086-.036.059.059,0,0,0,.016-.047.207.207,0,0,1,.032.031C18.532,6.608,18.564,6.639,18.6,6.667Zm.257-.147h.11a.463.463,0,0,1-.115.051A.123.123,0,0,0,18.856,6.521Zm-.013,0a.156.156,0,0,1,0,.059.1.1,0,0,0-.035.008.42.42,0,0,1-.067,0,.208.208,0,0,0,.024-.078A.665.665,0,0,0,18.844,6.517Zm-.185-.027a.713.713,0,0,0,.091.019c0,.024-.008.067-.027.078a.534.534,0,0,1-.169-.027.131.131,0,0,0,.055-.091A.369.369,0,0,0,18.659,6.49Zm-.138-.067c.027.015.051.031.078.043-.008.024-.019.078-.059.086a.522.522,0,0,1-.1-.051.1.1,0,0,0,.067-.086Zm-.027-.016a.082.082,0,0,1-.067.086.363.363,0,0,0-.1-.059.1.1,0,0,0,.04-.094A1.159,1.159,0,0,1,18.494,6.407Zm-.142-.072c0,.064-.02.083-.036.091a.6.6,0,0,0-.126-.04c.008-.008.013-.011.013-.019.008-.027-.013-.056-.024-.075A.721.721,0,0,1,18.352,6.335Zm-.281-.047a.771.771,0,0,1,.091,0,.1.1,0,0,1,.032.072.038.038,0,0,1-.02.019.459.459,0,0,0-.146-.013V6.356a.082.082,0,0,0-.043-.059A.555.555,0,0,1,18.071,6.289Zm-.1.008c.011.011.043.035.043.059,0,.008,0,.011,0,.015a.529.529,0,0,0-.114.02.192.192,0,0,0-.08-.056A.715.715,0,0,1,17.973,6.3Zm-.6.224a.121.121,0,0,1-.047-.094c0-.008,0-.008,0-.011.013-.024.1-.013.163.023a.157.157,0,0,1,.051.036c-.032,0-.1.019-.111.07l0,.008A.112.112,0,0,1,17.368,6.521Zm2.032.864a.053.053,0,0,1-.032.016.091.091,0,0,0-.048.02.094.094,0,0,0-.023.043.167.167,0,0,1-.016.048.179.179,0,0,1-.067.063.158.158,0,0,1-.064.027c-.019.008-.04.013-.043.032a.042.042,0,0,0,.008.032.034.034,0,0,1,.011.024c0,.011,0,.016-.016.027a.145.145,0,0,0-.027.032.241.241,0,0,0-.019.091.085.085,0,0,0,.008.039l.016.048a.162.162,0,0,1,0,.086.183.183,0,0,1-.015.059.153.153,0,0,1-.033.04.119.119,0,0,0-.023.043.1.1,0,0,0-.008.04.1.1,0,0,1,0,.032c-.011.043-.055.07-.1.1a.056.056,0,0,1-.019.016.346.346,0,0,0-.08.056c-.019.024-.032.035-.043.051a.41.41,0,0,1-.048.072.236.236,0,0,0-.034.039.2.2,0,0,0-.052.088v.008a.049.049,0,0,0,0,.035V8.7a.111.111,0,0,1-.075.055.232.232,0,0,1-.153,0,.026.026,0,0,0,.027-.016c0-.011-.008-.023-.032-.039s-.024-.024-.024-.028a.086.086,0,0,1,.043-.023l.032-.013c.027-.016.032-.024.032-.04l0-.007a.124.124,0,0,1,0-.036c0-.031.019-.035.047-.043l.028-.011a.407.407,0,0,0,.165-.2c.016-.059-.024-.086-.07-.118a.586.586,0,0,1-.051-.032L18.6,8.143c-.024-.02-.035-.027-.047-.024s-.013.011-.024.032a.259.259,0,0,1-.024.047l0,.008c-.032.051-.032.051-.06.056l-.063.016a.193.193,0,0,0-.139.146l0,.02c-.016.047-.024.067-.051.07l-.016,0c-.008,0-.016,0-.019,0l-.016.008a.065.065,0,0,0,0,.043.019.019,0,0,1,0,.02.3.3,0,0,1-.134.015c-.024,0-.035,0-.043-.008s0-.027,0-.047a.08.08,0,0,0,0-.032c0-.027.016-.032.047-.04a.13.13,0,0,0,.056-.019.02.02,0,0,0,.016-.008l.032-.019a.173.173,0,0,0,.094-.111.188.188,0,0,1,.04-.078.1.1,0,0,0,.027-.04.115.115,0,0,0,0-.051.226.226,0,0,1,0-.078h0c0-.032,0-.04,0-.043s-.016,0-.024.008a.166.166,0,0,1-.07.043l-.02.008a.048.048,0,0,0,.013-.024.035.035,0,0,0-.013-.032.058.058,0,0,0-.055,0,.106.106,0,0,1-.036,0,.235.235,0,0,0-.134.027.16.16,0,0,0-.094.134.452.452,0,0,1-.019.059.254.254,0,0,0-.036.107c0,.02-.008.035-.011.059a.07.07,0,0,0-.008.028.057.057,0,0,0-.043.031.135.135,0,0,0-.011.072.1.1,0,0,1-.064.067.086.086,0,0,1-.075.008l-.008,0v0c0-.013-.008-.016-.04-.027a.041.041,0,0,1-.023-.02c0-.019.027-.059.091-.107l.023-.015.008-.008.008-.008s0-.013.032-.056l0,0c.04-.048.044-.056.04-.15a.268.268,0,0,1,.035-.142c0-.013.009-.02.016-.035a.085.085,0,0,0-.032-.115c-.051-.019-.11.1-.13.138s-.032.051-.032.056-.008.008-.016.027a.057.057,0,0,1-.011.024.184.184,0,0,0-.013.064c0,.031,0,.031-.016.043a.122.122,0,0,0-.027.019l0,.013a.056.056,0,0,1,0,.055.1.1,0,0,1-.07.043.16.16,0,0,1-.1-.016c-.007-.007-.011-.011-.011-.019,0-.027-.008-.035-.024-.035a.03.03,0,0,1-.019,0,.141.141,0,0,1,.067-.035.277.277,0,0,0,.063-.035.09.09,0,0,0,.04-.048l.013-.019a.159.159,0,0,0,.035-.091.525.525,0,0,1,.067-.169c.019-.032.011-.043,0-.059l-.013-.02V7.847a.116.116,0,0,0-.019-.056.06.06,0,0,1-.008-.067c.008-.019,0-.04-.011-.059a.117.117,0,0,1-.02-.075c0-.035,0-.048,0-.056l-.016-.008a.029.029,0,0,1-.015,0c-.024-.019-.032-.032-.008-.1a.067.067,0,0,1,.031-.043.083.083,0,0,0,.032-.056.219.219,0,0,1,.019-.051.117.117,0,0,0,.016-.086c0-.035,0-.043-.008-.048a.032.032,0,0,0-.015,0s-.008,0-.024-.008-.013-.016-.008-.027a.053.053,0,0,0,0-.056c-.017-.027.019-.056.042-.083a.094.094,0,0,0,.028-.027c.008-.013.016-.028.011-.035s-.032-.013-.067,0-.04.016-.043.027,0,.016-.035.016-.036-.011-.04-.032a.065.065,0,0,0-.032-.047c-.035-.02-.039-.043-.039-.051l.011-.02a.253.253,0,0,1,.056-.083.363.363,0,0,0,.086-.134.054.054,0,0,0,.008-.023c.013-.044.083-.056.1-.059h.016v0h0c.013-.008.048-.04.1-.075.016,0,.043.008.056.024h.008V6.426a.119.119,0,0,0-.051-.024A1.2,1.2,0,0,1,17.8,6.34a.226.226,0,0,1,.083.051.962.962,0,0,0-.276.122v.016l.008,0h0a.523.523,0,0,1,.118-.067.128.128,0,0,1,.075.047l0,0h0l.008,0,0-.008a.191.191,0,0,0-.067-.047.777.777,0,0,1,.134-.043.172.172,0,0,1,.067.086l.008.008,0-.008a.178.178,0,0,0-.064-.091.573.573,0,0,1,.147-.019.088.088,0,0,1,.051.059.1.1,0,0,1-.027.083.452.452,0,0,0-.126.016.644.644,0,0,0-.158.059.012.012,0,0,0,0,.016s.008.008.016,0a.639.639,0,0,1,.147-.059.2.2,0,0,0,.13.075c.013,0,.027,0,.04,0h.013a.271.271,0,0,1-.1.067c-.075.04-.11.036-.126.02L17.9,6.719a.04.04,0,0,0-.027-.016c-.019,0-.032.04-.036.064a.107.107,0,0,0,.02.082.417.417,0,0,1,.035.08c.011.024.011.04.016.047a.074.074,0,0,0,.011.036.153.153,0,0,0,.056.047.239.239,0,0,1,.051.044.211.211,0,0,1,.032.047.079.079,0,0,0,.027.043.121.121,0,0,0,.1.02h.067c.055,0,.126,0,.15.039l0,.008a.063.063,0,0,0,.019.028.06.06,0,0,0,.027.008h.024a.876.876,0,0,0,.244.008h.008a.227.227,0,0,1,.126.008.07.07,0,0,1,.048.027.126.126,0,0,0,.051.024.183.183,0,0,0,.094,0c.024,0,.056-.011.1-.016s.059,0,.075,0a.288.288,0,0,0,.056,0c.027-.008.055-.011.075-.016s.055-.011.059,0S19.42,7.37,19.4,7.385Zm-1.787-.859,0,0v.008l.008,0Z" transform="translate(-17.215 -6.265)"/><path d="M17.585,6.563a.187.187,0,0,0-.052,0,.073.073,0,0,0-.043.019l0,.016c0,.008,0,.011,0,.011s.013.016.024.024a.045.045,0,0,0,.024,0,.154.154,0,0,0,.043-.008c.016,0,.072-.028.064-.051S17.624,6.568,17.585,6.563Zm-.067.064a.028.028,0,0,1-.02-.016V6.595c0-.008.016-.011.035-.016a.029.029,0,0,0-.008.024.039.039,0,0,0,.013.032A.03.03,0,0,1,17.518,6.627Zm.059,0h-.008c.008,0,.008-.013.008-.024a.036.036,0,0,0-.013-.027h.02c.043,0,.051.011.051.011S17.6,6.614,17.577,6.627Z" transform="translate(-17.178 -6.224)"/><path d="M17.424,6.46l0,0h0l0-.008a.159.159,0,0,0-.04-.032h-.008l0,.008A.133.133,0,0,1,17.424,6.46Z" transform="translate(-17.191 -6.243)"/><path d="M17.459,6.563h-.008l-.028.036,0,.008h.008l.024-.036Z" transform="translate(-17.187 -6.224)"/><path d="M17.407,6.683l0-.008,0-.032-.008,0,0,0,.007.036,0,0Z" transform="translate(-17.19 -6.214)"/><path d="M17.452,6.633l-.012.02V6.66h.008l.012-.024v0Z" transform="translate(-17.184 -6.215)"/><path d="M17.476,6.568h0l.036-.036V6.525h-.008l-.036.036v.008Z" transform="translate(-17.18 -6.229)"/><path d="M17.528,6.56h0l.02-.024V6.529h-.008l-.02.024V6.56Z" transform="translate(-17.173 -6.229)"/><path d="M17.6,6.554h0l.02-.032v0h-.008l-.02.028,0,.008Z" transform="translate(-17.163 -6.23)"/><path d="M17.677,6.7h0a.062.062,0,0,0,.035-.024.058.058,0,0,0,.013-.039l0,0,0,0a.05.05,0,0,1-.013.035.047.047,0,0,1-.031.016l0,.008Z" transform="translate(-17.152 -6.214)"/><path d="M17.558,6.693V6.685h0a.061.061,0,0,0-.024.039c0,.008,0,.02,0,.028l.007,0h0l0-.008a.045.045,0,0,1,0-.024A.048.048,0,0,1,17.558,6.693Z" transform="translate(-17.172 -6.207)"/><path d="M17.6,6.655c-.011,0-.016-.011-.016-.015l-.008,0,0,.008a.048.048,0,0,0,.024.019.026.026,0,0,0,.016,0,.039.039,0,0,0,.024-.008v0l-.008,0A.037.037,0,0,1,17.6,6.655Z" transform="translate(-17.166 -6.214)"/><path d="M17.791,6.629h0l0,0a.137.137,0,0,1,.019-.043.2.2,0,0,1,.027-.024v0l-.008,0a.093.093,0,0,0-.027.028.084.084,0,0,0-.019.043Z" transform="translate(-17.137 -6.226)"/><path d="M17.886,6.6a.073.073,0,0,1,.04,0c.008,0,.011,0,.016.008l0,0,0,0V6.6l-.019-.011a.063.063,0,0,0-.047,0l0,0Z" transform="translate(-17.124 -6.221)"/><path d="M17.6,6.8H17.59V6.8a.113.113,0,0,0,.035.011s.013,0,.02,0A.042.042,0,0,1,17.66,6.8l0-.008h0a.016.016,0,0,1-.015.008A.055.055,0,0,1,17.6,6.8Z" transform="translate(-17.164 -6.193)"/><path d="M17.481,6.74a.035.035,0,0,0-.016.04.021.021,0,0,0,.008.019l0,0h0l0-.008a.03.03,0,0,1-.008-.02c0-.015.011-.027.016-.027V6.74Z" transform="translate(-17.181 -6.2)"/><path d="M17.414,6.757a.049.049,0,0,1,.008-.04V6.709l-.008,0a.05.05,0,0,0-.008.048.033.033,0,0,0,.011.024h.008V6.776A.043.043,0,0,1,17.414,6.757Z" transform="translate(-17.189 -6.204)"/><path d="M17.621,7.016l.008,0h0l0,0a.116.116,0,0,1,.015-.063.143.143,0,0,1,.033-.036.094.094,0,0,0,.031-.035.121.121,0,0,0,0-.075l-.008,0v.008a.147.147,0,0,1,0,.067.068.068,0,0,1-.028.031.149.149,0,0,0-.031.04A.185.185,0,0,0,17.621,7.016Z" transform="translate(-17.159 -6.191)"/><path d="M17.535,6.913a.055.055,0,0,0,.032-.024v0h-.008a.06.06,0,0,1-.027.019.164.164,0,0,1-.059.016l-.008,0,.008.008h0A.192.192,0,0,0,17.535,6.913Z" transform="translate(-17.181 -6.18)"/><path d="M17.563,6.931c0-.008-.008-.008-.091.051v.008h.008c.035-.024.055-.04.067-.047v0h.008C17.563,6.939,17.566,6.936,17.563,6.931Z" transform="translate(-17.18 -6.174)"/><path d="M17.732,6.958h0a.138.138,0,0,0,.016-.048.1.1,0,0,0-.016-.059h-.008v0a.087.087,0,0,1,.011.051.106.106,0,0,1-.011.043v.008Z" transform="translate(-17.145 -6.185)"/><path d="M17.563,7.164a.076.076,0,0,1,.016-.039A.2.2,0,0,1,17.6,7.1a.048.048,0,0,0,.011-.016.089.089,0,0,0,.008-.059l0,0,0,0a.1.1,0,0,1-.008.052.055.055,0,0,1-.011.015c0,.008-.013.016-.024.032s-.019.027-.019.043a.058.058,0,0,0,0,.024l0,0h0V7.164Z" transform="translate(-17.169 -6.162)"/><path d="M17.591,7.35l0,0,0,0a.159.159,0,0,0,.019-.067.162.162,0,0,0-.011-.039.059.059,0,0,1-.013-.036.137.137,0,0,1,.013-.075v0H17.6a.122.122,0,0,0-.016.083.325.325,0,0,0,.011.035.056.056,0,0,1,.013.035.073.073,0,0,1-.02.059Z" transform="translate(-17.165 -6.147)"/><path d="M17.542,7.227V7.219h-.008a.077.077,0,0,0-.027.051v.036l0,0h0l0-.008a.038.038,0,0,1,0-.027A.085.085,0,0,1,17.542,7.227Z" transform="translate(-17.175 -6.134)"/><path d="M17.545,7.351l-.009,0a.193.193,0,0,1-.043.059.1.1,0,0,1-.027.027V7.45l0,0,0,0a.206.206,0,0,0,.027-.027.252.252,0,0,0,.048-.064Z" transform="translate(-17.181 -6.116)"/><path d="M17.687,6.959a.2.2,0,0,1-.027.051.282.282,0,0,1-.027.056l0,.008h0l.008,0c.008-.016.016-.035.027-.056a.309.309,0,0,0,.024-.051l0,0Z" transform="translate(-17.158 -6.17)"/><path d="M17.726,7l-.008,0a.175.175,0,0,1-.039.075l-.02.019a.049.049,0,0,0-.019.028s-.013.019.007.086a.5.5,0,0,0,.02.067l0,0h0l0-.007c-.009-.02-.017-.044-.025-.064a.174.174,0,0,1-.008-.083.069.069,0,0,1,.02-.024l.019-.019a.2.2,0,0,0,.043-.08Z" transform="translate(-17.158 -6.164)"/><path d="M17.705,7.067l0,.007a.093.093,0,0,1,.008.083.031.031,0,0,1-.016.016v.008l0,0,0,0a.069.069,0,0,0,.016-.016c.024-.039,0-.091,0-.094Z" transform="translate(-17.15 -6.155)"/><path d="M17.763,7.312a.058.058,0,0,1,0,.024.2.2,0,0,1-.031.09l0,0v0l0,0a.185.185,0,0,0,.031-.094V7.312c0-.008,0-.016,0-.035a.624.624,0,0,1,.008-.1c0-.035,0-.055.008-.07a.185.185,0,0,1,.075-.091l0-.008-.008,0a.216.216,0,0,0-.078.1.331.331,0,0,0-.013.07.37.37,0,0,0,0,.1Z" transform="translate(-17.144 -6.163)"/><path d="M17.668,7.334a.178.178,0,0,0-.083.075.153.153,0,0,0-.016.086.119.119,0,0,0,.016.043.2.2,0,0,1,.011.048l-.011.04,0,0v0l0,0a.088.088,0,0,0,.011-.043.073.073,0,0,0-.011-.051c0-.013-.008-.024-.013-.04a.149.149,0,0,1,.013-.083.166.166,0,0,1,.078-.067V7.337Z" transform="translate(-17.167 -6.119)"/><path d="M17.641,7.695a.1.1,0,0,1,.011-.083V7.6l-.008,0a.111.111,0,0,0-.016.091.1.1,0,0,0,.019.027l0,0,0,0v0A.057.057,0,0,1,17.641,7.695Z" transform="translate(-17.159 -6.082)"/><path d="M17.53,7.679l-.008-.011A.071.071,0,0,1,17.53,7.6l0,0h-.008c-.011.032-.016.056,0,.07s0,.013.007.013.013.011.013.019,0,.016,0,.024v.008h.009a.074.074,0,0,0,.007-.035A.026.026,0,0,0,17.53,7.679Z" transform="translate(-17.175 -6.082)"/><path d="M17.858,7.717a.083.083,0,0,0-.032.007.084.084,0,0,0-.024.028.1.1,0,0,1-.019.032c-.008.007-.013.015-.02.015h0c-.015,0-.031-.043-.043-.082l0,0,0,.008c0,.019.024.086.051.086h0a.04.04,0,0,0,.028-.016.323.323,0,0,0,.024-.035.034.034,0,0,1,.016-.019c.007-.008.015-.008.027-.008l.008,0Z" transform="translate(-17.147 -6.067)"/><path d="M17.747,7.851l0,0c0,.056-.016.091-.04.1-.007,0-.015,0-.023.008s-.02,0-.02.015.008.028.043.044v0l0,0V8.017c-.04-.024-.04-.032-.04-.036l.016-.008a.063.063,0,0,0,.024-.007c.027-.016.043-.052.048-.111Z" transform="translate(-17.154 -6.048)"/><path d="M17.676,8.059l0,0a.072.072,0,0,1,0,.059.091.091,0,0,1-.035.027l0,0,.008,0h0a.089.089,0,0,0,.04-.032.077.077,0,0,0,.008-.063Z" transform="translate(-17.159 -6.02)"/><path d="M17.453,7.955h-.008a.083.083,0,0,0-.008.027v.028l0,0h0l0,0a.023.023,0,0,1,0-.024.053.053,0,0,1,.008-.028Z" transform="translate(-17.185 -6.034)"/><path d="M17.983,7.535l0,0a.336.336,0,0,1-.02.063.223.223,0,0,1-.039.075v.008h.008a.735.735,0,0,0,.043-.078.474.474,0,0,0,.016-.064Z" transform="translate(-17.119 -6.091)"/><path d="M17.983,7.478l-.008,0c-.016.023-.035.051-.056.075s-.047.059-.059.055-.016-.048-.011-.083c0-.008,0-.011,0-.019a.026.026,0,0,1,0-.016.7.7,0,0,0,0-.086l-.008,0,0,0a.308.308,0,0,1,0,.086l0,.016a.038.038,0,0,1,0,.019s-.008.083.02.1h0c.02,0,.04-.024.067-.06a.488.488,0,0,0,.056-.078Z" transform="translate(-17.13 -6.109)"/><path d="M17.865,7.245V7.237h-.008a.113.113,0,0,0-.032.059.048.048,0,0,0,0,.035.1.1,0,0,1,0,.032.093.093,0,0,1-.035.051v0l0,0h0a.1.1,0,0,0,.039-.056.049.049,0,0,0,0-.035.091.091,0,0,1,0-.035A.079.079,0,0,1,17.865,7.245Z" transform="translate(-17.136 -6.132)"/><path d="M17.758,7.421l-.008,0a.09.09,0,0,0-.016.131.25.25,0,0,1,.024.047.185.185,0,0,1,.011.067l.008,0h0l0,0a.219.219,0,0,0-.013-.07.222.222,0,0,0-.027-.048.069.069,0,0,1-.016-.04.12.12,0,0,1,.032-.083Z" transform="translate(-17.147 -6.107)"/><path d="M17.805,7.636v.008h0l0,0a.039.039,0,0,0,.008-.02.079.079,0,0,0-.011-.07l-.008,0v.008a.1.1,0,0,1,.011.064Z" transform="translate(-17.135 -6.09)"/><path d="M17.95,7.306a.118.118,0,0,1-.019.048v0l0-.008a.19.19,0,0,0-.027-.091H17.9v.008a.124.124,0,0,1,.024.083v.008c0,.008,0,.016,0,.016v0l.008,0a.082.082,0,0,0,.027-.055.114.114,0,0,0-.011-.06l0,0,0,.008A.113.113,0,0,1,17.95,7.306Z" transform="translate(-17.121 -6.131)"/><path d="M17.841,7.072l0,.008a.106.106,0,0,1,.013.043.038.038,0,0,0,0,.019c0,.008,0,.013,0,.016l0,0c.011,0,.035-.024.047-.032a.227.227,0,0,0,.048-.067V7.056h-.008a.2.2,0,0,1-.047.067.107.107,0,0,1-.036.027v0a.026.026,0,0,0,0-.019.061.061,0,0,0-.013-.052Z" transform="translate(-17.13 -6.157)"/><path d="M18.1,7.39a.063.063,0,0,1-.048-.008.084.084,0,0,1-.008-.048.16.16,0,0,0,0-.047.183.183,0,0,0-.055-.107h0l0,0a.244.244,0,0,1,.055.1v.047a.058.058,0,0,0,.013.056.047.047,0,0,0,.035.011.049.049,0,0,0,.019,0l0,0Z" transform="translate(-17.11 -6.14)"/><path d="M18.09,7.469l0,0a.134.134,0,0,0-.031.1.105.105,0,0,1,.007.027c.008.016.013.027,0,.04a.048.048,0,0,1-.032.019l0,.008,0,0h0a.068.068,0,0,0,.043-.028.093.093,0,0,0,0-.047.05.05,0,0,1-.008-.024.137.137,0,0,1,.027-.1Z" transform="translate(-17.103 -6.1)"/><path d="M18.046,7.493h.008v0a.053.053,0,0,0-.008-.028.249.249,0,0,0-.035-.055h0l0,.008a.206.206,0,0,1,.032.051A.221.221,0,0,1,18.046,7.493Z" transform="translate(-17.107 -6.109)"/><path d="M18.15,7.446c0,.016,0,.024,0,.024h0s.008,0,.008-.016.016-.051.035-.059a.17.17,0,0,1,.043.016.078.078,0,0,0,.027.008.036.036,0,0,0,.024.008s0-.008.024-.063a.089.089,0,0,1,0-.016l0,0c0-.008,0-.011,0-.016s0,0-.015.032c0,.016-.016.048-.019.056l-.013,0a.221.221,0,0,0-.027-.011c-.028-.008-.04-.016-.052-.013s-.023.02-.031.036V7.407a.2.2,0,0,0-.044-.118h-.007V7.3a.181.181,0,0,1,.039.11A.11.11,0,0,1,18.15,7.446Z" transform="translate(-17.092 -6.125)"/><path d="M18.335,7.554V7.548h-.008a.122.122,0,0,1-.035.027.427.427,0,0,1-.1.055.089.089,0,0,0,.024-.019.231.231,0,0,0,.06-.126l0-.008,0,0a.209.209,0,0,1-.059.122l-.027.024c-.011,0-.016.008-.011.016l0,0h0a.4.4,0,0,0,.123-.059C18.311,7.575,18.324,7.567,18.335,7.554Z" transform="translate(-17.085 -6.099)"/><path d="M18.381,7.483l0,0a.385.385,0,0,1-.027.115.2.2,0,0,1-.028.056l0,.008h0l0,0a.272.272,0,0,0,.027-.055.3.3,0,0,0,.024-.119Z" transform="translate(-17.064 -6.098)"/><path d="M18.513,7.459l-.008,0a.317.317,0,0,1-.043.075A.333.333,0,0,1,18.4,7.6v.008l0,0,0,0a.332.332,0,0,0,.063-.064.232.232,0,0,0,.043-.078Z" transform="translate(-17.053 -6.102)"/><path d="M18.453,7.643h-.008v0a.281.281,0,0,1,.032.094.15.15,0,0,1-.008.075.064.064,0,0,1-.013-.019.219.219,0,0,0-.04-.075c-.007-.011-.019-.024-.027-.035h-.008v.008c.008.011.02.024.028.035.019.032.031.056.039.07s.013.028.02.028h0c.019,0,.019-.059.016-.091A.18.18,0,0,0,18.453,7.643Z" transform="translate(-17.056 -6.076)"/><path d="M18.118,7.684h-.007v.008a.228.228,0,0,1,.051.107.384.384,0,0,1,0,.063l0,0h0l.008,0a.274.274,0,0,0,0-.063A.258.258,0,0,0,18.118,7.684Z" transform="translate(-17.092 -6.071)"/><path d="M18.226,7.882a.093.093,0,0,0-.028.048.1.1,0,0,0,0,.051l0,0h0l0-.008a.076.076,0,0,1,0-.043.082.082,0,0,1,.028-.043V7.882Z" transform="translate(-17.081 -6.044)"/><path d="M18.344,7.886l0,0a.329.329,0,0,1-.04.056c-.008.008-.019.016-.027.023v.008h.008a.144.144,0,0,1,.027-.023.256.256,0,0,0,.04-.059Z" transform="translate(-17.07 -6.043)"/><path d="M18.072,8.167l0,.008a.047.047,0,0,1-.023.051.051.051,0,0,1-.048,0h-.008l0,.008a.043.043,0,0,0,.032.013.068.068,0,0,0,.023-.008.059.059,0,0,0,.032-.064Z" transform="translate(-17.109 -6.005)"/><path d="M18.647,7.628a.115.115,0,0,0,.032-.1.433.433,0,0,0,0-.067V7.438a.078.078,0,0,1,.024.024c.011.016.019.024.027.019s.011-.008-.011-.063a.5.5,0,0,0-.048-.1h-.008l0,0a.744.744,0,0,1,.052.1.146.146,0,0,1,.015.048s-.011-.008-.015-.016-.024-.032-.036-.027-.008.015-.008.039a.325.325,0,0,1,0,.067c0,.032,0,.072-.023.083s-.027.013-.032,0a.03.03,0,0,1,0-.028c0-.019.011-.035,0-.047a.04.04,0,0,0-.04-.008l0,0,.008,0c.011,0,.023,0,.027.008s0,.019,0,.035-.008.032,0,.04l.016.008A.049.049,0,0,0,18.647,7.628Z" transform="translate(-17.03 -6.121)"/><path d="M18.58,7.4h-.008a.511.511,0,0,0-.027.064.2.2,0,0,0-.008.024l-.008.027s0,0-.008-.013l-.008,0,0,.008c0,.008.008.019.019.019h0c.008,0,.011-.011.019-.035a.066.066,0,0,1,.008-.024.469.469,0,0,1,.024-.063Z" transform="translate(-17.038 -6.109)"/><path d="M18.4,7.37a.174.174,0,0,1-.008.047v.008h0l0,0a.072.072,0,0,0,.008-.051.106.106,0,0,0-.024-.067h0l0,.007A.1.1,0,0,1,18.4,7.37Z" transform="translate(-17.057 -6.123)"/><path d="M18.222,7.244h0l0,0,.008-.079,0,0-.008,0,0,.075Z" transform="translate(-17.078 -6.143)"/><path d="M18.254,7.307h0a.059.059,0,0,0,.032-.024.064.064,0,0,0,0-.064h-.008l0,0a.053.053,0,0,1,0,.055.034.034,0,0,1-.028.016l0,.008Z" transform="translate(-17.074 -6.134)"/><path d="M18.527,7.306l0,0a.038.038,0,0,1-.036-.008c-.011-.008-.011-.028,0-.044l0,0h0a.049.049,0,0,0,0,.056.047.047,0,0,0,.033.011h.011Z" transform="translate(-17.044 -6.131)"/><path d="M18.822,7.292V7.3c.023.04.023.075.007.086s-.011.008-.027,0l0,0,0,0,.013,0a.028.028,0,0,0,.023-.008c.016-.011.02-.055-.008-.1Z" transform="translate(-16.999 -6.124)"/><path d="M18.905,7.261l0,0v0c.011.008.024.019.024.032a.03.03,0,0,1-.013.023v.008h.008a.043.043,0,0,0,.013-.031A.041.041,0,0,0,18.905,7.261Z" transform="translate(-16.984 -6.129)"/><path d="M18.973,7.25v.008a.036.036,0,0,1,0,.04l-.011.008,0,.008.007,0h0a.026.026,0,0,0,.016-.015.035.035,0,0,0,0-.048Z" transform="translate(-16.977 -6.13)"/><path d="M19.083,7.237l-.008,0v.008l.016.028h0l0-.008Z" transform="translate(-16.961 -6.132)"/><path d="M18.767,7.566l0,0-.008,0a.178.178,0,0,1-.008.08l-.008.011a.1.1,0,0,0-.019.048v.011a.2.2,0,0,1-.04-.067h0l0,0c.027.063.039.075.048.075h0l.008-.016V7.705a.166.166,0,0,1,.016-.043l.008-.013A.142.142,0,0,0,18.767,7.566Z" transform="translate(-17.016 -6.087)"/><path d="M18.773,7.768l-.008,0a.183.183,0,0,0-.016.078.163.163,0,0,0,.013.06l.007,0h0l0-.008a.125.125,0,0,1-.011-.056.159.159,0,0,1,.015-.074Z" transform="translate(-17.005 -6.059)"/><path d="M18.674,7.823c.008,0,.016.02.019.035s0,.016,0,.024l0,0h0l0,0V7.858s-.013-.043-.032-.043-.016.008-.024.02a.107.107,0,0,0-.032-.067h-.007v.008a.1.1,0,0,1,.027.07.028.028,0,0,1,0,.016s0,.011,0,.011.008,0,.011-.011S18.666,7.823,18.674,7.823Z" transform="translate(-17.024 -6.059)"/><path d="M18.728,8l0,0s-.009.027-.028.043a.069.069,0,0,1-.043.008l-.008,0,0,.008h.016a.077.077,0,0,0,.036-.011A.061.061,0,0,0,18.731,8Z" transform="translate(-17.019 -6.028)"/><path d="M18.589,8.1l0,0a.036.036,0,0,1-.016.036.037.037,0,0,1-.024.007l-.008,0,0,0,.008,0a.051.051,0,0,0,.027-.013A.045.045,0,0,0,18.6,8.1Z" transform="translate(-17.034 -6.014)"/><path d="M18.545,8.2c-.011.011-.023.019-.034.032s-.02.011-.033.016v.008l0,0v0c.011,0,.024-.013.032-.016a.317.317,0,0,0,.039-.032V8.2Z" transform="translate(-17.042 -6.001)"/><path d="M18.586,7.9l0,.008v.055l0,.008.008-.008V7.9Z" transform="translate(-17.028 -6.042)"/><path d="M18.275,7.772V7.741l0-.008-.008.008v.032l.008,0Z" transform="translate(-17.072 -6.064)"/><path d="M18,7.712h-.008V7.72L18,7.74h.008V7.732Z" transform="translate(-17.109 -6.067)"/></g></g></g></svg>