<svg xmlns="http://www.w3.org/2000/svg" width="35.153" height="35.153" viewBox="0 0 35.153 35.153"><g transform="translate(0)"><g transform="translate(0 0)"><path d="M16.637,0A17.444,17.444,0,0,0,6.865,2.978V4.051h0V4.62h0V8.6h0v.627h0v3.436h0v.627h0v8.573h0v.626h0v.947H33.212A17.582,17.582,0,0,0,16.637,0Z" transform="translate(0.939)" fill="#c7313d"/><path d="M6.865,20.806v2.3h0v.627h0V27.71h0v.568h0v1.076a17.436,17.436,0,0,0,9.772,2.979A17.614,17.614,0,0,0,33.212,20.616H6.865Z" transform="translate(0.939 2.819)" fill="#48a558"/><path d="M.327,17.73v-.564H.687V16.61H1.03v-.556h.311v-.7H1.03V14.8H.687v-.556H.327v-.565H.118a17.423,17.423,0,0,0,0,4.052Z" transform="translate(0 1.87)" fill="#fff"/><path d="M.6,13.079v.6H.975v.56h.3v-.56h.347v-.559h.343V12.55H2.3v-.564h.39v-.639h.351v-.6H2.723v-.533H2.308V9.6H1.286v.607h.687v.533h-.3v.6H1.326v.591H.975v-.591H.663c-.15.5-.273,1.009-.375,1.53v.2Z" transform="translate(0.039 1.313)" fill="#fff"/><path d="M4.179,4.925c-.059.064-.123.131-.177.2h.177Z" transform="translate(0.547 0.673)" fill="#fff"/><rect width="0.367" height="0.568" transform="translate(4.734 6.344)" fill="#fff"/><path d="M6.909,18.4H6.594v-.6H6.223v-.56h-.3v.56H5.58v.56H5.236v.564H4.893v.56H4.5v.643H4.148v.6h.327v.343h.75v-.343h.3v-.6h.348v-.592h.351v.592H6.57v.6h.3v.343h.371v-.947H6.909V19.5h.327v-.529H6.909Z" transform="translate(0.567 2.357)" fill="#fff"/><path d="M4.194,12.264H3.85V11.7H3.472v.564H3.129v.565H2.785v.559H2.439v.56H2.1v.565H1.76v2.924H2.1V18h.335v.56h.347v.56h.343v.564h.343v.56H3.85v-.56h.343v-.564h.343v-.56h.348V18H5.22v-.564h.343V14.513H5.22v-.565H4.885v-.56H4.537v-.559H4.194Zm-1.724,4H2.1v-.572h.366Zm2.384-.572H5.22v.572H4.853ZM3.476,12.813h.366v.572H3.476Zm.366,6.32H3.476v-.568h.366Zm.632-5.172V15.12H4.131v.533H3.815v.639h.316v.537h.343v1.159H4.162v-.623H3.815v-.537H3.507v.537H3.16v.623H2.849V16.829h.343v-.537h.315v-.639H3.192V15.12H2.849V13.961H3.16v.623h.347v.537h.308v-.537h.347v-.623Z" transform="translate(0.241 1.6)" fill="#fff"/><path d="M6.7,14.243H6.341V14.8H6v.556H5.682v.7H6v.556h.343v.556H6.7v.564h.327V13.678H6.7Z" transform="translate(0.777 1.87)" fill="#fff"/><rect width="0.371" height="0.568" transform="translate(6.77 6.344)" fill="#fff"/><path d="M7.173,3.075H6.858c-.008.008-.016.011-.024.019v.552H6.483v.568h-.3V4.8H5.855v.6H5.448V4.8H5.113V4.546c-.1.1-.2.2-.3.3h0v.592h.3V6h.356v.544H5.117V7.1h-.3v.592H4.431V7.1h-.3v-.56H3.776V6h.351V5.575c-.241.268-.469.544-.691.824v.142h-.11c-.083.107-.161.217-.241.327V7.1H2.916l-.138.2v.394h-.26c-.123.189-.241.379-.356.572h.276v.6H2.77v.548h.339v.572h.327v.573h.34V9.986H4.1V9.414h.339V8.866h.332v-.6H5.1v-.6h.368V7.115h.339v.552h.367v.6H6.51v.6h.332v.548h.339v.572h.327V8.866H7.181V8.239h.327v-1.7H7.153V7.1h-.3v.592H6.47V7.1H6.163v-.56H5.812V6h.351V5.438H6.47V4.846h.383v.592h.3V6h.355V4.261H7.185V3.693h.323V2.62c-.114.072-.225.15-.335.23ZM3.764,8.866H3.436v-1.2h.327Z" transform="translate(0.296 0.358)" fill="#fff"/><path d="M6.867,10.744h-.3v.6H6.224v.592H5.873v-.592H5.525v-.6h-.3v-.533h.683V9.6H4.878v.608h-.41v.533H4.141v.6h.352v.639h.4v.564h.343v.564h.343v.56h.343v.56h.3v-.56h.371v-.6H6.91V12.5h.327v-.529H6.91v-.627h.327V10.211H6.867Z" transform="translate(0.566 1.313)" fill="#fff"/><path d="M.975,19.539h.351v.591h.347v.6h.3v.343h.758v-.343h.327v-.6H2.707v-.642H2.3v-.56H1.961v-.564H1.618V17.8H1.271v-.56h-.3v.56H.6v.6H.288v.2c.1.517.225,1.026.375,1.527H.975Z" transform="translate(0.039 2.357)" fill="#fff"/><rect width="0.371" height="0.189" transform="translate(7.433 23.435)" fill="#fff"/><path d="M4.85,20.806v.608H5.868v-.608H5.185v-.189h-.75v.189Z" transform="translate(0.606 2.819)" fill="#fff"/><path d="M1.853,20.806H1.166v.608H2.2v-.608h.411v-.189H1.853Z" transform="translate(0.159 2.819)" fill="#fff"/><path d="M7.186,28.183v-.568h.323V25.879H7.154v.56h-.3v.591H6.471v-.591H6.164v-.56H5.812v-.544h.351v-.565h.307v-.588h.383v.588h.3v.565h.355v-1.7H7.181v-.627h.327V21.89H7.181v.572H6.842v.548H6.51v.6H6.18v.6H5.812v.548H5.474V24.21H5.105v-.6H4.775v-.6H4.443v-.548H4.1V21.89H3.777v-.572h-.34v.572H3.109v.572H2.771v.548H2.439v.6h-.28c.114.193.233.383.356.572h.264v.4c.043.063.091.126.134.189h.173v.241c.08.11.158.217.241.324h.11v.146c.222.281.45.557.691.825v-.426H3.777v-.544h.351v-.565h.3v-.588h.383v.588h.3v.565h.356v.544H5.118v.56h-.3v.591H4.806c.1.1.2.2.307.3v-.256h.335v-.6h.407v.6h.331v.584h.3v.572h.351v.552a.06.06,0,0,1,.019.016h.319v.228c.11.078.222.153.335.228V28.183ZM3.777,24.21H3.449v-1.2h.327Z" transform="translate(0.295 2.915)" fill="#fff"/><rect width="0.371" height="0.568" transform="translate(6.77 28.237)" fill="#fff"/><path d="M4,25.823c.058.07.118.134.181.2v-.2Z" transform="translate(0.547 3.531)" fill="#fff"/><rect width="0.367" height="0.568" transform="translate(4.734 28.237)" fill="#fff"/><rect height="0.627" transform="translate(7.804 8.597)" fill="#c7313d"/><rect width="0.327" height="0.627" transform="translate(7.476 8.597)" fill="#c7313d"/><rect height="0.627" transform="translate(7.804 12.66)" fill="#c7313d"/><rect width="0.327" height="0.627" transform="translate(7.476 12.66)" fill="#c7313d"/><rect width="0.327" height="1.199" transform="translate(3.732 8.025)" fill="#c7313d"/><path d="M2.994,6.591V6.358c-.058.08-.114.155-.169.233Z" transform="translate(0.386 0.869)" fill="#c7313d"/><path d="M3.3,6.087V5.945c-.035.048-.075.1-.11.142Z" transform="translate(0.436 0.813)" fill="#c7313d"/><path d="M2.735,6.737c-.091.126-.177.26-.26.394h.26Z" transform="translate(0.338 0.921)" fill="#c7313d"/><path d="M3.582,5.729v.544h.351v.56h.3v.592H4.62V6.834h.3v-.56h.356V5.729H4.923V5.17h-.3V4.578h0c-.13.126-.256.26-.379.394v.2H4.059a1.809,1.809,0,0,0-.126.138v.422Zm.663-.011h.367v.568H4.245Z" transform="translate(0.49 0.626)" fill="#c7313d"/><path d="M6.714,5.17h-.3V4.578H6.031V5.17H5.724v.559H5.373v.544h.351v.56h.307v.592h.383V6.834h.3v-.56h.355V5.729H6.714ZM6.406,6.286H6.036V5.718h.371Z" transform="translate(0.735 0.626)" fill="#c7313d"/><rect height="0.568" transform="translate(7.804 4.052)" fill="#c7313d"/><rect width="0.324" height="0.568" transform="translate(7.48 4.052)" fill="#c7313d"/><path d="M5.093,4.741v.6H5.5v-.6h.331V4.158h.3V3.589h.351V3.037A17.718,17.718,0,0,0,4.758,4.489v.252Z" transform="translate(0.651 0.415)" fill="#c7313d"/><path d="M6.608,2.822c-.107.07-.209.146-.315.225h.315Z" transform="translate(0.86 0.386)" fill="#c7313d"/><path d="M1.928,20.458h-.3v-.6H1.281v-.591H.929v.591H.618c.091.321.193.635.3.947H1.928Z" transform="translate(0.084 2.634)" fill="#c7313d"/><path d="M7.462,8.874H7.123V8.326H6.791v-.6H6.461v-.6H6.093V6.574H5.755v.552H5.386v.6H5.056v.6H4.724v.548H4.385v.572H4.058v.573h-.34V9.445H3.39V8.874H3.052V8.326H2.72v-.6H2.443A17.286,17.286,0,0,0,.688,11.762H1v.591h.351v-.591H1.7v-.6H2v-.533H1.311v-.607H2.333v.607h.415v.533h.323v.6H2.72V12.4H2.33v.564H1.986v.565H1.643v.559H1.3v.56H1v-.56H.629v-.6H.313v-.2c-.086.447-.158.9-.209,1.357H.313v.565H.672v.556h.343v.556h.311v.7H1.016v.556H.672v.557H.313V18.7H.1c.051.457.123.912.209,1.361v-.2H.629v-.6H1V18.7h.3v.56h.347v.56h.343v.564H2.33v.56h.4v.642h.351v.6H2.756v.343H5.028v-.343H4.7v-.6h.35v-.642h.4v-.56H5.79v-.564h.342v-.56h.343V18.7h.3v.56h.371v.6h.316v.575h.327V18.7H7.462v-.564H7.1v-.557H6.76v-.556H6.445v-.7H6.76V15.77H7.1v-.556h.359v-.565h.327V12.918H7.462v.575H7.146v.6H6.775v.56h-.3v-.56H6.132V13.53H5.79v-.565H5.447V12.4h-.4v-.639H4.693v-.6H5.02v-.533h.41v-.607h1.03v.607H5.777v.533h.3v.6h.348v.591h.35v-.591h.348v-.6h.3v-.533h.371V9.445H7.462Zm-2.7,4.656v.559h.348v.56h.335v.565H5.79v2.924H5.447V18.7H5.111v.56H4.763v.56H4.42v.564H4.077v.56H3.7v-.56H3.355v-.564H3.012v-.56H2.665V18.7H2.33v-.564H1.986V15.214H2.33v-.565h.335v-.56h.347V13.53h.343v-.565H3.7V12.4h.379v.564H4.42v.565Z" transform="translate(0.014 0.899)" fill="#c7313d"/><path d="M6.736,20.458h-.3v-.6H6.093v-.592H5.743v.592H5.395v.6H5.1V20.8H6.736Z" transform="translate(0.697 2.634)" fill="#c7313d"/><path d="M7.312,20.616H5.671v.19h.683v.608H5.335v-.608H4.921v-.19H2.649v.19h-.41v.608H1.2v-.608h.687v-.19H.885a17.656,17.656,0,0,0,1.448,3.09h.28v-.6h.332v-.548h.339v-.572h.327v-.572h.34v.572h.327v.572h.339v.548h.332v.6H5.28v.6h.368v.548h.339v-.548h.367v-.6h.331v-.6h.332v-.548h.339v-.572h.327v-1.18H7.312Z" transform="translate(0.121 2.819)" fill="#c7313d"/><rect height="0.627" transform="translate(7.804 25.925)" fill="#c7313d"/><rect width="0.327" height="0.627" transform="translate(7.476 25.925)" fill="#c7313d"/><rect height="0.627" transform="translate(7.804 21.861)" fill="#c7313d"/><rect width="0.327" height="0.627" transform="translate(7.476 21.861)" fill="#c7313d"/><rect width="0.328" height="1.199" transform="translate(3.744 25.925)" fill="#c7313d"/><path d="M6.714,24.425h-.3v-.588H6.031v.588H5.724v.565H5.373v.544h.351v.56h.307v.591h.383v-.591h.3v-.56h.355V24.99H6.714Zm-.308,1.121H6.036v-.568h.371Z" transform="translate(0.735 3.259)" fill="#c7313d"/><path d="M4.237,26.095v.2c.123.13.249.26.375.39H4.62v-.591h.3v-.56h.356V24.99H4.923v-.565h-.3v-.588H4.237v.588h-.3v.565H3.582v.544h.351v.426c.039.047.078.09.123.134Zm.008-1.117h.367v.568H4.245Z" transform="translate(0.49 3.259)" fill="#c7313d"/><path d="M2.995,24.354H2.822c.055.083.115.163.173.241Z" transform="translate(0.386 3.33)" fill="#c7313d"/><path d="M3.3,24.851h-.11c.035.047.072.1.11.146Z" transform="translate(0.436 3.398)" fill="#c7313d"/><path d="M2.736,23.837H2.472c.086.134.173.268.264.4Z" transform="translate(0.338 3.259)" fill="#c7313d"/><rect height="0.568" transform="translate(7.804 30.529)" fill="#c7313d"/><rect width="0.324" height="0.568" transform="translate(7.48 30.529)" fill="#c7313d"/><path d="M6.479,27.613H6.128v-.572h-.3v-.584H5.5v-.6H5.093v.6H4.758v.256a17.73,17.73,0,0,0,1.721,1.453Z" transform="translate(0.651 3.535)" fill="#c7313d"/><path d="M6.608,27.9H6.289c.107.075.213.153.319.228Z" transform="translate(0.86 3.815)" fill="#c7313d"/><rect width="0.367" height="0.572" transform="translate(2.344 17.288)" fill="#c7313d"/><rect width="0.367" height="0.572" transform="translate(5.093 17.288)" fill="#c7313d"/><rect width="0.367" height="0.568" transform="translate(3.717 20.164)" fill="#c7313d"/><rect width="0.367" height="0.572" transform="translate(3.717 14.412)" fill="#c7313d"/><path d="M4.031,14.312H3.684v.537H3.376v-.537H3.03v-.623H2.718v1.16h.343v.533h.316v.639H3.061v.537H2.718v1.16H3.03v-.623h.347v-.537h.308v.537h.347v.623h.312v-1.16H4V16.02H3.684v-.639H4v-.533h.343v-1.16H4.031Z" transform="translate(0.372 1.872)" fill="#c7313d"/></g></g></svg>