<svg xmlns="http://www.w3.org/2000/svg" width="49.272" height="12.08" viewBox="0 0 49.272 12.08"><g transform="translate(0 0)"><g transform="translate(0 0)"><path d="M19.68,3.513A142.709,142.709,0,0,1,0,0,14.382,14.382,0,0,0,2.909,3.135C4.382,4.155,15.9,6.27,15.9,6.27Z" fill="#cacee6"/><path d="M47.959,38.83s-7.064-.944-9.821-2.115a9.065,9.065,0,0,0,3.664,2.72,20.091,20.091,0,0,0,4.5.869Z" transform="translate(-33.076 -31.842)" fill="#cacee6"/><path d="M222.966,3.513l3.777,2.757s11.521-2.115,12.994-3.135A14.383,14.383,0,0,0,242.646,0,142.709,142.709,0,0,1,222.966,3.513Z" transform="translate(-193.374)" fill="#cacee6"/><path d="M260.773,40.3a20.091,20.091,0,0,0,4.5-.869,9.066,9.066,0,0,0,3.664-2.72c-2.757,1.171-9.821,2.115-9.821,2.115Z" transform="translate(-224.722 -31.842)" fill="#cacee6"/><path d="M151.51,58.63h-3.6L146.29,60.1h10.441l-1.624-1.473Z" transform="translate(-126.874 -50.848)" fill="#cacee6"/><path d="M96.619,22.484H92.147c-1.587,0-12.2,8.612-11.71,9.028.436.369,4.9-.872,5.888-1.153a.755.755,0,0,0,.332-.2c.888-.9,5.754-5.789,6.509-5.789H95.6c.755,0,5.623,4.892,6.51,5.79a.754.754,0,0,0,.331.2c.988.281,5.452,1.523,5.889,1.153C108.82,31.1,98.206,22.484,96.619,22.484Z" transform="translate(-69.747 -19.5)" fill="#cacee6"/></g></g></svg>