<svg xmlns="http://www.w3.org/2000/svg" width="35.149" height="35.153" viewBox="0 0 35.149 35.153"><g transform="translate(0.001)"><g transform="translate(-0.001 0)"><path d="M35.029,17.18a17.1,17.1,0,0,1-.9,3.906H.993a17.123,17.123,0,0,1-.9-3.906H35.029Z" transform="translate(0.013 2.349)" fill="#fff"/><path d="M34.022,20.616a17.177,17.177,0,0,1-1.961,3.906H2.849A17.1,17.1,0,0,1,.885,20.616Z" transform="translate(0.121 2.819)" fill="#115ead"/><path d="M31.824,24.052a17.627,17.627,0,0,1-3.574,3.907H6.185a17.59,17.59,0,0,1-3.572-3.907Z" transform="translate(0.357 3.288)" fill="#fff"/><path d="M27.821,27.489a17.536,17.536,0,0,1-22.066,0Z" transform="translate(0.787 3.758)" fill="#115ead"/><path d="M27.821,3.906H5.755A17.516,17.516,0,0,1,16.79,0h.078A17.5,17.5,0,0,1,27.821,3.906Z" transform="translate(0.787)" fill="#115ead"/><path d="M35.149,15.7a17.57,17.57,0,0,1-.107,1.953H.107a17.9,17.9,0,0,1,0-3.906H35.042A17.6,17.6,0,0,1,35.149,15.7Z" transform="translate(0 1.879)" fill="#115ead"/><path d="M31.824,7.342H2.613A17.524,17.524,0,0,1,5.581,3.949c.2-.177.4-.347.6-.513H28.251A17.646,17.646,0,0,1,31.824,7.342Z" transform="translate(0.357 0.47)" fill="#fff"/><path d="M34.027,10.778H.882a17.308,17.308,0,0,1,1.968-3.9v0H32.061A17.5,17.5,0,0,1,34.027,10.778Z" transform="translate(0.121 0.94)" fill="#115ead"/><path d="M35.029,14.214H.094a17.414,17.414,0,0,1,.9-3.906H34.134A17.412,17.412,0,0,1,35.029,14.214Z" transform="translate(0.013 1.409)" fill="#fff"/><path d="M17.656,0V19.529H.107A17.587,17.587,0,0,1,1,11.717a17.308,17.308,0,0,1,1.968-3.9v0A17.524,17.524,0,0,1,5.938,4.418c.2-.177.4-.347.6-.513A17.516,17.516,0,0,1,17.577,0Z" fill="#115ead"/><g transform="translate(1.003 7.816)"><path d="M17.535,6.876v3.9H.882a17.308,17.308,0,0,1,1.968-3.9Z" transform="translate(-0.882 -6.876)" fill="#fff"/></g><g transform="translate(5.938 1.795)"><path d="M9.13,1.579V19.313H5.224V4.2c.2-.177.4-.347.6-.513A17.563,17.563,0,0,1,9.13,1.579Z" transform="translate(-5.224 -1.579)" fill="#fff"/></g></g></g></svg>