<svg xmlns="http://www.w3.org/2000/svg" width="35.153" height="35.153" viewBox="0 0 35.153 35.153"><g transform="translate(0 0)"><path d="M31.634,27.272A17.557,17.557,0,0,1,6.408,30.294c-.107-.091-.214-.177-.321-.273a17.569,17.569,0,0,1-5.5-8.782c-.015-.051-.032-.1-.043-.157h0a15.935,15.935,0,0,1-.386-2v0c-.019-.131-.035-.265-.051-.4A17.6,17.6,0,0,1,3.519,6.188Z" transform="translate(0 0.846)"/><path d="M34.73,17.576a17.494,17.494,0,0,1-3.519,10.542L3.1,7.034A17.572,17.572,0,0,1,34.73,17.576Z" transform="translate(0.423)" fill="#cd1225"/><g transform="translate(0.107 11.051)"><path d="M6.664,9.722,7.2,11.359h1.72l-1.393,1.01.533,1.637L6.664,13l-1.389,1.01L5.8,12.369l-1.389-1.01H6.131Z" transform="translate(0.497 -9.722)" fill="#fff"/><path d="M2.7,18.387l.532,1.637L1.841,19.01l-1.266.923c-.015-.051-.032-.1-.043-.157h0l.45-1.389-.837-.608v0c-.019-.131-.035-.265-.051-.4H1.309l.532-1.637.533,1.637H4.091Z" transform="translate(-0.094 -8.899)" fill="#fff"/><path d="M11.343,15.348l.533,1.633H13.6L12.2,17.991l.533,1.637-1.393-1.01L9.95,19.628l.533-1.637L9.09,16.981h1.721Z" transform="translate(1.136 -8.952)" fill="#fff"/><path d="M8.614,20.519l.276.852h.9l-.726.529.276.856-.726-.529-.726.529.276-.856-.726-.529h.9Z" transform="translate(0.91 -8.245)" fill="#fff"/><path d="M7.524,26.613l.533,1.637L6.663,27.239l-.859.624c-.107-.091-.214-.177-.321-.273l.321-.978L4.415,25.6H6.131l.532-1.633L7.2,25.6h1.72Z" transform="translate(0.497 -7.774)" fill="#fff"/></g><path d="M28.418,15.868c-.118-.174-.244-.343-.375-.513a6.319,6.319,0,0,0-.8-2.671c.039-.193.058-.4.251-.331.289.1.38.626.56.363s-.094-1.065-.417-1.408.385.016.39-.182a8,8,0,0,0-1.55-1.806c-.308-.193.284-.206.288-.292a7.885,7.885,0,0,0-1.483-1.046c-.326-.15.521-.153.324-.367a6,6,0,0,0-2.924-.189c-.738.236.016-.469.146-.6s-.074-.324-.067-.5-.023-.019.265-.292-.131-.347-.311-.351.4-.291.41-.564-.615.032-.541-.043.529-.765.23-.778-.388.043-.383-.075.7-.867.426-.88a.857.857,0,0,0-.3.1,3.741,3.741,0,0,0-.54.3A4.534,4.534,0,0,0,20.73,5.006a3.759,3.759,0,0,0-.56,1.389,3.691,3.691,0,0,0-.064.773c0,.265.08.517.091.778a.8.8,0,0,1-.115.485.454.454,0,0,1-.77.008,3.8,3.8,0,0,0-.65-.659,1.041,1.041,0,0,0-.469-.217,1.776,1.776,0,0,0-.572.051,2.68,2.68,0,0,1-1.03.107,1.484,1.484,0,0,0-.707-.059,3.989,3.989,0,0,0,.525.28,4.66,4.66,0,0,1,.718.431,1.688,1.688,0,0,0,.706.414c.1.019.2.019.3.035a1.194,1.194,0,0,1,.639.477.137.137,0,0,1,.032.056.1.1,0,0,1-.019.067c-.115.233-.257.516-.557.5-.371-.011-.682-.552-1.455-.576a2.484,2.484,0,0,0-1.811.675A8.846,8.846,0,0,0,13.3,12.392c-.011.359.414.024.6-.146s.027.28.027.28-.035.434.588-.26c.134-.126.236.02.225.284s.091.332.477-.189c.233.007.07.331.063.529s.541-.477.77-.469-.047.248.139.339.706-.62.934-.612-.047.608.08.647.666-1.108.907-.851-.252,1.14,1.167,2.414,1.177.88,1.183.695-.094-.659.186-.439.454.809.663.616a.9.9,0,0,0,.249-.458S23.55,16.826,24.3,16.85c.157-.146.039-.449-.075-.572s.612.28.524-.056-1.089-1.12-.77-1.112.573-.032.238-.386-.9-1.188-.6-1.18c.233.008-.059-.632-.091-.722-.02-.056-.043-.111-.059-.166a.376.376,0,0,1-.011-.072c0-.039.05-.122.1-.118a.1.1,0,0,1,.051.032c.147.115.292.228.446.332a1.488,1.488,0,0,0,.49.248.23.23,0,0,0,.118-.008.379.379,0,0,0,.213-.225,17.846,17.846,0,0,1,2.545,2.58c.04.056,0,.3-.008.372a2.776,2.776,0,0,1-.051.394,2.42,2.42,0,0,1-1.566,1.835,4.786,4.786,0,0,1-1.72.114,1,1,0,0,1-.163-.008c.166.107,2.5,1.531,3.674-.714a4.069,4.069,0,0,0,.394-1.132c.063.118.122.236.169.351a3.071,3.071,0,0,1-.252,2.986,3.137,3.137,0,0,1-2.442.912,2.825,2.825,0,0,0,3.088-.6,2.5,2.5,0,0,0,.533-1.373A3.937,3.937,0,0,0,28.418,15.868Zm-2.292-2.541a9.628,9.628,0,0,0-.813-.623c-.126-.091-.257-.174-.391-.261.011-.272.324-.232.513-.035a.8.8,0,0,0,.706.217c.276-.115.477.091.632.3a3.573,3.573,0,0,1,.532,1.543A13.931,13.931,0,0,0,26.127,13.327Z" transform="translate(1.818 0.458)" fill="#fbd023"/></g></svg>