<svg xmlns="http://www.w3.org/2000/svg" width="35.153" height="35.153" viewBox="0 0 35.153 35.153"><g transform="translate(0 0)"><path d="M15.462,30.925Z" transform="translate(2.114 4.228)" fill="#231f20"/><path d="M32.47,23.247H2.106a17.59,17.59,0,0,0,15.182,8.728h0A17.59,17.59,0,0,0,32.47,23.247Z" transform="translate(0.288 3.178)" fill="#cd1225"/><path d="M0,17.576v.032H35.153v-.032A17.577,17.577,0,0,0,0,17.576Z" fill="#fbd023"/><path d="M2.394,24.308H32.758a17.532,17.532,0,0,0,2.4-8.818H0A17.474,17.474,0,0,0,2.394,24.308Z" transform="translate(0 2.118)" fill="#053891"/></g></svg>