<svg xmlns="http://www.w3.org/2000/svg" width="35.169" height="35.169" viewBox="0 0 35.169 35.169"><g transform="translate(0 0)"><path d="M35.169,17.584H0a17.585,17.585,0,0,1,35.169,0Z" fill="#ec2938"/><path d="M35.169,15.469A17.585,17.585,0,1,1,0,15.469Z" transform="translate(0 2.115)" fill="#fff"/><g transform="translate(7.468 2.17)"><path d="M9.387,8.533A6.292,6.292,0,0,1,15.38,2.276a6.626,6.626,0,1,0,0,12.511A6.292,6.292,0,0,1,9.387,8.533Z" transform="translate(-6.57 -1.909)" fill="#fff"/><path d="M12.506,5.342l.351,1.093H14l-.927.675L13.433,8.2l-.927-.675-.931.675.355-1.093L11,6.434H12.15Z" transform="translate(-5.964 -1.44)" fill="#fff"/><path d="M18.708,5.342l.351,1.093h1.148l-.927.675L19.635,8.2l-.927-.675-.931.675.355-1.093L17.2,6.434h1.148Z" transform="translate(-5.116 -1.44)" fill="#fff"/><path d="M15.6,3.02l.355,1.089h1.148l-.927.675.352,1.093L15.6,5.2l-.927.675.355-1.093L14.1,4.108H15.25Z" transform="translate(-5.54 -1.757)" fill="#fff"/><path d="M17.545,9.007,17.9,10.1h1.148l-.927.675.351,1.089-.927-.675-.927.675.355-1.089-.931-.675H17.19Z" transform="translate(-5.275 -0.939)" fill="#fff"/><path d="M13.665,9.007,14.02,10.1h1.148l-.927.675.351,1.089-.927-.675-.927.675.355-1.089-.931-.675H13.31Z" transform="translate(-5.806 -0.939)" fill="#fff"/></g></g></svg>