<svg xmlns="http://www.w3.org/2000/svg" width="35.153" height="35.153" viewBox="0 0 35.153 35.153"><g transform="translate(0)"><g transform="translate(0 0)"><path d="M9.2,1.857V32.788a17.591,17.591,0,0,1,0-30.931Z" transform="translate(0 0.254)" fill="#081aa6"/><path d="M32.033,17.322a17.571,17.571,0,0,1-9.209,15.47V1.857a17.549,17.549,0,0,1,9.209,15.465Z" transform="translate(3.121 0.254)" fill="#cf1139"/><path d="M24.837,2.111V33.046a17.663,17.663,0,0,1-16.74,0V2.111A17.626,17.626,0,0,1,16.327,0h.284A17.585,17.585,0,0,1,24.837,2.111Z" transform="translate(1.107)" fill="#fdde19"/><g transform="translate(10.057 9.447)"><path d="M10.783,11.122a1.466,1.466,0,0,1,.537.959,1.118,1.118,0,0,1-.091.5.346.346,0,0,1-.347.19.4.4,0,0,1-.367-.236.352.352,0,0,1,0-.268.176.176,0,0,1,.111-.1.246.246,0,0,1,.176.02.186.186,0,0,1,.091.11.1.1,0,0,1-.019.1l-.008.008h0l-.008,0a.288.288,0,0,1-.1.023.027.027,0,0,0-.024.024.029.029,0,0,0,.027.024.266.266,0,0,0,.11-.019h0l.02-.013h0l0,0h0a.289.289,0,0,0,.142-.185.76.76,0,0,0-.155-.549,3.647,3.647,0,0,0-.485-.591c-.074-.08-.153-.163-.228-.246-.3-.347-.359-.639-.166-.872a.482.482,0,0,1,.268-.142.876.876,0,0,0-.042.214,1.093,1.093,0,0,0,.28.73C10.59,10.913,10.689,11.02,10.783,11.122Z" transform="translate(-8.704 -8.097)" fill="#c6b27f"/><path d="M12.606,10.1a.281.281,0,0,1-.265.114.508.508,0,0,1-.123-.161.16.16,0,0,1,.04-.193c.043-.027.1-.011.158.048a.022.022,0,0,0,.035,0,.031.031,0,0,0,0-.036c-.075-.078-.158-.1-.225-.051a.212.212,0,0,0-.055.257.545.545,0,0,0,.142.182,1.483,1.483,0,0,0,.552.288,1.246,1.246,0,0,0,.41.067,1.149,1.149,0,0,0,.687-.209c.213-.169.094-.474-.044-.824-.019-.048-.039-.1-.058-.147a.862.862,0,0,1,.176-.987,1.154,1.154,0,0,1,1.125.155l.07.043a1.369,1.369,0,0,0,1.429,0l.07-.043c.268-.161.809-.375,1.124-.155a.861.861,0,0,1,.177.987c-.019.051-.039.1-.059.147-.134.35-.256.655-.043.824a1.147,1.147,0,0,0,.687.209,1.246,1.246,0,0,0,.41-.067,1.483,1.483,0,0,0,.552-.288.545.545,0,0,0,.142-.182.212.212,0,0,0-.056-.257c-.067-.047-.15-.027-.225.051a.031.031,0,0,0,0,.036.024.024,0,0,0,.036,0c.059-.059.118-.075.161-.048a.166.166,0,0,1,.035.193.5.5,0,0,1-.122.161.283.283,0,0,1-.265-.114.37.37,0,0,1-.056-.327.3.3,0,0,1,.2-.185.515.515,0,0,1,.422.043.365.365,0,0,1,.1.446,1.083,1.083,0,0,1-.477.532,1.768,1.768,0,0,1-.9.23,2.665,2.665,0,0,1-1.705-.477l-.007-.013a.223.223,0,0,0-.161-.1.21.21,0,0,0-.194.153.145.145,0,0,0,.056.178.026.026,0,0,0,.032-.013.021.021,0,0,0-.008-.031.1.1,0,0,1-.032-.119c.019-.063.083-.126.142-.118a.177.177,0,0,1,.126.08.327.327,0,0,1,.027.264.28.28,0,0,1-.252.2.37.37,0,0,1-.308-.155.349.349,0,0,1-.047-.323.394.394,0,0,1,.315-.3,2.117,2.117,0,0,1,.853.241.029.029,0,0,0,.027,0,.025.025,0,0,0,.008-.027,1.052,1.052,0,0,1-.035-.454.872.872,0,0,1,.174-.34,1.019,1.019,0,0,0,.165-.292.407.407,0,0,0-.019-.343.339.339,0,0,0-.217-.161.844.844,0,0,0-.548.139l-.02.011A2.231,2.231,0,0,0,16.69,9c-.02.011-.035.024-.048.032a1.021,1.021,0,0,1-.695.169,1.023,1.023,0,0,1-.695-.169c-.011-.008-.027-.02-.047-.032a2.379,2.379,0,0,0-.257-.158l-.019-.011a.821.821,0,0,0-.549-.139.337.337,0,0,0-.216.161.411.411,0,0,0-.02.343,1.022,1.022,0,0,0,.166.292.872.872,0,0,1,.174.34.929.929,0,0,1-.036.454.083.083,0,0,0,.008.027.024.024,0,0,0,.028,0,2.116,2.116,0,0,1,.851-.241.394.394,0,0,1,.316.3.348.348,0,0,1-.043.323.384.384,0,0,1-.311.155.285.285,0,0,1-.252-.2.327.327,0,0,1,.027-.264.175.175,0,0,1,.131-.08c.055-.008.118.056.138.118a.1.1,0,0,1-.032.119.02.02,0,0,0-.008.031.032.032,0,0,0,.035.013.148.148,0,0,0,.051-.178.207.207,0,0,0-.193-.153.221.221,0,0,0-.161.1l0,.013a2.681,2.681,0,0,1-1.708.477,1.777,1.777,0,0,1-.9-.23,1.083,1.083,0,0,1-.477-.532.36.36,0,0,1,.1-.446.506.506,0,0,1,.418-.043.293.293,0,0,1,.2.185A.37.37,0,0,1,12.606,10.1Z" transform="translate(-8.428 -8.305)" fill="#c6b27f"/><path d="M21.09,10.009c.193.233.139.525-.166.872-.07.083-.149.166-.228.246a3.77,3.77,0,0,0-.485.591.763.763,0,0,0-.153.549.289.289,0,0,0,.142.185h0v0h0l.019.013h0a.269.269,0,0,0,.11.019.023.023,0,0,0,.028-.024.027.027,0,0,0-.024-.024.266.266,0,0,1-.1-.023l-.008,0h0l-.008-.008a.1.1,0,0,1-.019-.1.179.179,0,0,1,.09-.114.26.26,0,0,1,.182-.02.183.183,0,0,1,.107.1.352.352,0,0,1,0,.268.4.4,0,0,1-.367.236.348.348,0,0,1-.348-.19,1.2,1.2,0,0,1-.091-.5,1.468,1.468,0,0,1,.538-.959c.094-.1.193-.209.275-.311a1.114,1.114,0,0,0,.276-.73.837.837,0,0,0-.043-.214A.475.475,0,0,1,21.09,10.009Z" transform="translate(-7.353 -8.097)" fill="#c6b27f"/><path d="M21.036,14.664a.368.368,0,0,0,.157-.043c.1-.052.434-.273.4-.971-.043-.809-.541-.955-.623-.975a.333.333,0,0,0-.158-.153.656.656,0,0,1,.58.15,1.223,1.223,0,0,1,.308.493,1.407,1.407,0,0,1-.206,1.4.587.587,0,0,1-.682.19.112.112,0,0,0,.04-.016.288.288,0,0,0,.106-.094A.235.235,0,0,0,21.036,14.664Z" transform="translate(-7.211 -7.737)" fill="#c6b27f"/><path d="M21.5,12.273a1.671,1.671,0,0,1,.776,1.4,1.444,1.444,0,0,1-1.163,1.512.742.742,0,0,1-.552-.115.48.48,0,0,1-.118-.517.357.357,0,0,1,.335-.256.265.265,0,0,1,.256.213.239.239,0,0,1-.13.233.15.15,0,0,1-.142,0h0c-.064-.04-.051-.094-.016-.177l0-.016a.022.022,0,0,0-.016-.032.021.021,0,0,0-.031.013l0,.015c-.032.075-.067.178.035.241h0a.787.787,0,0,0,.38.107.627.627,0,0,0,.5-.249,1.472,1.472,0,0,0,.213-1.456,1.272,1.272,0,0,0-.323-.508.7.7,0,0,0-.738-.126.239.239,0,0,0-.177.264.183.183,0,0,0,.193.169.026.026,0,0,0,.027-.023.028.028,0,0,0-.027-.028.13.13,0,0,1-.147-.126.187.187,0,0,1,.147-.2.223.223,0,0,1,.228.146.408.408,0,0,1-.043.407.359.359,0,0,1-.268.134.4.4,0,0,1-.308-.15.583.583,0,0,1,.07-.754h0l0,0A.873.873,0,0,1,21.5,12.273Z" transform="translate(-7.284 -7.785)" fill="#c6b27f"/><path d="M21.065,17.148a.413.413,0,0,1-.016-.04.3.3,0,0,1-.013-.161.258.258,0,0,1,.032-.083.294.294,0,0,1,.209-.134.289.289,0,0,1,.244.094.324.324,0,0,1,.064.107.357.357,0,0,0-.174-.04.4.4,0,0,0-.189.048.32.32,0,0,0-.142.15A.285.285,0,0,0,21.065,17.148Z" transform="translate(-7.181 -7.16)" fill="#c6b27f"/><path d="M21.162,17.363a.31.31,0,0,1-.059-.15l0-.013a.288.288,0,0,1,.019-.118.308.308,0,0,1,.284-.169.279.279,0,0,1,.193.067.2.2,0,0,1,.024.027.269.269,0,0,1,.056.178.433.433,0,0,0-.26-.044A.344.344,0,0,0,21.162,17.363Z" transform="translate(-7.172 -7.134)" fill="#c6b27f"/><path d="M21.849,17.551a.413.413,0,0,1,.091.319.336.336,0,0,1-.185.3.611.611,0,0,1-.514-.027c-.055-.032-.114-.064-.173-.1a1.59,1.59,0,0,1-.979-1.455,2.373,2.373,0,0,1,.233-1.1c.153-.292.567-.789,1.025-.552a.359.359,0,0,1,.174.4.284.284,0,0,1-.1.169.28.28,0,0,1-.252.051.339.339,0,0,1-.228-.174.261.261,0,0,1-.019-.055.162.162,0,0,1,.047-.161.191.191,0,0,1,.04-.024.237.237,0,0,1,.169.024.032.032,0,0,1,.02.027.026.026,0,0,0,.024.027c.015,0,.023-.011.023-.027a.086.086,0,0,0-.039-.072A.3.3,0,0,0,21,15.1h0l-.016.008-.024.011a1.387,1.387,0,0,0-.572,1.1,1.713,1.713,0,0,0,1.006,1.732h0a.2.2,0,0,1,.024.008.243.243,0,0,0,.216,0,.2.2,0,0,0,.091-.142A.023.023,0,0,0,21.7,17.8c-.016,0-.027.008-.027.019a.154.154,0,0,1-.067.107.206.206,0,0,1-.174,0l-.024-.013a.175.175,0,0,1-.075-.209.313.313,0,0,1,.228-.228.367.367,0,0,1,.246.051Z" transform="translate(-7.31 -7.413)" fill="#c6b27f"/><path d="M20.392,16.182a1.448,1.448,0,0,1,.446-.987.208.208,0,0,0,0,.1.192.192,0,0,0,.016.055,1.784,1.784,0,0,0-.107.214,1.454,1.454,0,0,0-.083,1.017,1.33,1.33,0,0,0,.41.581.39.39,0,0,0,.016.173.359.359,0,0,0,.027.067.891.891,0,0,1-.149-.1.824.824,0,0,1-.194-.268.021.021,0,0,0-.031-.011.025.025,0,0,0-.016.031.889.889,0,0,0,.209.284.786.786,0,0,0,.217.139.345.345,0,0,0,.086.181.257.257,0,0,0,.011.155A1.663,1.663,0,0,1,20.392,16.182Z" transform="translate(-7.27 -7.369)" fill="#c6b27f"/><path d="M17.011,22.129c.007.02.047.123,0,.182a.109.109,0,0,1-.086.043.276.276,0,0,1-.2-.055.314.314,0,0,1-.035-.4.3.3,0,0,1,.236-.115.454.454,0,0,1,.343.123.465.465,0,0,1,.043.493.532.532,0,0,1-.556.292.574.574,0,0,1-.466-.455.844.844,0,0,1,.3-.706,3.31,3.31,0,0,1,1.924-.58,5.117,5.117,0,0,1,.56-.024,2.982,2.982,0,0,0,.477-.027,3.078,3.078,0,0,0,1.846-.592,1.529,1.529,0,0,0,.589-1.1,1.211,1.211,0,0,0-.257-.784c-.26-.324-.829-.635-1.215-.383a.8.8,0,0,0-.324.548.6.6,0,0,0,.013.241.742.742,0,0,1-.08-.695.561.561,0,0,1,.423-.347,1.36,1.36,0,0,1,1.081.2.021.021,0,0,0,.035,0,.029.029,0,0,0,0-.035,1.4,1.4,0,0,0-1.108-.225c.134-.146.418-.288,1-.011a1.511,1.511,0,0,0,.174.091h0l0,0a1.415,1.415,0,0,1,.592,1.657c-.23.706-.864,1.57-2.612,1.669-.382.019-.7.032-.958.043-1.034.035-1.255.043-1.67.56a.593.593,0,0,0-.165-.016.344.344,0,0,0-.23.6.322.322,0,0,0,.238.067.178.178,0,0,0,.118-.063.252.252,0,0,0,0-.233Z" transform="translate(-7.83 -7.044)" fill="#c6b27f"/><path d="M21.809,18.407c-.244-.3-.792-.6-1.148-.371a.748.748,0,0,0-.3.513.433.433,0,0,0,.083.351.457.457,0,0,0,.324.139.344.344,0,0,0,.252-.088.354.354,0,0,0,.048-.422.326.326,0,0,0-.19-.126.284.284,0,0,0-.131.177.278.278,0,0,0,.032.193c0,.013,0,.028-.011.032a.025.025,0,0,1-.036-.011.335.335,0,0,1-.035-.225.357.357,0,0,1,.161-.217.465.465,0,0,1,.21-.072.445.445,0,0,1,.326.139,1.3,1.3,0,0,1,.3.86,1.236,1.236,0,0,1-.388.864,1.684,1.684,0,0,1-.99.374,7.754,7.754,0,0,1-1.377.075,9.5,9.5,0,0,0-1.014.024,3.886,3.886,0,0,0-1.614.4c-.236.126-.784.422-.812.867a.488.488,0,0,0,.158.438.4.4,0,0,0,.248.08.948.948,0,0,1-.019-.193,1.047,1.047,0,0,1,.679-1,3.161,3.161,0,0,1,.679-.276.024.024,0,0,1,.027.016.025.025,0,0,1-.016.032,3.326,3.326,0,0,0-.667.272,1.006,1.006,0,0,0-.65.955.855.855,0,0,0,.024.217.469.469,0,0,0,.11.222.628.628,0,0,0,.529.217.5.5,0,0,0,.316-.163.306.306,0,0,1-.056,0,.627.627,0,0,1-.509-.5.907.907,0,0,1,.319-.749,1.54,1.54,0,0,1,.651-.355,6.04,6.04,0,0,1,1.306-.238,4.63,4.63,0,0,1,.564-.027,2.715,2.715,0,0,0,.474-.024,3.073,3.073,0,0,0,1.819-.58,1.467,1.467,0,0,0,.567-1.062A1.161,1.161,0,0,0,21.809,18.407Z" transform="translate(-7.937 -6.992)" fill="#c6b27f"/><path d="M15.53,21.557a.471.471,0,0,0,.171.311.477.477,0,0,0,.288.091h0a.551.551,0,0,0,.107.209,1.559,1.559,0,0,1-.568.54,1.5,1.5,0,0,1-.564-.54.488.488,0,0,0,.1-.209h.008a.474.474,0,0,0,.284-.091A.466.466,0,0,0,15.53,21.557Z" transform="translate(-8.01 -6.499)" fill="#c6b27f"/><path d="M11.525,18.141a.73.73,0,0,1-.078.695.6.6,0,0,0,.011-.241.8.8,0,0,0-.323-.548c-.386-.252-.955.059-1.212.383a1.2,1.2,0,0,0-.26.784,1.527,1.527,0,0,0,.588,1.1,3.106,3.106,0,0,0,1.847.6,3.3,3.3,0,0,0,.476.024,5.1,5.1,0,0,1,.56.024,3.3,3.3,0,0,1,1.926.58.844.844,0,0,1,.3.706.571.571,0,0,1-.465.455.53.53,0,0,1-.556-.292.463.463,0,0,1,.043-.493.453.453,0,0,1,.343-.123.3.3,0,0,1,.236.115.314.314,0,0,1-.035.4.278.278,0,0,1-.2.055.107.107,0,0,1-.086-.043c-.048-.064,0-.169,0-.182a.026.026,0,0,0-.011-.035.03.03,0,0,0-.036.016.264.264,0,0,0,0,.233.175.175,0,0,0,.118.063.319.319,0,0,0,.236-.067.344.344,0,0,0-.228-.6.619.619,0,0,0-.166.016c-.414-.517-.635-.525-1.669-.56-.257-.011-.576-.024-.958-.043a2.559,2.559,0,0,1-2.612-1.669,1.411,1.411,0,0,1,.6-1.657v0h0a1.511,1.511,0,0,0,.174-.091c.58-.276.867-.134,1,.011a1.4,1.4,0,0,0-1.108.225.029.029,0,0,0,0,.035.021.021,0,0,0,.035,0,1.367,1.367,0,0,1,1.086-.2A.558.558,0,0,1,11.525,18.141Z" transform="translate(-8.791 -7.044)" fill="#c6b27f"/><path d="M16.212,21.884c-.027-.446-.576-.741-.808-.867a3.931,3.931,0,0,0-1.618-.4,9.5,9.5,0,0,0-1.014-.024,7.771,7.771,0,0,1-1.378-.075,1.687,1.687,0,0,1-.99-.374,1.24,1.24,0,0,1-.386-.864,1.309,1.309,0,0,1,.3-.86.449.449,0,0,1,.327-.139.456.456,0,0,1,.209.072.359.359,0,0,1,.163.217.335.335,0,0,1-.036.225.024.024,0,0,1-.035.011.022.022,0,0,1-.008-.032.3.3,0,0,0,.032-.193.316.316,0,0,0-.131-.177.345.345,0,0,0-.193.126.354.354,0,0,0,.048.422.344.344,0,0,0,.252.088.459.459,0,0,0,.324-.139.437.437,0,0,0,.083-.351.748.748,0,0,0-.3-.513c-.356-.233-.9.072-1.149.371a1.174,1.174,0,0,0-.244.754,1.489,1.489,0,0,0,.568,1.062,3.071,3.071,0,0,0,1.819.58,2.707,2.707,0,0,0,.473.024,4.638,4.638,0,0,1,.565.027,5.628,5.628,0,0,1,1.42.276,1.362,1.362,0,0,1,.537.316.9.9,0,0,1,.319.749.625.625,0,0,1-.508.5.288.288,0,0,1-.056,0,.5.5,0,0,0,.316.163.629.629,0,0,0,.529-.217.469.469,0,0,0,.11-.222,1,1,0,0,0-.627-1.172,3.516,3.516,0,0,0-.58-.244.842.842,0,0,0-.086-.027.025.025,0,0,1-.016-.032.026.026,0,0,1,.032-.016,3.148,3.148,0,0,1,.674.276,1.049,1.049,0,0,1,.679,1,.948.948,0,0,1-.019.193.389.389,0,0,0,.248-.08A.488.488,0,0,0,16.212,21.884Z" transform="translate(-8.736 -6.992)" fill="#c6b27f"/><path d="M9.911,17.088a.353.353,0,0,0-.331-.2.357.357,0,0,0-.174.04.305.305,0,0,1,.064-.107.3.3,0,0,1,.244-.094.29.29,0,0,1,.208.134.184.184,0,0,1,.032.083.3.3,0,0,1-.011.161.171.171,0,0,1-.016.04A.38.38,0,0,0,9.911,17.088Z" transform="translate(-8.771 -7.16)" fill="#c6b27f"/><path d="M9.579,17.141a.433.433,0,0,0-.26.044A.283.283,0,0,1,9.375,17L9.4,16.98a.284.284,0,0,1,.194-.067.449.449,0,0,1,.153.035.278.278,0,0,1,.131.134A.308.308,0,0,1,9.9,17.2a.026.026,0,0,1,0,.016.262.262,0,0,1-.059.147A.333.333,0,0,0,9.579,17.141Z" transform="translate(-8.782 -7.134)" fill="#c6b27f"/><path d="M10.061,17.3a.745.745,0,0,1-.15.1.252.252,0,0,0,.027-.067.373.373,0,0,0,.016-.173,1.322,1.322,0,0,0,.411-.581,1.427,1.427,0,0,0-.084-1.017,1.384,1.384,0,0,0-.106-.214.237.237,0,0,0,.016-.055.208.208,0,0,0,0-.1,1.472,1.472,0,0,1,.45.987,1.672,1.672,0,0,1-.865,1.626.248.248,0,0,0,.013-.155.328.328,0,0,0,.086-.181.754.754,0,0,0,.217-.139.824.824,0,0,0,.209-.284.027.027,0,0,0-.016-.031.022.022,0,0,0-.032.011A.835.835,0,0,1,10.061,17.3Z" transform="translate(-8.72 -7.369)" fill="#c6b27f"/><path d="M9.342,17.519a.367.367,0,0,1,.244-.051.306.306,0,0,1,.228.228.173.173,0,0,1-.074.209l-.024.013a.2.2,0,0,1-.171,0,.142.142,0,0,1-.067-.107.03.03,0,0,0-.031-.019c-.013,0-.02.016-.02.027a.2.2,0,0,0,.091.142.246.246,0,0,0,.217,0,.2.2,0,0,1,.024-.008h0a1.713,1.713,0,0,0,1.006-1.732,1.38,1.38,0,0,0-.572-1.1l-.027-.011-.013-.008h0a.3.3,0,0,0-.213.027.087.087,0,0,0-.04.072.026.026,0,0,0,.024.027c.016,0,.024-.011.024-.027a.03.03,0,0,1,.019-.027.241.241,0,0,1,.171-.024l0,0c.008,0,.019.008.035.02a.165.165,0,0,1,.048.161.348.348,0,0,1-.019.055.339.339,0,0,1-.23.174.27.27,0,0,1-.347-.221.364.364,0,0,1,.174-.4c.457-.236.872.26,1.025.552a2.411,2.411,0,0,1,.233,1.1,1.6,1.6,0,0,1-.979,1.46c-.059.027-.118.059-.174.091a.608.608,0,0,1-.513.027.342.342,0,0,1-.185-.3.413.413,0,0,1,.091-.319Z" transform="translate(-8.798 -7.413)" fill="#c6b27f"/><path d="M10.233,14.758a.59.59,0,0,1-.683-.19,1.418,1.418,0,0,1-.2-1.4,1.19,1.19,0,0,1,.311-.493.646.646,0,0,1,.576-.15.308.308,0,0,0-.155.153c-.086.02-.583.166-.626.975-.036.7.3.918.4.971a.372.372,0,0,0,.158.043.223.223,0,0,0,.078-.016.3.3,0,0,0,.107.094A.112.112,0,0,0,10.233,14.758Z" transform="translate(-8.792 -7.737)" fill="#c6b27f"/><path d="M10.265,14.747a.242.242,0,0,1-.131-.233.266.266,0,0,1,.257-.213.354.354,0,0,1,.335.256.48.48,0,0,1-.118.517.742.742,0,0,1-.552.115,1.449,1.449,0,0,1-1.164-1.512,1.672,1.672,0,0,1,.778-1.4.878.878,0,0,1,1.041.114v0h0a.588.588,0,0,1,.067.754.4.4,0,0,1-.308.15.359.359,0,0,1-.268-.134.4.4,0,0,1-.04-.407.216.216,0,0,1,.225-.146.187.187,0,0,1,.146.2.128.128,0,0,1-.146.126.027.027,0,0,0-.027.028.026.026,0,0,0,.027.023h0a.186.186,0,0,0,.2-.169.247.247,0,0,0-.182-.264.7.7,0,0,0-.738.126,1.286,1.286,0,0,0-.324.508,1.475,1.475,0,0,0,.214,1.456.626.626,0,0,0,.5.249.78.78,0,0,0,.379-.107h0c.1-.063.067-.166.035-.241l0-.015a.022.022,0,0,0-.032-.013.026.026,0,0,0-.016.032l.008.016c.032.083.048.138-.016.177h0A.15.15,0,0,1,10.265,14.747Z" transform="translate(-8.841 -7.785)" fill="#c6b27f"/><path d="M22.539,13.257a.434.434,0,0,1-.064.406.378.378,0,0,1-.307.153.435.435,0,0,1-.343-.165.637.637,0,0,1-.024-.707.517.517,0,0,1-.177.04H21.6a.427.427,0,0,1-.264-.086.634.634,0,0,0-.155.457.834.834,0,0,0,.383.62.773.773,0,0,0,.773.035.022.022,0,0,1,.032.013c.008.011,0,.027-.011.035a.971.971,0,0,1-.391.086.783.783,0,0,1-.43-.13.978.978,0,0,1-.359-.442.592.592,0,0,1-.048-.217.845.845,0,0,1,.048-.292.5.5,0,0,1,.123-.2.336.336,0,0,1-.072-.1c-.019-.043-.035-.083-.051-.13a1.435,1.435,0,0,1-.048-.394.86.86,0,0,1,.048-.289,2.123,2.123,0,0,1,.5-.706c.1-.107.19-.206.268-.308a1.05,1.05,0,0,0,.268-.695.707.707,0,0,0-.055-.24.5.5,0,0,0-.193-.238.626.626,0,0,0-.118-.055,1.065,1.065,0,0,1,.027.268,1.154,1.154,0,0,1-.4.8l-.016,0c-.008,0-.016,0-.019-.008a.024.024,0,0,1,0-.035,1.1,1.1,0,0,0,.386-.758.879.879,0,0,0-.04-.3.4.4,0,0,0-.126-.185.479.479,0,0,0-.343-.078.531.531,0,0,0-.174.051.1.1,0,0,0,.016.019c.174.225.083.635-.209.995-.008,0-.011.008-.019.008a.018.018,0,0,1-.016-.008c-.011-.008-.016-.024,0-.032.276-.335.364-.725.209-.931l-.035-.043a.416.416,0,0,0-.319-.134.293.293,0,0,0-.126.043.716.716,0,0,1,.1.41.858.858,0,0,1-.311.62s-.008.008-.016.008L20.4,10.42a.025.025,0,0,1,0-.035.824.824,0,0,0,.292-.584.613.613,0,0,0-.107-.4.26.26,0,0,0-.083-.078.355.355,0,0,0-.3-.056.378.378,0,0,0-.23.206.573.573,0,0,1,.241.075.412.412,0,0,1,.118.508,1.149,1.149,0,0,1-.5.557,1.7,1.7,0,0,1-.43.173,2,2,0,0,1-.493.064,3.6,3.6,0,0,1-.7-.064,2.419,2.419,0,0,1-.971-.374.374.374,0,0,1-.008.209.363.363,0,0,1-.126.165.288.288,0,0,1-.174.064.436.436,0,0,1-.225-.064.442.442,0,0,1-.126-.114.4.4,0,0,1-.051-.367.452.452,0,0,1,.359-.332,1.879,1.879,0,0,1,.829.225,1,1,0,0,1-.024-.426,1.015,1.015,0,0,1,.185-.358,1.119,1.119,0,0,0,.158-.276.367.367,0,0,0-.016-.3.262.262,0,0,0-.185-.134.787.787,0,0,0-.513.131l-.02.011a2.309,2.309,0,0,0-.252.155A.469.469,0,0,1,17,9.027a1.085,1.085,0,0,1-.722.177,1.1,1.1,0,0,1-.722-.177c-.011-.013-.032-.02-.047-.035a2.309,2.309,0,0,0-.252-.155l-.02-.011a.782.782,0,0,0-.513-.131.262.262,0,0,0-.185.134.385.385,0,0,0-.016.3,1.031,1.031,0,0,0,.161.276,1.007,1.007,0,0,1,.182.358,1,1,0,0,1-.024.426,1.877,1.877,0,0,1,.832-.225.441.441,0,0,1,.356.332.408.408,0,0,1-.051.367.393.393,0,0,1-.127.114.444.444,0,0,1-.224.064.288.288,0,0,1-.174-.064.345.345,0,0,1-.126-.169.356.356,0,0,1-.008-.2,2.419,2.419,0,0,1-.971.374,3.615,3.615,0,0,1-.7.064,1.987,1.987,0,0,1-.489-.064,1.684,1.684,0,0,1-.43-.173,1.152,1.152,0,0,1-.5-.557.413.413,0,0,1,.118-.508.578.578,0,0,1,.241-.075.377.377,0,0,0-.228-.206.357.357,0,0,0-.3.056.3.3,0,0,0-.083.078.474.474,0,0,0-.083.166.91.91,0,0,0-.024.221V9.8a.834.834,0,0,0,.292.588.025.025,0,0,1,0,.035l-.019.008c-.008,0-.011,0-.016-.008a.87.87,0,0,1-.311-.62.707.707,0,0,1,.1-.41.293.293,0,0,0-.126-.043.413.413,0,0,0-.319.134l-.036.043c-.153.206-.067.6.209.931a.02.02,0,0,1,0,.032c-.008,0-.011.008-.019.008l-.016-.008c-.3-.359-.386-.77-.214-.995l.02-.019a.586.586,0,0,0-.177-.051A.479.479,0,0,0,10.9,9.5a.376.376,0,0,0-.126.185.87.87,0,0,0-.04.3,1.091,1.091,0,0,0,.386.762c.011.008.011.023,0,.035a.015.015,0,0,1-.016.008.03.03,0,0,1-.019,0,1.134,1.134,0,0,1-.4-.8.773.773,0,0,1,.027-.272.533.533,0,0,0-.123.055.5.5,0,0,0-.193.238.717.717,0,0,0-.056.24,1.066,1.066,0,0,0,.265.695c.083.1.174.2.272.308a1.977,1.977,0,0,1,.506.714.841.841,0,0,1,.047.281,1.442,1.442,0,0,1-.047.39.764.764,0,0,1-.052.134.363.363,0,0,1-.067.1.518.518,0,0,1,.119.2.834.834,0,0,1,.047.288.613.613,0,0,1-.047.217.929.929,0,0,1-.359.442.784.784,0,0,1-.431.13.966.966,0,0,1-.39-.086c-.013-.008-.02-.024-.013-.035a.026.026,0,0,1,.036-.013.765.765,0,0,0,.768-.035.834.834,0,0,0,.383-.62.632.632,0,0,0-.153-.457.432.432,0,0,1-.264.086h-.02a.505.505,0,0,1-.177-.04.639.639,0,0,1-.02.707.451.451,0,0,1-.347.165.38.38,0,0,1-.308-.153.453.453,0,0,1-.067-.406c-.13.035-.513.213-.548.918-.035.667.276.876.371.923a.223.223,0,0,0,.185.028.27.27,0,0,1-.019-.147.308.308,0,0,1,.3-.256.4.4,0,0,1,.383.291.521.521,0,0,1-.134.573.663.663,0,0,1-.332.126,1.148,1.148,0,0,1,.517.449,1.164,1.164,0,0,1,.086.15,2.43,2.43,0,0,1,.241,1.125,1.477,1.477,0,0,1-.19.768,1.931,1.931,0,0,1-.6.592c.517-.169.762.027.864.177a.666.666,0,0,1,.292.182.486.486,0,0,1,.1.181.869.869,0,0,1,.048.225.713.713,0,0,1-.257.64.517.517,0,0,1-.359.153.383.383,0,0,1-.284-.1.391.391,0,0,1-.055-.485.34.34,0,0,1,.173-.134.337.337,0,0,0-.134-.035.368.368,0,0,0-.291.122,1.263,1.263,0,0,0-.289.825,1.192,1.192,0,0,0,.371.824,1.629,1.629,0,0,0,.963.363,7.687,7.687,0,0,0,1.37.075c.3,0,.6-.008,1.017.024a3.986,3.986,0,0,1,1.637.406c.23.127.758.407.829.849.072-.442.6-.722.833-.849a3.946,3.946,0,0,1,1.633-.406c.414-.032.722-.027,1.017-.024a7.637,7.637,0,0,0,1.369-.075,1.623,1.623,0,0,0,.963-.363,1.188,1.188,0,0,0,.375-.824,1.293,1.293,0,0,0-.292-.825.38.38,0,0,0-.291-.122.308.308,0,0,0-.131.035.331.331,0,0,1,.169.134.4.4,0,0,1-.051.485.4.4,0,0,1-.288.1.525.525,0,0,1-.359-.153.713.713,0,0,1-.257-.64.851.851,0,0,1,.048-.225.439.439,0,0,1,.106-.181.623.623,0,0,1,.289-.182c.1-.15.347-.347.864-.177a1.519,1.519,0,0,1-.789-1.361,2.42,2.42,0,0,1,.241-1.125,1.222,1.222,0,0,1,.607-.6A.655.655,0,0,1,22,15.588a.521.521,0,0,1-.134-.573.4.4,0,0,1,.386-.291.308.308,0,0,1,.3.256.234.234,0,0,1-.02.147.233.233,0,0,0,.19-.028c.094-.047.4-.256.367-.923C23.056,13.477,22.673,13.3,22.539,13.257ZM15.911,9.634A.994.994,0,0,1,15.67,9.5a.872.872,0,0,0-.217-.126.2.2,0,0,0-.185.008.163.163,0,0,0-.024.163.029.029,0,0,1-.019.031.024.024,0,0,1-.032-.019.206.206,0,0,1,.04-.209.236.236,0,0,1,.241-.019,1.038,1.038,0,0,1,.225.13.841.841,0,0,0,.228.131,1.272,1.272,0,0,0,.355.059,1.252,1.252,0,0,0,.356-.059.841.841,0,0,0,.228-.131.988.988,0,0,1,.228-.13.232.232,0,0,1,.238.019.2.2,0,0,1,.039.209.024.024,0,1,1-.047-.011.173.173,0,0,0-.028-.163.2.2,0,0,0-.185-.008.915.915,0,0,0-.217.126,1.009,1.009,0,0,1-.24.134,1.286,1.286,0,0,1-.372.059h0A1.278,1.278,0,0,1,15.911,9.634Zm-4.644,8.317a1.191,1.191,0,0,1-.146.228c-.02.024-.04.048-.056.064l-.016.015-.016.016-.008.013-.008,0s-.008,0-.016,0-.011,0-.019-.008a.024.024,0,0,1,0-.035,1.375,1.375,0,0,0,.39-.987,1.876,1.876,0,0,0-.5-1.156l0-.008a.024.024,0,0,1,0-.027.029.029,0,0,1,.035,0,2.009,2.009,0,0,1,.182.224c.075-.027.288-.149.288-.6a.534.534,0,0,0-.138-.41.314.314,0,0,0-.233-.07.028.028,0,0,1-.027-.019.026.026,0,0,1,.015-.032.582.582,0,0,0,.383-.616.522.522,0,0,0-.086-.323,1.149,1.149,0,0,1-.742.347H10.51a1,1,0,0,1-.77-.548.026.026,0,0,1,.008-.035.025.025,0,0,1,.035.008.949.949,0,0,0,.726.524h.035a.689.689,0,0,0,.161-.016,1.217,1.217,0,0,0,.513-.284c.013-.011.028-.027.043-.039a1.5,1.5,0,0,0,.119-.126h0a.024.024,0,1,1,.035.031s-.011.02-.039.044-.032.039-.056.063a.331.331,0,0,1,.056.094.268.268,0,0,1,.019.056.363.363,0,0,1,.016.067.347.347,0,0,1,.008.064c0,.023,0,.047,0,.074a.786.786,0,0,1-.008.107.448.448,0,0,1-.011.1.92.92,0,0,1-.027.091.3.3,0,0,1-.036.083A.444.444,0,0,1,11.3,15c-.011.016-.024.027-.035.043l0,0a.145.145,0,0,1-.026.027c-.017.016-.033.032-.048.043a.466.466,0,0,1-.075.048.3.3,0,0,1,.157.078.177.177,0,0,1,.036.032.387.387,0,0,1,.051.078.138.138,0,0,1,.024.052.212.212,0,0,1,.019.059.1.1,0,0,1,.011.047.273.273,0,0,1,.008.059.235.235,0,0,1,0,.056.384.384,0,0,1,0,.063.186.186,0,0,1,0,.048v.048a.819.819,0,0,1-.043.233.491.491,0,0,1-.064.134.215.215,0,0,1-.032.051l0,0c-.016.016-.027.032-.043.048a.356.356,0,0,1-.048.039.09.09,0,0,1-.032.02c-.016.011-.032.016-.043.024a1.869,1.869,0,0,1,.265.572v.008a.432.432,0,0,1,.023.1.649.649,0,0,1,.016.123,1.015,1.015,0,0,1,.008.118c0,.035,0,.07,0,.1,0,.016,0,.032,0,.043a.564.564,0,0,1-.008.091c0,.027-.011.056-.016.083a.281.281,0,0,1-.015.059,1.234,1.234,0,0,1-.044.15A1.35,1.35,0,0,1,11.267,17.952Zm11.556-3.93a.992.992,0,0,1-.77.548h-.035a1.167,1.167,0,0,1-.746-.347.52.52,0,0,0-.088.323.578.578,0,0,0,.383.616.025.025,0,0,1,.016.032.029.029,0,0,1-.027.019.314.314,0,0,0-.233.07.53.53,0,0,0-.139.41c0,.455.214.576.289.6a2.009,2.009,0,0,1,.182-.224.029.029,0,0,1,.035,0c.011.008.011.023,0,.035a1.868,1.868,0,0,0-.506,1.156,1.373,1.373,0,0,0,.391.987.024.024,0,0,1,0,.035.037.037,0,0,1-.02.008c-.008,0-.011,0-.016,0l-.008,0-.008-.013a1.091,1.091,0,0,1-.145-.177c-.016-.019-.024-.04-.04-.059s-.024-.043-.039-.07a.777.777,0,0,1-.036-.075c-.008-.016-.016-.036-.023-.051a1.3,1.3,0,0,1-.044-.123c0-.019-.011-.04-.016-.064l0,0h0a1.4,1.4,0,0,1-.04-.236.225.225,0,0,1,0-.048.745.745,0,0,1,0-.1,1.539,1.539,0,0,1,.048-.359.786.786,0,0,1,.027-.083c.016-.043.032-.091.051-.138.013-.024.024-.056.036-.08a.558.558,0,0,1,.04-.078c.015-.028.027-.051.039-.075.024-.04.048-.075.072-.11-.016-.008-.036-.02-.06-.032s-.019-.013-.027-.019a.58.58,0,0,1-.055-.052.618.618,0,0,1-.123-.209v0c-.008-.024-.011-.043-.019-.067a.883.883,0,0,1-.024-.166c0-.016,0-.032,0-.047v-.052c0-.051,0-.1.008-.146a.741.741,0,0,1,.04-.142l.011-.024.013-.019a.368.368,0,0,1,.024-.043.349.349,0,0,1,.063-.072.317.317,0,0,1,.158-.078.5.5,0,0,1-.126-.094l-.027-.028c-.008-.008-.013-.016-.016-.019a.263.263,0,0,1-.032-.043.684.684,0,0,1-.107-.311v-.008a.6.6,0,0,1-.008-.119.379.379,0,0,1,0-.074.116.116,0,0,1,0-.036.162.162,0,0,1,.008-.043.314.314,0,0,1,.016-.063c0-.016.013-.032.016-.048a.337.337,0,0,1,.056-.091.735.735,0,0,0-.056-.059l-.043-.048a.035.035,0,0,1,0-.035.025.025,0,0,1,.036,0l0,0a1.686,1.686,0,0,0,.332.288.293.293,0,0,0,.063.04.587.587,0,0,0,.091.051c.016,0,.032.013.048.016a.121.121,0,0,0,.059.024.287.287,0,0,0,.078.024.711.711,0,0,0,.083.016.57.57,0,0,0,.118,0,.951.951,0,0,0,.726-.524.025.025,0,0,1,.035-.008A.026.026,0,0,1,22.823,14.022Z" transform="translate(-8.762 -8.259)" fill="#c6b27f"/><path d="M19.834,13.554c-.056-.059-.091-.1-.1-.107a.022.022,0,0,1,0-.035.021.021,0,0,1,.032,0,1.28,1.28,0,0,0,.875.465.961.961,0,0,0,.73-.524c0-.013.02-.013.032,0a.021.021,0,0,1,.008.032,1,1,0,0,1-.77.548h-.035a1.13,1.13,0,0,1-.742-.347.492.492,0,0,0-.091.323.585.585,0,0,0,.383.616.025.025,0,0,1,.016.032.029.029,0,0,1-.027.019.314.314,0,0,0-.233.07.525.525,0,0,0-.139.41c0,.455.214.576.289.6.1-.138.182-.221.182-.224a.025.025,0,1,1,.035.035,1.868,1.868,0,0,0-.506,1.156,1.373,1.373,0,0,0,.391.987.024.024,0,0,1,0,.035c-.008,0-.013.008-.02.008s-.011,0-.016,0a1.385,1.385,0,0,1-.41-1.025,1.7,1.7,0,0,1,.313-.923c-.091-.04-.313-.185-.313-.648a.576.576,0,0,1,.158-.449.34.34,0,0,1,.158-.075.658.658,0,0,1-.316-.624A.521.521,0,0,1,19.834,13.554Z" transform="translate(-7.359 -7.622)" fill="#72402c"/><path d="M16.608,9.307a.2.2,0,0,0-.185-.008.915.915,0,0,0-.217.126,1.009,1.009,0,0,1-.24.134,1.286,1.286,0,0,1-.372.059h0a1.278,1.278,0,0,1-.371-.059,1,1,0,0,1-.241-.134.872.872,0,0,0-.217-.126.2.2,0,0,0-.185.008.168.168,0,0,0-.024.166c0,.011-.007.027-.019.027a.025.025,0,0,1-.032-.016.206.206,0,0,1,.04-.213.236.236,0,0,1,.241-.019,1.038,1.038,0,0,1,.225.13.979.979,0,0,0,.228.131,1.1,1.1,0,0,0,.71,0,.979.979,0,0,0,.228-.131,1.064,1.064,0,0,1,.228-.13.231.231,0,0,1,.238.019.207.207,0,0,1,.039.213.024.024,0,0,1-.032.016c-.011,0-.019-.016-.015-.027A.178.178,0,0,0,16.608,9.307Z" transform="translate(-8.075 -8.185)" fill="#72402c"/><path d="M10.478,13.932a1.007,1.007,0,0,1-.77-.548.021.021,0,0,1,.008-.032.024.024,0,0,1,.035,0,.949.949,0,0,0,.73.524,1.257,1.257,0,0,0,.872-.465.021.021,0,0,1,.032,0,.026.026,0,0,1,.008.035c-.008,0-.043.048-.1.107a.529.529,0,0,1,.1.355.657.657,0,0,1-.315.624.341.341,0,0,1,.157.075.56.56,0,0,1,.158.449c0,.463-.217.608-.311.648a1.7,1.7,0,0,1,.311.923,1.38,1.38,0,0,1-.41,1.025s-.008,0-.016,0a.019.019,0,0,1-.015-.008c-.013-.013-.013-.028,0-.035a1.375,1.375,0,0,0,.39-.987,1.876,1.876,0,0,0-.5-1.156l0-.008a.025.025,0,0,1,0-.027.029.029,0,0,1,.035,0,2.009,2.009,0,0,1,.182.224c.075-.027.288-.149.288-.6a.529.529,0,0,0-.138-.41.312.312,0,0,0-.233-.07.028.028,0,0,1-.027-.019.026.026,0,0,1,.015-.032.585.585,0,0,0,.383-.616.522.522,0,0,0-.086-.323,1.149,1.149,0,0,1-.742.347Z" transform="translate(-8.73 -7.622)" fill="#72402c"/><path d="M23.315,19.111a.4.4,0,0,0,.213-.343.427.427,0,0,0-.131-.375.315.315,0,0,0-.063-.244.158.158,0,0,0-.024-.024.319.319,0,0,0-.086-.185.354.354,0,0,0-.284-.107.333.333,0,0,0-.249.158.282.282,0,0,0-.027.056,1.271,1.271,0,0,1-.375-.541,1.4,1.4,0,0,1,.083-.982,1.281,1.281,0,0,1,.086-.177.385.385,0,0,0,.241.158.323.323,0,0,0,.3-.064.311.311,0,0,0,.11-.193.405.405,0,0,0-.2-.457.514.514,0,0,0-.1-.04A1.545,1.545,0,0,0,23.887,14.2a1.73,1.73,0,0,0-.809-1.452.924.924,0,0,0-.958.024l0-.011a.412.412,0,0,0,0-.308.23.23,0,0,0-.142-.118.29.29,0,0,0-.217.024.222.222,0,0,0-.114.141.12.12,0,0,0-.008.052.218.218,0,0,1-.043-.088.718.718,0,0,1,.149-.508,3.319,3.319,0,0,1,.482-.584c.075-.08.153-.161.228-.249.319-.367.379-.682.166-.934a.559.559,0,0,0-.332-.166.536.536,0,0,0-.2-.244.439.439,0,0,0-.166-.072.48.48,0,0,0-.138-.2.534.534,0,0,0-.38-.088.641.641,0,0,0-.2.059.465.465,0,0,0-.347-.138A.376.376,0,0,0,20.7,9.4a.368.368,0,0,0-.083-.074.431.431,0,0,0-.347-.06A.415.415,0,0,0,20,9.521a.5.5,0,0,0-.169.027.349.349,0,0,0-.228.217.418.418,0,0,0,.059.371.314.314,0,0,0,.249.138,1.584,1.584,0,0,1-.477.233,1.182,1.182,0,0,1-1.05-.134c-.185-.146-.078-.422.056-.765.02-.048.04-.1.059-.15a.913.913,0,0,0-.2-1.041,1.2,1.2,0,0,0-1.18.15.8.8,0,0,1-.072.043,1.045,1.045,0,0,1-.687.2,1.065,1.065,0,0,1-.687-.2c-.023-.013-.047-.027-.07-.043a1.2,1.2,0,0,0-1.18-.15.913.913,0,0,0-.2,1.041c.019.051.039.1.059.15.138.343.244.62.059.765a1.184,1.184,0,0,1-1.049.134,1.561,1.561,0,0,1-.482-.233.315.315,0,0,0,.249-.138.433.433,0,0,0,.059-.371.349.349,0,0,0-.228-.217.51.51,0,0,0-.171-.027.422.422,0,0,0-.264-.253.438.438,0,0,0-.348.06.553.553,0,0,0-.083.074.366.366,0,0,0-.153-.055.449.449,0,0,0-.343.138.659.659,0,0,0-.209-.059.532.532,0,0,0-.379.088.482.482,0,0,0-.139.2.406.406,0,0,0-.165.072.545.545,0,0,0-.206.244.559.559,0,0,0-.331.166c-.209.252-.155.567.165.934.075.088.155.169.233.249a3.5,3.5,0,0,1,.477.584.714.714,0,0,1,.15.508.234.234,0,0,1-.043.088.2.2,0,0,0,0-.052.241.241,0,0,0-.118-.141.287.287,0,0,0-.217-.024.231.231,0,0,0-.141.118.412.412,0,0,0,0,.308l.007.011a.93.93,0,0,0-.962-.024A1.73,1.73,0,0,0,8.847,14.2,1.544,1.544,0,0,0,9.928,15.75a.543.543,0,0,0-.1.04.407.407,0,0,0-.2.457.322.322,0,0,0,.11.193.329.329,0,0,0,.3.064.373.373,0,0,0,.24-.158,1.51,1.51,0,0,1,.088.177,1.4,1.4,0,0,1,.083.982,1.252,1.252,0,0,1-.375.541.282.282,0,0,0-.027-.056.335.335,0,0,0-.249-.158.35.35,0,0,0-.284.107.319.319,0,0,0-.086.185l-.024.024a.331.331,0,0,0-.064.244.427.427,0,0,0-.13.375.389.389,0,0,0,.213.343.476.476,0,0,0,.225.051.575.575,0,0,0,.161-.019,1.481,1.481,0,0,0-.469,1.613c.233.726.884,1.61,2.657,1.708.382.02.7.032.958.04,1.029.04,1.231.043,1.621.529a.462.462,0,0,0-.166.11.5.5,0,0,0-.055.544.591.591,0,0,0,.489.327.584.584,0,0,0,.375.214.488.488,0,0,0,.07,0,.689.689,0,0,0,.477-.217,1.554,1.554,0,0,0,.6.557h.02a1.551,1.551,0,0,0,.591-.557.693.693,0,0,0,.477.217.5.5,0,0,0,.072,0,.584.584,0,0,0,.375-.214.593.593,0,0,0,.489-.327.5.5,0,0,0-.056-.544.426.426,0,0,0-.161-.11c.386-.485.588-.489,1.618-.529.257-.008.576-.019.958-.04a2.608,2.608,0,0,0,2.66-1.708,1.49,1.49,0,0,0-.474-1.613.587.587,0,0,0,.163.019A.482.482,0,0,0,23.315,19.111Zm-.02-.928a.269.269,0,0,1,.056.178.427.427,0,0,0-.26-.044.329.329,0,0,0-.253.222.328.328,0,0,1-.059-.15l0-.013a.236.236,0,0,1,.019-.118.3.3,0,0,1,.284-.165.277.277,0,0,1,.193.063A.2.2,0,0,1,23.295,18.184ZM22.7,18.1a.258.258,0,0,1,.032-.083.29.29,0,0,1,.454-.04.324.324,0,0,1,.064.107.348.348,0,0,0-.174-.04.4.4,0,0,0-.189.048.32.32,0,0,0-.142.15.285.285,0,0,0-.016.059c0-.016-.013-.027-.016-.04A.337.337,0,0,1,22.7,18.1ZM22.324,16.5a1.477,1.477,0,0,0-.083,1.017,1.33,1.33,0,0,0,.41.581.39.39,0,0,0,.016.173.359.359,0,0,0,.027.067.891.891,0,0,1-.149-.1.824.824,0,0,1-.194-.268.023.023,0,0,0-.031-.011c-.016,0-.02.019-.016.035a.86.86,0,0,0,.209.28.786.786,0,0,0,.217.139.3.3,0,0,0,.091.181.228.228,0,0,0,.007.155,1.663,1.663,0,0,1-.859-1.626,1.465,1.465,0,0,1,.442-.987.292.292,0,0,0,.019.153A1.389,1.389,0,0,0,22.324,16.5Zm.734-3.7a1.666,1.666,0,0,1,.776,1.4,1.444,1.444,0,0,1-1.163,1.512.747.747,0,0,1-.552-.115A.473.473,0,0,1,22,15.083a.347.347,0,0,1,.335-.256.264.264,0,0,1,.252.213.242.242,0,0,1-.126.233.214.214,0,0,1-.078.019.136.136,0,0,1-.067-.019c-.064-.04-.051-.094-.02-.182l.008-.011a.026.026,0,0,0-.016-.032c-.011-.008-.023,0-.031.013l0,.015c-.027.075-.067.178.035.241h0a.787.787,0,0,0,.38.107.646.646,0,0,0,.5-.249,1.472,1.472,0,0,0,.213-1.456,1.275,1.275,0,0,0-.323-.513.7.7,0,0,0-.738-.118.233.233,0,0,0-.177.26.187.187,0,0,0,.2.169.026.026,0,0,0,.024-.023.028.028,0,0,0-.027-.028.133.133,0,0,1-.147-.126.187.187,0,0,1,.147-.2.223.223,0,0,1,.228.146.407.407,0,0,1-.043.407.33.33,0,0,1-.268.13.379.379,0,0,1-.308-.146.583.583,0,0,1,.07-.754h0l0,0A.88.88,0,0,1,23.058,12.8Zm.169,1.424c-.04-.809-.541-.955-.623-.975a.333.333,0,0,0-.158-.153.656.656,0,0,1,.58.15,1.223,1.223,0,0,1,.308.493,1.418,1.418,0,0,1-.206,1.4.587.587,0,0,1-.682.19.255.255,0,0,0,.145-.115.162.162,0,0,0,.08.02.368.368,0,0,0,.157-.043C22.932,15.142,23.263,14.921,23.228,14.223Zm-.643-4c.193.228.139.521-.166.867-.07.083-.149.166-.228.246a3.77,3.77,0,0,0-.485.591.763.763,0,0,0-.153.549.289.289,0,0,0,.142.185h0l0,0h0l.019.013h0a.269.269,0,0,0,.11.019.023.023,0,0,0,.028-.024.034.034,0,0,0-.024-.027.229.229,0,0,1-.1-.019l-.008,0h0l-.008-.008a.112.112,0,0,1-.024-.1.2.2,0,0,1,.094-.11.236.236,0,0,1,.182-.016.162.162,0,0,1,.107.091.341.341,0,0,1,0,.264.4.4,0,0,1-.367.241.356.356,0,0,1-.348-.19,1.2,1.2,0,0,1-.091-.5,1.468,1.468,0,0,1,.538-.959c.094-.1.193-.209.275-.311a1.082,1.082,0,0,0,.276-.73.709.709,0,0,0-.043-.214A.466.466,0,0,1,22.584,10.226Zm-9.7-.631a.293.293,0,0,1,.2.185.379.379,0,0,1-.051.327.289.289,0,0,1-.268.114.462.462,0,0,1-.123-.161.161.161,0,0,1,.04-.193c.043-.032.1-.011.158.048a.022.022,0,0,0,.035,0,.031.031,0,0,0,0-.036.177.177,0,0,0-.221-.055.218.218,0,0,0-.059.26.594.594,0,0,0,.142.182,1.483,1.483,0,0,0,.552.288,1.246,1.246,0,0,0,.41.067,1.149,1.149,0,0,0,.687-.209c.213-.169.094-.474-.044-.824-.019-.048-.039-.1-.058-.147a.868.868,0,0,1,.176-.987,1.161,1.161,0,0,1,1.129.155c.024.016.048.032.067.043a1.35,1.35,0,0,0,1.429,0c.023-.011.043-.027.07-.043.268-.161.8-.375,1.124-.155a.861.861,0,0,1,.177.987c-.019.048-.039.1-.055.147-.139.35-.26.655-.048.824a1.147,1.147,0,0,0,.687.209,1.28,1.28,0,0,0,.414-.067A1.492,1.492,0,0,0,20,10.266a.612.612,0,0,0,.142-.182.218.218,0,0,0-.056-.26.182.182,0,0,0-.225.055.031.031,0,0,0,0,.036.024.024,0,0,0,.036,0c.059-.059.118-.08.157-.048a.161.161,0,0,1,.04.193.445.445,0,0,1-.122.161.283.283,0,0,1-.265-.114.37.37,0,0,1-.056-.327.3.3,0,0,1,.2-.185.515.515,0,0,1,.422.043.371.371,0,0,1,.1.446,1.108,1.108,0,0,1-.481.532,1.607,1.607,0,0,1-.423.171c-.027.008-.063.016-.094.024l-.075.011a.024.024,0,0,0-.016,0,.542.542,0,0,1-.086.008h0a.771.771,0,0,1-.1.008.745.745,0,0,1-.1,0c-.051,0-.107,0-.158,0a1.175,1.175,0,0,1-.126-.008c-.059,0-.115-.008-.169-.016-.072-.007-.142-.015-.209-.027a.191.191,0,0,1-.027-.008l-.072-.011-.107-.024c-.035-.008-.067-.019-.1-.027l-.067-.02c-.04-.011-.078-.027-.115-.039s-.075-.028-.11-.044a.517.517,0,0,1-.1-.043.331.331,0,0,1-.088-.043.278.278,0,0,1-.07-.04.552.552,0,0,1-.064-.035,1.054,1.054,0,0,1-.123-.086l-.007-.008a.216.216,0,0,0-.161-.107.21.21,0,0,0-.194.153.145.145,0,0,0,.056.178.027.027,0,0,0,.032-.013.021.021,0,0,0-.008-.031.1.1,0,0,1-.032-.119c.019-.063.083-.126.142-.118a.158.158,0,0,1,.123.083.306.306,0,0,1,.031.26.3.3,0,0,1-.035.072.1.1,0,0,1-.027.031.26.26,0,0,1-.123.083.066.066,0,0,1-.032.008.094.094,0,0,1-.035,0,.818.818,0,0,1-.091-.008l0,0a.277.277,0,0,1-.059-.019l0,0a.093.093,0,0,1-.032-.016.177.177,0,0,1-.047-.028v0a.2.2,0,0,1-.04-.032l0,0c-.008-.013-.02-.024-.028-.036a.349.349,0,0,1-.047-.323.394.394,0,0,1,.315-.3,2.091,2.091,0,0,1,.853.241.029.029,0,0,0,.027,0,.037.037,0,0,0,.008-.027,1.052,1.052,0,0,1-.035-.454A.872.872,0,0,1,18,9.492a1.205,1.205,0,0,0,.169-.288.436.436,0,0,0-.024-.348.331.331,0,0,0-.217-.161.838.838,0,0,0-.548.139l-.02.011A1.561,1.561,0,0,0,17.109,9c-.02.011-.035.024-.048.032a1.064,1.064,0,0,1-.695.173,1.067,1.067,0,0,1-.695-.173c-.011-.008-.027-.02-.047-.032a1.818,1.818,0,0,0-.257-.158l-.019-.011A.841.841,0,0,0,14.8,8.7a.337.337,0,0,0-.216.161.451.451,0,0,0-.02.348,1.061,1.061,0,0,0,.166.288.872.872,0,0,1,.174.34,1.055,1.055,0,0,1-.036.454.043.043,0,0,0,.013.027.023.023,0,0,0,.024,0,2.116,2.116,0,0,1,.851-.241.394.394,0,0,1,.316.3.361.361,0,0,1-.043.323L16,10.728a.176.176,0,0,1-.032.027.314.314,0,0,1-.15.078l-.008,0a.713.713,0,0,1-.09.008.1.1,0,0,1-.036,0,.077.077,0,0,1-.031-.008.333.333,0,0,1-.044-.016.071.071,0,0,0-.023-.015.3.3,0,0,1-.056-.052.1.1,0,0,1-.027-.031.261.261,0,0,1-.035-.072.331.331,0,0,1,.027-.26.168.168,0,0,1,.126-.083c.059-.008.123.056.142.118a.1.1,0,0,1-.032.119.02.02,0,0,0-.008.031.026.026,0,0,0,.032.013.14.14,0,0,0,.055-.178.207.207,0,0,0-.193-.153.214.214,0,0,0-.161.107l0,.008c-.008.008-.051.039-.123.086a.552.552,0,0,1-.064.035.278.278,0,0,1-.07.04.557.557,0,0,1-.086.043.7.7,0,0,1-.1.043c-.035.016-.075.032-.11.044s-.083.027-.126.043l-.131.035c-.043.008-.091.019-.134.032s-.067.011-.1.016c-.067.011-.138.024-.213.031-.056.008-.11.013-.169.016a1.194,1.194,0,0,1-.126.008c-.051,0-.107,0-.163,0a.7.7,0,0,1-.1,0,.676.676,0,0,1-.1-.008h0l-.1-.011a.7.7,0,0,1-.09-.016.648.648,0,0,1-.091-.019c-.02-.008-.043-.013-.067-.02l-.072-.023h0l-.013,0a.054.054,0,0,0-.023-.008,1.27,1.27,0,0,1-.142-.063c-.036-.016-.067-.036-.1-.052a1.083,1.083,0,0,1-.477-.532.365.365,0,0,1,.094-.446A.518.518,0,0,1,12.883,9.6Zm-2.459.7a.717.717,0,0,1,.056-.24.5.5,0,0,1,.193-.238.533.533,0,0,1,.123-.055.773.773,0,0,0-.027.272,1.134,1.134,0,0,0,.4.8.03.03,0,0,0,.019,0,.015.015,0,0,0,.016-.008c.011-.013.011-.027,0-.035a1.091,1.091,0,0,1-.386-.762.87.87,0,0,1,.04-.3.376.376,0,0,1,.126-.185.479.479,0,0,1,.343-.078.586.586,0,0,1,.177.051l-.02.019c-.173.225-.086.635.214.995l.016.008c.008,0,.011,0,.019-.008a.02.02,0,0,0,0-.032c-.276-.335-.363-.725-.209-.931l.036-.043a.413.413,0,0,1,.319-.134A.293.293,0,0,1,12,9.441a.707.707,0,0,0-.1.41.87.87,0,0,0,.311.62s.008.008.016.008l.019-.008a.025.025,0,0,0,0-.035.834.834,0,0,1-.292-.588V9.835a.91.91,0,0,1,.024-.221.474.474,0,0,1,.083-.166.3.3,0,0,1,.083-.078.357.357,0,0,1,.3-.056.377.377,0,0,1,.228.206.578.578,0,0,0-.241.075.413.413,0,0,0-.118.508,1.152,1.152,0,0,0,.5.557,1.684,1.684,0,0,0,.43.173,1.987,1.987,0,0,0,.489.064,3.615,3.615,0,0,0,.7-.064,2.419,2.419,0,0,0,.971-.374.356.356,0,0,0,.008.2.345.345,0,0,0,.126.169.288.288,0,0,0,.174.064.444.444,0,0,0,.224-.064.393.393,0,0,0,.127-.114.408.408,0,0,0,.051-.367.441.441,0,0,0-.356-.332,1.877,1.877,0,0,0-.832.225,1,1,0,0,0,.024-.426,1.007,1.007,0,0,0-.182-.358,1.031,1.031,0,0,1-.161-.276.385.385,0,0,1,.016-.3.262.262,0,0,1,.185-.134.782.782,0,0,1,.513.131l.02.011a2.309,2.309,0,0,1,.252.155c.015.015.035.023.047.035a1.1,1.1,0,0,0,.722.177,1.085,1.085,0,0,0,.722-.177.469.469,0,0,0,.048-.035,2.309,2.309,0,0,1,.252-.155l.02-.011a.787.787,0,0,1,.513-.131.262.262,0,0,1,.185.134.367.367,0,0,1,.016.3,1.119,1.119,0,0,1-.158.276,1.015,1.015,0,0,0-.185.358,1,1,0,0,0,.024.426,1.879,1.879,0,0,0-.829-.225.452.452,0,0,0-.359.332.4.4,0,0,0,.051.367.442.442,0,0,0,.126.114.436.436,0,0,0,.225.064.288.288,0,0,0,.174-.064.363.363,0,0,0,.126-.165.374.374,0,0,0,.008-.209,2.419,2.419,0,0,0,.971.374,3.6,3.6,0,0,0,.7.064,2,2,0,0,0,.493-.064,1.7,1.7,0,0,0,.43-.173,1.149,1.149,0,0,0,.5-.557A.412.412,0,0,0,20.3,9.6a.573.573,0,0,0-.241-.075.378.378,0,0,1,.23-.206.355.355,0,0,1,.3.056.26.26,0,0,1,.083.078.613.613,0,0,1,.107.4.824.824,0,0,1-.292.584.025.025,0,0,0,0,.035l.016.008c.008,0,.016,0,.016-.008a.858.858,0,0,0,.311-.62.716.716,0,0,0-.1-.41.293.293,0,0,1,.126-.043.416.416,0,0,1,.319.134l.035.043c.155.206.067.6-.209.931-.011.008-.007.024,0,.032a.018.018,0,0,0,.016.008c.008,0,.011,0,.019-.008.292-.359.383-.77.209-.995a.1.1,0,0,1-.016-.019.531.531,0,0,1,.174-.051.479.479,0,0,1,.343.078.4.4,0,0,1,.126.185.879.879,0,0,1,.04.3,1.1,1.1,0,0,1-.386.758.024.024,0,0,0,0,.035c0,.008.011.008.019.008l.016,0a1.154,1.154,0,0,0,.4-.8,1.065,1.065,0,0,0-.027-.268.626.626,0,0,1,.118.055.5.5,0,0,1,.193.238.707.707,0,0,1,.055.24,1.05,1.05,0,0,1-.268.695c-.078.1-.169.2-.268.308a2.123,2.123,0,0,0-.5.706.86.86,0,0,0-.048.289,1.435,1.435,0,0,0,.048.394c.016.047.032.086.051.13a.336.336,0,0,0,.072.1.5.5,0,0,0-.123.2.845.845,0,0,0-.048.292.592.592,0,0,0,.048.217.978.978,0,0,0,.359.442.783.783,0,0,0,.43.13.971.971,0,0,0,.391-.086c.011-.008.019-.024.011-.035a.022.022,0,0,0-.032-.013.773.773,0,0,1-.773-.035.834.834,0,0,1-.383-.62.634.634,0,0,1,.155-.457.427.427,0,0,0,.264.086h.02a.517.517,0,0,0,.177-.04.637.637,0,0,0,.024.707.435.435,0,0,0,.343.165.378.378,0,0,0,.307-.153.434.434,0,0,0,.064-.406c.134.039.517.221.552.918.032.667-.273.876-.367.923a.233.233,0,0,1-.19.028.234.234,0,0,0,.02-.147.308.308,0,0,0-.3-.256.4.4,0,0,0-.386.291.521.521,0,0,0,.134.573.655.655,0,0,0,.335.126,1.222,1.222,0,0,0-.607.6,2.42,2.42,0,0,0-.241,1.125,1.519,1.519,0,0,0,.789,1.361c-.517-.169-.762.027-.864.177a.623.623,0,0,0-.289.182.439.439,0,0,0-.106.181.851.851,0,0,0-.048.225.713.713,0,0,0,.257.64.525.525,0,0,0,.359.153.4.4,0,0,0,.288-.1.4.4,0,0,0,.051-.485.331.331,0,0,0-.169-.134.308.308,0,0,1,.131-.035.38.38,0,0,1,.291.122,1.293,1.293,0,0,1,.292.825,1.188,1.188,0,0,1-.375.824,1.623,1.623,0,0,1-.963.363,7.637,7.637,0,0,1-1.369.075c-.3,0-.6-.008-1.017.024a3.946,3.946,0,0,0-1.633.406c-.233.127-.762.407-.833.849-.07-.442-.6-.722-.829-.849a3.986,3.986,0,0,0-1.637-.406c-.414-.032-.722-.027-1.017-.024a7.687,7.687,0,0,1-1.37-.075,1.629,1.629,0,0,1-.963-.363,1.192,1.192,0,0,1-.371-.824,1.263,1.263,0,0,1,.289-.825.368.368,0,0,1,.291-.122.337.337,0,0,1,.134.035.34.34,0,0,0-.173.134.391.391,0,0,0,.055.485.383.383,0,0,0,.284.1.517.517,0,0,0,.359-.153.713.713,0,0,0,.257-.64.869.869,0,0,0-.048-.225.486.486,0,0,0-.1-.181.666.666,0,0,0-.292-.182c-.1-.15-.347-.347-.864-.177a1.931,1.931,0,0,0,.6-.592,1.477,1.477,0,0,0,.19-.768,2.43,2.43,0,0,0-.241-1.125,1.164,1.164,0,0,0-.086-.15,1.148,1.148,0,0,0-.517-.449.663.663,0,0,0,.332-.126.521.521,0,0,0,.134-.573.4.4,0,0,0-.383-.291.308.308,0,0,0-.3.256.27.27,0,0,0,.019.147.223.223,0,0,1-.185-.028c-.094-.047-.406-.256-.371-.923.035-.706.418-.883.548-.918a.453.453,0,0,0,.067.406.38.38,0,0,0,.308.153.451.451,0,0,0,.347-.165.639.639,0,0,0,.02-.707.505.505,0,0,0,.177.04h.02a.432.432,0,0,0,.264-.086.632.632,0,0,1,.153.457.834.834,0,0,1-.383.62.765.765,0,0,1-.768.035.026.026,0,0,0-.036.013c-.008.011,0,.027.013.035a.966.966,0,0,0,.39.086.784.784,0,0,0,.431-.13.929.929,0,0,0,.359-.442.613.613,0,0,0,.047-.217.834.834,0,0,0-.047-.288.518.518,0,0,0-.119-.2.363.363,0,0,0,.067-.1.764.764,0,0,0,.052-.134,1.442,1.442,0,0,0,.047-.39.841.841,0,0,0-.047-.281,1.977,1.977,0,0,0-.506-.714c-.1-.107-.189-.206-.272-.308A1.066,1.066,0,0,1,10.425,10.3Zm-.521,4.9a.372.372,0,0,0,.158.043.154.154,0,0,0,.078-.02.275.275,0,0,0,.107.1.263.263,0,0,0,.04.016.589.589,0,0,1-.683-.19,1.41,1.41,0,0,1-.2-1.4,1.19,1.19,0,0,1,.311-.493.654.654,0,0,1,.58-.15.3.3,0,0,0-.158.153c-.086.02-.583.166-.626.975C9.47,14.921,9.8,15.142,9.9,15.194Zm.754-2.714a.158.158,0,0,1,.111-.091.222.222,0,0,1,.176.016.209.209,0,0,1,.1.11.112.112,0,0,1-.024.1l0,0,0,0h0l-.008,0a.223.223,0,0,1-.1.019.034.034,0,0,0-.027.027.029.029,0,0,0,.027.024.266.266,0,0,0,.11-.019l.02-.013h0l0,0h0a.289.289,0,0,0,.142-.185.76.76,0,0,0-.155-.549,3.647,3.647,0,0,0-.485-.591c-.078-.08-.153-.163-.228-.246-.3-.347-.359-.639-.166-.867a.473.473,0,0,1,.268-.147.876.876,0,0,0-.042.214,1.084,1.084,0,0,0,.28.73c.078.1.177.209.272.311a1.466,1.466,0,0,1,.537.959,1.118,1.118,0,0,1-.091.5.351.351,0,0,1-.343.19.4.4,0,0,1-.371-.241A.341.341,0,0,1,10.658,12.479ZM8.9,14.2a1.667,1.667,0,0,1,.778-1.4.878.878,0,0,1,1.038.114l0,0a.583.583,0,0,1,.072.754.4.4,0,0,1-.308.146.33.33,0,0,1-.268-.13.4.4,0,0,1-.04-.407c.04-.083.126-.169.225-.146a.187.187,0,0,1,.146.2.131.131,0,0,1-.146.126.027.027,0,0,0-.027.028.026.026,0,0,0,.027.023h0a.179.179,0,0,0,.193-.169.233.233,0,0,0-.177-.26.7.7,0,0,0-.738.118,1.284,1.284,0,0,0-.319.513,1.464,1.464,0,0,0,.209,1.456.639.639,0,0,0,.5.249.77.77,0,0,0,.379-.107c.107-.063.067-.166.035-.241l0-.015a.022.022,0,0,0-.032-.013.028.028,0,0,0-.016.032l.008.011c.032.088.043.142-.016.182h0a.15.15,0,0,1-.142,0,.242.242,0,0,1-.131-.233.266.266,0,0,1,.257-.213.351.351,0,0,1,.335.256.474.474,0,0,1-.118.517.742.742,0,0,1-.552.115A1.449,1.449,0,0,1,8.9,14.2Zm1.167,4.072a.319.319,0,0,0,.016-.173,1.322,1.322,0,0,0,.411-.581,1.456,1.456,0,0,0-.084-1.017,1.779,1.779,0,0,0-.106-.214.326.326,0,0,0,.019-.051.385.385,0,0,0,0-.1,1.489,1.489,0,0,1,.447.987A1.672,1.672,0,0,1,9.9,18.748a.248.248,0,0,0,.013-.155A.328.328,0,0,0,10,18.413a.754.754,0,0,0,.217-.139.86.86,0,0,0,.209-.28c0-.016,0-.032-.016-.035a.025.025,0,0,0-.032.011.77.77,0,0,1-.193.268.745.745,0,0,1-.15.1A.252.252,0,0,0,10.066,18.274Zm-.519-.3a.288.288,0,0,1,.244-.09.278.278,0,0,1,.208.13.258.258,0,0,1,.032.083.3.3,0,0,1-.011.161A.263.263,0,0,0,10,18.3a.38.38,0,0,0-.016-.059.382.382,0,0,0-.5-.158A.305.305,0,0,1,9.546,17.974Zm-.107.206.023-.024a.29.29,0,0,1,.194-.063.43.43,0,0,1,.153.031.26.26,0,0,1,.131.134.265.265,0,0,1,.019.118v.016a.307.307,0,0,1-.064.147.333.333,0,0,0-.252-.222.413.413,0,0,0-.256.044A.253.253,0,0,1,9.439,18.18Zm0,.883a.33.33,0,0,1-.185-.3.4.4,0,0,1,.091-.316l.043-.035a.367.367,0,0,1,.244-.051.3.3,0,0,1,.228.228.173.173,0,0,1-.074.209l-.024.013a.211.211,0,0,1-.171,0,.159.159,0,0,1-.07-.107.022.022,0,0,0-.024-.019.029.029,0,0,0-.024.027.21.21,0,0,0,.091.142.246.246,0,0,0,.217,0,.05.05,0,0,1,.024-.008,1.713,1.713,0,0,0,1.006-1.732,1.38,1.38,0,0,0-.572-1.1L10.22,16l-.016-.008h0a.3.3,0,0,0-.213.027.087.087,0,0,0-.04.072.026.026,0,0,0,.024.027c.016,0,.024-.011.024-.027a.041.041,0,0,1,.019-.032.237.237,0,0,1,.171-.019h0a.189.189,0,0,1,.035.024.165.165,0,0,1,.048.161.348.348,0,0,1-.019.055.339.339,0,0,1-.23.174A.28.28,0,0,1,9.77,16.4a.292.292,0,0,1-.094-.169.359.359,0,0,1,.174-.4c.457-.236.872.26,1.025.552a2.411,2.411,0,0,1,.233,1.1,1.59,1.59,0,0,1-.979,1.455c-.059.028-.118.064-.174.1A.59.59,0,0,1,9.443,19.063Zm4.956,4.6a.463.463,0,0,1,.043-.493.455.455,0,0,1,.343-.126.324.324,0,0,1,.236.115.313.313,0,0,1-.035.4.278.278,0,0,1-.2.055.107.107,0,0,1-.086-.043c-.044-.064,0-.169,0-.185s0-.024-.011-.032-.028,0-.032.016a.246.246,0,0,0,0,.233.176.176,0,0,0,.123.063.314.314,0,0,0,.232-.067.366.366,0,0,0,.048-.469.376.376,0,0,0-.28-.134.607.607,0,0,0-.163.016c-.414-.517-.635-.525-1.669-.564-.257,0-.576-.016-.958-.04a2.554,2.554,0,0,1-2.612-1.669,1.417,1.417,0,0,1,.6-1.661h0a1.511,1.511,0,0,0,.174-.091c.58-.276.867-.134,1,.011a1.4,1.4,0,0,0-1.112.225.029.029,0,0,0,0,.035.021.021,0,0,0,.035,0,1.363,1.363,0,0,1,1.081-.2.557.557,0,0,1,.422.347.73.73,0,0,1-.078.695.6.6,0,0,0,.011-.241.775.775,0,0,0-.323-.548c-.386-.252-.955.064-1.212.383a1.164,1.164,0,0,0-.256.784,1.5,1.5,0,0,0,.583,1.1,3.083,3.083,0,0,0,1.847.6,2.739,2.739,0,0,0,.476.024,5.1,5.1,0,0,1,.56.024,3.3,3.3,0,0,1,1.926.58.841.841,0,0,1,.3.7.578.578,0,0,1-.465.462A.538.538,0,0,1,14.4,23.668Zm1.353.292a.64.64,0,0,1-.529.221.538.538,0,0,1-.316-.166.312.312,0,0,0,.056,0,.625.625,0,0,0,.508-.5.9.9,0,0,0-.319-.749,1.362,1.362,0,0,0-.537-.316,5.628,5.628,0,0,0-1.42-.276,4.638,4.638,0,0,0-.565-.027,2.707,2.707,0,0,1-.473-.024,3.071,3.071,0,0,1-1.819-.58A1.473,1.473,0,0,1,9.77,20.48a1.174,1.174,0,0,1,.244-.754c.246-.3.79-.6,1.149-.371a.748.748,0,0,1,.3.513.453.453,0,0,1-.083.356.476.476,0,0,1-.324.134.325.325,0,0,1-.3-.509.312.312,0,0,1,.185-.126.26.26,0,0,1,.1.371.028.028,0,0,0,.011.032.027.027,0,0,0,.035-.011.335.335,0,0,0,.036-.225.343.343,0,0,0-.163-.217.457.457,0,0,0-.2-.072.435.435,0,0,0-.332.139,1.309,1.309,0,0,0-.3.86,1.24,1.24,0,0,0,.386.864,1.7,1.7,0,0,0,.99.374,7.771,7.771,0,0,0,1.378.075,9.5,9.5,0,0,1,1.014.024,3.878,3.878,0,0,1,1.613.4c.236.126.785.422.813.867a.488.488,0,0,1-.158.438.4.4,0,0,1-.248.08.961.961,0,0,0,.019-.2,1.047,1.047,0,0,0-.679-1,3.44,3.44,0,0,0-.679-.276c-.011,0-.023,0-.032.016a.033.033,0,0,0,.02.032.842.842,0,0,1,.086.027,3.165,3.165,0,0,1,.58.244,1,1,0,0,1,.627,1.172A.469.469,0,0,1,15.751,23.96Zm.615.559a1.469,1.469,0,0,1-.564-.544.5.5,0,0,0,.1-.2h.008a.474.474,0,0,0,.284-.091.458.458,0,0,0,.169-.308.463.463,0,0,0,.171.308.477.477,0,0,0,.288.091h0a.5.5,0,0,0,.107.2A1.526,1.526,0,0,1,16.366,24.52Zm1.145-.339a.638.638,0,0,1-.529-.221.469.469,0,0,1-.11-.222.855.855,0,0,1-.024-.217,1.006,1.006,0,0,1,.65-.955,3.326,3.326,0,0,1,.667-.272.025.025,0,0,0,.016-.032.024.024,0,0,0-.027-.016,3.412,3.412,0,0,0-.679.276,1.046,1.046,0,0,0-.679,1,.961.961,0,0,0,.019.2.4.4,0,0,1-.248-.08.488.488,0,0,1-.158-.438c.027-.446.575-.741.812-.867a3.886,3.886,0,0,1,1.614-.4,9.5,9.5,0,0,1,1.014-.024,7.754,7.754,0,0,0,1.377-.075,1.684,1.684,0,0,0,.99-.374,1.254,1.254,0,0,0,.391-.864,1.328,1.328,0,0,0-.308-.86.428.428,0,0,0-.326-.139.465.465,0,0,0-.21.072.357.357,0,0,0-.161.217.335.335,0,0,0,.035.225.028.028,0,0,0,.036.011.028.028,0,0,0,.011-.032.278.278,0,0,1-.032-.193.273.273,0,0,1,.131-.177.337.337,0,0,1,.19.126.354.354,0,0,1-.048.422.344.344,0,0,1-.252.088.473.473,0,0,1-.324-.134.448.448,0,0,1-.083-.356.748.748,0,0,1,.3-.513c.356-.233.9.072,1.148.371a1.156,1.156,0,0,1,.244.754,1.467,1.467,0,0,1-.567,1.062,3.073,3.073,0,0,1-1.819.58,2.715,2.715,0,0,1-.474.024,4.63,4.63,0,0,0-.564.027,5.839,5.839,0,0,0-1.306.238,1.54,1.54,0,0,0-.651.355.907.907,0,0,0-.319.749.632.632,0,0,0,.509.5.306.306,0,0,0,.056,0A.528.528,0,0,1,17.511,24.181Zm5.839-3.436a2.549,2.549,0,0,1-2.609,1.669c-.385.024-.706.035-.962.04-1.034.039-1.255.047-1.67.564A.593.593,0,0,0,17.945,23a.344.344,0,0,0-.23.6.322.322,0,0,0,.238.067.178.178,0,0,0,.118-.063.24.24,0,0,0,0-.233c-.043-.027-.043.019-.043.019.007.02.047.118,0,.182a.109.109,0,0,1-.086.043.282.282,0,0,1-.2-.055.325.325,0,0,1-.04-.4.341.341,0,0,1,.241-.115.457.457,0,0,1,.343.126.465.465,0,0,1,.043.493.539.539,0,0,1-.556.3.581.581,0,0,1-.466-.462.842.842,0,0,1,.3-.7,3.31,3.31,0,0,1,1.924-.58,5.117,5.117,0,0,1,.56-.024,2.518,2.518,0,0,0,.477-.027,3.055,3.055,0,0,0,1.846-.592,1.529,1.529,0,0,0,.589-1.1,1.2,1.2,0,0,0-.26-.784c-.257-.319-.825-.635-1.212-.383a.791.791,0,0,0-.324.548.6.6,0,0,0,.013.241.729.729,0,0,1-.08-.695.562.562,0,0,1,.418-.347,1.367,1.367,0,0,1,1.086.2.021.021,0,0,0,.035,0,.029.029,0,0,0,0-.035A1.394,1.394,0,0,0,21.583,19c.134-.146.418-.288,1-.011a1.511,1.511,0,0,0,.174.091h0A1.418,1.418,0,0,1,23.35,20.745Zm-.573-1.7c-.055-.032-.114-.067-.173-.1a1.59,1.59,0,0,1-.979-1.455,2.383,2.383,0,0,1,.233-1.1c.153-.292.567-.789,1.025-.552a.364.364,0,0,1,.174.4.294.294,0,0,1-.1.169.28.28,0,0,1-.252.051.339.339,0,0,1-.228-.174.261.261,0,0,1-.019-.055.162.162,0,0,1,.047-.161.191.191,0,0,1,.04-.024.259.259,0,0,1,.169.019.043.043,0,0,1,.02.032c0,.016.008.027.024.027s.023-.011.023-.027a.086.086,0,0,0-.039-.072.3.3,0,0,0-.147-.035.39.39,0,0,0-.07.008L22.514,16a.057.057,0,0,1-.024.011,1.4,1.4,0,0,0-.572,1.1,1.713,1.713,0,0,0,1.006,1.732h0a.05.05,0,0,1,.024.008.243.243,0,0,0,.216,0,.21.21,0,0,0,.091-.142c0-.011-.008-.023-.019-.027s-.027.008-.027.019a.163.163,0,0,1-.067.107.22.22,0,0,1-.174,0l-.024-.013a.175.175,0,0,1-.075-.209.3.3,0,0,1,.228-.228.367.367,0,0,1,.246.051l.043.035a.4.4,0,0,1,.091.316.324.324,0,0,1-.185.3A.592.592,0,0,1,22.778,19.041Z" transform="translate(-8.847 -8.31)" fill="#72402c"/><g transform="translate(2.62 2.523)"><rect width="4.067" height="4.068" transform="translate(0.564 0.565)" fill="#d42b1e"/><path d="M19.766,15.077v2.75a1.32,1.32,0,0,1-1.319,1.317H16.72a3.006,3.006,0,0,0-1.022.182V15.077Z" transform="translate(-10.53 -9.908)" fill="#fdde19"/><path d="M11.218,10.6v7.843a1.81,1.81,0,0,0,1.806,1.807h1.728a2.479,2.479,0,0,1,1.29.363,2.494,2.494,0,0,1,1.29-.363H19.06a1.807,1.807,0,0,0,1.807-1.807V10.6Zm4.607,4.584a.025.025,0,0,1-.023.024H11.683a.026.026,0,0,1-.027-.024V11.062a.027.027,0,0,1,.027-.027H15.8a.026.026,0,0,1,.023.027Zm4.6,3.259a1.37,1.37,0,0,1-1.366,1.37H17.332A2.917,2.917,0,0,0,16.295,20l-.007,0c-.008,0-.013,0-.016,0v0l-.008-.008,0-.008V15.666a.027.027,0,0,1,.028-.027h4.118c.011,0,.02.011.02.027Z" transform="translate(-11.143 -10.521)" fill="#c6b27f"/><path d="M19.8,15.032H15.681a.027.027,0,0,0-.028.027v4.313l0,.008.008.008v0s.008,0,.016,0l.007,0a2.917,2.917,0,0,1,1.038-.189h1.728a1.37,1.37,0,0,0,1.366-1.37V15.059C19.82,15.043,19.811,15.032,19.8,15.032Zm-.027,2.8a1.32,1.32,0,0,1-1.319,1.317H16.726a2.9,2.9,0,0,0-1.022.182V15.083h4.068Z" transform="translate(-10.537 -9.914)" fill="#72402c"/><path d="M15.75,10.982H11.63a.027.027,0,0,0-.027.027v4.118a.026.026,0,0,0,.027.024H15.75a.025.025,0,0,0,.023-.024V11.009A.026.026,0,0,0,15.75,10.982ZM15.721,15.1H11.654V11.033h4.067Z" transform="translate(-11.09 -10.468)" fill="#72402c"/><path d="M20.912,10.53H11.191a.039.039,0,0,0-.039.036v7.882a1.746,1.746,0,0,0,.059.458,1.945,1.945,0,0,0,.15.406,1.891,1.891,0,0,0,1.672,1.019h1.728a2.415,2.415,0,0,1,1.271.363c.008,0,.011.008.019.008a.03.03,0,0,0,.02-.008,2.411,2.411,0,0,1,1.27-.363h1.728a1.886,1.886,0,0,0,1.673-1.019,1.954,1.954,0,0,0,.153-.406,1.9,1.9,0,0,0,.056-.458V10.566A.04.04,0,0,0,20.912,10.53Zm-1.843,9.726H17.341a2.494,2.494,0,0,0-1.29.363,2.479,2.479,0,0,0-1.29-.363H13.033a1.81,1.81,0,0,1-1.806-1.807V10.605h9.65v7.843A1.807,1.807,0,0,1,19.069,20.256Z" transform="translate(-11.152 -10.53)" fill="#72402c"/><g transform="translate(0.54 5.145)"><path d="M14.9,15.056v4.179a2.936,2.936,0,0,0-.458-.059V15.056Z" transform="translate(-11.242 -15.056)" fill="#d42b1e"/><rect width="0.458" height="4.115" transform="translate(2.288 0)" fill="#d42b1e"/><rect width="0.458" height="4.115" transform="translate(1.373 0)" fill="#d42b1e"/><path d="M12.487,15.056V19.1a1.394,1.394,0,0,1-.457-.264V15.056Z" transform="translate(-11.572 -15.056)" fill="#d42b1e"/><path d="M15.306,15.056v4.308a3.317,3.317,0,0,0-.458-.13V15.056Z" transform="translate(-11.187 -15.056)" fill="#fdde19"/><path d="M14.5,15.056v4.119c-.043,0-.09,0-.134,0h-.323V15.056Z" transform="translate(-11.297 -15.056)" fill="#fdde19"/><rect width="0.458" height="4.115" transform="translate(1.831 0)" fill="#fdde19"/><path d="M12.89,15.056v4.115h-.032a1.388,1.388,0,0,1-.426-.067V15.056Z" transform="translate(-11.517 -15.056)" fill="#fdde19"/><path d="M12.085,15.056V18.84a1.346,1.346,0,0,1-.458-1.011V15.056Z" transform="translate(-11.627 -15.056)" fill="#fdde19"/></g><g transform="translate(5.144 0.541)"><rect width="0.587" height="4.119" transform="translate(0.588)" fill="#d42b1e"/><rect width="0.588" height="4.119" transform="translate(1.764)" fill="#d42b1e"/><rect width="0.588" height="4.119" transform="translate(2.939)" fill="#d42b1e"/><rect width="0.588" height="4.119" transform="translate(3.527)" fill="#fdde19"/><rect width="0.588" height="4.119" transform="translate(2.351)" fill="#fdde19"/><rect width="0.588" height="4.119" transform="translate(1.176)" fill="#fdde19"/><rect width="0.588" height="4.119" fill="#fdde19"/></g><g transform="translate(0.705 0.707)"><path d="M15.48,11.392a.47.47,0,0,0-.391-.24.493.493,0,0,0-.422.213h-.123a.073.073,0,0,0,0,.146h.064a.761.761,0,0,0-.02.131h-.063a.073.073,0,0,0-.075.075.071.071,0,0,0,.075.07h.059v.044c-.115.126-.6.642-2.636,2.841a.074.074,0,0,0,0,.106l.067.064a.076.076,0,0,0,.107,0c.371-.4,2.659-2.863,2.67-2.876a.165.165,0,0,0,.032-.138v-.134a.353.353,0,0,1,.043-.19.23.23,0,0,1,.206-.1.214.214,0,0,1,.185.114c.056.1.019.142,0,.163a.22.22,0,0,1-.161.086h0a.124.124,0,0,0-.11.174.117.117,0,0,0,.11.07h0a.458.458,0,0,0,.351-.177A.377.377,0,0,0,15.48,11.392Z" transform="translate(-11.751 -11.152)" fill="#fdde19"/><g transform="translate(0 0.098)"><path d="M15.521,13.989a.387.387,0,0,0-.367-.206.488.488,0,0,0-.3.217c-.138.185-.086.28-.236.446a.36.36,0,0,1-.257.153.3.3,0,0,1-.225-.13.322.322,0,0,1-.055-.241l.244.032L14.85,12.6l-.308-.355-.161-.185-.6-.687-.118-.139-.123.139L12.476,12.6l.359,1.124.169.533.248-.032a.338.338,0,0,1-.055.241.3.3,0,0,1-.225.13.36.36,0,0,1-.257-.153.432.432,0,0,1-.09-.134,2.019,2.019,0,0,0-.1-.244c-.011-.019-.027-.043-.043-.067a.5.5,0,0,0-.308-.217.381.381,0,0,0-.363.206.448.448,0,0,0,.1.469.5.5,0,0,0,.142.114c.075.04.146.059.185.027a.16.16,0,0,0,.019-.169.2.2,0,0,0-.031-.043.505.505,0,0,1-.08-.07c-.051-.059-.078-.091-.078-.139a.128.128,0,0,1,.083-.126c.075-.019.149.072.2.126.013.016.024.032.032.043a1.016,1.016,0,0,1,.11.241.676.676,0,0,0,.052.118c.074.147.216.332.374.343a.39.39,0,0,0,.311-.086.65.65,0,0,0,.257-.3.878.878,0,0,0,.067-.339l.118-.016.118.016a.791.791,0,0,0,.059.339.665.665,0,0,0,.257.3.4.4,0,0,0,.315.086c.158-.011.3-.2.375-.343a1.647,1.647,0,0,1,.193-.4c.048-.055.123-.146.2-.126a.136.136,0,0,1,.083.126c0,.048-.028.08-.08.139s-.091.067-.11.114a.162.162,0,0,0,.019.169c.067.052.233-.035.327-.141A.446.446,0,0,0,15.521,13.989Zm-1.977-.04-.367.043-.067-.206-.086-.264-.276-.86.8-.911Zm.241,0v-2.2l.43.489.163.185.2.236-.426,1.33Z" transform="translate(-11.772 -11.238)" fill="#fff"/><path d="M13.543,11.686l.793.915-.426,1.334-.367-.047Z" transform="translate(-11.53 -11.177)" fill="#fdde19"/><path d="M13.423,11.686v2.2l-.363.047L12.63,12.6Z" transform="translate(-11.655 -11.177)" fill="#fdde19"/></g></g><g transform="translate(5.854 5.315)"><path d="M18.672,15.531a.3.3,0,0,0-.2-.051l.023.011a.31.31,0,0,1,.107.131.13.13,0,0,1,.059.11.08.08,0,0,1-.016.043h0a.232.232,0,0,1-.193.086,1.222,1.222,0,0,1-.249-.047c-.043-.008-.083-.02-.1-.02a.488.488,0,0,0-.268.075c-.011.008-.016.013-.016.016.008.024.1.048.185.051.051,0,.064-.008.08-.024a.18.18,0,0,1,.059-.027,1.024,1.024,0,0,1,.232.024.977.977,0,0,0,.178.027.188.188,0,0,0,.094-.027.345.345,0,0,0,.13-.123C18.815,15.705,18.778,15.61,18.672,15.531Z" transform="translate(-16.096 -15.168)" fill="#d42b1e"/><path d="M16.566,15.436a.05.05,0,0,0,.04-.039.065.065,0,0,1-.013-.016.681.681,0,0,0-.067-.15c0-.008-.008-.013-.011-.008l0,0a.254.254,0,0,0,0,.059.59.59,0,0,0,.016.088c0,.016.019.047.016.067C16.554,15.44,16.562,15.44,16.566,15.436Z" transform="translate(-16.274 -15.203)" fill="#0865bb"/><path d="M18.9,16.343c-.032-.027-.075-.067-.075-.114a.316.316,0,0,1,0-.048,1.933,1.933,0,0,0,.008-.221.237.237,0,0,1-.086.019,1.233,1.233,0,0,1-.182-.024.974.974,0,0,0-.225-.027.184.184,0,0,0-.048.024.089.089,0,0,1-.078.027H18.2c-.051,0-.193-.019-.208-.067,0-.011,0-.027.023-.043a.531.531,0,0,1,.284-.083c.024,0,.063.016.107.024a1.2,1.2,0,0,0,.244.043.217.217,0,0,0,.169-.067.53.53,0,0,0-.035-.131l0,0a.288.288,0,0,0-.1-.123.331.331,0,0,0-.064-.031,1.652,1.652,0,0,0-.687.031c-.091.016-.166.028-.216.032a1.493,1.493,0,0,0-.163.013h-.011a3.055,3.055,0,0,1-.34.015c-.067,0-.185,0-.2-.086a.038.038,0,0,1,0-.027v-.008c.016-.027.078-.091.059-.11s-.048,0-.063,0a.224.224,0,0,0-.083.035.037.037,0,0,1-.02.008s-.007-.008-.011-.024a.07.07,0,0,1-.048,0,.054.054,0,0,1-.024-.024h0l-.008,0a.137.137,0,0,0-.083-.016.356.356,0,0,0-.043.028c-.016.008-.032.023-.043.016a.05.05,0,0,1-.04.039s-.011,0-.019,0l0,.008-.008.008a.406.406,0,0,0-.063.063.62.62,0,0,1-.131.115.315.315,0,0,0-.035.024c-.032.027-.051.043,0,.118a.134.134,0,0,0,.1.051.737.737,0,0,1,.131.04.385.385,0,0,0,.1.035c.07.016.13.032.189.166a.736.736,0,0,0,.075.13c.032.04.04.056,0,.126a.387.387,0,0,1-.072.088c-.035.031-.055.043-.011.118a2.577,2.577,0,0,1,.158.311.156.156,0,0,1,.063-.075.2.2,0,0,1,.056-.024,1.037,1.037,0,0,1-.118-.217.065.065,0,0,1,.015-.059c.028-.035.1-.078.265-.094-.027-.11-.059-.214-.059-.217l.008-.016c.008,0,.016,0,.016.008s.059.2.091.339a.939.939,0,0,1-.028.431.182.182,0,0,1,.064.024.428.428,0,0,1,.075.051.185.185,0,0,0,.043-.139,1.205,1.205,0,0,1,.032-.434,1.984,1.984,0,0,0,.07-.268c0-.007.008-.011.016-.011s.011.008.008.016-.024.123-.051.217a1.184,1.184,0,0,1,.13.008.859.859,0,0,0,.407-.02.326.326,0,0,0,.051-.019c.083-.043.153-.075.213-.1l.017-.008-.135-.075,0-.016c0-.008.011-.011.016-.008s.07.04.153.091a1.447,1.447,0,0,1,.3.221.158.158,0,0,1,.051.083.677.677,0,0,1-.13.431.218.218,0,0,1,.067.011.843.843,0,0,1,.094.04,1.131,1.131,0,0,0,.088-.418v-.032a.351.351,0,0,1,.031-.083c.016-.032.032-.059.025-.075S18.918,16.359,18.9,16.343Z" transform="translate(-16.302 -15.188)" fill="#d42b1e"/><path d="M16.924,16.658c.007.016.015.035.023.051a.064.064,0,0,0,.036.04c.019,0,.043-.02.063-.051a.109.109,0,0,0,.019-.1l-.007-.016c0-.008-.013-.016-.016-.024a.2.2,0,0,0-.056.024A.156.156,0,0,0,16.924,16.658Z" transform="translate(-16.217 -15.02)" fill="#0865bb"/><path d="M16.777,15.4a.07.07,0,0,0,.048,0,.638.638,0,0,1-.008-.11c0-.008-.011-.1-.024-.075-.032.043-.019.107-.032.158l-.008.008A.054.054,0,0,0,16.777,15.4Z" transform="translate(-16.241 -15.205)" fill="#0865bb"/><path d="M18.366,16.747a.131.131,0,0,1-.048.023c-.008,0-.035.013-.031.028s.074.067.169.059a.121.121,0,0,0,.07-.059.843.843,0,0,0-.094-.04A.218.218,0,0,0,18.366,16.747Z" transform="translate(-16.031 -14.995)" fill="#0865bb"/><path d="M17.2,16.712a.04.04,0,0,1-.024.032c-.019.019-.039.047-.031.067s.031.039.157.027a.157.157,0,0,0,.036-.051.428.428,0,0,0-.075-.051A.182.182,0,0,0,17.2,16.712Z" transform="translate(-16.187 -15)" fill="#0865bb"/><path d="M18.473,16.331a1.881,1.881,0,0,0-.276-.209l-.032.016-.214.1c-.011.008-.023.013-.035.02a.421.421,0,0,0,.236.126c.115.008.115.016.119.027h0l0,.013a1.941,1.941,0,0,1-.316.307.2.2,0,0,1,.091.067l.013.016A1.428,1.428,0,0,0,18.473,16.331Z" transform="translate(-16.082 -15.08)" fill="#d42b1e"/><path d="M17.957,16.656a.156.156,0,0,1-.051.024c-.016,0-.027.008-.027.016s0,.011.008.019a.154.154,0,0,0,.138.04.124.124,0,0,0,.036-.016l-.013-.016A.2.2,0,0,0,17.957,16.656Z" transform="translate(-16.087 -15.007)" fill="#0865bb"/><g transform="translate(0.041 0.299)"><path d="M16.684,15.517c0,.019-.027.035-.059.035s-.056-.016-.056-.035.028-.019.056-.035C16.7,15.445,16.688,15.493,16.684,15.517Z" transform="translate(-16.307 -15.468)" fill="#fdde19"/><path d="M16.392,15.716c-.019,0-.044-.016-.052-.043s.008-.043.028-.048.027,0,.047.028C16.474,15.716,16.42,15.716,16.392,15.716Z" transform="translate(-16.339 -15.447)" fill="#fdde19"/></g><path d="M16.679,15.887a1.039,1.039,0,0,0,.2-.222.682.682,0,0,0,.094-.158c.011-.023.064.04.064.04a1.429,1.429,0,0,1-.107.166,1.322,1.322,0,0,1-.182.2l-.032.178-.043-.059c-.008-.008-.067,0-.067,0a.337.337,0,0,0,.043-.1A.107.107,0,0,1,16.679,15.887Z" transform="translate(-16.261 -15.165)" fill="#0865bb"/><g transform="translate(0 1.862)"><path d="M18.672,17.169a.33.33,0,0,0-.2-.051l.023.011a.328.328,0,0,1,.107.134.124.124,0,0,1,.059.107.113.113,0,0,1-.016.048h0a.244.244,0,0,1-.193.083,1.139,1.139,0,0,1-.249-.044c-.043-.011-.083-.019-.1-.023a.486.486,0,0,0-.268.074c-.011.008-.016.016-.016.02a.331.331,0,0,0,.185.047.088.088,0,0,0,.08-.019.09.09,0,0,1,.059-.027.669.669,0,0,1,.232.024,1.46,1.46,0,0,0,.178.023.22.22,0,0,0,.094-.023.337.337,0,0,0,.13-.126C18.815,17.346,18.778,17.252,18.672,17.169Z" transform="translate(-16.096 -16.806)" fill="#d42b1e"/><path d="M16.566,17.078a.063.063,0,0,0,.04-.043.065.065,0,0,1-.013-.016.705.705,0,0,0-.067-.15l-.011-.008,0,.008a.25.25,0,0,0,0,.056.62.62,0,0,0,.016.09c0,.016.019.044.016.064Z" transform="translate(-16.274 -16.841)" fill="#0865bb"/><path d="M18.9,17.982c-.032-.028-.075-.064-.075-.111a.33.33,0,0,1,0-.051,1.887,1.887,0,0,0,.008-.221.177.177,0,0,1-.086.024c-.044,0-.111-.016-.182-.028a.969.969,0,0,0-.225-.023.079.079,0,0,0-.048.023.1.1,0,0,1-.078.028H18.2c-.051,0-.193-.02-.208-.072,0-.008,0-.027.023-.043a.532.532,0,0,1,.284-.078.886.886,0,0,1,.107.024,1.2,1.2,0,0,0,.244.043.219.219,0,0,0,.169-.072.549.549,0,0,0-.035-.13h0a.258.258,0,0,0-.1-.123.186.186,0,0,0-.064-.032,1.576,1.576,0,0,0-.687.028,1.554,1.554,0,0,1-.216.031c-.04,0-.1.008-.163.013h-.011a3.349,3.349,0,0,1-.34.019c-.067,0-.185,0-.2-.091a.037.037,0,0,1,0-.027v0c.016-.028.078-.091.059-.115s-.048,0-.063,0a.3.3,0,0,0-.083.035.03.03,0,0,1-.02.008s-.007-.008-.011-.019a.069.069,0,0,1-.048,0,.048.048,0,0,1-.024-.02h0L16.8,17a.114.114,0,0,0-.083-.019c-.016.011-.032.019-.043.027s-.032.024-.043.016a.063.063,0,0,1-.04.043h-.019l0,.008-.008.008a.322.322,0,0,0-.063.067.574.574,0,0,1-.131.11c-.011.011-.027.019-.035.027-.032.024-.051.043,0,.115a.131.131,0,0,0,.1.051.57.57,0,0,1,.131.043.551.551,0,0,0,.1.032.234.234,0,0,1,.189.169.811.811,0,0,0,.075.126c.032.04.04.056,0,.126a.363.363,0,0,1-.072.088c-.035.032-.055.043-.011.118a2.962,2.962,0,0,1,.158.311.164.164,0,0,1,.063-.07.121.121,0,0,1,.056-.024,1.034,1.034,0,0,1-.118-.222c0-.008,0-.027.015-.055a.367.367,0,0,1,.265-.1c-.027-.107-.059-.213-.059-.213s0-.016.008-.016a.01.01,0,0,1,.016.008s.059.2.091.335a.934.934,0,0,1-.028.43.51.51,0,0,1,.064.027.3.3,0,0,1,.075.051.19.19,0,0,0,.043-.142,1.184,1.184,0,0,1,.032-.43,2.032,2.032,0,0,0,.07-.272.01.01,0,0,1,.016-.008l.008.011a2.017,2.017,0,0,1-.051.217L17.7,18a.976.976,0,0,0,.407-.019.156.156,0,0,0,.051-.024c.083-.039.153-.075.213-.1l.017-.007c-.076-.048-.135-.08-.135-.08l0-.016a.009.009,0,0,1,.016,0,1.558,1.558,0,0,1,.153.091,1.419,1.419,0,0,1,.3.217.178.178,0,0,1,.051.086.67.67,0,0,1-.13.426.468.468,0,0,1,.067.016.335.335,0,0,1,.094.039,1.168,1.168,0,0,0,.088-.418v-.031a.383.383,0,0,1,.031-.088c.016-.027.032-.059.025-.075Z" transform="translate(-16.302 -16.826)" fill="#d42b1e"/><path d="M16.924,18.3c.007.019.015.035.023.056s.02.035.036.035.043-.019.063-.051a.107.107,0,0,0,.019-.1l-.007-.016c0-.008-.013-.011-.016-.019a.121.121,0,0,0-.056.024A.164.164,0,0,0,16.924,18.3Z" transform="translate(-16.217 -16.658)" fill="#0865bb"/><path d="M16.777,17.037a.069.069,0,0,0,.048,0,.659.659,0,0,1-.008-.115s-.011-.1-.024-.075c-.032.043-.019.11-.032.158l-.008.011A.048.048,0,0,0,16.777,17.037Z" transform="translate(-16.241 -16.844)" fill="#0865bb"/><path d="M18.366,18.385a.147.147,0,0,1-.048.027c-.008,0-.035.008-.031.024,0,.032.074.067.169.059.024,0,.047-.019.07-.056a.335.335,0,0,0-.094-.039A.468.468,0,0,0,18.366,18.385Z" transform="translate(-16.031 -16.633)" fill="#0865bb"/><path d="M17.2,18.35a.053.053,0,0,1-.024.035c-.019.02-.039.043-.031.064s.031.039.157.032a.341.341,0,0,0,.036-.052.3.3,0,0,0-.075-.051A.51.51,0,0,0,17.2,18.35Z" transform="translate(-16.187 -16.638)" fill="#0865bb"/><path d="M18.473,17.969a1.686,1.686,0,0,0-.276-.206l-.032.013c-.059.027-.131.059-.214.1a.332.332,0,0,1-.035.016.436.436,0,0,0,.236.131c.115,0,.115.015.119.023v0l0,.011a2.066,2.066,0,0,1-.316.3.226.226,0,0,1,.091.067.07.07,0,0,0,.013.016A1.385,1.385,0,0,0,18.473,17.969Z" transform="translate(-16.082 -16.718)" fill="#d42b1e"/><path d="M17.957,18.294a.138.138,0,0,1-.051.028c-.016,0-.027.008-.027.011s0,.016.008.024a.154.154,0,0,0,.138.04.185.185,0,0,0,.036-.02.07.07,0,0,1-.013-.016A.226.226,0,0,0,17.957,18.294Z" transform="translate(-16.087 -16.645)" fill="#0865bb"/><g transform="translate(0.041 0.303)"><path d="M16.684,17.154c0,.019-.027.035-.059.035s-.056-.016-.056-.035.028-.019.056-.032C16.7,17.087,16.688,17.135,16.684,17.154Z" transform="translate(-16.307 -17.11)" fill="#fdde19"/><path d="M16.392,17.358a.059.059,0,0,1-.052-.048c-.007-.027.008-.039.028-.047s.027,0,.047.027C16.474,17.358,16.42,17.354,16.392,17.358Z" transform="translate(-16.339 -17.089)" fill="#fdde19"/></g><path d="M16.679,17.525a.937.937,0,0,0,.2-.222.676.676,0,0,0,.094-.157c.011-.024.064.039.064.039a1.806,1.806,0,0,1-.107.171,1.237,1.237,0,0,1-.182.2l-.032.177s-.039-.048-.043-.056-.067,0-.067,0a.369.369,0,0,0,.043-.1A.134.134,0,0,1,16.679,17.525Z" transform="translate(-16.261 -16.803)" fill="#0865bb"/></g></g><path d="M19.8,10.982H15.681a.027.027,0,0,0-.028.027v4.118a.027.027,0,0,0,.028.024H19.8a.023.023,0,0,0,.024-.024V11.009A.024.024,0,0,0,19.8,10.982ZM19.772,15.1H15.7V11.033h4.068Z" transform="translate(-10.537 -10.468)" fill="#72402c"/><path d="M15.75,15.032H11.63a.027.027,0,0,0-.027.027v2.774a1.375,1.375,0,0,0,.465,1.026,1.409,1.409,0,0,0,.466.272,1.384,1.384,0,0,0,.438.072H14.83a2.817,2.817,0,0,1,.454.059,2.719,2.719,0,0,1,.454.13l.013,0,.011,0a.034.034,0,0,0,.011-.024V15.059A.026.026,0,0,0,15.75,15.032Zm-.028,4.3a3.686,3.686,0,0,0-.426-.123h0a3.78,3.78,0,0,0-.458-.055,1.279,1.279,0,0,0-.134,0H12.972a1.248,1.248,0,0,1-.418-.07l-.008,0a1.225,1.225,0,0,1-.441-.252.043.043,0,0,1-.016-.016,1.311,1.311,0,0,1-.434-.974v-2.75h4.067Z" transform="translate(-11.09 -9.914)" fill="#72402c"/></g><g transform="translate(2.486 12.11)"><path d="M11.467,19.176l-.008.016c.024.011.04.019.044.031a.045.045,0,0,1,.008.028.283.283,0,0,1-.044.063l-.248.284-.032-.383a.367.367,0,0,1,0-.07c0-.008,0-.011.008-.016l.013-.008h.019a.091.091,0,0,1,.035,0l0-.016-.233-.075,0,.016a.067.067,0,0,1,.039.023.076.076,0,0,1,.02.028c0,.008,0,.024,0,.055l.051.56.016.008.363-.418a.314.314,0,0,1,.024-.027.089.089,0,0,1,.024-.019.082.082,0,0,1,.032-.008.038.038,0,0,1,.032,0l.008-.016Z" transform="translate(-11.034 -18.954)" fill="#72402c"/><path d="M11.617,19.214l0,.016.016.008a.08.08,0,0,1,.04.024l.008.011a.022.022,0,0,1,0,.016.051.051,0,0,1,0,.02.1.1,0,0,1-.008.031l-.11.375a.193.193,0,0,1-.032.064.087.087,0,0,1-.056.007l-.023-.007,0,.015.249.075,0-.019-.019,0a.085.085,0,0,1-.039-.024l-.009-.013s0-.008,0-.016a.049.049,0,0,1,0-.019.177.177,0,0,1,.009-.035l.109-.371a.181.181,0,0,1,.032-.064.062.062,0,0,1,.059,0l.02,0,0-.016Z" transform="translate(-10.978 -18.93)" fill="#72402c"/><path d="M12.217,19.965a.306.306,0,0,1-.051-.094l-.08-.2a.339.339,0,0,0,.072,0,.207.207,0,0,0,.055-.019.107.107,0,0,0,.035-.04.088.088,0,0,0,.025-.047.114.114,0,0,0,0-.048.094.094,0,0,0-.013-.048.139.139,0,0,0-.027-.039A.081.081,0,0,0,12.2,19.4a.439.439,0,0,0-.134-.051l-.209-.055-.008.015.024,0a.07.07,0,0,1,.047.032.127.127,0,0,1-.008.075l-.1.374c-.008.032-.016.056-.024.059a.059.059,0,0,1-.064.013l-.019,0,0,.016.249.064,0-.016-.02-.008a.071.071,0,0,1-.047-.027.127.127,0,0,1,.008-.075l.043-.166.011,0,.013,0,.015,0a.043.043,0,0,1,.024,0l.123.323.158.04,0-.016A.187.187,0,0,1,12.217,19.965Zm-.246-.343H11.96l-.011,0,.063-.246c.016,0,.027,0,.04,0a.131.131,0,0,1,.027.008.16.16,0,0,1,.051.019.287.287,0,0,1,.032.035.261.261,0,0,1,.016.048.2.2,0,0,1,0,.051.09.09,0,0,1-.023.048.1.1,0,0,1-.044.035.127.127,0,0,1-.059.013A.279.279,0,0,1,11.971,19.622Z" transform="translate(-10.943 -18.919)" fill="#72402c"/><path d="M12.314,19.412l-.027.139.015,0a.463.463,0,0,1,.024-.048.05.05,0,0,1,.028-.023.061.061,0,0,1,.039-.008.23.23,0,0,1,.048.008l.07.015-.1.447a.143.143,0,0,1-.024.063c-.011.013-.031.016-.059.008l-.019,0v.015l.249.06,0-.016-.024-.008a.074.074,0,0,1-.047-.028.139.139,0,0,1,0-.07l.1-.45.083.02a.1.1,0,0,1,.04.016.062.062,0,0,1,.032.023.105.105,0,0,1,.011.036.081.081,0,0,1,0,.047l.011,0,.028-.139Z" transform="translate(-10.863 -18.903)" fill="#72402c"/><path d="M13.208,19.6l0,.015a.122.122,0,0,1,.047.024.057.057,0,0,1,.013.032.5.5,0,0,1-.035.067l-.2.316-.088-.375a.174.174,0,0,1-.008-.07l0-.013.011-.011a.2.2,0,0,1,.02,0H13l0-.016-.244-.043v.016a.2.2,0,0,1,.04.016.061.061,0,0,1,.024.027.354.354,0,0,1,.015.056l.131.548.016,0,.3-.469.019-.032c.008-.008.011-.016.019-.019a.2.2,0,0,1,.028-.016c.011,0,.023,0,.035,0l0-.011Z" transform="translate(-10.798 -18.889)" fill="#72402c"/><path d="M13.679,19.994c-.016-.016-.032-.032-.051-.048s-.04-.031-.063-.047-.04-.028-.056-.04a.36.36,0,0,1-.043-.035.141.141,0,0,1-.028-.04.088.088,0,0,1,0-.043.052.052,0,0,1,.011-.032.093.093,0,0,1,.028-.027.068.068,0,0,1,.035-.016.073.073,0,0,1,.044,0,.079.079,0,0,1,.034.008.306.306,0,0,1,.04.024.089.089,0,0,1,.027.027.067.067,0,0,1,.024.035.225.225,0,0,1,.016.1h.016l.027-.2-.016,0a.148.148,0,0,1-.015.027.029.029,0,0,1-.02,0,.068.068,0,0,1-.035-.016.235.235,0,0,0-.094-.035.207.207,0,0,0-.075,0,.4.4,0,0,0-.059.027.164.164,0,0,0-.044.048.149.149,0,0,0-.019.055.146.146,0,0,0,0,.072.251.251,0,0,0,.032.051.4.4,0,0,0,.05.047l.059.048.052.04a.48.48,0,0,1,.043.035.164.164,0,0,1,.027.04.085.085,0,0,1,0,.047.1.1,0,0,1-.013.04.064.064,0,0,1-.027.024.123.123,0,0,1-.039.019.2.2,0,0,1-.052,0l-.048-.011c-.011-.008-.027-.011-.039-.019s-.019-.02-.032-.028a.136.136,0,0,1-.019-.035.3.3,0,0,1-.013-.043.282.282,0,0,1,0-.056l-.016,0-.032.2.019,0a.067.067,0,0,1,.013-.028.018.018,0,0,1,.019,0h0l.015.008a.039.039,0,0,1,.02.008l.019.011a.125.125,0,0,1,.027.013l.02.008a.158.158,0,0,1,.019,0c.008,0,.016,0,.027,0a.188.188,0,0,0,.08,0,.214.214,0,0,0,.063-.027.128.128,0,0,0,.048-.048.149.149,0,0,0,.019-.063.185.185,0,0,0,0-.067A.222.222,0,0,0,13.679,19.994Z" transform="translate(-10.724 -18.873)" fill="#72402c"/><path d="M14.565,19.744l-.173-.016v.02a.081.081,0,0,1,.047.019.036.036,0,0,1,.013.027.243.243,0,0,1-.027.067l-.169.335-.123-.358a.235.235,0,0,1-.016-.075l0-.013.008-.011c.009,0,.016,0,.024-.008s.019,0,.035,0v-.011l-.244-.019v.016a.28.28,0,0,1,.04.011.05.05,0,0,1,.027.024.43.43,0,0,1,.019.051l.182.532.019,0,.249-.5a.169.169,0,0,0,.019-.032.127.127,0,0,1,.02-.024c.008,0,.016-.011.024-.016a.3.3,0,0,0,.031-.008h0l0-.016Z" transform="translate(-10.636 -18.864)" fill="#72402c"/><path d="M14.94,19.754v.016h.02a.072.072,0,0,1,.051.019.122.122,0,0,1,.008.072l-.008.347-.356-.465-.153,0H14.49v.016H14.5a.054.054,0,0,1,.032.008l.024.008.02.011.015.016s.013.016.02.024l-.013.418c0,.035,0,.059-.011.064a.065.065,0,0,1-.056.023h-.024v.016l.209.008V20.33H14.7a.068.068,0,0,1-.051-.019.114.114,0,0,1-.013-.067l.013-.372.383.5h.015l.02-.509c0-.032,0-.056.008-.064a.064.064,0,0,1,.056-.023l.023,0v-.019Z" transform="translate(-10.561 -18.858)" fill="#72402c"/><path d="M15.332,20.34a.076.076,0,0,1-.04-.011l-.011-.008a.018.018,0,0,1-.008-.016s0-.011,0-.019V20.25l0-.391a.133.133,0,0,1,.011-.067.075.075,0,0,1,.056-.019h.019v-.02l-.257,0v.016h.02a.088.088,0,0,1,.043.011l.011.008.008.011c0,.008,0,.016,0,.024v.423a.194.194,0,0,1-.008.067.069.069,0,0,1-.056.023H15.1v.016h.256V20.34Z" transform="translate(-10.479 -18.856)" fill="#72402c"/><path d="M15.856,19.738l-.5.02.008.142.016,0a.319.319,0,0,1,.011-.051.082.082,0,0,1,.056-.048.181.181,0,0,1,.047-.008h.072l.016.458c0,.035,0,.056-.008.064a.051.051,0,0,1-.051.027H15.5v.016l.257-.008V20.33h-.024a.068.068,0,0,1-.051-.016c-.013-.011-.016-.032-.016-.07l-.016-.458.086,0a.147.147,0,0,1,.044,0,.078.078,0,0,1,.031.019.055.055,0,0,1,.025.028.173.173,0,0,1,.015.047h.008Z" transform="translate(-10.443 -18.858)" fill="#72402c"/><path d="M16.4,20.286a.2.2,0,0,1-.028-.016.073.073,0,0,1-.024-.027c-.008-.011-.015-.027-.027-.048l-.244-.484-.016,0-.174.5c-.008.024-.016.043-.023.059a.069.069,0,0,1-.024.032.089.089,0,0,1-.043.024v.016l.189-.016,0-.016a.116.116,0,0,1-.036,0c-.008,0-.015,0-.019,0l-.011-.011,0-.013a.2.2,0,0,1,.013-.055l.031-.1.233-.019.043.083a.1.1,0,0,1,.016.04.05.05,0,0,1,.008.023v.016l-.011.013-.016.008c-.008,0-.02,0-.032.008v.011l.236-.016v-.016Zm-.434-.185.091-.252.118.236Z" transform="translate(-10.383 -18.862)" fill="#72402c"/><path d="M16.928,19.634l-.442.059v.016l.024,0a.074.074,0,0,1,.04.008l.016.008.008.007c0,.008,0,.016,0,.024s0,.02.008.036l.048.386a.129.129,0,0,1,0,.067.074.074,0,0,1-.052.027l-.023,0,0,.016.257-.031,0-.016h-.019a.085.085,0,0,1-.043,0l-.013-.008-.008-.011-.008-.019c0-.013,0-.024,0-.036l-.024-.189.107-.013a.078.078,0,0,1,.04,0,.05.05,0,0,1,.024.008c.007.008.011.016.019.027s0,.024.008.036h.016l-.028-.2h-.015a.129.129,0,0,1,0,.043.05.05,0,0,1-.008.024.089.089,0,0,1-.024.019c-.008,0-.019,0-.032,0l-.11.015-.027-.232.13-.02c.02,0,.036,0,.052,0a.1.1,0,0,1,.039.011.062.062,0,0,1,.028.028.084.084,0,0,1,.027.047l.011,0Z" transform="translate(-10.289 -18.872)" fill="#72402c"/><path d="M17.559,19.833a.3.3,0,0,0-.122-.206.267.267,0,0,0-.214-.055.308.308,0,0,0-.189.11.3.3,0,0,0-.056.249.342.342,0,0,0,.118.213.292.292,0,0,0,.222.051.278.278,0,0,0,.193-.122A.321.321,0,0,0,17.559,19.833Zm-.09.15a.3.3,0,0,1-.028.094.263.263,0,0,1-.051.059.247.247,0,0,1-.075.027.129.129,0,0,1-.082-.008.136.136,0,0,1-.072-.047.3.3,0,0,1-.051-.083.484.484,0,0,1-.032-.115.586.586,0,0,1-.008-.114.336.336,0,0,1,.024-.1.151.151,0,0,1,.051-.063.138.138,0,0,1,.075-.032.156.156,0,0,1,.086,0,.169.169,0,0,1,.072.044.361.361,0,0,1,.051.086.684.684,0,0,1,.031.118A.445.445,0,0,1,17.47,19.983Z" transform="translate(-10.222 -18.881)" fill="#72402c"/><path d="M17.742,19.813h.016l.02-.008.26.233L18.192,20v-.016a.258.258,0,0,1-.082,0,.327.327,0,0,1-.092-.063l-.157-.142a.624.624,0,0,0,.059-.035.475.475,0,0,0,.039-.048.113.113,0,0,0,.016-.048.1.1,0,0,0,0-.051.131.131,0,0,0-.019-.048.2.2,0,0,0-.032-.035c-.011-.008-.027-.016-.04-.024a.222.222,0,0,0-.047-.008.422.422,0,0,0-.142.016l-.214.044,0,.015.019,0a.077.077,0,0,1,.056.008.125.125,0,0,1,.027.067l.083.379a.145.145,0,0,1,0,.067.058.058,0,0,1-.048.035l-.024,0,0,.016.253-.051,0-.016-.023,0a.055.055,0,0,1-.052-.008.125.125,0,0,1-.027-.067l-.04-.169a.026.026,0,0,1,.016,0Zm-.031-.019-.052-.249.036-.011a.078.078,0,0,1,.027-.008.137.137,0,0,1,.056,0,.162.162,0,0,1,.043.016.147.147,0,0,1,.035.035.184.184,0,0,1,.019.051.1.1,0,0,1,0,.052.105.105,0,0,1-.023.047.247.247,0,0,1-.044.04.224.224,0,0,1-.075.024l-.008,0Z" transform="translate(-10.152 -18.893)" fill="#72402c"/><path d="M18.451,19.926a.091.091,0,0,1-.056,0,.153.153,0,0,1-.027-.067l-.115-.441.083-.024a.155.155,0,0,1,.043,0,.137.137,0,0,1,.04.008.131.131,0,0,1,.027.028.163.163,0,0,1,.024.039h.008l-.032-.138-.485.122.032.139.019,0a.146.146,0,0,1,0-.055.1.1,0,0,1,.013-.035.258.258,0,0,1,.032-.024.267.267,0,0,1,.043-.016l.07-.019.115.449a.153.153,0,0,1,.008.064.059.059,0,0,1-.048.035l-.019.008,0,.016.244-.064,0-.016Z" transform="translate(-10.087 -18.915)" fill="#72402c"/><path d="M18.836,19.809l-.024.008a.074.074,0,0,1-.039,0,.021.021,0,0,1-.016-.008l-.013-.008a.048.048,0,0,1-.007-.02.149.149,0,0,1-.013-.035l-.107-.371a.118.118,0,0,1-.007-.07.065.065,0,0,1,.043-.036l.023,0-.007-.016-.246.067,0,.019.019-.008a.1.1,0,0,1,.044,0l.011,0,.011.011.008.02a.172.172,0,0,1,.013.035l.106.375a.09.09,0,0,1,.009.067.064.064,0,0,1-.044.035l-.019.008,0,.016.249-.075Z" transform="translate(-10.023 -18.925)" fill="#72402c"/><path d="M19.329,19.351a.312.312,0,0,0-.153-.185.268.268,0,0,0-.221-.019.276.276,0,0,0-.166.138.3.3,0,0,0-.02.252.323.323,0,0,0,.15.19.261.261,0,0,0,.225.019.278.278,0,0,0,.174-.15A.322.322,0,0,0,19.329,19.351Zm-.083.26a.132.132,0,0,1-.043.067.326.326,0,0,1-.067.04.174.174,0,0,1-.086,0,.209.209,0,0,1-.075-.04.251.251,0,0,1-.064-.075.384.384,0,0,1-.047-.107.378.378,0,0,1-.024-.11.222.222,0,0,1,.008-.094.145.145,0,0,1,.04-.075.22.22,0,0,1,.07-.043.21.21,0,0,1,.086-.008.216.216,0,0,1,.08.039.212.212,0,0,1,.059.072.813.813,0,0,1,.051.114.393.393,0,0,1,.024.123A.182.182,0,0,1,19.246,19.612Z" transform="translate(-9.979 -18.941)" fill="#72402c"/><path d="M19.511,19.312l.015-.008.02-.008.288.193.15-.059,0-.016a.171.171,0,0,1-.083.008.411.411,0,0,1-.1-.051l-.177-.118a.241.241,0,0,0,.055-.043.151.151,0,0,0,.028-.048.131.131,0,0,0,.011-.051.119.119,0,0,0-.011-.051.112.112,0,0,0-.024-.044.1.1,0,0,0-.035-.027.142.142,0,0,0-.044-.019.162.162,0,0,0-.047,0,.613.613,0,0,0-.139.04l-.2.075,0,.016.019-.008a.068.068,0,0,1,.056,0c.011,0,.023.027.04.059l.133.367a.2.2,0,0,1,.016.063.063.063,0,0,1-.043.043l-.019.008,0,.016.241-.091,0-.015-.023.008a.078.078,0,0,1-.056,0c-.011-.008-.019-.028-.035-.064l-.064-.161a.03.03,0,0,1,.016,0Zm-.036-.02-.086-.232.035-.024.028-.013a.21.21,0,0,1,.051-.008.235.235,0,0,1,.047.008.088.088,0,0,1,.035.032.1.1,0,0,1,.028.043.14.14,0,0,1,.011.051.116.116,0,0,1-.019.052.093.093,0,0,1-.04.047.3.3,0,0,1-.067.035l-.007,0C19.482,19.288,19.479,19.291,19.474,19.291Z" transform="translate(-9.915 -18.964)" fill="#72402c"/></g></g></g></g></svg>