<svg xmlns="http://www.w3.org/2000/svg" width="50.425" height="32.628" viewBox="0 0 50.425 32.628"><g transform="translate(0 0)"><path d="M19.138,154.611c1.122-4.768,1.955-9.421,1.955-9.421a3.226,3.226,0,0,0-.419-2.582c-.837-1.047-3.419-.7-3.419-.7s-4.01.048-8.1.54c-3.64.439-7.354,1.161-8.723,1.439A10.826,10.826,0,0,0,0,146.9c0,7.183,7.179,13.278,17.145,15.455.523-1.9,1.309-4.84,1.994-7.745Z" transform="translate(0 -130.586)" fill="#cacee6" fill-rule="evenodd"/><path d="M52.854,21.024c-.048-5.777.114-11.165.114-11.165A1.289,1.289,0,0,1,53.3,8.651a3.7,3.7,0,0,1,1.761-.4s4.777.134,10.13.821c3.908.5,8.135,1.308,10.043,1.69C71.726,4.487,62.434,0,51.521,0,40.564,0,31.245,4.523,27.768,10.838c1.673-.337,6.222-1.224,10.411-1.762,5.353-.687,10.129-.821,10.129-.821a3.7,3.7,0,0,1,1.762.4A1.289,1.289,0,0,1,50.4,9.86s.162,5.388.114,11.165c-.038,4.428-.175,9.072-.258,11.582q.627.02,1.262.021c.535,0,1.064-.014,1.591-.036-.083-2.515-.218-7.149-.256-11.568Z" transform="translate(-26.308 0)" fill="#cacee6" fill-rule="evenodd"/><path d="M574.238,214.938c-4.087-.492-8.1-.54-8.1-.54s-2.581-.348-3.42.7a3.225,3.225,0,0,0-.417,2.582s.832,4.654,1.954,9.421c.676,2.87,1.452,5.773,1.975,7.676,9.805-2.234,16.834-8.28,16.834-15.387a10.846,10.846,0,0,0-.455-3.081c-1.581-.316-5.01-.963-8.374-1.369Z" transform="translate(-532.642 -203.073)" fill="#cacee6" fill-rule="evenodd"/></g></svg>