<svg xmlns="http://www.w3.org/2000/svg" width="35.149" height="35.153" viewBox="0 0 35.149 35.153"><g transform="translate(0 0)"><path d="M32.33,17.455A17.6,17.6,0,0,0,20.613.885V34.03A17.608,17.608,0,0,0,32.33,17.455Z" transform="translate(2.818 0.121)" fill="#c50d2f"/><path d="M16.168,35.153a17.55,17.55,0,0,0,5.854-1V1.006a17.553,17.553,0,0,0-11.714,0V34.151A17.564,17.564,0,0,0,16.168,35.153Z" transform="translate(1.409 0)" fill="#fdca16"/><path d="M11.717.885a17.578,17.578,0,0,0,0,33.145Z" transform="translate(0 0.121)" fill="#022663"/></g></svg>