<svg xmlns="http://www.w3.org/2000/svg" width="35.156" height="35.149" viewBox="0 0 35.156 35.149"><g transform="translate(0 0)"><path d="M33.507,21.647a17.575,17.575,0,0,1-32.212,0Z" transform="translate(0.177 2.96)" fill="#006506"/><path d="M34.251,20.1a16.975,16.975,0,0,1-.664,1.755H1.375A16.713,16.713,0,0,1,.712,20.1Z" transform="translate(0.097 2.749)" fill="#fff"/><path d="M35.157,16.1a17.565,17.565,0,0,1-.808,5.276H.809a17.595,17.595,0,0,1,0-10.55H34.348A17.541,17.541,0,0,1,35.157,16.1Z" transform="translate(0 1.48)" fill="#ba0201"/><path d="M34.251,11.033H.712a16.358,16.358,0,0,1,.663-1.756H33.587A16.609,16.609,0,0,1,34.251,11.033Z" transform="translate(0.097 1.268)" fill="#fff"/><path d="M33.507,10.545H1.295a17.572,17.572,0,0,1,32.212,0Z" transform="translate(0.177)"/><g transform="translate(10.366 5.07)"><path d="M22.656,27.416,12.371,9.548a.731.731,0,0,0,.075-.829c-.2-.347-2.935-4.442-3.283-4.241s1.823,4.616,2.02,4.967a.732.732,0,0,0,.758.351L22.227,27.661Z" transform="translate(-9.118 -4.459)" fill="#fff"/><path d="M20.7,24l-.394-.687-.62-1.069-2.6-4.517-.458-.8,0-.013-.008-.008-.273-.477-.008-.008,0-.011-.391-.675-2.328-4.043-.989-1.72L12.6,9.936l-.216-.382a.748.748,0,0,0,.07-.841C12.35,8.532,11.6,7.4,10.87,6.389,9.887,5.028,9.311,4.382,9.161,4.468s.115.912.8,2.442c.509,1.145,1.109,2.355,1.215,2.541a.748.748,0,0,0,.762.359l.072.126.359.624.651,1.132,2.571,4.462.446.774,0,.008v0l0,.008.276.477,0,.008.008.011.41.71,2.347,4.088L20.05,23.9l.056.094,2.114,3.674.008.007.446-.256Zm-4.364-6.584,0-.013-.276-.473,0-.013-.008-.011-.446-.77-2.552-4.442-.667-1.156-.347-.6-.083-.142,0-.008h0a.713.713,0,0,1-.746-.347c-.107-.182-.706-1.392-1.22-2.537-.888-1.992-.888-2.367-.808-2.414s.406.142,1.685,1.914c.73,1.014,1.475,2.142,1.582,2.323a.722.722,0,0,1-.072.821l-.008,0,.222.386.039.059.975,1.7,2.335,4.059.391.679.008.013,0,.008.276.477.008.011,0,.008.462.8v0l2.584,4.493.631,1.1.383.658,1.965,3.417-.407.236L20.133,24l-.07-.118-.943-1.637-2.359-4.1-.415-.723Z" transform="translate(-9.119 -4.46)"/><g transform="translate(0.874)"><path d="M23.392,4.478c-.348-.2-3.082,3.894-3.279,4.241a.72.72,0,0,0,.075.829L9.9,27.416l.43.246L20.614,9.8a.732.732,0,0,0,.758-.351C21.573,9.094,23.739,4.679,23.392,4.478Z" transform="translate(-9.886 -4.459)" fill="#fff"/><path d="M19.968,9.936l-.031.048-.983,1.708-2.331,4.051-.391.679,0,.008-.008.013,0,.008.008-.008.008-.013.391-.682,2.336-4.056.978-1.7.035-.059ZM23.4,4.468c-.155-.086-.73.56-1.713,1.921-.73,1.014-1.479,2.143-1.581,2.323a.743.743,0,0,0,.067.841l-.217.382-.024.036-.99,1.72-2.328,4.043-.386.675-.008.008-.008.011-.273.474,0,.011,0,.013-.462.792v0l-2.6,4.517-.62,1.069L11.857,24,9.893,27.409l0,.013.446.256L12.452,24l.056-.094.959-1.661,2.351-4.088.41-.71,0-.011.008-.013.273-.473.008-.011,0-.008.446-.774,2.569-4.462.65-1.132.359-.624.072-.126a.748.748,0,0,0,.762-.359c.106-.185.706-1.4,1.219-2.541a9.156,9.156,0,0,0,.84-2.323A.141.141,0,0,0,23.4,4.468ZM20.62,9.785h-.008l-.088.15-.347.6-.663,1.156-2.556,4.439v0l-.446.773,0,.008-.008.013-.272.473-.008.013,0,.011-.414.718-2.36,4.1L12.5,23.879,12.429,24l-2.1,3.653-.41-.236L11.881,24l.383-.663.631-1.092,2.588-4.5.457-.8.008-.011,0-.008.272-.477.008-.008.008-.013.391-.682,2.336-4.056.978-1.7.035-.059.217-.379,0-.008,0,0a.724.724,0,0,1-.075-.821c.107-.182.853-1.31,1.582-2.323,1.279-1.772,1.6-1.961,1.685-1.914s.08.423-.808,2.414c-.509,1.145-1.113,2.355-1.215,2.537A.713.713,0,0,1,20.62,9.785Zm-.651.15-.031.048-.983,1.708-2.331,4.051-.391.679,0,.008-.008.013,0,.008.008-.008.008-.013.391-.682,2.336-4.056.978-1.7.035-.059Z" transform="translate(-9.888 -4.46)"/></g><path d="M20.146,10.894c-.966-2.635-2.48-4.758-4.177-4.758s-3.216,2.123-4.182,4.758a17.709,17.709,0,0,1,1.1,5.827,17.729,17.729,0,0,1-1.1,5.831c.966,2.636,2.481,4.755,4.182,4.755s3.211-2.119,4.177-4.755a17.817,17.817,0,0,1-1.1-5.831A17.8,17.8,0,0,1,20.146,10.894Z" transform="translate(-8.754 -4.231)" fill="#ba0201"/><path d="M19.273,10.322a17.8,17.8,0,0,0-1.1,5.827,17.817,17.817,0,0,0,1.1,5.831,17.708,17.708,0,0,0,1.1-5.831A17.688,17.688,0,0,0,19.273,10.322Z" transform="translate(-7.881 -3.659)"/><path d="M11.919,10.322a17.682,17.682,0,0,0-1.1,5.827,17.7,17.7,0,0,0,1.1,5.831,17.729,17.729,0,0,0,1.1-5.831A17.709,17.709,0,0,0,11.919,10.322Z" transform="translate(-8.887 -3.659)"/><path d="M16.5,15.609c0,.742-.414,1.341-.923,1.341s-.928-.6-.928-1.341.415-1.337.928-1.337S16.5,14.871,16.5,15.609Z" transform="translate(-8.363 -3.119)" fill="#fff"/><path d="M14.46,10.721a9.97,9.97,0,0,0,.9,4.553V6.164A10.005,10.005,0,0,0,14.46,10.721Z" transform="translate(-8.389 -4.227)" fill="#fff"/><path d="M16.578,10.721a9.968,9.968,0,0,1-.9,4.553V6.164A10,10,0,0,1,16.578,10.721Z" transform="translate(-8.223 -4.227)" fill="#fff"/><path d="M16.578,21.275a10,10,0,0,0-.9-4.556v9.11A9.977,9.977,0,0,0,16.578,21.275Z" transform="translate(-8.223 -2.784)" fill="#fff"/><path d="M14.46,21.275a10,10,0,0,1,.9-4.556v9.11A9.979,9.979,0,0,1,14.46,21.275Z" transform="translate(-8.389 -2.784)" fill="#fff"/></g></g></svg>