<svg xmlns="http://www.w3.org/2000/svg" width="35.153" height="35.153" viewBox="0 0 35.153 35.153"><g transform="translate(0 0)"><path d="M35.153,17.576a17.476,17.476,0,0,1-2.309,8.7,17.565,17.565,0,0,1-30.537,0A17.4,17.4,0,0,1,.966,23.324,17.661,17.661,0,0,1,0,17.576c0-.051,0-.1,0-.15a17.574,17.574,0,0,1,35.146,0C35.153,17.474,35.153,17.525,35.153,17.576Z" fill="#053891"/><g transform="translate(0 17.426)"><path d="M35.153,15.48a17.215,17.215,0,0,1-.225,2.8H.225A17.215,17.215,0,0,1,0,15.48c0-.051,0-.1,0-.15H35.15C35.153,15.378,35.153,15.429,35.153,15.48Z" transform="translate(0 -15.33)" fill="#fff"/><path d="M34.9,17.923a17.2,17.2,0,0,1-.742,2.951H.939A17.2,17.2,0,0,1,.2,17.923Z" transform="translate(0.027 -14.975)" fill="#ce2026"/><path d="M34.07,20.519a17.224,17.224,0,0,1-1.341,2.948H2.191A17.4,17.4,0,0,1,.85,20.519Z" transform="translate(0.116 -14.621)" fill="#fff"/></g><g transform="translate(4.446 11.493)"><g transform="translate(0 6.092)"><path d="M5.533,15.469l.383,1.18H7.159l-1.006.726.387,1.18-1.006-.726-1,.726.383-1.18-1-.726H5.15Z" transform="translate(-3.912 -15.469)" fill="#f6d023"/><path d="M20.325,15.469l.387,1.18h1.239l-1,.726.383,1.18-1.006-.726-1,.726.383-1.18-1-.726h1.238Z" transform="translate(-1.889 -15.469)" fill="#f6d023"/></g><g transform="translate(0 11.489)"><path d="M5.533,20.217l.383,1.18H7.159l-1.006.73.387,1.18-1.006-.73-1,.73.383-1.18-1-.73H5.15Z" transform="translate(-3.912 -20.217)" fill="#f6d023"/><path d="M20.325,20.217l.387,1.18h1.239l-1,.73.383,1.18-1.006-.73-1,.73.383-1.18-1-.73h1.238Z" transform="translate(-1.889 -20.217)" fill="#f6d023"/></g><g transform="translate(3.223 1.689)"><path d="M8.373,11.6l.383,1.18H9.994l-1,.726.383,1.18-1-.726-1.006.726.383-1.18-1-.726H7.986Z" transform="translate(-6.747 -11.596)" fill="#f6d023"/><path d="M17.49,11.6l.383,1.18h1.243l-1.006.726.383,1.18-1-.726-1,.726.382-1.18-1-.726h1.239Z" transform="translate(-5.5 -11.596)" fill="#f6d023"/></g><g transform="translate(3.223 15.923)"><path d="M8.373,24.118l.383,1.18H9.994l-1,.73.383,1.18-1-.73-1.006.73.383-1.18-1-.73H7.986Z" transform="translate(-6.747 -24.118)" fill="#f6d023"/><path d="M17.49,24.118l.383,1.18h1.243l-1.006.73.383,1.18-1-.73-1,.73.382-1.18-1-.73h1.239Z" transform="translate(-5.5 -24.118)" fill="#f6d023"/></g><g transform="translate(8.407)"><path d="M12.93,10.11l.382,1.18h1.243l-1,.73.383,1.18-1.006-.73-1,.73.383-1.18-1-.73h1.239Z" transform="translate(-11.308 -10.11)" fill="#f6d023"/><path d="M12.93,25.614l.382,1.18h1.243l-1,.73.383,1.18-1.006-.73-1,.73.383-1.18-1-.73h1.239Z" transform="translate(-11.308 -7.991)" fill="#f6d023"/></g></g></g></svg>