<svg xmlns="http://www.w3.org/2000/svg" width="35.153" height="35.153" viewBox="0 0 35.153 35.153"><g transform="translate(0 0)"><path d="M17.576,0V17.576H0A17.456,17.456,0,0,1,2.446,8.64,17.785,17.785,0,0,1,3.917,6.529a17.6,17.6,0,0,1,3.974-3.61q.645-.431,1.333-.8A17.5,17.5,0,0,1,17.576,0Z" fill="#042b7d"/><path d="M17.576,0V17.576H0A17.577,17.577,0,1,0,17.576,0Z" fill="#cd1225"/><g transform="translate(2.446 2.114)"><path d="M8.608,2.76l.462,1.42L7.858,3.3,6.647,4.18l.462-1.42-.126-.1q.645-.431,1.333-.8l0,.02H9.815Z" transform="translate(-1.537 -1.86)" fill="#fff"/><path d="M3.853,6.624l.462,1.421L3.1,7.165l-.95.69A17.785,17.785,0,0,1,3.623,5.744H5.06Z" transform="translate(-2.152 -1.329)" fill="#fff"/><path d="M12.776,3.821l.442,1.357h1.428l-1.156.84.442,1.361-1.156-.84-1.156.84.442-1.361-1.16-.84h1.432Z" transform="translate(-0.956 -1.592)" fill="#fff"/><path d="M8.01,10.7l.584,1.8h1.89L8.956,13.6l.584,1.8L8.01,14.291,6.483,15.4l.584-1.8L5.536,12.5h1.89Z" transform="translate(-1.689 -0.652)" fill="#fff"/><path d="M10.23,7.8l.292.907h.955l-.769.564.292.907-.77-.564-.773.564.3-.907-.773-.564h.955Z" transform="translate(-1.219 -1.048)" fill="#fff"/></g></g></svg>