<svg xmlns="http://www.w3.org/2000/svg" xmlns:xlink="http://www.w3.org/1999/xlink" width="50.425" height="62.695" viewBox="0 0 50.425 62.695"><defs><clipPath id="a"><rect width="50.425" height="62.695" fill="#cacee6"/></clipPath></defs><g clip-path="url(#a)"><path d="M7.19,18.879V5.534C3.514,5.393.135,4.906,0,.07.384.044.691.016,1,.005c.279-.01.558,0,.9,0,.041.3.08.537.1.772A2.348,2.348,0,0,0,3.947,3.138a12.66,12.66,0,0,0,2.742.318c4.092.057,8.194-.086,12.276.131,5.081.269,9.6,2.01,12.958,6.059a15.709,15.709,0,0,1,3.51,9.98c.062,2.74-.014,5.484.041,8.225a2.755,2.755,0,0,0,.552,1.523c1.128,1.46,2.338,2.856,3.729,4.531.034-.64.062-1,.071-1.352.059-2.382,0-4.774.2-7.145.231-2.752,1.576-3.979,4.359-4.148,1.845-.112,3.7-.062,5.549-.078a1.964,1.964,0,0,1,.391.072c.722,3.317-2.57,6.187-6.283,5.459V24.962c1.381-.32,3.061-.044,4.183-1.847-1.736.088-3.246.087-4.735.266-.988.119-1.375,1-1.476,1.876a38.686,38.686,0,0,0-.261,4.042q-.051,5.608.015,11.216a2.11,2.11,0,0,0,.616,1.339c1.128,1.084,2.342,2.077,3.515,3.114a4.564,4.564,0,0,1,1.571,3.5q.055,6.142.014,12.284c0,.277-.242.754-.444.8-1.971.416-3.957.759-6.068,1.147V51.089a3.556,3.556,0,0,0-.69-.109,7.9,7.9,0,0,1-6.472-2.733A5.4,5.4,0,0,0,28.851,46.3a36.424,36.424,0,0,1-4.2.03c0,1.176,0,2.266,0,3.355-.005,2.508-1.148,3.681-3.641,3.694-2.67.015-5.34-.027-8.009.019a.935.935,0,0,1-1.116-.922c-.284-1.6-.622-3.191-.963-4.91h7.272c0-1.3,0-2.5,0-3.694q0-.961,0-1.923c0-3.06.663-3.972,3.586-4.892-2.028-2.522-5.407-4.072-5.536-7.944h-6.1c0,.969.037,1.886-.022,2.8-.018.278-.254.728-.466.778-1.685.4-3.388.722-5.187,1.089-.032-.445-.074-.752-.074-1.059-.005-2.386-.017-4.771,0-7.157.024-2.99,1.43-4.384,4.4-4.392,2.065-.005,4.129,0,6.194,0H16.2V16.122a9.339,9.339,0,0,0-.781.954A3.536,3.536,0,0,1,11.852,18.9c-1.485-.1-2.982-.021-4.662-.021M42.93,60.285c.736-.119,1.292-.228,1.853-.294s.782-.315.777-.9c-.025-3.417-.008-6.835-.021-10.253a3.319,3.319,0,0,0-1.275-2.7c-.967-.785-1.832-1.706-2.848-2.415a3.459,3.459,0,0,1-1.619-3.5,6.91,6.91,0,0,0-1.909-5.475c-1.334-1.478-2.585-3.034-3.807-4.607a2.74,2.74,0,0,1-.552-1.522c-.053-2.847,0-5.7-.031-8.544-.066-7.023-4.17-12.18-10.971-13.95-3.156-.821-6.356-.625-9.553-.656-1.234-.012-2.467,0-3.724,0V16.914c.98,0,1.867-.036,2.75.011a1.712,1.712,0,0,0,1.694-.845c.643-.981,1.447-1.859,2.052-2.86a1.854,1.854,0,0,1,2.409-.8V23.169H16.947c-2.812,0-5.623-.015-8.435.01-1.5.014-2.025.458-2.092,1.959-.087,1.954-.037,3.914-.035,5.871,0,.084.111.167.163.24,1.641-.146,1.641-.146,1.641-1.715,0-.8,0-1.609,0-2.5H9.5c3.488,0,6.976.016,10.463-.008a4.2,4.2,0,0,0,4.5-3.45c.211-.744.3-1.523.448-2.318h1.8a8.534,8.534,0,0,1-1.5,5.322c-1.711,2.394-4.286,2.527-6.932,2.464,0,.262-.007.4,0,.534.1,1.594,1.294,2.506,2.3,3.471,4.829,4.629,9.708,9.206,14.564,13.807a7.147,7.147,0,0,0,5.482,2.159c2.293-.109,2.3-.025,2.3,2.258,0,2.948,0,5.9,0,9.012M22.694,44.37h6.85c-.4-.427-.624-.685-.869-.917-1.11-1.052-2.289-2.041-3.322-3.163a3.413,3.413,0,0,0-3.008-1.163c-1.625.12-2.137.575-2.145,2.243-.012,2.313,0,4.627-.007,6.94,0,.373-.043.746-.073,1.231H13.44c.1,1.881.1,1.881,1.8,1.881,1.85,0,3.7.005,5.55,0,1.561,0,1.887-.322,1.9-1.866.01-1.667,0-3.334,0-5.186" transform="translate(0 0)" fill="#cacee6"/></g></svg>