<svg xmlns="http://www.w3.org/2000/svg" width="35.169" height="35.169" viewBox="0 0 35.169 35.169"><g transform="translate(0)"><g transform="translate(0 0)"><path d="M35.169,17.584A17.577,17.577,0,0,1,4.825,29.673c-.249-.26-.49-.533-.722-.813a17.543,17.543,0,0,1,0-22.551c.232-.276.473-.549.722-.813A17.577,17.577,0,0,1,35.169,17.584Z" fill="#dc241f"/><g transform="translate(0 5.496)"><path d="M29,16.923,4.825,29.012c-.249-.26-.49-.533-.722-.813a17.543,17.543,0,0,1,0-22.551c.232-.276.473-.549.722-.813Z" transform="translate(0 -4.835)" fill="#ffc726"/><path d="M19.067,16.825,4.1,28.1A17.543,17.543,0,0,1,4.1,5.55Z" transform="translate(0 -4.737)"/><path d="M6.983,13.9l3.263-1.448L8.735,15.689l2.387,2.655-3.543-.438L5.792,21l-.683-3.507-3.492-.746,3.125-1.728-.371-3.551Z" transform="translate(0.221 -3.928)" fill="#fff"/></g></g></g></svg>