<svg xmlns="http://www.w3.org/2000/svg" width="35.153" height="35.153" viewBox="0 0 35.153 35.153"><g transform="translate(0.001)"><g transform="translate(-0.001 0)"><circle cx="17.576" cy="17.576" r="17.576" fill="#c52138"/><g transform="translate(1.712 1.712)"><circle cx="15.864" cy="15.864" r="15.864" fill="#042979"/></g><g transform="translate(11.813 8.182)"><path d="M20.363,17.094a7.96,7.96,0,0,1-.3.848H14.532c.118-.252.284-.557.5-.624A.594.594,0,0,1,15.2,17.3c.658,0,1.317.019,1.98.035a12.056,12.056,0,0,0,2.793-.169C20.084,17.145,20.221,17.125,20.363,17.094Z" transform="translate(-9.826 -5.845)" fill="#9b8333"/><path d="M14.943,17.84h5.536a10.358,10.358,0,0,1-.5,1.046,1.139,1.139,0,0,0-.477.157c-.217.134-.248.268-.492.367-.214.083-.284.024-.616.075s-.311.118-.706.214a2.149,2.149,0,0,1-.888.094c-.324-.048-.41-.166-.666-.118-.206.039-.427.169-.415.28s.276.182.383.206c.35.082.5-.02.979.035a.805.805,0,0,1,.307.067.679.679,0,0,1,.335.733c-.158.38-1.081.477-1.6.332a.979.979,0,0,0-.425-.051,3.561,3.561,0,0,0-.522.189c-.264.08-.323.02-.521.075a1.034,1.034,0,0,0-.469.316c-.228-.249-.462-.517-.695-.8A1.568,1.568,0,0,1,14.7,20.57a5.925,5.925,0,0,0,.9.177c.3.016.71-.013.726-.11s-.351-.217-.367-.222a2.962,2.962,0,0,0-.725-.078c-.115-.013-.04-.013-.734-.177a1.832,1.832,0,0,0-.75-.1,1.176,1.176,0,0,1-.288.044,1.057,1.057,0,0,1-.513-.241,1.178,1.178,0,0,0-.441-.158,11.019,11.019,0,0,1-.983-1.862Z" transform="translate(-10.237 -5.743)" fill="#0b8ce5"/><path d="M21.115,16.48a6.683,6.683,0,0,1-.272,1.855c-.142.031-.28.051-.391.075a12.056,12.056,0,0,1-2.793.169c-.663-.016-1.322-.032-1.98-.035a.594.594,0,0,0-.163.015c-.221.067-.386.372-.5.624h-3.42a7.167,7.167,0,0,1-.568-2.7c0-3.863,3.76-7.374,5.046-8.463C17.356,9.106,21.115,12.614,21.115,16.48Z" transform="translate(-10.306 -7.086)" fill="#92dafb"/><path d="M15.839,20.192c.016,0,.383.126.367.222s-.426.126-.726.11a5.925,5.925,0,0,1-.9-.177,1.568,1.568,0,0,0-1.207.481,14.094,14.094,0,0,1-.989-1.349,1.178,1.178,0,0,1,.441.158,1.057,1.057,0,0,0,.513.241,1.176,1.176,0,0,0,.288-.044,1.832,1.832,0,0,1,.75.1c.695.165.62.165.734.177A2.962,2.962,0,0,1,15.839,20.192Z" transform="translate(-10.119 -5.519)" fill="#fedd55"/><path d="M19.183,18.917a1.139,1.139,0,0,1,.477-.157,17.788,17.788,0,0,1-3.981,4.714,20.408,20.408,0,0,1-1.811-1.744,1.034,1.034,0,0,1,.469-.316c.2-.055.257,0,.521-.075a3.561,3.561,0,0,1,.522-.189.979.979,0,0,1,.425.051c.517.146,1.44.048,1.6-.332a.679.679,0,0,0-.335-.733.805.805,0,0,0-.307-.067c-.474-.056-.629.047-.979-.035-.107-.024-.375-.088-.383-.206s.209-.241.415-.28c.256-.048.342.07.666.118a2.149,2.149,0,0,0,.888-.094c.394-.1.379-.163.706-.214s.4.008.616-.075C18.935,19.185,18.966,19.051,19.183,18.917Z" transform="translate(-9.917 -5.617)" fill="#fedd55"/><path d="M16.155,7.2s5.764,4.324,5.764,9.394-5.764,9.394-5.764,9.394-5.763-4.324-5.763-9.394S16.155,7.2,16.155,7.2Zm4.774,11.249a6.683,6.683,0,0,0,.272-1.855c0-3.866-3.759-7.374-5.046-8.463-1.286,1.089-5.046,4.6-5.046,8.463a7.167,7.167,0,0,0,.568,2.7,11.019,11.019,0,0,0,.983,1.862,14.094,14.094,0,0,0,.989,1.349c.233.288.466.556.695.8a20.408,20.408,0,0,0,1.811,1.744,17.788,17.788,0,0,0,3.981-4.714,10.358,10.358,0,0,0,.5-1.046A7.96,7.96,0,0,0,20.929,18.447Z" transform="translate(-10.392 -7.198)" fill="#c52138"/><g transform="translate(2.327 10.652)"><rect width="0.256" height="0.359" transform="translate(1.373 2.127)"/><path d="M13.195,16.569s.134,1.7-.482,2.234h2.379A3.411,3.411,0,0,0,13.195,16.569Z" transform="translate(-12.402 -16.569)" fill="#fff"/><path d="M15.446,18.635a16,16,0,0,1-3.007,0h0s.075.244.821.343v.216l-.161-.011-.075-.008s.07.225.92.225.915-.225.915-.225l-.07.008-.166.011v-.216C15.371,18.879,15.446,18.635,15.446,18.635Zm-.95.567c-.367.016-.738.016-1.109,0v-.209c.158.016.34.024.557.024s.394-.008.552-.024Z" transform="translate(-12.439 -16.287)" fill="#8b4103"/></g><g transform="translate(2.126 2.221)"><path d="M15.368,11.8s-2.079-.907-3.106.647c.359-.107.359-.161.359-.161s-.063.225-.04.2.418-.26.418-.26l-.031.146.256-.2.024.15.34-.217.051.1.24-.19.08.155.327-.19-.016.134.584-.011s-1.5.351-1.566,1.483l.26-.319-.056.236.228-.327.091.07.134-.256s.1.224.107.185.213-.407.213-.407l.072.19.2-.351.04.134.181-.252.134.189.313-.15-.351.34.146.1-.268.228.083.024-.217.233.1.134-.139.209.158.082-.241.238.126.091.091.288.189-.3.083.126.04-.39.1.051-.055-.391.165.118-.07-.327h.134l.008-.244.126.142.319-.683.186-.067.153.083.063.327.123-.043V13.2l.1-.027v.248l.123-.051v.34l.126-.043v.371l.114-.064v.222l.193-.013.1.163.091-.276.153.063-.233-.268.1-.056-.252-.169.15-.118-.217-.134.134-.174-.221-.146.118-.086-.26-.186.091-.027-.233-.28.233.039-.04-.126s.327.313.327.276.011-.228.011-.228.225.236.225.228.088-.15.088-.15l.161.241.051-.091.123.19.063-.072a2.472,2.472,0,0,0,.166.3c.008-.02.115-.15.115-.15l.039.252.147-.07.083.224.1-.059.032.217.142-.07.1.256s.529-1.38-1.9-1.648c.236-.115.276-.1.276-.1l.114.072.072-.155.166.075s.039-.2.07-.2a1.893,1.893,0,0,1,.244.1l-.031-.115.272.1.059-.083.147.1s.082-.083.1-.083a2.208,2.208,0,0,1,.213.1s.013-.078.051-.063.193.083.193.083l.048-.051.153.07s-.6-.987-2.263-.367a.637.637,0,0,0-.017-.142l.166.032.056-.115h.158l-.083-.118.165-.019-.015-.1.307-.1-.083-.075.222-.052.016-.157.2.035.008-.182h.161s-.067-.1-.051-.114.359-.123.359-.123a1.666,1.666,0,0,0-1.874,1.017,4.053,4.053,0,0,0-.031-.6s-.147.153-.147.115.024-.4.024-.4l-.118.064-.067-.458s-.078.086-.07.07a2.341,2.341,0,0,0-.1-.284s-.086.115-.078.072a4.731,4.731,0,0,0-.072-.493l-.165.115-.04-.169-.1.031-.228-.225.083.225-.155.083.206.185-.177.056.2.118s-.115.19-.092.209l.249.174-.134.142.288.118-.189.244.189.059.139.217-.139-.019.281.441s-1.078-1.191-1.578-1.1c.244.214.244.3.244.3l-.142.039.228.1-.094.075.276.082-.131.083.289.142-.171.064.273.11-.088.043.289.115-.11.078.291.107-.086.048.115.126Z" transform="translate(-12.262 -9.152)" fill="#0a9325"/><g transform="translate(3.196 3.011)"><path d="M17.847,20.115c-.032-.02-.072-.048-.118-.083a5.139,5.139,0,0,1-.92-.837l0,0a4.74,4.74,0,0,1-.557-.782,5.213,5.213,0,0,1-.671-2.584V12.232a.185.185,0,0,0-.142-.181.182.182,0,0,0-.217.177v3.6a5.522,5.522,0,0,0,.723,2.762,5.135,5.135,0,0,0,.591.84l.016.016a2.2,2.2,0,0,1,.383.62.9.9,0,0,1,.051.153,1.338,1.338,0,0,0,.3.671.709.709,0,0,0,.5.142c.153-.008.394-.04.477-.19C18.4,20.588,18.029,20.245,17.847,20.115Z" transform="translate(-15.054 -11.767)" fill="#8b4103"/><path d="M15.485,11.978a.181.181,0,0,1-.182.181.179.179,0,0,1,0-.358A.18.18,0,0,1,15.485,11.978Z" transform="translate(-15.067 -11.801)" fill="#8b4103"/><path d="M15.453,12.271a.19.19,0,0,1-.19.19.189.189,0,0,1,0-.379A.192.192,0,0,1,15.453,12.271Z" transform="translate(-15.074 -11.763)" fill="#8b4103"/><circle cx="0.241" cy="0.241" r="0.241" transform="translate(0.315 0.118)" fill="#8b4103"/></g></g><g transform="translate(2.624 8.632)"><path d="M13.363,15.44v.2h.355a.323.323,0,0,1-.367.339.349.349,0,0,1-.3-.153.7.7,0,0,1,0-.675.351.351,0,0,1,.3-.15.364.364,0,0,1,.225.067.282.282,0,0,1,.111.193h.248a.481.481,0,0,0-.19-.355.641.641,0,0,0-.394-.115.609.609,0,0,0-.477.206.784.784,0,0,0,0,.982.621.621,0,0,0,.477.2c.714,0,.6-.741.6-.741Z" transform="translate(-12.7 -14.792)" fill="#fff"/><path d="M13.345,16.137a.57.57,0,0,1-.446-.189.735.735,0,0,1,0-.928.563.563,0,0,1,.446-.193.591.591,0,0,1,.367.107.417.417,0,0,1,.169.28h-.165a.312.312,0,0,0-.123-.181.414.414,0,0,0-.249-.08.392.392,0,0,0-.334.169.7.7,0,0,0,0,.723.388.388,0,0,0,.334.169h.008a.359.359,0,0,0,.4-.379V15.6H13.4v-.118h.514a.741.741,0,0,1-.131.493A.543.543,0,0,1,13.345,16.137Z" transform="translate(-12.695 -14.787)" fill="#bc0927"/><g transform="translate(1.558 0.013)"><path d="M14.935,15.581a.615.615,0,0,1-.04.248.276.276,0,0,1-.265.123.265.265,0,0,1-.26-.123.552.552,0,0,1-.043-.248V14.8h-.256v.853a.482.482,0,0,0,.149.382.709.709,0,0,0,.821,0,.479.479,0,0,0,.15-.382V14.8h-.256Z" transform="translate(-14.071 -14.803)" fill="#fff"/><path d="M14.625,16.12A.565.565,0,0,1,14.243,16a.433.433,0,0,1-.134-.35v-.809h.174v.734a.572.572,0,0,0,.047.268.3.3,0,0,0,.3.142.316.316,0,0,0,.3-.142.628.628,0,0,0,.043-.268v-.734h.178v.809a.436.436,0,0,1-.139.35A.572.572,0,0,1,14.625,16.12Z" transform="translate(-14.066 -14.798)" fill="#bc0927"/></g><g transform="translate(3.397 0.028)"><path d="M16.205,14.817l-.517,1.333h.264l.127-.348H16.6l.123.348h.276l-.521-1.333Zm-.056.789.185-.525.19.525Z" transform="translate(-15.688 -14.817)" fill="#fff"/><path d="M16.738,16.106l-.123-.351H16.04l-.123.351H15.74l.485-1.255h.213l.49,1.255Zm-.655-.462h.489l-.244-.687Z" transform="translate(-15.681 -14.812)" fill="#bc0927"/></g><g transform="translate(5.002 0.028)"><path d="M18.162,14.817l-.355,1.006-.359-1.006H17.1V16.15h.241v-.974l.355.974h.213l.351-.967v.967h.245V14.817Z" transform="translate(-17.101 -14.817)" fill="#fff"/><path d="M18.3,16.106V14.962l-.079.2-.347.943h-.154l-.343-.951-.079-.2v1.152h-.162V14.851h.28l.387,1.093.383-1.093h.276v1.255Z" transform="translate(-17.096 -14.812)" fill="#bc0927"/></g></g></g></g></g></svg>