<svg xmlns="http://www.w3.org/2000/svg" xmlns:xlink="http://www.w3.org/1999/xlink" width="50.425" height="37.571" viewBox="0 0 50.425 37.571"><defs><clipPath id="a"><rect width="50.425" height="37.571" fill="#cacee6"/></clipPath></defs><g transform="translate(0 0)" clip-path="url(#a)"><path d="M33.377.056,24.439,0,16.5.165l-.344,0h-.007C1.682.442,0,3.922,0,18.262c0,2.263,0,4.524.11,6.788C.5,33.932,5.351,36.689,13.462,37.3c2.537.163,5.073.272,7.613.272,1.157,0,2.371,0,3.529-.055l8.442-.166C49.6,36.8,50.425,32.053,50.425,18.1V16.331C50.425,3.092,46.176.056,33.377.056M30.521,20.949l2.156,4.31-5.03-2.443L25.205,32.874,22.761,22.816l-5.029,2.443,2.155-4.31L4.371,18.793l15.517-2.155-2.155-4.312,5.029,2.441L25.205,4.712l2.441,10.056,5.03-2.441-2.156,4.312,15.519,2.155Z" transform="translate(0 0)" fill="#cacee6" fill-rule="evenodd"/></g></svg>