<svg xmlns="http://www.w3.org/2000/svg" width="35.153" height="35.153" viewBox="0 0 35.153 35.153"><g transform="translate(0 0)"><path d="M17.576,0A17.6,17.6,0,0,0,0,17.576H17.576Z" fill="#0739a4"/><path d="M33.039,17.576A17.6,17.6,0,0,0,15.462,0h0V17.576Z" transform="translate(2.114)" fill="#fff"/><path d="M17.576,15.462H0A17.594,17.594,0,0,0,17.576,33.039h0A17.6,17.6,0,0,0,35.153,15.462Z" transform="translate(0 2.114)" fill="#d42b1e"/><path d="M9.4,4.9l1.049,3.235h3.4l-2.75,2,1.049,3.235-2.75-2-2.754,2L7.7,10.136l-2.754-2h3.4Z" transform="translate(0.676 0.671)" fill="#fff"/></g></svg>