<svg xmlns="http://www.w3.org/2000/svg" width="35.156" height="35.153" viewBox="0 0 35.156 35.153"><g transform="translate(0 0)"><path d="M16.476.031.947,23.261A17.417,17.417,0,0,1,0,17.572,17.6,17.6,0,0,1,16.476.031Z" transform="translate(0 0.004)" fill="#043f85"/><path d="M34.781,16.794a17.654,17.654,0,0,1-.375,3.618L5.641,30.019a17.677,17.677,0,0,1-2.9-3.239L30.836,5.716A17.472,17.472,0,0,1,34.781,16.794Z" transform="translate(0.375 0.781)" fill="#d52827"/><path d="M31.1,6.5,3.006,27.562a17.552,17.552,0,0,1-2.173-4.3L16.362.035Q16.906,0,17.462,0A17.552,17.552,0,0,1,31.1,6.5Z" transform="translate(0.114 0)" fill="#fbd759"/><path d="M34.058,18.645a17.508,17.508,0,0,1-3.7,7.618L7.711,30.035a17.492,17.492,0,0,1-2.418-1.784Z" transform="translate(0.724 2.549)" fill="#fff"/><path d="M30.066,25.347A17.55,17.55,0,0,1,7.42,29.119Z" transform="translate(1.014 3.465)" fill="#00793d"/></g></svg>